<svg width="32" height="32" fill="none" xmlns="http://www.w3.org/2000/svg"><circle cx="16" cy="16" r="16" fill="#F7931A"/><path d="M23.055 13.72c.318-2.129-1.303-3.273-3.52-4.037l.72-2.884-1.756-.437-.7 2.808a73.436 73.436 0 00-1.406-.331l.705-2.827-1.755-.437-.72 2.883a58.728 58.728 0 01-1.12-.264l.002-.009-2.421-.604-.467 1.875s1.302.298 1.275.317c.71.177.84.648.818 1.021l-.82 3.285c.05.013.113.031.183.059l-.185-.046-1.148 4.603c-.087.215-.308.54-.805.416.018.026-1.276-.318-1.276-.318l-.871 2.01 2.284.569c.425.107.842.218 1.252.323l-.727 2.917 1.754.438.72-2.887c.478.13.943.25 1.398.363l-.717 2.873 1.756.438.726-2.912c2.994.566 5.245.338 6.192-2.37.764-2.18-.038-3.437-1.613-4.257 1.147-.264 2.011-1.019 2.242-2.577zm-4.011 5.625c-.543 2.18-4.213 1.002-5.403.706l.964-3.864c1.19.296 5.006.884 4.439 3.158zm.543-5.656c-.495 1.983-3.55.976-4.541.729l.874-3.505c.99.246 4.182.707 3.667 2.776z" fill="#fff"/></svg>