<svg width="32" height="32" fill="none" xmlns="http://www.w3.org/2000/svg"><circle cx="16" cy="16" r="16" fill="#2C7DF7"/><path d="M17.59 25.517c-1.292 0-2.233-.31-2.824-.928-.591-.619-.887-1.286-.887-2 0-.261.052-.481.155-.66.1-.176.246-.322.423-.423a1.3 1.3 0 01.66-.154c.26 0 .48.051.66.154.178.103.319.244.422.423.103.179.154.399.154.66 0 .316-.075.574-.226.773-.152.2-.33.33-.536.392.178.247.46.422.845.525.385.11.77.165 1.154.165a2.56 2.56 0 001.454-.433c.433-.288.753-.714.959-1.278.206-.564.31-1.203.31-1.918 0-.776-.114-1.44-.34-1.99-.221-.556-.547-.968-.98-1.236a2.617 2.617 0 00-1.402-.402c-.33 0-.743.137-1.238.412l-.907.454v-.454l4.083-5.443h-5.65v5.649c0 .468.103.852.31 1.155.206.302.522.453.948.453.33 0 .646-.11.948-.33a3.34 3.34 0 00.784-.803.305.305 0 01.103-.135.206.206 0 01.134-.051c.076 0 .165.038.268.113a.56.56 0 01.144.382 2.553 2.553 0 01-.051.288c-.234.523-.557.921-.97 1.196a2.402 2.402 0 01-1.36.413c-1.223 0-2.069-.241-2.536-.722-.467-.481-.701-1.134-.701-1.959v-5.65H9.013v-1.051H11.9V8.713l-.66-.66v-.537h1.918l.72.371v3.217l7.465-.02.742.742-4.577 4.577c.277-.11.569-.18.866-.206.495 0 1.052.158 1.67.474.626.31 1.107.736 1.443 1.278.337.536.554 1.052.65 1.547.103.495.155.934.155 1.32a5.49 5.49 0 01-.557 2.453 3.604 3.604 0 01-1.69 1.69 5.492 5.492 0 01-2.455.558z" fill="#fff"/></svg>