<svg width="40" height="41" fill="none" xmlns="http://www.w3.org/2000/svg"><rect y=".5" width="40" height="40" rx="8" fill="#F2F2F2"/><path d="M13.808 16.1l-3.66 8.4H8.612L4.94 16.1h1.692l2.796 6.48 2.82-6.48h1.56zm.886 0h1.56v8.4h-1.56v-8.4zm9.28 6.456h-4.2l-.828 1.944h-1.608l3.78-8.4h1.536l3.792 8.4h-1.632l-.84-1.944zm-.516-1.224l-1.584-3.672-1.572 3.672h3.156zm7.828 3.288c-.849 0-1.617-.184-2.305-.552a4.212 4.212 0 01-1.608-1.548c-.384-.656-.576-1.396-.576-2.22 0-.824.197-1.564.588-2.22a4.124 4.124 0 011.608-1.536c.689-.376 1.457-.564 2.305-.564.688 0 1.316.12 1.884.36.567.24 1.047.588 1.44 1.044l-1.008.948c-.608-.656-1.356-.984-2.244-.984a3.11 3.11 0 00-1.549.384 2.682 2.682 0 00-1.068 1.044 3.017 3.017 0 00-.384 1.524c0 .568.128 1.076.384 1.524.256.448.613.8 1.069 1.056.456.248.972.372 1.547.372.889 0 1.636-.332 2.245-.996l1.008.96a3.823 3.823 0 01-1.453 1.044c-.567.24-1.195.36-1.883.36z" fill="#3E54D8"/></svg>