<svg width="61" height="58" fill="none" xmlns="http://www.w3.org/2000/svg"><path opacity=".1" d="M60.125 23c0 12.703-10.297 23-23 23h-23V0h23c12.703 0 23 10.297 23 23z" fill="#F3B63F"/><path d="M38.813 57.125H1.437A1.438 1.438 0 010 55.687V18.313a1.438 1.438 0 012.875 0V54.25h35.938a1.438 1.438 0 010 2.875z" fill="#373943"/><path d="M40.136 22.079a1.437 1.437 0 00-1.322-.892h-5.75a1.438 1.438 0 000 2.875h2.285L25.287 34.126H12.939a1.437 1.437 0 00-1.337.906l-5.75 14.375a1.44 1.44 0 002.674 1.063L13.916 37h11.96a1.438 1.438 0 001.02-.417l10.48-10.494v2.286a1.438 1.438 0 102.875 0v-5.75a1.438 1.438 0 00-.115-.546z" fill="#F3B63F"/></svg>