<svg width="59" height="56" fill="none" xmlns="http://www.w3.org/2000/svg"><path opacity=".1" d="M12 47C12 21.043 33.043 0 59 0v47H12z" fill="#ED6373"/><path d="M43.875 23.5H39a1.706 1.706 0 00-.471-1.154 1.884 1.884 0 00-.537-.341 1.625 1.625 0 00-1.234 0 1.62 1.62 0 00-.537.341 1.624 1.624 0 00-.471 1.154h-4.875v-4.875A1.625 1.625 0 0029.25 17h-13a1.625 1.625 0 00-1.625 1.625V23.5H9.75a1.706 1.706 0 00-.471-1.154 1.624 1.624 0 00-2.308 0A1.706 1.706 0 006.5 23.5H1.625A1.625 1.625 0 000 25.125v29.25A1.625 1.625 0 001.625 56h42.25a1.625 1.625 0 001.625-1.625v-29.25a1.625 1.625 0 00-1.625-1.625zm-26-3.25h9.75v3.25h-9.75v-3.25zm24.375 32.5h-39v-26h39v26z" fill="#373943"/><path d="M8.125 33.25a1.625 1.625 0 001.625 1.625h26a1.625 1.625 0 100-3.25h-26a1.625 1.625 0 00-1.625 1.625zm27.625 4.875h-26a1.625 1.625 0 100 3.25h26a1.625 1.625 0 100-3.25z" fill="#ED6373"/><path d="M35.75 44.625h-26a1.625 1.625 0 100 3.25h26a1.625 1.625 0 100-3.25z" fill="#373943"/></svg>