<svg width="178" height="63" viewBox="0 0 178 63" fill="none" xmlns="http://www.w3.org/2000/svg">
<path d="M20.0943 0.00123215C24.3536 0.00123215 25.6919 3.0562 26.8148 6.10638C27.2865 7.40163 38.3547 37.7119 38.6875 38.6217C38.7761 38.8755 38.7163 39.2921 38.326 39.4429C37.9334 39.5914 32.1825 41.8275 31.8641 41.9472C31.5457 42.0693 31.189 41.8922 31.074 41.5737C30.9543 41.2601 28.5673 34.6522 28.2992 33.9148H11.8943C11.6357 34.6522 9.21998 41.2745 9.11224 41.5737C9.00211 41.8778 8.65974 42.0837 8.31977 41.9472C7.97979 41.8132 2.20743 39.577 1.86267 39.4429C1.53227 39.3136 1.38144 38.9378 1.49636 38.6217C1.90337 37.4869 12.8041 7.6626 13.3595 6.10638C14.4417 3.10169 15.8255 0.00123215 20.0943 0.00123215ZM0.620092 54.2366C0.27533 54.2366 0 54.5239 0 54.8734V61.9578C0 62.3073 0.27533 62.5898 0.620092 62.5898H39.5518C39.9038 62.5898 40.1791 62.3073 40.1791 61.9578V54.8734C40.1791 54.5239 39.9038 54.2366 39.5518 54.2366H0.620092ZM20.056 9.89877L14.5111 26.5503H25.6919L20.1279 9.89877H20.056ZM103.261 37.202C102.444 37.4773 101.906 37.5443 101.264 37.5443C99.9378 37.5443 99.2028 37.02 99.2028 35.6601C99.2028 34.2428 100.137 33.7687 101.97 33.7687C102.418 33.7687 102.859 33.8334 103.065 33.9052V34.9203C103.065 36.0145 103.124 36.7327 103.261 37.202ZM107.975 38.8252C106.996 37.3384 106.74 36.4622 106.74 34.5875V30.7808C106.74 28.7314 106.5 27.9916 105.959 27.2446C105.205 26.1864 103.948 25.7267 101.638 25.7267C100.002 25.7267 98.4151 25.9038 96.878 26.2965L97.4335 29.0019C98.4726 28.8559 99.5619 28.7314 100.33 28.7314C102.784 28.7314 103.065 29.0857 103.065 30.9268V31.614C102.519 31.4679 101.906 31.3626 101.195 31.3626C97.5005 31.3626 95.5493 33.1702 95.5493 36.1629C95.5493 38.9689 97.6346 40.4988 100.175 40.4988C101.123 40.4988 102.114 40.324 102.899 40.0032C103.373 39.7973 103.579 39.6752 104.192 39.2777C104.561 39.814 105.301 40.3623 105.602 40.4652L107.975 38.8252ZM144.517 37.202C143.696 37.4773 143.167 37.5443 142.521 37.5443C141.189 37.5443 140.445 37.02 140.445 35.6601C140.445 34.2428 141.391 33.7687 143.229 33.7687C143.677 33.7687 144.12 33.8334 144.321 33.9052V34.9203C144.321 36.0145 144.379 36.7327 144.517 37.202ZM149.236 38.8252C148.25 37.3384 147.999 36.4622 147.999 34.5875V30.7808C147.999 28.7314 147.754 27.9916 147.208 27.2446C146.464 26.1864 145.205 25.7267 142.887 25.7267C141.254 25.7267 139.657 25.9038 138.12 26.2965L138.668 29.0019C139.71 28.8559 140.802 28.7314 141.592 28.7314C144.031 28.7314 144.321 29.0857 144.321 30.9268V31.614C143.775 31.4679 143.167 31.3626 142.442 31.3626C138.743 31.3626 136.784 33.1702 136.784 36.1629C136.784 38.9689 138.874 40.4988 141.427 40.4988C142.387 40.4988 143.368 40.324 144.146 40.0032C144.628 39.7973 144.826 39.6752 145.439 39.2777C145.813 39.814 146.552 40.3623 146.857 40.4652L149.236 38.8252ZM178 40.1803C178 40.1803 175.975 35.8636 175.479 34.882C174.921 33.7759 174.404 33.0122 173.264 32.7368V32.6746C174.028 32.5285 174.636 32.0665 175.302 30.6539C175.931 29.2772 176.118 28.9804 176.489 28.6524C176.853 28.3268 177.351 28.4441 177.351 28.4441L177.538 25.8991C177.009 25.8272 176.422 25.8248 175.816 25.8584C174.811 25.9182 174.291 26.2079 173.796 26.7059C173.408 27.0866 173.145 27.6564 172.819 28.31C172.474 29.0235 172.201 29.5981 171.842 30.3235C171.485 31.0681 171.318 31.4033 170.358 31.4033H169.733V20.1291H166.034V40.1803H169.733V34.4152L170.238 34.4056C171.299 34.4056 171.485 34.6713 172.046 35.7894C172.702 37.123 173.959 40.1803 173.959 40.1803H178ZM73.7958 40.1803H78.0646L71.6075 20.4643C70.9275 20.2368 70.0872 20.0956 69.1894 20.0956C68.2101 20.0956 67.8606 20.2249 67.0945 20.4643L60.2615 40.1803H64.3579C64.3579 40.1803 64.911 38.4517 65.5622 36.3089H72.6394C73.2714 38.4493 73.7958 40.1803 73.7958 40.1803ZM66.6012 33.0026C66.6012 33.0026 67.784 29.045 67.9683 28.4297C68.4376 26.8352 69.1511 24.3021 69.1511 24.3021H69.2684C69.2684 24.3021 69.9292 26.9262 70.3601 28.401C70.5229 28.9875 71.653 33.0026 71.653 33.0026H66.6012ZM114.277 30.7473C112.972 30.7473 111.911 31.8127 111.911 33.1175C111.911 34.4319 112.972 35.4901 114.277 35.4901C115.584 35.4901 116.64 34.4319 116.64 33.1175C116.64 31.8127 115.584 30.7473 114.277 30.7473ZM83.1331 20.1291H79.4245V40.1779H83.1331V20.1291ZM156.814 28.9133C158.863 28.9564 159.117 29.3802 159.117 31.0992V40.1803H162.792V30.7808C162.792 28.7314 162.553 27.9916 162.007 27.2446C161.253 26.1864 159.771 25.7267 157.264 25.7267C154.784 25.7267 153.203 25.99 151.171 26.5958V40.1803H154.884V29.0857C155.859 28.9445 156.031 28.9133 156.814 28.9133ZM92.3052 19.7724C89.9876 19.7724 88.7259 20.232 87.9837 21.2879C87.4378 22.0373 87.196 22.7938 87.196 24.848V26.5958H85.3549V29.5933H87.196V40.1803H90.8734L90.8639 29.5933H94.5294V26.5958H90.8639L90.8734 24.9893C90.8734 23.1505 91.1535 22.7938 93.61 22.7938C93.8757 22.7938 94.175 22.8082 94.4934 22.8321L95.0728 19.9519C94.1654 19.8322 93.2365 19.7724 92.3052 19.7724ZM121.811 19.9591C123.073 19.8849 125.893 19.7795 127.662 19.7795C127.986 19.7795 128.321 19.7819 128.656 19.7987C132.135 19.7987 134.129 22.3317 134.129 25.3053C134.129 27.3284 133.202 28.6715 131.031 29.4712C133.586 30.0362 134.924 32.0306 134.924 34.4702C134.924 36.2611 134.419 37.6832 133.492 38.6528C132.29 39.8356 130.471 40.4988 128.048 40.4988C125.893 40.4988 123.188 40.4317 121.811 40.3503V19.9591ZM127.662 23.2439C127.049 23.2439 126.291 23.2559 125.539 23.2822V28.0969H127.665C128.508 28.0969 129.185 27.8623 129.647 27.4098C130.088 26.9836 130.318 26.3803 130.318 25.6644C130.318 24.125 129.484 23.2535 127.935 23.2439H127.662ZM127.739 37.0416H127.899C129.831 37.0416 131.014 36.0145 131.029 33.9459C131.009 33.2037 130.725 32.519 130.215 32.0234C129.657 31.4631 128.867 31.171 127.94 31.171H125.539V37.02C126.216 37.0344 126.963 37.0368 127.739 37.0416Z" fill="#EE2A23"/>
</svg>
