<svg width="164" height="53" viewBox="0 0 164 53" fill="none" xmlns="http://www.w3.org/2000/svg">
<path d="M87.0822 22.6803C88.4718 23.2039 89.7147 23.9177 90.7185 24.8254C91.7223 25.7771 92.5383 26.9228 93.1597 28.2076C93.7333 29.4926 94.0201 30.9237 94.0201 32.4977C94.0201 34.0715 93.7333 35.4517 93.1597 36.7401C92.5383 38.025 91.7223 39.1706 90.7185 40.0749C89.7147 41.0267 88.4684 41.744 87.0822 42.2674C85.6448 42.7909 84.1151 43.0765 82.4387 43.0765H65.7256V9.24609H91.1009V15.8204H72.7113V21.9189H82.4387C84.1118 21.9189 85.6448 22.1569 87.0822 22.6803ZM85.9316 29.3533C85.0233 28.6394 83.8249 28.2586 82.3431 28.2586H72.7113V36.6925H82.3431C83.8249 36.6925 85.0233 36.3118 85.9316 35.5979C86.8398 34.8841 87.27 33.8812 87.27 32.5011C87.2734 31.1142 86.8398 30.0672 85.9316 29.3533Z" fill="#006DF0"/>
<path d="M106.978 43.0765H100.292V9.24609H106.978V23.588L118.862 9.24609H127.174L113.615 25.495L130.004 43.0765H121.277L106.978 27.7318V43.0765Z" fill="#006DF0"/>
<path d="M140.267 42.2643C138.113 41.3601 136.245 40.1193 134.668 38.5488C133.087 36.9748 131.845 35.1664 130.936 33.0215C130.028 30.8765 129.594 28.5887 129.594 26.1582C129.594 23.7276 130.025 21.4398 130.936 19.2949C131.845 17.1499 133.09 15.2938 134.668 13.7199C136.245 12.146 138.113 10.9087 140.267 10.0044C142.422 9.1002 144.815 8.67188 147.4 8.67188C149.315 8.67188 151.179 8.95743 152.952 9.52852C154.724 10.1472 156.349 10.9596 157.834 12.0067C159.272 13.1012 160.514 14.3419 161.566 15.8173C162.618 17.296 163.386 18.9617 163.863 20.7735H156.349C156.014 19.917 155.536 19.1521 154.912 18.4859C154.291 17.8196 153.57 17.2485 152.757 16.7692C151.945 16.3408 151.128 15.9601 150.22 15.7222C149.312 15.4842 148.353 15.3414 147.397 15.3414C145.768 15.3414 144.286 15.6269 142.992 16.1505C141.654 16.7216 140.503 17.483 139.547 18.4859C138.591 19.4853 137.871 20.6308 137.345 21.9158C136.819 23.2008 136.579 24.6319 136.579 26.1582C136.579 27.6844 136.819 29.1122 137.345 30.4005C137.871 31.6855 138.587 32.8311 139.547 33.8305C140.503 34.8299 141.654 35.5947 142.992 36.1183C144.282 36.6894 145.768 36.9749 147.397 36.9749C148.353 36.9749 149.312 36.8321 150.22 36.5941C151.128 36.3563 151.945 35.9754 152.757 35.4996C153.57 35.0713 154.291 34.5002 154.912 33.8305C155.533 33.1642 156.011 32.3993 156.349 31.5428H163.863C163.386 33.3546 162.621 34.9727 161.566 36.4514C160.511 37.9301 159.268 39.2151 157.834 40.2621C156.352 41.3566 154.724 42.1691 152.952 42.7402C151.179 43.3589 149.315 43.6444 147.4 43.6444C144.815 43.6479 142.422 43.1719 140.267 42.2643Z" fill="#006DF0"/>
<mask id="mask0" style="mask-type:alpha" maskUnits="userSpaceOnUse" x="0" y="0" width="53" height="53">
<path d="M26.2959 52.1031C40.6464 52.1031 52.2798 40.5208 52.2798 26.2332C52.2798 11.9456 40.6464 0.363281 26.2959 0.363281C11.9454 0.363281 0.312012 11.9456 0.312012 26.2332C0.312012 40.5208 11.9454 52.1031 26.2959 52.1031Z" fill="#C4C4C4"/>
</mask>
<g mask="url(#mask0)">
<path d="M39.0058 3.11442C51.9876 10.4085 56.6922 26.5885 49.5126 39.2556C42.333 51.9226 25.9898 56.274 13.0078 48.9799C0.0258622 41.6858 -4.67872 25.5058 2.50088 12.8387C9.68048 0.171677 26.0238 -4.17965 39.0058 3.11442Z" fill="url(#paint0_linear)"/>
<path d="M39.0058 3.11442C51.9876 10.4085 56.6922 26.5885 49.5126 39.2556C42.333 51.9226 25.9898 56.274 13.0078 48.9799C0.0258622 41.6858 -4.67872 25.5058 2.50088 12.8387C9.68048 0.171677 26.0238 -4.17965 39.0058 3.11442Z" fill="url(#paint1_linear)"/>
<path d="M14.1958 36.2575C4.39797 26.6962 3.46046 12.6001 12.0991 4.77651C20.7379 -3.04708 35.6834 -1.6385 45.4812 7.92291C55.2791 17.4843 56.2165 31.577 47.5744 39.404C38.9323 47.231 23.9902 45.8189 14.1958 36.2575Z" fill="url(#paint2_radial)"/>
<path d="M24.4995 26.2923C14.5356 20.6129 9.77395 10.9781 13.8627 4.77823C17.9515 -1.42161 29.3466 -1.84672 39.3105 3.83278C49.2745 9.51228 54.0361 19.1471 49.9439 25.3503C45.8518 31.5535 34.4635 31.9753 24.4995 26.2923Z" fill="url(#paint3_radial)"/>
</g>
<defs>
<linearGradient id="paint0_linear" x1="25.1658" y1="52.5137" x2="26.0397" y2="3.32899" gradientUnits="userSpaceOnUse">
<stop stop-color="#4581E9"/>
<stop offset="0.479167" stop-color="#80ACF0"/>
<stop offset="1" stop-color="white"/>
</linearGradient>
<linearGradient id="paint1_linear" x1="67.6516" y1="52.025" x2="22.6589" y2="11.5194" gradientUnits="userSpaceOnUse">
<stop stop-color="#4581E9"/>
<stop offset="1" stop-color="#4581E9" stop-opacity="0"/>
</linearGradient>
<radialGradient id="paint2_radial" cx="0" cy="0" r="1" gradientUnits="userSpaceOnUse" gradientTransform="translate(59.0606 29.1909) rotate(-156.448) scale(62.2742 128.017)">
<stop offset="0.0969745" stop-color="#4581E9"/>
<stop offset="0.459935" stop-color="#80ACF0"/>
<stop offset="0.794216" stop-color="#F0F6FD"/>
</radialGradient>
<radialGradient id="paint3_radial" cx="0" cy="0" r="1" gradientUnits="userSpaceOnUse" gradientTransform="translate(79.3967 5.10017) rotate(176.066) scale(54.8162 65.4655)">
<stop stop-color="#4581E9"/>
<stop offset="0.536835" stop-color="#87B1F0"/>
<stop offset="0.805657" stop-color="#CCE0FD"/>
<stop offset="1" stop-color="#F0F6FD"/>
</radialGradient>
</defs>
</svg>
