<svg width="193" height="30" viewBox="0 0 193 30" fill="none" xmlns="http://www.w3.org/2000/svg">
<path d="M23.9535 27.9254H20.8792V13.0234H23.9535V27.9254Z" fill="#222222"/>
<path d="M35.525 17.549C36.2509 18.1468 36.5924 19.1289 36.5924 20.4953V27.9249H33.6462V21.2211C33.6462 20.6234 33.5608 20.1964 33.4327 19.8975C33.1338 19.3424 32.6214 19.0435 31.8101 19.0435C30.8281 19.0435 30.1876 19.4705 29.8033 20.2818C29.6325 20.7088 29.5044 21.2638 29.5044 21.947V27.9249H26.6436V16.9512H29.419V18.5738C29.8033 18.0187 30.1449 17.5917 30.4438 17.3355C31.0416 16.9085 31.7674 16.6523 32.7068 16.6523C33.8597 16.6523 34.7991 16.9512 35.525 17.549Z" fill="#222222"/>
<path d="M37.959 19.0848V17.0353H39.4962V13.9609H42.357V17.0353H44.1504V19.0848H42.357V24.8919C42.357 25.3616 42.3997 25.6178 42.5278 25.7459C42.6559 25.874 42.9975 25.9167 43.5953 25.9167C43.6807 25.9167 43.7661 25.9167 43.8942 25.9167C43.9796 25.9167 44.1077 25.9167 44.1931 25.9167V28.0516L42.8267 28.0943C41.4603 28.137 40.5209 27.9235 40.0512 27.3685C39.7096 27.0269 39.5815 26.5145 39.5815 25.8313V19.0848H37.959Z" fill="#222222"/>
<path d="M52.9889 17.1645C53.7574 17.5061 54.3979 18.0611 54.9103 18.787C55.38 19.4275 55.6362 20.1961 55.807 21.0501C55.8924 21.5625 55.9351 22.2884 55.8924 23.2277H47.865C47.9077 24.3379 48.292 25.1065 49.0178 25.5335C49.4448 25.7897 49.9999 25.9605 50.5977 25.9605C51.2382 25.9605 51.7933 25.7897 52.1776 25.4481C52.3911 25.2773 52.6046 25.0211 52.7754 24.6795H55.7216C55.6362 25.32 55.2946 26.0032 54.6541 26.6864C53.672 27.7538 52.3057 28.3089 50.5123 28.3089C49.0605 28.3089 47.7369 27.8392 46.6267 26.9426C45.5165 26.0459 44.9614 24.5514 44.9614 22.5446C44.9614 20.6231 45.4738 19.1713 46.4986 18.1465C47.5234 17.1218 48.8043 16.6094 50.4269 16.6094C51.3663 16.6094 52.2203 16.8229 52.9889 17.1645ZM48.7189 19.641C48.292 20.068 48.0358 20.6231 47.9504 21.349H52.9035C52.8608 20.5804 52.6046 20.0253 52.1349 19.5983C51.6652 19.214 51.1101 19.0005 50.4269 19.0005C49.6583 19.0005 49.1032 19.214 48.7189 19.641Z" fill="#222222"/>
<path d="M63.6636 16.6523C63.7063 16.6523 63.7917 16.6523 63.9198 16.6523V19.6413C63.749 19.6413 63.5782 19.5986 63.4501 19.5986C63.322 19.5986 63.1939 19.5986 63.1085 19.5986C61.9556 19.5986 61.187 19.9829 60.76 20.7088C60.5465 21.1358 60.4184 21.7762 60.4184 22.6729V27.9249H57.5149V16.9085H60.2476V18.83C60.6746 18.1041 61.0589 17.5917 61.4005 17.3355C61.9556 16.8658 62.6388 16.6523 63.4928 16.6523C63.6209 16.6523 63.6636 16.6523 63.6636 16.6523Z" fill="#222222"/>
<path d="M69.9403 21.2211C70.4954 21.1358 70.8797 21.0504 71.0932 20.965C71.5202 20.7942 71.7337 20.538 71.7337 20.1537C71.7337 19.684 71.5629 19.3851 71.264 19.2143C70.9651 19.0435 70.4954 18.9581 69.8549 18.9581C69.1717 18.9581 68.6594 19.1289 68.4032 19.4705C68.1897 19.7267 68.0616 20.0683 67.9762 20.4953H65.2007C65.2434 19.5132 65.5423 18.7446 66.012 18.1041C66.7806 17.122 68.1043 16.6523 69.9403 16.6523C71.1359 16.6523 72.2461 16.9085 73.1855 17.3782C74.1248 17.8479 74.5945 18.7446 74.5945 20.0683V25.1068C74.5945 25.4484 74.5945 25.8754 74.5945 26.3877C74.5945 26.772 74.6799 27.0282 74.7653 27.1563C74.8507 27.2844 75.0215 27.4125 75.1923 27.4979V27.9249H72.0753C71.9899 27.7114 71.9472 27.4979 71.9045 27.2844C71.8618 27.0709 71.8618 26.8574 71.8191 26.6012C71.4348 27.0282 70.9651 27.4125 70.4527 27.7114C69.8122 28.053 69.129 28.2665 68.3178 28.2665C67.3357 28.2665 66.4817 27.9676 65.8412 27.4125C65.2007 26.8574 64.8591 26.0461 64.8591 24.9787C64.8591 23.6123 65.3715 22.6302 66.439 22.0324C67.0368 21.6908 67.8481 21.4773 69.0009 21.3065L69.9403 21.2211ZM71.691 22.5875C71.5202 22.7156 71.3067 22.801 71.1359 22.8864C70.9651 22.9718 70.7089 23.0145 70.3673 23.0999L69.7268 23.228C69.129 23.3561 68.6594 23.4842 68.4032 23.6123C67.9335 23.8685 67.72 24.2955 67.72 24.8506C67.72 25.363 67.8481 25.7046 68.147 25.9181C68.4032 26.1315 68.7448 26.2596 69.1717 26.2596C69.8122 26.2596 70.3673 26.0888 70.9224 25.7046C71.4348 25.3203 71.7337 24.6798 71.7337 23.6977V22.5875H71.691Z" fill="#222222"/>
<path d="M83.6468 20.8796C83.6041 20.4526 83.476 20.111 83.2198 19.7694C82.8782 19.3424 82.4085 19.0862 81.7254 19.0862C80.7433 19.0862 80.1028 19.5559 79.7185 20.538C79.5477 21.0504 79.4196 21.7335 79.4196 22.5875C79.4196 23.3988 79.505 24.0393 79.7185 24.5517C80.0601 25.4484 80.7006 25.9181 81.6827 25.9181C82.3658 25.9181 82.8355 25.7473 83.1344 25.363C83.4333 24.9787 83.6041 24.509 83.6468 23.9539H86.5931C86.5077 24.8506 86.2088 25.6619 85.6537 26.4304C84.757 27.6687 83.4333 28.3092 81.64 28.3092C79.8466 28.3092 78.5656 27.7968 77.7116 26.7293C76.8577 25.6619 76.4307 24.3382 76.4307 22.6302C76.4307 20.7515 76.9004 19.257 77.797 18.2322C78.7364 17.1647 79.9747 16.6523 81.64 16.6523C83.0063 16.6523 84.1592 16.9512 85.0132 17.5917C85.8672 18.2322 86.4223 19.2997 86.5931 20.8796H83.6468Z" fill="#222222"/>
<path d="M87.5325 19.0848V17.0353H89.0696V13.9609H91.9305V17.0353H93.7238V19.0848H91.9305V24.8919C91.9305 25.3616 91.9732 25.6178 92.1013 25.7459C92.2294 25.874 92.571 25.9167 93.1688 25.9167C93.2542 25.9167 93.3395 25.9167 93.4676 25.9167C93.553 25.9167 93.6811 25.9167 93.7665 25.9167V28.0516L92.4002 28.0943C91.0338 28.137 90.0944 27.9235 89.6247 27.3685C89.2831 27.0269 89.155 26.5145 89.155 25.8313V19.0848H87.5325Z" fill="#222222"/>
<path d="M98.5061 15.6278H95.6025V12.9805H98.5061V15.6278ZM95.6025 16.9088H98.5061V27.9252H95.6025V16.9088Z" fill="#222222"/>
<path d="M107.857 16.9102H110.931L106.96 27.9265H103.929L100 16.9102H103.246L105.551 25.023L107.857 16.9102Z" fill="#222222"/>
<path d="M119.386 17.1645C120.154 17.5061 120.795 18.0611 121.307 18.787C121.777 19.4275 122.033 20.1961 122.204 21.0501C122.289 21.5625 122.332 22.2884 122.289 23.2277H114.262C114.305 24.3379 114.689 25.1065 115.415 25.5335C115.842 25.7897 116.397 25.9605 116.995 25.9605C117.635 25.9605 118.19 25.7897 118.575 25.4481C118.788 25.2773 119.002 25.0211 119.172 24.6795H122.119C122.033 25.32 121.692 26.0032 121.051 26.6864C120.069 27.7538 118.703 28.3089 116.909 28.3089C115.458 28.3089 114.134 27.8392 113.024 26.9426C111.913 26.0459 111.358 24.5514 111.358 22.5446C111.358 20.6231 111.871 19.1713 112.896 18.1465C113.92 17.1218 115.201 16.6094 116.824 16.6094C117.721 16.6094 118.617 16.8229 119.386 17.1645ZM115.073 19.641C114.646 20.068 114.39 20.6231 114.305 21.349H119.258C119.215 20.5804 118.959 20.0253 118.489 19.5983C118.019 19.214 117.464 19.0005 116.781 19.0005C116.055 19.0005 115.458 19.214 115.073 19.641Z" fill="#222222"/>
<path d="M124.168 13.1094H130.573C132.324 13.1094 133.562 13.6218 134.288 14.6465C134.715 15.2443 134.929 15.9702 134.929 16.7815C134.929 17.7209 134.672 18.4895 134.117 19.0873C133.861 19.3861 133.434 19.685 132.922 19.9412C133.69 20.2401 134.245 20.539 134.63 20.9233C135.313 21.5638 135.612 22.4605 135.612 23.6134C135.612 24.5527 135.313 25.4494 134.715 26.218C133.818 27.3709 132.367 27.9687 130.402 27.9687H124.083V13.1094H124.168ZM129.847 19.3861C130.701 19.3861 131.385 19.258 131.854 19.0446C132.623 18.6603 132.964 18.0198 132.964 17.0377C132.964 16.0556 132.58 15.4151 131.769 15.0735C131.299 14.9027 130.659 14.7746 129.762 14.7746H126.133V19.3861H129.847ZM130.488 26.218C131.726 26.218 132.623 25.8764 133.135 25.1505C133.477 24.6808 133.648 24.1684 133.648 23.528C133.648 22.4605 133.178 21.7346 132.196 21.3076C131.683 21.0941 131 21.0087 130.146 21.0087H126.133V26.218H130.488Z" fill="#222222"/>
<path d="M137.789 17.1237H139.497V19.0024C139.625 18.6181 139.967 18.1911 140.522 17.6787C141.077 17.1664 141.717 16.9102 142.443 16.9102C142.486 16.9102 142.529 16.9102 142.614 16.9102C142.699 16.9102 142.828 16.9102 143.041 16.9529V18.8743C142.913 18.8743 142.828 18.8316 142.742 18.8316C142.657 18.8316 142.571 18.8316 142.443 18.8316C141.547 18.8316 140.821 19.1305 140.351 19.7283C139.839 20.3261 139.625 21.0093 139.625 21.7779V28.0119H137.789V17.1237Z" fill="#222222"/>
<path d="M152.35 18.1903C153.289 19.1297 153.801 20.4961 153.801 22.2894C153.801 24.0401 153.374 25.4919 152.52 26.602C151.666 27.7549 150.385 28.31 148.592 28.31C147.098 28.31 145.945 27.7976 145.091 26.8155C144.237 25.7908 143.767 24.4671 143.767 22.7591C143.767 20.9231 144.237 19.514 145.133 18.4038C146.03 17.3363 147.268 16.7812 148.806 16.7812C150.215 16.8239 151.41 17.2509 152.35 18.1903ZM151.239 25.4065C151.666 24.5098 151.923 23.485 151.923 22.3748C151.923 21.3501 151.752 20.5388 151.453 19.8983C150.941 18.9162 150.087 18.4038 148.848 18.4038C147.738 18.4038 146.97 18.8308 146.457 19.6848C145.945 20.5388 145.689 21.5636 145.689 22.7591C145.689 23.912 145.945 24.8514 146.457 25.62C146.97 26.3886 147.738 26.7728 148.848 26.7728C149.958 26.7728 150.77 26.3032 151.239 25.4065Z" fill="#222222"/>
<path d="M155.851 13.1094H157.602V21.7346L162.256 17.1231H164.562L160.42 21.1368L164.818 27.926H162.512L159.096 22.4178L157.602 23.8696V27.926H155.851V13.1094Z" fill="#222222"/>
<path d="M172.376 17.4209C173.102 17.7625 173.657 18.2322 173.998 18.83C174.34 19.3851 174.596 20.0256 174.724 20.7515C174.852 21.2638 174.895 22.0324 174.895 23.1426H167.038C167.081 24.2528 167.337 25.1068 167.807 25.79C168.277 26.4731 169.045 26.772 170.027 26.772C170.967 26.772 171.735 26.4731 172.29 25.8327C172.589 25.4484 172.845 25.0641 172.974 24.5517H174.767C174.724 24.936 174.553 25.4057 174.297 25.8754C174.041 26.345 173.742 26.772 173.401 27.0709C172.845 27.626 172.162 27.9676 171.351 28.1811C170.924 28.3092 170.412 28.3519 169.856 28.3519C168.533 28.3519 167.38 27.8822 166.441 26.9001C165.501 25.9181 165.031 24.5517 165.031 22.801C165.031 21.0504 165.501 19.6413 166.441 18.5738C167.38 17.5063 168.618 16.9512 170.113 16.9512C170.924 16.8658 171.65 17.0366 172.376 17.4209ZM173.016 21.6481C172.931 20.8796 172.76 20.2391 172.504 19.7694C171.991 18.8727 171.18 18.4457 170.027 18.4457C169.216 18.4457 168.49 18.7446 167.935 19.3424C167.38 19.9402 167.081 20.7088 167.038 21.6481H173.016Z" fill="#222222"/>
<path d="M177.03 17.1237H178.738V19.0024C178.866 18.6181 179.208 18.1911 179.763 17.6787C180.318 17.1664 180.958 16.9102 181.684 16.9102C181.727 16.9102 181.77 16.9102 181.855 16.9102C181.94 16.9102 182.069 16.9102 182.282 16.9529V18.8743C182.154 18.8743 182.069 18.8316 181.983 18.8316C181.898 18.8316 181.812 18.8316 181.684 18.8316C180.788 18.8316 180.062 19.1305 179.592 19.7283C179.08 20.3261 178.866 21.0093 178.866 21.7779V28.0119H177.03V17.1237Z" fill="#222222"/>
<path d="M184.972 24.553C185.015 25.1508 185.185 25.6205 185.442 25.9621C185.911 26.5599 186.723 26.8588 187.875 26.8588C188.559 26.8588 189.156 26.7307 189.712 26.4318C190.224 26.1329 190.48 25.7059 190.48 25.0654C190.48 24.5957 190.267 24.2541 189.84 23.9979C189.583 23.8698 189.028 23.699 188.26 23.4856L186.808 23.1013C185.869 22.8878 185.185 22.6316 184.716 22.3327C183.904 21.8203 183.52 21.1798 183.52 20.2831C183.52 19.2583 183.904 18.4471 184.63 17.8066C185.356 17.1661 186.381 16.8672 187.662 16.8672C189.327 16.8672 190.523 17.3369 191.249 18.319C191.718 18.9167 191.932 19.5999 191.932 20.2831H190.224C190.181 19.8561 190.053 19.5145 189.797 19.1729C189.37 18.7033 188.644 18.4471 187.577 18.4471C186.893 18.4471 186.338 18.5752 185.997 18.8313C185.655 19.0875 185.442 19.4291 185.442 19.8561C185.442 20.3258 185.698 20.7101 186.167 20.9663C186.424 21.1371 186.851 21.2652 187.363 21.3933L188.601 21.6922C189.925 21.9911 190.822 22.3327 191.291 22.6316C192.017 23.1013 192.359 23.8271 192.359 24.8092C192.359 25.7913 191.975 26.6026 191.249 27.2858C190.523 27.969 189.37 28.3533 187.875 28.3533C186.253 28.3533 185.1 27.969 184.417 27.2431C183.734 26.5172 183.392 25.6205 183.307 24.5103H184.972V24.553Z" fill="#222222"/>
<path d="M12.5958 27.9234H0.469238V14.5586L12.5958 27.9234Z" fill="url(#paint0_linear)"/>
<path d="M10.8875 21.4776C12.892 21.4776 14.5169 19.8527 14.5169 17.8482C14.5169 15.8437 12.892 14.2188 10.8875 14.2188C8.88301 14.2188 7.25806 15.8437 7.25806 17.8482C7.25806 19.8527 8.88301 21.4776 10.8875 21.4776Z" fill="#D81222"/>
<path d="M12.5968 0.511719L0.470215 14.5597V27.9246L12.5968 0.511719Z" fill="#D81222"/>
<defs>
<linearGradient id="paint0_linear" x1="12.5988" y1="21.2551" x2="0.469282" y2="21.2551" gradientUnits="userSpaceOnUse">
<stop stop-color="#D81222"/>
<stop offset="1" stop-color="#960B1A"/>
</linearGradient>
</defs>
</svg>
