<svg width="190" height="31" viewBox="0 0 190 31" fill="none" xmlns="http://www.w3.org/2000/svg">
<g clip-path="url(#clip0)">
<path d="M26.155 6.33594C26.8485 7.24473 27.4357 8.23207 27.9046 9.27811L14.6044 19.2144L9.0459 15.6831V11.4348L14.6044 14.966L26.155 6.33594Z" fill="#21A038"/>
<path d="M3.3732 15.384C3.3732 15.1934 3.37778 15.004 3.38696 14.8157L0.018346 14.6484C0.00688039 14.8925 4.07081e-06 15.1388 4.07081e-06 15.3874C-0.00142918 17.3302 0.375616 19.2539 1.10952 21.0485C1.84342 22.8432 2.91972 24.4733 4.27669 25.8454L6.66613 23.425C5.62158 22.3707 4.79294 21.1175 4.22783 19.7375C3.66271 18.3576 3.37227 16.878 3.3732 15.384Z" fill="url(#paint0_linear)"/>
<path d="M14.6017 4.00221C14.7897 4.00221 14.9766 4.00919 15.1623 4.01848L15.3309 0.603378C15.0894 0.591758 14.8463 0.585948 14.6017 0.585948C12.6839 0.583578 10.7846 0.965146 9.01279 1.70874C7.24095 2.45234 5.6315 3.54332 4.27686 4.91903L6.6663 7.34063C7.70667 6.28168 8.94334 5.44158 10.3052 4.86866C11.667 4.29574 13.1271 4.00127 14.6017 4.00221Z" fill="url(#paint1_linear)"/>
<path d="M14.6017 26.763C14.4137 26.763 14.2267 26.763 14.0399 26.7479L13.8713 30.1618C14.1136 30.1742 14.3571 30.1805 14.6017 30.1805C16.5187 30.1825 18.417 29.8006 20.1879 29.0568C21.9588 28.313 23.5672 27.2219 24.9208 25.8462L22.536 23.4258C21.4954 24.4842 20.2589 25.3238 18.8973 25.8965C17.5357 26.4692 16.0759 26.7637 14.6017 26.763Z" fill="url(#paint2_linear)"/>
<path d="M20.9304 5.98924L23.7692 3.86859C21.1745 1.73919 17.9355 0.580027 14.5967 0.58596V4.00339C16.8576 4.00055 19.066 4.693 20.9304 5.98924Z" fill="url(#paint3_linear)"/>
<path d="M29.2022 15.3821C29.2041 14.4931 29.1273 13.6056 28.9729 12.7305L25.8302 15.0777C25.8302 15.1788 25.8302 15.2799 25.8302 15.3821C25.831 16.9721 25.5021 18.5445 24.865 19.9973C24.2278 21.4502 23.2964 22.7512 22.1313 23.8159L24.3981 26.3549C25.9128 24.9691 27.1232 23.2762 27.9508 21.386C28.7785 19.4956 29.2048 17.4502 29.2022 15.3821Z" fill="#21A038"/>
<path d="M14.6017 26.7642C13.0327 26.7648 11.4812 26.4314 10.0474 25.7856C8.61369 25.1399 7.32975 24.1962 6.27875 23.0156L3.77466 25.3117C5.14189 26.847 6.81226 28.0739 8.67746 28.9129C10.5427 29.7518 12.561 30.1841 14.6017 30.1816V26.7642Z" fill="url(#paint4_linear)"/>
<path d="M7.07203 6.94912L4.80641 4.41016C3.29131 5.79569 2.08048 7.4885 1.25246 9.3788C0.424453 11.2691 -0.00225744 13.3147 8.98122e-06 15.3829H3.37321C3.37251 13.793 3.70142 12.2206 4.3386 10.7678C4.97578 9.31493 5.90704 8.01394 7.07203 6.94912Z" fill="url(#paint5_linear)"/>
<path d="M84.2608 9.04882L88.4385 5.96484H74.4565V24.4969H88.4385V21.4129H78.4462V16.6659H86.9701V13.5819H78.4462V9.04882H84.2608Z" fill="#21A038"/>
<path d="M65.0483 13.1832H60.1941V9.04648H67.9413L72.1165 5.95312H56.2068V24.4852H64.5348C69.204 24.4852 71.8836 22.3648 71.8836 18.6668C71.8836 15.1291 69.4565 13.1832 65.0483 13.1832ZM64.3553 21.4002H60.1941V16.2652H64.3553C66.8806 16.2652 68.0647 17.1258 68.0647 18.8328C68.0647 20.5397 66.8048 21.4002 64.3553 21.4002Z" fill="#21A038"/>
<path d="M98.7161 5.96094H91.1052V24.4929H95.0943V19.2431H98.7161C103.572 19.2431 106.576 16.6829 106.576 12.5921C106.576 8.50146 103.572 5.96094 98.7161 5.96094ZM98.6319 16.1568H95.0943V9.04727H98.6319C101.186 9.04727 102.596 10.3105 102.596 12.6034C102.596 14.8964 101.186 16.1568 98.6319 16.1568Z" fill="#21A038"/>
<path d="M50.2204 20.1191C49.1899 20.6783 48.0353 20.9678 46.8636 20.9609C43.3563 20.9609 40.8121 18.4521 40.8121 14.9975C40.8121 11.5427 43.3563 9.02848 46.8636 9.02848C48.1283 9.00695 49.3669 9.39123 50.3982 10.1252L53.1887 8.06609L52.9999 7.93174C51.3722 6.49777 49.1972 5.73828 46.7077 5.73828C44.0074 5.73828 41.5589 6.64856 39.8108 8.30463C38.9268 9.15731 38.2278 10.1834 37.757 11.3189C37.2864 12.4544 37.0541 13.6748 37.075 14.9042C37.0563 16.1461 37.2875 17.379 37.7547 18.5294C38.2219 19.6798 38.9156 20.724 39.7944 21.5998C41.5507 23.3216 43.9937 24.2703 46.6748 24.2703C49.4762 24.2703 51.9248 23.2914 53.5827 21.5093L51.0849 19.6449L50.2204 20.1191Z" fill="#21A038"/>
<path d="M122.394 13.1832H117.542V9.04648H127.969V5.95312H113.552V24.4852H121.869C126.538 24.4852 129.217 22.3648 129.217 18.6668C129.228 15.1291 126.802 13.1832 122.394 13.1832ZM121.701 21.4002H117.542V16.2652H121.701C124.226 16.2652 125.409 17.1258 125.409 18.8328C125.409 20.5397 124.161 21.4002 121.701 21.4002Z" fill="#21A038"/>
<path d="M174.571 24.4578H170.527V5.92578H174.571V13.7094H176.772L182.717 5.92578H187.3L180.249 14.7417L188.437 24.4578H183.07L177.053 17.1693H174.571V24.4578Z" fill="#21A038"/>
<path d="M143.911 20.9372H135.356L133.905 24.5359H129.601L137.626 6.00391H141.929L149.823 24.5359H145.361L143.911 20.9372ZM142.571 17.5794L139.659 10.3819L136.73 17.5794H142.571Z" fill="#21A038"/>
<path d="M155.268 6.00391V13.7426H163.637V6.00391H167.807V24.5359H163.637V17.2337H155.268V24.5359H151.098V6.00391H155.268Z" fill="#21A038"/>
</g>
<defs>
<linearGradient id="paint0_linear" x1="4.9589" y1="25.419" x2="1.18491" y2="14.654" gradientUnits="userSpaceOnUse">
<stop offset="0.14" stop-color="#F1E813"/>
<stop offset="0.3" stop-color="#E6E418"/>
<stop offset="0.58" stop-color="#C9DA26"/>
<stop offset="0.89" stop-color="#A2CC39"/>
</linearGradient>
<linearGradient id="paint1_linear" x1="5.23997" y1="5.52327" x2="14.7642" y2="1.94191" gradientUnits="userSpaceOnUse">
<stop offset="0.06" stop-color="#0FA7DF"/>
<stop offset="0.54" stop-color="#0098F8"/>
<stop offset="0.92" stop-color="#0290EA"/>
</linearGradient>
<linearGradient id="paint2_linear" x1="13.6489" y1="28.1179" x2="24.3968" y2="25.7221" gradientUnits="userSpaceOnUse">
<stop offset="0.12" stop-color="#A2CC39"/>
<stop offset="0.28" stop-color="#86C239"/>
<stop offset="0.87" stop-color="#219F38"/>
</linearGradient>
<linearGradient id="paint3_linear" x1="13.895" y1="1.73052" x2="23.0932" y2="4.53136" gradientUnits="userSpaceOnUse">
<stop offset="0.06" stop-color="#0290EA"/>
<stop offset="0.79" stop-color="#0C89CA"/>
</linearGradient>
<linearGradient id="paint4_linear" x1="4.62082" y1="24.8957" x2="14.6421" y2="28.5913" gradientUnits="userSpaceOnUse">
<stop offset="0.13" stop-color="#F1E813"/>
<stop offset="0.3" stop-color="#EAE616"/>
<stop offset="0.53" stop-color="#D8DF1F"/>
<stop offset="0.8" stop-color="#BAD52D"/>
<stop offset="0.98" stop-color="#A2CC39"/>
</linearGradient>
<linearGradient id="paint5_linear" x1="1.25664" y1="15.7965" x2="5.36052" y2="5.26263" gradientUnits="userSpaceOnUse">
<stop offset="0.07" stop-color="#A2CC39"/>
<stop offset="0.26" stop-color="#81C45E"/>
<stop offset="0.92" stop-color="#0FA7DF"/>
</linearGradient>
<clipPath id="clip0">
<rect width="190" height="29.8571" fill="white" transform="translate(0 0.585938)"/>
</clipPath>
</defs>
</svg>
