<svg width="189" height="50" viewBox="0 0 189 50" fill="none" xmlns="http://www.w3.org/2000/svg">
<g clip-path="url(#clip0)">
<path d="M55.2525 23.0075L55.9792 20.7188L53.5751 20.7929C53.372 20.7929 51.8956 20.7517 50.4634 19.7299C50.5701 19.7402 50.6768 19.7546 50.7858 19.7546C52.2601 19.7546 53.686 18.8811 54.2578 17.6326L55.2923 15.3768C53.996 15.3933 52.8108 15.2327 52.8108 15.2327C52.8002 15.2305 51.8663 15.1132 50.7858 14.0274C50.0109 13.2487 49.0519 12.8366 48.0131 12.8366C47.5589 12.8366 47.1525 12.9169 46.8029 13.0262C46.8573 12.8429 46.9096 12.6574 46.9391 12.4658C47.2698 10.3542 45.8878 8.74313 45.8878 8.7453L44.0806 6.54303L42.9602 9.13048C42.956 9.13875 42.6733 9.7445 42.1666 10.0411C42.0137 9.28087 41.6389 8.42597 40.8368 7.60806C39.3248 6.06707 37.4842 5.83838 36.5209 5.83838C36.0748 5.83838 35.7566 5.8858 35.679 5.89813L33.4971 6.32056C33.6226 5.84055 33.8907 5.0061 34.3807 4.25417L35.5849 2.40835L32.5547 2.74827L31.5893 0.731339L29.7214 1.67904L27.9938 0L26.2703 1.67904L24.3961 0.731339L23.4328 2.74827L20.4049 2.40835L21.6109 4.25417C22.101 5.0061 22.3691 5.83838 22.4927 6.3184L20.411 5.91465L20.3399 5.90233C20.2351 5.8858 19.919 5.83838 19.4708 5.83838C18.5075 5.83838 16.6669 6.06911 15.159 7.60806C14.3549 8.42394 13.9801 9.28087 13.8252 10.0411C13.3226 9.74855 13.0419 9.15107 13.0419 9.15107L11.9195 6.54912L10.0831 8.7659C9.85893 9.05217 8.75125 10.5665 9.05274 12.47C9.08421 12.6595 9.13443 12.8449 9.18891 13.0283C8.8413 12.9191 8.43499 12.8388 7.98064 12.8388C6.94194 12.8388 5.98288 13.2508 5.20598 14.0296C4.12949 15.1111 3.19973 15.2327 3.20821 15.2327C3.20821 15.2327 2.22603 15.4056 0.705744 15.3788L1.73391 17.6348C2.30568 18.8853 3.73372 19.7567 5.20598 19.7567C5.31697 19.7567 5.4237 19.7422 5.53264 19.7319C4.10446 20.7537 2.6281 20.7949 2.45005 20.797L0 20.7188L0.741324 23.0054C1.11411 24.1839 2.36001 26.1369 4.74739 26.347C4.48764 27.4183 3.91177 28.6173 2.64698 29.1343L0.823025 29.8739L1.81766 31.5776C2.3789 32.4965 3.69609 33.5718 5.57232 33.5718C5.97864 33.5697 6.37017 33.5306 6.7472 33.4524C6.84354 33.8727 6.96493 34.293 7.10739 34.709C7.66643 36.3447 7.18485 37.486 7.17855 37.4984L6.27807 39.3546L8.28843 39.8758C8.3136 39.884 8.92081 40.0468 9.68102 40.0468C10.0266 40.0468 10.3553 40.0118 10.6653 39.9398C10.8997 39.8861 11.1239 39.8141 11.3395 39.7275C11.5992 40.1868 11.9154 40.6051 12.284 40.98C13.5719 42.28 15.3958 42.9392 17.7076 42.9392H17.716L19.3662 42.9186L15.9569 44.3113L18.5453 45.5412C19.4855 45.9924 20.6016 46.5258 21.7367 46.9338L21.4141 47.8032L22.3062 48.2029C22.3857 48.2378 24.1008 48.9939 26.9531 49.1546C26.9531 49.1546 27.642 49.1855 28.021 49.1855C28.4 49.1855 29.0805 49.1526 29.0805 49.1526C31.914 48.9878 33.6163 48.24 33.696 48.2029L34.5901 47.8012L34.2634 46.9298C35.432 46.5094 36.5879 45.9552 37.4883 45.5227L40.0285 44.3092L36.6297 42.9146L38.2862 42.9352C40.6002 42.9352 42.4263 42.2759 43.7119 40.9739C44.0784 40.601 44.3947 40.1828 44.6565 39.7234C44.8722 39.81 45.0982 39.882 45.3328 39.9356C45.6406 40.0076 45.9694 40.0428 46.3149 40.0428C47.0624 40.0428 47.6761 39.8801 47.6928 39.8758L49.7116 39.3506L48.832 37.5294C48.8111 37.4819 48.3295 36.3427 48.8886 34.7049C49.0309 34.2867 49.1502 33.8665 49.2466 33.4482C49.6257 33.5265 50.0214 33.5677 50.4299 33.5677C52.8191 33.5677 53.9646 31.9134 54.1866 31.555L55.1708 29.8699L53.3469 29.1323C52.08 28.6151 51.5062 27.4141 51.2486 26.345C53.6023 26.1471 54.8671 24.1942 55.2525 23.0075ZM22.6516 7.10744L22.6267 7.11367L22.6476 7.08686L22.6516 7.10744Z" fill="white"/>
<path d="M27.996 7.00781C26.0652 7.00984 24.6183 7.63199 24.302 8.36333L27.996 9.79728L31.69 8.36333C31.3758 7.63199 29.9288 7.00984 27.996 7.00781Z" fill="white"/>
<path d="M28.0333 44.9629H28.0291H27.9976H27.962H27.9599C26.7893 44.9712 25.179 44.7342 24.402 44.5117L23.468 46.9983C24.0838 47.2147 26.1695 47.6266 27.9976 47.6266C29.8216 47.6266 31.9094 47.2126 32.5229 46.9983L31.591 44.5117C30.8121 44.7362 29.2037 44.9712 28.0333 44.9629Z" fill="white"/>
<path d="M35.1015 42.4922C34.4062 42.8795 32.8545 43.4604 31.9519 43.7303L32.71 45.7842C34.1067 45.4092 35.2584 44.9705 36.2113 44.5008L34.6386 43.9857L35.1015 42.4922Z" fill="white"/>
<path d="M20.8926 42.4922L21.3574 43.9857L19.7827 44.5008C20.7334 44.9705 21.8914 45.4092 23.2819 45.7842L24.04 43.7303C23.1416 43.4604 21.5877 42.8774 20.8926 42.4922Z" fill="white"/>
<path d="M27.9961 4.63007C29.4515 4.63007 30.8796 4.97203 31.9769 5.57372C32.0775 5.24192 32.2177 4.84021 32.4083 4.41994L31.9938 4.46939L31.5581 4.51477L31.3738 4.1254L30.8189 2.97176L29.8074 3.49079L29.4138 3.6886L29.0997 3.38376L28.0002 2.3125L26.903 3.38376L26.5888 3.6886L26.1952 3.49079L25.1774 2.97176L24.6288 4.1254L24.4404 4.51477L24.0047 4.46939L23.5901 4.41994C23.7807 4.84224 23.9189 5.24192 24.0215 5.57372C25.1209 4.97203 26.5448 4.63007 27.9961 4.63007Z" fill="white"/>
<path d="M50.2162 17.963C50.4048 18.0268 50.5973 18.0556 50.788 18.0556C51.6108 18.0556 52.4067 17.5324 52.681 16.9329C52.681 16.9329 51.1711 16.8423 49.5482 15.2209C49.0311 14.6955 48.4845 14.5391 48.0154 14.5391C47.2866 14.5391 46.74 14.9181 46.74 14.9181C48.7002 15.944 49.1 17.5922 50.2162 17.963Z" fill="white"/>
<path d="M5.20474 18.0556C5.39524 18.0556 5.58792 18.0268 5.77226 17.963C6.89253 17.5922 7.2946 15.944 9.25473 14.9181C9.25473 14.9181 8.70595 14.5391 7.98146 14.5391C7.51028 14.5391 6.9637 14.6955 6.44434 15.2209C4.82361 16.8423 3.31372 16.9329 3.31372 16.9329C3.58387 17.5324 4.38172 18.0556 5.20474 18.0556Z" fill="white"/>
<path d="M50.7487 24.6588C50.7823 24.6607 50.8116 24.6607 50.8472 24.6607C52.9014 24.6607 53.5988 22.4954 53.5988 22.4954H53.559C53.1821 22.4954 50.1268 22.409 47.9678 19.7081C46.5459 17.9324 45.3815 16.3708 43.08 15.7568L42.854 15.7176L42.8037 15.4911C42.7409 15.1449 42.9817 14.8215 43.5283 14.4713C46.7029 12.4257 44.548 9.81748 44.548 9.81748C44.548 9.81748 43.6413 11.9044 41.6122 11.9044C41.564 11.9044 41.5116 11.9023 41.4614 11.9023C41.2311 11.89 41.0091 11.8817 40.7849 11.8344L40.4101 11.7622C40.4101 11.7622 40.9882 10.2151 39.5935 8.79363C38.5422 7.72034 37.2628 7.53906 36.5235 7.53906C36.1507 7.53906 35.9141 7.58634 35.9141 7.58634C36.6156 8.48866 37.1224 9.98439 36.3121 10.9073C35.6127 11.7004 33.9038 11.7396 33.9038 12.9221C33.9038 13.4227 34.3792 14.0078 35.2335 14.5331C37.803 16.1256 40.3536 18.2372 41.4132 21.0679C42.7388 24.5989 41.2457 26.9414 39.1139 28.2845C39.1139 28.2845 39.782 28.8901 40.7516 28.9664C40.9484 28.9849 41.1411 28.9931 41.3212 28.9931C43.3671 28.9931 44.4246 28.0496 44.4246 28.0496C44.4246 28.0496 44.2507 29.3536 43.1848 30.565C42.2027 31.6837 40.9127 32.3409 38.9464 32.3697C38.9464 32.3697 38.8835 33.2679 39.7547 34.0446C40.3117 34.5349 41.5996 34.6956 41.5996 34.6956C41.5996 34.6956 39.1893 35.1755 38.9234 38.6779C38.7788 40.5751 38.2867 41.2344 38.2867 41.2344H38.3308C43.924 41.2344 43.7795 36.5147 43.7795 36.5147C43.7795 36.5147 44.169 37.9114 45.7291 38.2761C45.9175 38.3256 46.1186 38.3441 46.3113 38.3441C46.814 38.3441 47.2494 38.2287 47.2494 38.2287C47.2494 38.2287 46.4328 36.5333 47.2431 34.162C47.9154 32.1946 47.8065 30.736 47.8065 30.736C47.8065 30.736 48.5603 31.8568 50.4284 31.8671H50.4471C52.0031 31.8671 52.6815 30.7072 52.6815 30.7072C48.952 29.1847 49.3206 24.2694 49.3206 24.2694C49.3206 24.2694 49.8043 24.6236 50.7487 24.6588ZM49.6262 29.7924C48.1101 29.0571 47.151 27.1041 46.9186 26.3994C46.6672 30.2725 44.7449 32.961 42.4979 35.5484C41.3315 36.8896 40.9254 38.1936 40.9254 38.1936C40.9254 38.1936 41.1494 36.7166 42.1586 35.5135C44.2549 33.0351 46.2465 29.9511 46.3951 26.3851C46.4977 23.8964 45.8464 21.8775 44.8308 20.215C45.3982 21.9476 45.3187 24.0695 43.39 26.0492C43.39 26.0492 47.2285 21.5231 41.8614 16.8838C39.7128 15.1183 37.3633 14.0284 36.153 13.2559C40.5253 14.6588 42.6593 13.1137 42.6593 13.1137C41.2624 14.3044 39.4553 14.2838 38.3349 14.1129C38.6385 14.2592 38.9548 14.4116 39.2961 14.5908C42.9817 16.5604 46.2946 19.8009 46.8599 24.29V24.2548C47.7185 28.6614 49.6262 29.7924 49.6262 29.7924Z" fill="white"/>
<path d="M14.3924 34.6956C14.3924 34.6956 15.6803 34.537 16.2374 34.0446C17.1063 33.2679 17.0458 32.3697 17.0458 32.3697C15.0773 32.3429 13.7894 31.6837 12.801 30.5672C11.7434 29.3558 11.5676 28.0516 11.5676 28.0516C11.5676 28.0516 12.625 28.9953 14.6689 28.9953C14.8532 28.9953 15.0438 28.987 15.2405 28.9684C16.2102 28.8922 16.8803 28.2865 16.8803 28.2865C14.7484 26.9433 13.2534 24.5989 14.5768 21.0679C15.6385 18.2392 18.1869 16.1256 20.7565 14.5331C21.6109 14.0078 22.0862 13.4247 22.0862 12.9221C22.0862 11.7396 20.3795 11.7004 19.68 10.9073C18.8697 9.98439 19.3786 8.48663 20.078 7.58634C20.078 7.58634 19.8455 7.53906 19.4706 7.53906C18.7335 7.53906 17.454 7.72034 16.4028 8.79363C15.0039 10.2151 15.5841 11.7622 15.5841 11.7622L15.2092 11.8344C14.9852 11.8817 14.761 11.89 14.5328 11.9023C14.4805 11.9023 14.4343 11.9044 14.3841 11.9044C12.3508 11.9044 11.4482 9.81952 11.4482 9.81952C11.4482 9.81952 9.29337 12.4277 12.4659 14.4734C13.0125 14.8236 13.2513 15.147 13.1885 15.4931L13.1381 15.7198L12.9078 15.7589C10.6106 16.3728 9.44419 17.9344 8.0223 19.7102C5.86743 22.407 2.81632 22.4954 2.43533 22.4954H2.39331C2.39331 22.4954 3.09072 24.6607 5.14499 24.6607C5.17852 24.6607 5.20781 24.6607 5.24339 24.6588C6.1878 24.6257 6.67362 24.2694 6.67362 24.2694C6.67362 24.2694 7.03806 29.1826 3.31268 30.7072C3.31268 30.7072 3.9912 31.8671 5.54706 31.8671H5.56594C7.43588 31.8568 8.18775 30.736 8.18775 30.736C8.18775 30.736 8.07882 32.1946 8.74898 34.162C9.55928 36.5333 8.7468 38.2287 8.7468 38.2287C8.7468 38.2287 9.1824 38.3441 9.68286 38.3441C9.8776 38.3441 10.0766 38.3256 10.263 38.2761C11.8209 37.9114 12.2125 36.5147 12.2125 36.5147C12.2125 36.5147 12.0701 41.2344 17.6635 41.2344H17.7031C17.7031 41.2344 17.2132 40.5751 17.0708 38.6779C16.8029 35.1755 14.3924 34.6956 14.3924 34.6956ZM13.4942 35.5484C11.2472 32.961 9.32691 30.2725 9.07346 26.3994C8.84109 27.102 7.88613 29.0571 6.37009 29.7924C6.37009 29.7924 8.27561 28.6614 9.13216 24.2548V24.29C9.69969 19.803 13.0104 16.5604 16.698 14.5908C17.0352 14.4095 17.3556 14.2571 17.6572 14.1129C16.5368 14.2838 14.7296 14.3044 13.3328 13.1137C13.3328 13.1137 15.4667 14.6588 19.8371 13.2559C18.6268 14.0284 16.2792 15.1183 14.1307 16.8838C8.76143 21.5231 12.602 26.0492 12.602 26.0492C10.6713 24.0673 10.5939 21.9476 11.1613 20.215C10.1436 21.8796 9.49441 23.8964 9.59911 26.3851C9.74567 29.9511 11.7371 33.0351 13.8292 35.5135C14.8407 36.7145 15.0689 38.1936 15.0689 38.1936C15.0689 38.1936 14.6583 36.8896 13.4942 35.5484Z" fill="white"/>
<path d="M23.8605 17.442C23.9525 17.5388 24.0426 17.644 24.1286 17.7489C24.1495 17.7737 24.1682 17.7964 24.1891 17.8253C24.2688 17.9302 24.3505 18.0416 24.428 18.1548C24.4447 18.1775 24.4616 18.2043 24.4803 18.2309C24.5746 18.3711 24.6626 18.5154 24.7504 18.6638C25.5566 20.0336 26.8488 20.8515 27.9942 20.8536C29.1417 20.8515 30.4297 20.0336 31.2401 18.6638C31.3302 18.5112 31.4202 18.3629 31.5143 18.2249C31.529 18.2043 31.5438 18.1858 31.5562 18.1652C31.6358 18.0477 31.7196 17.9324 31.8076 17.8211C31.8264 17.7964 31.8431 17.7758 31.8599 17.7552C31.9499 17.646 32.0421 17.5389 32.1364 17.4399C32.153 17.4235 32.1655 17.409 32.1802 17.3967C32.5906 16.9827 33.0807 16.6674 33.7214 16.4923L33.4367 16.3296H33.42L32.2849 15.6807L31.1186 15.0234L28.0026 16.6922L27.9942 16.6859L27.9879 16.6922L24.8698 15.0234L23.7056 15.6785L22.5685 16.3275H22.5558L22.2668 16.4903C22.9097 16.6653 23.3976 16.9764 23.8102 17.3905C23.8289 17.407 23.8416 17.4255 23.8605 17.442ZM26.7335 17.3081H28.0528H29.37V18.1981C29.0602 17.8253 28.4571 17.9015 28.4571 17.9015V19.1849C28.4571 19.1849 28.48 19.8153 28.704 20.0892H28.0528H27.3994C27.6277 19.8174 27.6487 19.1849 27.6487 19.1849V17.9015C27.6487 17.9015 27.0476 17.8253 26.7335 18.1981V17.3081Z" fill="white"/>
<path d="M27.726 15.581V10.3711L24.3545 9.24609L25.2444 14.2956L27.726 15.581ZM27.0014 11.6504V12.4868L26.8381 12.4126C26.8297 12.4064 26.591 12.3528 26.1721 12.0273C25.4811 11.5 25.4686 11.0137 25.4686 11.0137L27.0014 11.6504Z" fill="white"/>
<path d="M30.7502 14.2956L31.636 9.24609L28.2666 10.3711V15.581L30.7502 14.2956ZM28.9912 11.6504L30.5239 11.0158C30.5239 11.0158 30.5115 11.502 29.8183 12.0293C29.4016 12.3549 29.1608 12.4084 29.1524 12.4146L28.989 12.4887V11.6504H28.9912Z" fill="white"/>
<path d="M22.958 27.6579C23.2868 27.7753 23.6847 27.8001 23.8878 27.8001C23.8963 27.7753 23.9066 27.7443 23.9172 27.7073C23.9359 27.6476 23.9528 27.5899 23.9654 27.5239C24.0219 27.2356 24.0428 26.9081 24.047 26.6979C23.9087 26.6134 23.714 26.4629 23.6052 26.2384C23.4796 25.9789 23.3015 25.8594 23.0397 25.8594C22.7005 25.8594 22.3361 26.0592 22.1811 26.1541C22.0577 26.8729 22.5957 27.5261 22.958 27.6579Z" fill="white"/>
<path d="M30.4147 24.8945C29.7885 25.5641 28.5635 26.7302 28.5027 26.7899L28.4294 26.8641L24.5575 26.8043C24.5553 27.1814 24.4925 27.5027 24.4319 27.7376C24.4214 27.7767 24.4109 27.8179 24.4004 27.8591L29.0074 28.6729C29.4869 28.3433 30.8062 27.3955 31.3172 27.0248C30.9444 26.4892 30.9088 25.8546 30.9925 25.4076C30.7497 25.2531 30.5633 25.08 30.4147 24.8945Z" fill="white"/>
<path d="M30.9407 20.3148C30.0485 21.1862 29.1921 21.5076 28.4278 21.5818C28.2895 21.5962 28.1493 21.6043 28.0068 21.6043H27.9963H27.9879C27.8456 21.6043 27.7031 21.5962 27.5649 21.5818C27.4309 21.5694 27.2907 21.5488 27.1504 21.5179C27.1 21.7136 27.0372 22.1235 27.2173 22.5109C27.3786 22.8632 27.7074 23.1248 28.1869 23.298L28.3481 23.3596L28.3503 23.5307C28.3503 23.5821 28.3879 24.6905 29.6172 24.9974C29.8182 24.7935 30.0003 24.6102 30.1345 24.4576C29.8831 23.8767 30.0149 23.2834 30.3794 22.9929C30.3627 23.0547 30.2035 24.5092 31.3889 25.0489L31.5835 25.1396L31.5249 25.3436C31.5059 25.4053 31.1102 26.8125 32.5447 27.3357L32.7981 27.4305L32.6849 27.6736C32.6599 27.7271 32.0966 29.0045 33.4222 29.7296H36.2973V27.4841C35.2755 27.3604 34.8419 26.5529 34.7309 25.9801C34.2556 25.8998 33.887 25.6979 33.6356 25.3683C33.0325 24.5874 33.5519 23.8726 33.5582 23.8335C33.5561 23.8397 33.5582 24.6019 34.0357 25.0716C34.2723 25.2982 34.553 25.4734 34.978 25.5125L35.1874 25.5311L35.2063 25.7412C35.2104 25.7864 35.3257 26.8166 36.2993 26.9793L36.2973 22.3934C36.2973 21.6827 36.5088 20.9679 36.7622 20.3086H30.9407V20.3148Z" fill="white"/>
<path d="M23.2032 22.4148L23.1257 25.3362L23.4627 25.3856L24.2879 22.5838L23.8691 21.7227L23.2032 22.4148Z" fill="white"/>
<path d="M32.2997 35.8096C32.3249 35.8096 32.3542 35.8138 32.3814 35.8199C32.8945 35.9642 33.0244 37.7853 33.9247 37.948C34.0127 37.9666 34.0944 37.9707 34.1656 37.9707C34.4253 37.9707 34.5802 37.8614 34.7477 37.6679C34.7477 37.6679 34.2954 36.9674 33.9562 36.4957C33.506 35.8776 33.1563 35.1297 32.3187 35.1297C32.2997 35.1297 32.2747 35.1297 32.2538 35.1319C31.9773 35.1463 31.8076 35.2781 31.8076 35.2781C31.4684 35.068 31.1523 34.9959 30.8652 34.9959C30.3397 34.9959 29.9314 35.2329 29.7281 35.2329H29.7199L27.8477 35.0516C27.5545 35.0248 27.3242 34.7343 27.2405 34.621C27.2195 34.59 27.209 34.5715 27.209 34.5715C27.209 34.522 27.209 34.4706 27.2049 34.4252C27.1421 32.9193 25.9568 32.2745 25.5359 32.2641C25.5359 32.2641 25.5861 31.9778 25.471 31.8687L25.0584 32.3609L23.7035 31.6914L24.6689 32.8019L23.8501 33.7062C23.7474 33.8094 23.76 33.9494 23.802 34.007L24.1558 34.314L24.604 34.0462C24.627 34.0298 24.6668 34.0256 24.717 34.0256C24.8406 34.0256 25.027 34.0564 25.1945 34.0564C25.3767 34.0564 25.5359 34.0173 25.5547 33.8483C25.4982 34.4067 24.9726 35.3769 25.3181 36.1392L25.5736 36.7141L23.9192 36.4791L23.1444 37.7667C22.9057 38.1953 22.868 38.6587 23.0983 38.9101L23.3872 39.2666C23.3872 39.2666 23.7936 38.8421 23.8857 38.564L23.7537 38.4218C23.6428 38.3024 23.6491 38.1953 23.7161 38.0655L24.2019 37.2722L26.1557 37.7256L26.2582 37.5525C26.3902 37.3362 26.5809 37.2702 26.7902 37.2702C26.876 37.2702 26.964 37.2805 27.0561 37.295C27.4185 37.3651 28.0153 37.4597 28.6121 37.4597C29.2675 37.4597 29.9167 37.3445 30.2621 36.9634C30.97 37.9955 32.4045 38.1602 32.2913 38.6834L31.9145 40.4512C32.1637 40.4408 32.4045 40.4243 32.6327 40.3934L32.9908 38.5536C33.0307 38.3538 33.0682 38.0839 33.0682 38.0839C32.9301 37.946 32.595 37.6534 32.4066 37.2991C32.1531 36.8211 32.2913 36.5718 32.0547 35.9496C32.0631 35.9538 32.1343 35.8096 32.2997 35.8096ZM24.9914 33.2262C24.8951 33.2242 24.8259 33.1438 24.8301 33.0491C24.8386 32.9584 24.916 32.8863 25.0102 32.8945C25.1065 32.8987 25.1757 32.9811 25.1715 33.0718C25.163 33.1624 25.0836 33.2325 24.9914 33.2262Z" fill="white"/>
<path d="M22.3238 37.4837C22.3238 37.4837 22.9708 37.2221 23.0294 37.0345L22.9436 36.8223C22.8828 36.6843 22.8912 36.5339 23.0085 36.4516L23.7079 35.9756L24.8764 36.196C24.8764 36.196 24.6649 35.9365 24.6859 35.5883L23.5718 35.3555L22.5205 35.9859C22.0703 36.3176 22.0368 36.8593 22.1855 37.1807L22.3238 37.4837Z" fill="white"/>
<path d="M30.5823 40.478C30.7917 40.4698 31.022 40.4657 31.2754 40.4657C31.2754 40.4657 31.8765 38.7373 31.9098 38.6817C31.5728 38.5354 30.8733 38.1706 30.6032 38.0039C30.7812 38.2655 31.2147 38.5663 31.1289 38.797L30.5823 40.478Z" fill="white"/>
<path d="M36.3031 30.2266H19.6907V36.3739C19.6907 38.8873 21.5399 40.4614 24.2684 40.4614C26.5489 40.4614 27.1498 40.5477 27.998 41.376C28.5823 40.8033 29.066 40.5889 30.0586 40.5086L30.0815 40.4139L30.6051 38.8214C30.5758 38.7864 29.7194 37.8285 29.7194 37.8285C29.3801 37.9398 29.0953 37.9583 28.6158 37.9583C28.1236 37.9583 27.5687 37.9026 26.9677 37.7914C26.9069 37.7771 26.8504 37.7729 26.7938 37.7729C26.7205 37.7729 26.7143 37.779 26.6955 37.8141L26.5907 37.9829L26.4002 38.292L26.0422 38.2116L24.4485 37.8428L24.2306 38.1973L24.2641 38.2343L24.4589 38.4444L24.3731 38.7184C24.2558 39.0769 23.8747 39.4951 23.7596 39.6106L23.3616 40.0308L22.9994 39.5796L22.7272 39.2438C22.4402 38.9286 22.3733 38.4444 22.5345 37.9377C22.5302 37.9417 22.5239 37.9438 22.5178 37.9438L22.0676 38.1272L21.8643 37.6945L21.722 37.3877C21.4771 36.8479 21.5669 36.0588 22.2268 35.5829L23.5104 34.8701L24.7313 35.1071C24.7606 34.9916 24.8044 34.5796 24.84 34.4747C24.8171 34.4726 24.7941 34.4664 24.7709 34.4664L24.0674 34.7239L23.3888 34.2624C23.3888 34.2624 23.1229 34.011 23.3636 33.7597L24.0212 32.7812L22.3564 30.7251L24.9154 31.7594L25.0851 31.5513L25.4305 31.1454L25.8222 31.5122C25.9332 31.6172 25.996 31.7469 26.0273 31.8767C26.733 32.1466 27.9958 32.944 28.1068 34.2397L27.7111 34.3963V34.4066C27.8011 34.5116 27.8765 34.555 27.8994 34.559L29.7256 34.7363C29.7716 34.728 29.8303 34.7074 29.8952 34.6888C30.1214 34.6127 30.4627 34.5035 30.8668 34.5035C31.1957 34.5035 31.5138 34.5775 31.8196 34.7177C31.9327 34.6765 32.071 34.6456 32.2302 34.6353L32.318 34.6333C33.296 34.6333 33.7817 35.3521 34.1714 35.925C34.2362 36.0237 34.3011 36.1186 34.3682 36.2112C34.7094 36.6851 35.1554 37.3794 35.1744 37.4083L35.3754 37.7173L35.1282 37.9995C34.9378 38.2157 34.6529 38.4692 34.1629 38.4692C34.0624 38.4692 33.9515 38.4589 33.8321 38.4361C33.7275 38.4177 33.6332 38.3867 33.5411 38.3497C33.5264 38.4444 33.5075 38.5578 33.4886 38.6545L33.1683 40.2985C35.0843 39.8351 36.301 38.4114 36.301 36.3761L36.3031 30.2266Z" fill="#FFDD2D"/>
<path d="M19.6908 29.7337H32.6093C31.9642 29.0786 31.9727 28.2484 32.1381 27.7086C31.9496 27.6199 31.7947 27.5127 31.6565 27.3975C31.1518 27.7641 29.6105 28.8684 29.2085 29.1444L29.1227 29.2022L24.0528 28.2998H23.9503C23.8288 28.2998 23.6508 28.2956 23.456 28.273C23.4016 28.4976 23.2048 28.6521 22.9786 28.6521C22.9534 28.6521 22.9241 28.65 22.8969 28.6438C22.7649 28.6212 22.6499 28.5552 22.5724 28.446C22.4928 28.339 22.4614 28.2112 22.4844 28.0794L22.5033 27.9722C21.9797 27.6097 21.4981 26.8 21.7117 25.9471L21.7326 25.8565L21.8059 25.805C21.8164 25.7968 21.9043 25.7391 22.0342 25.6649L21.6656 25.6093C21.5274 25.5846 21.4353 25.4588 21.4563 25.325C21.4793 25.189 21.6091 25.0921 21.7452 25.1189L22.6226 25.2549L22.7022 22.2141L24.0089 20.8545L24.8235 22.5418L23.9628 25.4671L24.7377 25.5866C24.8737 25.6072 24.968 25.7328 24.9471 25.8709C24.9261 25.9924 24.8215 26.0769 24.6979 26.0769C24.6852 26.0769 24.6706 26.0769 24.658 26.0749L24.0277 25.9739C24.0362 25.9924 24.0486 26.0026 24.0571 26.0232C24.124 26.1593 24.2728 26.2582 24.3607 26.2994L28.2265 26.3591C28.3897 26.2026 28.796 25.8111 29.2128 25.397C28.2621 25.0427 27.9165 24.2351 27.8578 23.6994C27.326 23.477 26.9595 23.1433 26.7564 22.7085C26.5092 22.171 26.5972 21.6332 26.6621 21.3716C26.1469 21.1861 25.6047 20.8484 25.0518 20.3086H19.2302C19.4795 20.9677 19.6908 21.6827 19.6908 22.3934V29.7337Z" fill="#FFDD2D"/>
<path d="M25.0118 32.8952C24.9175 32.8869 24.838 32.9589 24.8317 33.0496C24.8254 33.1443 24.8966 33.2246 24.9929 33.2267C25.085 33.235 25.1667 33.1649 25.175 33.0723C25.175 32.9816 25.1082 32.8972 25.0118 32.8952Z" fill="black"/>
<path d="M36.2805 44.0423L35.3235 43.6817L35.5873 42.7094L35.8783 41.6484C35.8783 41.6484 34.1821 42.5529 31.7928 43.2328C31.1143 43.4243 30.6013 43.5108 30.6013 43.5108V44.2318C30.6013 44.2318 29.3239 44.4503 28.0318 44.4503H28.017H27.9983H27.9732H27.9585C26.6665 44.4503 25.3891 44.2318 25.3891 44.2318V43.5108C25.3891 43.5108 24.8738 43.4243 24.1975 43.2328C21.8081 42.5529 20.114 41.6484 20.114 41.6484L20.4008 42.7094L20.671 43.6817L19.7119 44.0423L18.6482 44.4337C19.869 45.0126 21.5589 45.8574 23.1066 46.2734L22.7421 47.254C22.7421 47.254 24.7043 48.1338 27.9732 48.1421V48.1441H27.9837H27.9983H28.0109H28.0192V48.1421C31.2924 48.1338 33.2523 47.254 33.2523 47.254L32.8858 46.2734C34.4333 45.8574 36.1276 45.0126 37.3421 44.4337L36.2805 44.0423ZM19.7831 44.4997L21.3578 43.9847L20.893 42.491C21.5861 42.8784 23.1422 43.4593 24.0425 43.7292L23.2824 45.7831C21.8918 45.4062 20.7338 44.9673 19.7831 44.4997ZM27.9983 47.6269C26.1701 47.6269 24.0823 47.2129 23.4688 46.9987L24.4027 44.5121C25.1775 44.7346 26.79 44.9714 27.9605 44.9631H27.9627H27.9983H28.0297H28.0339C29.2046 44.9714 30.8127 44.7346 31.5918 44.5121L32.5235 46.9987C31.9101 47.2149 29.8243 47.6269 27.9983 47.6269ZM32.71 45.7831L31.952 43.7292C32.8545 43.4593 34.4061 42.8784 35.1014 42.491L34.6387 43.9847L36.2113 44.4997C35.2585 44.9673 34.1067 45.4062 32.71 45.7831Z" fill="black"/>
<path d="M27.9963 5.22886C29.9439 5.22886 31.5017 5.86346 32.3625 6.54128C32.3625 6.54128 32.6179 5.02699 33.4912 3.69005L31.9227 3.86509L31.1019 2.14905L29.525 2.94841L27.9963 1.46094L26.4718 2.94841L24.893 2.14905L24.0741 3.86509L22.5056 3.69005C23.3788 5.02699 23.6343 6.54128 23.6343 6.54128C24.497 5.86346 26.0509 5.22886 27.9963 5.22886ZM24.0028 4.46663L24.4385 4.51202L24.6269 4.12264L25.1755 2.969L26.1933 3.486L26.587 3.68381L26.9012 3.37897L27.9984 2.30771L29.0978 3.37897L29.412 3.68381L29.8056 3.486L30.8172 2.969L31.372 4.12264L31.5563 4.51202L31.9918 4.46663L32.4065 4.41718C32.2159 4.83961 32.0756 5.23916 31.975 5.57095C30.8777 4.96941 29.4495 4.62732 27.9943 4.62732C26.5452 4.62732 25.119 4.96941 24.0175 5.57095C23.915 5.23916 23.7768 4.83744 23.5861 4.41718L24.0028 4.46663Z" fill="black"/>
<path d="M50.8448 25.3212C53.3641 25.3212 54.2058 22.7997 54.2414 22.6925L54.522 21.8045L53.5775 21.8334H53.5735C53.2405 21.8334 50.4616 21.7613 48.4911 19.2974L48.3047 19.0688C47.0169 17.4578 45.796 15.9271 43.6139 15.2286C43.6767 15.1731 43.7668 15.103 43.8904 15.0247C45.0484 14.2748 45.7226 13.3642 45.8923 12.3074C46.1393 10.717 45.1092 9.44998 45.0631 9.39849L44.3615 8.54562L43.9239 9.55714C43.8946 9.62096 43.1574 11.2403 41.6078 11.2403H41.4926C41.3859 11.234 41.2853 11.2299 41.1848 11.2216C41.2393 10.4986 41.1052 9.37993 40.075 8.33129C38.8373 7.06845 37.317 6.87891 36.5213 6.87891C36.0962 6.87891 35.8135 6.9304 35.7841 6.9346L34.7246 7.14053L35.3779 7.9873C35.891 8.64033 36.3558 9.84558 35.805 10.476C35.6291 10.6758 35.267 10.8385 34.9193 11.0012C34.2052 11.3246 33.2314 11.7737 33.2314 12.9193C33.2314 13.6609 33.8157 14.4355 34.8753 15.0947C38.0123 17.0354 39.9472 19.0605 40.7828 21.2957C42.0748 24.7341 40.389 26.6953 38.7515 27.7275L38.0164 28.193L38.6593 28.7739C38.7452 28.8482 39.5326 29.53 40.6948 29.629C40.9146 29.6434 41.1261 29.6557 41.323 29.6557C42.0685 29.6557 42.7031 29.5404 43.2181 29.3858C43.0757 29.631 42.9019 29.8803 42.6821 30.1316C41.7461 31.1987 40.5943 31.685 38.9379 31.7097L38.3221 31.72L38.274 32.3277C38.2677 32.4492 38.2217 33.5762 39.3064 34.5342C39.4719 34.6823 39.6729 34.8041 39.8823 34.905C39.1473 35.556 38.3995 36.689 38.2553 38.6317C38.1337 40.253 37.74 40.8526 37.7359 40.8586L37.0553 41.8804L38.2846 41.897C40.3158 41.897 41.8716 41.3449 42.95 40.253C43.5867 39.6061 43.9511 38.8768 44.1668 38.23C44.5207 38.5266 44.9773 38.7861 45.5718 38.9242C45.7981 38.9757 46.0452 39.0045 46.3112 39.0045C46.885 39.0045 47.3645 38.885 47.419 38.8727L48.2042 38.6667L47.8566 37.9456C47.8314 37.888 47.176 36.4417 47.8816 34.3775C48.1853 33.4855 48.3403 32.6861 48.4156 32.064C48.9099 32.3173 49.5717 32.5275 50.4281 32.5295C52.3714 32.5295 53.2279 31.1019 53.2677 31.0422L53.6509 30.387L52.9411 30.0986C50.6249 29.153 50.112 26.6128 50.0093 25.2368C50.2187 25.2759 50.4575 25.313 50.7275 25.3212H50.8448ZM52.6813 30.7063C52.6813 30.7063 52.0028 31.8662 50.4469 31.8662H50.4281C48.5601 31.8559 47.8063 30.7352 47.8063 30.7352C47.8063 30.7352 47.9152 32.1938 47.2409 34.1612C46.4305 36.5324 47.2471 38.228 47.2471 38.228C47.2471 38.228 46.8116 38.3433 46.3091 38.3433C46.1164 38.3433 45.9154 38.3247 45.7269 38.2752C44.1668 37.9106 43.7774 36.5139 43.7774 36.5139C43.7774 36.5139 43.9217 41.2336 38.3284 41.2336H38.2846C38.2846 41.2336 38.7766 40.5743 38.9232 38.6769C39.1891 35.1748 41.5995 34.6948 41.5995 34.6948C41.5995 34.6948 40.3136 34.5362 39.7566 34.0438C38.8854 33.2671 38.9462 32.3689 38.9462 32.3689C40.9146 32.3421 42.2025 31.6829 43.1846 30.5643C44.2485 29.3529 44.4244 28.0488 44.4244 28.0488C44.4244 28.0488 43.3668 28.9924 41.321 28.9924C41.1409 28.9924 40.9482 28.9841 40.7513 28.9655C39.7838 28.8894 39.1137 28.2836 39.1137 28.2836C41.2433 26.9404 42.7386 24.596 41.4131 21.0649C40.3513 18.2364 37.8008 16.1228 35.2334 14.5303C34.379 14.0049 33.9036 13.422 33.9036 12.9193C33.9036 11.7368 35.6125 11.6997 36.314 10.9044C37.1222 9.98148 36.6154 8.48384 35.914 7.58356C35.914 7.58356 36.1506 7.53614 36.5233 7.53614C37.2625 7.53614 38.5421 7.71945 39.5933 8.79072C40.9901 10.2122 40.4099 11.7594 40.4099 11.7594L40.7848 11.8315C41.0089 11.8789 41.2309 11.8872 41.4612 11.8974C41.5114 11.8974 41.5617 11.8995 41.6119 11.8995C43.6411 11.8995 44.5479 9.81253 44.5479 9.81253C44.5479 9.81253 46.7049 12.4228 43.5302 14.4664C42.9836 14.8166 42.7427 15.14 42.8057 15.4861L42.856 15.7128L43.082 15.7519C45.3834 16.3658 46.5478 17.9275 47.9696 19.7032C50.1286 22.4041 53.184 22.4907 53.5608 22.4907H53.6007C53.6007 22.4907 52.9033 24.6558 50.849 24.6558C50.8155 24.6558 50.7862 24.6558 50.7506 24.6538C49.8062 24.6207 49.3224 24.2644 49.3224 24.2644C49.3224 24.2644 48.9518 29.1818 52.6813 30.7063Z" fill="black"/>
<path d="M46.42 15.5026C47.3601 15.9949 47.9067 16.6542 48.3862 17.2392C48.8574 17.8098 49.3056 18.3599 50.0048 18.5886C50.2541 18.6732 50.5179 18.7123 50.786 18.7123C51.8372 18.7123 52.8927 18.0797 53.2926 17.2042L53.6947 16.3266L52.721 16.2689C52.6749 16.2669 51.4227 16.1556 50.028 14.7527C49.4542 14.178 48.761 13.875 48.0134 13.875C47.1005 13.875 46.424 14.3241 46.3486 14.3695L45.4524 14.9897L46.42 15.5026ZM48.0156 14.5385C48.4846 14.5385 49.0312 14.695 49.5485 15.2203C51.1712 16.8417 52.6812 16.9323 52.6812 16.9323C52.4069 17.5297 51.6111 18.0551 50.7881 18.0551C50.5976 18.0551 50.407 18.0263 50.2164 17.9624C49.1003 17.5916 48.7003 15.9435 46.7381 14.9174C46.7381 14.9174 47.2869 14.5385 48.0156 14.5385Z" fill="black"/>
<path d="M46.8592 24.2565V24.2896C46.2938 19.8026 42.9809 16.562 39.2953 14.5905C38.9541 14.4112 38.6399 14.2588 38.3342 14.1125C39.4566 14.2835 41.2638 14.3041 42.6584 13.1133C42.6584 13.1133 40.5246 14.6584 36.1521 13.2555C37.3626 14.028 39.7142 15.1179 41.8606 16.8834C47.2278 21.5227 43.3872 26.0488 43.3872 26.0488C45.3159 24.0692 45.3954 21.9472 44.828 20.2146C45.8436 21.8771 46.4928 23.896 46.3922 26.3847C46.2436 29.9507 44.2521 33.0348 42.1558 35.5131C41.1486 36.7162 40.9225 38.1933 40.9225 38.1933C40.9225 38.1933 41.3287 36.8893 42.4951 35.548C44.7421 32.9607 46.6623 30.2721 46.9136 26.399C47.1461 27.1016 48.1031 29.0567 49.6213 29.7921C49.6254 29.7941 47.7177 28.6632 46.8592 24.2565Z" fill="black"/>
<path d="M18.2562 40.8586C18.2542 40.8524 17.8647 40.2529 17.7391 38.6315C17.5926 36.6889 16.8469 35.5558 16.1099 34.9048C16.3235 34.8059 16.5203 34.6844 16.6858 34.534C17.7684 33.576 17.7223 32.4492 17.7159 32.3277L17.6741 31.7199L17.0542 31.7096C15.4021 31.6827 14.2481 31.1966 13.3121 30.1314C13.0943 29.8802 12.9185 29.6309 12.7761 29.3858C13.2911 29.5402 13.9214 29.6557 14.6691 29.6557C14.8702 29.6557 15.0775 29.6432 15.2973 29.6288C16.4595 29.5299 17.247 28.85 17.3348 28.7739L17.9777 28.193L17.2427 27.7273C15.5989 26.6932 13.9194 24.7319 15.2094 21.2957C16.0449 19.0604 17.9777 17.0353 21.1189 15.0946C22.1786 14.4353 22.7585 13.6608 22.7585 12.9192C22.7585 11.7737 21.7869 11.3226 21.0728 11.0011C20.7251 10.8384 20.363 10.6757 20.1871 10.4759C19.6342 9.84748 20.1011 8.64032 20.6121 7.98716L21.2697 7.14052L20.2059 6.93446C20.1745 6.93039 19.896 6.87891 19.4688 6.87891C18.6729 6.87891 17.1569 7.06844 15.9171 8.33128C14.8848 9.38196 14.7488 10.5006 14.801 11.2215C14.7005 11.2298 14.6 11.234 14.4953 11.2401H14.3823C12.8284 11.2401 12.0934 9.62095 12.0642 9.55701L11.6263 8.54549L10.9186 9.39835C10.8788 9.44998 9.84438 10.7189 10.0956 12.3073C10.2632 13.3641 10.9374 14.2746 12.0954 15.0246C12.2211 15.1029 12.3091 15.1729 12.3719 15.2286C10.192 15.9269 8.97319 17.4597 7.68528 19.0706L7.49889 19.2993C5.53054 21.7632 2.74534 21.8355 2.41239 21.8355L1.46387 21.8066L1.75276 22.6944C1.78628 22.8016 2.62601 25.3231 5.14722 25.3231L5.26875 25.3191C5.53465 25.3108 5.77346 25.2758 5.98708 25.2346C5.88225 26.6086 5.3692 29.1488 3.05106 30.0965L2.34327 30.3849L2.7266 31.04C2.76423 31.0998 3.62283 32.5275 5.57023 32.5275C6.42049 32.5253 7.08217 32.3152 7.57853 32.0619C7.65394 32.684 7.80885 33.4833 8.11253 34.3753C8.81827 36.4396 8.1607 37.8858 8.13551 37.9435L7.78791 38.6646L8.57536 38.8706C8.62764 38.8829 9.11141 39.0023 9.68304 39.0023C9.95113 39.0023 10.1983 38.9736 10.4203 38.922C11.0171 38.784 11.4777 38.5245 11.8273 38.2278C12.041 38.8746 12.4075 39.604 13.0421 40.2508C14.1225 41.3427 15.6763 41.8948 17.7076 41.8948L18.939 41.8784L18.2562 40.8586ZM17.6615 41.2356C12.0682 41.2356 12.2107 36.5158 12.2107 36.5158C12.2107 36.5158 11.8212 37.9126 10.2611 38.2773C10.0747 38.3267 9.87572 38.3453 9.68098 38.3453C9.17846 38.3453 8.74492 38.2298 8.74492 38.2298C8.74492 38.2298 9.5574 36.5344 8.74697 34.1632C8.07694 32.1957 8.18588 30.7372 8.18588 30.7372C8.18588 30.7372 7.43402 31.8579 5.56408 31.8682H5.54519C3.98932 31.8682 3.31081 30.7083 3.31081 30.7083C7.03824 29.1859 6.67175 24.2705 6.67175 24.2705C6.67175 24.2705 6.18812 24.6248 5.24152 24.6598C5.20799 24.6619 5.17665 24.6619 5.14312 24.6619C3.08665 24.6619 2.39145 22.4967 2.39145 22.4967H2.43331C2.8124 22.4967 5.86351 22.4101 8.02248 19.7093C9.44437 17.9335 10.6107 16.3739 12.9079 15.7581L13.1382 15.7189L13.1886 15.4923C13.2515 15.1461 13.0127 14.8227 12.4662 14.4725C9.2915 12.4268 11.4484 9.81862 11.4484 9.81862C11.4484 9.81862 12.351 11.9036 14.3843 11.9036C14.4345 11.9036 14.4807 11.9014 14.533 11.9014C14.7612 11.889 14.9874 11.8808 15.2094 11.8335L15.5843 11.7613C15.5843 11.7613 15.0041 10.2142 16.403 8.79275C17.4543 7.71945 18.7337 7.53817 19.4708 7.53817C19.8457 7.53817 20.0781 7.58546 20.0781 7.58546C19.3787 8.48777 18.872 9.98351 19.6802 10.9064C20.3796 11.6996 22.0863 11.7387 22.0863 12.9212C22.0863 13.4218 21.611 14.007 20.7567 14.5322C18.1871 16.1247 15.6366 18.2384 14.5769 21.0669C13.2535 24.5981 14.7466 26.9403 16.8804 28.2856C16.8804 28.2856 16.2104 28.8912 15.2408 28.9676C15.044 28.9861 14.8534 28.9943 14.6691 28.9943C12.6253 28.9943 11.5677 28.0507 11.5677 28.0507C11.5677 28.0507 11.7436 29.3549 12.8012 30.5662C13.7896 31.6848 15.0775 32.3441 17.046 32.3709C17.046 32.3709 17.1088 33.2692 16.2376 34.0457C15.6785 34.536 14.3926 34.6967 14.3926 34.6967C14.3926 34.6967 16.8051 35.1767 17.0689 38.679C17.2134 40.5763 17.7013 41.2356 17.7013 41.2356H17.6615Z" fill="black"/>
<path d="M5.20434 18.714C5.47449 18.714 5.73833 18.6748 5.98741 18.5903C6.69109 18.3617 7.1371 17.8116 7.60827 17.2409C8.08999 16.6558 8.63234 15.9967 9.57251 15.5043L10.5401 14.9934L9.64162 14.3732C9.56621 14.3259 8.89194 13.8789 7.98106 13.8789C7.23139 13.8789 6.53618 14.1797 5.96442 14.7564C4.56976 16.1573 3.31962 16.2706 3.2735 16.2727L2.2998 16.3282L2.69982 17.2079C3.10175 18.0794 4.1551 18.714 5.20434 18.714ZM6.44395 15.2221C6.96329 14.6966 7.50988 14.5401 7.98106 14.5401C8.70555 14.5401 9.25419 14.9191 9.25419 14.9191C7.2942 15.9472 6.89213 17.5933 5.77173 17.9641C5.58752 18.0279 5.39484 18.0568 5.20434 18.0568C4.38131 18.0568 3.58552 17.5335 3.31332 16.934C3.31332 16.932 4.82102 16.8412 6.44395 15.2221Z" fill="black"/>
<path d="M9.59961 26.3847C9.49493 23.896 10.1442 21.877 11.1618 20.2145C10.5943 21.9471 10.6718 24.0691 12.6026 26.0489C12.6026 26.0489 8.76195 21.5228 14.1311 16.8834C16.2798 15.1178 18.6294 14.0279 19.8377 13.2554C15.4673 14.6583 13.3333 13.1133 13.3333 13.1133C14.728 14.3041 16.5353 14.2835 17.6578 14.1105C17.3541 14.2566 17.0357 14.4091 16.6985 14.5883C13.0088 16.5599 9.69802 19.8005 9.13049 24.2874V24.2525C8.27408 28.6591 6.36841 29.79 6.36841 29.79C7.88459 29.0545 8.83955 27.1015 9.07192 26.3971C9.32537 30.2701 11.2455 32.9585 13.4925 35.5461C14.6589 36.8871 15.0694 38.1912 15.0694 38.1912C15.0694 38.1912 14.8412 36.714 13.8297 35.5109C11.7377 33.0368 9.74619 29.9507 9.59961 26.3847Z" fill="black"/>
<path d="M26.7334 17.3086V18.1985C27.0455 17.8257 27.6486 17.902 27.6486 17.902V19.1854C27.6486 19.1854 27.6276 19.8158 27.3993 20.0897H28.0527H28.7039C28.4799 19.8179 28.4568 19.1854 28.4568 19.1854V17.902C28.4568 17.902 29.0599 17.8257 29.3699 18.1985V17.3086H28.0527H26.7334Z" fill="black"/>
<path d="M26.172 12.0292C26.5887 12.3548 26.8296 12.4083 26.838 12.4145L27.0013 12.4886V11.6501L25.4685 11.0156C25.4685 11.0177 25.4831 11.5017 26.172 12.0292Z" fill="black"/>
<path d="M29.8181 12.0292C30.5112 11.5017 30.5238 11.0156 30.5238 11.0156L28.991 11.6501V12.4886L29.1521 12.4145C29.1627 12.4083 29.4014 12.3548 29.8181 12.0292Z" fill="black"/>
<path d="M32.5795 8.61367C32.5795 7.34257 30.4037 6.19922 28.0018 6.19922H27.9997H27.9935H27.9872C25.5853 6.19922 23.4095 7.34257 23.4095 8.61367L23.4577 8.92677L24.4167 14.3428L23.4536 14.8929L20.9615 16.3247H20.97C20.97 16.3247 20.4088 16.6069 20.149 16.782C19.2005 17.4311 18.9994 18.3766 19.5501 18.768C19.6863 17.9975 20.3061 17.19 21.4662 17.19C22.3018 17.19 22.9383 17.6143 23.4536 18.2509C23.5854 18.4116 23.7111 18.5826 23.8284 18.768C23.9728 19.0007 24.1173 19.2048 24.2618 19.4026H17.8435C18.3147 20.3358 18.7627 21.3247 18.7627 22.398V36.3739C18.7627 39.7566 21.4076 41.3717 24.2681 41.3717C26.4794 41.3717 26.7769 41.2729 27.9978 42.4677C29.2123 41.2708 29.5097 41.3717 31.7231 41.3717C34.5856 41.3717 37.2264 39.7566 37.2264 36.3739V22.398C37.2264 21.3247 37.6745 20.3358 38.1478 19.4026H31.7272C31.8697 19.2068 32.0142 19.0007 32.1586 18.768C32.278 18.5826 32.4015 18.4116 32.5314 18.2509C33.0507 17.6124 33.6851 17.19 34.5207 17.19C35.6808 17.19 36.2986 17.9955 36.4368 18.768C36.9877 18.3766 36.7886 17.4311 35.8337 16.782C35.5782 16.6069 35.0169 16.3247 35.0169 16.3247H35.0254L32.5334 14.8929L31.5744 14.3428L32.5334 8.92677L32.5795 8.61367ZM24.3539 9.24407L27.7254 10.3689V15.5789L25.244 14.2914L24.3539 9.24407ZM25.0513 20.311C25.6042 20.8528 26.1466 21.1887 26.6616 21.374C26.5945 21.6357 26.5068 22.1755 26.7559 22.7131C26.959 23.1457 27.3276 23.4796 27.8573 23.702C27.916 24.2377 28.2594 25.0432 29.2123 25.3997C28.7956 25.8136 28.3892 26.203 28.2238 26.3616L24.3602 26.3019C24.2723 26.2586 24.1236 26.1618 24.0567 26.0238C24.0482 26.0053 24.0357 25.9949 24.0295 25.9743L24.6596 26.0752C24.6744 26.0773 24.6868 26.0773 24.6995 26.0773C24.821 26.0773 24.9277 25.9949 24.9487 25.8713C24.9696 25.7333 24.8754 25.6076 24.7393 25.587L23.9645 25.4675L24.8251 22.5441L24.0105 20.857L22.7039 22.2167L22.6242 25.2573L21.7469 25.1215C21.6107 25.0946 21.4809 25.1936 21.4579 25.3274C21.4369 25.4614 21.529 25.587 21.6672 25.6118L22.0358 25.6673C21.9039 25.7416 21.8181 25.7992 21.8075 25.8074L21.7321 25.8589L21.7112 25.9497C21.4976 26.8026 21.9813 27.6122 22.5029 27.9747L22.4839 28.0818C22.463 28.2138 22.4923 28.3414 22.5719 28.4485C22.6473 28.5578 22.7645 28.6237 22.8943 28.6463C22.9217 28.6504 22.9509 28.6525 22.9761 28.6525C23.2022 28.6525 23.3991 28.4979 23.4556 28.2735C23.6503 28.2961 23.8284 28.3002 23.9498 28.3002H24.0525L29.1222 29.2005L29.208 29.1449C29.6121 28.8667 31.1513 27.7626 31.656 27.3978C31.7942 27.5154 31.9492 27.6225 32.1376 27.711C31.9743 28.2507 31.9639 29.081 32.611 29.7362H19.6904V22.4001C19.6904 21.6893 19.479 20.9745 19.2297 20.3152H25.0513V20.311ZM31.3167 27.023C30.8038 27.3938 29.4845 28.3414 29.007 28.671L24.4 27.8573C24.4106 27.8161 24.4209 27.777 24.4315 27.7358C24.4921 27.5008 24.5529 27.1795 24.5571 26.8026L28.4291 26.8644L28.5023 26.7901C28.561 26.7325 29.7882 25.5664 30.4143 24.8948C30.5629 25.0781 30.7492 25.2533 30.9922 25.4078C30.9084 25.8528 30.944 26.4873 31.3167 27.023ZM23.6043 26.238C23.7132 26.4626 23.9099 26.613 24.0461 26.6974C24.0419 26.9075 24.021 27.2351 23.9645 27.5235C23.9518 27.5874 23.9352 27.6471 23.9162 27.7069C23.9059 27.7441 23.8953 27.7749 23.887 27.7996C23.6839 27.7996 23.2838 27.7749 22.9572 27.6575C22.595 27.5256 22.0547 26.8726 22.1803 26.1536C22.3374 26.0587 22.6996 25.8589 23.0389 25.8589C23.3007 25.8569 23.4786 25.9784 23.6043 26.238ZM23.1247 25.3337L23.2022 22.4144L23.8681 21.7202L24.287 22.5813L23.4619 25.3831L23.1247 25.3337ZM31.2749 40.4673C31.0236 40.4673 30.7911 40.4714 30.5818 40.4797L31.1304 38.8007C31.2163 38.5679 30.7828 38.2692 30.6047 38.0075C30.8749 38.1745 31.5744 38.5391 31.9116 38.6854C31.876 38.7389 31.2749 40.4673 31.2749 40.4673ZM32.9962 38.5597L32.6382 40.3974C32.41 40.4282 32.167 40.4446 31.9178 40.4549L32.2948 38.6874C32.4078 38.162 30.9734 37.9992 30.2656 36.9672C29.92 37.3503 29.2688 37.4637 28.6155 37.4637C28.0187 37.4637 27.4219 37.3689 27.0595 37.2989C26.9674 37.2845 26.8794 37.2742 26.7936 37.2742C26.5842 37.2742 26.3935 37.338 26.2617 37.5564L26.1569 37.7294L24.2033 37.2762L23.7174 38.0673C23.6483 38.1951 23.644 38.3043 23.7551 38.4236L23.887 38.5659C23.7969 38.8461 23.3907 39.2683 23.3907 39.2683L23.0997 38.9118C22.8692 38.6585 22.907 38.1971 23.1478 37.7686L23.9226 36.481L25.577 36.7158L25.3194 36.139C24.9739 35.3767 25.4995 34.4065 25.556 33.8481C25.5371 34.0171 25.38 34.0542 25.1958 34.0542C25.0283 34.0542 24.8419 34.0232 24.7183 34.0232C24.6702 34.0232 24.6283 34.0273 24.6053 34.0438L24.1571 34.3117L23.8032 34.0047C23.7613 33.9449 23.7467 33.8069 23.8513 33.7039L24.6702 32.8016L23.7028 31.6912L25.0576 32.3607L25.4701 31.8684C25.5833 31.9776 25.5351 32.2639 25.5351 32.2639C25.9581 32.2742 27.1432 32.9191 27.2061 34.4229C27.2103 34.4681 27.2103 34.5198 27.2103 34.5691C27.2103 34.5691 27.2208 34.5877 27.2418 34.6186C27.3255 34.732 27.5558 35.0224 27.8489 35.0491L29.7211 35.2305H29.7294C29.9347 35.2305 30.3431 34.9936 30.8665 34.9936C31.1513 34.9936 31.4696 35.0656 31.8089 35.2758C31.8089 35.2758 31.9785 35.1439 32.2549 35.1295C32.2758 35.1274 32.299 35.1274 32.3199 35.1274C33.1596 35.1274 33.5072 35.8733 33.9575 36.4934C34.2968 36.9651 34.7491 37.6656 34.7491 37.6656C34.5815 37.8612 34.4264 37.9684 34.1669 37.9684C34.0957 37.9684 34.014 37.9622 33.926 37.9458C33.0255 37.7829 32.8958 35.9618 32.3827 35.8176C32.3555 35.8094 32.3262 35.8073 32.3011 35.8073C32.1356 35.8073 32.0624 35.9516 32.0624 35.9516C32.2967 36.5715 32.1607 36.823 32.412 37.3009C32.6004 37.6553 32.9355 37.9478 33.0737 38.0858C33.0737 38.0899 33.0361 38.3578 32.9962 38.5597ZM22.9426 36.8208L23.0284 37.0332C22.9719 37.2185 22.3228 37.4822 22.3228 37.4822L22.1823 37.1813C22.0337 36.86 22.0651 36.3182 22.5175 35.9865L23.5687 35.3561L24.6828 35.5889C24.6618 35.937 24.8733 36.1967 24.8733 36.1967L23.7048 35.9763L23.0054 36.4522C22.8881 36.5325 22.8797 36.6829 22.9426 36.8208ZM33.1722 40.2964L33.4926 38.6523C33.5093 38.5556 33.5302 38.4422 33.5449 38.3474C33.6349 38.3846 33.7313 38.4155 33.836 38.434C33.9553 38.4567 34.0662 38.4669 34.1669 38.4669C34.657 38.4669 34.9417 38.2135 35.1322 37.9972L35.3794 37.715L35.1783 37.4061C35.1595 37.3751 34.7155 36.6829 34.3721 36.209C34.305 36.1164 34.24 36.0236 34.1752 35.9227C33.7857 35.3499 33.2978 34.6311 32.3199 34.6311L32.2319 34.6331C32.0707 34.6434 31.9325 34.6742 31.8215 34.7154C31.5136 34.5733 31.1974 34.5012 30.8686 34.5012C30.4645 34.5012 30.1231 34.6105 29.897 34.6866C29.8321 34.7052 29.7735 34.7257 29.7274 34.734L27.8992 34.5568C27.8762 34.5528 27.8008 34.5095 27.7107 34.4024V34.3941L28.1065 34.2375C27.9956 32.9417 26.7308 32.1444 26.0251 31.8745C25.9937 31.7447 25.9309 31.6149 25.8199 31.5099L25.4262 31.1432L25.0806 31.5511L24.911 31.7592L22.3521 30.7249L24.0168 32.781L23.3593 33.7596C23.1184 34.0109 23.3844 34.2623 23.3844 34.2623L24.0628 34.7216L24.7665 34.4641C24.7916 34.4641 24.8126 34.4704 24.8356 34.4723C24.8021 34.5774 24.7582 34.9894 24.7288 35.1048L23.5079 34.8679L22.2242 35.5808C21.5646 36.0566 21.4746 36.8456 21.7197 37.3855L21.862 37.6923L22.0651 38.125L22.5132 37.9416C22.5195 37.9395 22.5259 37.9375 22.5299 37.9335C22.3687 38.4402 22.4337 38.9222 22.7226 39.2395L22.9948 39.5774L23.3572 40.0286L23.7551 39.6082C23.8724 39.4929 24.2514 39.0748 24.3687 38.7162L24.4545 38.4421L24.2598 38.2321L24.2283 38.1951L24.4462 37.8406L26.0396 38.2094L26.3978 38.2898L26.5883 37.9807L26.6931 37.8117C26.7119 37.7768 26.7181 37.7705 26.7915 37.7705C26.848 37.7705 26.9045 37.7768 26.9653 37.7892C27.5662 37.9004 28.1211 37.9561 28.6133 37.9561C29.0908 37.9561 29.3755 37.9375 29.7169 37.8263C29.7169 37.8263 30.5734 38.7821 30.6027 38.8192L30.0792 40.4096L30.0562 40.5065C29.0635 40.5847 28.5799 40.799 27.9956 41.3738C27.1475 40.5455 26.5464 40.4591 24.2661 40.4591C21.5374 40.4591 19.6884 38.8852 19.6884 36.3718V30.2265H36.2986L36.3029 36.3718C36.3049 38.4113 35.0883 39.8327 33.1722 40.2964ZM36.7635 20.311C36.5102 20.9703 36.2986 21.6852 36.2986 22.396L36.3008 26.9818C35.3269 26.8211 35.2118 25.7888 35.2076 25.7436L35.1888 25.5335L34.9794 25.5149C34.5563 25.4758 34.2757 25.2985 34.0391 25.0721C33.5617 24.6023 33.5595 23.8401 33.5617 23.8338C33.5555 23.873 33.0361 24.5878 33.6392 25.3686C33.8925 25.6983 34.259 25.9002 34.7344 25.9806C34.8453 26.5533 35.2788 27.3607 36.3008 27.4844V29.7299H33.4276C32.102 29.0049 32.6632 27.7275 32.6905 27.674L32.8036 27.4308L32.5502 27.336C31.1157 26.8128 31.5095 25.4037 31.5304 25.3439L31.589 25.1378L31.3943 25.0473C30.2089 24.5075 30.3703 23.051 30.385 22.9913C30.0206 23.2817 29.8886 23.875 30.1399 24.456C30.0038 24.6085 29.8217 24.7939 29.6227 24.9957C28.3955 24.6889 28.358 23.5785 28.358 23.527L28.3557 23.3559L28.1945 23.2941C27.715 23.119 27.3861 22.8574 27.2249 22.505C27.0428 22.1158 27.1076 21.7079 27.158 21.5121C27.2983 21.543 27.4385 21.5657 27.5726 21.576C27.7107 21.5903 27.8532 21.5986 27.9956 21.5986H28.004H28.0144C28.1568 21.5986 28.2972 21.5903 28.4354 21.576C29.1997 21.5018 30.0562 21.1784 30.9483 20.309H36.7635V20.311ZM32.2864 15.6757L33.4213 16.3247H33.4381L33.7229 16.4874C33.0821 16.6626 32.5921 16.9778 32.1817 17.3918C32.167 17.4042 32.1524 17.4207 32.1376 17.4351C32.0435 17.534 31.9492 17.6411 31.8613 17.7504C31.8445 17.771 31.8277 17.7936 31.8089 17.8163C31.7209 17.9275 31.6394 18.0409 31.5597 18.1603C31.5471 18.181 31.5324 18.2016 31.5179 18.22C31.4236 18.358 31.3336 18.5064 31.2436 18.6588C30.4352 20.0288 29.1452 20.8467 27.9978 20.8488C26.8523 20.8467 25.5623 20.0288 24.7539 18.6588C24.6659 18.5104 24.5781 18.3663 24.4838 18.2261C24.4649 18.1994 24.4482 18.1727 24.4315 18.1499C24.3519 18.0367 24.2723 17.9254 24.1906 17.8205C24.1697 17.7916 24.1508 17.7688 24.1299 17.7441C24.0419 17.639 23.9518 17.534 23.8618 17.4371C23.8431 17.4228 23.8304 17.4042 23.8116 17.3877C23.3991 16.9737 22.9111 16.6605 22.2682 16.4874L22.5572 16.3247H22.5697L23.7048 15.6757L24.8712 15.0186L27.9872 16.6873L27.9935 16.6811L28.0018 16.6873L31.1178 15.0186L32.2864 15.6757ZM30.7492 14.2934L28.2657 15.581V10.3689L31.6351 9.24407L30.7492 14.2934ZM27.9956 9.79617L24.3016 8.36031C24.6157 7.62897 26.0648 7.0067 27.9956 7.00466C29.9284 7.0067 31.3775 7.62897 31.6896 8.36031L27.9956 9.79617Z" fill="black"/>
<path d="M73.7394 31.5999V23.3509H78.6577V20.3491H65.24V23.3509H70.1581V31.5999H73.7394ZM83.5528 26.8963V20.3491H80.091V31.5999H83.147L89.1157 25.0527V31.5999H92.5776V20.3491H89.5215L83.5528 26.8963ZM104.224 27.4164V31.5999H107.686V20.3491H104.224V24.4618H98.6612V20.3491H95.1994V31.5999H98.6612V27.4164H104.224ZM117.327 31.5999C118.115 31.5999 118.831 31.5291 119.499 31.3399C121.291 30.8437 122.46 29.4017 122.46 27.4399C122.46 25.5727 121.458 24.2728 119.859 23.6818C119.093 23.3982 118.187 23.3745 117.327 23.3745H113.769V20.3491H110.308V31.5999H117.327ZM116.73 26.0219C117.208 26.0219 117.661 26.0219 118.067 26.1637C118.64 26.3527 118.975 26.8254 118.975 27.3927C118.975 27.9836 118.64 28.48 118.091 28.7163C117.709 28.8818 117.327 28.8818 116.73 28.8818H113.769V26.0219H116.73ZM128.667 27.3455L132.798 31.5999H137.405L131.652 25.7381L137.19 20.3491H132.845L128.667 24.58H127.713V20.3491H124.251V31.5999H127.713V27.3455H128.667ZM144.528 20.0419C139.872 20.0419 137.08 22.6418 137.08 25.9981C137.08 29.3546 139.872 31.9546 144.528 31.9546C149.161 31.9546 151.954 29.3546 151.954 25.9981C151.954 22.6418 149.161 20.0419 144.528 20.0419ZM144.528 29.2128C142.213 29.2128 140.733 27.8418 140.733 25.9981C140.733 24.1546 142.213 22.8073 144.528 22.8073C146.821 22.8073 148.325 24.1546 148.325 25.9981C148.325 27.8418 146.821 29.2128 144.528 29.2128ZM163.484 19.7109H160.022V20.8454C155.676 20.94 153.073 22.7599 153.073 25.9745C153.073 29.189 155.676 30.8672 160.022 30.9618V32.0964H163.484V30.9618C167.852 30.8672 170.455 29.189 170.455 25.9745C170.455 22.7599 167.852 20.94 163.484 20.8454V19.7109ZM160.022 28.5509C157.634 28.4563 156.583 27.4873 156.583 25.9745C156.583 24.4618 157.634 23.3745 160.022 23.2801V28.5509ZM163.484 23.2801C165.896 23.3745 166.921 24.4618 166.921 25.9745C166.921 27.4873 165.896 28.4563 163.484 28.5509V23.2801ZM181.972 19.7109H178.51V20.8454C174.165 20.94 171.563 22.7599 171.563 25.9745C171.563 29.189 174.165 30.8672 178.51 30.9618V32.0964H181.972V30.9618C186.342 30.8672 188.944 29.189 188.944 25.9745C188.944 22.7599 186.342 20.94 181.972 20.8454V19.7109ZM178.51 28.5509C176.123 28.4563 175.072 27.4873 175.072 25.9745C175.072 24.4618 176.123 23.3745 178.51 23.2801V28.5509ZM181.972 23.2801C184.384 23.3745 185.41 24.4618 185.41 25.9745C185.41 27.4873 184.384 28.4563 181.972 28.5509V23.2801Z" fill="black"/>
</g>
<defs>
<clipPath id="clip0">
<rect width="189" height="49.1855" fill="white"/>
</clipPath>
</defs>
</svg>
