<svg width="131" height="47" viewBox="0 0 131 47" fill="none" xmlns="http://www.w3.org/2000/svg">
<path fill-rule="evenodd" clip-rule="evenodd" d="M8.90039 0L6.6739 6.09878H37.528L39.7545 0H8.90039ZM5.55996 9.14678L3.33348 15.2442H34.1876L36.4141 9.14678H5.55996ZM2.22649 18.2936L0 24.391H30.8541L33.0792 18.2936H2.22649Z" fill="#009FDF"/>
<mask id="mask0" style="mask-type:alpha" maskUnits="userSpaceOnUse" x="46" y="9" width="85" height="38">
<path d="M46.2913 46.6245H130.751V9.26562H46.2913V46.6245Z" fill="white"/>
</mask>
<g mask="url(#mask0)">
<path fill-rule="evenodd" clip-rule="evenodd" d="M65.5941 26.7166V26.8453C67.0042 27.3629 68.3511 28.2679 69.0568 28.8491C71.2371 30.6591 72.1996 33.0503 72.1996 36.1527C72.1996 41.2603 69.5058 44.944 65.0806 46.1078C63.7337 46.4952 62.3237 46.6253 59.693 46.6253H46.2913V9.26562H58.1553C60.5923 9.26562 62.2591 9.39431 63.7337 9.78176C68.0312 10.9455 70.8527 13.9193 70.8527 18.6367C70.8527 21.1579 69.9548 23.2918 68.4802 24.7129C67.839 25.3591 66.9411 26.1355 65.5941 26.7166ZM53.7301 30.6591V40.484H58.861C60.3987 40.484 61.8102 40.3553 62.8372 39.3853C63.8628 38.4152 64.3118 37.1878 64.3118 35.5715C64.3118 34.3441 63.9905 33.1803 63.3493 32.3404C62.2591 30.9829 60.9122 30.6591 58.6043 30.6591H53.7301ZM53.6656 24.1954H57.834C59.1164 24.1954 59.7575 24.1954 60.3987 24.0016C62.1315 23.4841 63.2216 21.9343 63.2216 19.8004C63.2216 17.2806 62.0669 16.1804 60.3987 15.6643C59.693 15.4706 58.9887 15.4055 57.5772 15.4055H53.6656V24.1954ZM83.3579 46.6253V15.5342H72.6486V9.26562H102.405L100.29 15.5342H90.7968V46.6253H83.3579ZM104.713 46.6253V9.26562H128.827L126.712 15.5342H112.089V23.8079H118.053C122.863 23.8079 125.365 24.9717 127.096 26.4579C128.443 27.6216 130.751 30.2066 130.751 35.3142C130.751 40.3553 128.378 43.134 126.39 44.5565C124.082 46.1714 121.645 46.6253 116.707 46.6253H104.713ZM112.089 40.3553H117.669C119.785 40.3553 121.067 39.8378 121.965 38.674C122.414 38.0928 123.055 37.0577 123.055 35.119C123.055 33.1803 122.414 31.8228 121.132 30.8528C120.363 30.2716 119.336 29.9492 117.604 29.9492H112.089V40.3553Z" fill="#0A2973"/>
</g>
</svg>
