<svg width="62" height="59" viewBox="0 0 62 59" fill="none" xmlns="http://www.w3.org/2000/svg">
<path d="M15.9375 36.3522V34.7585C15.9322 34.5727 15.8944 34.3893 15.8259 34.2166C15.7722 34.0913 15.7025 33.9735 15.6188 33.866L9.24375 25.8972C9.09441 25.7111 8.90518 25.5608 8.69002 25.4576C8.47486 25.3544 8.23927 25.3008 8.00062 25.3008C7.76198 25.3008 7.52639 25.3544 7.31123 25.4576C7.09607 25.5608 6.90684 25.7111 6.7575 25.8972L0.3825 33.866C0.298727 33.9735 0.229096 34.0913 0.175312 34.2166C0.0848138 34.3852 0.0254284 34.5688 0 34.7585C0 34.7585 0 34.7585 0 34.7585V36.3522C0 38.4656 0.839562 40.4925 2.33399 41.987C3.82842 43.4814 5.85531 44.321 7.96875 44.321C10.0822 44.321 12.1091 43.4814 13.6035 41.987C15.0979 40.4925 15.9375 38.4656 15.9375 36.3522ZM7.96875 29.3397L11.0288 33.1647H4.90875L7.96875 29.3397ZM7.96875 41.1335C6.70068 41.1335 5.48455 40.6297 4.5879 39.7331C3.69124 38.8364 3.1875 37.6203 3.1875 36.3522H12.75C12.75 37.6203 12.2463 38.8364 11.3496 39.7331C10.4529 40.6297 9.23682 41.1335 7.96875 41.1335Z" fill="#373943"/>
<path d="M44.625 28.3835C44.6197 28.1977 44.5819 28.0143 44.5134 27.8416C44.4597 27.7163 44.39 27.5985 44.3062 27.4909L37.9312 19.5222C37.7819 19.3361 37.5927 19.1858 37.3775 19.0826C37.1624 18.9794 36.9268 18.9258 36.6881 18.9258C36.4495 18.9258 36.2139 18.9794 35.9987 19.0826C35.7836 19.1858 35.5943 19.3361 35.445 19.5222L29.07 27.4909C28.9862 27.5985 28.9166 27.7163 28.8628 27.8416C28.7723 28.0102 28.7129 28.1938 28.6875 28.3835V29.9772C28.6875 32.0906 29.5271 34.1175 31.0215 35.612C32.5159 37.1064 34.5428 37.946 36.6562 37.946C38.7697 37.946 40.7966 37.1064 42.291 35.612C43.7854 34.1175 44.625 32.0906 44.625 29.9772V28.3835ZM36.6562 22.9647L39.7163 26.7897H33.5963L36.6562 22.9647ZM36.6562 34.7585C35.3882 34.7585 34.1721 34.2547 33.2754 33.3581C32.3787 32.4614 31.875 31.2453 31.875 29.9772H41.4375C41.4375 31.2453 40.9338 32.4614 40.0371 33.3581C39.1404 34.2547 37.9243 34.7585 36.6562 34.7585Z" fill="#3E54D8"/>
<path d="M30.2812 55.4766H14.3438C13.9211 55.4766 13.5157 55.6445 13.2168 55.9434C12.9179 56.2422 12.75 56.6476 12.75 57.0703C12.75 57.493 12.9179 57.8984 13.2168 58.1973C13.5157 58.4962 13.9211 58.6641 14.3438 58.6641H30.2812C30.7039 58.6641 31.1093 58.4962 31.4082 58.1973C31.7071 57.8984 31.875 57.493 31.875 57.0703C31.875 56.6476 31.7071 56.2422 31.4082 55.9434C31.1093 55.6445 30.7039 55.4766 30.2812 55.4766Z" fill="#373943"/>
<path d="M7.97009 23.6033H8.32071L18.2816 21.388C18.857 22.2845 19.7151 22.9632 20.7201 23.3165V50.6971H19.1263C18.7036 50.6971 18.2983 50.865 17.9994 51.1639C17.7005 51.4628 17.5326 51.8682 17.5326 52.2908C17.5326 52.7135 17.7005 53.1189 17.9994 53.4178C18.2983 53.7167 18.7036 53.8846 19.1263 53.8846H25.5013C25.924 53.8846 26.3294 53.7167 26.6283 53.4178C26.9272 53.1189 27.0951 52.7135 27.0951 52.2908C27.0951 51.8682 26.9272 51.4628 26.6283 51.1639C26.3294 50.865 25.924 50.6971 25.5013 50.6971H23.9076V23.3165C24.7498 23.0271 25.4945 22.5082 26.0577 21.8183C26.6208 21.1284 26.9802 20.2949 27.0951 19.4118L37.0082 17.2283C37.2175 17.1833 37.4159 17.0976 37.592 16.9759C37.7682 16.8542 37.9186 16.6991 38.0348 16.5193C38.151 16.3394 38.2306 16.1385 38.2691 15.9279C38.3076 15.7173 38.3043 15.5012 38.2593 15.2919C38.2143 15.0826 38.1285 14.8843 38.0069 14.7081C37.8852 14.532 37.73 14.3815 37.5502 14.2653C37.3704 14.1492 37.1695 14.0696 36.9589 14.031C36.7483 13.9925 36.5322 13.9958 36.3229 14.0408L26.362 16.288C25.843 15.4388 25.0719 14.7726 24.1562 14.3825C23.2405 13.9925 22.226 13.8978 21.254 14.1119C20.282 14.3259 19.401 14.838 18.7339 15.5766C18.0668 16.3153 17.6468 17.2437 17.5326 18.2324L7.61946 20.4158C7.19677 20.4623 6.80987 20.6748 6.54386 21.0066C6.27785 21.3384 6.15453 21.7622 6.20102 22.1849C6.24752 22.6076 6.46002 22.9945 6.79179 23.2605C7.12355 23.5265 7.5474 23.6498 7.97009 23.6033ZM22.3138 17.2283C22.6291 17.2283 22.9372 17.3218 23.1993 17.4969C23.4614 17.6721 23.6656 17.921 23.7863 18.2122C23.9069 18.5034 23.9385 18.8239 23.877 19.133C23.8155 19.4422 23.6637 19.7262 23.4408 19.949C23.2179 20.1719 22.9339 20.3237 22.6248 20.3852C22.3156 20.4467 21.9952 20.4152 21.7039 20.2945C21.4127 20.1739 21.1638 19.9696 20.9887 19.7075C20.8136 19.4454 20.7201 19.1373 20.7201 18.8221C20.7201 18.3994 20.888 17.994 21.1869 17.6951C21.4858 17.3963 21.8911 17.2283 22.3138 17.2283Z" fill="#373943"/>
<circle opacity="0.1" cx="37.5" cy="24.5" r="24.5" fill="#3E54D8"/>
</svg>
