<svg width="61" height="58" viewBox="0 0 61 58" fill="none" xmlns="http://www.w3.org/2000/svg">
<path opacity="0.1" d="M60.125 23C60.125 35.7025 49.8275 46 37.125 46L14.125 46L14.125 -2.06751e-07L37.125 1.80397e-06C49.8276 2.91447e-06 60.125 10.2975 60.125 23Z" fill="#F3B63F"/>
<path d="M38.8125 57.125H1.4375C1.05625 57.125 0.690617 56.9735 0.421034 56.704C0.15145 56.4344 0 56.0687 0 55.6875V18.3125C0 17.9313 0.15145 17.5656 0.421034 17.296C0.690617 17.0265 1.05625 16.875 1.4375 16.875C1.81875 16.875 2.18438 17.0265 2.45397 17.296C2.72355 17.5656 2.875 17.9313 2.875 18.3125V54.25H38.8125C39.1937 54.25 39.5594 54.4015 39.829 54.671C40.0985 54.9406 40.25 55.3063 40.25 55.6875C40.25 56.0687 40.0985 56.4344 39.829 56.704C39.5594 56.9735 39.1937 57.125 38.8125 57.125Z" fill="#373943"/>
<path d="M40.1363 22.0787C40.0285 21.8162 39.8453 21.5915 39.61 21.4329C39.3746 21.2743 39.0976 21.1889 38.8138 21.1875H33.0638C32.6825 21.1875 32.3169 21.339 32.0473 21.6085C31.7777 21.8781 31.6263 22.2438 31.6263 22.625C31.6263 23.0062 31.7777 23.3719 32.0473 23.6415C32.3169 23.911 32.6825 24.0625 33.0638 24.0625H35.3494L25.2869 34.125H12.9388C12.6509 34.1247 12.3695 34.2109 12.1312 34.3724C11.8928 34.5338 11.7084 34.7632 11.6019 35.0306L5.85192 49.4056C5.78207 49.5812 5.74749 49.7688 5.75014 49.9577C5.7528 50.1466 5.79264 50.3332 5.86739 50.5067C5.94214 50.6802 6.05034 50.8374 6.1858 50.9691C6.32127 51.1008 6.48136 51.2045 6.65692 51.2744C6.83248 51.3442 7.02008 51.3788 7.209 51.3762C7.39793 51.3735 7.58448 51.3337 7.75801 51.2589C7.93154 51.1842 8.08865 51.076 8.22036 50.9405C8.35208 50.805 8.45582 50.6449 8.52567 50.4694L13.9163 37H25.8763C26.0655 37.0011 26.253 36.9648 26.4282 36.8933C26.6033 36.8218 26.7626 36.7164 26.8969 36.5831L37.3763 26.0894V28.375C37.3763 28.7562 37.5277 29.1219 37.7973 29.3915C38.0669 29.661 38.4325 29.8125 38.8138 29.8125C39.195 29.8125 39.5607 29.661 39.8303 29.3915C40.0998 29.1219 40.2513 28.7562 40.2513 28.375V22.625C40.249 22.4372 40.21 22.2516 40.1363 22.0787Z" fill="#F3B63F"/>
</svg>
