<svg width="59" height="56" viewBox="0 0 59 56" fill="none" xmlns="http://www.w3.org/2000/svg">
<path opacity="0.1" d="M12 47C12 21.0426 33.0426 0 59 0V47H12Z" fill="#ED6373"/>
<path d="M43.875 23.5H39C38.994 23.0698 38.8257 22.6577 38.5287 22.3463C38.3706 22.203 38.1893 22.0876 37.9925 22.005C37.5969 21.8425 37.1531 21.8425 36.7575 22.005C36.558 22.0823 36.3758 22.1983 36.2213 22.3463C36.0706 22.4981 35.9515 22.6782 35.8706 22.8762C35.7898 23.0741 35.7488 23.2861 35.75 23.5H30.875V18.625C30.875 18.194 30.7038 17.7807 30.399 17.476C30.0943 17.1712 29.681 17 29.25 17H16.25C15.819 17 15.4057 17.1712 15.101 17.476C14.7962 17.7807 14.625 18.194 14.625 18.625V23.5H9.75C9.74401 23.0698 9.57569 22.6577 9.27875 22.3463C9.12769 22.1939 8.94796 22.0731 8.74994 21.9906C8.55192 21.9081 8.33952 21.8656 8.125 21.8656C7.91048 21.8656 7.69808 21.9081 7.50006 21.9906C7.30204 22.0731 7.12231 22.1939 6.97125 22.3463C6.67431 22.6577 6.50599 23.0698 6.5 23.5H1.625C1.19402 23.5 0.780698 23.6712 0.475951 23.976C0.171205 24.2807 0 24.694 0 25.125V54.375C0 54.806 0.171205 55.2193 0.475951 55.524C0.780698 55.8288 1.19402 56 1.625 56H43.875C44.306 56 44.7193 55.8288 45.024 55.524C45.3288 55.2193 45.5 54.806 45.5 54.375V25.125C45.5 24.694 45.3288 24.2807 45.024 23.976C44.7193 23.6712 44.306 23.5 43.875 23.5ZM17.875 20.25H27.625V23.5H17.875V20.25ZM42.25 52.75H3.25V26.75H42.25V52.75Z" fill="#373943"/>
<path d="M8.125 33.25C8.125 33.681 8.29621 34.0943 8.60095 34.399C8.9057 34.7038 9.31902 34.875 9.75 34.875H35.75C36.181 34.875 36.5943 34.7038 36.899 34.399C37.2038 34.0943 37.375 33.681 37.375 33.25C37.375 32.819 37.2038 32.4057 36.899 32.101C36.5943 31.7962 36.181 31.625 35.75 31.625H9.75C9.31902 31.625 8.9057 31.7962 8.60095 32.101C8.29621 32.4057 8.125 32.819 8.125 33.25Z" fill="#ED6373"/>
<path d="M35.75 38.125H9.75C9.31902 38.125 8.9057 38.2962 8.60095 38.601C8.29621 38.9057 8.125 39.319 8.125 39.75C8.125 40.181 8.29621 40.5943 8.60095 40.899C8.9057 41.2038 9.31902 41.375 9.75 41.375H35.75C36.181 41.375 36.5943 41.2038 36.899 40.899C37.2038 40.5943 37.375 40.181 37.375 39.75C37.375 39.319 37.2038 38.9057 36.899 38.601C36.5943 38.2962 36.181 38.125 35.75 38.125Z" fill="#ED6373"/>
<path d="M35.75 44.625H9.75C9.31902 44.625 8.9057 44.7962 8.60095 45.101C8.29621 45.4057 8.125 45.819 8.125 46.25C8.125 46.681 8.29621 47.0943 8.60095 47.399C8.9057 47.7038 9.31902 47.875 9.75 47.875H35.75C36.181 47.875 36.5943 47.7038 36.899 47.399C37.2038 47.0943 37.375 46.681 37.375 46.25C37.375 45.819 37.2038 45.4057 36.899 45.101C36.5943 44.7962 36.181 44.625 35.75 44.625Z" fill="#373943"/>
</svg>
