<svg width="32" height="32" viewBox="0 0 32 32" fill="none" xmlns="http://www.w3.org/2000/svg">
<circle cx="16" cy="16" r="16" fill="#F7931A"/>
<path d="M23.0548 13.7205C23.3733 11.5915 21.7523 10.447 19.5358 9.68345L20.2548 6.79945L18.4993 6.36195L17.7993 9.16995C17.3378 9.05495 16.8638 8.94645 16.3928 8.83895L17.0978 6.01245L15.3433 5.57495L14.6238 8.45795C14.2418 8.37095 13.8668 8.28495 13.5028 8.19445L13.5048 8.18545L11.0838 7.58095L10.6168 9.45595C10.6168 9.45595 11.9193 9.75445 11.8918 9.77295C12.6028 9.95045 12.7313 10.421 12.7098 10.794L11.8908 14.0795C11.9398 14.092 12.0033 14.11 12.0733 14.138C12.0148 14.1235 11.9523 14.1075 11.8878 14.092L10.7398 18.6945C10.6528 18.9104 10.4323 19.2345 9.93534 19.1115C9.95284 19.137 8.65934 18.793 8.65934 18.793L7.78784 20.8025L10.0723 21.372C10.4973 21.4785 10.9138 21.59 11.3238 21.695L10.5973 24.612L12.3508 25.0495L13.0703 22.1635C13.5493 22.2935 14.0143 22.4135 14.4693 22.5265L13.7523 25.399L15.5078 25.8365L16.2343 22.925C19.2278 23.4915 21.4788 23.263 22.4263 20.5555C23.1898 18.3755 22.3883 17.118 20.8133 16.298C21.9603 16.0335 22.8243 15.279 23.0548 13.7205ZM19.0438 19.345C18.5013 21.525 14.8308 20.3465 13.6408 20.051L14.6048 16.1865C15.7948 16.4835 19.6108 17.0715 19.0438 19.345ZM19.5868 13.689C19.0918 15.672 16.0368 14.6645 15.0458 14.4175L15.9198 10.9125C16.9108 11.1595 20.1023 11.6205 19.5868 13.689Z" fill="white"/>
</svg>
