<svg width="32" height="32" viewBox="0 0 32 32" fill="none" xmlns="http://www.w3.org/2000/svg">
<circle cx="16" cy="16" r="16" fill="#2C7DF7"/>
<path d="M17.5905 25.5165C16.2982 25.5165 15.357 25.2072 14.7656 24.5886C14.1749 23.9703 13.8792 23.3034 13.8792 22.5888C13.8792 22.3275 13.9306 22.1076 14.0337 21.929C14.1343 21.7527 14.2804 21.6067 14.4566 21.5061C14.6353 21.403 14.8551 21.3516 15.1164 21.3516C15.3777 21.3516 15.5973 21.403 15.7762 21.5061C15.9549 21.6092 16.0957 21.7503 16.1988 21.929C16.3019 22.1076 16.3533 22.3275 16.3533 22.5888C16.3533 22.9049 16.2778 23.1625 16.1267 23.3619C15.9753 23.5613 15.7967 23.6916 15.5905 23.7538C15.7694 24.0009 16.0511 24.1762 16.436 24.2793C16.8208 24.3895 17.2057 24.4443 17.5905 24.4443C18.1265 24.4443 18.611 24.3 19.0442 24.0114C19.477 23.7226 19.7968 23.2965 20.003 22.733C20.2092 22.1695 20.3123 21.5302 20.3123 20.8153C20.3123 20.0388 20.1987 19.3753 19.9721 18.8257C19.752 18.269 19.4256 17.8566 18.9925 17.5885C18.5727 17.3244 18.0865 17.185 17.5905 17.1866C17.2605 17.1866 16.8484 17.3241 16.3533 17.599L15.4462 18.0526V17.599L19.5287 12.1557H13.8792V17.805C13.8792 18.2725 13.9823 18.6573 14.1885 18.9598C14.3947 19.2623 14.7108 19.4134 15.1371 19.4134C15.4666 19.4134 15.783 19.3035 16.0855 19.0833C16.3899 18.8613 16.6548 18.5896 16.8688 18.2796C16.8964 18.2174 16.9308 18.1728 16.9719 18.1452C17.009 18.1125 17.0566 18.0943 17.106 18.0938C17.1816 18.0938 17.2707 18.1316 17.3741 18.2074C17.4704 18.317 17.5184 18.4443 17.5184 18.5886C17.5066 18.6857 17.4893 18.7822 17.4667 18.8774C17.2332 19.3997 16.91 19.7982 16.4976 20.0732C16.0961 20.3448 15.6219 20.4885 15.1371 20.4856C13.9136 20.4856 13.068 20.245 12.6008 19.7641C12.1336 19.2827 11.8998 18.6298 11.8998 17.8052V12.1557H9.01303V11.104H11.8998V8.7125L11.2401 8.05215V7.51648H13.1575L13.8789 7.88741V11.104L21.3431 11.0835L22.0855 11.8257L17.5082 16.403C17.7853 16.2926 18.077 16.2231 18.3742 16.1968C18.8689 16.1968 19.4256 16.355 20.0442 16.6711C20.6696 16.9804 21.1508 17.4068 21.4874 17.9492C21.8242 18.4855 22.0406 19.001 22.1369 19.4957C22.24 19.9908 22.2917 20.4305 22.2917 20.8153C22.2917 21.6952 22.106 22.5129 21.735 23.2693C21.3638 24.0251 20.8003 24.5886 20.0442 24.9598C19.2882 25.331 18.4702 25.5165 17.5905 25.5165Z" fill="white"/>
</svg>
