<svg width="40" height="41" viewBox="0 0 40 41" fill="none" xmlns="http://www.w3.org/2000/svg">
<rect y="0.5" width="40" height="40" rx="8" fill="#F2F2F2"/>
<path d="M13.808 16.1L10.148 24.5H8.612L4.94 16.1H6.632L9.428 22.58L12.248 16.1H13.808ZM14.6944 16.1H16.2544V24.5H14.6944V16.1ZM23.9744 22.556H19.7744L18.9464 24.5H17.3384L21.1184 16.1H22.6544L26.4464 24.5H24.8144L23.9744 22.556ZM23.4584 21.332L21.8744 17.66L20.3024 21.332H23.4584ZM31.2855 24.62C30.4375 24.62 29.6695 24.436 28.9815 24.068C28.3015 23.692 27.7655 23.176 27.3735 22.52C26.9895 21.864 26.7975 21.124 26.7975 20.3C26.7975 19.476 26.9935 18.736 27.3855 18.08C27.7775 17.424 28.3135 16.912 28.9935 16.544C29.6815 16.168 30.4495 15.98 31.2975 15.98C31.9855 15.98 32.6135 16.1 33.1815 16.34C33.7495 16.58 34.2295 16.928 34.6215 17.384L33.6135 18.332C33.0055 17.676 32.2575 17.348 31.3695 17.348C30.7935 17.348 30.2775 17.476 29.8215 17.732C29.3655 17.98 29.0095 18.328 28.7535 18.776C28.4975 19.224 28.3695 19.732 28.3695 20.3C28.3695 20.868 28.4975 21.376 28.7535 21.824C29.0095 22.272 29.3655 22.624 29.8215 22.88C30.2775 23.128 30.7935 23.252 31.3695 23.252C32.2575 23.252 33.0055 22.92 33.6135 22.256L34.6215 23.216C34.2295 23.672 33.7455 24.02 33.1695 24.26C32.6015 24.5 31.9735 24.62 31.2855 24.62Z" fill="#3E54D8"/>
</svg>
