<svg width="178" height="63" fill="none" xmlns="http://www.w3.org/2000/svg"><path d="M20.094.001c4.26 0 5.598 3.055 6.72 6.105l11.873 32.516c.09.254.03.67-.361.82-.393.15-6.144 2.386-6.462 2.505a.616.616 0 01-.79-.373c-.12-.314-2.507-6.922-2.775-7.66H11.894c-.258.738-2.674 7.36-2.782 7.66-.11.304-.452.51-.792.373-.34-.134-6.113-2.37-6.457-2.504a.649.649 0 01-.367-.821c.407-1.135 11.308-30.96 11.864-32.516C14.442 3.102 15.826.001 20.093.001zM.62 54.237a.629.629 0 00-.62.636v7.085c0 .35.275.632.62.632h38.932a.626.626 0 00.627-.632v-7.085a.63.63 0 00-.627-.636H.62zM20.056 9.899L14.511 26.55h11.18L20.129 9.9h-.072zm83.205 27.303c-.817.275-1.355.342-1.997.342-1.326 0-2.061-.524-2.061-1.884 0-1.417.934-1.891 2.767-1.891.448 0 .889.064 1.095.136v1.015c0 1.094.059 1.813.196 2.282zm4.714 1.623c-.979-1.487-1.235-2.363-1.235-4.238v-3.806c0-2.05-.24-2.79-.781-3.536-.754-1.059-2.011-1.518-4.321-1.518-1.636 0-3.223.177-4.76.57l.555 2.705c1.04-.146 2.129-.27 2.897-.27 2.454 0 2.735.354 2.735 2.195v.687a7.123 7.123 0 00-1.87-.251c-3.694 0-5.646 1.807-5.646 4.8 0 2.806 2.086 4.336 4.626 4.336.948 0 1.939-.175 2.724-.496.474-.206.68-.328 1.293-.725.369.536 1.109 1.084 1.41 1.187l2.373-1.64zm36.542-1.623c-.821.275-1.35.342-1.996.342-1.332 0-2.076-.524-2.076-1.884 0-1.417.946-1.891 2.784-1.891.448 0 .891.064 1.092.136v1.015c0 1.094.058 1.813.196 2.282zm4.719 1.623c-.986-1.487-1.237-2.363-1.237-4.238v-3.806c0-2.05-.245-2.79-.791-3.536-.744-1.059-2.003-1.518-4.321-1.518-1.633 0-3.23.177-4.767.57l.548 2.705c1.042-.146 2.134-.27 2.924-.27 2.439 0 2.729.354 2.729 2.195v.687a7.112 7.112 0 00-1.879-.251c-3.699 0-5.658 1.807-5.658 4.8 0 2.806 2.09 4.336 4.643 4.336.96 0 1.941-.175 2.719-.496.482-.206.68-.328 1.293-.725.374.536 1.113 1.084 1.418 1.187l2.379-1.64zM178 40.18s-2.025-4.316-2.521-5.298c-.558-1.106-1.075-1.87-2.215-2.145v-.062c.764-.146 1.372-.608 2.038-2.021.629-1.377.816-1.674 1.187-2.002.364-.325.862-.208.862-.208l.187-2.545c-.529-.072-1.116-.074-1.722-.04-1.005.06-1.525.349-2.02.847-.388.38-.651.95-.977 1.604-.345.713-.618 1.288-.977 2.014-.357.744-.524 1.08-1.484 1.08h-.625V20.128h-3.699V40.18h3.699v-5.765l.505-.01c1.061 0 1.247.266 1.808 1.384.656 1.334 1.913 4.391 1.913 4.391H178zm-104.204 0h4.269l-6.457-19.716a7.763 7.763 0 00-2.419-.368c-.979 0-1.328.129-2.094.368L60.26 40.18h4.097s.553-1.728 1.204-3.871h7.077a617.17 617.17 0 001.157 3.871zM66.6 33.003l1.367-4.573a453.66 453.66 0 001.183-4.128h.117s.661 2.624 1.092 4.099c.163.587 1.293 4.602 1.293 4.602H66.6zm47.676-2.256a2.372 2.372 0 000 4.743 2.364 2.364 0 002.363-2.373 2.368 2.368 0 00-2.363-2.37zM83.133 20.13h-3.709v20.049h3.71v-20.05zm73.681 8.784c2.049.043 2.303.467 2.303 2.186v9.081h3.675v-9.4c0-2.049-.239-2.788-.785-3.535-.754-1.059-2.236-1.518-4.743-1.518-2.48 0-4.061.263-6.093.869V40.18h3.713V29.086c.975-.141 1.147-.173 1.93-.173zm-64.509-9.14c-2.317 0-3.58.459-4.321 1.515-.546.75-.788 1.506-.788 3.56v1.748h-1.841v2.997h1.841V40.18h3.677l-.01-10.587h3.666v-2.997h-3.665l.01-1.607c0-1.838.28-2.195 2.736-2.195.266 0 .565.014.883.038l.58-2.88c-.908-.12-1.836-.18-2.768-.18zm29.506.186c1.262-.074 4.082-.18 5.851-.18.324 0 .659.003.994.02 3.479 0 5.473 2.533 5.473 5.506 0 2.023-.927 3.367-3.098 4.166 2.555.565 3.893 2.56 3.893 5 0 1.79-.505 3.212-1.432 4.182-1.202 1.183-3.021 1.846-5.444 1.846-2.155 0-4.86-.067-6.237-.149V19.96zm5.851 3.285c-.613 0-1.371.012-2.123.038v4.815h2.126c.843 0 1.52-.235 1.982-.687.441-.426.671-1.03.671-1.746 0-1.539-.834-2.41-2.383-2.42h-.273zm.077 13.798h.16c1.932 0 3.115-1.028 3.13-3.096-.02-.742-.304-1.427-.814-1.923-.558-.56-1.348-.852-2.275-.852h-2.401v5.849c.677.014 1.424.017 2.2.022z" fill="#EE2A23"/></svg>