<svg width="164" height="53" fill="none" xmlns="http://www.w3.org/2000/svg"><path d="M87.082 22.68c1.39.524 2.633 1.238 3.637 2.145a11.568 11.568 0 012.44 3.383c.574 1.285.861 2.716.861 4.29 0 1.574-.287 2.954-.86 4.242-.622 1.285-1.438 2.43-2.441 3.335-1.004.952-2.25 1.669-3.637 2.192-1.437.524-2.967.81-4.643.81H65.726V9.247H91.1v6.573H72.71v6.099h9.728c1.673 0 3.206.238 4.643.761zm-1.15 6.673c-.909-.714-2.107-1.094-3.589-1.094h-9.632v8.434h9.632c1.482 0 2.68-.381 3.589-1.095.908-.714 1.338-1.717 1.338-3.097.003-1.387-.43-2.434-1.338-3.148zm21.046 13.724h-6.686V9.247h6.686v14.341l11.884-14.342h8.312l-13.559 16.249 16.389 17.582h-8.727l-14.299-15.345v15.345zm33.289-.813c-2.154-.904-4.022-2.145-5.599-3.715a17.08 17.08 0 01-3.732-5.527c-.908-2.145-1.342-4.433-1.342-6.864 0-2.43.431-4.718 1.342-6.863.909-2.145 2.154-4.001 3.732-5.575 1.577-1.574 3.445-2.811 5.599-3.716 2.155-.904 4.548-1.332 7.133-1.332 1.915 0 3.779.285 5.552.857 1.772.618 3.397 1.43 4.882 2.478 1.438 1.094 2.68 2.335 3.732 3.81a15.154 15.154 0 012.297 4.956h-7.514a7.097 7.097 0 00-1.437-2.287 9.565 9.565 0 00-2.155-1.717c-.812-.428-1.629-.809-2.537-1.047a11.21 11.21 0 00-2.823-.38c-1.629 0-3.111.285-4.405.809-1.338.57-2.489 1.332-3.445 2.335-.956 1-1.676 2.145-2.202 3.43-.526 1.285-.766 2.716-.766 4.242 0 1.526.24 2.954.766 4.242.526 1.286 1.242 2.431 2.202 3.43a9.494 9.494 0 003.445 2.288c1.29.571 2.776.857 4.405.857.956 0 1.915-.143 2.823-.38.908-.239 1.725-.62 2.537-1.095a8.1 8.1 0 002.155-1.67 7.202 7.202 0 001.437-2.287h7.514a14.853 14.853 0 01-2.297 4.908c-1.055 1.48-2.298 2.764-3.732 3.811-1.482 1.095-3.11 1.907-4.882 2.478-1.773.619-3.637.904-5.552.904-2.585.004-4.978-.472-7.133-1.38z" fill="#006DF0"/><mask id="a" style="mask-type:alpha" maskUnits="userSpaceOnUse" x="0" y="0" width="53" height="53"><path d="M26.296 52.103c14.35 0 25.984-11.582 25.984-25.87 0-14.287-11.634-25.87-25.984-25.87C11.946.363.312 11.946.312 26.233c0 14.288 11.633 25.87 25.984 25.87z" fill="#C4C4C4"/></mask><g mask="url(#a)"><path d="M39.006 3.114c12.982 7.295 17.686 23.474 10.507 36.142-7.18 12.667-23.523 17.018-36.505 9.724C.026 41.686-4.68 25.506 2.5 12.839 9.68.172 26.024-4.18 39.006 3.114z" fill="url(#paint0_linear)"/><path d="M39.006 3.114c12.982 7.295 17.686 23.474 10.507 36.142-7.18 12.667-23.523 17.018-36.505 9.724C.026 41.686-4.68 25.506 2.5 12.839 9.68.172 26.024-4.18 39.006 3.114z" fill="url(#paint1_linear)"/><path d="M14.196 36.258C4.398 26.696 3.46 12.6 12.099 4.776c8.639-7.824 23.584-6.416 33.382 3.146 9.798 9.561 10.736 23.654 2.093 31.481-8.642 7.827-23.584 6.415-33.378-3.147z" fill="url(#paint2_radial)"/><path d="M24.5 26.292c-9.964-5.68-14.726-15.314-10.637-21.514 4.088-6.2 15.484-6.625 25.447-.945 9.965 5.68 14.726 15.314 10.634 21.517-4.092 6.203-15.48 6.625-25.445.942z" fill="url(#paint3_radial)"/></g><defs><radialGradient id="paint2_radial" cx="0" cy="0" r="1" gradientUnits="userSpaceOnUse" gradientTransform="rotate(-156.448 32.573 8.44) scale(62.2742 128.017)"><stop offset=".097" stop-color="#4581E9"/><stop offset=".46" stop-color="#80ACF0"/><stop offset=".794" stop-color="#F0F6FD"/></radialGradient><radialGradient id="paint3_radial" cx="0" cy="0" r="1" gradientUnits="userSpaceOnUse" gradientTransform="matrix(-54.68704 3.7608 -4.49141 -65.31125 79.397 5.1)"><stop stop-color="#4581E9"/><stop offset=".537" stop-color="#87B1F0"/><stop offset=".806" stop-color="#CCE0FD"/><stop offset="1" stop-color="#F0F6FD"/></radialGradient><linearGradient id="paint0_linear" x1="25.166" y1="52.514" x2="26.04" y2="3.329" gradientUnits="userSpaceOnUse"><stop stop-color="#4581E9"/><stop offset=".479" stop-color="#80ACF0"/><stop offset="1" stop-color="#fff"/></linearGradient><linearGradient id="paint1_linear" x1="67.652" y1="52.025" x2="22.659" y2="11.519" gradientUnits="userSpaceOnUse"><stop stop-color="#4581E9"/><stop offset="1" stop-color="#4581E9" stop-opacity="0"/></linearGradient></defs></svg>