<svg width="193" height="30" fill="none" xmlns="http://www.w3.org/2000/svg"><path d="M23.953 27.925H20.88V13.023h3.074v14.902zm11.572-10.376c.726.598 1.067 1.58 1.067 2.946v7.43h-2.946V21.22c0-.598-.085-1.025-.213-1.323-.3-.556-.812-.854-1.623-.854-.982 0-1.622.427-2.007 1.238-.17.427-.299.982-.299 1.665v5.978h-2.86V16.95h2.775v1.623c.384-.555.726-.982 1.025-1.239.598-.427 1.323-.683 2.263-.683 1.153 0 2.092.3 2.818.897zm2.434 1.536v-2.05h1.537v-3.074h2.861v3.074h1.793v2.05h-1.793v5.807c0 .47.043.726.17.854.129.128.47.17 1.068.17h.598v2.136l-1.366.042c-1.367.043-2.306-.17-2.776-.726-.341-.341-.47-.853-.47-1.537v-6.746H37.96zm15.03-1.92c.768.341 1.409.896 1.921 1.622.47.64.726 1.41.897 2.263.085.512.128 1.238.085 2.178h-8.027c.043 1.11.427 1.878 1.153 2.305a3.1 3.1 0 001.58.427c.64 0 1.195-.17 1.58-.512.213-.17.427-.427.597-.768h2.947c-.086.64-.427 1.323-1.068 2.006-.982 1.068-2.348 1.623-4.142 1.623a6.075 6.075 0 01-3.885-1.366c-1.11-.897-1.666-2.392-1.666-4.398 0-1.922.513-3.374 1.538-4.399 1.024-1.024 2.305-1.537 3.928-1.537.94 0 1.793.214 2.562.555zm-4.27 2.476c-.427.427-.683.982-.769 1.708h4.953c-.042-.769-.298-1.324-.768-1.75A2.598 2.598 0 0050.427 19c-.769 0-1.324.214-1.708.641zm14.945-2.989h.256v2.99c-.171 0-.342-.043-.47-.043h-.342c-1.152 0-1.921.384-2.348 1.11-.213.427-.342 1.067-.342 1.964v5.252h-2.903V16.908h2.733v1.922c.427-.726.81-1.238 1.153-1.494.555-.47 1.238-.684 2.092-.684h.17zm6.276 4.569c.555-.085.94-.17 1.153-.256.427-.17.64-.427.64-.811 0-.47-.17-.769-.469-.94-.299-.17-.769-.256-1.41-.256-.682 0-1.195.17-1.45.513-.214.256-.342.597-.428 1.024h-2.775c.042-.982.341-1.75.811-2.39.769-.983 2.092-1.453 3.928-1.453 1.196 0 2.306.256 3.246.726.939.47 1.408 1.367 1.408 2.69v6.319c0 .385.086.641.171.77.086.127.257.256.427.34v.428h-3.117a3.557 3.557 0 01-.17-.64c-.043-.214-.043-.428-.086-.684a5.767 5.767 0 01-1.366 1.11c-.64.342-1.324.556-2.135.556-.982 0-1.836-.3-2.477-.854-.64-.556-.982-1.367-.982-2.434 0-1.367.513-2.349 1.58-2.947.598-.341 1.41-.555 2.562-.726l.94-.085zm1.751 1.366c-.17.129-.384.214-.555.3-.17.085-.427.128-.769.213l-.64.128c-.598.128-1.068.256-1.324.384-.47.257-.683.684-.683 1.239 0 .512.128.854.427 1.067.256.213.598.342 1.025.342.64 0 1.195-.171 1.75-.555.513-.385.812-1.025.812-2.007v-1.11h-.043zm11.956-1.707a2.094 2.094 0 00-.427-1.11c-.342-.428-.811-.684-1.495-.684-.982 0-1.622.47-2.006 1.452-.171.512-.3 1.195-.3 2.05 0 .81.086 1.451.3 1.964.341.896.982 1.366 1.964 1.366.683 0 1.152-.17 1.451-.555.3-.384.47-.854.513-1.41h2.946a4.915 4.915 0 01-.94 2.477c-.896 1.239-2.22 1.88-4.013 1.88-1.793 0-3.074-.513-3.928-1.58-.854-1.068-1.281-2.392-1.281-4.1 0-1.878.47-3.373 1.366-4.398.94-1.067 2.178-1.58 3.843-1.58 1.366 0 2.52.3 3.373.94.854.64 1.41 1.708 1.58 3.288h-2.946zm3.885-1.795v-2.05h1.538v-3.074h2.86v3.074h1.794v2.05H91.93v5.807c0 .47.043.726.171.854s.47.17 1.068.17h.597v2.136l-1.366.042c-1.366.043-2.306-.17-2.775-.726-.342-.341-.47-.853-.47-1.537v-6.746h-1.623zm10.974-3.457h-2.903V12.98h2.903v2.648zm-2.903 1.28h2.903v11.017h-2.903V16.91zm12.254.002h3.074l-3.971 11.017h-3.031L100 16.91h3.246l2.305 8.113 2.306-8.113zm11.529.255c.768.341 1.409.896 1.921 1.622.47.64.726 1.41.897 2.263.085.512.128 1.238.085 2.178h-8.027c.043 1.11.427 1.878 1.153 2.305a3.1 3.1 0 001.58.427c.64 0 1.195-.17 1.58-.512.213-.17.427-.427.597-.768h2.947c-.086.64-.427 1.323-1.068 2.006-.982 1.068-2.348 1.623-4.142 1.623a6.075 6.075 0 01-3.885-1.366c-1.111-.897-1.666-2.392-1.666-4.398 0-1.922.513-3.374 1.538-4.399 1.024-1.024 2.305-1.537 3.928-1.537.897 0 1.793.214 2.562.555zm-4.313 2.476c-.427.427-.683.982-.768 1.708h4.953c-.043-.769-.299-1.324-.769-1.75a2.6 2.6 0 00-1.708-.599c-.726 0-1.323.214-1.708.641zm9.095-6.531h6.405c1.751 0 2.989.512 3.715 1.537.427.597.641 1.323.641 2.135 0 .939-.257 1.707-.812 2.305-.256.3-.683.598-1.195.854.768.3 1.323.598 1.708.982.683.64.982 1.538.982 2.69a4.19 4.19 0 01-.897 2.605c-.897 1.153-2.348 1.75-4.313 1.75h-6.319V13.11h.085zm5.679 6.276c.854 0 1.538-.128 2.007-.341.769-.385 1.11-1.025 1.11-2.007 0-.982-.384-1.623-1.195-1.965-.47-.17-1.11-.298-2.007-.298h-3.629v4.611h3.714zm.641 6.832c1.238 0 2.135-.342 2.647-1.067.342-.47.513-.983.513-1.623 0-1.067-.47-1.793-1.452-2.22-.513-.214-1.196-.3-2.05-.3h-4.013v5.21h4.355zm7.301-9.094h1.708v1.878c.128-.384.47-.81 1.025-1.323.555-.513 1.195-.769 1.921-.769h.171c.085 0 .214 0 .427.043v1.921c-.128 0-.213-.042-.299-.042h-.299c-.896 0-1.622.299-2.092.896-.512.598-.726 1.281-.726 2.05v6.234h-1.836V17.124zm14.561 1.066c.939.94 1.451 2.306 1.451 4.1 0 1.75-.427 3.202-1.281 4.312-.854 1.153-2.135 1.708-3.928 1.708-1.494 0-2.647-.512-3.501-1.494-.854-1.025-1.324-2.349-1.324-4.057 0-1.836.47-3.245 1.366-4.355.897-1.068 2.135-1.623 3.673-1.623 1.409.043 2.604.47 3.544 1.41zm-1.111 7.216a7.028 7.028 0 00.684-3.031c0-1.025-.171-1.836-.47-2.477-.512-.982-1.366-1.494-2.605-1.494-1.11 0-1.878.427-2.391 1.28-.512.855-.768 1.88-.768 3.075 0 1.153.256 2.092.768 2.861.513.769 1.281 1.153 2.391 1.153s1.922-.47 2.391-1.366zm4.612-12.296h1.751v8.625l4.654-4.612h2.306l-4.142 4.014 4.398 6.789h-2.306l-3.416-5.508-1.494 1.452v4.056h-1.751V13.109zm16.525 4.31c.726.342 1.281.812 1.622 1.41.342.555.598 1.196.726 1.922.128.512.171 1.28.171 2.39h-7.857c.043 1.11.299 1.965.769 2.648.47.683 1.238.982 2.22.982.94 0 1.708-.299 2.263-.94.299-.384.555-.768.684-1.28h1.793c-.043.384-.214.854-.47 1.323-.256.47-.555.897-.896 1.196-.556.555-1.239.897-2.05 1.11-.427.128-.939.17-1.495.17-1.323 0-2.476-.469-3.415-1.45-.94-.983-1.41-2.35-1.41-4.1 0-1.75.47-3.16 1.41-4.227.939-1.068 2.177-1.623 3.672-1.623.811-.085 1.537.086 2.263.47zm.64 4.228c-.085-.768-.256-1.409-.512-1.879-.513-.896-1.324-1.323-2.477-1.323-.811 0-1.537.299-2.092.896-.555.598-.854 1.367-.897 2.306h5.978zm4.014-4.524h1.708v1.878c.128-.384.47-.81 1.025-1.323.555-.513 1.195-.769 1.921-.769h.171c.085 0 .214 0 .427.043v1.921c-.128 0-.213-.042-.299-.042h-.299c-.896 0-1.622.299-2.092.896-.512.598-.726 1.281-.726 2.05v6.234h-1.836V17.124zm7.942 7.429c.043.598.213 1.067.47 1.41.469.597 1.281.896 2.433.896.684 0 1.281-.128 1.837-.427.512-.3.768-.726.768-1.367 0-.47-.213-.81-.64-1.067-.257-.128-.812-.299-1.58-.512l-1.452-.385c-.939-.213-1.623-.47-2.092-.768-.812-.513-1.196-1.153-1.196-2.05 0-1.025.384-1.836 1.11-2.476.726-.64 1.751-.94 3.032-.94 1.665 0 2.861.47 3.587 1.452.469.598.683 1.28.683 1.964h-1.708a2.098 2.098 0 00-.427-1.11c-.427-.47-1.153-.726-2.22-.726-.684 0-1.239.128-1.58.384-.342.256-.555.598-.555 1.025 0 .47.256.854.725 1.11.257.171.684.3 1.196.427l1.238.3c1.324.298 2.221.64 2.69.939.726.47 1.068 1.195 1.068 2.177s-.384 1.794-1.11 2.477c-.726.683-1.879 1.067-3.374 1.067-1.622 0-2.775-.384-3.458-1.11-.683-.726-1.025-1.622-1.11-2.733h1.665v.043z" fill="#222"/><path d="M12.596 27.923H.469V14.56l12.127 13.364z" fill="url(#paint0_linear)"/><path d="M10.887 21.478a3.63 3.63 0 100-7.26 3.63 3.63 0 000 7.26zM12.597.512L.47 14.56v13.365L12.597.512z" fill="#D81222"/><defs><linearGradient id="paint0_linear" x1="12.599" y1="21.255" x2=".469" y2="21.255" gradientUnits="userSpaceOnUse"><stop stop-color="#D81222"/><stop offset="1" stop-color="#960B1A"/></linearGradient></defs></svg>