<svg width="190" height="31" fill="none" xmlns="http://www.w3.org/2000/svg"><g clip-path="url(#clip0)"><path d="M26.155 6.336a14.89 14.89 0 011.75 2.942l-13.3 9.936-5.56-3.53v-4.25l5.56 3.532 11.55-8.63z" fill="#21A038"/><path d="M3.373 15.384c0-.19.005-.38.014-.568l-3.369-.168a14.93 14.93 0 001.091 6.4 14.771 14.771 0 003.168 4.797l2.39-2.42a11.349 11.349 0 01-2.44-3.688 11.47 11.47 0 01-.854-4.353z" fill="url(#paint0_linear)"/><path d="M14.602 4.002c.188 0 .375.007.56.016l.169-3.415a14.393 14.393 0 00-6.318 1.105A14.55 14.55 0 004.277 4.92l2.39 2.422a11.18 11.18 0 013.638-2.472 11.059 11.059 0 014.297-.867z" fill="url(#paint1_linear)"/><path d="M14.602 26.763c-.188 0-.375 0-.562-.015l-.169 3.414a14.384 14.384 0 006.317-1.105 14.54 14.54 0 004.733-3.21l-2.385-2.421a11.186 11.186 0 01-3.639 2.47 11.064 11.064 0 01-4.295.867z" fill="url(#paint2_linear)"/><path d="M20.93 5.99l2.84-2.121A14.415 14.415 0 0014.596.586v3.417c2.26-.002 4.469.69 6.333 1.986z" fill="url(#paint3_linear)"/><path d="M29.202 15.382a15.077 15.077 0 00-.23-2.652l-3.142 2.348v.304a11.478 11.478 0 01-.965 4.615 11.343 11.343 0 01-2.734 3.819l2.267 2.539a14.752 14.752 0 003.553-4.969 14.925 14.925 0 001.251-6.004z" fill="#21A038"/><path d="M14.602 26.764c-1.57 0-3.12-.333-4.555-.978a11.21 11.21 0 01-3.768-2.77l-2.504 2.296a14.571 14.571 0 004.902 3.6 14.397 14.397 0 005.925 1.27v-3.418z" fill="url(#paint4_linear)"/><path d="M7.072 6.95L4.806 4.41a14.751 14.751 0 00-3.554 4.97A14.927 14.927 0 000 15.383h3.373c0-1.59.328-3.162.966-4.615a11.345 11.345 0 012.733-3.819z" fill="url(#paint5_linear)"/><path d="M84.26 9.049l4.178-3.084h-13.98v18.532H88.44v-3.084h-9.993v-4.747h8.524v-3.084h-8.524V9.049h5.815zm-19.212 4.134h-4.854V9.046h7.747l4.175-3.093h-15.91v18.532h8.329c4.669 0 7.349-2.12 7.349-5.818 0-3.538-2.427-5.484-6.836-5.484zm-.693 8.217h-4.16v-5.135h4.16c2.526 0 3.71.86 3.71 2.568 0 1.707-1.26 2.567-3.71 2.567zM98.716 5.96h-7.61v18.533h3.988v-5.25h3.622c4.856 0 7.86-2.56 7.86-6.65 0-4.092-3.004-6.632-7.86-6.632zm-.084 10.197h-3.538v-7.11h3.538c2.554 0 3.964 1.263 3.964 3.556s-1.41 3.554-3.964 3.554zM50.22 20.12a6.952 6.952 0 01-3.356.84c-3.508 0-6.052-2.508-6.052-5.963 0-3.454 2.544-5.969 6.052-5.969a5.922 5.922 0 013.534 1.097l2.79-2.059L53 7.932c-1.628-1.434-3.803-2.194-6.292-2.194-2.7 0-5.15.91-6.897 2.567a8.95 8.95 0 00-2.736 6.6 9.264 9.264 0 002.72 6.695c1.756 1.722 4.199 2.67 6.88 2.67 2.801 0 5.25-.979 6.908-2.76l-2.498-1.865-.865.474zm72.174-6.937h-4.852V9.046h10.427V5.953h-14.417v18.532h8.317c4.669 0 7.348-2.12 7.348-5.818.011-3.538-2.415-5.484-6.823-5.484zm-.693 8.217h-4.159v-5.135h4.159c2.525 0 3.708.86 3.708 2.568 0 1.707-1.248 2.567-3.708 2.567zm52.87 3.058h-4.044V5.926h4.044v7.783h2.201l5.945-7.783h4.583l-7.051 8.816 8.188 9.716h-5.367l-6.017-7.289h-2.482v7.289zm-30.66-3.521h-8.555l-1.451 3.599h-4.304l8.025-18.532h4.303l7.894 18.532h-4.462l-1.45-3.599zm-1.34-3.358l-2.912-7.197-2.929 7.197h5.841zm12.697-11.575v7.739h8.369v-7.74h4.17v18.533h-4.17v-7.302h-8.369v7.302h-4.17V6.004h4.17z" fill="#21A038"/></g><defs><linearGradient id="paint0_linear" x1="4.959" y1="25.419" x2="1.185" y2="14.654" gradientUnits="userSpaceOnUse"><stop offset=".14" stop-color="#F1E813"/><stop offset=".3" stop-color="#E6E418"/><stop offset=".58" stop-color="#C9DA26"/><stop offset=".89" stop-color="#A2CC39"/></linearGradient><linearGradient id="paint1_linear" x1="5.24" y1="5.523" x2="14.764" y2="1.942" gradientUnits="userSpaceOnUse"><stop offset=".06" stop-color="#0FA7DF"/><stop offset=".54" stop-color="#0098F8"/><stop offset=".92" stop-color="#0290EA"/></linearGradient><linearGradient id="paint2_linear" x1="13.649" y1="28.118" x2="24.397" y2="25.722" gradientUnits="userSpaceOnUse"><stop offset=".12" stop-color="#A2CC39"/><stop offset=".28" stop-color="#86C239"/><stop offset=".87" stop-color="#219F38"/></linearGradient><linearGradient id="paint3_linear" x1="13.895" y1="1.731" x2="23.093" y2="4.531" gradientUnits="userSpaceOnUse"><stop offset=".06" stop-color="#0290EA"/><stop offset=".79" stop-color="#0C89CA"/></linearGradient><linearGradient id="paint4_linear" x1="4.621" y1="24.896" x2="14.642" y2="28.591" gradientUnits="userSpaceOnUse"><stop offset=".13" stop-color="#F1E813"/><stop offset=".3" stop-color="#EAE616"/><stop offset=".53" stop-color="#D8DF1F"/><stop offset=".8" stop-color="#BAD52D"/><stop offset=".98" stop-color="#A2CC39"/></linearGradient><linearGradient id="paint5_linear" x1="1.257" y1="15.796" x2="5.361" y2="5.263" gradientUnits="userSpaceOnUse"><stop offset=".07" stop-color="#A2CC39"/><stop offset=".26" stop-color="#81C45E"/><stop offset=".92" stop-color="#0FA7DF"/></linearGradient><clipPath id="clip0"><path fill="#fff" transform="translate(0 .586)" d="M0 0h190v29.857H0z"/></clipPath></defs></svg>