<svg width="189" height="50" fill="none" xmlns="http://www.w3.org/2000/svg"><g clip-path="url(#clip0)"><path d="M55.252 23.008l.727-2.29-2.404.075c-.203 0-1.68-.041-3.112-1.063.107.01.214.025.323.025 1.474 0 2.9-.874 3.472-2.122l1.034-2.256c-1.296.016-2.481-.144-2.481-.144-.01-.003-.945-.12-2.025-1.206-.775-.778-1.734-1.19-2.773-1.19-.454 0-.86.08-1.21.19.054-.184.107-.37.136-.561.33-2.112-1.051-3.723-1.051-3.72L44.08 6.542 42.96 9.13c-.005.009-.288.614-.794.911-.153-.76-.528-1.615-1.33-2.433-1.512-1.54-3.353-1.77-4.316-1.77a5.58 5.58 0 00-.842.06l-2.182.423c.126-.48.394-1.315.884-2.067l1.204-1.846-3.03.34-.966-2.017-1.868.948L27.994 0 26.27 1.679 24.396.731l-.963 2.017-3.028-.34 1.206 1.846c.49.752.758 1.584.882 2.064l-2.082-.403-.071-.013a5.558 5.558 0 00-.87-.064c-.962 0-2.803.231-4.311 1.77-.804.816-1.179 1.673-1.334 2.433-.502-.292-.783-.89-.783-.89L11.919 6.55l-1.836 2.217c-.224.286-1.332 1.8-1.03 3.704.031.19.081.375.136.558a4.02 4.02 0 00-1.208-.19c-1.04 0-1.998.413-2.775 1.192-1.077 1.081-2.006 1.203-1.998 1.203 0 0-.982.173-2.502.146l1.028 2.256c.572 1.25 2 2.122 3.472 2.122.111 0 .218-.015.327-.025-1.429 1.022-2.905 1.063-3.083 1.065L0 20.719l.741 2.286c.373 1.179 1.619 3.132 4.006 3.342-.26 1.071-.835 2.27-2.1 2.787l-1.824.74.995 1.704c.56.918 1.878 1.994 3.754 1.994a5.923 5.923 0 001.175-.12c.097.42.218.841.36 1.257.56 1.636.078 2.777.072 2.79l-.9 1.856 2.01.52a5.64 5.64 0 001.392.172 4.344 4.344 0 001.659-.32c.26.46.575.878.944 1.253 1.288 1.3 3.112 1.96 5.424 1.96h.008l1.65-.021-3.41 1.392 2.59 1.23c.94.451 2.056.985 3.19 1.393l-.322.87.892.399c.08.035 1.795.79 4.647.952 0 0 .689.03 1.068.03.379 0 1.06-.032 1.06-.032 2.833-.165 4.535-.913 4.615-.95l.894-.402-.327-.871c1.169-.42 2.325-.975 3.225-1.407l2.54-1.214-3.398-1.394 1.656.02c2.314 0 4.14-.66 5.426-1.961a6.06 6.06 0 00.944-1.25 4.312 4.312 0 001.658.32c.748-.001 1.362-.164 1.379-.168l2.019-.525-.88-1.822c-.02-.047-.502-1.186.057-2.824.142-.418.261-.838.358-1.257.379.078.774.12 1.183.12a4.396 4.396 0 003.757-2.013l.984-1.685-1.824-.738c-1.267-.517-1.84-1.718-2.098-2.787 2.353-.198 3.618-2.15 4.003-3.337zm-32.6-15.9l-.025.006.02-.027.005.02z" fill="#fff"/><path d="M27.996 7.008c-1.93.002-3.378.624-3.694 1.355l3.694 1.434 3.694-1.434c-.314-.731-1.761-1.353-3.694-1.355zm.037 37.955h-.073c-1.17.008-2.781-.229-3.558-.451l-.934 2.486c.616.217 2.701.629 4.53.629 1.824 0 3.911-.414 4.525-.629l-.932-2.486c-.779.224-2.387.46-3.558.45zm7.069-2.471c-.696.388-2.247.968-3.15 1.238l.758 2.054c1.397-.375 2.548-.813 3.501-1.283l-1.572-.515.462-1.494zm-14.209 0l.464 1.494-1.574.515c.95.47 2.108.908 3.499 1.283l.758-2.054c-.898-.27-2.452-.853-3.147-1.238zM27.996 4.63c1.456 0 2.884.342 3.98.944.102-.332.242-.734.432-1.154l-.414.05-.436.045-.184-.39-.555-1.153-1.012.519-.393.198-.314-.305L28 2.313l-1.097 1.07-.314.306-.394-.198-1.018-.52-.548 1.154-.189.39-.435-.046-.415-.05c.19.423.329.823.431 1.155 1.1-.602 2.524-.944 3.975-.944zm22.22 13.333c.189.064.381.093.572.093.823 0 1.619-.524 1.893-1.123 0 0-1.51-.09-3.133-1.712-.517-.526-1.064-.682-1.533-.682-.728 0-1.275.38-1.275.38 1.96 1.025 2.36 2.673 3.476 3.044zm-45.011.093c.19 0 .383-.03.567-.093 1.12-.37 1.523-2.019 3.483-3.045 0 0-.55-.379-1.274-.379-.47 0-1.017.156-1.537.682-1.62 1.621-3.13 1.712-3.13 1.712.27.6 1.068 1.123 1.89 1.123z" fill="#fff"/><path d="M50.749 24.659c.033.002.063.002.098.002 2.054 0 2.752-2.166 2.752-2.166h-.04c-.377 0-3.432-.086-5.591-2.787-1.422-1.776-2.587-3.337-4.888-3.951l-.226-.04-.05-.226c-.063-.346.178-.67.724-1.02 3.175-2.045 1.02-4.654 1.02-4.654s-.907 2.087-2.936 2.087l-.15-.002c-.23-.012-.453-.02-.677-.068l-.375-.072s.578-1.547-.816-2.968c-1.052-1.074-2.331-1.255-3.07-1.255-.373 0-.61.047-.61.047.702.903 1.208 2.398.398 3.321-.7.793-2.408.833-2.408 2.015 0 .5.475 1.086 1.33 1.611 2.569 1.593 5.12 3.704 6.18 6.535 1.325 3.53-.168 5.873-2.3 7.216 0 0 .668.606 1.638.682.196.019.39.027.57.027 2.045 0 3.103-.943 3.103-.943s-.174 1.304-1.24 2.515c-.982 1.119-2.272 1.776-4.239 1.805 0 0-.063.898.809 1.675.557.49 1.845.65 1.845.65s-2.41.48-2.677 3.983c-.144 1.897-.636 2.556-.636 2.556h.044c5.593 0 5.448-4.72 5.448-4.72s.39 1.397 1.95 1.762c.188.05.39.068.582.068.503 0 .938-.115.938-.115s-.816-1.696-.006-4.067c.672-1.967.563-3.426.563-3.426s.754 1.12 2.622 1.131h.02c1.555 0 2.233-1.16 2.233-1.16-3.729-1.522-3.36-6.438-3.36-6.438s.483.355 1.428.39zm-1.123 5.133c-1.516-.735-2.475-2.688-2.707-3.393-.252 3.873-2.174 6.562-4.421 9.15-1.166 1.34-1.573 2.645-1.573 2.645s.224-1.477 1.234-2.68c2.096-2.479 4.087-5.563 4.236-9.129.103-2.489-.549-4.508-1.564-6.17.567 1.733.488 3.855-1.441 5.834 0 0 3.838-4.526-1.529-9.165-2.148-1.766-4.498-2.856-5.708-3.628 4.372 1.403 6.506-.142 6.506-.142-1.397 1.19-3.204 1.17-4.324.999.303.146.62.299.961.478 3.686 1.97 6.999 5.21 7.564 9.699v-.035c.858 4.406 2.766 5.537 2.766 5.537zm-35.234 4.904s1.288-.159 1.845-.651c.87-.777.809-1.675.809-1.675-1.969-.027-3.257-.686-4.245-1.803-1.058-1.211-1.233-2.515-1.233-2.515s1.057.943 3.1.943c.185 0 .376-.008.573-.027.97-.076 1.64-.681 1.64-.681-2.133-1.344-3.628-3.688-2.304-7.22 1.062-2.828 3.61-4.941 6.18-6.534.854-.525 1.33-1.108 1.33-1.61 0-1.183-1.707-1.223-2.407-2.016-.81-.923-.301-2.42.398-3.32 0 0-.232-.048-.607-.048-.738 0-2.017.181-3.068 1.255-1.4 1.421-.819 2.968-.819 2.968l-.375.072c-.224.048-.448.056-.676.068l-.149.002c-2.033 0-2.936-2.084-2.936-2.084s-2.155 2.608 1.018 4.653c.546.35.785.674.723 1.02l-.05.227-.231.039c-2.297.614-3.464 2.175-4.886 3.951-2.155 2.697-5.206 2.785-5.587 2.785h-.042s.698 2.166 2.752 2.166c.034 0 .063 0 .098-.002.945-.033 1.43-.39 1.43-.39s.365 4.914-3.36 6.438c0 0 .678 1.16 2.234 1.16h.019c1.87-.01 2.622-1.131 2.622-1.131s-.11 1.459.561 3.426c.81 2.371-.002 4.067-.002 4.067s.435.115.936.115c.195 0 .394-.018.58-.068 1.558-.365 1.95-1.761 1.95-1.761s-.143 4.72 5.45 4.72h.04s-.49-.66-.632-2.557c-.268-3.502-2.679-3.982-2.679-3.982zm-.898.852c-2.247-2.587-4.167-5.276-4.42-9.149-.233.703-1.188 2.658-2.704 3.393 0 0 1.906-1.13 2.762-5.537v.035c.568-4.487 3.878-7.73 7.566-9.7.337-.18.658-.333.96-.477-1.121.17-2.928.191-4.325-1 0 0 2.134 1.546 6.504.143-1.21.772-3.558 1.862-5.706 3.628-5.37 4.64-1.529 9.165-1.529 9.165-1.93-1.982-2.008-4.101-1.44-5.834-1.018 1.665-1.668 3.681-1.563 6.17.147 3.566 2.138 6.65 4.23 9.128 1.012 1.202 1.24 2.68 1.24 2.68s-.41-1.303-1.575-2.645zM23.86 17.442a5.623 5.623 0 01.568.713c.017.022.034.05.052.076.095.14.183.284.27.433.807 1.37 2.099 2.188 3.244 2.19 1.148-.002 2.436-.82 3.246-2.19.09-.153.18-.301.274-.44.015-.02.03-.038.042-.059a5.8 5.8 0 01.58-.725c.017-.017.03-.031.044-.043.41-.414.9-.73 1.541-.905l-.284-.162h-.017l-1.135-.65-1.166-.657-3.116 1.67-.009-.007-.006.006-3.118-1.669-1.164.655-1.137.65h-.013l-.29.162a3.35 3.35 0 011.544.9c.019.017.032.035.05.052zm2.873-.134h2.637v.89c-.31-.373-.913-.297-.913-.297v1.284s.023.63.247.904h-1.305c.229-.272.25-.904.25-.904V17.9s-.601-.076-.916.297v-.89z" fill="#fff"/><path d="M27.726 15.581v-5.21l-3.371-1.125.89 5.05 2.481 1.285zm-.725-3.93v.836l-.163-.074c-.008-.007-.247-.06-.666-.386-.69-.527-.703-1.013-.703-1.013L27 11.65zm3.749 2.645l.886-5.05-3.37 1.125v5.21l2.484-1.285zm-1.759-2.646l1.533-.634s-.012.486-.706 1.013c-.416.326-.657.38-.666.386l-.163.074v-.839h.002zm-6.033 16.008c.329.117.727.142.93.142a1.86 1.86 0 00.03-.093 1.63 1.63 0 00.047-.183 5.08 5.08 0 00.082-.826 1.157 1.157 0 01-.442-.46c-.125-.26-.303-.379-.565-.379-.34 0-.704.2-.859.295-.123.719.415 1.372.777 1.504zm7.457-2.763c-.627.67-1.851 1.835-1.912 1.895l-.074.074-3.871-.06a3.818 3.818 0 01-.126.934l-.032.121 4.607.814a177 177 0 002.31-1.648c-.373-.536-.408-1.17-.325-1.617a2.332 2.332 0 01-.577-.514z" fill="#fff"/><path d="M30.94 20.315c-.892.871-1.748 1.193-2.512 1.267a4.06 4.06 0 01-.421.022h-.02a4.1 4.1 0 01-.837-.086c-.05.196-.113.605.067.993.162.352.49.614.97.787l.161.062.002.17c0 .052.038 1.16 1.267 1.467.201-.203.383-.387.517-.54-.25-.58-.12-1.174.245-1.464-.016.062-.176 1.516 1.01 2.056l.195.09-.06.205c-.018.061-.414 1.468 1.02 1.992l.254.095-.113.243c-.025.053-.588 1.33.737 2.056h2.875v-2.246c-1.021-.124-1.455-.931-1.566-1.504-.475-.08-.844-.282-1.095-.612-.604-.78-.084-1.495-.078-1.534-.002.006 0 .768.478 1.238.236.226.517.401.942.44l.21.02.018.21c.004.044.12 1.075 1.093 1.237l-.002-4.586c0-.71.212-1.425.465-2.084h-5.821v.006zm-7.737 2.1l-.077 2.921.337.05.825-2.802-.419-.861-.666.692zM32.3 35.81a.39.39 0 01.081.01c.514.144.643 1.965 1.544 2.128.088.019.17.023.24.023.26 0 .415-.11.583-.303 0 0-.453-.7-.792-1.172-.45-.618-.8-1.366-1.637-1.366-.02 0-.044 0-.065.002a.85.85 0 00-.446.146 1.755 1.755 0 00-.943-.282c-.525 0-.934.237-1.137.237h-.008l-1.872-.181c-.293-.027-.524-.318-.607-.431l-.032-.05c0-.049 0-.1-.004-.146-.063-1.506-1.248-2.15-1.67-2.16 0 0 .051-.287-.064-.396l-.413.492-1.355-.67.966 1.11-.819.905c-.103.103-.09.243-.048.301l.354.307.448-.268c.023-.016.063-.02.113-.02.124 0 .31.03.478.03.182 0 .34-.039.36-.208-.057.559-.582 1.529-.237 2.291l.256.575-1.655-.235-.775 1.288c-.238.428-.276.892-.046 1.143l.29.357s.406-.425.498-.703l-.132-.142c-.111-.12-.105-.227-.038-.356l.486-.794 1.954.454.102-.173c.132-.217.323-.283.532-.283.086 0 .174.01.266.025.363.07.96.165 1.556.165.655 0 1.305-.116 1.65-.497.708 1.032 2.142 1.197 2.03 1.72l-.378 1.768c.25-.01.49-.027.719-.058l.358-1.84c.04-.2.077-.47.077-.47-.138-.137-.473-.43-.661-.784-.254-.478-.116-.727-.352-1.35.008.005.08-.14.245-.14zm-7.309-2.584a.166.166 0 01-.16-.177.168.168 0 01.18-.154.17.17 0 01.16.177.17.17 0 01-.18.154z" fill="#fff"/><path d="M22.324 37.484s.647-.262.705-.45l-.085-.212c-.061-.138-.053-.288.065-.37l.699-.476 1.168.22s-.211-.26-.19-.608l-1.114-.233-1.052.63a.994.994 0 00-.334 1.196l.138.303zm8.258 2.994c.21-.008.44-.012.693-.012 0 0 .602-1.729.635-1.784a14.764 14.764 0 01-1.307-.678c.178.262.612.562.526.793l-.547 1.681z" fill="#fff"/><path d="M36.303 30.227H19.691v6.147c0 2.513 1.849 4.087 4.577 4.087 2.28 0 2.882.087 3.73.915.584-.573 1.068-.787 2.06-.867l.023-.095.524-1.593-.886-.992c-.339.11-.624.13-1.103.13a9.169 9.169 0 01-1.648-.168.742.742 0 00-.174-.018c-.073 0-.08.006-.099.041l-.104.169-.19.309-.359-.08-1.594-.37-.217.355.033.037.195.21-.086.274c-.117.359-.498.777-.613.893l-.398.42-.363-.451-.272-.336c-.287-.315-.354-.8-.192-1.306a.025.025 0 01-.017.006l-.45.183-.204-.433-.142-.306a1.479 1.479 0 01.505-1.805l1.283-.713 1.221.237c.03-.115.073-.527.109-.632-.023-.002-.046-.009-.07-.009l-.703.258-.678-.462s-.266-.251-.025-.502l.657-.979-1.665-2.056 2.56 1.034.17-.208.345-.406.391.367a.729.729 0 01.205.365c.706.27 1.969 1.067 2.08 2.363l-.396.156v.01c.09.106.166.149.188.153l1.827.177c.046-.008.104-.029.17-.047.225-.076.567-.185.97-.185.33 0 .648.074.954.214.113-.042.251-.072.41-.083l.088-.002c.978 0 1.464.72 1.853 1.292.065.099.13.194.197.286.341.474.787 1.168.806 1.197l.201.31-.247.281c-.19.217-.475.47-.965.47-.1 0-.211-.01-.33-.033a1.44 1.44 0 01-.292-.086 8.392 8.392 0 01-.052.304l-.32 1.644c1.915-.463 3.132-1.887 3.132-3.922l.002-6.15zm-16.613-.493h12.92c-.646-.655-.637-1.486-.472-2.025a2.218 2.218 0 01-.481-.311 233.67 233.67 0 01-2.448 1.746l-.086.058-5.07-.902h-.103c-.121 0-.3-.004-.494-.027a.491.491 0 01-.56.37.49.49 0 01-.324-.197.469.469 0 01-.088-.367l.02-.107c-.524-.362-1.006-1.172-.792-2.025l.02-.09.074-.052a3.11 3.11 0 01.228-.14l-.368-.056a.252.252 0 01-.21-.284.249.249 0 01.29-.206l.877.136.08-3.04 1.306-1.36.814 1.687-.86 2.925.775.12a.25.25 0 01.21.284.249.249 0 01-.25.206c-.013 0-.027 0-.04-.002l-.63-.101c.008.018.02.029.03.05a.677.677 0 00.303.275l3.866.06c.163-.156.569-.548.986-.962a2.059 2.059 0 01-1.355-1.698c-.532-.222-.899-.556-1.102-.99-.247-.538-.159-1.076-.094-1.337-.515-.186-1.057-.524-1.61-1.063H19.23c.25.659.46 1.374.46 2.084v7.34z" fill="#FFDD2D"/><path d="M25.012 32.895a.166.166 0 10-.02.332.17.17 0 00.183-.155c0-.09-.067-.175-.163-.177zM36.28 44.042l-.956-.36.263-.973.291-1.06s-1.696.904-4.085 1.584a12.79 12.79 0 01-1.192.278v.72s-1.277.22-2.57.22h-.071c-1.293 0-2.57-.22-2.57-.22v-.72s-.515-.087-1.191-.278c-2.39-.68-4.084-1.585-4.084-1.585l.287 1.061.27.973-.96.36-1.063.392c1.221.579 2.91 1.423 4.459 1.84l-.365.98s1.962.88 5.231.888v.002h.046v-.002c3.273-.008 5.233-.888 5.233-.888l-.366-.98c1.547-.417 3.242-1.261 4.456-1.84l-1.061-.392zm-16.497.458l1.575-.515-.465-1.494c.693.387 2.25.968 3.15 1.238l-.76 2.054c-1.391-.377-2.55-.816-3.5-1.283zm8.215 3.127c-1.828 0-3.916-.414-4.53-.628l.935-2.487c.774.223 2.387.46 3.558.451h.073c1.17.008 2.779-.228 3.558-.45l.931 2.486c-.613.216-2.699.628-4.525.628zm4.712-1.844l-.758-2.054c.902-.27 2.454-.85 3.15-1.238l-.463 1.494 1.572.515c-.953.467-2.104.906-3.501 1.283zM27.996 5.229c1.948 0 3.506.634 4.366 1.312 0 0 .256-1.514 1.13-2.851l-1.57.175-.82-1.716-1.577.8-1.529-1.488-1.524 1.487-1.579-.799-.819 1.716-1.568-.175c.873 1.337 1.128 2.851 1.128 2.851.863-.678 2.417-1.312 4.362-1.312zm-3.993-.762l.436.045.188-.39.549-1.153 1.017.517.394.198.314-.305 1.097-1.071 1.1 1.071.314.305.394-.198 1.011-.517.555 1.154.184.389.436-.045.415-.05a9.623 9.623 0 00-.432 1.154c-1.097-.602-2.526-.944-3.98-.944-1.45 0-2.876.342-3.978.944a9.759 9.759 0 00-.43-1.154l.416.05zm26.842 20.854c2.52 0 3.36-2.521 3.396-2.629l.281-.887-.944.028h-.005c-.333 0-3.111-.072-5.082-2.536l-.186-.228c-1.288-1.611-2.509-3.142-4.691-3.84a2.18 2.18 0 01.276-.204c1.158-.75 1.833-1.66 2.002-2.718.247-1.59-.783-2.857-.829-2.909l-.702-.852-.437 1.011c-.03.064-.767 1.683-2.316 1.683h-.115c-.107-.006-.208-.01-.308-.018.054-.723-.08-1.842-1.11-2.89-1.238-1.264-2.758-1.453-3.554-1.453-.425 0-.708.051-.737.056l-1.06.206.654.846c.513.653.978 1.859.427 2.489-.176.2-.538.362-.886.525-.714.324-1.688.773-1.688 1.918 0 .742.585 1.516 1.644 2.176 3.137 1.94 5.072 3.966 5.908 6.2 1.292 3.44-.394 5.4-2.032 6.432l-.735.466.643.58c.086.075.874.757 2.036.856.22.014.431.027.628.027.745 0 1.38-.116 1.895-.27a4.745 4.745 0 01-.536.746c-.936 1.067-2.088 1.553-3.744 1.578l-.616.01-.048.608c-.006.121-.052 1.248 1.032 2.206.166.148.367.27.576.371-.735.651-1.482 1.784-1.627 3.727-.121 1.621-.515 2.22-.52 2.227l-.68 1.021 1.23.017c2.03 0 3.587-.552 4.665-1.644a5.194 5.194 0 001.217-2.023 3.323 3.323 0 002.144.775c.574 0 1.053-.12 1.108-.132l.785-.206-.347-.721c-.026-.058-.681-1.504.025-3.569.303-.892.458-1.69.534-2.313a4.359 4.359 0 002.012.465c1.943 0 2.8-1.427 2.84-1.487l.383-.655-.71-.288c-2.316-.946-2.829-3.486-2.932-4.862.21.039.449.076.718.084h.118zm1.836 5.385s-.678 1.16-2.234 1.16h-.019c-1.868-.01-2.622-1.13-2.622-1.13s.11 1.458-.565 3.425c-.81 2.371.006 4.067.006 4.067s-.435.115-.938.115c-.193 0-.394-.018-.582-.068-1.56-.364-1.95-1.761-1.95-1.761s.145 4.72-5.449 4.72h-.043s.492-.66.638-2.557c.266-3.502 2.676-3.982 2.676-3.982s-1.285-.159-1.842-.651c-.872-.777-.81-1.675-.81-1.675 1.968-.027 3.255-.686 4.238-1.805 1.063-1.211 1.24-2.515 1.24-2.515s-1.058.943-3.104.943c-.18 0-.373-.008-.57-.027a3.026 3.026 0 01-1.637-.681c2.13-1.344 3.625-3.688 2.3-7.22-1.063-2.828-3.613-4.941-6.18-6.534-.855-.525-1.33-1.108-1.33-1.61 0-1.183 1.708-1.22 2.41-2.016.808-.923.301-2.42-.4-3.32 0 0 .237-.048.61-.048.739 0 2.018.183 3.07 1.255 1.396 1.421.816 2.968.816 2.968l.375.072c.224.048.446.056.676.066l.15.002c2.03 0 2.937-2.086 2.937-2.086s2.157 2.61-1.018 4.653c-.546.35-.787.674-.724 1.02l.05.227.226.039c2.301.614 3.466 2.175 4.888 3.951 2.159 2.701 5.214 2.788 5.59 2.788h.04s-.697 2.165-2.751 2.165c-.033 0-.063 0-.098-.002-.945-.033-1.429-.39-1.429-.39s-.37 4.918 3.36 6.442z" fill="#000"/><path d="M46.42 15.503c.94.492 1.487 1.151 1.966 1.736.471.57.92 1.12 1.619 1.35.25.084.513.123.781.123 1.051 0 2.107-.632 2.507-1.508l.402-.877-.974-.058c-.046-.002-1.298-.113-2.693-1.516-.574-.575-1.267-.878-2.015-.878-.913 0-1.589.45-1.664.495l-.897.62.968.513zm1.596-.964c.469 0 1.015.156 1.532.681 1.623 1.622 3.133 1.712 3.133 1.712-.274.598-1.07 1.123-1.893 1.123-.19 0-.381-.029-.572-.093-1.116-.37-1.516-2.018-3.478-3.045 0 0 .549-.378 1.278-.378zm-1.156 9.717v.034c-.566-4.487-3.88-7.728-7.565-9.7-.34-.179-.655-.331-.96-.477 1.122.17 2.929.191 4.323-1 0 0-2.133 1.545-6.506.143 1.21.772 3.562 1.862 5.709 3.627 5.367 4.64 1.526 9.166 1.526 9.166 1.929-1.98 2.008-4.102 1.441-5.834 1.016 1.662 1.665 3.681 1.564 6.17-.148 3.566-2.14 6.65-4.236 9.128-1.007 1.203-1.233 2.68-1.233 2.68s.406-1.304 1.572-2.645c2.247-2.587 4.167-5.276 4.419-9.149.232.703 1.19 2.658 2.707 3.393.004.002-1.903-1.129-2.762-5.536zM18.256 40.859c-.002-.007-.391-.606-.517-2.227-.146-1.943-.892-3.076-1.63-3.727.214-.1.411-.22.577-.371 1.082-.958 1.036-2.085 1.03-2.206l-.042-.608-.62-.01c-1.652-.027-2.806-.513-3.742-1.579a4.878 4.878 0 01-.536-.745c.515.154 1.145.27 1.893.27.201 0 .409-.013.628-.027a3.742 3.742 0 002.038-.855l.643-.581-.735-.466c-1.644-1.034-3.324-2.995-2.034-6.431.836-2.236 2.769-4.26 5.91-6.201 1.06-.66 1.64-1.434 1.64-2.176 0-1.145-.972-1.596-1.686-1.918-.348-.163-.71-.325-.886-.525-.553-.629-.086-1.836.425-2.489l.658-.846-1.064-.207c-.032-.004-.31-.055-.737-.055-.796 0-2.312.19-3.552 1.452-1.032 1.051-1.168 2.17-1.116 2.89-.1.009-.201.013-.306.02h-.113c-1.554 0-2.289-1.62-2.318-1.684l-.438-1.012-.707.853c-.04.052-1.075 1.32-.823 2.91.167 1.056.841 1.967 2 2.717.125.078.213.148.276.204-2.18.698-3.399 2.23-4.687 3.842l-.186.228c-1.968 2.464-4.754 2.537-5.087 2.537l-.948-.03.289.888c.033.108.873 2.63 3.394 2.63l.122-.005c.266-.008.504-.043.718-.084-.105 1.374-.618 3.914-2.936 4.861l-.708.289.384.655c.037.06.896 1.488 2.843 1.488a4.38 4.38 0 002.009-.466c.075.622.23 1.421.534 2.313.705 2.065.048 3.51.023 3.569l-.348.72.787.207c.053.012.536.131 1.108.131a3.29 3.29 0 002.144-.774c.214.647.58 1.376 1.215 2.023 1.08 1.092 2.634 1.644 4.666 1.644l1.231-.017-.683-1.02zm-.595.377c-5.593 0-5.45-4.72-5.45-4.72s-.39 1.397-1.95 1.761c-.186.05-.385.068-.58.068-.503 0-.936-.115-.936-.115s.812-1.696.002-4.067c-.67-1.967-.561-3.426-.561-3.426s-.752 1.12-2.622 1.131h-.019c-1.556 0-2.234-1.16-2.234-1.16 3.727-1.522 3.36-6.438 3.36-6.438s-.483.355-1.43.39c-.033.002-.064.002-.098.002-2.056 0-2.752-2.165-2.752-2.165h.042c.38 0 3.43-.087 5.59-2.788 1.421-1.776 2.588-3.335 4.885-3.95l.23-.04.05-.227c.063-.346-.175-.67-.722-1.02-3.175-2.045-1.018-4.653-1.018-4.653s.903 2.085 2.936 2.085c.05 0 .097-.003.149-.003.228-.012.454-.02.676-.067l.375-.073s-.58-1.547.819-2.968c1.051-1.074 2.33-1.255 3.068-1.255.375 0 .607.047.607.047-.7.903-1.206 2.399-.398 3.321.7.794 2.406.833 2.406 2.015 0 .5-.475 1.086-1.33 1.611-2.569 1.593-5.12 3.706-6.18 6.535-1.322 3.531.17 5.873 2.304 7.219 0 0-.67.605-1.64.682a6.102 6.102 0 01-.57.026c-2.045 0-3.102-.943-3.102-.943s.176 1.304 1.233 2.515c.989 1.119 2.277 1.778 4.245 1.805 0 0 .063.898-.808 1.675-.56.49-1.845.65-1.845.65s2.412.48 2.676 3.983c.144 1.897.632 2.557.632 2.557h-.04z" fill="#000"/><path d="M5.204 18.714c.27 0 .534-.04.783-.124.704-.228 1.15-.778 1.621-1.35.482-.584 1.024-1.243 1.965-1.736l.967-.51-.898-.62c-.076-.048-.75-.495-1.66-.495-.75 0-1.446.3-2.018.877-1.394 1.401-2.644 1.515-2.69 1.517l-.974.055.4.88c.402.871 1.455 1.506 2.504 1.506zm1.24-3.492c.52-.525 1.066-.682 1.537-.682.725 0 1.273.38 1.273.38-1.96 1.027-2.362 2.673-3.482 3.044a1.734 1.734 0 01-.568.093c-.823 0-1.618-.523-1.89-1.123 0-.002 1.507-.093 3.13-1.712zM9.6 26.385c-.105-2.489.544-4.508 1.562-6.17-.568 1.732-.49 3.854 1.44 5.834 0 0-3.84-4.526 1.53-9.166 2.148-1.765 4.497-2.855 5.706-3.628-4.37 1.403-6.505-.142-6.505-.142 1.395 1.191 3.202 1.17 4.325.998-.304.146-.622.298-.96.477-3.69 1.972-7 5.213-7.568 9.7v-.035c-.856 4.406-2.762 5.537-2.762 5.537 1.517-.735 2.472-2.688 2.704-3.393.253 3.873 2.174 6.562 4.42 9.15 1.167 1.34 1.577 2.644 1.577 2.644s-.228-1.477-1.24-2.68c-2.091-2.474-4.083-5.56-4.23-9.126zm17.133-9.076v.89c.313-.373.916-.297.916-.297v1.283s-.021.63-.25.905h1.304c-.223-.272-.246-.905-.246-.905v-1.283s.603-.076.913.296v-.89h-2.637zm-.561-5.279c.417.325.658.378.666.385l.163.074v-.839l-1.533-.634c0 .002.015.486.704 1.013zm3.646 0c.693-.528.706-1.014.706-1.014l-1.533.634v.839l.161-.075c.01-.006.25-.06.666-.385z" fill="#000"/><path d="M32.58 8.614c0-1.271-2.176-2.415-4.578-2.415h-.015c-2.402 0-4.577 1.144-4.577 2.415l.048.313.959 5.416-.963.55-2.492 1.432h.008s-.561.282-.821.457c-.948.65-1.15 1.595-.599 1.986.136-.77.756-1.578 1.916-1.578.836 0 1.472.424 1.988 1.06.131.162.257.333.374.518.145.233.29.437.434.635h-6.419c.472.933.92 1.922.92 2.995v13.976c0 3.383 2.645 4.998 5.505 4.998 2.211 0 2.509-.1 3.73 1.096 1.214-1.197 1.512-1.096 3.725-1.096 2.863 0 5.503-1.615 5.503-4.998V22.398c0-1.073.449-2.062.922-2.995h-6.42c.142-.196.286-.402.43-.635.12-.185.243-.356.373-.517.52-.639 1.154-1.061 1.99-1.061 1.16 0 1.778.805 1.916 1.578.55-.391.352-1.337-.603-1.986-.256-.175-.817-.457-.817-.457h.008l-2.492-1.432-.959-.55.96-5.416.046-.313zm-8.226.63l3.371 1.125v5.21l-2.481-1.288-.89-5.047zm.697 11.067c.553.542 1.096.878 1.61 1.063-.067.262-.154.802.095 1.34.203.432.572.766 1.101.988a2.058 2.058 0 001.355 1.698c-.416.414-.823.803-.988.962l-3.864-.06a.68.68 0 01-.303-.278c-.009-.019-.021-.03-.027-.05l.63.101a.275.275 0 00.04.002.249.249 0 00.249-.206.249.249 0 00-.21-.284l-.774-.12.86-2.923-.814-1.687-1.307 1.36-.08 3.04-.877-.136a.25.25 0 00-.29.206.252.252 0 00.21.285l.369.055a2.865 2.865 0 00-.229.14l-.075.052-.02.09c-.214.854.27 1.663.79 2.026l-.018.107a.472.472 0 00.088.366.485.485 0 00.404.204.496.496 0 00.48-.379c.194.023.372.027.494.027h.102l5.07.9.086-.055c.404-.278 1.943-1.382 2.448-1.747.138.117.293.224.482.313-.164.54-.174 1.37.473 2.025h-12.92V22.4c0-.71-.212-1.425-.461-2.085h5.821v-.004zm6.266 6.712a219.32 219.32 0 01-2.31 1.648l-4.607-.814a3.92 3.92 0 00.157-1.055l3.872.062.073-.074c.059-.057 1.286-1.224 1.912-1.895.149.183.335.358.578.513-.084.445-.048 1.08.325 1.615zm-7.713-.785c.11.225.306.375.442.46a5.17 5.17 0 01-.081.825c-.013.064-.03.124-.049.184a1.2 1.2 0 01-.029.093c-.203 0-.603-.025-.93-.143-.362-.131-.902-.784-.777-1.503.157-.095.52-.295.859-.295.262-.002.44.12.565.379zm-.48-.904l.078-2.92.666-.694.419.861-.825 2.802-.337-.05zm8.15 15.133c-.25 0-.483.004-.692.013l.548-1.68c.086-.232-.347-.53-.525-.792.27.166.97.531 1.307.677-.036.054-.637 1.782-.637 1.782zm1.722-1.907l-.358 1.837a7.69 7.69 0 01-.72.058l.377-1.768c.113-.525-1.322-.688-2.03-1.72-.345.383-.996.497-1.65.497a8.571 8.571 0 01-1.555-.165 1.73 1.73 0 00-.266-.025c-.21 0-.4.064-.532.282l-.105.173-1.954-.453-.486.791c-.069.128-.073.237.038.357l.132.142c-.09.28-.496.702-.496.702l-.291-.356c-.23-.254-.193-.715.048-1.143l.775-1.288 1.654.235-.258-.577c-.345-.762.18-1.733.237-2.29-.019.168-.176.205-.36.205-.168 0-.354-.03-.478-.03-.048 0-.09.003-.113.02l-.448.268-.354-.307c-.042-.06-.056-.198.048-.301l.82-.902-.968-1.11 1.355.669.412-.493c.113.11.065.396.065.396.423.01 1.608.655 1.671 2.159.004.045.004.097.004.146 0 0 .01.019.032.05.084.113.314.403.607.43l1.872.181h.008c.206 0 .614-.236 1.137-.236.285 0 .604.072.943.282 0 0 .17-.132.446-.147.02-.002.044-.002.065-.002.84 0 1.187.746 1.638 1.366.339.472.791 1.173.791 1.173-.168.195-.323.302-.582.302a1.32 1.32 0 01-.241-.022c-.9-.163-1.03-1.984-1.543-2.128a.28.28 0 00-.32.134c.234.62.098.871.349 1.349.188.354.523.647.662.785 0 .004-.038.272-.078.474zm-10.053-1.74l.085.213c-.056.185-.705.45-.705.45l-.14-.302a.992.992 0 01.334-1.194l1.052-.63 1.114.232a.96.96 0 00.19.608l-1.168-.22-.7.475c-.117.08-.125.23-.062.369zm10.23 3.476l.32-1.644c.016-.096.037-.21.052-.305.09.038.186.069.291.087.12.023.23.033.33.033.491 0 .776-.253.966-.47l.247-.282-.2-.309a29.22 29.22 0 00-.807-1.197 6.1 6.1 0 01-.197-.286c-.39-.573-.877-1.292-1.855-1.292l-.088.002c-.161.01-.3.041-.41.082a2.247 2.247 0 00-.953-.214c-.404 0-.746.11-.972.186-.065.018-.123.039-.17.047l-1.828-.177c-.023-.004-.098-.047-.188-.155v-.008l.396-.157c-.111-1.295-1.376-2.093-2.082-2.363a.73.73 0 00-.205-.364l-.394-.367-.345.408-.17.208-2.559-1.034 1.665 2.056-.658.979c-.24.25.025.502.025.502l.679.46.704-.258c.025 0 .046.006.069.008-.034.105-.078.517-.107.633l-1.221-.237-1.284.713a1.478 1.478 0 00-.504 1.804l.142.307.203.433.448-.183a.067.067 0 00.017-.008c-.161.506-.096.988.193 1.306l.272.337.362.452.398-.42c.117-.116.496-.534.614-.893l.085-.274-.194-.21-.032-.037.218-.354 1.594.368.358.08.19-.308.105-.17c.019-.034.025-.04.098-.04a.86.86 0 01.174.018 9.189 9.189 0 001.648.167c.478 0 .762-.019 1.104-.13 0 0 .856.956.886.993l-.524 1.59-.023.098c-.992.078-1.476.292-2.06.867-.848-.829-1.45-.915-3.73-.915-2.729 0-4.578-1.574-4.578-4.087v-6.145h16.61l.005 6.145c.002 2.04-1.215 3.46-3.13 3.924zm3.59-19.985c-.253.66-.464 1.374-.464 2.085l.002 4.586c-.974-.16-1.09-1.193-1.093-1.238l-.02-.21-.209-.02a1.488 1.488 0 01-.94-.442c-.477-.47-.48-1.232-.477-1.238-.006.039-.526.754.077 1.535.253.33.62.531 1.095.612.111.572.545 1.38 1.567 1.503v2.246h-2.873c-1.326-.725-.765-2.003-.737-2.056l.113-.243-.254-.095c-1.434-.523-1.04-1.932-1.02-1.992l.059-.206-.195-.09c-1.185-.54-1.024-1.997-1.009-2.057-.364.29-.496.884-.245 1.465a16.94 16.94 0 01-.517.54 1.585 1.585 0 01-1.265-1.469l-.002-.171-.162-.062c-.479-.175-.808-.437-.97-.789-.181-.39-.116-.797-.066-.993.14.031.28.054.415.064a4.2 4.2 0 00.423.023h.018c.143 0 .283-.009.421-.023.765-.074 1.621-.398 2.513-1.267h5.816v.002zm-4.477-4.635l1.135.649h.017l.285.162c-.64.176-1.13.49-1.541.905-.015.012-.03.029-.044.043a5.089 5.089 0 00-.277.315c-.017.021-.033.044-.052.066a5.218 5.218 0 00-.291.404 7.914 7.914 0 00-.274.439c-.809 1.37-2.099 2.188-3.246 2.19-1.146-.002-2.436-.82-3.244-2.19a8.955 8.955 0 00-.27-.433l-.053-.076a8.418 8.418 0 00-.301-.406 8.026 8.026 0 00-.268-.307c-.019-.014-.032-.033-.05-.05a3.34 3.34 0 00-1.544-.9l.29-.162h.012l1.135-.65 1.166-.656 3.116 1.668.007-.006.008.006 3.116-1.668 1.168.657zm-1.537-1.383l-2.483 1.288v-5.212l3.37-1.125-.887 5.05zm-2.753-4.497L24.302 8.36c.314-.731 1.763-1.353 3.694-1.355 1.932.002 3.382.624 3.694 1.355l-3.694 1.436zM73.74 31.6v-8.25h4.918v-3H65.24v3h4.918v8.25h3.581zm9.813-4.704V20.35H80.09V31.6h3.056l5.969-6.546V31.6h3.462V20.35h-3.056l-5.97 6.546zm20.671.52V31.6h3.462V20.35h-3.462v4.112h-5.563v-4.113H95.2V31.6h3.462v-4.183h5.563zm13.103 4.184c.788 0 1.504-.07 2.172-.26 1.792-.496 2.961-1.938 2.961-3.9 0-1.867-1.002-3.167-2.601-3.758-.766-.284-1.672-.307-2.532-.307h-3.558v-3.026h-3.461V31.6h7.019zm-.597-5.578c.478 0 .931 0 1.337.142.573.189.908.661.908 1.229 0 .59-.335 1.087-.884 1.323-.382.166-.764.166-1.361.166h-2.961v-2.86h2.961zm11.937 1.324l4.131 4.254h4.607l-5.753-5.862 5.538-5.389h-4.345l-4.178 4.231h-.954v-4.23h-3.462V31.6h3.462v-4.255h.954zm15.861-7.304c-4.656 0-7.448 2.6-7.448 5.956 0 3.357 2.792 5.957 7.448 5.957 4.633 0 7.426-2.6 7.426-5.957 0-3.356-2.793-5.956-7.426-5.956zm0 9.17c-2.315 0-3.795-1.37-3.795-3.214 0-1.843 1.48-3.19 3.795-3.19 2.293 0 3.797 1.347 3.797 3.19 0 1.844-1.504 3.215-3.797 3.215zm18.956-9.501h-3.462v1.134c-4.346.095-6.949 1.915-6.949 5.13 0 3.214 2.603 4.892 6.949 4.987v1.134h3.462v-1.134c4.368-.095 6.971-1.773 6.971-4.988 0-3.214-2.603-5.034-6.971-5.129v-1.134zm-3.462 8.84c-2.388-.095-3.439-1.064-3.439-2.576 0-1.513 1.051-2.6 3.439-2.695v5.27zm3.462-5.27c2.412.094 3.437 1.18 3.437 2.694 0 1.512-1.025 2.481-3.437 2.576v-5.27zm18.488-3.57h-3.462v1.134c-4.345.095-6.947 1.915-6.947 5.13 0 3.214 2.602 4.892 6.947 4.987v1.134h3.462v-1.134c4.37-.095 6.972-1.773 6.972-4.988 0-3.214-2.602-5.034-6.972-5.129v-1.134zm-3.462 8.84c-2.387-.095-3.438-1.064-3.438-2.576 0-1.513 1.051-2.6 3.438-2.695v5.27zm3.462-5.27c2.412.094 3.438 1.18 3.438 2.694 0 1.512-1.026 2.481-3.438 2.576v-5.27z" fill="#000"/></g><defs><clipPath id="clip0"><path fill="#fff" d="M0 0h189v49.185H0z"/></clipPath></defs></svg>