<svg width="131" height="47" fill="none" xmlns="http://www.w3.org/2000/svg"><path fill-rule="evenodd" clip-rule="evenodd" d="M8.9 0L6.674 6.099h30.854L39.755 0H8.9zM5.56 9.147l-2.227 6.097h30.855l2.226-6.097H5.56zm-3.334 9.147L0 24.39h30.854l2.225-6.097H2.226z" fill="#009FDF"/><mask id="a" style="mask-type:alpha" maskUnits="userSpaceOnUse" x="46" y="9" width="85" height="38"><path d="M46.291 46.624h84.46V9.267h-84.46v37.358z" fill="#fff"/></mask><g mask="url(#a)"><path fill-rule="evenodd" clip-rule="evenodd" d="M65.594 26.717v.128c1.41.518 2.757 1.423 3.463 2.004 2.18 1.81 3.143 4.201 3.143 7.304 0 5.107-2.694 8.791-7.12 9.955-1.346.387-2.756.517-5.387.517H46.291V9.265h11.864c2.437 0 4.104.13 5.579.517 4.297 1.163 7.119 4.137 7.119 8.855 0 2.52-.898 4.655-2.373 6.076-.641.646-1.539 1.422-2.886 2.004zM53.73 30.659v9.825h5.131c1.538 0 2.95-.129 3.976-1.099 1.026-.97 1.475-2.197 1.475-3.813 0-1.228-.322-2.392-.963-3.232-1.09-1.357-2.437-1.68-4.745-1.68H53.73zm-.064-6.464h4.168c1.282 0 1.923 0 2.565-.193 1.733-.518 2.823-2.068 2.823-4.202 0-2.52-1.155-3.62-2.823-4.136-.706-.193-1.41-.258-2.822-.258h-3.911v8.79zm29.692 22.43v-31.09h-10.71v-6.27h29.757l-2.115 6.27h-9.493v31.09h-7.44zm21.355 0V9.265h24.114l-2.115 6.27h-14.623v8.273h5.964c4.81 0 7.312 1.164 9.043 2.65 1.347 1.164 3.655 3.749 3.655 8.856 0 5.041-2.373 7.82-4.361 9.242-2.308 1.615-4.745 2.07-9.683 2.07h-11.994zm7.376-6.27h5.58c2.116 0 3.398-.517 4.296-1.681.449-.581 1.09-1.616 1.09-3.555s-.641-3.296-1.923-4.266c-.769-.581-1.796-.904-3.528-.904h-5.515v10.406z" fill="#0A2973"/></g></svg>