<svg width="813" height="409" viewBox="0 0 813 409" fill="none" xmlns="http://www.w3.org/2000/svg">
<g opacity="0.9">
<path d="M125.445 351.999C123.164 351.999 121.225 351.201 119.629 349.604C118.032 348.008 117.234 346.069 117.234 343.788V299.995H8.7776C6.49672 299.995 4.55796 299.197 2.96134 297.6C1.36472 296.003 0.566406 294.065 0.566406 291.784V268.519C0.566406 264.869 1.82089 261.448 4.32987 258.255L105.259 118.322C106.4 116.497 108.11 115.129 110.391 114.217C112.672 113.076 115.181 112.506 117.918 112.506H155.211C157.72 112.506 159.658 113.304 161.027 114.901C162.624 116.269 163.422 118.208 163.422 120.717V259.623H193.872C196.381 259.623 198.433 260.421 200.03 262.018C201.627 263.387 202.425 265.325 202.425 267.834V291.784C202.425 294.065 201.627 296.003 200.03 297.6C198.433 299.197 196.495 299.995 194.214 299.995H163.422V343.788C163.422 346.069 162.624 348.008 161.027 349.604C159.658 351.201 157.72 351.999 155.211 351.999H125.445ZM118.26 260.992V162.115L48.1229 260.992H118.26Z" fill="#373943"/>
<path d="M735.445 351.999C733.164 351.999 731.225 351.201 729.629 349.604C728.032 348.008 727.234 346.069 727.234 343.788V299.995H618.778C616.497 299.995 614.558 299.197 612.961 297.6C611.365 296.003 610.566 294.065 610.566 291.784V268.519C610.566 264.869 611.821 261.448 614.33 258.255L715.259 118.322C716.4 116.497 718.11 115.129 720.391 114.217C722.672 113.076 725.181 112.506 727.918 112.506H765.211C767.72 112.506 769.658 113.304 771.027 114.901C772.623 116.269 773.422 118.208 773.422 120.717V259.623H803.872C806.381 259.623 808.433 260.421 810.03 262.018C811.627 263.387 812.425 265.325 812.425 267.834V291.784C812.425 294.065 811.627 296.003 810.03 297.6C808.433 299.197 806.495 299.995 804.214 299.995H773.422V343.788C773.422 346.069 772.623 348.008 771.027 349.604C769.658 351.201 767.72 351.999 765.211 351.999H735.445ZM728.26 260.992V162.115L658.123 260.992H728.26Z" fill="#373943"/>
</g>
<g opacity="0.7">
<path d="M340.197 72.0478C340.197 72.0478 276.05 104.726 244.058 155.082C212.065 205.438 214.596 270.219 253.472 318.306C292.347 366.392 366.653 360.077 428.869 390.537C491.086 420.998 559.728 414.725 589.147 350.189C618.566 285.652 574.205 261.533 566.585 186.846C558.966 112.16 491.636 2.79625 340.197 72.0478Z" fill="#3E54D8"/>
<path d="M340.803 161.936C331.098 157.175 321.068 153.111 310.786 149.776C295.97 145.215 278.489 149.391 278.104 154.326C277.719 159.261 280.354 157.001 283.809 162.352C287.265 167.703 285.704 180.208 290.65 191.609C295.595 203.009 310.401 208.705 310.401 208.705L340.803 161.936Z" fill="#92E3A9" stroke="#263238" stroke-width="0.265067" stroke-linecap="round" stroke-linejoin="round"/>
<path opacity="0.3" d="M330.922 172.963C330.922 172.963 308.121 158.522 294.825 153.576C281.53 148.631 280.77 155.856 280.77 155.856C282.957 156.659 284.834 158.134 286.132 160.069C287.43 162.004 288.082 164.3 287.995 166.629C287.995 175.162 292.261 192.835 302.628 196.483C312.995 200.132 330.922 172.963 330.922 172.963Z" fill="black"/>
<path d="M493.62 189.099C499.579 186.835 502.44 179.813 500.009 173.414C497.578 167.015 490.777 163.663 484.818 165.927C478.858 168.19 475.998 175.213 478.428 181.611C480.859 188.01 487.661 191.362 493.62 189.099Z" fill="#92E3A9" stroke="#263238" stroke-width="0.265067" stroke-linecap="round" stroke-linejoin="round"/>
<path d="M330.242 310.125L343.031 348.492C343.378 349.532 344.043 350.436 344.933 351.076C345.822 351.716 346.891 352.06 347.987 352.059H367.92C368.94 352.061 369.938 351.763 370.79 351.203C371.642 350.643 372.311 349.844 372.714 348.908L381.631 328.214" fill="#92E3A9"/>
<path opacity="0.3" d="M336.66 310.125L347.24 348.492C347.44 349.455 347.951 350.326 348.695 350.971C349.438 351.615 350.372 351.998 351.354 352.059H367.883C368.791 352.013 369.661 351.684 370.373 351.119C371.085 350.554 371.603 349.781 371.855 348.908L379.253 328.214" fill="black"/>
<path d="M330.242 310.125L343.031 348.492C343.378 349.532 344.043 350.436 344.933 351.076C345.822 351.716 346.891 352.06 347.987 352.059H367.92C368.94 352.061 369.938 351.763 370.79 351.203C371.642 350.643 372.311 349.844 372.714 348.908L381.631 328.214" stroke="#263238" stroke-width="0.265067" stroke-linecap="round" stroke-linejoin="round"/>
<path d="M426.433 310.125L413.654 348.492C413.307 349.532 412.642 350.436 411.753 351.076C410.863 351.716 409.795 352.06 408.699 352.059H388.785C387.766 352.061 386.768 351.763 385.916 351.203C385.064 350.643 384.395 349.844 383.992 348.908L375.074 328.214" fill="#263238"/>
<path d="M426.433 310.125L413.654 348.492C413.307 349.532 412.642 350.436 411.753 351.076C410.863 351.716 409.795 352.06 408.699 352.059H388.785C387.766 352.061 386.768 351.763 385.916 351.203C385.064 350.643 384.395 349.844 383.992 348.908L375.074 328.214" stroke="#263238" stroke-width="0.265067" stroke-linecap="round" stroke-linejoin="round"/>
<path d="M468.784 310.125L455.995 348.492C455.648 349.532 454.983 350.436 454.093 351.076C453.204 351.716 452.135 352.06 451.039 352.059H431.106C430.086 352.061 429.088 351.763 428.236 351.203C427.384 350.643 426.715 349.844 426.312 348.908L417.395 328.214" fill="#92E3A9"/>
<path opacity="0.3" d="M459.724 310.125L450.979 348.492C450.492 350.62 449.135 352.059 447.594 352.059H433.964C432.545 352.059 431.258 350.823 430.691 348.908L422.219 328.64" fill="black"/>
<path d="M468.784 310.125L455.995 348.492C455.648 349.532 454.983 350.436 454.093 351.076C453.204 351.716 452.135 352.06 451.039 352.059H431.106C430.086 352.061 429.088 351.763 428.236 351.203C427.384 350.643 426.715 349.844 426.312 348.908L417.395 328.214" stroke="#263238" stroke-width="0.265067" stroke-linecap="round" stroke-linejoin="round"/>
<path d="M400.439 335.369C460.98 335.369 510.058 290.86 510.058 235.955C510.058 181.05 460.98 136.541 400.439 136.541C339.898 136.541 290.82 181.05 290.82 235.955C290.82 290.86 339.898 335.369 400.439 335.369Z" fill="#90E0A7"/>
<path opacity="0.3" d="M475.942 168.027C482.37 180.776 485.719 194.853 485.721 209.131C485.721 264.036 436.642 308.545 376.102 308.545C353.573 308.659 331.491 302.261 312.512 290.121C331.624 315.77 363.982 332.684 400.677 332.684C459.454 332.684 507.084 289.503 507.084 236.229C507.023 209.566 495.125 185.478 475.942 168.027Z" fill="black"/>
<path d="M400.439 335.369C460.98 335.369 510.058 290.86 510.058 235.955C510.058 181.05 460.98 136.541 400.439 136.541C339.898 136.541 290.82 181.05 290.82 235.955C290.82 290.86 339.898 335.369 400.439 335.369Z" stroke="#263238" stroke-width="0.265067" stroke-linecap="round" stroke-linejoin="round"/>
<path d="M500.836 244.873C498.444 264.898 489.212 283.068 475.309 297.418" stroke="#92E3A9" stroke-width="0.530134" stroke-linecap="round" stroke-linejoin="round"/>
<path d="M499.023 214.035C500.641 220.742 501.457 227.617 501.456 234.516" stroke="#92E3A9" stroke-width="0.530134" stroke-linecap="round" stroke-linejoin="round"/>
<path d="M373 144C384.764 141.997 390.419 140.99 402.5 141C410.235 140.999 418 141 438 147.5" stroke="#263238" stroke-width="2" stroke-linecap="round" stroke-linejoin="round"/>
<path d="M422.943 218.14C422.943 218.14 433.583 210.915 433.969 197.619C434.354 184.323 416.862 164.947 402.807 156.962C388.751 148.976 378.485 150.506 378.11 156.202C377.735 161.897 372.79 168.362 370.895 179.378C369 190.394 368.23 206.74 383.056 212.06" fill="#92E3A9"/>
<path d="M422.943 218.14C422.943 218.14 433.583 210.915 433.969 197.619C434.354 184.323 416.862 164.947 402.807 156.962C388.751 148.976 378.485 150.506 378.11 156.202C377.735 161.897 372.79 168.362 370.895 179.378C369 190.394 368.23 206.74 383.056 212.06" stroke="#263238" stroke-width="0.265067" stroke-linecap="round" stroke-linejoin="round"/>
<path opacity="0.3" d="M400.054 213.875L402.233 214.199C411.577 215.547 414.86 209.446 414.587 200.285C414.212 187.364 397.116 160.003 389.89 156.202C382.665 152.402 380.395 157.723 380.395 157.723C380.395 157.723 381.408 158.402 377.851 170.208C376.209 175.66 370.098 194.671 376.148 203.102C381.499 210.551 391.441 212.588 400.054 213.875Z" fill="black"/>
<path opacity="0.3" d="M430.321 200.782H430.179C430.047 200.765 429.919 200.721 429.803 200.654C429.687 200.587 429.586 200.497 429.505 200.391C429.424 200.285 429.365 200.163 429.331 200.034C429.297 199.904 429.289 199.769 429.308 199.637C429.418 198.858 429.482 198.073 429.5 197.286C429.703 190.192 423.917 180.007 414.401 170.613C414.306 170.519 414.23 170.408 414.178 170.285C414.126 170.162 414.099 170.029 414.098 169.896C414.097 169.762 414.122 169.63 414.172 169.506C414.223 169.382 414.297 169.269 414.391 169.174C414.484 169.079 414.596 169.003 414.719 168.951C414.842 168.899 414.974 168.872 415.108 168.871C415.242 168.87 415.374 168.896 415.498 168.946C415.622 168.996 415.735 169.07 415.83 169.164C425.883 179.095 431.75 189.625 431.527 197.336C431.505 198.197 431.438 199.057 431.324 199.911C431.29 200.152 431.17 200.374 430.986 200.534C430.801 200.694 430.565 200.782 430.321 200.782Z" fill="black"/>
<path opacity="0.3" d="M424.868 213.002C424.677 213.003 424.489 212.949 424.326 212.847C424.164 212.745 424.034 212.599 423.951 212.426C423.868 212.253 423.836 212.06 423.859 211.87C423.881 211.68 423.957 211.499 424.078 211.35C425.748 209.304 427.082 207.006 428.03 204.54C428.126 204.289 428.317 204.086 428.562 203.976C428.807 203.866 429.086 203.857 429.337 203.953C429.589 204.048 429.792 204.239 429.902 204.485C430.012 204.73 430.021 205.009 429.925 205.26C428.901 207.928 427.458 210.415 425.649 212.627C425.554 212.744 425.436 212.838 425.301 212.902C425.166 212.967 425.018 213.001 424.868 213.002Z" fill="black"/>
<path opacity="0.3" d="M350.072 255.19C353.069 243.179 342.622 230.228 326.739 226.265C310.855 222.302 295.549 228.826 292.552 240.838C289.555 252.85 300.001 265.801 315.885 269.764C331.769 273.727 347.075 267.202 350.072 255.19Z" fill="black"/>
<path d="M348.646 253.009C351.643 240.997 341.197 228.046 325.313 224.083C309.429 220.12 294.123 226.645 291.126 238.657C288.129 250.669 298.576 263.619 314.459 267.582C330.343 271.545 345.649 265.021 348.646 253.009Z" fill="#92E3A9" stroke="#263238" stroke-width="0.265067" stroke-linecap="round" stroke-linejoin="round"/>
<path d="M310.939 242.208C311.122 244.924 310.078 247.215 308.618 247.275C307.159 247.336 305.811 245.249 305.578 242.533C305.345 239.817 306.44 237.516 307.909 237.466C309.378 237.415 310.757 239.482 310.939 242.208Z" stroke="#263238" stroke-width="0.265067" stroke-linecap="round" stroke-linejoin="round"/>
<path d="M331.021 247.244C331.204 249.97 330.16 252.251 328.7 252.311C327.241 252.372 325.893 250.285 325.66 247.559C325.427 244.832 326.522 242.552 327.991 242.492C329.46 242.431 330.808 244.518 331.021 247.244Z" stroke="#263238" stroke-width="0.265067" stroke-linecap="round" stroke-linejoin="round"/>
<path d="M364.171 254.287C363.957 256.238 363.501 258.155 362.813 259.993C356.996 275.71 335.938 282.51 315.133 275.741" stroke="#263238" stroke-width="0.795201" stroke-linecap="round" stroke-linejoin="round"/>
<path d="M360.777 252.797H367.233" stroke="#263238" stroke-width="0.795201" stroke-linecap="round" stroke-linejoin="round"/>
<path d="M319.655 210.722C318.945 213.671 317.131 215.789 315.601 215.404C314.071 215.018 313.402 212.363 314.122 209.384C314.841 206.405 316.645 204.317 318.175 204.692C319.705 205.067 320.374 207.763 319.655 210.722Z" fill="#263238" stroke="#263238" stroke-width="0.265067" stroke-linecap="round" stroke-linejoin="round"/>
<path d="M338.34 214.795C339.053 211.835 338.392 209.137 336.863 208.769C335.334 208.4 333.517 210.501 332.803 213.461C332.09 216.421 332.751 219.119 334.28 219.487C335.809 219.856 337.627 217.755 338.34 214.795Z" fill="#263238" stroke="#263238" stroke-width="0.265067" stroke-linecap="round" stroke-linejoin="round"/>
<path d="M366.25 322.468L377.397 348.918C377.797 349.864 378.467 350.671 379.323 351.239C380.179 351.807 381.184 352.11 382.211 352.11H402.479C403.497 352.109 404.492 351.811 405.343 351.253C406.194 350.695 406.865 349.901 407.272 348.969L419.433 320.867H418.906" fill="#92E3A9"/>
<path opacity="0.3" d="M389.801 319.095C383.376 319.095 375.898 319.936 369.848 318.538L380.265 348.869C380.513 349.75 381.031 350.531 381.745 351.103C382.459 351.676 383.334 352.011 384.248 352.061H400.949C401.852 352.011 402.717 351.682 403.425 351.119C404.133 350.556 404.648 349.788 404.901 348.919L414.984 317.98L410.931 318.538C398.071 319.936 398.405 319.095 389.801 319.095Z" fill="black"/>
<path d="M366.25 322.468L377.397 348.918C377.797 349.864 378.467 350.671 379.323 351.239C380.179 351.807 381.184 352.11 382.211 352.11H402.479C403.497 352.109 404.492 351.811 405.343 351.253C406.194 350.695 406.865 349.901 407.272 348.969L419.433 320.867H418.906" stroke="#263238" stroke-width="0.265067" stroke-linecap="round" stroke-linejoin="round"/>
<path d="M399.648 110.717L401.813 118.867L435.489 110.717L467.001 28.1525L446.357 21.0918L399.648 110.717Z" fill="white" stroke="#263238" stroke-width="0.324731" stroke-linecap="round" stroke-linejoin="round"/>
<path d="M409.96 1L456.668 18.3905L433.859 121.584L379 104.746L409.96 1Z" fill="white" stroke="#263238" stroke-width="0.324731" stroke-linecap="round" stroke-linejoin="round"/>
<path d="M380.836 98.5808L429.515 112.896L450.697 21.0921L408.049 7.38867L380.836 98.5808Z" fill="#92E3A9" stroke="#263238" stroke-width="0.324731" stroke-linecap="round" stroke-linejoin="round"/>
<path d="M407.852 30.0943C405.734 29.5336 403.52 29.4318 401.359 29.7957L388.641 72.4138C390.481 74.2076 392.746 75.5068 395.224 76.1904C405.195 78.9371 416.122 70.8315 419.615 58.0983C423.108 45.3651 417.809 32.826 407.852 30.0943Z" fill="white" stroke="#263238" stroke-width="0.324731" stroke-linecap="round" stroke-linejoin="round"/>
<path d="M406.048 37.1551C405.984 37.1262 405.931 37.0767 405.899 37.0144C405.866 36.9522 405.856 36.8808 405.869 36.8118L406.436 34.6025C406.47 34.5094 406.483 34.4097 406.474 34.3108C406.464 34.212 406.433 34.1166 406.381 34.0318C406.329 33.947 406.259 33.8751 406.175 33.8214C406.092 33.7677 405.997 33.7336 405.898 33.7218L403.525 33.1545C403.432 33.1168 403.332 33.1014 403.232 33.1095C403.132 33.1177 403.035 33.1491 402.949 33.2014C402.864 33.2536 402.791 33.3252 402.738 33.4104C402.686 33.4956 402.653 33.592 402.644 33.6919L402.182 35.9758C402.164 36.0442 402.123 36.1041 402.066 36.1451C402.008 36.1861 401.938 36.2055 401.868 36.1998C401.059 36.1169 400.244 36.1169 399.435 36.1998L395.091 50.7839C398.48 54.3068 403.764 56.0683 403.062 59.0239C402.659 60.6958 401.137 62.0094 398.465 61.4123C397.906 61.3376 397.37 61.1434 396.893 60.843C396.416 60.5426 396.009 60.143 395.7 59.6713C395.392 59.1997 395.188 58.6671 395.103 58.1098C395.019 57.5524 395.055 56.9834 395.21 56.4415L395.345 55.8443C395.419 55.5159 395.225 55.2473 394.763 55.1428L393.852 54.9188L391.27 63.5469C392.307 64.4899 393.519 65.2202 394.837 65.6965C394.904 65.7259 394.959 65.7779 394.991 65.8433C395.024 65.9087 395.033 65.9835 395.016 66.0548L394.479 67.9506C394.438 68.0433 394.42 68.1446 394.426 68.2459C394.433 68.3471 394.464 68.4453 394.517 68.5319C394.569 68.6185 394.643 68.691 394.73 68.7431C394.817 68.7953 394.915 68.8256 395.016 68.8313L397.479 69.4284C397.566 69.4744 397.662 69.4999 397.76 69.5031C397.858 69.5062 397.955 69.4869 398.045 69.4465C398.134 69.4062 398.213 69.3459 398.275 69.2703C398.338 69.1947 398.382 69.1058 398.405 69.0104L398.808 67.1296C398.83 67.06 398.874 66.9993 398.933 66.9564C398.992 66.9134 399.063 66.8904 399.136 66.8907C404.391 67.443 407.958 64.8606 409.063 60.2629C409.929 56.5907 408.69 53.4709 404.854 50.5302C401.346 47.8731 397.644 46.5594 398.285 43.8426C398.733 41.9618 400.45 41.096 402.764 41.6483C403.336 41.7404 403.882 41.9556 404.364 42.2788C404.845 42.6021 405.251 43.0258 405.553 43.5209C405.855 44.016 406.047 44.5706 406.114 45.1467C406.181 45.7228 406.123 46.3066 405.943 46.858L405.839 47.276C405.839 47.5297 405.988 47.7536 406.451 47.8731L410.825 48.918C410.918 48.9525 411.017 48.9656 411.116 48.956C411.215 48.9465 411.31 48.9147 411.395 48.8629C411.48 48.8112 411.552 48.7409 411.606 48.6574C411.659 48.5738 411.693 48.4792 411.705 48.3806L412.034 46.9923C413.034 42.6186 410.929 38.9016 406.048 37.1551Z" fill="#263238"/>
<path d="M282.648 352.068H619.581" stroke="#1B2124" stroke-linecap="round" stroke-linejoin="round"/>
<path d="M252.871 352.068H268.186" stroke="#1B2124" stroke-linecap="round" stroke-linejoin="round"/>
</g>
</svg>
