<svg width="181" height="54" viewBox="0 0 181 54" fill="none" xmlns="http://www.w3.org/2000/svg">
<g clip-path="url(#clip0)">
<path d="M0.734375 7.12512C0.734375 3.19002 3.9244 0 7.85949 0H173.875C177.81 0 181 3.19002 181 7.12512V46.3133C181 50.2484 177.81 53.4384 173.875 53.4384H7.85949C3.9244 53.4384 0.734375 50.2484 0.734375 46.3133V7.12512Z" fill="black"/>
<path fill-rule="evenodd" clip-rule="evenodd" d="M0.734375 46.3133V7.12512C0.734375 3.19002 3.9244 0 7.85949 0H173.875C177.81 0 181 3.19002 181 7.12512V46.3133C181 50.2484 177.81 53.4384 173.875 53.4384H7.85949C3.9244 53.4384 0.734375 50.2484 0.734375 46.3133ZM1.80314 46.3133V7.12512C1.80314 3.78029 4.51466 1.06877 7.85949 1.06877H173.875C177.22 1.06877 179.931 3.78029 179.931 7.12512V46.3133C179.931 49.6581 177.22 52.3696 173.875 52.3696H7.85949C4.51466 52.3696 1.80314 49.6581 1.80314 46.3133Z" fill="white" fill-opacity="0.3"/>
<path d="M41.4706 27.8098C41.4522 24.6778 42.8712 22.3173 45.7369 20.5768C44.1341 18.2807 41.7094 17.0178 38.5131 16.7744C35.4867 16.5356 32.1756 18.5378 30.9632 18.5378C29.682 18.5378 26.7521 16.857 24.4467 16.857C19.689 16.9305 14.6328 20.6503 14.6328 28.2185C14.6328 30.455 15.0415 32.765 15.859 35.1438C16.952 38.2758 20.8922 45.9496 25.0024 45.8256C27.1516 45.7751 28.6717 44.301 31.4684 44.301C34.1825 44.301 35.5878 45.8256 37.985 45.8256C42.1319 45.7659 45.6955 38.7901 46.7334 35.649C41.1721 33.0267 41.4706 27.9705 41.4706 27.8098ZM36.644 13.8031C38.9723 11.0385 38.7611 8.52188 38.6922 7.61719C36.6348 7.73659 34.256 9.01786 32.9012 10.593C31.4087 12.283 30.5316 14.3726 30.7199 16.7284C32.9426 16.8983 34.9724 15.7549 36.644 13.8031Z" fill="white"/>
<path d="M66.5555 38.6712H64.1968L62.9048 34.5925H58.4138L57.1831 38.6712H54.8867L59.3361 24.7853H62.0843L66.5555 38.6712ZM62.5153 32.8813L61.3469 29.2554C61.2233 28.8849 60.9917 28.0126 60.65 26.6395H60.6084C60.4724 27.2301 60.2532 28.1024 59.952 29.2554L58.8044 32.8813H62.5153Z" fill="white"/>
<path d="M77.9979 33.5418C77.9979 35.2447 77.5398 36.5907 76.6238 37.5788C75.8033 38.4584 74.7844 38.8977 73.5682 38.8977C72.2554 38.8977 71.3123 38.424 70.738 37.4766H70.6964V42.7511H68.4821V31.9548C68.4821 30.8842 68.4541 29.7855 68.4001 28.6586H70.3475L70.4711 30.2456H70.5126C71.2511 29.0499 72.3717 28.453 73.8756 28.453C75.0513 28.453 76.0328 28.9194 76.818 29.8533C77.6053 30.7882 77.9979 32.0174 77.9979 33.5418ZM75.742 33.6232C75.742 32.6486 75.5239 31.8452 75.0856 31.2129C74.6068 30.5534 73.9639 30.2237 73.1579 30.2237C72.6116 30.2237 72.1152 30.4074 71.6717 30.7694C71.2272 31.1346 70.9363 31.6115 70.8003 32.2021C70.7317 32.4775 70.6975 32.7029 70.6975 32.8803V34.5498C70.6975 35.2781 70.9197 35.8927 71.3643 36.3945C71.8088 36.8964 72.3863 37.1468 73.0967 37.1468C73.9307 37.1468 74.5798 36.8234 75.0441 36.1785C75.5094 35.5327 75.742 34.6812 75.742 33.6232Z" fill="white"/>
<path d="M89.4614 33.5418C89.4614 35.2447 89.0034 36.5907 88.0863 37.5788C87.2668 38.4584 86.2479 38.8977 85.0317 38.8977C83.7189 38.8977 82.7759 38.424 82.2025 37.4766H82.161V42.7511H79.9467V31.9548C79.9467 30.8842 79.9186 29.7855 79.8646 28.6586H81.812L81.9356 30.2456H81.9772C82.7146 29.0499 83.8352 28.453 85.3402 28.453C86.5149 28.453 87.4963 28.9194 88.2836 29.8533C89.0678 30.7882 89.4614 32.0174 89.4614 33.5418ZM87.2055 33.6232C87.2055 32.6486 86.9864 31.8452 86.5481 31.2129C86.0693 30.5534 85.4285 30.2237 84.6215 30.2237C84.0741 30.2237 83.5787 30.4074 83.1342 30.7694C82.6896 31.1346 82.3999 31.6115 82.2638 32.2021C82.1963 32.4775 82.161 32.7029 82.161 32.8803V34.5498C82.161 35.2781 82.3833 35.8927 82.8257 36.3945C83.2702 36.8954 83.8477 37.1468 84.5602 37.1468C85.3942 37.1468 86.0433 36.8234 86.5076 36.1785C86.9729 35.5327 87.2055 34.6812 87.2055 33.6232Z" fill="white"/>
<path d="M102.278 34.7773C102.278 35.9585 101.87 36.9195 101.05 37.6614C100.15 38.4721 98.8963 38.8769 97.2854 38.8769C95.7981 38.8769 94.6058 38.589 93.7033 38.0119L94.2163 36.1578C95.1885 36.7484 96.2551 37.0447 97.4173 37.0447C98.2513 37.0447 98.9005 36.8548 99.3668 36.4771C99.8311 36.0993 100.063 35.5922 100.063 34.9599C100.063 34.3965 99.8716 33.9217 99.4883 33.5367C99.1072 33.1517 98.4705 32.7938 97.5814 32.463C95.1615 31.5563 93.9525 30.228 93.9525 28.4813C93.9525 27.3398 94.3763 26.4039 95.2248 25.6755C96.0703 24.9462 97.1982 24.582 98.6086 24.582C99.8664 24.582 100.911 24.8022 101.745 25.2415L101.192 27.0549C100.413 26.6292 99.5319 26.4164 98.5463 26.4164C97.7673 26.4164 97.1587 26.6094 96.7225 26.9934C96.3538 27.3367 96.1689 27.7551 96.1689 28.2507C96.1689 28.7996 96.3798 29.2534 96.8035 29.6103C97.1722 29.94 97.8421 30.2969 98.8143 30.6819C100.003 31.1629 100.877 31.7253 101.439 32.3702C101.999 33.0129 102.278 33.8174 102.278 34.7773Z" fill="white"/>
<path d="M109.599 30.3283H107.158V35.1896C107.158 36.426 107.588 37.0438 108.45 37.0438C108.846 37.0438 109.174 37.0093 109.434 36.9405L109.495 38.6298C109.059 38.7936 108.484 38.876 107.773 38.876C106.898 38.876 106.215 38.6078 105.722 38.0726C105.23 37.5363 104.983 36.6368 104.983 35.3732V30.3262H103.529V28.6567H104.983V26.8234L107.158 26.164V28.6567H109.599V30.3283Z" fill="white"/>
<path d="M120.611 33.5825C120.611 35.1216 120.173 36.3852 119.299 37.3733C118.381 38.3906 117.164 38.8977 115.647 38.8977C114.184 38.8977 113.02 38.4104 112.152 37.4359C111.284 36.4613 110.849 35.2311 110.849 33.7484C110.849 32.1968 111.296 30.926 112.192 29.9378C113.087 28.9487 114.293 28.4541 115.811 28.4541C117.273 28.4541 118.45 28.9414 119.338 29.917C120.188 30.8634 120.611 32.0852 120.611 33.5825ZM118.314 33.6545C118.314 32.7311 118.118 31.9391 117.72 31.2786C117.256 30.4794 116.592 30.0808 115.732 30.0808C114.842 30.0808 114.166 30.4804 113.701 31.2786C113.304 31.9402 113.107 32.7446 113.107 33.6962C113.107 34.6197 113.304 35.4116 113.701 36.0711C114.18 36.8703 114.849 37.2689 115.712 37.2689C116.558 37.2689 117.221 36.862 117.7 36.0502C118.108 35.3772 118.314 34.5769 118.314 33.6545Z" fill="white"/>
<path d="M127.809 30.615C127.59 30.5743 127.356 30.5535 127.111 30.5535C126.332 30.5535 125.729 30.8487 125.306 31.4404C124.937 31.9621 124.752 32.6215 124.752 33.4176V38.6713H122.539L122.56 31.8118C122.56 30.6578 122.532 29.6071 122.477 28.6596H124.405L124.486 30.5754H124.548C124.781 29.917 125.15 29.3869 125.655 28.9894C126.148 28.6315 126.681 28.453 127.255 28.453C127.46 28.453 127.645 28.4676 127.809 28.4937V30.615Z" fill="white"/>
<path d="M137.711 33.1913C137.711 33.5899 137.685 33.9259 137.63 34.2003H130.987C131.013 35.1895 131.334 35.9459 131.951 36.4676C132.511 36.9341 133.235 37.1678 134.124 37.1678C135.108 37.1678 136.005 37.0102 136.812 36.6941L137.159 38.2383C136.216 38.6515 135.102 38.8571 133.818 38.8571C132.272 38.8571 131.059 38.4001 130.176 37.4871C129.296 36.5741 128.854 35.3481 128.854 33.81C128.854 32.3002 129.264 31.0429 130.086 30.0402C130.946 28.9696 132.108 28.4343 133.57 28.4343C135.007 28.4343 136.094 28.9696 136.833 30.0402C137.417 30.8905 137.711 31.9423 137.711 33.1913ZM135.6 32.6143C135.614 31.9548 135.47 31.3851 135.17 30.9041C134.787 30.2854 134.198 29.9765 133.405 29.9765C132.681 29.9765 132.092 30.2781 131.643 30.8832C131.274 31.3643 131.055 31.9413 130.987 32.6132H135.6V32.6143Z" fill="white"/>
<path d="M57.1672 16.0165H58.3084C59.4105 16.0165 60.0562 16.5119 60.0562 17.3469V17.358C60.0562 18.1318 59.3771 18.6383 58.3417 18.6383C57.2841 18.6383 56.6106 18.2208 56.5215 17.4805L56.5159 17.4359H55.2969L55.3024 17.5027C55.3859 18.8276 56.566 19.7293 58.3417 19.7293C60.0618 19.7293 61.331 18.7385 61.331 17.4137V17.4025C61.331 16.3226 60.6685 15.56 59.5942 15.4264V15.3819C60.4849 15.1759 61.086 14.43 61.086 13.5394V13.5283C61.086 12.2869 59.9839 11.4297 58.3696 11.4297C56.6885 11.4297 55.5919 12.2591 55.5084 13.6173L55.5028 13.6953H56.6996L56.7052 13.6173C56.7998 12.9271 57.3843 12.5207 58.3306 12.5207C59.2936 12.5207 59.8503 12.9493 59.8503 13.6619V13.673C59.8503 14.4412 59.2324 14.97 58.275 14.97H57.1672V16.0165Z" fill="white"/>
<path d="M65.3627 19.7015C66.142 19.7015 66.8155 19.3007 67.1551 18.6717H67.1829V19.5957H68.3853V15.56C68.3853 14.3855 67.4779 13.6285 66.0473 13.6285C64.6056 13.6285 63.7317 14.4022 63.6482 15.4097L63.6426 15.471H64.7782L64.7893 15.4209C64.8895 14.9533 65.3181 14.6249 66.0139 14.6249C66.7599 14.6249 67.1829 15.0145 67.1829 15.6602V16.1L65.5853 16.1946C64.1993 16.2781 63.4088 16.9016 63.4088 17.9202V17.9314C63.4088 18.9834 64.1937 19.7015 65.3627 19.7015ZM64.6223 17.9035V17.8924C64.6223 17.397 65.0231 17.0797 65.7468 17.0352L67.1829 16.9461V17.4025C67.1829 18.1652 66.5372 18.7385 65.6911 18.7385C65.0454 18.7385 64.6223 18.4156 64.6223 17.9035Z" fill="white"/>
<path d="M74.7883 14.6972V13.7398H70.9085V19.5957H72.1108V14.6972H74.7883Z" fill="white"/>
<path d="M77.0499 21.544H78.2522V18.6105H78.2801C78.6252 19.2896 79.2987 19.7126 80.1281 19.7126C81.5977 19.7126 82.5607 18.5381 82.5607 16.6733V16.6678C82.5607 14.7974 81.6033 13.6285 80.1114 13.6285C79.2765 13.6285 78.6307 14.0515 78.2801 14.7473H78.2522V13.7398H77.0499V21.544ZM79.7997 18.6773C78.8924 18.6773 78.2467 17.8868 78.2467 16.6733V16.6678C78.2467 15.4487 78.8868 14.6583 79.7997 14.6583C80.746 14.6583 81.3361 15.4209 81.3361 16.6678V16.6733C81.3361 17.9091 80.746 18.6773 79.7997 18.6773Z" fill="white"/>
<path d="M85.3845 21.5496C86.5312 21.5496 87.1435 21.082 87.5777 19.8685L89.7597 13.7398H88.4906L87.0155 18.5047H86.9765L85.5014 13.7398H84.1988L86.3308 19.6013L86.2306 19.8796C86.0302 20.4474 85.7185 20.5977 85.1507 20.5977C84.9892 20.5977 84.8501 20.5754 84.7555 20.5532V21.4939C84.9002 21.5217 85.1507 21.5496 85.3845 21.5496Z" fill="white"/>
<path d="M93.8916 19.7126C95.3278 19.7126 96.2797 18.9834 96.2797 17.8924V17.8813C96.2797 17.1966 95.8566 16.729 95.0829 16.5731V16.5286C95.7119 16.3839 96.1182 15.8885 96.1182 15.2594V15.2483C96.1182 14.2463 95.2944 13.6285 93.9473 13.6285C92.628 13.6285 91.7652 14.2519 91.6261 15.2928L91.6205 15.3374H92.7672L92.7728 15.2984C92.8618 14.8531 93.3016 14.5803 93.9306 14.5803C94.5652 14.5803 94.9437 14.8753 94.9437 15.3763V15.3875C94.9437 15.9107 94.5819 16.1779 93.8749 16.1779H93.0344V17.0519H93.8805C94.6932 17.0519 95.0829 17.319 95.0829 17.8813V17.8924C95.0829 18.4268 94.6264 18.7552 93.8861 18.7552C93.2237 18.7552 92.7895 18.4991 92.6559 18.026L92.6392 17.9703H91.4591L91.4646 18.0204C91.5815 19.0558 92.5223 19.7126 93.8916 19.7126Z" fill="white"/>
<path d="M98.5913 19.5957H99.777L102.466 15.4821H102.516V19.5957H103.712V13.7398H102.527L99.8382 17.8367H99.7826V13.7398H98.5913V19.5957Z" fill="white"/>
<path d="M110.711 13.7398H105.84V14.6972H107.672V19.5957H108.88V14.6972H110.711V13.7398Z" fill="white"/>
<path d="M115.233 19.7126C116.652 19.7126 117.56 18.8665 117.743 17.9369L117.76 17.8757H116.613L116.596 17.9202C116.446 18.36 115.973 18.7274 115.261 18.7274C114.303 18.7274 113.696 18.0817 113.674 16.9739H117.821V16.5676C117.821 14.8086 116.814 13.6285 115.171 13.6285C113.529 13.6285 112.472 14.8531 112.472 16.6845V16.69C112.472 18.5381 113.513 19.7126 115.233 19.7126ZM115.177 14.6137C115.962 14.6137 116.535 15.1091 116.63 16.1222H113.691C113.802 15.1425 114.398 14.6137 115.177 14.6137Z" fill="white"/>
<path d="M123.68 19.5957H126.374C127.644 19.5957 128.434 18.9389 128.434 17.9147V17.9035C128.434 17.1854 127.933 16.6622 127.176 16.562V16.5175C127.738 16.4117 128.172 15.8606 128.172 15.2539V15.2427C128.172 14.3131 127.482 13.7398 126.341 13.7398H123.68V19.5957ZM124.871 16.1556V14.6304H126.09C126.669 14.6304 126.981 14.892 126.981 15.3763V15.3875C126.981 15.9052 126.647 16.1556 125.968 16.1556H124.871ZM124.871 18.7051V17.0296H126.013C126.803 17.0296 127.198 17.2912 127.198 17.8534V17.8646C127.198 18.4212 126.831 18.7051 126.152 18.7051H124.871Z" fill="white"/>
</g>
<defs>
<clipPath id="clip0">
<rect width="180.265" height="53.4384" fill="white" transform="translate(0.734375)"/>
</clipPath>
</defs>
</svg>
