<svg width="107" height="246" viewBox="0 0 107 246" fill="none" xmlns="http://www.w3.org/2000/svg">
<path fill-rule="evenodd" clip-rule="evenodd" d="M80.3955 102.323C80.196 101.817 79.9191 101.281 79.7799 101.132C79.6408 100.983 79.6348 100.76 79.7663 100.636C80.0722 100.349 79.879 99.3472 79.5311 99.4173C79.3713 99.4495 79.3353 99.1801 79.4391 98.7312C79.573 98.153 79.4962 97.8533 79.0853 97.3525C78.6909 96.8714 78.6354 96.6694 78.8609 96.5389C79.09 96.4066 79.0562 96.2193 78.7182 95.751C78.4157 95.3314 78.3517 95.061 78.5169 94.8974C78.6499 94.7658 78.6739 94.1446 78.5701 93.5167C78.4218 92.6193 78.2364 92.3115 77.702 92.0768C77.3284 91.9128 77.149 91.7529 77.3031 91.7219C77.6124 91.6596 77.1545 88.5025 76.778 88.099C76.6502 87.9621 76.4166 87.0619 76.2584 86.0985C76.0143 84.6115 75.8613 84.2688 75.2456 83.8295C74.6823 83.4276 74.5723 83.215 74.7533 82.8774C75.089 82.2518 74.5186 80.1335 73.9412 79.862C73.5533 79.6798 73.5117 79.5483 73.7187 79.1617C73.901 78.8223 73.8816 78.6745 73.6512 78.646C73.4468 78.6203 73.1579 77.768 72.8626 76.32C72.6064 75.0632 72.072 73.4049 71.675 72.6354C71.278 71.8658 70.9035 70.8291 70.8425 70.3317C70.7817 69.8342 70.5761 69.301 70.3862 69.1469C70.1959 68.9929 69.9883 68.6303 69.9247 68.3412C69.683 67.2424 69.0072 65.7109 68.5647 65.2591C68.3115 65.0007 68.0113 64.2897 67.8979 63.6795C67.7842 63.0691 67.5218 62.3637 67.3147 62.112C67.1072 61.86 66.7354 61.0947 66.4879 60.4107C66.2405 59.7267 65.931 59.1889 65.7997 59.2153C65.6688 59.2417 65.518 59.0474 65.4649 58.7837C65.4117 58.5198 65.1343 58.0802 64.8485 57.8073C64.5626 57.534 64.3633 57.1046 64.4058 56.8529C64.448 56.6012 64.1352 55.9635 63.7105 55.436C63.228 54.8367 63.0277 54.3926 63.1767 54.2528C63.3216 54.1166 63.2951 53.9253 63.1086 53.7646C62.9399 53.6191 62.2168 52.5631 61.5015 51.4176C60.7864 50.272 59.9061 49.0828 59.5457 48.7746C59.1851 48.4666 58.9219 48.0265 58.9604 47.7969C59.0083 47.5112 58.8415 47.4176 58.4311 47.5002C57.9826 47.5906 57.8842 47.5219 58.0413 47.2277C58.1873 46.954 58.0711 46.5297 57.6583 45.8305C57.3324 45.2783 57.0577 44.7964 57.0481 44.7598C57.0385 44.7233 56.7577 44.7461 56.4246 44.811C55.987 44.896 55.9062 44.8446 56.1334 44.6264C56.3959 44.3742 56.3693 44.2405 55.9738 43.8203C55.7129 43.5431 55.423 43.3319 55.3294 43.3508C55.2361 43.3696 54.9756 42.8851 54.7507 42.2738C54.1558 40.6569 53.0747 39.0307 52.6512 39.116C52.4495 39.1566 52.2489 39.0139 52.2057 38.7991C52.1623 38.584 51.761 38.1433 51.3142 37.8199C50.8671 37.4963 50.544 37.116 50.5961 36.9746C50.6482 36.8333 50.401 36.5548 50.0467 36.356C49.6922 36.1575 49.3466 35.7182 49.2785 35.38C49.2037 35.0089 48.992 34.798 48.7446 34.8478C48.5192 34.8932 48.1585 34.6499 47.9431 34.3072C47.7277 33.9644 47.3365 33.7253 47.0736 33.776C46.7196 33.8439 46.6745 33.7921 46.8995 33.5757C47.1416 33.3427 47.0707 33.1307 46.5488 32.5292C46.1885 32.1143 45.7425 31.8045 45.5575 31.8406C45.3723 31.877 45.1721 31.6638 45.1123 31.3669C45.0525 31.07 44.9068 30.8466 44.7882 30.8705C44.6699 30.8943 44.1984 30.4206 43.7404 29.8178C43.2826 29.2149 42.7853 28.7464 42.6355 28.7766C42.4857 28.8068 42.3264 28.6493 42.2816 28.4266C42.2363 28.2018 41.961 28.0699 41.6622 28.1301C41.3635 28.1903 41.0881 28.0584 41.0429 27.8336C40.998 27.611 40.8403 27.4532 40.6924 27.4829C40.5445 27.5127 40.3927 27.3855 40.355 27.1999C40.2524 26.6962 38.281 25.2162 38.3639 25.7053C38.402 25.9293 38.1949 25.7182 37.904 25.2362C37.6132 24.7542 36.9779 24.0739 36.4925 23.7243C36.0071 23.3747 35.5892 22.9851 35.5636 22.8583C35.5381 22.7314 35.3389 22.6637 35.1208 22.7076C34.9028 22.7515 34.4818 22.4842 34.1851 22.1131C33.8886 21.7423 32.9955 21.076 32.2008 20.6326C31.406 20.1892 30.7292 19.695 30.6969 19.5344C30.6228 19.1668 28.7795 18.0879 28.3644 18.1692C28.1945 18.2023 27.7797 17.9112 27.4423 17.5226C27.1051 17.1336 26.5025 16.7997 26.1035 16.7804C25.7046 16.7613 25.3517 16.6136 25.3192 16.4522C25.2237 15.9783 23.5506 14.9279 23.0513 15.0285C22.799 15.0793 22.4862 14.9528 22.3561 14.7473C22.2263 14.5418 21.9185 14.4142 21.6725 14.4637C21.4261 14.5133 20.9851 14.3812 20.6921 14.1697C19.9644 13.6451 18.9285 13.3314 18.3259 13.4528C18.0505 13.5082 17.5078 13.3727 17.1194 13.1515C16.731 12.9307 16.266 12.8435 16.0861 12.9578C15.8872 13.0843 15.7381 12.9818 15.7063 12.6959C15.6254 11.9747 15.0526 12.0524 14.8304 12.815C14.7215 13.1888 14.6472 13.2891 14.6646 13.0379C14.6922 12.6445 13.7457 11.8478 13.3464 11.9282C13.2711 11.9434 12.6416 11.7382 11.9478 11.4721C10.9017 11.0712 10.6094 11.0607 10.24 11.4109C9.92051 11.7139 9.67937 11.7712 9.38764 11.6134C8.95204 11.3776 8.14235 11.7491 8.22263 12.1477C8.24932 12.2802 8.16146 12.4108 8.02754 12.4378C7.89335 12.4648 7.79818 12.2313 7.81556 11.9188C7.83706 11.5379 7.71519 11.3774 7.44574 11.4317C7.2247 11.4762 6.85837 11.3621 6.63164 11.1783C6.27082 10.8859 6.14834 10.928 5.64852 11.5167C5.02574 12.2507 4.11053 12.5707 4.01345 12.0887C3.96947 11.8704 3.87094 11.8868 3.66104 12.1479C3.50079 12.347 3.09417 12.494 2.75753 12.4745C1.94327 12.4273 1.36183 13.3069 1.74689 14.003C1.92127 14.3187 2.17606 14.4389 2.38643 14.3053C2.58117 14.1815 2.76875 14.2446 2.80968 14.4478C2.88915 14.8424 2.21275 15.2754 1.63232 15.2014C1.43475 15.1763 1.23867 14.9836 1.19633 14.7733C1.09832 14.2867 0.659969 14.3624 0.573008 14.8809C0.536542 15.0972 0.779876 15.4273 1.11363 15.6145C1.77576 15.9858 2.55132 15.9436 2.47011 15.5404C2.40852 15.2346 3.5626 15.0406 3.84315 15.3096C3.95269 15.4145 4.34086 15.4981 4.70597 15.495C5.07113 15.4923 5.50996 15.6538 5.68093 15.8539C5.85217 16.0539 6.32633 16.1505 6.73454 16.0682C7.20594 15.9733 7.85899 16.1675 8.52339 16.6002C9.27023 17.0864 9.83639 17.2341 10.4983 17.1151C11.1945 16.9903 11.4505 17.0665 11.5224 17.4208C11.6099 17.8511 11.9035 17.9484 12.3133 17.6827C12.4 17.6265 12.618 17.8199 12.7977 18.112C13.0484 18.5187 13.2811 18.5794 13.7914 18.3708C14.2854 18.1685 14.4806 18.2109 14.5457 18.5342C14.5941 18.7744 14.7546 18.9463 14.9025 18.9165C15.0504 18.8867 15.2081 19.0445 15.253 19.2671C15.2978 19.4898 15.4641 19.6459 15.6225 19.614C15.7812 19.582 16.1384 19.7078 16.4164 19.8933C16.7739 20.1319 16.989 20.1298 17.1505 19.8858C17.4953 19.3651 17.8308 19.3899 17.8488 19.9378C17.8582 20.2221 18.0332 20.3922 18.2682 20.3448C18.4901 20.3001 18.7918 20.4921 18.9387 20.7715C19.0853 21.0508 19.3401 21.2208 19.5044 21.149C19.6685 21.0774 19.8355 21.1797 19.8751 21.3765C19.9147 21.5732 20.294 21.9504 20.718 22.2146C21.4373 22.6626 21.491 22.6599 21.5166 22.1729C21.5359 21.8103 21.5981 21.8689 21.7205 22.364C21.8437 22.8635 22.2921 23.2782 23.2159 23.7479C25.1966 24.7545 25.6976 25.1389 25.7158 25.6651C25.7265 25.9798 25.9448 26.131 26.3545 26.1077C26.7298 26.086 27.0147 26.2598 27.0723 26.5456C27.1271 26.8179 27.6413 27.1589 28.2834 27.3489C28.8969 27.5303 29.4388 27.791 29.4872 27.9282C29.7989 28.8135 30.3334 29.372 30.9942 29.5031C31.413 29.5864 31.8427 29.6164 31.9487 29.5701C32.0547 29.524 32.1907 29.6339 32.2504 29.8151C32.3104 29.996 32.412 30.26 32.4763 30.4015C32.5406 30.543 32.6527 30.8827 32.7257 31.1564C32.8216 31.5174 32.9979 31.5855 33.3675 31.4043C33.7727 31.2059 33.9036 31.2879 34.0077 31.8045C34.0796 32.1615 34.2759 32.4262 34.4437 32.3924C34.839 32.3127 36.1477 33.2629 36.846 34.1364C37.1467 34.5119 37.593 34.8537 37.8378 34.8954C38.0827 34.9373 38.3315 35.211 38.3904 35.5038C38.4494 35.7964 38.6023 36.0751 38.73 36.1227C38.8579 36.1702 38.8279 35.7098 38.6633 35.0995C38.3962 34.1083 38.4107 34.0484 38.7999 34.5387C39.1002 34.9169 39.3795 35.0075 39.6986 34.8301C40.2651 34.5154 40.3508 34.788 39.9162 35.5212C39.6184 36.0238 39.6624 36.1188 40.4327 36.6329C40.896 36.942 41.1482 37.2203 40.9936 37.2515C40.6263 37.3255 40.7767 38.0616 41.1691 38.1106C41.3356 38.1313 41.5562 38.3817 41.659 38.6671C41.7761 38.9915 42.0539 39.1442 42.4003 39.0744C43.1702 38.9194 43.4739 39.1879 43.1698 39.7552C42.9988 40.0744 43.012 40.215 43.2093 40.1752C43.3723 40.1424 43.6429 40.4038 43.8104 40.7562C43.978 41.1086 44.2836 41.363 44.4893 41.3216C44.7278 41.2735 44.9242 41.5469 45.0305 42.0748C45.1924 42.8787 46.6871 44.5831 47.7203 45.142C47.992 45.2889 48.1728 45.5215 48.1224 45.6586C48.0717 45.7958 48.3599 46.2921 48.7626 46.7614C49.1652 47.231 49.4331 47.6275 49.3578 47.6427C49.0792 47.6988 50.4951 49.252 51.0491 49.4976C51.3647 49.6379 51.5738 49.8856 51.514 50.0482C51.4539 50.2111 51.5521 50.4668 51.7321 50.6171C51.912 50.767 52.2543 51.4193 52.4927 52.0663C52.7313 52.7133 53.3093 53.6368 53.7771 54.1186C54.2451 54.6001 54.6783 55.2435 54.7397 55.5485C54.8011 55.8532 55.1424 56.5138 55.4982 57.0164C55.8541 57.5191 56.1429 58.0428 56.1398 58.1804C56.1368 58.3181 56.4427 58.6508 56.8195 58.9197C57.3156 59.2737 57.4956 59.6104 57.4711 60.1388C57.4494 60.6065 57.636 61.059 57.9898 61.3972C58.2937 61.6876 58.6479 62.4486 58.7767 63.0883C58.9291 63.8447 59.1549 64.2756 59.4233 64.3215C59.6499 64.3601 59.94 64.5569 60.0677 64.759C60.197 64.9632 60.1688 65.0776 60.0045 65.0163C59.837 64.954 59.8149 65.0736 59.9533 65.2928C60.088 65.5056 60.3986 65.6491 60.6441 65.6118C60.8895 65.5744 60.9764 65.6212 60.8376 65.7155C60.5381 65.919 61.1191 68.0214 61.4563 67.9535C61.584 67.9278 61.6537 68.1128 61.6114 68.3651C61.5466 68.7508 61.9822 69.6952 63.3212 72.0712C63.6143 72.5913 63.9065 73.467 64.4527 75.4616C64.7084 76.3964 65.0498 77.2123 65.2113 77.2747C65.4902 77.3828 65.6991 78.0476 66.4242 81.135C66.5973 81.8725 66.8681 82.5346 67.0258 82.6065C67.1836 82.6783 67.4506 83.2564 67.619 83.8912C67.7877 84.5259 67.9466 85.1162 67.9724 85.2025C67.9982 85.2892 68.3806 85.6427 68.822 85.9879C69.494 86.5137 69.5775 86.6867 69.3359 87.0516C69.1773 87.2911 68.9249 87.5118 68.7751 87.542C68.3909 87.6194 69.4898 91.332 70.0619 91.8899C70.393 92.2124 70.4691 92.4914 70.3419 92.9161C70.2415 93.2509 70.3336 93.9013 70.5581 94.4438C70.7731 94.9636 71.5863 98.3566 72.365 101.984C73.144 105.611 73.8451 108.852 73.9232 109.185C74.0016 109.519 74.3913 110.009 74.7892 110.275L75.5134 110.758L74.8951 110.976C74.3431 111.172 74.3141 111.294 74.6235 112.119C74.8142 112.627 75.2215 113.23 75.5288 113.457C76.0575 113.85 76.0584 113.878 75.5431 113.981C75.1005 114.071 75.0292 114.282 75.1615 115.111C75.5439 117.507 75.893 118.793 76.2367 119.071C76.5092 119.292 76.5187 119.497 76.2734 119.868C75.8636 120.487 76.8069 125.532 77.374 125.755C77.5967 125.842 77.553 125.926 77.2521 125.99C76.7485 126.096 76.8065 126.892 77.3833 127.793C77.5895 128.115 77.5937 128.411 77.3955 128.633C77.2273 128.821 77.1675 129.718 77.2627 130.626C77.3579 131.533 77.4657 132.648 77.5022 133.103C77.5387 133.557 77.7035 133.98 77.8684 134.041C78.0548 134.111 78.0621 134.322 77.888 134.601C77.56 135.126 77.7627 137.124 78.1365 137.049C78.2766 137.021 78.2953 137.482 78.1781 138.074C78.0608 138.666 78.098 139.591 78.2608 140.129C78.4747 140.837 78.4551 141.091 78.1902 141.046C77.8645 140.991 77.7943 141.573 78.0485 142.22C78.0962 142.341 78.0849 143.228 78.0233 144.191C77.9617 145.153 78.0018 146.554 78.1126 147.304C78.2234 148.054 78.2833 148.927 78.2452 149.244C78.1907 149.7 78.3988 149.887 79.249 150.146C80.1148 150.41 80.2499 150.535 79.9503 150.792C79.7462 150.968 79.4443 151.061 79.2791 151C79.114 150.938 79.008 151.032 79.0433 151.207C79.0917 151.447 79.0008 151.468 78.6748 151.292C78.3328 151.107 78.2337 151.193 78.202 151.704C78.1396 152.707 78.2076 152.812 78.73 152.522C79.1415 152.293 79.2389 152.38 79.3592 153.078C79.4763 153.758 79.3895 153.928 78.8703 154.032C77.9393 154.22 77.3049 155.32 77.6768 156.102C77.8458 156.458 77.8889 157.237 77.774 157.865C77.621 158.704 77.6619 159.054 77.9341 159.236C78.2063 159.417 78.1771 159.652 77.82 160.152C77.4551 160.663 77.4127 161.041 77.643 161.732C77.8178 162.257 77.8298 162.752 77.6711 162.907C77.5199 163.055 77.3296 163.631 77.2477 164.188C77.1223 165.043 77.1704 165.234 77.555 165.414C77.9019 165.576 77.9509 165.717 77.7606 166.004C77.6231 166.212 77.3668 166.411 77.1907 166.446C76.7319 166.539 76.2009 168.966 76.3043 170.498C76.3528 171.216 76.2772 172.075 76.1364 172.408C75.9955 172.741 75.9161 173.191 75.9598 173.408C76.0035 173.625 75.8798 174.412 75.685 175.156C75.46 176.016 75.4309 177.012 75.6051 177.885C75.8149 178.938 75.7834 179.274 75.4708 179.316C75.2192 179.351 75.087 179.664 75.1269 180.132C75.1623 180.549 75.0913 180.911 74.9692 180.936C74.6656 180.997 74.2897 183.177 74.4475 183.961C74.518 184.311 74.4246 184.785 74.24 185.014C73.8738 185.469 73.9575 186.475 74.355 186.395C74.4905 186.368 74.6318 186.182 74.6691 185.981C74.7107 185.756 74.7805 185.79 74.85 186.069C74.9122 186.318 74.6415 186.812 74.2482 187.167C73.8549 187.521 73.6233 187.954 73.7337 188.129C73.8438 188.303 73.829 188.467 73.7004 188.493C73.5716 188.519 73.5692 188.985 73.6946 189.528C73.8228 190.082 73.7904 190.592 73.6211 190.69C73.4553 190.785 73.351 191.02 73.3897 191.212C73.4284 191.405 73.309 191.749 73.1244 191.979C72.9397 192.208 72.8346 192.624 72.8907 192.903C72.9469 193.181 72.7902 193.715 72.5427 194.089C72.2526 194.527 72.1815 194.987 72.343 195.384C72.4807 195.721 72.4708 196.081 72.3213 196.182C72.139 196.304 72.1872 196.426 72.4675 196.549C72.8209 196.704 72.8342 196.771 72.5532 196.975C72.2976 197.16 72.3049 197.237 72.5857 197.305C72.8665 197.374 72.8788 197.503 72.6403 197.864C72.4693 198.122 72.4382 198.529 72.5714 198.768C72.7569 199.101 72.7351 199.129 72.4788 198.889C72.1973 198.625 72.119 198.641 71.9829 198.989C71.8941 199.216 71.8457 199.587 71.8755 199.813C71.9053 200.039 71.9544 200.44 71.9849 200.704C72.0154 200.968 71.8588 201.22 71.6369 201.265C71.3562 201.322 71.2906 201.63 71.4211 202.277C71.5346 202.841 71.4615 203.335 71.2359 203.529C71.031 203.706 70.8736 204.047 70.8866 204.288C70.8995 204.528 70.792 204.945 70.6481 205.214C70.5038 205.483 70.5056 205.919 70.6522 206.185C70.8094 206.469 70.7789 206.84 70.5779 207.09C70.3904 207.323 70.2761 207.711 70.3236 207.953C70.3715 208.195 70.2435 208.805 70.0393 209.31C69.8351 209.814 69.7101 210.44 69.7615 210.7C69.8128 210.96 69.7596 211.192 69.6434 211.215C69.4326 211.257 69.4506 211.911 69.6962 213.147C69.7675 213.506 69.6755 214.054 69.4917 214.364C69.3077 214.675 69.2447 215.022 69.3515 215.137C69.4585 215.251 69.3447 215.563 69.0987 215.829C68.8528 216.095 68.6799 216.453 68.7145 216.625C68.7491 216.797 68.6263 217.125 68.4417 217.355C68.0088 217.892 68.139 218.539 68.6591 218.434C68.8809 218.389 69.038 218.231 69.0081 218.083C68.9782 217.935 69.0635 217.791 69.1974 217.764C69.3313 217.737 69.3618 218.037 69.2652 218.431C69.1348 218.962 68.9864 219.092 68.693 218.933C68.4751 218.816 68.3058 218.828 68.3165 218.96C68.3272 219.093 68.3905 219.671 68.4572 220.245C68.5888 221.377 68.3052 222.156 67.7195 222.274C67.5156 222.315 67.3743 222.475 67.4052 222.628C67.4362 222.782 67.3181 223.267 67.1429 223.706C66.9676 224.145 66.8342 224.692 66.8466 224.921C66.8589 225.151 66.7404 225.459 66.5837 225.606C66.4268 225.753 66.4127 226.054 66.552 226.275C66.71 226.524 66.6309 226.842 66.3423 227.115C66.0874 227.357 65.9193 227.755 65.9687 228C66.0191 228.25 65.7787 228.579 65.4203 228.75C65.0693 228.918 64.8201 229.244 64.8665 229.474C64.9415 229.846 64.8969 229.857 64.466 229.569C64.1993 229.391 63.9549 229.116 63.9228 228.956C63.8908 228.797 63.7404 228.692 63.5887 228.723C63.4319 228.754 63.423 228.392 63.5679 227.882C63.7511 227.238 63.7191 226.86 63.4541 226.538C63.2512 226.291 63.1515 225.99 63.2324 225.868C63.3133 225.745 63.1833 225.572 62.9431 225.483C62.5643 225.342 62.555 225.29 62.8718 225.089C63.1781 224.895 63.0901 224.24 62.3285 221.041C61.8288 218.942 61.2804 217.08 61.1098 216.904C60.9102 216.698 60.9148 216.474 61.1228 216.274C61.3802 216.027 61.3737 215.978 61.0898 216.031C60.8939 216.068 60.5444 215.973 60.3132 215.818C59.9686 215.588 59.9564 215.416 60.2454 214.862C60.5287 214.318 60.5082 213.968 60.1405 213.071C59.8895 212.459 59.6604 211.867 59.6315 211.757C59.6026 211.647 59.3974 211.594 59.1756 211.638C58.9537 211.683 58.747 211.594 58.7162 211.441C58.6853 211.288 58.8275 211.056 59.0322 210.926C59.4739 210.645 59.4181 210.142 58.9073 209.801C58.4796 209.515 57.8561 210.244 58.0479 210.806C58.3137 211.584 58.2075 211.871 57.6272 211.939C56.1994 212.108 55.8242 212.301 56.0948 212.729C56.2947 213.045 56.241 213.126 55.8736 213.063C55.5841 213.014 55.4136 213.113 55.4509 213.31C55.4855 213.491 55.4956 213.928 55.4739 214.28C55.4444 214.75 55.5491 214.896 55.8686 214.832C56.3642 214.732 56.4925 215.075 56.2559 215.865C56.1268 216.296 56.2093 216.417 56.6521 216.442C56.9598 216.46 57.24 216.616 57.2747 216.788C57.313 216.978 57.1134 217.077 56.7672 217.039C56.3179 216.989 56.2524 217.064 56.4593 217.391C56.6037 217.619 56.5901 217.929 56.4294 218.081C56.2687 218.231 56.2053 218.8 56.2886 219.344C56.4082 220.126 56.5397 220.313 56.9154 220.238C57.564 220.107 57.6622 220.829 57.0372 221.136C56.581 221.359 56.5813 221.564 57.0401 223.323C57.3843 224.641 57.4743 225.518 57.3212 226.056C57.1295 226.73 57.1734 226.947 57.6121 227.494C57.8961 227.848 58.0355 228.156 57.922 228.179C57.8085 228.202 57.8424 228.574 57.9971 229.007C58.1519 229.439 58.4334 229.761 58.6227 229.723C59.1374 229.619 59.4701 230.324 59.0365 230.599C58.5054 230.937 58.3867 230.935 58.5137 230.591C58.5784 230.416 58.4556 230.398 58.2185 230.549C57.8933 230.756 57.8932 230.839 58.2182 230.967C58.5502 231.098 58.5604 231.191 58.2747 231.478C57.9853 231.769 57.9962 231.857 58.3382 231.992C58.616 232.102 58.668 232.232 58.4977 232.392C58.3586 232.523 58.3337 233.017 58.4429 233.491C58.5518 233.965 58.6365 234.48 58.6312 234.636C58.6112 235.223 58.7907 235.364 59.0879 234.994C59.3347 234.688 59.4218 234.742 59.5279 235.269C59.6116 235.685 59.4848 236.012 59.1827 236.16C58.5256 236.482 58.6818 236.948 59.4451 236.942L60.0737 236.937L59.4761 237.096C58.6638 237.311 58.8681 238.66 59.688 238.495C59.9838 238.436 60.248 238.497 60.2751 238.631C60.3022 238.766 60.0925 238.863 59.8091 238.846C59.1848 238.81 58.7094 239.599 58.9689 240.241C59.0726 240.498 59.452 240.773 59.8119 240.853C60.1718 240.932 60.4781 241.123 60.4924 241.277C60.558 241.985 60.7637 242.152 61.5703 242.151C62.2569 242.151 62.5118 242.005 62.8029 241.447C63.1325 240.815 63.2629 240.758 64.0816 240.892C64.8902 241.025 65.046 240.962 65.4594 240.338C65.7158 239.951 66.1761 239.619 66.4825 239.601C66.898 239.576 66.9339 239.523 66.6245 239.393C66.3349 239.271 66.2881 239.144 66.47 238.973C66.6134 238.839 66.6857 238.506 66.6308 238.234C66.5163 237.665 66.9745 237.308 68.1165 237.078C68.5568 236.99 68.8357 236.83 68.7358 236.723C68.5331 236.506 69.2791 235.44 69.6922 235.357C69.8385 235.327 69.9248 235.138 69.8841 234.936C69.8347 234.691 70.0397 234.566 70.5003 234.562C71.029 234.557 71.3233 234.311 71.7573 233.51C72.8232 231.542 73.5023 230.63 73.8136 230.746C74.2347 230.903 75.2903 229.824 75.1922 229.337C75.1447 229.101 75.2855 228.976 75.5483 229.021C75.8372 229.07 75.9521 228.926 75.8906 228.592C75.7442 227.795 76.2599 227.013 77.0346 226.857C77.6811 226.727 77.7054 226.67 77.2989 226.238C76.9056 225.821 76.9324 225.66 77.52 224.916C77.8876 224.45 78.5462 223.812 78.983 223.498C79.8743 222.858 79.9232 222.502 79.1542 222.253C78.4002 222.009 78.8161 221.59 80.0207 221.38C80.8199 221.241 81.0101 221.116 80.8376 220.842C80.6971 220.621 80.8168 220.386 81.1547 220.221C81.4532 220.075 81.6657 219.798 81.6271 219.607C81.5818 219.382 81.3538 219.355 80.982 219.53L80.4069 219.8L80.9289 219.101C81.6405 218.148 82.3853 217.77 82.7931 218.155C83.0364 218.385 83.0598 218.319 82.8799 217.908C82.7036 217.505 82.748 217.366 83.0361 217.415C83.2572 217.453 83.409 217.34 83.3735 217.164C83.3381 216.988 83.7041 216.272 84.1869 215.574C84.6697 214.875 85.0127 214.153 84.9494 213.968C84.5309 212.744 84.6511 212.405 85.5694 212.22C86.3396 212.065 86.4475 211.957 86.2468 211.546C86.0842 211.212 86.2033 210.863 86.6206 210.449C86.9575 210.116 87.3135 209.897 87.4117 209.962C87.6367 210.112 88.3104 209.108 88.6006 208.19C88.8195 207.498 88.8449 207.325 88.8051 206.794C88.7938 206.642 89.0264 206.469 89.3222 206.409C89.6282 206.347 89.8238 206.121 89.7759 205.883C89.7297 205.654 90.0124 205.186 90.4044 204.844C91.2738 204.085 91.2314 203.617 90.2896 203.571C89.9011 203.553 89.5454 203.349 89.4991 203.12C89.4398 202.825 89.5832 202.72 89.9856 202.764C90.4108 202.811 90.4971 202.734 90.325 202.462C89.9483 201.866 89.0036 201.958 88.7582 202.614C88.6386 202.934 88.3679 203.231 88.1571 203.274C87.946 203.316 87.8677 203.414 87.9828 203.49C88.2153 203.646 86.6564 205.521 86.2097 205.624C85.9219 205.69 85.3818 207.685 85.4971 208.257C85.5319 208.429 85.7566 208.531 85.9965 208.483C86.3539 208.411 86.3872 208.48 86.1797 208.867C86.0403 209.127 85.73 209.381 85.4897 209.432C85.1161 209.511 85.1174 209.549 85.4989 209.696C85.7443 209.79 85.8702 209.98 85.7788 210.118C85.5722 210.43 84.9466 209.8 85.0862 209.421C85.1805 209.165 84.5727 208.784 84.1808 208.853C84.0866 208.87 83.9954 209.138 83.9779 209.45C83.9603 209.761 83.74 210.147 83.4882 210.307C82.7766 210.759 82.2861 211.837 82.5148 212.446C82.6747 212.872 82.6038 212.99 82.2024 212.967C81.9167 212.951 81.6607 212.827 81.6335 212.692C81.6065 212.558 81.3155 212.714 80.987 213.039C80.6175 213.405 80.5159 213.677 80.7207 213.754C81.327 213.979 80.9094 214.81 80.0597 215.069C79.3028 215.299 79.2364 215.419 79.3456 216.353C79.4571 217.304 79.4186 217.368 78.8431 217.193C78.3061 217.031 78.2578 217.065 78.4935 217.437C78.7025 217.768 78.6472 217.863 78.2591 217.841C77.6331 217.804 77.1169 218.577 77.4334 219.077C77.5853 219.318 77.4444 219.586 77.0299 219.848C76.2308 220.353 75.7199 220.2 76.0634 219.56C76.203 219.299 76.2573 218.699 76.1841 218.226C75.9684 216.831 75.9828 216.678 76.3378 216.607C76.6621 216.541 76.9968 214.678 76.8315 213.858C76.7877 213.64 76.9075 213.328 77.0976 213.165C77.2982 212.992 77.3811 212.317 77.2946 211.559C77.2127 210.839 77.2043 210.163 77.2757 210.055C77.3469 209.947 77.2518 209.672 77.064 209.444C76.7761 209.094 76.8297 209.028 77.4088 209.023C77.8227 209.019 78.0696 208.891 78.0311 208.699C77.9959 208.525 77.8613 208.481 77.7319 208.603C77.109 209.188 77.44 208.018 78.3097 206.56C78.5652 206.131 78.7643 204.086 78.6065 203.512C78.2457 202.2 78.2585 201.336 78.6398 201.259C78.8665 201.213 79.084 200.948 79.1234 200.67C79.163 200.392 79.3105 199.951 79.4514 199.691C79.5921 199.431 79.6733 198.846 79.6314 198.391C79.5896 197.936 79.692 197.114 79.859 196.563C80.026 196.013 80.043 195.346 79.8968 195.081C79.7486 194.813 79.7579 194.574 79.9179 194.542C80.0757 194.51 80.1436 194.181 80.0689 193.81C79.9941 193.439 80.0613 193.109 80.2178 193.078C80.3743 193.046 80.4026 192.913 80.2805 192.782C80.1585 192.651 80.2372 192.142 80.4558 191.651C80.6744 191.159 80.8263 190.624 80.7935 190.461C80.7608 190.298 80.855 190.141 81.0029 190.111C81.1508 190.081 81.2155 189.778 81.1468 189.436C81.078 189.095 81.1063 188.678 81.21 188.511C81.3133 188.343 81.5006 187.117 81.626 185.785C81.8068 183.865 81.7704 183.294 81.4507 183.028C81.1294 182.761 81.1288 182.722 81.4479 182.836C81.9218 183.006 82.6745 181.934 82.408 181.468C82.3111 181.298 82.4011 180.699 82.6083 180.137C82.8157 179.574 82.9175 178.778 82.8346 178.366C82.7517 177.955 82.8361 177.447 83.0218 177.238C83.2078 177.03 83.3555 176.607 83.3503 176.299C83.3451 175.991 83.3721 175.543 83.4104 175.304C83.6452 173.835 83.6467 172.976 83.4149 172.501C83.2487 172.16 83.2943 171.803 83.5384 171.535C83.7525 171.301 83.8582 170.72 83.7752 170.237C83.6924 169.756 83.7403 169.34 83.8815 169.311C84.0227 169.283 84.0397 169.104 83.9191 168.913C83.7988 168.723 83.8931 168.252 84.1289 167.867C84.4359 167.365 84.4709 166.958 84.2514 166.432C84.047 165.943 84.0572 165.627 84.2825 165.484C84.4683 165.366 84.6417 164.34 84.6678 163.204C84.6938 162.069 84.8387 160.827 84.9898 160.445C85.1408 160.062 85.1799 159.659 85.0768 159.548C84.9737 159.438 84.9998 158.936 85.1351 158.432C85.376 157.536 85.0588 155.995 84.446 155.086C84.212 154.738 84.2925 154.625 84.8556 154.512C85.2996 154.422 85.5268 154.222 85.4752 153.966C85.4303 153.743 85.495 153.54 85.619 153.515C85.7429 153.491 85.7723 153.028 85.6843 152.487C85.5964 151.946 85.624 151.318 85.746 151.09C85.9999 150.616 85.9778 149.19 85.6985 148.045C85.5936 147.614 85.63 147.148 85.7792 147.007C85.9286 146.867 85.973 146.09 85.878 145.281C85.6264 143.137 85.5495 142.787 85.1876 142.142C84.9307 141.683 84.9681 141.507 85.3632 141.313C85.8777 141.061 85.8776 141.04 85.385 137.555C85.1854 136.145 85.1906 135.447 85.4032 135.126C85.4855 135.002 85.4393 134.338 85.3007 133.65C85.1622 132.962 85.1397 132.261 85.2508 132.092C85.4166 131.839 85.1831 130.105 84.6818 127.867C84.6321 127.646 84.6117 126.892 84.6364 126.192C84.7033 124.301 84.483 122.757 84.1016 122.442C83.9122 122.285 83.8163 121.934 83.8836 121.643C84.0437 120.948 83.1083 115.828 82.8316 115.883C82.7117 115.908 82.7135 115.555 82.8357 115.101C82.9731 114.589 82.8976 113.613 82.6383 112.542C82.2042 110.751 81.8188 110.064 81.4444 110.416C81.3255 110.527 81.2623 110.416 81.3038 110.168C81.3455 109.92 81.5026 109.692 81.6526 109.662C81.8102 109.63 81.7496 109.464 81.5095 109.269C81.1714 108.995 81.1679 108.917 81.4922 108.852C81.82 108.785 81.7953 108.382 81.3536 106.589C81.0578 105.389 80.7466 104.361 80.6622 104.304C80.5776 104.248 80.5648 103.986 80.6334 103.722C80.702 103.458 80.5951 102.829 80.3955 102.323ZM93.0556 199.549C92.9521 199.377 92.4871 199.327 92.0224 199.439C91.4541 199.575 91.3622 199.649 91.7416 199.666C92.0521 199.679 92.4855 199.785 92.705 199.9C93.1708 200.146 93.3226 199.994 93.0556 199.549ZM77.426 125.116C77.2781 125.146 77.1312 125.042 77.0995 124.885C77.0679 124.728 77.1781 124.65 77.3445 124.712C77.5108 124.774 77.6577 124.878 77.6709 124.943C77.6841 125.009 77.5739 125.087 77.426 125.116ZM91.9701 201.101C91.4435 201.208 90.9145 201.811 90.9955 202.213C91.0211 202.34 91.1742 202.319 91.3357 202.166C91.4971 202.013 91.7997 201.849 92.0081 201.803C92.5892 201.675 92.5517 200.984 91.9701 201.101ZM66.6061 77.7927C66.4988 77.7211 66.4422 77.4901 66.4807 77.2799C66.5231 77.0472 66.5997 77.0983 66.676 77.4102C66.7448 77.6923 66.7135 77.8643 66.6061 77.7927ZM90.9513 200.605C90.7849 200.543 90.687 200.681 90.7336 200.913C90.7801 201.144 90.9393 201.309 91.0872 201.279C91.2351 201.249 91.3331 201.111 91.305 200.971C91.2768 200.831 91.1177 200.667 90.9513 200.605ZM64.4988 73.5191C64.3595 73.5471 64.2213 73.4486 64.1914 73.3001C64.1615 73.1517 64.3258 72.9922 64.5562 72.9458C64.7867 72.8994 64.9252 72.9979 64.8636 73.1647C64.8021 73.3316 64.6381 73.491 64.4988 73.5191ZM61.6238 59.7756C61.5584 59.7887 61.406 59.6931 61.2846 59.563C61.1633 59.433 61.1924 59.3008 61.3489 59.2693C61.5054 59.2377 61.6581 59.3334 61.688 59.4818C61.7179 59.6302 61.6891 59.7624 61.6238 59.7756ZM58.8589 59.6758C58.6589 59.6384 58.7979 59.5466 59.1677 59.4721C59.5374 59.3976 59.7009 59.4285 59.5312 59.5404C59.3613 59.6527 59.0588 59.7137 58.8589 59.6758ZM56.1409 56.9482C55.993 56.978 55.8311 56.7893 55.7809 56.5292C55.7031 56.1248 55.7399 56.1073 56.0322 56.4084C56.4629 56.8516 56.469 56.8821 56.1409 56.9482ZM78.8714 179.905C78.3458 179.554 78.7045 179.221 79.2503 179.553C79.508 179.711 79.6077 179.907 79.4719 179.99C79.3365 180.073 79.0663 180.035 78.8714 179.905ZM53.5219 52.2803C53.3924 52.4018 53.2606 52.3725 53.229 52.2154C53.1973 52.0583 53.2924 51.9052 53.4403 51.8755C53.5882 51.8457 53.72 51.8747 53.7332 51.9403C53.7464 52.0059 53.6513 52.1587 53.5219 52.2803ZM83.4949 211.514C83.2731 211.559 83.0671 211.474 83.0372 211.326C83.0073 211.177 83.1643 211.019 83.3862 210.975C83.608 210.93 83.814 211.015 83.8439 211.163C83.8738 211.312 83.7168 211.47 83.4949 211.514ZM75.5278 222.667C75.3799 222.697 75.2482 222.668 75.235 222.603C75.2218 222.537 75.3169 222.384 75.4463 222.263C75.5757 222.141 75.7075 222.17 75.7392 222.327C75.7708 222.484 75.6757 222.638 75.5278 222.667ZM61.6761 224.053C61.4542 224.098 61.2482 224.013 61.2183 223.864C61.1884 223.716 61.3455 223.558 61.5673 223.513C61.7892 223.469 61.9952 223.554 62.0251 223.702C62.055 223.85 61.8979 224.008 61.6761 224.053ZM19.733 18.5052C19.6677 18.5184 19.5152 18.4227 19.3939 18.2927C19.2726 18.1627 19.3016 18.0304 19.4581 17.9989C19.6146 17.9674 19.7674 18.063 19.7973 18.2114C19.8272 18.3599 19.7984 18.492 19.733 18.5052ZM61.1955 225.835C60.9736 225.88 60.7676 225.795 60.7377 225.646C60.7079 225.498 60.4817 225.417 60.2351 225.467C59.9888 225.516 59.847 225.466 59.9201 225.356C60.1132 225.064 61.4826 225.176 61.5455 225.489C61.5749 225.635 61.4173 225.79 61.1955 225.835ZM58.037 216.372C57.5938 215.897 57.8027 215.497 58.3289 215.814C58.6074 215.981 58.69 216.189 58.5594 216.394C58.4257 216.604 58.2462 216.596 58.037 216.372ZM58.9495 218.675C58.6252 219.078 57.7333 219.065 57.6508 218.655C57.6241 218.523 57.7838 218.378 58.0056 218.333C58.2275 218.289 58.3693 218.055 58.3208 217.814C58.2486 217.456 58.3177 217.422 58.7036 217.631C59.2874 217.947 59.3436 218.185 58.9495 218.675ZM62.2548 236.328C61.9376 236.115 61.9623 236.078 62.375 236.147C62.6606 236.195 62.8402 236.315 62.7741 236.415C62.7083 236.515 62.4746 236.476 62.2548 236.328ZM57.2816 213.696C56.6458 213.817 56.5997 213.784 56.9575 213.465C57.1869 213.261 57.5095 213.144 57.6747 213.206C58.1808 213.394 58.0566 213.549 57.2816 213.696ZM58.4018 222.466C58.0973 222.527 57.8984 222.441 57.9599 222.274C58.0214 222.107 58.246 221.936 58.4592 221.893C58.6725 221.85 58.8712 221.936 58.9011 222.085C58.931 222.233 58.7062 222.405 58.4018 222.466ZM59.2645 228.751C59.0426 228.796 58.8252 228.654 58.7813 228.436C58.7327 228.195 58.8713 228.069 59.1361 228.114C59.3752 228.155 59.5926 228.297 59.6193 228.429C59.646 228.562 59.4864 228.707 59.2645 228.751ZM14.6975 14.4588C14.4343 14.3163 14.2631 14.1332 14.3169 14.0516C14.4659 13.8269 15.0526 14.1045 15.1183 14.4305C15.1544 14.6097 14.9959 14.6203 14.6975 14.4588ZM13.0589 17.322C12.9935 17.3351 12.8411 17.2395 12.7197 17.1094C12.5984 16.9794 12.6275 16.8472 12.784 16.8157C12.9405 16.7841 13.0932 16.8798 13.1231 17.0282C13.153 17.1766 13.1242 17.3088 13.0589 17.322Z" fill="white"/>
</svg>
