<svg width="292" height="76" viewBox="0 0 292 76" fill="none" xmlns="http://www.w3.org/2000/svg">
<path fill-rule="evenodd" clip-rule="evenodd" d="M127.883 0.232512C127.226 0.350051 126.514 0.553469 126.3 0.684816C126.087 0.816163 125.817 0.76935 125.701 0.581086C125.429 0.143262 124.176 0.132821 124.176 0.568624C124.176 0.768676 123.843 0.746787 123.328 0.513056C122.665 0.211631 122.285 0.2315 121.583 0.604661C120.908 0.962666 120.652 0.980517 120.549 0.677408C120.446 0.369584 120.212 0.364869 119.566 0.658211C118.988 0.920569 118.647 0.932018 118.49 0.693573C118.364 0.501604 117.622 0.322097 116.842 0.294817C115.725 0.255749 115.31 0.404273 114.898 0.990621C114.61 1.40049 114.374 1.57764 114.374 1.38466C114.374 0.997356 110.463 0.783158 109.887 1.13847C109.691 1.25904 108.551 1.32202 107.353 1.27891C105.504 1.21223 105.054 1.31326 104.376 1.94777C103.756 2.52839 103.474 2.60922 103.111 2.30948C102.44 1.75378 99.7519 1.92689 99.2851 2.55601C98.9718 2.97868 98.8035 2.99686 98.3884 2.65401C98.0241 2.35225 97.8416 2.33979 97.7513 2.61023C97.6709 2.85002 96.5751 2.99114 94.7607 2.99552C93.1859 2.99922 91.0606 3.24036 90.0381 3.53168C89.0157 3.823 87.6772 4.02238 87.0638 3.97523C86.4503 3.92775 85.7587 4.04596 85.5272 4.23725C85.2957 4.42888 84.8089 4.59088 84.4456 4.59728C83.0645 4.62186 81.0575 5.06407 80.4065 5.48707C80.034 5.72922 79.1055 5.91816 78.3437 5.90671C77.5815 5.8956 76.6689 6.04041 76.3157 6.22868C75.9621 6.41728 74.9508 6.6793 74.0676 6.81132C73.1844 6.94334 72.4621 7.18549 72.4621 7.34984C72.4621 7.51386 72.1917 7.64824 71.8615 7.64824C71.5309 7.64824 70.9347 7.87557 70.5369 8.15342C70.1387 8.43127 69.5736 8.56699 69.2809 8.45484C68.9882 8.34303 68.1449 8.56497 67.407 8.94824C66.5688 9.3837 65.9857 9.51707 65.8536 9.30388C65.7248 9.09642 65.4882 9.08194 65.2496 9.26751C65.0336 9.43523 63.5873 10.0495 62.0352 10.6328C60.4831 11.2158 58.8384 11.9871 58.38 12.3461C57.9221 12.7054 57.3285 12.9156 57.0615 12.8135C56.7293 12.6866 56.5761 12.8647 56.5761 13.3787C56.5761 13.9404 56.4697 14.0421 56.1536 13.7818C55.8596 13.5397 55.3208 13.5767 54.3791 13.9041C53.6355 14.1624 52.9889 14.3762 52.9426 14.3789C52.8963 14.3816 52.8558 14.7252 52.8531 15.1418C52.8493 15.689 52.7679 15.7739 52.5604 15.4476C52.3204 15.0704 52.1531 15.07 51.5514 15.4442C51.1546 15.6911 50.8301 15.9888 50.8301 16.106C50.8301 16.2228 50.1839 16.4189 49.3936 16.5414C47.3034 16.8654 45.0841 17.7724 45.0841 18.3028C45.0841 18.5554 44.8638 18.7622 44.5947 18.7622C44.3253 18.7622 43.6977 19.1384 43.2001 19.5978C42.7023 20.0575 42.1662 20.3542 42.0087 20.2572C41.8512 20.1602 41.456 20.3903 41.1309 20.7685C40.8061 21.147 40.1936 21.4565 39.7701 21.4565C39.3054 21.4565 39.0001 21.6603 39.0001 21.9701C39.0001 22.2524 38.6199 22.6275 38.1551 22.8037C37.6904 22.9798 37.3078 23.3927 37.3051 23.7214C37.301 24.164 37.2277 24.2057 37.0218 23.8824C36.8001 23.5345 36.5277 23.5685 35.6773 24.0508C35.0905 24.3839 34.6095 24.8456 34.6082 25.077C34.6072 25.3087 34.3019 25.498 33.9301 25.498C33.5583 25.498 33.2541 25.6192 33.2541 25.7677C33.2541 25.9159 32.5697 26.3686 31.7331 26.7737C30.8966 27.1785 30.2121 27.6635 30.2121 27.8511C30.2121 28.0387 29.984 28.1923 29.7051 28.1923C29.4236 28.1923 29.1981 28.4917 29.1981 28.8659C29.1981 29.24 28.9727 29.5394 28.6911 29.5394C28.4123 29.5394 28.1841 29.691 28.1841 29.8762C28.1841 30.0615 27.9942 30.2133 27.7616 30.2137C27.1306 30.215 24.8714 32.229 25.4801 32.2479C25.759 32.2563 25.4548 32.4543 24.8041 32.6877C24.1535 32.9208 23.1807 33.5206 22.6423 34.0201C22.1039 34.5195 21.5337 34.928 21.3748 34.928C21.2159 34.928 21.0861 35.1513 21.0861 35.4245C21.0861 35.6976 20.6623 36.1395 20.1438 36.4065C19.6256 36.6736 18.6072 37.587 17.8809 38.436C17.1545 39.2851 16.3957 39.9798 16.1946 39.9798C15.7342 39.9798 13.9888 41.9369 13.9861 42.4562C13.9848 42.6688 13.5339 43.0975 12.9843 43.4094C12.4344 43.7209 11.8865 44.3652 11.7665 44.8407C11.6468 45.3162 11.3835 45.7052 11.1814 45.7052C10.5879 45.7052 8.91814 47.4643 8.91814 48.0897C8.91814 48.4056 8.68999 48.7515 8.41114 48.8582C8.13229 48.9647 7.90414 49.3041 7.90414 49.6123C7.90414 49.9208 7.63813 50.4196 7.31264 50.721C6.50482 51.4697 5.87614 52.6404 5.87614 53.3951C5.87614 53.74 5.5814 54.3603 5.22109 54.7743C4.86112 55.1882 4.64345 55.7267 4.73742 55.9709C4.84152 56.241 4.68199 56.3955 4.33013 56.3646C3.44254 56.2871 3.39725 56.9954 4.26118 57.4477C4.68469 57.6693 4.78744 57.7831 4.48933 57.7013C4.02255 57.5726 2.83414 58.5187 2.83414 59.0188C2.83414 59.1131 2.43462 59.821 1.94621 60.5916C1.21005 61.7535 1.12656 62.1027 1.45848 62.6322C1.74578 63.0902 1.75626 63.3943 1.49566 63.7072C1.10628 64.1743 1.35708 65.2389 1.85631 65.2389C2.02226 65.2389 2.15814 65.3763 2.15814 65.544C2.15814 65.7121 1.85394 65.77 1.48214 65.6734C1.02888 65.5552 0.80614 65.6629 0.80614 66.0004C0.80614 66.2772 0.580017 66.6905 0.303871 66.9188C-0.135529 67.2822 -0.114573 67.4398 0.472871 68.1841C1.20532 69.1116 1.36857 70.2907 0.764903 70.2907C0.491461 70.2907 0.487405 70.4133 0.750707 70.7292C0.951479 70.9704 1.02989 71.4954 0.924777 71.8959C0.670601 72.8645 1.58827 73.7775 2.51946 73.4828C2.94162 73.3494 3.14814 73.0719 3.03829 72.7863C2.93655 72.5219 3.0579 72.3115 3.31241 72.3115C3.80657 72.3115 4.16383 73.2305 3.93399 73.9112C3.85591 74.1429 3.57639 74.3322 3.31309 74.3322C2.70367 74.3322 2.68846 74.8781 3.29145 75.1085C3.54292 75.2048 3.99922 74.9919 4.30545 74.6356C4.91284 73.9287 5.05007 72.985 4.54509 72.985C4.16214 72.985 4.20845 71.549 4.60019 71.2765C4.75296 71.1701 4.94765 70.7232 5.03249 70.283C5.11767 69.8428 5.41849 69.3538 5.70072 69.1965C5.98295 69.0389 6.21414 68.4916 6.21414 67.9804C6.21414 67.39 6.60622 66.6511 7.28797 65.9563C8.05421 65.1753 8.36923 64.5296 8.38647 63.7042C8.40506 62.8359 8.55885 62.5463 9.00264 62.5456C9.54175 62.5446 9.73002 62.2149 9.50964 61.6572C9.463 61.5393 9.74861 61.3238 10.1437 61.1783C10.694 60.9752 10.8234 60.7098 10.696 60.045C10.5723 59.4014 10.6707 59.1767 11.0756 59.1767C11.3764 59.1767 11.6221 59.0252 11.6221 58.84C11.6221 58.6547 11.8503 58.5032 12.1291 58.5032C12.408 58.5032 12.6361 58.3408 12.6361 58.1425C12.6361 57.9438 12.8741 57.5443 13.1648 57.2547C13.5386 56.8822 13.5883 56.6229 13.3338 56.3693C12.7906 55.8281 12.9018 55.4303 13.5656 55.5415C13.9101 55.599 14.1571 55.4296 14.1571 55.1353C14.1571 54.8574 14.4613 54.5409 14.8331 54.4317C15.2049 54.323 15.4713 54.0576 15.4246 53.8424C15.3783 53.6275 15.5419 53.4513 15.7883 53.4513C16.0347 53.4513 16.5806 53.0863 17.0014 52.64C17.7149 51.8829 17.7247 51.8176 17.1447 51.6687C16.7131 51.5576 16.7986 51.497 17.4242 51.4697C18.0553 51.4424 18.663 51.0032 19.4522 50.0053C21.1439 47.8654 21.728 47.3555 22.3658 47.4612C22.7471 47.5246 22.982 47.2986 23.0533 46.7998C23.1182 46.3428 23.3964 46.042 23.7543 46.042C24.0954 46.042 24.6304 45.5059 25.0147 44.7791C25.3818 44.0846 25.8269 43.4956 26.0037 43.4706C27.1448 43.31 27.9465 42.8021 28.2646 42.0386C28.4664 41.5547 28.6066 41.0448 28.5766 40.906C28.5468 40.7673 28.7121 40.6302 28.9446 40.6022C29.1768 40.5739 29.5192 40.5157 29.7051 40.4726C29.891 40.4295 30.3271 40.3769 30.6742 40.3554C31.1318 40.3274 31.2566 40.1317 31.1281 39.6431C30.9875 39.1072 31.118 38.9695 31.7649 38.9695C32.2121 38.9695 32.5781 38.7974 32.5781 38.5872C32.5781 38.0922 34.039 36.7474 35.2595 36.1186C35.7844 35.8478 36.3039 35.3935 36.4134 35.1089C36.5233 34.8243 36.913 34.5912 37.2797 34.5912C37.6461 34.5912 38.0186 34.4747 38.1068 34.3326C38.195 34.1901 37.6336 34.1147 36.8592 34.1649C35.6015 34.246 35.5329 34.214 36.2174 33.8645C36.7453 33.5947 36.9221 33.2805 36.7859 32.8534C36.5446 32.0953 36.8934 32.0583 37.6704 32.7591C38.2031 33.2394 38.3282 33.2094 39.1337 32.4068C39.618 31.9242 40.0141 31.6881 40.0141 31.8818C40.0141 32.3418 40.9365 32.3391 41.0907 31.8788C41.1559 31.6834 41.5108 31.4787 41.8792 31.4241C42.298 31.3618 42.5491 31.0644 42.5491 30.6306C42.5491 29.6664 42.9459 29.366 43.555 29.8695C43.8978 30.1527 44.0701 30.1709 44.0701 29.9237C44.0701 29.7196 44.4504 29.4573 44.9151 29.3411C45.3799 29.2249 45.7601 28.9187 45.7601 28.6611C45.7601 28.3624 46.1367 28.1923 46.7978 28.1923C47.8047 28.1923 50.2184 26.8064 51.1414 25.6984C51.3841 25.407 51.7079 25.2457 51.8607 25.3397C52.0135 25.434 52.6807 25.2073 53.3432 24.8365C54.006 24.4657 54.5481 24.2394 54.5481 24.3337C54.5481 24.6826 56.7607 23.355 57.1906 22.7478C57.436 22.4019 57.7848 22.2103 57.966 22.3217C58.1475 22.4335 58.4791 22.3773 58.7035 22.1971C58.9276 22.0169 59.7956 21.763 60.6321 21.633C61.4687 21.5027 62.7203 21.0308 63.4135 20.5846C64.1064 20.138 64.9859 19.7726 65.3679 19.7726C65.7495 19.7726 66.6273 19.522 67.3185 19.2155C68.0097 18.9091 68.71 18.6885 68.8749 18.7255C69.0399 18.7626 69.5144 18.4749 69.9295 18.0866C70.4757 17.5754 70.9246 17.4403 71.5546 17.598C72.1123 17.7374 72.7021 17.6225 73.1949 17.2787C73.6181 16.9833 74.6199 16.7415 75.421 16.7415C76.3684 16.7415 76.9417 16.5741 77.062 16.2623C77.1634 15.9989 77.4706 15.6975 77.7447 15.5927C78.0219 15.4866 78.1527 15.5483 78.0391 15.7311C77.9235 15.9177 78.0621 15.9733 78.3596 15.8598C78.6482 15.7493 78.8963 15.4102 78.9108 15.1057C78.9254 14.8013 79.0028 14.708 79.0826 14.8979C79.2549 15.3078 81.9261 15.1182 81.9261 14.6959C81.9261 14.5359 82.1658 14.4968 82.4592 14.609C82.9077 14.7804 84.1498 14.485 87.3341 13.4494C88.0311 13.2227 89.156 13.0833 91.6889 12.9095C92.876 12.8284 93.9407 12.6152 94.0549 12.436C94.2527 12.1265 95.1034 12.0362 98.9951 11.912C99.9246 11.8823 100.787 11.717 100.912 11.5445C101.037 11.3721 101.797 11.1909 102.602 11.1421C103.407 11.0929 104.156 11.0447 104.266 11.0346C104.376 11.0245 104.895 10.65 105.417 10.2024C106.213 9.52111 106.441 9.46251 106.822 9.84173C107.072 10.0906 107.276 10.448 107.276 10.6355C107.276 11.1168 112.011 10.6941 112.821 10.1408C113.289 9.82052 113.644 9.79661 114.124 10.0526C114.503 10.2546 115.308 10.3015 116.015 10.1627C116.693 10.03 120.974 9.87373 125.528 9.8158C130.083 9.75754 134.153 9.69927 134.573 9.68614C134.993 9.67267 135.678 9.32241 136.094 8.90782L136.851 8.15342L136.964 8.95059C137.065 9.66223 137.206 9.72689 138.274 9.55446C138.932 9.44803 139.755 9.10383 140.104 8.78927C140.704 8.24806 140.738 8.25378 140.738 8.89907C140.738 9.45342 140.975 9.59049 142.006 9.63225C144.982 9.75282 146.614 9.64438 147.032 9.29816C147.364 9.02368 147.613 9.06207 148 9.44702C148.645 10.0903 154.947 10.1782 155.352 9.5494C155.51 9.30254 155.602 9.37562 155.605 9.75316C155.61 10.385 156.583 10.5082 157.807 10.0324C158.245 9.86228 158.602 9.92896 158.821 10.2213C159.007 10.4695 160.072 10.7588 161.187 10.8642C162.303 10.9696 163.67 11.1101 164.226 11.1764C164.783 11.2428 165.331 11.1468 165.445 10.9632C165.574 10.7558 165.83 10.7982 166.124 11.0754C166.676 11.5974 169.13 11.8379 169.13 11.3697C169.13 11.1943 169.69 11.2835 170.374 11.5681C171.057 11.8527 172.18 12.0322 172.867 11.9669C173.772 11.881 174.072 11.9662 173.954 12.274C173.808 12.6526 174.492 12.8782 175.332 12.729C175.49 12.7011 176.554 12.9297 177.698 13.2372C178.842 13.5447 180.538 13.836 181.467 13.8845C182.397 13.933 183.461 14.0725 183.833 14.1951C184.369 14.3712 184.645 14.1661 185.162 13.2056C185.69 12.2275 185.873 12.0952 186.11 12.5182C186.272 12.8065 186.311 13.1924 186.197 13.3763C186.084 13.5602 186.17 13.7104 186.389 13.7104C186.691 13.7104 186.694 13.8249 186.402 14.1745C186.097 14.5413 186.176 14.6814 186.784 14.8434C187.976 15.1616 188.119 15.1054 187.896 14.4062C187.721 13.8556 187.849 13.7592 188.718 13.7838C189.565 13.8077 189.748 13.9532 189.748 14.6036C189.748 15.7695 190.919 16.7998 191.95 16.5418C192.419 16.4246 193.367 16.5617 194.096 16.8523C195.068 17.2396 195.499 17.2753 195.784 16.9917C196.068 16.7082 196.344 16.8001 196.859 17.3511C197.385 17.9142 197.83 18.057 198.717 17.9472C199.392 17.864 199.991 17.9698 200.139 18.1984C200.28 18.416 200.927 18.7848 201.578 19.0185C202.576 19.3765 202.819 19.3651 203.128 18.9458C203.407 18.5676 203.589 18.5426 203.888 18.8414C204.105 19.0573 204.282 19.4139 204.282 19.6345C204.282 20.2091 207.075 21.4367 208.944 21.6835C209.819 21.799 210.835 22.0984 211.202 22.3487C211.568 22.5989 212.091 22.8037 212.363 22.8037C212.634 22.8037 213.551 23.1432 214.4 23.5581C215.38 24.0373 216.572 24.3138 217.665 24.3159C218.983 24.3186 219.379 24.4378 219.355 24.8244C219.335 25.1356 219.68 25.3707 220.253 25.436C220.764 25.4946 221.182 25.6677 221.182 25.8206C221.182 26.2009 223.715 27.1819 224.697 27.1819C225.135 27.1819 225.683 27.4092 225.914 27.6871C226.373 28.2381 227.604 28.3812 227.604 27.8834C227.604 27.7137 227.414 27.4985 227.182 27.4049C226.922 27.3005 226.98 27.2247 227.331 27.2085C227.646 27.194 228.175 27.6396 228.507 28.199C228.839 28.7584 229.303 29.142 229.54 29.0514C229.776 28.9612 229.97 29.0188 229.97 29.1797C229.97 29.3411 230.53 29.4569 231.215 29.4377C231.913 29.4178 232.519 29.5805 232.595 29.8078C232.669 30.0305 232.927 30.213 233.168 30.213C233.409 30.213 233.795 30.4403 234.026 30.7182C234.258 30.996 234.733 31.2234 235.081 31.2234C235.431 31.2234 236.035 31.5413 236.425 31.93C236.882 32.3853 237.419 32.5823 237.934 32.484C238.374 32.4001 238.804 32.4991 238.89 32.7036C238.993 32.9528 239.151 32.9241 239.368 32.6167C239.64 32.229 239.723 32.229 239.9 32.6167C240.061 32.9693 240.155 32.979 240.306 32.6577C240.457 32.3365 240.616 32.353 240.992 32.7275C241.261 32.9959 241.743 33.1319 242.063 33.0296C242.509 32.8871 242.538 32.9201 242.186 33.1703C241.8 33.4452 241.8 33.5432 242.186 33.7914C242.439 33.9534 242.873 34.1016 243.152 34.1204C243.431 34.1393 243.925 34.1773 244.251 34.2046C244.576 34.2319 244.842 34.4818 244.842 34.7596C244.842 35.1112 245.197 35.2648 246.008 35.2648C246.714 35.2648 247.291 35.4726 247.47 35.7912C247.633 36.0805 248.005 36.3526 248.298 36.3954C248.591 36.4382 249.066 36.6686 249.355 36.907C249.643 37.1458 250.17 37.2495 250.524 37.1374C250.905 37.0171 251.344 37.1438 251.596 37.4462C251.831 37.7284 252.27 37.9601 252.573 37.9615C252.876 37.9625 253.579 38.2646 254.137 38.6327C254.695 39.0008 255.417 39.3029 255.743 39.3039C256.068 39.3053 256.334 39.4255 256.334 39.571C256.334 39.835 257.125 39.9718 258.672 39.9758C259.122 39.9772 259.759 40.2206 260.088 40.517C260.417 40.8137 260.819 40.9737 260.983 40.873C261.147 40.772 261.494 40.9845 261.755 41.3452C262.016 41.7055 262.405 42.0006 262.62 42.0006C262.836 42.0006 263.201 42.2279 263.432 42.5058C263.975 43.1571 264.784 43.1571 264.784 42.5058C264.784 42.2279 264.632 42.0006 264.446 42.0006C264.26 42.0006 264.108 41.8632 264.108 41.6954C264.108 41.5277 264.477 41.5638 264.928 41.7756C265.535 42.0612 265.655 42.2714 265.393 42.5859C265.199 42.8196 265.172 43.0264 265.334 43.0456C265.496 43.0648 266.207 43.1288 266.915 43.1877C268.308 43.3036 269.178 43.834 269.178 44.5676C269.178 44.8228 269.336 45.0317 269.528 45.0317C269.721 45.0317 270.276 45.2913 270.762 45.6086C271.248 45.9262 271.874 46.2192 272.153 46.2599C272.431 46.3007 272.773 46.5179 272.913 46.7422C273.052 46.9668 273.411 47.0568 273.71 46.9426C274.049 46.8129 274.411 46.985 274.671 47.3986C274.899 47.764 275.338 48.0627 275.645 48.0627C275.958 48.0627 276.296 48.4319 276.415 48.9047C276.532 49.3678 276.863 49.7467 277.152 49.7467C277.618 49.7467 277.62 49.8029 277.169 50.2519C276.891 50.5297 276.5 50.757 276.3 50.757C276.101 50.757 275.938 50.9126 275.938 51.1026C275.938 51.2989 275.5 51.2218 274.921 50.9238C274.19 50.5472 273.727 50.494 273.275 50.7348C272.93 50.9194 272.543 50.9662 272.415 50.8392C272.288 50.7123 272.048 50.8268 271.882 51.0942C271.62 51.5158 271.555 51.5145 271.39 51.0844C271.231 50.6688 270.422 50.6159 266.387 50.757C263.739 50.8497 261.366 51.0585 261.113 51.2211C260.817 51.4114 260.547 51.3515 260.358 51.0527C260.122 50.683 260.062 50.6789 260.057 51.0336C260.055 51.2784 259.854 51.6758 259.613 51.9166C259.252 52.2756 259.043 52.2487 258.445 51.7664C257.859 51.2935 257.433 51.2333 256.265 51.4586C255.466 51.6121 254.699 51.7445 254.56 51.7526C254.42 51.7607 254.306 51.9947 254.306 52.2726C254.306 52.5504 254.149 52.7778 253.958 52.7778C253.766 52.7778 253.521 52.5504 253.414 52.2726C253.183 51.6728 252.563 51.6179 252.029 52.15C251.582 52.5956 252.309 53.5227 253.031 53.4281C254.032 53.2968 254.351 53.4941 254.293 54.2091C254.15 55.9685 254.292 56.4669 254.872 56.245C255.301 56.081 255.385 56.1652 255.22 56.5922C255.091 56.9287 255.169 57.158 255.415 57.1607C255.642 57.1631 256.17 57.2567 256.588 57.3682C257.147 57.5177 257.348 57.4271 257.348 57.027C257.348 56.4063 257.792 56.3349 258.685 56.8111C259.173 57.0711 259.338 57.0011 259.476 56.4744C259.572 56.1083 259.827 55.8089 260.043 55.8089C260.281 55.8089 260.352 56.0729 260.222 56.4804C260.053 57.0092 260.128 57.1062 260.571 56.9364C260.881 56.8179 261.251 56.9095 261.394 57.1395C261.537 57.3695 262.206 57.5837 262.881 57.6154C263.851 57.6609 264.108 57.548 264.108 57.0775C264.108 56.2652 265.001 56.3221 265.218 57.1486C265.376 57.7518 265.624 57.8013 267.851 57.6753C269.522 57.5807 270.598 57.6848 271.21 57.9997C271.974 58.3937 272.245 58.3934 273.01 57.998C273.505 57.742 273.91 57.6491 273.91 57.7912C273.91 57.9333 274.366 57.9828 274.924 57.9013C275.482 57.8198 275.938 57.5591 275.938 57.322C275.938 56.6774 276.866 56.4478 277.093 57.0365C277.371 57.7575 277.34 57.9 276.956 57.6636C276.761 57.5433 276.71 57.6868 276.834 58.0088C277.004 58.4503 277.104 58.4705 277.337 58.1105C277.575 57.7427 277.689 57.7528 277.966 58.1664C278.246 58.5853 278.354 58.5934 278.6 58.2145C278.799 57.9067 278.969 57.8757 279.12 58.1196C279.244 58.3186 279.833 58.4685 280.43 58.452C281.027 58.4358 281.667 58.4587 281.853 58.5028C282.555 58.6692 282.768 58.4873 282.395 58.0401C282.086 57.6686 282.173 57.577 282.832 57.577C283.353 57.577 283.716 57.809 283.821 58.2085C284.049 59.0774 284.648 59.0023 284.826 58.0822L284.972 57.3244L285.018 58.0822C285.081 59.1121 286.754 59.1932 286.754 58.1664C286.754 57.7959 286.892 57.4928 287.06 57.4928C287.229 57.4928 287.295 57.7686 287.206 58.1058C287.011 58.8484 287.846 59.6119 288.681 59.4553C289.016 59.3926 289.439 59.0026 289.621 58.5887C289.804 58.1748 290.108 57.8525 290.297 57.8727C291.165 57.9653 291.416 57.7582 291.611 56.7872C291.777 55.9608 291.663 55.6186 291.062 55.1329C290.381 54.583 290.344 54.4122 290.704 53.4594C291.06 52.5184 291.022 52.3157 290.371 51.6667C289.967 51.2643 289.679 50.6297 289.732 50.2566C289.802 49.7504 289.747 49.6945 289.516 50.0353C289.299 50.3542 289.135 50.3798 288.973 50.1195C288.846 49.9144 288.463 49.7467 288.122 49.7467C287.41 49.7467 287.092 49.1088 287.092 47.6785C287.092 47.1271 286.967 46.7526 286.814 46.8469C286.504 47.0382 285.402 45.882 285.402 45.3647C285.402 45.1815 285.195 45.0317 284.942 45.0317C284.635 45.0317 284.535 44.7548 284.642 44.1995C284.764 43.5619 284.539 43.148 283.679 42.4313C281.57 40.6716 280.636 39.633 280.851 39.2864C281.142 38.8176 280.1 37.2855 279.49 37.2855C279.194 37.2855 279.078 37.0858 279.196 36.7804C279.325 36.4446 279.18 36.2715 278.763 36.2644C277.768 36.2476 276.952 35.4373 276.952 34.467C276.952 33.6573 276.889 33.6142 276.271 33.9988C275.673 34.371 275.487 34.2999 274.733 33.4121C274.262 32.8568 273.653 31.9094 273.382 31.3076C272.827 30.0796 272.41 29.9345 271.924 30.7997C271.448 31.6481 271.044 31.0459 271.084 29.5452C271.11 28.5496 271.005 28.2903 270.635 28.4317C270.334 28.5469 270.081 28.3462 269.964 27.8993C269.86 27.5046 269.579 27.1819 269.339 27.1819C269.057 27.1819 268.969 27.4497 269.09 27.9397L269.276 28.6975L268.561 27.8996C267.586 26.8121 267.312 25.824 267.874 25.4266C268.21 25.1895 268.136 25.1454 267.598 25.2622C267.071 25.3767 266.914 25.2895 267.043 24.9547C267.142 24.6978 267.042 24.4876 266.822 24.4876C266.602 24.4876 265.829 23.8737 265.106 23.1233C264.382 22.3729 263.596 21.7849 263.358 21.8162C261.784 22.0233 261.404 21.7963 261.404 20.6462C261.404 19.6817 261.301 19.5257 260.757 19.6675C260.316 19.7824 259.924 19.5544 259.528 18.9518C259.208 18.4655 259.031 17.9839 259.133 17.8815C259.368 17.6471 258.324 16.593 257.289 16.0211C256.509 15.5897 256.307 15.5173 255.658 15.4364C255.472 15.4132 255.32 15.0912 255.32 14.7208C255.32 14.3375 255.095 14.0472 254.797 14.0472C254.51 14.0472 254.015 13.5935 253.699 13.0389C252.996 11.8086 252.422 11.7459 252.139 12.8684C252.023 13.3315 251.692 13.7104 251.404 13.7104C251.035 13.7104 250.944 13.5124 251.094 13.0389C251.254 12.5384 251.182 12.4158 250.813 12.5569C250.005 12.8661 249.886 14.0253 250.616 14.4796C250.972 14.7012 251.264 15.099 251.264 15.363C251.264 15.6274 251.362 15.7453 251.483 15.6254C251.726 15.3832 253.606 17.7141 253.621 18.2766C253.63 18.639 255.9 19.7726 256.617 19.7726C256.833 19.7726 257.01 19.5267 257.01 19.2263C257.01 18.7787 257.102 18.7555 257.517 19.099C257.796 19.3297 258.026 19.7648 258.029 20.0663C258.034 20.5351 258.08 20.5428 258.349 20.1191C258.522 19.8467 258.781 19.7413 258.926 19.8847C259.251 20.2091 258.34 20.8092 257.918 20.5492C257.633 20.3738 257.027 21.013 257.015 21.5013C257.013 21.6189 257.314 21.7937 257.684 21.8903C258.055 21.987 258.466 22.3456 258.597 22.6875C258.969 23.6534 260.147 24.5051 260.935 24.3775C261.487 24.2882 261.613 24.4024 261.488 24.88C261.398 25.2198 261.187 25.498 261.019 25.498C260.85 25.498 260.968 25.886 261.279 26.3602C261.63 26.8936 261.933 27.0819 262.075 26.8539C262.493 26.179 263.392 26.8829 263.497 27.9683C263.591 28.9352 263.719 29.044 264.87 29.139C266.041 29.2353 266.109 29.2973 265.76 29.9476C265.434 30.5545 265.463 30.6209 265.969 30.4275C266.417 30.2561 266.518 30.3457 266.397 30.8074C266.201 31.5521 267.007 32.3607 267.685 32.101C268.011 31.9764 268.301 32.2112 268.515 32.7736C268.929 33.8577 268.621 34.4356 267.934 33.8668C267.654 33.6358 266.945 33.4249 266.358 33.3983C264.627 33.3199 264.446 33.2653 264.446 32.8208C264.446 32.4146 262.285 31.5602 261.257 31.5602C260.985 31.5602 260.638 31.3402 260.487 31.0718C260.328 30.7886 259.536 30.5252 258.602 30.4454C257.717 30.3696 256.9 30.2157 256.788 30.1035C256.675 29.9917 256.321 30.0396 256.002 30.2103C255.51 30.472 255.444 30.3915 255.578 29.6933C255.674 29.1942 255.579 28.8659 255.34 28.8659C255.121 28.8659 255.036 29.0174 255.151 29.2026C255.704 30.0941 254.376 29.4121 252.832 28.0118C252.379 27.6005 249.965 26.865 249.236 26.9159C247.569 27.032 246.532 26.8071 246.532 26.3295C246.532 26.0456 246.266 25.7196 245.941 25.6047C245.615 25.4896 245.121 25.2053 244.842 24.9726C244.563 24.7402 243.879 24.5007 243.321 24.4408C242.763 24.3809 241.798 24.0582 241.176 23.7238C240.554 23.3894 239.756 23.2071 239.402 23.319C239.043 23.4325 238.758 23.3634 238.758 23.163C238.758 22.9653 238.378 22.8037 237.913 22.8037C237.448 22.8037 237.068 22.643 237.068 22.447C237.068 22.251 236.915 22.1847 236.728 22.2998C236.541 22.415 235.947 22.1968 235.408 21.8145C234.869 21.4323 234.262 21.1197 234.059 21.1197C233.855 21.1197 233.688 20.9682 233.688 20.783C233.688 20.5977 233.338 20.4462 232.911 20.4462C232.483 20.4462 231.989 20.3111 231.812 20.1458C231.635 19.9807 230.205 19.458 228.632 18.9842C226.365 18.3012 225.669 18.2065 225.272 18.5268C224.872 18.8488 224.825 18.84 225.04 18.4837C225.36 17.9546 224.252 16.7887 223.626 16.9965C223.398 17.0719 222.699 16.8183 222.072 16.4327C221.446 16.0467 220.512 15.7311 219.996 15.7311C219.481 15.7311 218.891 15.5065 218.684 15.2324C218.478 14.9579 218.005 14.6777 217.633 14.6093C217.261 14.5409 216.729 14.3998 216.45 14.2957C214.74 13.6572 213.706 13.447 213.078 13.6107C212.627 13.7283 212.209 13.5868 211.946 13.2281C211.715 12.9136 211.041 12.6455 210.44 12.6283C209.842 12.6115 209.352 12.4528 209.352 12.276C209.352 12.0992 209.141 12.0352 208.882 12.1342C208.624 12.2329 208.08 12.0053 207.674 11.6281C207.144 11.137 206.663 10.9962 205.977 11.133C205.338 11.2603 204.96 11.1714 204.843 10.8656C204.746 10.6133 203.553 10.156 202.193 9.84914C200.832 9.54267 199.373 9.06712 198.949 8.79264C198.526 8.51816 198.05 8.37334 197.892 8.47067C197.734 8.568 197.135 8.41477 196.562 8.12984C195.542 7.62264 193.611 7.63106 192.368 8.14803C191.892 8.34539 191.776 8.22111 191.776 7.51588C191.776 6.95984 191.59 6.63787 191.269 6.63787C190.99 6.63787 190.762 6.51091 190.762 6.35565C190.762 6.20039 190.212 6.05288 189.54 6.02762C188.868 6.00236 188.118 5.81679 187.874 5.61471C187.365 5.1944 185.643 4.87513 184.197 4.93373C183.654 4.95562 183.101 4.79868 182.968 4.58515C182.836 4.37129 181.911 4.12948 180.914 4.04764C178.273 3.83075 177.833 3.8385 176.969 4.11769C176.355 4.31572 176.151 4.22782 176.014 3.70546C175.835 3.02515 175.81 3.0201 171.496 2.76819C169.75 2.66648 168.911 2.49101 168.576 2.15725C168.447 2.02826 167.637 1.92285 166.775 1.92285C165.914 1.92285 165.065 1.78005 164.888 1.60526C164.625 1.34458 162.481 1.20515 159.666 1.26611C159.387 1.27218 158.475 1.11388 157.638 0.914505C155.379 0.375645 153.467 0.266527 152.995 0.649118C152.76 0.839066 152.315 0.869375 151.981 0.717821C151.184 0.356785 144.794 0.241269 144.794 0.587823C144.794 0.73803 144.371 0.650464 143.853 0.393159C143.271 0.103858 142.078 -0.0419713 140.726 0.0105675C138.465 0.0988059 137.545 0.396189 137.877 0.932018C137.983 1.1021 137.833 1.15127 137.545 1.04114C137.256 0.930673 137.02 0.686502 137.02 0.498574C137.02 0.301217 136.806 0.333884 136.513 0.575698C136.101 0.91619 136.006 0.901372 136.006 0.495206C136.006 0.0846618 135.514 0.0166296 133.249 0.113624C131.733 0.178624 130.42 0.303911 130.332 0.391812C130.244 0.480051 129.925 0.431889 129.624 0.285387C129.323 0.138884 128.54 0.114973 127.883 0.232512ZM247.969 8.5643C247.736 8.64715 247.564 9.19477 247.585 9.78111C247.612 10.4981 247.679 10.6268 247.791 10.1741C247.882 9.80368 248.114 9.30759 248.307 9.0715C248.715 8.57036 248.569 8.35078 247.969 8.5643ZM154.596 9.33218C154.596 9.51741 154.435 9.66896 154.238 9.66896C154.041 9.66896 153.974 9.51741 154.089 9.33218C154.204 9.14694 154.365 8.99539 154.447 8.99539C154.529 8.99539 154.596 9.14694 154.596 9.33218ZM249.574 10.2472C249.574 10.9067 250.172 11.6897 250.676 11.6897C250.835 11.6897 250.847 11.5004 250.701 11.2687C250.556 11.0373 250.433 10.6335 250.428 10.3715C250.414 9.64101 249.574 9.51876 249.574 10.2472ZM95.0165 10.8827C94.9043 10.9946 94.6126 11.0067 94.3689 10.9094C94.0992 10.8019 94.1793 10.7221 94.5731 10.7059C94.9293 10.6915 95.1288 10.7709 95.0165 10.8827ZM248.729 11.3529C248.614 11.5381 248.758 11.6897 249.047 11.6897C249.337 11.6897 249.574 11.5381 249.574 11.3529C249.574 11.1677 249.431 11.0161 249.256 11.0161C249.081 11.0161 248.844 11.1677 248.729 11.3529ZM89.3621 12.3831C89.3621 12.5576 89.21 12.7001 89.0241 12.7001C88.8382 12.7001 88.6861 12.4636 88.6861 12.175C88.6861 11.8864 88.8382 11.7436 89.0241 11.8581C89.21 11.9726 89.3621 12.2087 89.3621 12.3831ZM72.1241 12.5118C72.1241 12.5936 71.972 12.7539 71.7861 12.8684C71.6002 12.983 71.4481 12.9159 71.4481 12.7199C71.4481 12.5239 71.6002 12.3633 71.7861 12.3633C71.972 12.3633 72.1241 12.4299 72.1241 12.5118ZM71.3339 15.8153C71.2403 16.047 71.1635 15.8574 71.1635 15.3944C71.1635 14.9313 71.2403 14.742 71.3339 14.9734C71.4279 15.2051 71.4279 15.584 71.3339 15.8153ZM67.3921 18.4254C67.3921 18.6107 67.1258 18.7599 66.8006 18.7572C66.295 18.7528 66.2828 18.7043 66.7161 18.4254C67.3539 18.0146 67.3921 18.0146 67.3921 18.4254ZM220.888 20.8742C220.338 21.4218 220.024 20.9092 220.556 20.333C220.808 20.0609 221.068 19.9885 221.135 20.172C221.203 20.3552 221.092 20.6711 220.888 20.8742ZM61.1391 20.4462C61.2541 20.6314 61.1868 20.783 60.9901 20.783C60.7934 20.783 60.6321 20.6314 60.6321 20.4462C60.6321 20.2609 60.6991 20.1094 60.7812 20.1094C60.8633 20.1094 61.0242 20.2609 61.1391 20.4462ZM260.052 22.9721C260.052 23.2499 259.9 23.4773 259.714 23.4773C259.528 23.4773 259.376 23.2499 259.376 22.9721C259.376 22.6942 259.528 22.4669 259.714 22.4669C259.9 22.4669 260.052 22.6942 260.052 22.9721ZM271.544 35.2648C271.544 35.4501 271.477 35.6016 271.395 35.6016C271.313 35.6016 271.152 35.4501 271.037 35.2648C270.922 35.0796 270.989 34.928 271.186 34.928C271.383 34.928 271.544 35.0796 271.544 35.2648ZM269.854 52.2726C269.854 52.5504 269.702 52.7778 269.516 52.7778C269.33 52.7778 269.178 52.5504 269.178 52.2726C269.178 51.9947 269.33 51.7674 269.516 51.7674C269.702 51.7674 269.854 51.9947 269.854 52.2726ZM12.2981 52.9263C12.2981 53.0081 12.146 53.1684 11.9601 53.283C11.7742 53.3975 11.6221 53.3304 11.6221 53.1344C11.6221 52.9384 11.7742 52.7778 11.9601 52.7778C12.146 52.7778 12.2981 52.8445 12.2981 52.9263ZM271.882 53.283C271.882 53.5608 271.73 53.7881 271.544 53.7881C271.358 53.7881 271.206 54.0407 271.206 54.3496C271.206 54.6581 271.112 54.8167 270.997 54.7018C270.692 54.3987 271.159 52.7778 271.551 52.7778C271.733 52.7778 271.882 53.0051 271.882 53.283ZM259.727 54.7904C259.048 55.2087 258.618 54.8605 259.126 54.3038C259.395 54.0091 259.665 53.9602 259.88 54.167C260.1 54.3789 260.048 54.5931 259.727 54.7904ZM262.721 54.2505C263.127 54.7386 262.895 55.8089 262.382 55.8089C262.216 55.8089 262.08 55.5815 262.08 55.3037C262.08 55.0258 261.833 54.7985 261.532 54.7985C261.083 54.7985 261.059 54.7072 261.404 54.2933C261.926 53.6672 262.227 53.6575 262.721 54.2505ZM284.768 54.5516C284.434 54.8817 284.396 54.843 284.579 54.363C284.706 54.031 284.895 53.844 284.999 53.9478C285.103 54.0512 284.999 54.323 284.768 54.5516ZM256.324 55.0511C256.315 55.8456 256.264 55.8931 255.967 55.3852C255.777 55.0595 255.715 54.6429 255.829 54.459C256.178 53.8956 256.334 54.0825 256.324 55.0511ZM267.15 55.8287C267.15 56.21 266.998 56.4286 266.812 56.314C266.626 56.1995 266.474 55.8877 266.474 55.6206C266.474 55.3535 266.626 55.1353 266.812 55.1353C266.998 55.1353 267.15 55.4475 267.15 55.8287ZM274.924 56.314C274.924 56.5919 274.701 56.8192 274.428 56.8192C274.125 56.8192 274.007 56.6219 274.126 56.314C274.233 56.0362 274.456 55.8089 274.622 55.8089C274.788 55.8089 274.924 56.0362 274.924 56.314ZM6.20738 58.0061C5.97213 58.2883 5.71018 58.45 5.62501 58.3654C5.39077 58.1317 5.86701 57.4928 6.27532 57.4928C6.49975 57.4928 6.47406 57.6861 6.20738 58.0061ZM9.25614 60.6724C9.25614 60.7542 9.10404 60.9146 8.91814 61.0291C8.73224 61.1436 8.58014 61.0766 8.58014 60.8805C8.58014 60.6845 8.73224 60.5239 8.91814 60.5239C9.10404 60.5239 9.25614 60.5906 9.25614 60.6724Z" fill="white"/>
</svg>
