<svg width="566" height="434" viewBox="0 0 566 434" fill="none" xmlns="http://www.w3.org/2000/svg">
<g clip-path="url(#clip0)">
<path d="M525.957 394.278H41.8104C41.7276 394.278 41.6655 394.212 41.6655 394.127C41.6655 394.042 41.7345 393.977 41.8104 393.977H525.957C526.039 393.977 526.102 394.042 526.102 394.127C526.102 394.212 526.039 394.278 525.957 394.278Z" fill="black"/>
<path d="M323.537 87.9648H44.2812V365.874H323.537V87.9648Z" fill="#E6EEFF"/>
<path d="M527.791 130.342H264.039V307.403H527.791V130.342Z" fill="#8CCF93"/>
<path d="M264.037 366.018H259.729C259.646 366.018 259.582 365.952 259.582 365.867C259.582 365.782 259.65 365.716 259.729 365.716H263.89C263.895 365.641 263.959 365.584 264.037 365.584C264.12 365.584 264.184 365.65 264.184 365.735V365.867C264.184 365.952 264.12 366.018 264.037 366.018ZM255.283 366.018H250.838C250.755 366.018 250.691 365.952 250.691 365.867C250.691 365.782 250.76 365.716 250.838 365.716H255.283C255.367 365.716 255.43 365.782 255.43 365.867C255.43 365.952 255.367 366.018 255.283 366.018ZM246.398 366.018H241.952C241.869 366.018 241.806 365.952 241.806 365.867C241.806 365.782 241.874 365.716 241.952 365.716H246.398C246.481 365.716 246.545 365.782 246.545 365.867C246.545 365.952 246.476 366.018 246.398 366.018ZM237.507 366.018H233.062C232.979 366.018 232.915 365.952 232.915 365.867C232.915 365.782 232.984 365.716 233.062 365.716H237.507C237.59 365.716 237.654 365.782 237.654 365.867C237.654 365.952 237.59 366.018 237.507 366.018ZM228.621 366.018H224.176C224.093 366.018 224.029 365.952 224.029 365.867C224.029 365.782 224.098 365.716 224.176 365.716H228.621C228.705 365.716 228.768 365.782 228.768 365.867C228.768 365.952 228.7 366.018 228.621 366.018ZM219.731 366.018H215.286C215.202 366.018 215.139 365.952 215.139 365.867C215.139 365.782 215.207 365.716 215.286 365.716H219.731C219.814 365.716 219.878 365.782 219.878 365.867C219.878 365.952 219.814 366.018 219.731 366.018ZM210.845 366.018H206.4C206.317 366.018 206.253 365.952 206.253 365.867C206.253 365.782 206.322 365.716 206.4 365.716H210.845C210.928 365.716 210.992 365.782 210.992 365.867C210.992 365.952 210.928 366.018 210.845 366.018ZM201.96 366.018H197.514C197.431 366.018 197.367 365.952 197.367 365.867C197.367 365.782 197.436 365.716 197.514 365.716H201.96C202.043 365.716 202.106 365.782 202.106 365.867C202.106 365.952 202.038 366.018 201.96 366.018ZM193.069 366.018H188.624C188.54 366.018 188.477 365.952 188.477 365.867C188.477 365.782 188.545 365.716 188.624 365.716H193.069C193.152 365.716 193.216 365.782 193.216 365.867C193.216 365.952 193.152 366.018 193.069 366.018ZM184.183 366.018H179.738C179.655 366.018 179.591 365.952 179.591 365.867C179.591 365.782 179.66 365.716 179.738 365.716H184.183C184.267 365.716 184.33 365.782 184.33 365.867C184.33 365.952 184.267 366.018 184.183 366.018ZM175.298 366.018H170.852C170.769 366.018 170.705 365.952 170.705 365.867C170.705 365.782 170.774 365.716 170.852 365.716H175.298C175.381 365.716 175.445 365.782 175.445 365.867C175.445 365.952 175.376 366.018 175.298 366.018ZM166.407 366.018H161.962C161.879 366.018 161.815 365.952 161.815 365.867C161.815 365.782 161.883 365.716 161.962 365.716H166.407C166.49 365.716 166.554 365.782 166.554 365.867C166.554 365.952 166.49 366.018 166.407 366.018ZM157.521 366.018H153.076C152.993 366.018 152.929 365.952 152.929 365.867C152.929 365.782 152.998 365.716 153.076 365.716H157.521C157.605 365.716 157.668 365.782 157.668 365.867C157.668 365.952 157.605 366.018 157.521 366.018ZM148.631 366.018H144.186C144.102 366.018 144.039 365.952 144.039 365.867C144.039 365.782 144.107 365.716 144.186 365.716H148.631C148.714 365.716 148.778 365.782 148.778 365.867C148.778 365.952 148.714 366.018 148.631 366.018ZM139.745 366.018H135.3C135.217 366.018 135.153 365.952 135.153 365.867C135.153 365.782 135.222 365.716 135.3 365.716H139.745C139.828 365.716 139.892 365.782 139.892 365.867C139.892 365.952 139.828 366.018 139.745 366.018ZM130.859 366.018H126.414C126.331 366.018 126.267 365.952 126.267 365.867C126.267 365.782 126.336 365.716 126.414 365.716H130.859C130.943 365.716 131.006 365.782 131.006 365.867C131.006 365.952 130.938 366.018 130.859 366.018ZM121.969 366.018H117.524C117.44 366.018 117.377 365.952 117.377 365.867C117.377 365.782 117.445 365.716 117.524 365.716H121.969C122.052 365.716 122.116 365.782 122.116 365.867C122.116 365.952 122.052 366.018 121.969 366.018ZM113.083 366.018H108.638C108.555 366.018 108.491 365.952 108.491 365.867C108.491 365.782 108.56 365.716 108.638 365.716H113.083C113.166 365.716 113.23 365.782 113.23 365.867C113.23 365.952 113.166 366.018 113.083 366.018ZM104.545 365.669C104.467 365.669 104.398 365.603 104.398 365.528L104.325 361.106C104.325 361.021 104.388 360.955 104.472 360.955C104.555 360.955 104.619 361.021 104.623 361.097L104.697 365.518C104.697 365.594 104.628 365.66 104.545 365.669C104.55 365.669 104.545 365.669 104.545 365.669ZM264.037 361.464C263.954 361.464 263.89 361.398 263.89 361.314V356.892C263.89 356.807 263.959 356.741 264.037 356.741C264.115 356.741 264.184 356.807 264.184 356.892V361.314C264.184 361.398 264.12 361.464 264.037 361.464ZM104.403 356.826C104.325 356.826 104.256 356.76 104.256 356.685L104.183 352.263C104.183 352.178 104.247 352.112 104.33 352.112C104.413 352.112 104.477 352.178 104.481 352.254L104.555 356.675C104.55 356.751 104.486 356.817 104.403 356.826ZM264.037 352.621C263.954 352.621 263.89 352.555 263.89 352.47V348.049C263.89 347.964 263.959 347.898 264.037 347.898C264.115 347.898 264.184 347.964 264.184 348.049V352.47C264.184 352.555 264.12 352.621 264.037 352.621ZM104.256 347.983C104.178 347.983 104.109 347.917 104.109 347.841L104.036 343.42C104.036 343.335 104.1 343.269 104.183 343.269C104.266 343.269 104.33 343.335 104.335 343.41L104.408 347.832C104.408 347.907 104.34 347.973 104.256 347.983C104.261 347.983 104.256 347.983 104.256 347.983ZM264.037 343.778C263.954 343.778 263.89 343.712 263.89 343.627V339.206C263.89 339.121 263.959 339.055 264.037 339.055C264.115 339.055 264.184 339.121 264.184 339.206V343.627C264.184 343.712 264.12 343.778 264.037 343.778ZM104.114 339.14C104.036 339.14 103.967 339.074 103.967 338.998L103.894 334.577C103.894 334.492 103.958 334.426 104.041 334.426C104.119 334.426 104.188 334.492 104.193 334.567L104.266 338.989C104.261 339.064 104.198 339.13 104.114 339.14ZM264.037 334.935C263.954 334.935 263.89 334.869 263.89 334.784V330.362C263.89 330.278 263.959 330.212 264.037 330.212C264.115 330.212 264.184 330.278 264.184 330.362V334.784C264.184 334.869 264.12 334.935 264.037 334.935ZM103.967 330.296C103.889 330.296 103.821 330.23 103.821 330.155L103.747 325.733C103.747 325.649 103.811 325.583 103.894 325.583C103.977 325.583 104.041 325.649 104.046 325.724L104.119 330.146C104.119 330.221 104.051 330.287 103.967 330.296C103.972 330.296 103.967 330.296 103.967 330.296ZM472.794 326.714L468.349 326.695C468.266 326.695 468.202 326.629 468.202 326.544C468.202 326.459 468.27 326.393 468.349 326.393L472.794 326.412C472.877 326.412 472.941 326.478 472.941 326.563C472.941 326.648 472.877 326.714 472.794 326.714ZM463.908 326.686L459.463 326.667C459.38 326.667 459.316 326.601 459.316 326.516C459.316 326.431 459.385 326.365 459.463 326.365L463.908 326.384C463.992 326.384 464.055 326.45 464.055 326.535C464.055 326.62 463.987 326.686 463.908 326.686ZM455.018 326.648L450.573 326.629C450.489 326.629 450.426 326.563 450.426 326.478C450.426 326.393 450.494 326.327 450.573 326.327L455.018 326.346C455.101 326.346 455.165 326.412 455.165 326.497C455.17 326.582 455.101 326.648 455.018 326.648ZM446.132 326.62L441.687 326.601C441.604 326.601 441.54 326.535 441.54 326.45C441.54 326.365 441.609 326.299 441.687 326.299L446.132 326.318C446.215 326.318 446.279 326.384 446.279 326.469C446.279 326.554 446.215 326.62 446.132 326.62ZM437.246 326.591L432.801 326.572C432.718 326.572 432.654 326.506 432.654 326.422C432.654 326.337 432.723 326.271 432.801 326.271L437.246 326.29C437.33 326.29 437.393 326.356 437.393 326.44C437.393 326.525 437.325 326.591 437.246 326.591ZM428.356 326.563L423.911 326.544C423.827 326.544 423.764 326.478 423.764 326.393C423.764 326.308 423.832 326.243 423.911 326.243L428.356 326.261C428.439 326.261 428.503 326.327 428.503 326.412C428.503 326.497 428.439 326.563 428.356 326.563ZM419.47 326.525L415.025 326.506C414.942 326.506 414.878 326.44 414.878 326.356C414.878 326.271 414.947 326.205 415.025 326.205L419.47 326.224C419.553 326.224 419.617 326.29 419.617 326.374C419.617 326.459 419.553 326.525 419.47 326.525ZM410.585 326.497L406.139 326.478C406.056 326.478 405.992 326.412 405.992 326.327C405.992 326.242 406.061 326.176 406.139 326.176L410.585 326.195C410.668 326.195 410.731 326.261 410.731 326.346C410.731 326.431 410.663 326.497 410.585 326.497ZM401.694 326.469L397.249 326.45C397.165 326.45 397.102 326.384 397.102 326.299C397.102 326.214 397.17 326.148 397.249 326.148L401.694 326.167C401.777 326.167 401.841 326.233 401.841 326.318C401.841 326.403 401.777 326.469 401.694 326.469ZM392.808 326.44L388.363 326.422C388.28 326.422 388.216 326.356 388.216 326.271C388.216 326.186 388.285 326.12 388.363 326.12L392.808 326.139C392.892 326.139 392.955 326.205 392.955 326.29C392.955 326.374 392.887 326.44 392.808 326.44ZM383.918 326.403L379.472 326.384C379.389 326.384 379.326 326.318 379.326 326.233C379.326 326.148 379.394 326.082 379.472 326.082L383.918 326.101C384.001 326.101 384.065 326.167 384.065 326.252C384.069 326.337 384.001 326.403 383.918 326.403ZM375.032 326.374L370.587 326.356C370.503 326.356 370.44 326.29 370.44 326.205C370.44 326.12 370.508 326.054 370.587 326.054L375.032 326.073C375.115 326.073 375.179 326.139 375.179 326.224C375.179 326.308 375.115 326.374 375.032 326.374ZM366.146 326.346L361.701 326.327C361.618 326.327 361.554 326.261 361.554 326.176C361.554 326.092 361.623 326.026 361.701 326.026L366.146 326.045C366.23 326.045 366.293 326.111 366.293 326.195C366.293 326.28 366.225 326.346 366.146 326.346ZM357.256 326.318L352.81 326.299C352.727 326.299 352.664 326.233 352.664 326.148C352.664 326.063 352.732 325.997 352.81 325.997L357.256 326.016C357.339 326.016 357.403 326.082 357.403 326.167C357.408 326.252 357.339 326.318 357.256 326.318ZM348.37 326.28L343.925 326.261C343.842 326.261 343.778 326.195 343.778 326.11C343.778 326.026 343.846 325.96 343.925 325.96L348.37 325.979C348.453 325.979 348.517 326.044 348.517 326.129C348.517 326.214 348.453 326.28 348.37 326.28ZM339.484 326.252L335.039 326.233C334.956 326.233 334.892 326.167 334.892 326.082C334.892 325.997 334.961 325.931 335.039 325.931L339.484 325.95C339.568 325.95 339.631 326.016 339.631 326.101C339.631 326.186 339.563 326.252 339.484 326.252ZM330.594 326.224L326.149 326.205C326.065 326.205 326.002 326.139 326.002 326.054C326.002 325.969 326.07 325.903 326.149 325.903L330.594 325.922C330.677 325.922 330.741 325.988 330.741 326.073C330.746 326.158 330.677 326.224 330.594 326.224ZM321.708 326.186L317.263 326.167C317.18 326.167 317.116 326.101 317.116 326.016C317.116 325.931 317.185 325.865 317.263 325.865L321.708 325.884C321.791 325.884 321.855 325.95 321.855 326.035C321.855 326.12 321.791 326.186 321.708 326.186ZM312.822 326.158L308.377 326.139C308.294 326.139 308.23 326.073 308.23 325.988C308.23 325.903 308.304 325.837 308.377 325.837L312.822 325.856C312.906 325.856 312.969 325.922 312.969 326.007C312.969 326.092 312.901 326.158 312.822 326.158ZM303.932 326.129L299.487 326.11C299.403 326.11 299.34 326.045 299.34 325.96C299.34 325.875 299.408 325.809 299.487 325.809L303.932 325.828C304.015 325.828 304.079 325.894 304.079 325.979C304.079 326.063 304.015 326.129 303.932 326.129ZM295.046 326.101L290.601 326.082C290.518 326.082 290.454 326.016 290.454 325.931C290.454 325.847 290.523 325.781 290.601 325.781L295.046 325.799C295.129 325.799 295.193 325.865 295.193 325.95C295.193 326.035 295.129 326.101 295.046 326.101ZM264.037 326.082C263.954 326.082 263.89 326.016 263.89 325.931V325.837C263.89 325.799 263.905 325.762 263.934 325.733C263.963 325.705 263.998 325.696 264.037 325.686L268.384 325.705C268.468 325.705 268.531 325.771 268.531 325.856C268.531 325.941 268.463 326.007 268.384 326.007L264.174 325.988C264.154 326.044 264.101 326.082 264.037 326.082ZM286.156 326.063L281.71 326.045C281.627 326.045 281.563 325.979 281.563 325.894C281.563 325.809 281.632 325.743 281.71 325.743L286.156 325.762C286.239 325.762 286.303 325.828 286.303 325.913C286.307 325.997 286.239 326.063 286.156 326.063ZM277.27 326.035L272.825 326.016C272.741 326.016 272.678 325.95 272.678 325.865C272.678 325.781 272.746 325.715 272.825 325.715L277.27 325.733C277.353 325.733 277.417 325.799 277.417 325.884C277.417 325.969 277.353 326.035 277.27 326.035ZM474.762 324.282C474.679 324.282 474.615 324.216 474.615 324.14L474.566 319.719C474.566 319.634 474.63 319.568 474.713 319.568C474.796 319.568 474.86 319.634 474.865 319.709L474.914 324.131C474.909 324.216 474.845 324.282 474.762 324.282ZM103.825 321.453C103.747 321.453 103.679 321.387 103.679 321.312L103.605 316.89C103.605 316.805 103.669 316.739 103.752 316.739C103.825 316.739 103.899 316.805 103.904 316.881L103.977 321.302C103.972 321.378 103.909 321.444 103.825 321.453ZM474.664 315.438C474.581 315.438 474.517 315.372 474.517 315.297L474.468 310.875C474.468 310.79 474.532 310.725 474.615 310.725C474.698 310.725 474.762 310.79 474.767 310.866L474.816 315.287C474.811 315.372 474.747 315.438 474.664 315.438ZM103.679 312.61C103.6 312.61 103.532 312.544 103.532 312.469L103.458 308.047C103.458 307.962 103.522 307.896 103.605 307.896C103.688 307.896 103.752 307.962 103.757 308.038L103.83 312.459C103.83 312.535 103.762 312.601 103.679 312.61C103.684 312.61 103.679 312.61 103.679 312.61ZM474.561 306.595C474.478 306.595 474.415 306.529 474.415 306.454L474.366 302.032C474.366 301.947 474.429 301.881 474.512 301.881C474.596 301.881 474.659 301.947 474.664 302.023L474.713 306.444C474.713 306.529 474.65 306.595 474.561 306.595C474.566 306.595 474.566 306.595 474.561 306.595ZM103.537 303.767C103.458 303.767 103.39 303.701 103.39 303.625L103.316 299.204C103.316 299.119 103.38 299.053 103.463 299.053C103.546 299.053 103.61 299.119 103.615 299.194L103.688 303.616C103.684 303.691 103.62 303.757 103.537 303.767ZM474.464 297.752C474.38 297.752 474.317 297.686 474.317 297.611L474.268 293.189C474.268 293.104 474.331 293.038 474.415 293.038C474.498 293.038 474.561 293.104 474.566 293.18L474.615 297.601C474.615 297.686 474.547 297.752 474.464 297.752C474.468 297.752 474.468 297.752 474.464 297.752ZM103.39 294.914C103.311 294.914 103.243 294.848 103.243 294.773L103.169 290.351C103.169 290.266 103.233 290.2 103.316 290.2C103.4 290.2 103.463 290.266 103.468 290.342L103.542 294.763C103.542 294.848 103.473 294.914 103.39 294.914C103.395 294.914 103.39 294.914 103.39 294.914ZM474.366 288.909C474.282 288.909 474.219 288.843 474.219 288.767L474.17 284.346C474.17 284.261 474.233 284.195 474.317 284.195C474.4 284.195 474.463 284.261 474.468 284.336L474.517 288.758C474.517 288.843 474.449 288.909 474.366 288.909C474.37 288.909 474.366 288.909 474.366 288.909ZM103.248 286.071C103.169 286.071 103.101 286.005 103.101 285.93L103.027 281.508C103.027 281.423 103.091 281.357 103.174 281.357C103.258 281.357 103.321 281.423 103.326 281.499L103.4 285.92C103.395 286.005 103.331 286.071 103.248 286.071ZM474.268 280.066C474.184 280.066 474.121 280 474.121 279.924L474.072 275.503C474.072 275.418 474.135 275.352 474.219 275.352C474.302 275.342 474.366 275.418 474.37 275.493L474.419 279.915C474.419 280 474.351 280.066 474.268 280.066ZM103.101 277.228C103.023 277.228 102.954 277.162 102.954 277.086L102.881 272.665C102.881 272.58 102.944 272.514 103.027 272.514C103.111 272.514 103.174 272.58 103.179 272.655L103.253 277.077C103.253 277.162 103.189 277.228 103.101 277.228C103.106 277.228 103.101 277.228 103.101 277.228ZM474.17 271.222C474.087 271.222 474.023 271.156 474.023 271.081L473.974 266.659C473.974 266.575 474.038 266.509 474.121 266.509C474.204 266.509 474.268 266.575 474.273 266.65L474.322 271.072C474.322 271.147 474.253 271.213 474.17 271.222ZM102.959 268.385C102.881 268.385 102.812 268.319 102.812 268.243L102.739 263.822C102.739 263.737 102.802 263.671 102.886 263.671C102.964 263.671 103.032 263.737 103.037 263.812L103.111 268.234C103.106 268.319 103.042 268.385 102.959 268.385ZM474.072 262.379C473.989 262.379 473.925 262.313 473.925 262.238L473.876 257.816C473.876 257.731 473.94 257.665 474.023 257.665C474.106 257.665 474.17 257.731 474.175 257.807L474.224 262.228C474.219 262.304 474.155 262.37 474.072 262.379ZM102.812 259.542C102.734 259.542 102.665 259.476 102.665 259.4L102.602 255.374C102.602 255.337 102.616 255.299 102.646 255.271C102.675 255.242 102.709 255.224 102.753 255.224H103.155C103.238 255.224 103.302 255.29 103.302 255.374C103.302 255.459 103.233 255.525 103.155 255.525H102.905L102.969 259.4C102.964 259.476 102.9 259.542 102.812 259.542C102.817 259.542 102.812 259.542 102.812 259.542ZM156.474 255.525H152.028C151.945 255.525 151.882 255.459 151.882 255.374C151.882 255.29 151.95 255.224 152.028 255.224H156.474C156.557 255.224 156.621 255.29 156.621 255.374C156.621 255.459 156.552 255.525 156.474 255.525ZM147.583 255.525H143.138C143.055 255.525 142.991 255.459 142.991 255.374C142.991 255.29 143.06 255.224 143.138 255.224H147.583C147.666 255.224 147.73 255.29 147.73 255.374C147.735 255.459 147.666 255.525 147.583 255.525ZM138.697 255.525H134.252C134.169 255.525 134.105 255.459 134.105 255.374C134.105 255.29 134.174 255.224 134.252 255.224H138.697C138.781 255.224 138.844 255.29 138.844 255.374C138.844 255.459 138.781 255.525 138.697 255.525ZM129.812 255.525H125.367C125.283 255.525 125.22 255.459 125.22 255.374C125.22 255.29 125.288 255.224 125.367 255.224H129.812C129.895 255.224 129.959 255.29 129.959 255.374C129.959 255.459 129.89 255.525 129.812 255.525ZM120.921 255.525H116.476C116.393 255.525 116.329 255.459 116.329 255.374C116.329 255.29 116.398 255.224 116.476 255.224H120.921C121.004 255.224 121.068 255.29 121.068 255.374C121.068 255.459 121.004 255.525 120.921 255.525ZM112.036 255.525H107.59C107.507 255.525 107.443 255.459 107.443 255.374C107.443 255.29 107.512 255.224 107.59 255.224H112.036C112.119 255.224 112.182 255.29 112.182 255.374C112.182 255.459 112.114 255.525 112.036 255.525ZM473.974 253.527C473.891 253.527 473.827 253.461 473.827 253.385L473.778 248.964C473.778 248.879 473.842 248.813 473.925 248.813C474.008 248.813 474.072 248.879 474.077 248.954L474.126 253.376C474.121 253.461 474.057 253.527 473.974 253.527ZM157.614 252.235C157.531 252.235 157.468 252.169 157.468 252.084L157.472 247.663C157.472 247.578 157.541 247.512 157.619 247.512C157.703 247.512 157.766 247.578 157.766 247.663L157.761 252.084C157.766 252.169 157.698 252.235 157.614 252.235ZM473.876 244.683C473.793 244.683 473.729 244.617 473.729 244.542L473.68 240.12C473.68 240.036 473.744 239.97 473.827 239.97C473.91 239.97 473.974 240.036 473.979 240.111L474.028 244.533C474.023 244.617 473.959 244.683 473.876 244.683ZM157.624 243.392C157.541 243.392 157.477 243.326 157.477 243.241L157.482 238.819C157.482 238.735 157.551 238.669 157.629 238.669C157.712 238.669 157.776 238.735 157.776 238.819L157.771 243.241C157.776 243.326 157.707 243.392 157.624 243.392ZM473.778 235.84C473.695 235.84 473.631 235.774 473.631 235.699L473.582 231.277C473.582 231.192 473.646 231.126 473.729 231.126C473.807 231.126 473.876 231.192 473.881 231.268L473.93 235.689C473.925 235.774 473.861 235.84 473.778 235.84ZM157.634 234.549C157.551 234.549 157.487 234.483 157.487 234.398L157.492 229.976C157.492 229.891 157.561 229.825 157.639 229.825C157.722 229.825 157.786 229.891 157.786 229.976L157.781 234.398C157.786 234.483 157.717 234.549 157.634 234.549ZM473.68 226.997C473.597 226.997 473.533 226.931 473.533 226.856L473.484 222.434C473.484 222.349 473.548 222.283 473.631 222.283C473.705 222.283 473.778 222.349 473.783 222.425L473.832 226.846C473.827 226.931 473.763 226.997 473.68 226.997ZM157.644 225.696C157.561 225.696 157.497 225.63 157.497 225.545L157.502 221.124C157.502 221.039 157.57 220.973 157.649 220.973C157.732 220.973 157.796 221.039 157.796 221.124L157.791 225.545C157.796 225.63 157.727 225.696 157.644 225.696ZM473.577 218.154C473.494 218.154 473.431 218.088 473.431 218.013L473.382 213.591C473.382 213.506 473.445 213.44 473.528 213.44C473.612 213.44 473.675 213.506 473.68 213.581L473.729 218.003C473.729 218.088 473.666 218.154 473.577 218.154C473.582 218.154 473.582 218.154 473.577 218.154ZM157.654 216.853C157.57 216.853 157.507 216.787 157.507 216.702L157.512 212.28C157.512 212.196 157.58 212.13 157.658 212.13C157.742 212.13 157.805 212.196 157.805 212.28L157.8 216.702C157.805 216.787 157.737 216.853 157.654 216.853ZM473.479 209.311C473.396 209.311 473.333 209.245 473.333 209.169L473.284 204.748C473.284 204.663 473.347 204.597 473.431 204.597C473.514 204.597 473.577 204.663 473.582 204.738L473.631 209.16C473.631 209.245 473.563 209.311 473.479 209.311C473.484 209.311 473.479 209.311 473.479 209.311ZM157.663 208.01C157.575 208.01 157.517 207.944 157.517 207.859L157.521 203.437C157.521 203.352 157.59 203.286 157.668 203.286C157.752 203.286 157.815 203.352 157.815 203.437L157.81 207.859C157.81 207.944 157.747 208.01 157.663 208.01ZM473.382 200.468C473.298 200.468 473.235 200.402 473.235 200.326L473.186 195.905C473.186 195.82 473.249 195.754 473.333 195.754C473.416 195.754 473.479 195.82 473.484 195.895L473.533 200.317C473.533 200.402 473.465 200.468 473.382 200.468ZM157.673 199.167C157.59 199.167 157.526 199.101 157.526 199.016L157.531 194.594C157.531 194.509 157.6 194.443 157.678 194.443C157.761 194.443 157.825 194.509 157.825 194.594L157.82 199.016C157.82 199.101 157.756 199.167 157.673 199.167ZM473.284 191.624C473.2 191.624 473.137 191.558 473.137 191.483L473.088 187.061C473.088 186.977 473.151 186.911 473.235 186.911C473.323 186.911 473.382 186.977 473.386 187.052L473.435 191.474C473.435 191.558 473.367 191.624 473.284 191.624ZM157.683 190.323C157.6 190.323 157.536 190.257 157.536 190.173L157.541 185.751C157.541 185.666 157.61 185.6 157.688 185.6C157.771 185.6 157.835 185.666 157.835 185.751L157.83 190.173C157.83 190.257 157.766 190.323 157.683 190.323ZM473.186 182.781C473.103 182.781 473.039 182.715 473.039 182.64L472.99 178.218C472.99 178.133 473.054 178.067 473.137 178.067C473.22 178.067 473.284 178.133 473.289 178.209L473.337 182.63C473.333 182.715 473.269 182.781 473.186 182.781ZM157.693 181.48C157.61 181.48 157.546 181.414 157.546 181.329L157.551 176.908C157.551 176.823 157.619 176.757 157.698 176.757C157.781 176.757 157.845 176.823 157.845 176.908L157.84 181.329C157.84 181.414 157.776 181.48 157.693 181.48ZM473.088 173.938C473.005 173.938 472.941 173.872 472.941 173.797L472.892 169.375C472.892 169.29 472.956 169.224 473.039 169.224C473.117 169.224 473.186 169.29 473.191 169.366L473.24 173.787C473.235 173.872 473.171 173.938 473.088 173.938ZM157.703 172.637C157.619 172.637 157.556 172.571 157.556 172.486L157.561 168.065C157.561 167.98 157.629 167.914 157.707 167.914C157.791 167.914 157.854 167.98 157.854 168.065L157.849 172.486C157.849 172.571 157.786 172.637 157.703 172.637ZM472.99 165.095C472.907 165.095 472.843 165.029 472.843 164.953L472.794 160.532C472.794 160.447 472.858 160.381 472.941 160.381C473.019 160.372 473.088 160.447 473.093 160.522L473.142 164.944C473.137 165.019 473.073 165.095 472.99 165.095ZM157.712 163.784C157.629 163.784 157.565 163.718 157.565 163.634L157.57 159.212C157.57 159.127 157.639 159.061 157.717 159.061C157.8 159.061 157.864 159.127 157.864 159.212L157.859 163.634C157.859 163.718 157.796 163.784 157.712 163.784ZM472.892 156.252C472.809 156.252 472.745 156.186 472.745 156.11L472.696 151.689C472.696 151.604 472.76 151.538 472.843 151.538C472.926 151.538 472.99 151.604 472.995 151.679L473.044 156.101C473.039 156.176 472.975 156.242 472.892 156.252ZM157.722 154.941C157.639 154.941 157.575 154.875 157.575 154.79L157.58 150.369C157.58 150.284 157.649 150.218 157.727 150.218C157.81 150.218 157.874 150.284 157.874 150.369L157.869 154.79C157.869 154.875 157.805 154.941 157.722 154.941ZM472.794 147.399C472.711 147.399 472.647 147.333 472.647 147.258L472.598 142.836C472.598 142.751 472.662 142.685 472.745 142.685C472.828 142.685 472.892 142.751 472.897 142.827L472.946 147.248C472.941 147.333 472.877 147.399 472.794 147.399ZM157.732 146.098C157.649 146.098 157.585 146.032 157.585 145.947L157.59 141.526C157.59 141.441 157.654 141.375 157.737 141.375C157.82 141.375 157.884 141.441 157.884 141.526L157.879 145.947C157.879 146.032 157.815 146.098 157.732 146.098ZM472.696 138.556C472.613 138.556 472.549 138.49 472.549 138.414L472.5 133.993C472.5 133.908 472.564 133.842 472.647 133.842C472.735 133.842 472.794 133.908 472.799 133.983L472.848 138.405C472.843 138.49 472.779 138.556 472.696 138.556ZM157.742 137.255C157.658 137.255 157.595 137.189 157.595 137.104L157.6 132.682C157.6 132.598 157.668 132.532 157.747 132.532C157.83 132.532 157.893 132.598 157.893 132.682L157.889 137.104C157.889 137.189 157.825 137.255 157.742 137.255ZM472.603 129.713C472.52 129.713 472.456 129.647 472.456 129.562L472.442 125.14C472.442 125.055 472.505 124.989 472.588 124.989C472.672 124.989 472.735 125.055 472.735 125.14L472.75 129.562C472.75 129.647 472.686 129.713 472.603 129.713ZM159.671 129.675C159.612 129.675 159.558 129.637 159.534 129.581C159.499 129.505 159.538 129.42 159.612 129.383L163.7 127.648C163.773 127.62 163.861 127.648 163.896 127.723C163.93 127.799 163.891 127.884 163.817 127.921L159.729 129.656C159.71 129.675 159.69 129.675 159.671 129.675ZM167.846 126.206C167.788 126.206 167.734 126.168 167.709 126.121C167.675 126.045 167.714 125.96 167.788 125.923L171.876 124.188C171.949 124.16 172.037 124.188 172.071 124.263C172.106 124.339 172.066 124.424 171.993 124.461L167.905 126.196C167.886 126.196 167.866 126.206 167.846 126.206ZM176.017 122.727C175.959 122.727 175.905 122.689 175.88 122.632C175.846 122.557 175.885 122.472 175.959 122.434L180.046 120.7C180.12 120.672 180.208 120.7 180.242 120.775C180.277 120.851 180.237 120.935 180.164 120.973L176.076 122.708C176.056 122.727 176.037 122.727 176.017 122.727ZM472.579 120.869C472.495 120.869 472.432 120.803 472.432 120.719L472.417 116.297C472.417 116.212 472.481 116.146 472.564 116.146C472.647 116.146 472.711 116.212 472.711 116.297L472.726 120.719C472.726 120.803 472.657 120.869 472.579 120.869ZM183.4 119.587C183.317 119.587 183.253 119.521 183.253 119.436C183.253 119.352 183.317 119.286 183.4 119.286L187.845 119.267C187.929 119.267 187.992 119.333 187.992 119.418C187.992 119.502 187.929 119.568 187.845 119.568L183.4 119.587ZM192.291 119.55C192.207 119.55 192.144 119.484 192.144 119.399C192.144 119.314 192.207 119.248 192.291 119.248L196.736 119.229C196.819 119.229 196.883 119.295 196.883 119.38C196.883 119.465 196.819 119.531 196.736 119.531L192.291 119.55ZM201.176 119.512C201.093 119.512 201.029 119.446 201.029 119.361C201.029 119.276 201.093 119.21 201.176 119.21L205.622 119.191C205.705 119.191 205.768 119.257 205.768 119.342C205.768 119.427 205.705 119.493 205.622 119.493L201.176 119.512ZM210.062 119.474C209.979 119.474 209.915 119.408 209.915 119.323C209.915 119.238 209.979 119.173 210.062 119.173L214.507 119.154C214.59 119.154 214.654 119.22 214.654 119.304C214.654 119.389 214.59 119.455 214.507 119.455L210.062 119.474ZM218.953 119.436C218.869 119.436 218.806 119.37 218.806 119.286C218.806 119.201 218.869 119.135 218.953 119.135L223.398 119.116C223.481 119.116 223.545 119.182 223.545 119.267C223.545 119.352 223.481 119.418 223.398 119.418L218.953 119.436ZM227.838 119.389C227.755 119.389 227.691 119.323 227.691 119.239C227.691 119.154 227.755 119.088 227.838 119.088L232.283 119.069C232.367 119.069 232.43 119.135 232.43 119.22C232.43 119.305 232.367 119.37 232.283 119.37L227.838 119.389ZM236.724 119.352C236.641 119.352 236.577 119.286 236.577 119.201C236.577 119.116 236.641 119.05 236.724 119.05L241.169 119.031C241.252 119.031 241.316 119.097 241.316 119.182C241.316 119.267 241.252 119.333 241.169 119.333L236.724 119.352ZM245.614 119.314C245.531 119.314 245.468 119.248 245.468 119.163C245.468 119.078 245.531 119.012 245.614 119.012L250.06 118.993C250.143 118.984 250.207 119.059 250.207 119.144C250.207 119.229 250.143 119.295 250.06 119.295L245.614 119.314ZM254.5 119.276C254.417 119.276 254.353 119.21 254.353 119.125C254.353 119.041 254.417 118.975 254.5 118.975L258.945 118.956C259.024 118.946 259.092 119.022 259.092 119.107C259.092 119.191 259.029 119.257 258.945 119.257L254.5 119.276ZM263.386 119.229C263.303 119.229 263.239 119.163 263.239 119.078C263.239 118.993 263.303 118.927 263.386 118.927L267.831 118.909C267.914 118.909 267.978 118.975 267.978 119.059C267.978 119.144 267.914 119.21 267.831 119.21L263.386 119.229ZM272.276 119.191C272.193 119.191 272.13 119.125 272.13 119.041C272.13 118.956 272.193 118.89 272.276 118.89L276.722 118.871C276.805 118.871 276.869 118.937 276.869 119.022C276.869 119.107 276.805 119.173 276.722 119.173L272.276 119.191ZM281.162 119.154C281.079 119.154 281.015 119.088 281.015 119.003C281.015 118.918 281.079 118.852 281.162 118.852L285.607 118.833C285.691 118.833 285.754 118.899 285.754 118.984C285.754 119.069 285.691 119.135 285.607 119.135L281.162 119.154ZM290.048 119.116C289.965 119.116 289.901 119.05 289.901 118.965C289.901 118.88 289.965 118.814 290.048 118.814L294.493 118.795C294.576 118.795 294.64 118.861 294.64 118.946C294.64 119.031 294.576 119.097 294.493 119.097L290.048 119.116ZM298.938 119.078C298.855 119.078 298.791 119.012 298.791 118.927C298.791 118.843 298.855 118.777 298.938 118.777L303.384 118.758C303.467 118.758 303.53 118.824 303.53 118.909C303.53 118.993 303.467 119.059 303.384 119.059L298.938 119.078ZM307.824 119.031C307.741 119.031 307.677 118.965 307.677 118.88C307.677 118.795 307.741 118.729 307.824 118.729L312.269 118.711C312.353 118.711 312.416 118.777 312.416 118.861C312.416 118.946 312.353 119.012 312.269 119.012L307.824 119.031ZM316.71 118.993C316.626 118.993 316.563 118.927 316.563 118.843C316.563 118.758 316.626 118.692 316.71 118.692L321.155 118.673C321.238 118.673 321.302 118.739 321.302 118.824C321.302 118.909 321.238 118.975 321.155 118.975L316.71 118.993C316.715 118.993 316.715 118.993 316.71 118.993ZM325.6 118.956C325.517 118.956 325.453 118.89 325.453 118.805C325.453 118.72 325.517 118.654 325.6 118.654L330.046 118.635C330.129 118.626 330.192 118.701 330.192 118.786C330.192 118.871 330.129 118.937 330.046 118.937L325.6 118.956ZM334.486 118.918C334.403 118.918 334.339 118.852 334.339 118.767C334.339 118.682 334.403 118.616 334.486 118.616L338.931 118.597C339.014 118.597 339.078 118.663 339.078 118.748C339.078 118.833 339.014 118.899 338.931 118.899L334.486 118.918ZM343.377 118.871C343.293 118.871 343.23 118.805 343.23 118.72C343.23 118.635 343.293 118.569 343.377 118.569L347.822 118.55C347.905 118.55 347.969 118.616 347.969 118.701C347.969 118.786 347.905 118.852 347.822 118.852L343.377 118.871ZM352.262 118.833C352.179 118.833 352.115 118.767 352.115 118.682C352.115 118.597 352.179 118.531 352.262 118.531L356.707 118.513C356.791 118.513 356.854 118.579 356.854 118.663C356.854 118.748 356.791 118.814 356.707 118.814L352.262 118.833ZM361.148 118.795C361.065 118.795 361.001 118.729 361.001 118.645C361.001 118.56 361.065 118.494 361.148 118.494L363.987 118.484L364.017 117.174C364.017 117.089 364.09 117.023 364.168 117.032C364.252 117.032 364.315 117.098 364.315 117.183L364.286 118.635C364.286 118.711 364.217 118.777 364.139 118.777L361.148 118.795ZM364.262 112.913C364.178 112.913 364.11 112.847 364.115 112.762L364.208 108.34C364.208 108.255 364.276 108.199 364.355 108.199C364.438 108.199 364.506 108.265 364.501 108.35L364.408 112.771C364.404 112.847 364.34 112.913 364.262 112.913ZM472.554 112.026C472.471 112.026 472.407 111.96 472.407 111.875L472.393 107.454C472.393 107.369 472.456 107.303 472.539 107.303C472.623 107.303 472.686 107.369 472.686 107.454L472.701 111.875C472.701 111.96 472.633 112.026 472.554 112.026ZM364.448 104.069C364.364 104.069 364.296 104.003 364.301 103.918L364.394 99.4969C364.394 99.4121 364.462 99.3555 364.541 99.3555C364.624 99.3555 364.692 99.4215 364.687 99.5063L364.594 103.928C364.594 104.003 364.531 104.069 364.448 104.069ZM472.53 103.183C472.446 103.183 472.383 103.117 472.383 103.032L472.368 98.6107C472.368 98.5258 472.432 98.4599 472.515 98.4599C472.598 98.4599 472.662 98.5258 472.662 98.6107L472.677 103.032C472.677 103.117 472.608 103.183 472.53 103.183ZM364.638 95.2262C364.555 95.2262 364.487 95.1602 364.492 95.0753L364.585 90.6537C364.585 90.5689 364.658 90.5029 364.736 90.5123C364.82 90.5123 364.883 90.5783 364.883 90.6631L364.79 95.0847C364.785 95.1602 364.722 95.2262 364.638 95.2262ZM472.505 94.3399C472.422 94.3399 472.358 94.274 472.358 94.1891L472.344 89.7675C472.344 89.6827 472.407 89.6167 472.491 89.6167C472.579 89.6167 472.637 89.6827 472.637 89.7675L472.652 94.1891C472.652 94.274 472.584 94.3399 472.505 94.3399ZM364.829 86.383C364.746 86.383 364.678 86.317 364.683 86.2321L364.776 81.8105C364.776 81.7257 364.839 81.6691 364.927 81.6691C365.011 81.6691 365.074 81.7351 365.074 81.82L364.981 86.2416C364.976 86.317 364.908 86.383 364.829 86.383ZM472.481 85.4968C472.398 85.4968 472.334 85.4308 472.334 85.3459L472.319 80.9243C472.319 80.8395 472.383 80.7735 472.466 80.7735C472.549 80.7735 472.613 80.8395 472.613 80.9243L472.628 85.3459C472.628 85.4308 472.559 85.4968 472.481 85.4968ZM365.02 77.5398C364.937 77.5398 364.869 77.4738 364.873 77.389L364.967 72.9674C364.967 72.8825 365.035 72.8259 365.113 72.8259C365.197 72.8259 365.265 72.8919 365.26 72.9768L365.167 77.3984C365.167 77.4738 365.099 77.5398 365.02 77.5398ZM472.456 76.6442C472.373 76.6442 472.309 76.5782 472.309 76.4933L472.295 72.0717C472.295 71.9869 472.358 71.9209 472.442 71.9209C472.525 71.9209 472.588 71.9869 472.588 72.0717L472.603 76.4933C472.603 76.5782 472.535 76.6442 472.456 76.6442ZM469.406 70.8178H464.961C464.878 70.8178 464.814 70.7519 464.814 70.667C464.814 70.5822 464.883 70.5162 464.961 70.5162H469.406C469.489 70.5162 469.553 70.5822 469.553 70.667C469.553 70.7519 469.485 70.8178 469.406 70.8178ZM460.516 70.8084H456.07C455.987 70.8084 455.923 70.7424 455.923 70.6576C455.923 70.5727 455.992 70.5067 456.07 70.5067H460.516C460.599 70.5067 460.663 70.5727 460.663 70.6576C460.663 70.7424 460.599 70.8084 460.516 70.8084ZM451.63 70.799H447.185C447.101 70.799 447.038 70.733 447.038 70.6482C447.038 70.5633 447.106 70.4973 447.185 70.4973H451.63C451.713 70.4973 451.777 70.5633 451.777 70.6482C451.777 70.733 451.713 70.799 451.63 70.799ZM442.739 70.7896H438.294C438.211 70.7896 438.147 70.7236 438.147 70.6387C438.147 70.5539 438.216 70.4879 438.294 70.4879H442.739C442.823 70.4879 442.886 70.5539 442.886 70.6387C442.891 70.7236 442.823 70.7896 442.739 70.7896ZM433.854 70.7896H429.408C429.325 70.7896 429.262 70.7236 429.262 70.6387C429.262 70.5539 429.33 70.4879 429.408 70.4879H433.854C433.937 70.4879 434.001 70.5539 434.001 70.6387C434.001 70.7236 433.937 70.7896 433.854 70.7896ZM424.968 70.7801H420.523C420.44 70.7801 420.376 70.7141 420.376 70.6293C420.376 70.5444 420.444 70.4785 420.523 70.4785H424.968C425.051 70.4785 425.115 70.5444 425.115 70.6293C425.115 70.7141 425.046 70.7801 424.968 70.7801ZM416.078 70.7707H411.632C411.549 70.7707 411.485 70.7047 411.485 70.6199C411.485 70.535 411.554 70.469 411.632 70.469H416.078C416.161 70.469 416.224 70.535 416.224 70.6199C416.229 70.7047 416.161 70.7707 416.078 70.7707ZM407.192 70.7613H402.747C402.663 70.7613 402.6 70.6953 402.6 70.6104C402.6 70.5256 402.668 70.4596 402.747 70.4596H407.192C407.275 70.4596 407.339 70.5256 407.339 70.6104C407.339 70.6953 407.275 70.7613 407.192 70.7613ZM398.306 70.7518H393.861C393.778 70.7518 393.714 70.6859 393.714 70.601C393.714 70.5162 393.783 70.4502 393.861 70.4502H398.306C398.389 70.4502 398.453 70.5162 398.453 70.601C398.453 70.6859 398.384 70.7518 398.306 70.7518ZM389.416 70.7424H384.97C384.887 70.7424 384.823 70.6764 384.823 70.5916C384.823 70.5067 384.892 70.4407 384.97 70.4407H389.416C389.499 70.4407 389.562 70.5067 389.562 70.5916C389.562 70.6764 389.499 70.7424 389.416 70.7424ZM380.53 70.733H376.085C376.001 70.733 375.938 70.667 375.938 70.5821C375.938 70.4973 376.006 70.4313 376.085 70.4313H380.53C380.613 70.4313 380.677 70.4973 380.677 70.5821C380.677 70.667 380.613 70.733 380.53 70.733ZM371.644 70.7236H367.199C367.116 70.7236 367.052 70.6576 367.052 70.5727C367.052 70.4879 367.121 70.4219 367.199 70.4219H371.644C371.727 70.4219 371.791 70.4879 371.791 70.5727C371.791 70.6576 371.723 70.7236 371.644 70.7236Z" fill="#2D292A"/>
<path d="M515.627 99.502H392.902V334.695H515.627V99.502Z" fill="white"/>
<path d="M515.63 334.846H392.905C392.821 334.846 392.758 334.78 392.758 334.695V99.5024C392.758 99.4176 392.826 99.3516 392.905 99.3516H515.63C515.713 99.3516 515.776 99.4176 515.776 99.5024V334.695C515.776 334.78 515.708 334.846 515.63 334.846ZM393.052 334.544H515.483V99.6532H393.052V334.544Z" fill="#312C2E"/>
<path d="M515.63 118.396L392.905 118.302C392.821 118.302 392.758 118.236 392.758 118.151C392.758 118.066 392.826 118 392.905 118L515.63 118.094C515.713 118.094 515.776 118.16 515.776 118.245C515.776 118.33 515.713 118.396 515.63 118.396Z" fill="#312C2E"/>
<path d="M437.404 132.404H417.5V166.171H437.404V132.404Z" fill="#F3B63F"/>
<path d="M449.028 136.529L405.861 136.463C405.779 136.463 405.711 136.397 405.711 136.318C405.711 136.24 405.779 136.174 405.861 136.174L449.028 136.24C449.11 136.24 449.178 136.305 449.178 136.384C449.178 136.463 449.11 136.529 449.028 136.529Z" fill="#2D292A"/>
<path d="M443.971 146.251L410.916 146.238C410.834 146.238 410.766 146.173 410.766 146.094C410.766 146.015 410.834 145.949 410.916 145.949L443.971 145.962C444.053 145.962 444.121 146.028 444.121 146.107C444.121 146.186 444.053 146.251 443.971 146.251Z" fill="white"/>
<path d="M443.971 152.049L410.916 152.035C410.834 152.035 410.766 151.97 410.766 151.891C410.766 151.812 410.834 151.746 410.916 151.746L443.971 151.759C444.053 151.759 444.121 151.825 444.121 151.904C444.121 151.983 444.053 152.049 443.971 152.049Z" fill="white"/>
<path d="M443.971 157.57L410.916 157.557C410.834 157.557 410.766 157.491 410.766 157.412C410.766 157.333 410.834 157.268 410.916 157.268L443.971 157.281C444.053 157.281 444.121 157.346 444.121 157.425C444.121 157.504 444.053 157.57 443.971 157.57Z" fill="white"/>
<path d="M495.711 131.877L475.93 132.074L476.022 166.238L495.803 166.041L495.711 131.877Z" fill="#3E54D8"/>
<path d="M464.279 137.152C464.198 137.153 464.13 137.087 464.129 137.007C464.129 136.928 464.197 136.861 464.279 136.86L507.313 136.71C507.395 136.71 507.463 136.775 507.464 136.855C507.464 136.935 507.396 137.002 507.314 137.002L464.279 137.152Z" fill="#2D292A"/>
<path d="M469.369 146.067C469.288 146.068 469.219 146.002 469.219 145.922C469.219 145.842 469.287 145.775 469.369 145.774L502.322 145.62C502.404 145.62 502.472 145.685 502.472 145.765C502.472 145.845 502.404 145.912 502.323 145.913L469.369 146.067Z" fill="white"/>
<path d="M469.397 151.912C469.315 151.913 469.247 151.847 469.246 151.767C469.246 151.688 469.314 151.62 469.396 151.62L502.349 151.466C502.431 151.465 502.499 151.531 502.499 151.611C502.499 151.69 502.432 151.757 502.35 151.758L469.397 151.912Z" fill="white"/>
<path d="M469.428 157.451C469.346 157.452 469.278 157.386 469.278 157.306C469.278 157.227 469.345 157.159 469.427 157.159L502.38 157.005C502.462 157.004 502.53 157.07 502.531 157.149C502.531 157.229 502.463 157.297 502.381 157.297L469.428 157.451Z" fill="white"/>
<path d="M541.557 178.721H437.91V227.272H541.557V178.721Z" fill="white"/>
<path d="M541.558 227.417H437.911C437.828 227.417 437.762 227.351 437.762 227.272V178.721C437.762 178.642 437.828 178.576 437.911 178.576H541.558C541.64 178.576 541.707 178.642 541.707 178.721V227.272C541.707 227.351 541.64 227.417 541.558 227.417ZM438.06 227.121H541.412V178.865H438.06V227.121Z" fill="#292526"/>
<path d="M462.46 210.204C464.524 210.146 466.173 206.876 466.143 202.901C466.112 198.927 464.415 195.752 462.351 195.81C460.286 195.869 458.638 199.138 458.668 203.113C458.699 207.088 460.396 210.263 462.46 210.204Z" fill="#7C98F4"/>
<path fill-rule="evenodd" clip-rule="evenodd" d="M538.878 192.215C538.878 190.92 537.824 189.875 536.523 189.875C528.011 189.875 498.884 189.875 490.378 189.875C489.077 189.875 488.023 190.926 488.023 192.215C488.023 193.51 489.077 194.555 490.378 194.555C498.887 194.555 528.011 194.555 536.523 194.555C537.824 194.555 538.878 193.504 538.878 192.215Z" fill="#F0F0F2"/>
<path fill-rule="evenodd" clip-rule="evenodd" d="M538.878 203.463C538.878 202.168 537.824 201.123 536.523 201.123H490.378C489.077 201.123 488.023 202.174 488.023 203.463C488.023 204.759 489.077 205.803 490.378 205.803H536.523C537.824 205.803 538.878 204.759 538.878 203.463Z" fill="#F0F0F2"/>
<path fill-rule="evenodd" clip-rule="evenodd" d="M538.878 214.709C538.878 213.414 537.824 212.369 536.523 212.369C528.011 212.369 498.884 212.369 490.378 212.369C489.077 212.369 488.023 213.42 488.023 214.709C488.023 216.005 489.077 217.049 490.378 217.049C498.887 217.049 528.011 217.049 536.523 217.049C537.824 217.056 538.878 216.005 538.878 214.709Z" fill="#F0F0F2"/>
<path fill-rule="evenodd" clip-rule="evenodd" d="M404.645 237.803L461.946 237.655L462.313 274.478L405.023 274.601L404.645 237.803Z" fill="white"/>
<path d="M405.009 274.753C404.922 274.754 404.859 274.679 404.858 274.603L404.493 237.805C404.493 237.755 404.505 237.73 404.53 237.704C404.555 237.679 404.592 237.654 404.629 237.654L461.919 237.504C462.006 237.504 462.069 237.579 462.069 237.655L462.435 274.453C462.435 274.503 462.423 274.528 462.398 274.553C462.373 274.579 462.336 274.604 462.298 274.604L405.009 274.753C405.021 274.753 405.009 274.753 405.009 274.753ZM404.793 237.955L405.157 274.476L462.159 274.328L461.795 237.807L404.793 237.955Z" fill="#2D292A"/>
<path fill-rule="evenodd" clip-rule="evenodd" d="M404.934 237.998L433.923 255.148L461.65 237.97L404.934 237.998Z" fill="white"/>
<path d="M433.925 255.31C433.898 255.31 433.87 255.31 433.843 255.283L404.853 238.134C404.784 238.081 404.756 238 404.797 237.919C404.838 237.838 404.934 237.838 405.003 237.865L433.923 254.96L461.582 237.836C461.65 237.782 461.746 237.809 461.788 237.889C461.829 237.969 461.816 238.05 461.734 238.104L434.007 255.282C433.98 255.309 433.952 255.31 433.925 255.31Z" fill="#2D292A"/>
<path fill-rule="evenodd" clip-rule="evenodd" d="M508.291 242.67C508.291 241.004 506.936 239.66 505.265 239.66H475.175C473.501 239.66 472.148 241.012 472.148 242.67C472.148 244.327 473.501 245.679 475.175 245.679C481.985 245.679 498.453 245.679 505.265 245.679C506.936 245.679 508.291 244.335 508.291 242.67Z" fill="#F0F0F2"/>
<path fill-rule="evenodd" clip-rule="evenodd" d="M508.291 257.134C508.291 255.468 506.936 254.125 505.265 254.125C498.453 254.125 481.985 254.125 475.175 254.125C473.501 254.125 472.148 255.476 472.148 257.134C472.148 258.792 473.501 260.144 475.175 260.144C481.985 260.144 498.453 260.144 505.265 260.144C506.936 260.151 508.291 258.8 508.291 257.134Z" fill="#F0F0F2"/>
<path fill-rule="evenodd" clip-rule="evenodd" d="M508.291 271.603C508.291 269.937 506.936 268.594 505.265 268.594C498.453 268.594 481.985 268.594 475.175 268.594C473.501 268.594 472.148 269.945 472.148 271.603C472.148 273.269 473.501 274.612 475.175 274.612H505.265C506.936 274.612 508.291 273.261 508.291 271.603Z" fill="#F0F0F2"/>
<path d="M420.577 315.295C422.06 315.295 423.263 312.979 423.263 310.122C423.263 307.265 422.06 304.949 420.577 304.949C419.093 304.949 417.891 307.265 417.891 310.122C417.891 312.979 419.093 315.295 420.577 315.295Z" fill="white"/>
<path fill-rule="evenodd" clip-rule="evenodd" d="M423.243 306.838L410.148 323.316L418.819 331.991L435.567 319.149L435.615 305.572L423.243 306.838Z" fill="#3E54D8"/>
<path fill-rule="evenodd" clip-rule="evenodd" d="M420.578 292.43V310.121H438.622L437.319 296.932L420.578 292.43Z" fill="#F3B63F"/>
<path d="M420.58 323.46C413.187 323.46 407.176 317.478 407.176 310.121C407.176 302.763 413.19 296.781 420.58 296.781C427.969 296.781 433.984 302.763 433.984 310.121C433.984 317.478 427.972 323.46 420.58 323.46ZM420.58 297.076C413.353 297.076 407.47 302.931 407.47 310.121C407.47 317.311 413.35 323.165 420.58 323.165C427.81 323.165 433.689 317.311 433.689 310.121C433.689 302.931 427.807 297.076 420.58 297.076Z" fill="#2D292A"/>
<path d="M457.807 315.295C459.291 315.295 460.493 312.979 460.493 310.122C460.493 307.265 459.291 304.949 457.807 304.949C456.324 304.949 455.121 307.265 455.121 310.122C455.121 312.979 456.324 315.295 457.807 315.295Z" fill="white"/>
<path fill-rule="evenodd" clip-rule="evenodd" d="M457.805 292.43V310.121L471.059 299.256L457.805 292.43Z" fill="#F3B63F"/>
<path fill-rule="evenodd" clip-rule="evenodd" d="M457.807 310.121L448.02 323.316C448.02 323.316 468.116 325.663 469.377 325.749C470.641 325.842 471.061 323.316 471.061 323.316L457.807 310.121Z" fill="#3E54D8"/>
<path d="M457.806 323.46C450.414 323.46 444.402 317.478 444.402 310.121C444.402 302.763 450.417 296.781 457.806 296.781C465.195 296.781 471.21 302.763 471.21 310.121C471.213 317.478 465.198 323.46 457.806 323.46ZM457.806 297.076C450.579 297.076 444.696 302.931 444.696 310.121C444.696 317.311 450.576 323.165 457.806 323.165C465.036 323.165 470.916 317.311 470.916 310.121C470.916 302.931 465.033 297.076 457.806 297.076Z" fill="#2D292A"/>
<path d="M495.038 315.295C496.521 315.295 497.724 312.979 497.724 310.122C497.724 307.265 496.521 304.949 495.038 304.949C493.554 304.949 492.352 307.265 492.352 310.122C492.352 312.979 493.554 315.295 495.038 315.295Z" fill="white"/>
<path fill-rule="evenodd" clip-rule="evenodd" d="M495.035 292.43V310.121L500.705 293.956L495.035 292.43Z" fill="#F3B63F"/>
<path fill-rule="evenodd" clip-rule="evenodd" d="M495.037 310.12L485.25 323.315C485.25 323.315 505.347 325.662 506.607 325.748C507.871 325.841 510.389 300.162 510.389 300.162L503.978 292.793L497.811 296.925L495.037 310.12Z" fill="#3E54D8"/>
<path d="M495.037 323.46C487.644 323.46 481.633 317.478 481.633 310.121C481.633 302.763 487.647 296.781 495.037 296.781C502.426 296.781 508.441 302.763 508.441 310.121C508.441 317.478 502.426 323.46 495.037 323.46ZM495.037 297.076C487.81 297.076 481.927 302.931 481.927 310.121C481.927 317.311 487.807 323.165 495.037 323.165C502.267 323.165 508.146 317.311 508.146 310.121C508.146 302.931 502.264 297.076 495.037 297.076Z" fill="#2D292A"/>
<path d="M407.323 292.565C407.239 292.565 407.176 292.499 407.176 292.414C407.176 292.329 407.239 292.263 407.323 292.263L508.291 291.82C508.375 291.82 508.438 291.886 508.438 291.971C508.438 292.056 508.375 292.122 508.291 292.122L407.323 292.565Z" fill="#292526"/>
<path d="M76.256 333.388L210.992 333.404L210.994 237.865L76.2582 237.849L76.256 333.388Z" fill="white"/>
<path d="M210.995 333.536H76.2591C76.1764 333.536 76.1094 333.473 76.1094 333.392V237.853C76.1094 237.772 76.1764 237.709 76.2591 237.709H210.995C211.078 237.709 211.145 237.772 211.145 237.853V333.392C211.141 333.473 211.074 333.536 210.995 333.536ZM76.4048 333.248H210.846V238.006H76.4048V333.248Z" fill="#2D292A"/>
<path d="M210.991 255.526H76.2562C76.173 255.526 76.1094 255.46 76.1094 255.376C76.1094 255.291 76.1779 255.225 76.2562 255.225H210.991C211.074 255.225 211.137 255.291 211.137 255.376C211.142 255.46 211.074 255.526 210.991 255.526Z" fill="#2D292A"/>
<path d="M96.2288 267.783H85.7305V312.738H96.2288V267.783Z" fill="#3E54D8"/>
<path d="M113.084 281.602H102.586V312.738H113.084V281.602Z" fill="#3E54D8"/>
<path d="M129.936 294.641H119.438V312.739H129.936V294.641Z" fill="#3E54D8"/>
<path d="M146.787 303.689H136.289V312.739H146.787V303.689Z" fill="#3E54D8"/>
<path d="M179.618 304.667C183.826 304.667 187.237 298.099 187.237 289.997C187.237 281.894 183.826 275.326 179.618 275.326C175.411 275.326 172 281.894 172 289.997C172 298.099 175.411 304.667 179.618 304.667Z" fill="white"/>
<path fill-rule="evenodd" clip-rule="evenodd" d="M179.613 260.199V289.998L201.942 267.783H207.811L179.613 260.199Z" fill="#F3B63F"/>
<path fill-rule="evenodd" clip-rule="evenodd" d="M179.613 289.998L205.112 304.591L207.129 271.531L201.942 267.783L179.613 289.998Z" fill="#3E54D8"/>
<path d="M179.62 312.369C167.225 312.369 157.145 302.332 157.145 289.998C157.145 277.664 167.23 267.627 179.62 267.627C192.016 267.627 202.096 277.664 202.096 289.998C202.101 302.332 192.016 312.369 179.62 312.369ZM179.62 267.929C167.392 267.929 157.438 277.829 157.438 289.998C157.438 302.167 167.386 312.067 179.62 312.067C191.849 312.067 201.802 302.167 201.802 289.998C201.802 277.829 191.854 267.929 179.62 267.929Z" fill="#2D292A"/>
<path d="M210.994 112.068H76.2578V184.373H210.994V112.068Z" fill="white"/>
<path d="M210.995 184.522H76.2591C76.1764 184.522 76.1094 184.454 76.1094 184.372V112.068C76.1094 111.986 76.1764 111.918 76.2591 111.918H210.995C211.078 111.918 211.145 111.986 211.145 112.068V184.372C211.141 184.454 211.074 184.522 210.995 184.522ZM76.4048 184.222H210.846V112.218H76.4048V184.222Z" fill="#2D292A"/>
<path d="M210.99 129.739H76.2562C76.173 129.739 76.1094 129.673 76.1094 129.588C76.1094 129.504 76.1779 129.438 76.2562 129.438H210.99C211.074 129.438 211.137 129.504 211.137 129.588C211.137 129.673 211.074 129.739 210.99 129.739Z" fill="#2D292A"/>
<path fill-rule="evenodd" clip-rule="evenodd" d="M196.537 142.011C196.537 140.551 195.347 139.373 193.881 139.373H135.847C134.381 139.373 133.191 140.558 133.191 142.011C133.191 143.465 134.381 144.65 135.847 144.65H193.881C195.347 144.65 196.537 143.472 196.537 142.011Z" fill="#F0F0F2"/>
<path fill-rule="evenodd" clip-rule="evenodd" d="M196.537 154.691C196.537 153.231 195.347 152.053 193.881 152.053H135.847C134.381 152.053 133.191 153.237 133.191 154.691C133.191 156.151 134.381 157.329 135.847 157.329C146.162 157.329 183.563 157.329 193.881 157.329C195.347 157.336 196.537 156.151 196.537 154.691Z" fill="#F0F0F2"/>
<path fill-rule="evenodd" clip-rule="evenodd" d="M196.537 167.379C196.537 165.918 195.347 164.74 193.881 164.74C183.563 164.74 146.162 164.74 135.847 164.74C134.381 164.74 133.191 165.925 133.191 167.379C133.191 168.839 134.381 170.017 135.847 170.017H193.881C195.347 170.017 196.537 168.832 196.537 167.379Z" fill="#F0F0F2"/>
<path d="M101.589 148.992H70.9727V200.938H101.589V148.992Z" fill="#F3B63F"/>
<path d="M113.047 159.098L59.5034 159.016C59.4187 159.016 59.3594 158.951 59.3594 158.869C59.3594 158.788 59.4271 158.723 59.5034 158.723L113.047 158.804C113.131 158.804 113.191 158.869 113.191 158.951C113.199 159.032 113.131 159.098 113.047 159.098Z" fill="#2D292A"/>
<path d="M106.781 171.156L65.7807 171.139C65.696 171.139 65.6367 171.074 65.6367 170.993C65.6367 170.911 65.7045 170.846 65.7807 170.846L106.781 170.862C106.866 170.862 106.925 170.927 106.925 171.009C106.925 171.09 106.857 171.156 106.781 171.156Z" fill="white"/>
<path d="M106.781 178.345L65.7807 178.329C65.696 178.329 65.6367 178.264 65.6367 178.182C65.6367 178.1 65.7045 178.035 65.7807 178.035L106.781 178.052C106.866 178.052 106.925 178.117 106.925 178.198C106.925 178.28 106.857 178.345 106.781 178.345Z" fill="white"/>
<path d="M106.781 185.195L65.7807 185.179C65.696 185.179 65.6367 185.113 65.6367 185.032C65.6367 184.95 65.7045 184.885 65.7807 184.885L106.781 184.901C106.866 184.901 106.925 184.966 106.925 185.048C106.925 185.129 106.857 185.195 106.781 185.195Z" fill="white"/>
<path d="M418.918 139.084H184.516V264.873H418.918V139.084Z" fill="white"/>
<path d="M418.92 265.015H184.518C184.436 265.015 184.367 264.944 184.367 264.873V139.084C184.367 139.001 184.436 138.941 184.518 138.941H418.92C419.002 138.941 419.071 139.013 419.071 139.084V264.873C419.071 264.944 419.002 265.015 418.92 265.015ZM184.669 264.718H418.776V139.226H184.669V264.718Z" fill="#2D292A"/>
<path d="M419 157.381H184.602C184.517 157.381 184.457 157.316 184.457 157.234C184.457 157.152 184.525 157.086 184.602 157.086H419C419.086 157.086 419.145 157.152 419.145 157.234C419.145 157.316 419.077 157.381 419 157.381Z" fill="#2D292A"/>
<path fill-rule="evenodd" clip-rule="evenodd" d="M243.548 195.277C243.434 185.833 235.709 178.24 226.227 178.24H167.353C157.783 178.24 150.031 185.954 150.031 195.485V206.459C150.031 211.043 151.86 215.436 155.127 218.671C158.387 221.905 162.808 223.721 167.408 223.704C184.223 223.652 209.563 223.566 226.412 223.514C231.033 223.505 235.459 221.646 238.698 218.368C241.942 215.09 243.733 210.654 243.679 206.062C243.635 202.516 243.592 198.797 243.548 195.277Z" fill="#3E54D8"/>
<path d="M167.346 223.844C162.763 223.844 158.272 221.993 155.022 218.767C151.706 215.49 149.883 211.113 149.883 206.452V195.477C149.883 185.887 157.722 178.086 167.357 178.086H226.23C230.858 178.086 235.218 179.867 238.511 183.102C241.805 186.336 243.65 190.66 243.705 195.261C243.743 198.781 243.792 202.509 243.835 206.046C243.89 210.655 242.055 215.187 238.811 218.464C235.566 221.751 231.048 223.636 226.416 223.653L167.411 223.844C167.384 223.844 167.363 223.844 167.346 223.844ZM167.352 178.389C157.88 178.389 150.177 186.06 150.177 195.477V206.452C150.177 211.036 151.973 215.334 155.228 218.56C158.44 221.751 162.882 223.567 167.406 223.55L226.41 223.359C230.961 223.351 235.403 221.491 238.593 218.266C241.783 215.04 243.585 210.595 243.536 206.063C243.492 202.526 243.443 198.807 243.405 195.279C243.296 185.965 235.588 178.389 226.23 178.389H167.352Z" fill="#292526"/>
<path d="M193.031 211.935L159.593 211.883C159.513 211.883 159.448 211.824 159.447 211.736L159.325 190.262C159.325 190.218 159.339 190.189 159.368 190.16C159.397 190.13 159.434 190.116 159.47 190.116L192.907 190.168C192.987 190.168 193.053 190.227 193.053 190.315L193.176 211.789C193.176 211.833 193.162 211.862 193.133 211.891C193.111 211.921 193.074 211.935 193.031 211.935ZM159.746 211.576L192.884 211.626L192.762 190.446L159.624 190.395L159.746 211.576Z" fill="white"/>
<path d="M176.512 200.593C176.488 200.593 176.456 200.593 176.432 200.577L159.554 190.497C159.482 190.449 159.458 190.371 159.506 190.292C159.546 190.23 159.642 190.199 159.706 190.246L176.504 200.279L192.649 190.37C192.721 190.323 192.809 190.355 192.849 190.418C192.889 190.481 192.874 190.575 192.802 190.622L176.576 200.577C176.569 200.593 176.536 200.593 176.512 200.593Z" fill="white"/>
<path fill-rule="evenodd" clip-rule="evenodd" d="M236.249 191.893C236.249 191.051 235.566 190.367 234.718 190.367H200.914C200.066 190.367 199.383 191.051 199.383 191.893C199.383 192.734 200.066 193.418 200.914 193.418C206.911 193.418 228.721 193.418 234.718 193.418C235.566 193.427 236.249 192.743 236.249 191.893Z" fill="white" fill-opacity="0.62"/>
<path fill-rule="evenodd" clip-rule="evenodd" d="M222.252 198.016C222.252 197.174 221.566 196.49 220.718 196.49H200.914C200.07 196.49 199.383 197.174 199.383 198.016C199.383 198.857 200.07 199.541 200.914 199.541H220.718C221.568 199.541 222.252 198.866 222.252 198.016Z" fill="white" fill-opacity="0.62"/>
<path fill-rule="evenodd" clip-rule="evenodd" d="M232.227 204.139C232.227 203.297 231.54 202.613 230.693 202.613H200.913C200.067 202.613 199.383 203.297 199.383 204.139C199.383 204.98 200.067 205.664 200.913 205.664H230.693C231.54 205.664 232.227 204.98 232.227 204.139Z" fill="white" fill-opacity="0.62"/>
<path fill-rule="evenodd" clip-rule="evenodd" d="M232.227 210.261C232.227 209.42 231.54 208.736 230.693 208.736H200.913C200.067 208.736 199.383 209.42 199.383 210.261C199.383 211.103 200.067 211.787 200.913 211.787C206.423 211.787 225.184 211.787 230.693 211.787C231.54 211.787 232.227 211.103 232.227 210.261Z" fill="white" fill-opacity="0.62"/>
<path d="M414.625 207.305H291.648V253.44H414.625V207.305Z" fill="white"/>
<path d="M414.623 253.58H291.647C291.568 253.58 291.496 253.51 291.496 253.431V207.295C291.496 207.217 291.561 207.146 291.647 207.146H414.623C414.702 207.146 414.774 207.217 414.774 207.295V253.431C414.774 253.518 414.702 253.58 414.623 253.58ZM291.79 253.291H414.473V207.453H291.79V253.291Z" fill="#292526"/>
<path d="M299.034 245.672C298.998 245.672 298.961 245.664 298.934 245.637C298.875 245.585 298.87 245.488 298.925 245.427C298.961 245.392 302.389 241.605 306.932 237.862C313.046 232.821 318.153 230.253 322.109 230.218C326.237 230.183 330.421 232.962 334.85 235.916C340.636 239.764 346.622 243.752 353.086 241.85C359.24 240.036 362.595 234.881 365.84 229.894C368.549 225.73 371.103 221.803 375.027 220.637C382.428 218.436 386.534 221.382 390.158 223.977C392.566 225.704 394.837 227.334 397.832 227.413C397.924 227.413 398.01 227.413 398.096 227.413C404.993 227.413 409.581 220.26 409.627 220.19C409.672 220.119 409.763 220.102 409.832 220.146C409.9 220.19 409.923 220.277 409.877 220.347C409.832 220.418 405.157 227.711 398.096 227.711C398.005 227.711 397.914 227.711 397.823 227.711C394.742 227.623 392.429 225.975 389.985 224.222C386.243 221.54 382.369 218.761 375.108 220.926C371.289 222.066 368.763 225.949 366.086 230.06C362.964 234.864 359.427 240.299 353.167 242.14C351.984 242.49 350.819 242.648 349.672 242.648C344.409 242.648 339.479 239.37 334.682 236.17C330.293 233.251 326.146 230.481 322.109 230.525C312.827 230.612 299.28 245.479 299.144 245.637C299.116 245.655 299.075 245.672 299.034 245.672Z" fill="#2D292A"/>
<path d="M414.62 216.286H291.643C291.564 216.286 291.492 216.216 291.492 216.137C291.492 216.059 291.557 215.988 291.643 215.988H414.62C414.698 215.988 414.77 216.059 414.77 216.137C414.77 216.225 414.698 216.286 414.62 216.286Z" fill="#292526"/>
<path d="M356.803 377.538L337.227 381.313L326.17 313.733L350.916 313.786L356.803 377.538Z" fill="#FFB693"/>
<path fill-rule="evenodd" clip-rule="evenodd" d="M356.805 360.223L356.804 363.952L332.083 362.551L356.805 360.223Z" fill="#2D292A"/>
<path d="M357.995 389.842L356.685 373.954C355.776 373.291 351.094 369.177 346.264 369.418C342.052 369.634 337.635 374.169 336.734 374.221V374.35L336.874 390.625L357.995 389.842Z" fill="white"/>
<path d="M336.876 390.781C336.84 390.781 336.803 390.764 336.774 390.738C336.745 390.712 336.729 390.669 336.729 390.635L336.59 374.222C336.59 374.144 336.651 374.076 336.729 374.076C336.966 374.058 337.646 373.568 338.428 372.991C340.38 371.571 343.327 369.411 346.258 369.265C350.654 369.041 354.973 372.423 356.389 373.533C356.553 373.662 356.68 373.766 356.774 373.826C356.807 373.852 356.831 373.886 356.835 373.929L358.145 389.817C358.149 389.86 358.137 389.894 358.108 389.929C358.08 389.955 358.043 389.981 358.002 389.981L336.88 390.772C336.88 390.781 336.88 390.781 336.876 390.781ZM336.885 374.351V374.36L337.024 390.48L357.838 389.696L356.545 374.033C356.459 373.964 356.344 373.878 356.209 373.774C354.813 372.681 350.56 369.351 346.275 369.566C343.434 369.712 340.528 371.829 338.604 373.232C337.732 373.878 337.212 374.248 336.885 374.351Z" fill="#292526"/>
<path d="M337.917 391.525C337.912 391.525 337.903 391.525 337.898 391.525C337.816 391.516 337.761 391.437 337.771 391.358C337.775 391.332 338.095 388.87 339.432 386.426C340.674 384.158 343.062 381.432 347.408 381.353C350.791 381.292 353.649 382.98 355.662 386.233C357.173 388.677 357.689 391.182 357.694 391.2C357.712 391.279 357.657 391.358 357.58 391.376C357.502 391.393 357.42 391.341 357.406 391.261C357.402 391.235 356.895 388.782 355.407 386.382C353.425 383.182 350.736 381.582 347.413 381.643C344.043 381.705 341.446 383.358 339.697 386.549C338.382 388.949 338.067 391.367 338.063 391.384C338.054 391.472 337.99 391.525 337.917 391.525Z" fill="#292526"/>
<path fill-rule="evenodd" clip-rule="evenodd" d="M342.262 374.274C341.911 369.785 344.546 367.12 347.323 367.325C350.099 367.523 351.898 370.768 351.88 375.122C351.86 379.724 342.721 380.148 342.262 374.274Z" fill="#5E81F2"/>
<path d="M347.38 378.777C344.969 378.777 342.357 377.398 342.114 374.288C341.928 371.899 342.557 369.856 343.89 368.52C344.846 367.566 346.069 367.085 347.335 367.177C350.163 367.382 352.049 370.57 352.029 375.122C352.018 377.519 349.729 378.699 347.607 378.777C347.53 378.77 347.454 378.777 347.38 378.777ZM347.029 367.46C345.952 367.46 344.92 367.905 344.099 368.725C342.829 369.998 342.229 371.963 342.409 374.26C342.643 377.278 345.259 378.558 347.595 378.473C349.581 378.402 351.721 377.321 351.732 375.115C351.752 370.733 349.976 367.658 347.312 367.467C347.218 367.46 347.123 367.46 347.029 367.46Z" fill="#292526"/>
<path d="M337.597 388.223C337.597 388.223 336.889 388.215 336.848 388.215C336.909 388.232 336.868 389.824 336.868 389.936C336.872 390.392 336.876 390.857 336.876 391.313C336.893 392.518 336.93 393.646 338.059 394.231C338.931 394.687 340.237 394.782 340.978 393.99C341.326 393.62 341.678 393.052 342.202 393.043C342.726 393.034 342.979 393.353 343.307 393.749C343.663 394.188 344.072 394.687 344.871 394.678C345.681 394.67 346.078 394.162 346.422 393.714C346.741 393.31 346.991 392.991 347.515 392.983C348.039 392.974 348.301 393.293 348.62 393.689C348.976 394.128 349.385 394.627 350.188 394.618C350.99 394.609 351.387 394.102 351.739 393.654C352.058 393.25 352.304 392.931 352.832 392.923C353.356 392.914 353.61 393.232 353.937 393.628C354.293 394.067 354.694 394.566 355.505 394.558C356.307 394.549 356.704 394.041 357.052 393.594C357.371 393.189 357.621 392.871 358.145 392.862L357.99 388.284L337.597 388.223Z" fill="#292526"/>
<path d="M362.415 389.479L336.616 389.617C336.524 389.615 336.456 389.539 336.459 389.452C336.461 389.366 336.533 389.269 336.62 389.284L362.42 389.145C362.511 389.147 362.579 389.224 362.577 389.31C362.575 389.396 362.507 389.48 362.415 389.479Z" fill="white"/>
<path d="M340.583 218.406L348.363 291.316L358.466 360.914L329.129 363.322L322.673 297.229L310.998 218.142L340.583 218.406Z" fill="#7C98F4"/>
<path fill-rule="evenodd" clip-rule="evenodd" d="M319.101 248.189L322.918 301.252L308.23 264.642L319.101 248.189Z" fill="#2D292A"/>
<path d="M278.682 378.178L298.257 381.954L309.304 314.371L284.558 314.425L278.682 378.178Z" fill="#FFB693"/>
<path fill-rule="evenodd" clip-rule="evenodd" d="M303.071 363.225L276.34 360.525L302.949 369.297L303.071 363.225Z" fill="#2D292A"/>
<path d="M261.225 381.734C262.411 380.887 263.746 380.247 265.176 379.773C268.225 378.799 272.818 377.4 274.499 376.784C275.626 376.375 276.569 374.264 277.161 373.322L278.777 370.036L278.803 370.029C280.786 368.579 283.654 368.598 285.636 370.057L287.757 372.005C289.129 373.273 291.39 373.335 292.843 372.175C294.493 370.831 299.013 370.186 301.261 370.296L301.264 370.44L301.112 389.406C301.112 389.406 298.785 389.494 295.225 389.606C283.821 389.969 259.789 390.614 259.272 389.553C258.82 388.608 259.064 387.231 259.235 386.252C259.479 384.696 259.863 382.915 261.225 381.734Z" fill="white"/>
<path d="M291.615 390.569C291.604 390.569 291.594 390.569 291.589 390.569C291.509 390.549 291.456 390.477 291.472 390.395C291.477 390.375 291.981 387.91 293.575 385.057C295.047 382.419 297.785 378.882 302.436 377.026C302.511 376.996 302.601 377.037 302.628 377.108C302.66 377.18 302.622 377.272 302.548 377.303C293.797 380.791 291.78 390.365 291.764 390.457C291.748 390.518 291.684 390.569 291.615 390.569Z" fill="#292526"/>
<path fill-rule="evenodd" clip-rule="evenodd" d="M301.199 379.169C301.199 379.169 296.513 370.648 300.316 369.091C302.848 368.046 301.199 379.169 301.199 379.169Z" fill="#5E81F2"/>
<path d="M301.197 379.325C301.144 379.325 301.096 379.294 301.07 379.253C300.937 379.018 297.852 373.353 298.894 370.424C299.139 369.728 299.602 369.236 300.261 368.97C300.655 368.806 300.931 368.929 301.091 369.052C302.655 370.27 301.4 378.843 301.346 379.212C301.336 379.274 301.288 379.325 301.224 379.335C301.213 379.325 301.203 379.325 301.197 379.325ZM300.628 369.174C300.549 369.174 300.463 369.195 300.368 369.236C299.788 369.471 299.384 369.902 299.166 370.516C298.325 372.892 300.421 377.338 301.112 378.7C301.479 375.996 302.022 370.137 300.905 369.267C300.82 369.205 300.729 369.174 300.628 369.174Z" fill="#292526"/>
<path d="M257.74 391.032C257.74 390.854 257.734 390.654 257.744 390.462C257.749 389.269 257.77 388.082 257.775 386.888L258.252 386.878L300.247 386.599C300.247 386.599 301.079 386.599 301.122 386.6C301.053 386.606 301.102 388.466 301.096 388.624C301.095 389.159 301.084 389.708 301.083 390.243C301.075 391.65 301.024 392.967 299.711 393.634C298.692 394.16 297.178 394.277 296.309 393.349C295.901 392.907 295.498 392.251 294.878 392.252C294.268 392.24 293.961 392.608 293.585 393.071C293.17 393.589 292.689 394.168 291.756 394.159C290.823 394.151 290.354 393.556 289.947 393.024C289.575 392.561 289.289 392.188 288.679 392.176C288.069 392.163 287.761 392.531 287.386 392.994C286.97 393.512 286.5 394.077 285.557 394.083C284.624 394.074 284.155 393.48 283.748 392.948C283.376 392.485 283.09 392.112 282.48 392.099C281.87 392.087 281.562 392.455 281.186 392.918C280.771 393.436 280.301 394.001 279.358 394.006C278.424 393.998 277.956 393.403 277.548 392.871C277.177 392.408 276.891 392.035 276.281 392.023C275.67 392.01 275.363 392.378 274.987 392.841C274.572 393.359 274.101 393.924 273.158 393.93C272.225 393.921 271.756 393.327 271.349 392.795C270.978 392.332 270.692 391.959 270.081 391.946C269.471 391.934 269.164 392.302 268.788 392.765C268.373 393.283 267.892 393.861 266.959 393.853C266.026 393.845 265.557 393.25 265.15 392.718C264.779 392.255 264.492 391.882 263.882 391.87C263.272 391.857 262.965 392.225 262.589 392.688C261.955 393.451 261.22 393.849 260.245 393.751C258.94 393.637 257.773 392.528 257.74 391.032Z" fill="#292526"/>
<path d="M273.136 376.338C273.136 376.338 276.824 368.866 277.923 365.509C279.022 362.153 284.603 362.425 283.193 368.213C281.782 374.001 279.132 377.781 276.64 377.825C274.141 377.85 273.136 376.338 273.136 376.338Z" fill="#5E81F2"/>
<path d="M276.535 377.953C274.055 377.949 273.057 376.456 273.01 376.406C272.98 376.362 272.975 376.307 273.004 376.263C273.034 376.184 276.703 368.741 277.781 365.449C278.379 363.618 280.21 362.91 281.563 363.292C282.915 363.673 284.08 365.182 283.33 368.239C281.92 374.027 279.227 377.935 276.627 377.964C276.601 377.974 276.568 377.964 276.535 377.953ZM273.312 376.305C273.535 376.604 274.552 377.695 276.632 377.647C279.098 377.612 281.666 373.808 283.05 368.153C283.753 365.293 282.705 363.909 281.485 363.568C280.264 363.227 278.614 363.867 278.068 365.555C277.035 368.684 273.713 375.492 273.312 376.305Z" fill="#292526"/>
<path d="M257.934 388.455L301.277 388.29C301.43 388.285 301.545 388.155 301.542 388.011C301.548 387.853 301.418 387.708 301.271 387.734L257.931 387.864C257.788 387.856 257.664 387.999 257.667 388.143C257.666 388.322 257.79 388.446 257.934 388.455Z" fill="white"/>
<path d="M273.183 364.384C273.666 364.395 274.09 364.577 274.451 364.964C275.946 366.535 276.028 370.783 275.999 372.484C274.42 370.466 271.563 366.4 272.096 364.916C272.211 364.608 272.482 364.439 272.945 364.388C273.03 364.389 273.115 364.39 273.183 364.384ZM276.239 373.515C276.265 373.508 276.297 373.522 276.333 373.502C276.431 373.455 276.5 373.359 276.51 373.257C276.527 372.996 276.879 366.722 274.83 364.556C274.299 363.989 273.644 363.743 272.907 363.819C272.238 363.888 271.794 364.179 271.608 364.706C270.795 366.962 275.512 372.774 276.053 373.417C276.089 373.486 276.17 373.521 276.239 373.515Z" fill="#292526"/>
<path d="M282.824 366.918C283.121 366.921 283.401 367.006 283.691 367.166C284.102 367.396 284.304 367.68 284.297 368.016C284.268 369.629 280.208 372.187 278.046 373.382C278.617 371.788 280.173 367.903 282.106 367.056C282.344 366.962 282.579 366.902 282.824 366.918ZM277.546 374.256C277.588 374.256 277.624 374.236 277.667 374.236C278.392 373.852 284.783 370.457 284.822 368.027C284.826 367.458 284.53 367.009 283.937 366.647C283.278 366.257 282.593 366.23 281.894 366.519C279.236 367.662 277.371 373.609 277.295 373.862C277.259 373.972 277.298 374.096 277.376 374.165C277.428 374.241 277.487 374.249 277.546 374.256Z" fill="#292526"/>
<path fill-rule="evenodd" clip-rule="evenodd" d="M293.427 225.353L274.99 361.512L305.736 364.228L310.148 299.037C310.148 299.037 314.947 267.978 318.435 261.873C323.282 253.396 323.737 248.763 323.737 248.763L322.312 220.726L293.427 225.353Z" fill="#7C98F4"/>
<path d="M306.504 253.637C303.424 253.638 299.852 252.906 298.577 251.616C296.399 249.411 298.868 239.18 298.977 238.744C298.994 238.68 299.052 238.63 299.119 238.628L312.431 238.597C312.506 238.595 312.565 238.649 312.579 238.721C312.639 239.121 313.994 248.512 312.1 251.868C311.51 252.919 309.855 253.34 308.576 253.51C307.94 253.599 307.235 253.633 306.504 253.637ZM299.237 238.922C298.968 240.06 296.845 249.44 298.789 251.402C300.154 252.786 304.98 253.685 308.539 253.214C310.258 252.984 311.431 252.455 311.845 251.722C313.571 248.66 312.463 240.032 312.303 238.889L299.237 238.922Z" fill="#2D292A"/>
<path d="M307.005 242.147C302.309 242.15 298.672 241.634 298.623 241.632C298.54 241.622 298.487 241.544 298.498 241.462C298.509 241.381 298.583 241.328 298.666 241.338C298.734 241.347 305.637 242.317 312.713 241.567C312.796 241.559 312.869 241.619 312.878 241.701C312.886 241.783 312.827 241.856 312.748 241.865C310.767 242.069 308.807 242.149 307.005 242.147Z" fill="#2D292A"/>
<path d="M331.876 253.298C329.302 253.294 326.648 252.796 325.542 251.795C323.28 249.752 324.878 239.357 324.948 238.909C324.958 238.843 325.016 238.792 325.081 238.789L337.909 237.798C337.982 237.793 338.049 237.838 338.066 237.916C338.153 238.312 340.172 247.593 338.607 251.076C338.109 252.18 336.508 252.725 335.253 252.984C334.25 253.199 333.07 253.307 331.876 253.298ZM325.224 239.079C325.053 240.238 323.717 249.757 325.74 251.583C327.135 252.848 331.816 253.405 335.188 252.705C336.867 252.356 337.985 251.742 338.334 250.963C339.765 247.777 338.041 239.251 337.802 238.107L325.224 239.079Z" fill="#2D292A"/>
<path d="M327.971 241.934C326.065 241.935 324.849 241.848 324.821 241.845C324.74 241.84 324.677 241.771 324.684 241.688C324.691 241.605 324.761 241.548 324.841 241.552C324.908 241.558 331.633 242.017 338.402 240.755C338.482 240.741 338.559 240.79 338.576 240.87C338.592 240.951 338.537 241.025 338.457 241.04C334.514 241.78 330.593 241.932 327.971 241.934Z" fill="#2D292A"/>
<path d="M343.556 170.51L342.869 231.389L290.032 232.835C291.893 217.867 299.111 170.275 299.111 170.275L343.556 170.51Z" fill="#DE4355"/>
<path d="M340.231 181.111C343.218 177.214 348.757 176.646 351.531 179.971L370.535 203.699C371.978 205.464 378.997 215.054 373.548 219.564C372.634 220.312 368.194 225.343 362.498 220.671L345.777 204.758L336.632 190.003C334.497 187.636 338.048 183.969 340.231 181.111Z" fill="#FFB693"/>
<path d="M349.902 209.416L354.348 214.617L364.512 195.369L349.902 209.416Z" fill="#292526"/>
<path d="M349.833 212.455L364.854 195.142L348.424 174.022C345.284 169.946 339.93 169.414 335.742 172.973C331.558 176.551 329.83 184.784 331.317 188.272C333.858 194.275 349.833 212.455 349.833 212.455Z" fill="#DE4355"/>
<path d="M349.82 212.586C349.784 212.584 349.752 212.569 349.719 212.553C349.659 212.498 349.648 212.412 349.705 212.344L364.665 195.13L349.866 176.194C349.814 176.131 349.827 176.037 349.894 175.993C349.96 175.949 350.052 175.959 350.103 176.022L364.975 195.055C365.021 195.112 365.019 195.187 364.971 195.247L349.934 212.556C349.902 212.572 349.861 212.594 349.82 212.586Z" fill="#2D292A"/>
<path d="M399.188 198.403L394.392 195.922L389.817 188.263L369.618 201.763C368.938 202.297 366.658 203.924 364.91 205.164C363.4 206.247 362.366 207.87 362.022 209.698C361.491 212.51 361.132 216.647 362.813 219.271C363.814 220.835 365.439 221.884 367.277 222.159C369.114 222.434 370.984 221.915 372.411 220.718C379.927 214.44 398.85 198.612 399.188 198.403Z" fill="#FFB693"/>
<path d="M394.081 200.146C394.081 200.146 397.568 197.444 400.019 195.54C400.853 194.902 402.749 192.779 402.4 192.532C401.909 192.155 401.703 191.709 401.122 192.389C401.122 192.389 402.301 191.277 401.582 189.96C400.854 188.626 399.183 189.804 399.183 189.804C399.183 189.804 400.807 188.523 399.978 187.18C399.391 186.237 398.073 186.008 397.401 186.728C397.401 186.728 397.993 183.247 396.217 184.169C393.858 185.41 387.556 189.439 387.556 189.439L394.081 200.146Z" fill="#FFB693"/>
<path d="M395.883 200.495C395.883 200.495 397.955 199.103 398.951 198.439C402.275 196.221 407.341 191.566 405.947 186.317C405.536 184.756 395.259 197.152 395.259 197.152L395.883 200.495Z" fill="#FFB693"/>
<path d="M401.945 191.943C401.945 191.943 409.062 184.641 405.872 182.423C404.047 181.158 400.28 189.022 400.28 189.022L401.945 191.943Z" fill="#FFB693"/>
<path d="M388.135 193.95C388.135 193.95 383.23 193.573 384.727 192.355C389.757 188.25 390.993 177.692 392.542 178.501C396.521 180.594 390.682 192.258 391.917 193.644C393.147 195.059 388.135 193.95 388.135 193.95Z" fill="#FFB693"/>
<path d="M392.361 187.305C392.361 187.305 396.184 182.513 396.694 181.426C397.443 179.816 399.93 176.155 401.049 177.002C403.22 178.641 400.762 181.281 399.939 182.952C399.32 184.184 398.213 186.028 399.039 186.432C399.854 186.831 399.199 186.701 399.199 186.701C399.199 186.701 398.504 187.181 398.024 187.003C397.544 186.826 394.912 191.406 394.912 191.406L392.361 187.305Z" fill="#FFB693"/>
<path d="M397.846 189.132C397.846 189.132 397.429 187.655 398.169 186.404C398.908 185.153 402.675 177.876 403.924 178.265C407.265 179.292 401.426 187.159 401.286 188.107C401.155 189.084 399.207 191.519 399.207 191.519L397.846 189.132Z" fill="#FFB693"/>
<path d="M399.08 190.429L398.867 190.23C398.867 190.23 400.943 188.042 401.712 187.244C401.897 187.052 402.059 186.836 402.194 186.607C405.632 180.884 404.445 179.201 404.435 179.184C404.386 179.119 404.398 179.028 404.464 178.982C404.53 178.937 404.619 178.943 404.667 179.009C404.724 179.072 406.027 180.823 402.449 186.766C402.302 187.008 402.127 187.246 401.93 187.452C401.156 188.241 399.08 190.429 399.08 190.429Z" fill="#292526"/>
<path d="M400.924 193.214C400.886 193.214 400.844 193.206 400.81 193.165C400.753 193.102 400.765 193.012 400.826 192.957C400.849 192.932 403.053 190.974 403.87 189.707C403.984 189.522 404.123 189.331 404.288 189.105C405.263 187.711 406.903 185.39 406.112 182.974C406.087 182.902 406.128 182.814 406.205 182.785C406.281 182.756 406.366 182.803 406.39 182.874C407.224 185.425 405.535 187.836 404.526 189.268C404.367 189.503 404.228 189.694 404.116 189.868C403.277 191.16 401.112 193.089 401.02 193.171C400.997 193.196 400.962 193.215 400.924 193.214Z" fill="#292526"/>
<path d="M300.212 180.848C297.224 176.952 291.685 176.384 288.912 179.709L268.144 204.337C266.701 206.102 257.904 219.848 265.239 224.305C266.506 225.071 272.248 225.081 277.935 220.4L294.656 204.487L303.801 189.731C305.942 187.39 302.403 183.716 300.212 180.848Z" fill="#FFB693"/>
<path d="M290.535 209.166L286.089 214.367L275.926 195.119L290.535 209.166Z" fill="#292526"/>
<path d="M290.608 212.188L275.587 194.875L292.017 173.754C295.157 169.678 300.512 169.147 304.7 172.706C308.883 176.283 310.612 184.517 309.125 188.004C306.579 194.026 290.608 212.188 290.608 212.188Z" fill="#DE4355"/>
<path d="M247.867 185.61L253.16 186.181L260.728 182.203L272.28 204.351C272.648 205.285 273.783 208.829 274.512 211.119C274.967 212.513 274.982 214.004 274.562 215.406C273.753 218.112 272.043 222.429 269.109 223.847C267.497 224.622 265.628 224.681 263.968 224.013C262.309 223.336 261.013 221.991 260.411 220.315C257.125 211.171 248.065 185.982 247.867 185.61Z" fill="#FFB693"/>
<path d="M251.431 189.945C251.431 189.945 249.735 185.688 248.532 182.681C248.126 181.661 247.499 178.789 247.924 178.77C248.521 178.742 248.914 178.463 249.081 179.379C249.081 179.379 248.593 177.781 249.845 177.03C251.1 176.298 251.984 178.236 251.984 178.236C251.984 178.236 251.199 176.244 252.548 175.547C253.501 175.067 254.743 175.607 254.974 176.595C254.974 176.595 256.133 173.28 257.201 175.073C258.641 177.456 262.116 184.426 262.116 184.426L251.431 189.945Z" fill="#FFB693"/>
<path d="M249.727 189.202C249.727 189.202 248.607 186.841 248.073 185.731C246.284 181.96 244.16 175.149 247.843 171.444C248.938 170.359 251.846 186.696 251.846 186.696L249.727 189.202Z" fill="#FFB693"/>
<path d="M248.616 178.479C248.616 178.479 246.004 168.224 249.775 168.143C251.943 168.078 251.423 176.916 251.423 176.916L248.616 178.479Z" fill="#FFB693"/>
<path d="M259.459 187.97C259.459 187.97 263.847 190.398 263.146 188.539C260.786 182.219 264.771 172.473 263.042 172.304C258.632 171.845 258.076 185.124 256.374 185.619C254.642 186.107 259.459 187.97 259.459 187.97Z" fill="#FFB693"/>
<path d="M259.025 179.913C259.025 179.913 258.024 173.668 258.109 172.447C258.223 170.649 257.856 166.12 256.487 166.22C253.844 166.397 254.689 170.056 254.616 171.922C254.557 173.323 254.621 175.522 253.727 175.408C252.833 175.295 253.46 175.548 253.46 175.548C253.46 175.548 253.831 176.338 254.329 176.468C254.817 176.592 254.903 181.97 254.903 181.97L259.025 179.913Z" fill="#FFB693"/>
<path d="M253.452 178.389C253.452 178.389 254.506 177.364 254.473 175.888C254.439 174.412 254.669 166.079 253.409 165.709C250.051 164.716 251.317 174.713 250.975 175.621C250.633 176.529 251.133 179.715 251.133 179.715L253.452 178.389Z" fill="#FFB693"/>
<path d="M251.781 178.821C251.781 178.821 251.022 175.712 250.76 174.633C250.695 174.378 250.661 174.103 250.647 173.835C250.402 166.707 252.363 165.934 252.446 165.912C252.523 165.879 252.607 165.93 252.633 165.998C252.659 166.077 252.621 166.162 252.544 166.182C252.512 166.191 250.705 166.997 250.936 173.819C250.944 174.064 250.977 174.315 251.036 174.559C251.298 175.638 252.057 178.747 252.057 178.747L251.781 178.821Z" fill="#292526"/>
<path d="M248.946 180.176C248.882 180.18 248.824 180.134 248.804 180.078C248.765 179.952 247.828 177.089 247.724 175.523C247.71 175.316 247.684 175.064 247.657 174.775C247.475 172.982 247.172 169.973 249.102 168.256C249.166 168.202 249.256 168.203 249.314 168.261C249.366 168.321 249.366 168.42 249.302 168.474C247.481 170.088 247.777 173 247.952 174.745C247.979 175.034 248.006 175.287 248.019 175.505C248.116 177.049 249.074 179.968 249.08 179.991C249.106 180.071 249.062 180.157 248.985 180.178C248.972 180.169 248.959 180.172 248.946 180.176Z" fill="#292526"/>
<path fill-rule="evenodd" clip-rule="evenodd" d="M302.228 195.416C303.612 195.874 336.256 196.725 346.833 192.086C347.186 191.929 346.338 188.41 345.057 185.139C343.504 181.204 342.449 179.787 342.449 179.787C342.545 179.745 343.547 181.109 345.197 184.803C346.388 187.467 347.266 190.069 347.572 191.498C347.796 192.543 348.947 191.963 350.154 188.523C350.418 187.759 350.549 186.713 350.502 185.522C350.493 185.238 349.29 181.814 347.577 179.249C345.897 176.73 346.538 177.435 345.475 176.056C345.116 175.582 345.331 175.595 347.386 178.511C349.166 181.036 350.972 185.495 351.006 185.116C351.118 183.699 351.049 181.953 350.095 179.888C349.464 178.521 347.919 175.265 346.538 173.589C343.223 169.558 338.378 157.311 336.42 154.352C328.746 142.702 329.069 136.883 315.878 138.607C302.377 140.392 293.276 192.417 302.228 195.416Z" fill="#2D292A"/>
</g>
<defs>
<clipPath id="clip0">
<rect width="566" height="434" fill="white"/>
</clipPath>
</defs>
</svg>
