<svg width="32" height="32" viewBox="0 0 32 32" fill="none" xmlns="http://www.w3.org/2000/svg">
<rect width="32" height="32" rx="4" fill="white"/>
<g opacity="0.9">
<path d="M11.6239 16.1557C12.3027 16.3706 12.8345 16.7327 13.2192 17.2418C13.6039 17.7397 13.7962 18.3563 13.7962 19.0917C13.7962 20.1326 13.3889 20.9359 12.5743 21.5017C11.7709 22.0561 10.5943 22.3333 9.0442 22.3333H2.90054V10.4532H8.70477C10.153 10.4532 11.2618 10.7304 12.0312 11.2848C12.8119 11.8392 13.2022 12.5916 13.2022 13.5421C13.2022 14.1191 13.0608 14.6339 12.7779 15.0865C12.5064 15.539 12.1217 15.8954 11.6239 16.1557ZM5.63294 12.5238V15.3241H8.36534C9.0442 15.3241 9.559 15.2053 9.90974 14.9677C10.2605 14.7301 10.4359 14.3793 10.4359 13.9154C10.4359 13.4515 10.2605 13.1064 9.90974 12.8802C9.559 12.6426 9.0442 12.5238 8.36534 12.5238H5.63294ZM8.84054 20.2627C9.56465 20.2627 10.1077 20.1439 10.4698 19.9063C10.8432 19.6687 11.0299 19.301 11.0299 18.8032C11.0299 17.8189 10.3001 17.3267 8.84054 17.3267H5.63294V20.2627H8.84054Z" fill="#3E54D8"/>
<path d="M26.5188 22.3333L26.5018 15.2053L23.0057 21.0774H21.7668L18.2877 15.358V22.3333H15.708V10.4532H17.9822L22.4287 17.8358L26.8073 10.4532H29.0645L29.0985 22.3333H26.5188Z" fill="#ED6373"/>
</g>
</svg>
