<svg width="181" height="54" viewBox="0 0 181 54" fill="none" xmlns="http://www.w3.org/2000/svg">
<g clip-path="url(#clip0)">
<path d="M0 7.12512C0 3.19002 3.19002 0 7.12512 0H173.14C177.075 0 180.265 3.19002 180.265 7.12512V46.3133C180.265 50.2484 177.075 53.4384 173.14 53.4384H7.12512C3.19002 53.4384 0 50.2484 0 46.3133V7.12512Z" fill="black"/>
<path fill-rule="evenodd" clip-rule="evenodd" d="M0 46.3133V7.12512C0 3.19002 3.19002 0 7.12512 0H173.14C177.075 0 180.265 3.19002 180.265 7.12512V46.3133C180.265 50.2484 177.075 53.4384 173.14 53.4384H7.12512C3.19002 53.4384 0 50.2484 0 46.3133ZM1.06877 46.3133V7.12512C1.06877 3.78029 3.78029 1.06877 7.12512 1.06877H173.14C176.485 1.06877 179.197 3.78029 179.197 7.12512V46.3133C179.197 49.6581 176.485 52.3696 173.14 52.3696H7.12512C3.78029 52.3696 1.06877 49.6581 1.06877 46.3133Z" fill="white" fill-opacity="0.3"/>
<path d="M91.3383 29.0323C88.1304 29.0323 85.4799 31.5376 85.4799 34.9725C85.4799 38.3795 88.1026 40.9128 91.3386 40.9128C94.5744 40.9128 97.1968 38.4075 97.1968 34.9725C97.1968 31.5376 94.5744 29.0323 91.3383 29.0323ZM91.3383 38.549C89.5804 38.549 88.047 37.0564 88.047 34.946C88.047 32.8064 89.5816 31.343 91.3383 31.343C93.0951 31.343 94.6297 32.8064 94.6297 34.946C94.6297 37.0564 93.0951 38.549 91.3383 38.549ZM78.5893 29.0323C75.3532 29.0323 72.7305 31.5376 72.7305 34.9725C72.7305 38.3795 75.3532 40.9128 78.5893 40.9128C81.825 40.9128 84.4477 38.4075 84.4477 34.9725C84.4477 31.5376 81.825 29.0323 78.589 29.0323H78.5893ZM78.5893 38.549C76.8311 38.549 75.2979 37.0564 75.2979 34.946C75.2979 32.8064 76.8326 31.343 78.5893 31.343C80.3472 31.343 81.8806 32.8064 81.8806 34.946C81.8806 37.0564 80.3735 38.549 78.5893 38.549ZM63.4408 30.8625V33.3677H69.3546C69.1866 34.7753 68.7137 35.8169 68.0157 36.5213C67.1513 37.3937 65.8121 38.3514 63.4408 38.3514C59.7857 38.3514 56.969 35.3674 56.969 31.6791C56.969 27.9907 59.7872 24.9503 63.4408 24.9503C65.4208 24.9503 66.8446 25.7388 67.9045 26.7527L69.6613 24.9783C68.1822 23.543 66.2022 22.4453 63.4408 22.4453C58.4465 22.4453 54.2617 26.5831 54.2617 31.6229C54.2617 36.6631 58.4465 40.8009 63.4408 40.8009C66.1466 40.8009 68.1559 39.9005 69.7737 38.2102C71.4195 36.5493 71.9217 34.2121 71.9217 32.3261C71.9217 31.7352 71.8664 31.2 71.7818 30.7493L63.4408 30.8625ZM125.429 32.8048C124.954 31.4815 123.449 29.0323 120.435 29.0323C117.421 29.0323 114.939 31.4257 114.939 34.9725C114.939 38.2941 117.421 40.9128 120.714 40.9128C123.392 40.9128 124.927 39.2519 125.568 38.2941L123.588 36.943C122.918 37.9288 122.025 38.5755 120.714 38.5755C119.403 38.5755 118.483 37.9846 117.896 36.7734L125.679 33.4799L125.429 32.8048ZM117.506 34.8045C117.45 32.5234 119.264 31.3415 120.546 31.3415C121.578 31.3415 122.415 31.8483 122.722 32.6088L117.506 34.8045ZM111.173 40.5191H113.74V23.1201H111.173V40.5191ZM106.989 30.3557H106.906C106.32 29.6513 105.233 29.0323 103.837 29.0323C100.907 29.0323 98.2571 31.651 98.2571 34.9725C98.2571 38.2941 100.935 40.885 103.837 40.885C105.231 40.885 106.319 40.2657 106.906 39.5333H106.989V40.378C106.989 42.6591 105.789 43.8687 103.864 43.8687C102.302 43.8687 101.325 42.7149 100.935 41.7571L98.7039 42.7149C99.3448 44.2917 101.047 46.234 103.864 46.234C106.877 46.234 109.416 44.4319 109.416 40.0685V29.3979H106.989V30.3557ZM104.06 38.549C102.302 38.549 100.824 37.0564 100.824 34.9741C100.824 32.8918 102.303 31.3708 104.06 31.3708C105.79 31.3708 107.185 32.8918 107.185 34.9741C107.184 37.0284 105.789 38.549 104.06 38.549ZM137.397 23.1204H131.26V40.5191H133.827V33.9306H137.397C140.243 33.9306 143.032 31.8467 143.032 28.5255C143.032 25.204 140.243 23.1201 137.397 23.1201V23.1204ZM137.48 31.511H133.853V25.5412H137.48C139.377 25.5412 140.493 27.146 140.493 28.5252C140.466 29.8766 139.379 31.511 137.48 31.511ZM153.271 29.0042C151.43 29.0042 149.505 29.8208 148.724 31.6791L150.984 32.6368C151.487 31.6791 152.379 31.3696 153.328 31.3696C154.667 31.3696 156.006 32.1858 156.034 33.6211V33.7907C155.559 33.5092 154.584 33.1143 153.356 33.1143C150.901 33.1143 148.417 34.4938 148.417 37.0284C148.417 39.3653 150.427 40.857 152.658 40.857C154.388 40.857 155.336 40.0685 155.921 39.14H156.005V40.4914H158.487V33.8184C158.46 30.7503 156.2 29.0039 153.271 29.0039V29.0042ZM152.965 38.521C152.128 38.521 150.955 38.098 150.955 37.0576C150.955 35.7062 152.405 35.1994 153.661 35.1994C154.777 35.1994 155.307 35.4528 156.005 35.7904C155.809 37.3952 154.442 38.521 152.965 38.521ZM167.443 29.3994L164.514 36.9162H164.43L161.39 29.3991H158.629L163.203 39.9282L160.608 45.8126H163.286L170.288 29.3991H167.443L167.443 29.3994ZM144.456 40.5191H147.023V23.1201H144.456V40.5191Z" fill="white"/>
<path d="M62.019 14.9649V17.5485H60.9517V16.0323H56.0439V17.5485H54.9766V14.9649H55.7746C56.0406 14.5925 56.2368 14.0572 56.3631 13.3589C56.4895 12.654 56.5526 11.8893 56.5526 11.0647V8.89007H61.231V14.9649H62.019ZM60.1138 14.9649V9.95741H57.6599V11.2542C57.6599 11.999 57.6 12.6906 57.4803 13.329C57.3673 13.9674 57.1944 14.5127 56.9616 14.9649H60.1138Z" fill="white"/>
<path d="M66.5481 16.1919C65.8565 16.1919 65.2281 16.029 64.6628 15.7031C64.0976 15.3706 63.652 14.9184 63.3262 14.3465C63.007 13.7746 62.8474 13.1461 62.8474 12.4612C62.8474 11.7762 63.007 11.1511 63.3262 10.5858C63.652 10.0139 64.0976 9.56173 64.6628 9.22923C65.2281 8.89672 65.8565 8.73047 66.5481 8.73047C67.2398 8.73047 67.8649 8.89672 68.4235 9.22923C68.9887 9.56173 69.4343 10.0139 69.7601 10.5858C70.086 11.1511 70.2489 11.7762 70.2489 12.4612C70.2489 13.1461 70.086 13.7746 69.7601 14.3465C69.4409 14.9184 68.9987 15.3706 68.4335 15.7031C67.8682 16.029 67.2398 16.1919 66.5481 16.1919ZM66.5481 15.1246C67.0203 15.1246 67.4526 15.0115 67.8449 14.7854C68.2373 14.5593 68.5465 14.2467 68.7726 13.8477C68.9987 13.4421 69.1118 12.9799 69.1118 12.4612C69.1118 11.9425 68.9987 11.4836 68.7726 11.0846C68.5465 10.679 68.2373 10.3631 67.8449 10.137C67.4526 9.91086 67.0203 9.79781 66.5481 9.79781C66.076 9.79781 65.6437 9.91086 65.2514 10.137C64.859 10.3631 64.5465 10.679 64.3137 11.0846C64.0876 11.4836 63.9746 11.9425 63.9746 12.4612C63.9746 12.9799 64.0876 13.4421 64.3137 13.8477C64.5465 14.2467 64.859 14.5593 65.2514 14.7854C65.6437 15.0115 66.076 15.1246 66.5481 15.1246Z" fill="white"/>
<path d="M74.7998 16.1919C74.1082 16.1919 73.4764 16.029 72.9045 15.7031C72.3326 15.3773 71.8837 14.9284 71.5579 14.3565C71.232 13.7846 71.0691 13.1528 71.0691 12.4612C71.0691 11.7696 71.232 11.1378 71.5579 10.5659C71.8837 9.99399 72.3326 9.54511 72.9045 9.21925C73.4764 8.8934 74.1082 8.73047 74.7998 8.73047C75.3384 8.73047 75.8272 8.83022 76.2661 9.02972C76.7117 9.22923 77.1041 9.51851 77.4432 9.89756L76.6452 10.6657C76.3991 10.373 76.1265 10.1569 75.8272 10.0173C75.528 9.87096 75.1855 9.79781 74.7998 9.79781C74.321 9.79781 73.8821 9.90754 73.4831 10.127C73.0907 10.3464 72.7782 10.659 72.5454 11.0647C72.3126 11.4637 72.1963 11.9292 72.1963 12.4612C72.1963 12.9932 72.3126 13.462 72.5454 13.8677C72.7782 14.2667 73.0907 14.5759 73.4831 14.7954C73.8821 15.0148 74.321 15.1246 74.7998 15.1246C75.5978 15.1246 76.2761 14.792 76.8347 14.127L77.6427 14.9051C77.2969 15.3108 76.8813 15.6266 76.3958 15.8527C75.9104 16.0788 75.3783 16.1919 74.7998 16.1919Z" fill="white"/>
<path d="M80.3365 9.95741H78.3414V8.89007H83.4487V9.95741H81.4537V16.0323H80.3365V9.95741Z" fill="white"/>
<path d="M85.2984 16.1919C85.0524 16.1919 84.8429 16.1487 84.67 16.0622V14.9749C84.8894 15.0946 85.0889 15.1545 85.2685 15.1545C85.448 15.1545 85.591 15.1212 85.6974 15.0547C85.8038 14.9816 85.9003 14.8486 85.9867 14.6557L86.2361 14.137L83.862 8.89007H85.1089L86.7747 12.8502H86.8346L88.5104 8.89007H89.7573L87.0241 14.8951C86.8246 15.3407 86.5819 15.6699 86.2959 15.8827C86.0166 16.0888 85.6841 16.1919 85.2984 16.1919Z" fill="white"/>
<path d="M90.7258 8.89007H96.0426V16.0323H94.9254V9.95741H91.8431V16.0323H90.7258V8.89007Z" fill="white"/>
<path d="M97.6714 8.89007H98.7887V11.8527H102.1V8.89007H103.208V16.0323H102.1V12.9101H98.7887V16.0323H97.6714V8.89007Z" fill="white"/>
<path d="M108.085 16.1919C107.394 16.1919 106.765 16.029 106.2 15.7031C105.635 15.3706 105.189 14.9184 104.863 14.3465C104.544 13.7746 104.385 13.1461 104.385 12.4612C104.385 11.7762 104.544 11.1511 104.863 10.5858C105.189 10.0139 105.635 9.56173 106.2 9.22923C106.765 8.89672 107.394 8.73047 108.085 8.73047C108.777 8.73047 109.402 8.89672 109.961 9.22923C110.526 9.56173 110.972 10.0139 111.297 10.5858C111.623 11.1511 111.786 11.7762 111.786 12.4612C111.786 13.1461 111.623 13.7746 111.297 14.3465C110.978 14.9184 110.536 15.3706 109.971 15.7031C109.405 16.029 108.777 16.1919 108.085 16.1919ZM108.085 15.1246C108.558 15.1246 108.99 15.0115 109.382 14.7854C109.774 14.5593 110.084 14.2467 110.31 13.8477C110.536 13.4421 110.649 12.9799 110.649 12.4612C110.649 11.9425 110.536 11.4836 110.31 11.0846C110.084 10.679 109.774 10.3631 109.382 10.137C108.99 9.91086 108.558 9.79781 108.085 9.79781C107.613 9.79781 107.181 9.91086 106.789 10.137C106.396 10.3631 106.084 10.679 105.851 11.0846C105.625 11.4836 105.512 11.9425 105.512 12.4612C105.512 12.9799 105.625 13.4421 105.851 13.8477C106.084 14.2467 106.396 14.5593 106.789 14.7854C107.181 15.0115 107.613 15.1246 108.085 15.1246Z" fill="white"/>
<path d="M115.401 8.89007H118.084C118.463 8.89007 118.812 8.9732 119.131 9.13945C119.457 9.3057 119.717 9.53513 119.91 9.82774C120.102 10.1203 120.199 10.4429 120.199 10.7953C120.199 11.1478 120.109 11.4537 119.929 11.713C119.757 11.9724 119.527 12.1686 119.241 12.3016V12.3614C119.6 12.4878 119.89 12.6973 120.109 12.9899C120.335 13.2825 120.448 13.6249 120.448 14.0173C120.448 14.4097 120.345 14.7588 120.139 15.0647C119.939 15.3706 119.667 15.61 119.321 15.7829C118.982 15.9492 118.609 16.0323 118.204 16.0323H115.401V8.89007ZM118.034 11.8826C118.353 11.8826 118.609 11.7829 118.802 11.5834C119.002 11.3839 119.102 11.1544 119.102 10.8951C119.102 10.6357 119.005 10.4096 118.812 10.2168C118.626 10.0173 118.38 9.91751 118.074 9.91751H116.518V11.8826H118.034ZM118.204 14.9949C118.543 14.9949 118.812 14.8885 119.012 14.6757C119.218 14.4629 119.321 14.2168 119.321 13.9375C119.321 13.6516 119.215 13.4055 119.002 13.1993C118.796 12.9865 118.516 12.8801 118.164 12.8801H116.518V14.9949H118.204Z" fill="white"/>
<path d="M38.0094 32.4508C42.2776 30.0855 45.5137 28.2834 45.7926 28.1434C46.6845 27.6644 47.6061 26.3971 45.7926 25.4128C45.207 25.1033 42.0543 23.357 38.0094 21.1055L32.4023 26.8201L38.0091 32.4508H38.0094Z" fill="#FFD900"/>
<path d="M32.4011 26.8203L14.5469 44.9798C14.9657 45.0359 15.4388 44.9237 15.9969 44.6142C17.168 43.9675 29.5826 37.1253 38.0085 32.4523L32.4011 26.8203Z" fill="#F43249"/>
<path d="M32.4013 26.8176L38.008 21.1307C38.008 21.1307 17.2528 9.69998 15.9967 9.0255C15.5242 8.7419 14.9939 8.65805 14.5195 8.7419L32.4013 26.8173V26.8176Z" fill="#00EE76"/>
<path d="M32.4028 26.8176L14.5208 8.74219C13.795 8.91142 13.1816 9.55847 13.1816 10.8812V42.8371C13.1816 44.0486 13.6563 44.921 14.5483 45.0048L32.4025 26.8172L32.4028 26.8176Z" fill="#00D3FF"/>
</g>
<defs>
<clipPath id="clip0">
<rect width="180.265" height="53.4384" fill="white"/>
</clipPath>
</defs>
</svg>
