<svg width="28" height="28" viewBox="0 0 28 28" fill="none" xmlns="http://www.w3.org/2000/svg">
<g clip-path="url(#clip0)">
<path d="M24.1153 4.30818C21.4726 1.54973 17.8161 -0.00700524 13.996 2.36998e-05C6.27597 -0.00969966 0.00973444 6.24072 1.10829e-05 13.9608C-0.00479202 17.7781 1.55177 21.4312 4.30816 24.0721C4.31619 24.08 4.31918 24.0921 4.32714 24.0991C4.40809 24.177 4.49607 24.2431 4.57807 24.318C4.803 24.5179 5.02793 24.7249 5.26486 24.9178C5.39179 25.0178 5.52376 25.1178 5.65374 25.2097C5.87767 25.3766 6.1016 25.5436 6.33548 25.6976C6.49445 25.7976 6.6584 25.8975 6.8213 25.9975C7.03721 26.1275 7.25217 26.2584 7.47511 26.3773C7.66407 26.4773 7.85695 26.5632 8.0489 26.6542C8.25883 26.7542 8.46578 26.8541 8.68069 26.9441C8.8956 27.0341 9.11156 27.1041 9.32946 27.182C9.54735 27.26 9.73532 27.332 9.94426 27.3959C10.1802 27.4669 10.4221 27.5219 10.662 27.5809C10.8619 27.6298 11.0559 27.6858 11.2618 27.7258C11.5377 27.7808 11.8176 27.8158 12.0976 27.8538C12.2705 27.8778 12.4395 27.9118 12.6144 27.9288C13.0722 27.9738 13.534 27.9988 13.9999 27.9988C14.4657 27.9988 14.9276 27.9738 15.3854 27.9288C15.5604 27.9118 15.7293 27.8778 15.9022 27.8538C16.1821 27.8158 16.462 27.7808 16.738 27.7258C16.9379 27.6858 17.1378 27.6259 17.3378 27.5809C17.5777 27.5219 17.8196 27.4669 18.0555 27.3959C18.2645 27.332 18.4664 27.254 18.6703 27.182C18.8743 27.11 19.1062 27.0321 19.3191 26.9441C19.532 26.8561 19.741 26.7531 19.9509 26.6542C20.1428 26.5632 20.3358 26.4773 20.5247 26.3773C20.7476 26.2584 20.9625 26.1274 21.1785 25.9975C21.3414 25.8975 21.5054 25.8065 21.6643 25.6976C21.8983 25.5436 22.1222 25.3767 22.3461 25.2097C22.476 25.1097 22.6079 25.0198 22.7349 24.9178C22.9719 24.7279 23.1968 24.526 23.4217 24.318C23.5037 24.2431 23.5916 24.1771 23.6726 24.0991C23.6806 24.0921 23.6837 24.0801 23.6916 24.0721C29.2664 18.7314 29.456 9.88277 24.1153 4.30818ZM21.8684 23.0254C21.6865 23.1854 21.4985 23.3373 21.3086 23.4843C21.1967 23.5703 21.0847 23.6552 20.9697 23.7372C20.7888 23.8682 20.6049 23.9921 20.4179 24.1111C20.2819 24.1981 20.143 24.282 20.003 24.364C19.8271 24.464 19.6481 24.5639 19.4672 24.6639C19.3072 24.7459 19.1443 24.8229 18.9804 24.8989C18.8165 24.9748 18.6355 25.0558 18.4585 25.1268C18.2816 25.1978 18.0937 25.2647 17.9087 25.3267C17.7398 25.3847 17.5708 25.4447 17.3998 25.4956C17.1999 25.5556 16.991 25.6046 16.7841 25.6546C16.6221 25.6925 16.4622 25.7355 16.2982 25.7676C16.0613 25.8136 15.8194 25.8455 15.5765 25.8785C15.4385 25.8965 15.3016 25.9215 15.1626 25.9355C14.7787 25.9725 14.3898 25.9945 13.997 25.9945C13.6041 25.9945 13.2152 25.9725 12.8313 25.9355C12.6924 25.9215 12.5554 25.8965 12.4174 25.8785C12.1745 25.8455 11.9326 25.8136 11.6957 25.7676C11.5317 25.7356 11.3718 25.6926 11.2099 25.6546C11.0029 25.6046 10.797 25.5546 10.5941 25.4956C10.4232 25.4447 10.2542 25.3847 10.0852 25.3267C9.90032 25.2627 9.71535 25.1977 9.53541 25.1268C9.35547 25.0558 9.18554 24.9778 9.01357 24.8989C8.84159 24.8199 8.68666 24.7459 8.52675 24.6639C8.34582 24.57 8.16687 24.471 7.99092 24.364C7.85098 24.2821 7.71198 24.1981 7.57603 24.1111C7.38912 23.9921 7.20514 23.8682 7.0242 23.7372C6.90922 23.6553 6.79729 23.5703 6.68529 23.4843C6.49533 23.3373 6.30743 23.1844 6.12549 23.0254C6.0815 22.9924 6.0415 22.9504 5.99856 22.9124C6.04326 19.5118 8.22791 16.509 11.4498 15.4199C13.0608 16.1862 14.9312 16.1862 16.5421 15.4199C19.764 16.509 21.9486 19.5117 21.9934 22.9124C21.9514 22.9504 21.9114 22.9885 21.8684 23.0254ZM10.51 8.01524C11.5924 6.09025 14.0304 5.40721 15.9553 6.48961C17.8803 7.572 18.5634 10.0099 17.481 11.9349C17.1219 12.5736 16.5941 13.1014 15.9553 13.4606C15.9504 13.4606 15.9443 13.4606 15.9384 13.4665C15.6732 13.6141 15.3931 13.7327 15.1026 13.8204C15.0507 13.8354 15.0026 13.8554 14.9477 13.8684C14.8477 13.8944 14.7427 13.9124 14.6398 13.9304C14.4459 13.9643 14.2497 13.984 14.053 13.9894H13.939C13.7422 13.984 13.5461 13.9643 13.3522 13.9304C13.2522 13.9124 13.1462 13.8944 13.0443 13.8684C12.9913 13.8554 12.9443 13.8354 12.8894 13.8204C12.5989 13.7327 12.3187 13.6141 12.0536 13.4665L12.0357 13.4606C10.1107 12.3782 9.42763 9.94023 10.51 8.01524ZM23.7668 20.9301C23.1253 17.938 21.1549 15.4013 18.4145 14.0394C20.6547 11.5992 20.4925 7.8049 18.0522 5.56471C15.6119 3.32453 11.8176 3.48679 9.57746 5.92706C7.47148 8.22118 7.47148 11.7454 9.57746 14.0394C6.83706 15.4014 4.86673 17.938 4.22522 20.9301C0.391874 15.5306 1.66153 8.04581 7.0611 4.21246C12.4607 0.379118 19.9454 1.64878 23.7788 7.04835C25.2198 9.07813 25.9933 11.5061 25.9921 13.9954C25.9921 16.4825 25.214 18.9073 23.7668 20.9301Z" fill="#3E54D8"/>
</g>
<defs>
<clipPath id="clip0">
<rect width="28" height="28" fill="white"/>
</clipPath>
</defs>
</svg>
