<svg width="28" height="28" viewBox="0 0 28 28" fill="none" xmlns="http://www.w3.org/2000/svg">
<path d="M6.14664 11.3749C6.1452 10.3372 6.34916 9.30943 6.74677 8.35088C7.14438 7.39233 7.72778 6.52196 8.46333 5.78993C9.19889 5.05791 10.0721 4.4787 11.0325 4.08571C11.993 3.69272 13.0217 3.49371 14.0594 3.50015C18.3895 3.53234 21.8531 7.13155 21.8531 11.4738V12.2499C21.8531 16.1673 22.6727 18.4404 23.3945 19.6829C23.4723 19.8156 23.5137 19.9665 23.5145 20.1204C23.5153 20.2742 23.4755 20.4256 23.3992 20.5591C23.3229 20.6927 23.2127 20.8038 23.0797 20.8812C22.9467 20.9586 22.7957 20.9995 22.6418 20.9999H5.35702C5.20315 20.9995 5.05211 20.9586 4.91913 20.8812C4.78615 20.8038 4.67594 20.6926 4.59961 20.559C4.52328 20.4254 4.48354 20.2741 4.48439 20.1202C4.48524 19.9663 4.52665 19.8154 4.60445 19.6827C5.32669 18.4402 6.14664 16.1671 6.14664 12.2499L6.14664 11.3749Z" stroke="#8C9BEA" stroke-width="1.75" stroke-linecap="round" stroke-linejoin="round"/>
<path d="M10.5 21V21.875C10.5 22.8033 10.8687 23.6935 11.5251 24.3499C12.1815 25.0063 13.0717 25.375 14 25.375C14.9283 25.375 15.8185 25.0063 16.4749 24.3499C17.1313 23.6935 17.5 22.8033 17.5 21.875V21" stroke="#8C9BEA" stroke-width="1.75" stroke-linecap="round" stroke-linejoin="round"/>
</svg>
