<svg width="40" height="40" viewBox="0 0 40 40" fill="none" xmlns="http://www.w3.org/2000/svg">
<path d="M13.75 36.25H26.25" stroke="#3E54D8" stroke-width="2.5" stroke-linecap="round" stroke-linejoin="round"/>
<path d="M20 31.25V22.5" stroke="#3E54D8" stroke-width="2.5" stroke-linecap="round" stroke-linejoin="round"/>
<path d="M15 17.5L20 22.5L25 17.5" stroke="#3E54D8" stroke-width="2.5" stroke-linecap="round" stroke-linejoin="round"/>
<path d="M12.2975 26.0956C10.8111 24.9347 9.60725 23.452 8.77635 21.759C7.94545 20.0659 7.50914 18.2066 7.50019 16.3206C7.46275 9.54525 12.925 3.91305 19.6986 3.75362C22.3234 3.69042 24.9014 4.45529 27.0671 5.93973C29.2327 7.42418 30.8759 9.55282 31.7637 12.0237C32.6515 14.4946 32.7387 17.1824 32.013 19.7056C31.2873 22.2289 29.7855 24.4596 27.7207 26.0813C27.2659 26.4337 26.8972 26.8848 26.6424 27.4007C26.3876 27.9165 26.2534 28.4835 26.25 29.0588L26.25 30.0001C26.25 30.3316 26.1183 30.6495 25.8839 30.884C25.6495 31.1184 25.3315 31.2501 25 31.2501H15C14.6685 31.2501 14.3505 31.1184 14.1161 30.884C13.8817 30.6495 13.75 30.3316 13.75 30.0001L13.75 29.0577C13.7485 28.4861 13.617 27.9224 13.3654 27.4091C13.1137 26.8959 12.7485 26.4467 12.2975 26.0956V26.0956Z" stroke="#3E54D8" stroke-width="2.5" stroke-linecap="round" stroke-linejoin="round"/>
</svg>
