<svg width="224" height="59" viewBox="0 0 224 59" fill="none" xmlns="http://www.w3.org/2000/svg">
<g opacity="0.9">
<path d="M21.5838 21.896C23.0238 22.352 24.1518 23.12 24.9678 24.2C25.7838 25.256 26.1918 26.564 26.1918 28.124C26.1918 30.332 25.3278 32.036 23.5998 33.236C21.8958 34.412 19.3998 35 16.1118 35H3.0798V9.8H15.3918C18.4638 9.8 20.8158 10.388 22.4478 11.564C24.1038 12.74 24.9318 14.336 24.9318 16.352C24.9318 17.576 24.6318 18.668 24.0318 19.628C23.4558 20.588 22.6398 21.344 21.5838 21.896ZM8.8758 14.192V20.132H14.6718C16.1118 20.132 17.2038 19.88 17.9478 19.376C18.6918 18.872 19.0638 18.128 19.0638 17.144C19.0638 16.16 18.6918 15.428 17.9478 14.948C17.2038 14.444 16.1118 14.192 14.6718 14.192H8.8758ZM15.6798 30.608C17.2158 30.608 18.3678 30.356 19.1358 29.852C19.9278 29.348 20.3238 28.568 20.3238 27.512C20.3238 25.424 18.7758 24.38 15.6798 24.38H8.8758V30.608H15.6798ZM49.1831 25.388C49.1831 25.46 49.1471 25.964 49.0751 26.9H34.4231C34.6871 28.1 35.3111 29.048 36.2951 29.744C37.2791 30.44 38.5031 30.788 39.9671 30.788C40.9751 30.788 41.8631 30.644 42.6311 30.356C43.4231 30.044 44.1551 29.564 44.8271 28.916L47.8151 32.156C45.9911 34.244 43.3271 35.288 39.8231 35.288C37.6391 35.288 35.7071 34.868 34.0271 34.028C32.3471 33.164 31.0511 31.976 30.1391 30.464C29.2271 28.952 28.7711 27.236 28.7711 25.316C28.7711 23.42 29.2151 21.716 30.1031 20.204C31.0151 18.668 32.2511 17.48 33.8111 16.64C35.3951 15.776 37.1591 15.344 39.1031 15.344C40.9991 15.344 42.7151 15.752 44.2511 16.568C45.7871 17.384 46.9871 18.56 47.8511 20.096C48.7391 21.608 49.1831 23.372 49.1831 25.388ZM39.1391 19.592C37.8671 19.592 36.7991 19.952 35.9351 20.672C35.0711 21.392 34.5431 22.376 34.3511 23.624H43.8911C43.6991 22.4 43.1711 21.428 42.3071 20.708C41.4431 19.964 40.3871 19.592 39.1391 19.592ZM60.2067 15.344C63.2067 15.344 65.5107 16.064 67.1187 17.504C68.7267 18.92 69.5307 21.068 69.5307 23.948V35H64.2747V32.588C63.2187 34.388 61.2507 35.288 58.3707 35.288C56.8827 35.288 55.5867 35.036 54.4827 34.532C53.4027 34.028 52.5747 33.332 51.9987 32.444C51.4227 31.556 51.1347 30.548 51.1347 29.42C51.1347 27.62 51.8067 26.204 53.1507 25.172C54.5187 24.14 56.6187 23.624 59.4507 23.624H63.9147C63.9147 22.4 63.5427 21.464 62.7987 20.816C62.0547 20.144 60.9387 19.808 59.4507 19.808C58.4187 19.808 57.3987 19.976 56.3907 20.312C55.4067 20.624 54.5667 21.056 53.8707 21.608L51.8547 17.684C52.9107 16.94 54.1707 16.364 55.6347 15.956C57.1227 15.548 58.6467 15.344 60.2067 15.344ZM59.7747 31.508C60.7347 31.508 61.5867 31.292 62.3307 30.86C63.0747 30.404 63.6027 29.744 63.9147 28.88V26.9H60.0627C57.7587 26.9 56.6067 27.656 56.6067 29.168C56.6067 29.888 56.8827 30.464 57.4347 30.896C58.0107 31.304 58.7907 31.508 59.7747 31.508ZM87.1055 34.064C86.5535 34.472 85.8695 34.784 85.0535 35C84.2615 35.192 83.4215 35.288 82.5335 35.288C80.2295 35.288 78.4415 34.7 77.1695 33.524C75.9215 32.348 75.2975 30.62 75.2975 28.34V20.384H72.3095V16.064H75.2975V11.348H80.9135V16.064H85.7375V20.384H80.9135V28.268C80.9135 29.084 81.1175 29.72 81.5255 30.176C81.9575 30.608 82.5575 30.824 83.3255 30.824C84.2135 30.824 84.9695 30.584 85.5935 30.104L87.1055 34.064Z" fill="#3E54D8"/>
<path d="M113.586 35L113.55 19.88L106.134 32.336H103.506L96.126 20.204V35H90.654V9.8H95.478L104.91 25.46L114.198 9.8H118.986L119.058 35H113.586ZM132.453 15.344C135.453 15.344 137.757 16.064 139.365 17.504C140.973 18.92 141.777 21.068 141.777 23.948V35H136.521V32.588C135.465 34.388 133.497 35.288 130.617 35.288C129.129 35.288 127.833 35.036 126.729 34.532C125.649 34.028 124.821 33.332 124.245 32.444C123.669 31.556 123.381 30.548 123.381 29.42C123.381 27.62 124.053 26.204 125.397 25.172C126.765 24.14 128.865 23.624 131.697 23.624H136.161C136.161 22.4 135.789 21.464 135.045 20.816C134.301 20.144 133.185 19.808 131.697 19.808C130.665 19.808 129.645 19.976 128.637 20.312C127.653 20.624 126.813 21.056 126.117 21.608L124.101 17.684C125.157 16.94 126.417 16.364 127.881 15.956C129.369 15.548 130.893 15.344 132.453 15.344ZM132.021 31.508C132.981 31.508 133.833 31.292 134.577 30.86C135.321 30.404 135.849 29.744 136.161 28.88V26.9H132.309C130.005 26.9 128.853 27.656 128.853 29.168C128.853 29.888 129.129 30.464 129.681 30.896C130.257 31.304 131.037 31.508 132.021 31.508ZM152.224 18.188C152.896 17.252 153.796 16.544 154.924 16.064C156.076 15.584 157.396 15.344 158.884 15.344V20.528C158.26 20.48 157.84 20.456 157.624 20.456C156.016 20.456 154.756 20.912 153.844 21.824C152.932 22.712 152.476 24.056 152.476 25.856V35H146.86V15.632H152.224V18.188ZM170.539 27.404L167.839 30.068V35H162.223V8.288H167.839V23.408L176.047 15.632H182.743L174.679 23.84L183.463 35H176.659L170.539 27.404ZM204.117 25.388C204.117 25.46 204.081 25.964 204.009 26.9H189.357C189.621 28.1 190.245 29.048 191.229 29.744C192.213 30.44 193.437 30.788 194.901 30.788C195.909 30.788 196.797 30.644 197.565 30.356C198.357 30.044 199.089 29.564 199.761 28.916L202.749 32.156C200.925 34.244 198.261 35.288 194.757 35.288C192.573 35.288 190.641 34.868 188.961 34.028C187.281 33.164 185.985 31.976 185.073 30.464C184.161 28.952 183.705 27.236 183.705 25.316C183.705 23.42 184.149 21.716 185.037 20.204C185.949 18.668 187.185 17.48 188.745 16.64C190.329 15.776 192.093 15.344 194.037 15.344C195.933 15.344 197.649 15.752 199.185 16.568C200.721 17.384 201.921 18.56 202.785 20.096C203.673 21.608 204.117 23.372 204.117 25.388ZM194.073 19.592C192.801 19.592 191.733 19.952 190.869 20.672C190.005 21.392 189.477 22.376 189.285 23.624H198.825C198.633 22.4 198.105 21.428 197.241 20.708C196.377 19.964 195.321 19.592 194.073 19.592ZM220.348 34.064C219.796 34.472 219.112 34.784 218.296 35C217.504 35.192 216.664 35.288 215.776 35.288C213.472 35.288 211.684 34.7 210.412 33.524C209.164 32.348 208.54 30.62 208.54 28.34V20.384H205.552V16.064H208.54V11.348H214.156V16.064H218.98V20.384H214.156V28.268C214.156 29.084 214.36 29.72 214.768 30.176C215.2 30.608 215.8 30.824 216.568 30.824C217.456 30.824 218.212 30.584 218.836 30.104L220.348 34.064Z" fill="#ED6373"/>
</g>
<path d="M9.19012 48V55H8.46012V48.64H4.03012V55H3.30012V48H9.19012ZM15.4821 49.74V55H14.7721V50.37H12.2521L12.1821 51.67C12.1287 52.7633 12.0021 53.6033 11.8021 54.19C11.6021 54.7767 11.2454 55.07 10.7321 55.07C10.5921 55.07 10.4221 55.0433 10.2221 54.99L10.2721 54.38C10.3921 54.4067 10.4754 54.42 10.5221 54.42C10.7954 54.42 11.0021 54.2933 11.1421 54.04C11.2821 53.7867 11.3754 53.4733 11.4221 53.1C11.4687 52.7267 11.5087 52.2333 11.5421 51.62L11.6321 49.74H15.4821ZM19.1104 49.7C19.7971 49.7 20.3238 49.8733 20.6904 50.22C21.0571 50.56 21.2404 51.0667 21.2404 51.74V55H20.5604V54.18C20.4004 54.4533 20.1638 54.6667 19.8504 54.82C19.5438 54.9733 19.1771 55.05 18.7504 55.05C18.1638 55.05 17.6971 54.91 17.3504 54.63C17.0038 54.35 16.8304 53.98 16.8304 53.52C16.8304 53.0733 16.9904 52.7133 17.3104 52.44C17.6371 52.1667 18.1538 52.03 18.8604 52.03H20.5304V51.71C20.5304 51.2567 20.4038 50.9133 20.1504 50.68C19.8971 50.44 19.5271 50.32 19.0404 50.32C18.7071 50.32 18.3871 50.3767 18.0804 50.49C17.7738 50.5967 17.5104 50.7467 17.2904 50.94L16.9704 50.41C17.2371 50.1833 17.5571 50.01 17.9304 49.89C18.3038 49.7633 18.6971 49.7 19.1104 49.7ZM18.8604 54.49C19.2604 54.49 19.6038 54.4 19.8904 54.22C20.1771 54.0333 20.3904 53.7667 20.5304 53.42V52.56H18.8804C17.9804 52.56 17.5304 52.8733 17.5304 53.5C17.5304 53.8067 17.6471 54.05 17.8804 54.23C18.1138 54.4033 18.4404 54.49 18.8604 54.49ZM26.6305 50.37H24.6405V55H23.9305V50.37H21.9405V49.74H26.6305V50.37ZM33.5629 52.36C33.5629 53.18 33.2929 53.8233 32.7529 54.29C32.2129 54.7567 31.4496 55.01 30.4629 55.05V56.94H29.7729V55.06C28.7929 55.02 28.0329 54.7667 27.4929 54.3C26.9596 53.8267 26.6929 53.18 26.6929 52.36C26.6929 51.5467 26.9596 50.91 27.4929 50.45C28.0329 49.99 28.7929 49.74 29.7729 49.7V47.58H30.4629V49.7C31.4496 49.7467 32.2129 50 32.7529 50.46C33.2929 50.92 33.5629 51.5533 33.5629 52.36ZM27.3929 52.36C27.3929 52.9867 27.5929 53.4767 27.9929 53.83C28.3996 54.1833 28.9929 54.3833 29.7729 54.43V50.33C28.9996 50.37 28.4096 50.5667 28.0029 50.92C27.5963 51.2667 27.3929 51.7467 27.3929 52.36ZM30.4629 54.43C31.2429 54.39 31.8363 54.1933 32.2429 53.84C32.6563 53.4867 32.8629 52.9933 32.8629 52.36C32.8629 51.74 32.6563 51.2567 32.2429 50.91C31.8363 50.5633 31.2429 50.37 30.4629 50.33V54.43ZM37.0345 55.05C36.5278 55.05 36.0712 54.9367 35.6645 54.71C35.2578 54.4767 34.9378 54.1567 34.7045 53.75C34.4712 53.3433 34.3545 52.8833 34.3545 52.37C34.3545 51.8567 34.4712 51.3967 34.7045 50.99C34.9378 50.5833 35.2578 50.2667 35.6645 50.04C36.0712 49.8133 36.5278 49.7 37.0345 49.7C37.5412 49.7 37.9978 49.8133 38.4045 50.04C38.8112 50.2667 39.1278 50.5833 39.3545 50.99C39.5878 51.3967 39.7045 51.8567 39.7045 52.37C39.7045 52.8833 39.5878 53.3433 39.3545 53.75C39.1278 54.1567 38.8112 54.4767 38.4045 54.71C37.9978 54.9367 37.5412 55.05 37.0345 55.05ZM37.0345 54.42C37.4078 54.42 37.7412 54.3367 38.0345 54.17C38.3345 53.9967 38.5678 53.7533 38.7345 53.44C38.9012 53.1267 38.9845 52.77 38.9845 52.37C38.9845 51.97 38.9012 51.6133 38.7345 51.3C38.5678 50.9867 38.3345 50.7467 38.0345 50.58C37.7412 50.4067 37.4078 50.32 37.0345 50.32C36.6612 50.32 36.3245 50.4067 36.0245 50.58C35.7312 50.7467 35.4978 50.9867 35.3245 51.3C35.1578 51.6133 35.0745 51.97 35.0745 52.37C35.0745 52.77 35.1578 53.1267 35.3245 53.44C35.4978 53.7533 35.7312 53.9967 36.0245 54.17C36.3245 54.3367 36.6612 54.42 37.0345 54.42ZM43.7319 49.7C44.2252 49.7 44.6719 49.8133 45.0719 50.04C45.4719 50.26 45.7852 50.5733 46.0119 50.98C46.2386 51.3867 46.3519 51.85 46.3519 52.37C46.3519 52.8967 46.2386 53.3633 46.0119 53.77C45.7852 54.1767 45.4719 54.4933 45.0719 54.72C44.6786 54.94 44.2319 55.05 43.7319 55.05C43.3052 55.05 42.9186 54.9633 42.5719 54.79C42.2319 54.61 41.9519 54.35 41.7319 54.01V56.94H41.0219V49.74H41.7019V50.78C41.9152 50.4333 42.1952 50.1667 42.5419 49.98C42.8952 49.7933 43.2919 49.7 43.7319 49.7ZM43.6819 54.42C44.0486 54.42 44.3819 54.3367 44.6819 54.17C44.9819 53.9967 45.2152 53.7533 45.3819 53.44C45.5552 53.1267 45.6419 52.77 45.6419 52.37C45.6419 51.97 45.5552 51.6167 45.3819 51.31C45.2152 50.9967 44.9819 50.7533 44.6819 50.58C44.3819 50.4067 44.0486 50.32 43.6819 50.32C43.3086 50.32 42.9719 50.4067 42.6719 50.58C42.3786 50.7533 42.1452 50.9967 41.9719 51.31C41.8052 51.6167 41.7219 51.97 41.7219 52.37C41.7219 52.77 41.8052 53.1267 41.9719 53.44C42.1452 53.7533 42.3786 53.9967 42.6719 54.17C42.9719 54.3367 43.3086 54.42 43.6819 54.42ZM53.5574 49.74V55H52.9074V50.84L50.7774 54.36H50.4574L48.3274 50.83V55H47.6774V49.74H48.3974L50.6274 53.53L52.8974 49.74H53.5574ZM57.1878 49.7C57.8744 49.7 58.4011 49.8733 58.7678 50.22C59.1344 50.56 59.3178 51.0667 59.3178 51.74V55H58.6378V54.18C58.4778 54.4533 58.2411 54.6667 57.9278 54.82C57.6211 54.9733 57.2544 55.05 56.8278 55.05C56.2411 55.05 55.7744 54.91 55.4278 54.63C55.0811 54.35 54.9078 53.98 54.9078 53.52C54.9078 53.0733 55.0678 52.7133 55.3878 52.44C55.7144 52.1667 56.2311 52.03 56.9378 52.03H58.6078V51.71C58.6078 51.2567 58.4811 50.9133 58.2278 50.68C57.9744 50.44 57.6044 50.32 57.1178 50.32C56.7844 50.32 56.4644 50.3767 56.1578 50.49C55.8511 50.5967 55.5878 50.7467 55.3678 50.94L55.0478 50.41C55.3144 50.1833 55.6344 50.01 56.0078 49.89C56.3811 49.7633 56.7744 49.7 57.1878 49.7ZM56.9378 54.49C57.3378 54.49 57.6811 54.4 57.9678 54.22C58.2544 54.0333 58.4678 53.7667 58.6078 53.42V52.56H56.9578C56.0578 52.56 55.6078 52.8733 55.6078 53.5C55.6078 53.8067 55.7244 54.05 55.9578 54.23C56.1911 54.4033 56.5178 54.49 56.9378 54.49ZM60.5979 51.98H63.2179V52.6H60.5979V51.98ZM69.3462 49.74V55H68.6362V50.37H65.3362V55H64.6262V49.74H69.3462ZM73.3345 55.05C72.8278 55.05 72.3712 54.9367 71.9645 54.71C71.5578 54.4767 71.2378 54.1567 71.0045 53.75C70.7712 53.3433 70.6545 52.8833 70.6545 52.37C70.6545 51.8567 70.7712 51.3967 71.0045 50.99C71.2378 50.5833 71.5578 50.2667 71.9645 50.04C72.3712 49.8133 72.8278 49.7 73.3345 49.7C73.8412 49.7 74.2978 49.8133 74.7045 50.04C75.1112 50.2667 75.4278 50.5833 75.6545 50.99C75.8878 51.3967 76.0045 51.8567 76.0045 52.37C76.0045 52.8833 75.8878 53.3433 75.6545 53.75C75.4278 54.1567 75.1112 54.4767 74.7045 54.71C74.2978 54.9367 73.8412 55.05 73.3345 55.05ZM73.3345 54.42C73.7078 54.42 74.0412 54.3367 74.3345 54.17C74.6345 53.9967 74.8678 53.7533 75.0345 53.44C75.2012 53.1267 75.2845 52.77 75.2845 52.37C75.2845 51.97 75.2012 51.6133 75.0345 51.3C74.8678 50.9867 74.6345 50.7467 74.3345 50.58C74.0412 50.4067 73.7078 50.32 73.3345 50.32C72.9612 50.32 72.6245 50.4067 72.3245 50.58C72.0312 50.7467 71.7978 50.9867 71.6245 51.3C71.4578 51.6133 71.3745 51.97 71.3745 52.37C71.3745 52.77 71.4578 53.1267 71.6245 53.44C71.7978 53.7533 72.0312 53.9967 72.3245 54.17C72.6245 54.3367 72.9612 54.42 73.3345 54.42ZM83.2019 49.74V55H82.5519V50.84L80.4219 54.36H80.1019L77.9719 50.83V55H77.3219V49.74H78.0419L80.2719 53.53L82.5419 49.74H83.2019ZM87.1923 55.05C86.6856 55.05 86.229 54.9367 85.8223 54.71C85.4156 54.4767 85.0956 54.1567 84.8623 53.75C84.629 53.3433 84.5123 52.8833 84.5123 52.37C84.5123 51.8567 84.629 51.3967 84.8623 50.99C85.0956 50.5833 85.4156 50.2667 85.8223 50.04C86.229 49.8133 86.6856 49.7 87.1923 49.7C87.699 49.7 88.1556 49.8133 88.5623 50.04C88.969 50.2667 89.2856 50.5833 89.5123 50.99C89.7456 51.3967 89.8623 51.8567 89.8623 52.37C89.8623 52.8833 89.7456 53.3433 89.5123 53.75C89.2856 54.1567 88.969 54.4767 88.5623 54.71C88.1556 54.9367 87.699 55.05 87.1923 55.05ZM87.1923 54.42C87.5656 54.42 87.899 54.3367 88.1923 54.17C88.4923 53.9967 88.7256 53.7533 88.8923 53.44C89.059 53.1267 89.1423 52.77 89.1423 52.37C89.1423 51.97 89.059 51.6133 88.8923 51.3C88.7256 50.9867 88.4923 50.7467 88.1923 50.58C87.899 50.4067 87.5656 50.32 87.1923 50.32C86.819 50.32 86.4823 50.4067 86.1823 50.58C85.889 50.7467 85.6556 50.9867 85.4823 51.3C85.3156 51.6133 85.2323 51.97 85.2323 52.37C85.2323 52.77 85.3156 53.1267 85.4823 53.44C85.6556 53.7533 85.889 53.9967 86.1823 54.17C86.4823 54.3367 86.819 54.42 87.1923 54.42ZM98.4397 49.74V55H91.1797V49.74H91.8897V54.38H94.4697V49.74H95.1797V54.38H97.7297V49.74H98.4397ZM99.2497 54.38V56.15H98.5797V55H97.6897V54.38H99.2497ZM100.267 49.74H100.977V52.07H104.287V49.74H104.997V55H104.287V52.68H100.977V55H100.267V49.74ZM106.815 49.74H107.525V53.92L111.035 49.74H111.665V55H110.955V50.82L107.455 55H106.815V49.74ZM115.41 52.66H114.21V55H113.5V49.74H114.21V52.05H115.42L117.27 49.74H118.04L115.97 52.29L118.19 55H117.35L115.41 52.66ZM121.527 49.74H122.237V52.07H125.547V49.74H126.257V55H125.547V52.68H122.237V55H121.527V49.74ZM129.885 49.7C130.572 49.7 131.099 49.8733 131.465 50.22C131.832 50.56 132.015 51.0667 132.015 51.74V55H131.335V54.18C131.175 54.4533 130.939 54.6667 130.625 54.82C130.319 54.9733 129.952 55.05 129.525 55.05C128.939 55.05 128.472 54.91 128.125 54.63C127.779 54.35 127.605 53.98 127.605 53.52C127.605 53.0733 127.765 52.7133 128.085 52.44C128.412 52.1667 128.929 52.03 129.635 52.03H131.305V51.71C131.305 51.2567 131.179 50.9133 130.925 50.68C130.672 50.44 130.302 50.32 129.815 50.32C129.482 50.32 129.162 50.3767 128.855 50.49C128.549 50.5967 128.285 50.7467 128.065 50.94L127.745 50.41C128.012 50.1833 128.332 50.01 128.705 49.89C129.079 49.7633 129.472 49.7 129.885 49.7ZM129.635 54.49C130.035 54.49 130.379 54.4 130.665 54.22C130.952 54.0333 131.165 53.7667 131.305 53.42V52.56H129.655C128.755 52.56 128.305 52.8733 128.305 53.5C128.305 53.8067 128.422 54.05 128.655 54.23C128.889 54.4033 129.215 54.49 129.635 54.49ZM143.783 51.49C143.783 52.4167 143.453 53.1467 142.793 53.68C142.139 54.2067 141.223 54.4867 140.043 54.52V55.24H139.353V54.52C138.173 54.48 137.253 54.1967 136.593 53.67C135.939 53.1433 135.613 52.4167 135.613 51.49C135.613 50.5633 135.939 49.8367 136.593 49.31C137.253 48.7833 138.173 48.5 139.353 48.46V47.76H140.043V48.46C141.216 48.5 142.133 48.7867 142.793 49.32C143.453 49.8467 143.783 50.57 143.783 51.49ZM140.043 53.93C141.009 53.89 141.756 53.66 142.283 53.24C142.809 52.82 143.073 52.2367 143.073 51.49C143.073 50.7433 142.806 50.16 142.273 49.74C141.746 49.32 141.003 49.0933 140.043 49.06V53.93ZM136.323 51.49C136.323 52.2367 136.586 52.82 137.113 53.24C137.646 53.6533 138.393 53.8833 139.353 53.93V49.06C138.379 49.1 137.629 49.33 137.103 49.75C136.583 50.1633 136.323 50.7433 136.323 51.49ZM147.263 55.05C146.756 55.05 146.299 54.9367 145.893 54.71C145.486 54.4767 145.166 54.1567 144.933 53.75C144.699 53.3433 144.583 52.8833 144.583 52.37C144.583 51.8567 144.699 51.3967 144.933 50.99C145.166 50.5833 145.486 50.2667 145.893 50.04C146.299 49.8133 146.756 49.7 147.263 49.7C147.769 49.7 148.226 49.8133 148.633 50.04C149.039 50.2667 149.356 50.5833 149.583 50.99C149.816 51.3967 149.933 51.8567 149.933 52.37C149.933 52.8833 149.816 53.3433 149.583 53.75C149.356 54.1567 149.039 54.4767 148.633 54.71C148.226 54.9367 147.769 55.05 147.263 55.05ZM147.263 54.42C147.636 54.42 147.969 54.3367 148.263 54.17C148.563 53.9967 148.796 53.7533 148.963 53.44C149.129 53.1267 149.213 52.77 149.213 52.37C149.213 51.97 149.129 51.6133 148.963 51.3C148.796 50.9867 148.563 50.7467 148.263 50.58C147.969 50.4067 147.636 50.32 147.263 50.32C146.889 50.32 146.553 50.4067 146.253 50.58C145.959 50.7467 145.726 50.9867 145.553 51.3C145.386 51.6133 145.303 51.97 145.303 52.37C145.303 52.77 145.386 53.1267 145.553 53.44C145.726 53.7533 145.959 53.9967 146.253 54.17C146.553 54.3367 146.889 54.42 147.263 54.42ZM151.25 49.74H151.96V52.07H155.27V49.74H155.98V55H155.27V52.68H151.96V55H151.25V49.74ZM162.928 54.38V56.27H162.258V55H157.548V56.27H156.878V54.38H157.178C157.531 54.36 157.771 54.1 157.898 53.6C158.025 53.1 158.111 52.4 158.158 51.5L158.228 49.74H162.108V54.38H162.928ZM158.808 51.54C158.775 52.2867 158.711 52.9033 158.618 53.39C158.525 53.87 158.358 54.2 158.118 54.38H161.398V50.37H158.868L158.808 51.54ZM166.282 55.05C165.775 55.05 165.318 54.9367 164.912 54.71C164.505 54.4767 164.185 54.1567 163.952 53.75C163.718 53.3433 163.602 52.8833 163.602 52.37C163.602 51.8567 163.718 51.3967 163.952 50.99C164.185 50.5833 164.505 50.2667 164.912 50.04C165.318 49.8133 165.775 49.7 166.282 49.7C166.788 49.7 167.245 49.8133 167.652 50.04C168.058 50.2667 168.375 50.5833 168.602 50.99C168.835 51.3967 168.952 51.8567 168.952 52.37C168.952 52.8833 168.835 53.3433 168.602 53.75C168.375 54.1567 168.058 54.4767 167.652 54.71C167.245 54.9367 166.788 55.05 166.282 55.05ZM166.282 54.42C166.655 54.42 166.988 54.3367 167.282 54.17C167.582 53.9967 167.815 53.7533 167.982 53.44C168.148 53.1267 168.232 52.77 168.232 52.37C168.232 51.97 168.148 51.6133 167.982 51.3C167.815 50.9867 167.582 50.7467 167.282 50.58C166.988 50.4067 166.655 50.32 166.282 50.32C165.908 50.32 165.572 50.4067 165.272 50.58C164.978 50.7467 164.745 50.9867 164.572 51.3C164.405 51.6133 164.322 51.97 164.322 52.37C164.322 52.77 164.405 53.1267 164.572 53.44C164.745 53.7533 164.978 53.9967 165.272 54.17C165.572 54.3367 165.908 54.42 166.282 54.42ZM173.619 52.28C174.333 52.4467 174.689 52.8767 174.689 53.57C174.689 54.03 174.519 54.3833 174.179 54.63C173.839 54.8767 173.333 55 172.659 55H170.269V49.74H172.589C173.189 49.74 173.659 49.8567 173.999 50.09C174.339 50.3233 174.509 50.6567 174.509 51.09C174.509 51.3767 174.429 51.6233 174.269 51.83C174.116 52.03 173.899 52.18 173.619 52.28ZM170.959 52.08H172.539C172.946 52.08 173.256 52.0033 173.469 51.85C173.689 51.6967 173.799 51.4733 173.799 51.18C173.799 50.8867 173.689 50.6667 173.469 50.52C173.256 50.3733 172.946 50.3 172.539 50.3H170.959V52.08ZM172.629 54.44C173.083 54.44 173.423 54.3667 173.649 54.22C173.876 54.0733 173.989 53.8433 173.989 53.53C173.989 53.2167 173.886 52.9867 173.679 52.84C173.473 52.6867 173.146 52.61 172.699 52.61H170.959V54.44H172.629ZM178.323 55.05C177.816 55.05 177.36 54.9367 176.953 54.71C176.546 54.4767 176.226 54.1567 175.993 53.75C175.76 53.3433 175.643 52.8833 175.643 52.37C175.643 51.8567 175.76 51.3967 175.993 50.99C176.226 50.5833 176.546 50.2667 176.953 50.04C177.36 49.8133 177.816 49.7 178.323 49.7C178.83 49.7 179.286 49.8133 179.693 50.04C180.1 50.2667 180.416 50.5833 180.643 50.99C180.876 51.3967 180.993 51.8567 180.993 52.37C180.993 52.8833 180.876 53.3433 180.643 53.75C180.416 54.1567 180.1 54.4767 179.693 54.71C179.286 54.9367 178.83 55.05 178.323 55.05ZM178.323 54.42C178.696 54.42 179.03 54.3367 179.323 54.17C179.623 53.9967 179.856 53.7533 180.023 53.44C180.19 53.1267 180.273 52.77 180.273 52.37C180.273 51.97 180.19 51.6133 180.023 51.3C179.856 50.9867 179.623 50.7467 179.323 50.58C179.03 50.4067 178.696 50.32 178.323 50.32C177.95 50.32 177.613 50.4067 177.313 50.58C177.02 50.7467 176.786 50.9867 176.613 51.3C176.446 51.6133 176.363 51.97 176.363 52.37C176.363 52.77 176.446 53.1267 176.613 53.44C176.786 53.7533 177.02 53.9967 177.313 54.17C177.613 54.3367 177.95 54.42 178.323 54.42ZM188.191 49.74V55H187.541V50.84L185.411 54.36H185.091L182.961 50.83V55H182.311V49.74H183.031L185.261 53.53L187.531 49.74H188.191ZM195.138 49.7C195.632 49.7 196.078 49.8133 196.478 50.04C196.878 50.26 197.192 50.5733 197.418 50.98C197.645 51.3867 197.758 51.85 197.758 52.37C197.758 52.8967 197.645 53.3633 197.418 53.77C197.192 54.1767 196.878 54.4933 196.478 54.72C196.085 54.94 195.638 55.05 195.138 55.05C194.712 55.05 194.325 54.9633 193.978 54.79C193.638 54.61 193.358 54.35 193.138 54.01V56.94H192.428V49.74H193.108V50.78C193.322 50.4333 193.602 50.1667 193.948 49.98C194.302 49.7933 194.698 49.7 195.138 49.7ZM195.088 54.42C195.455 54.42 195.788 54.3367 196.088 54.17C196.388 53.9967 196.622 53.7533 196.788 53.44C196.962 53.1267 197.048 52.77 197.048 52.37C197.048 51.97 196.962 51.6167 196.788 51.31C196.622 50.9967 196.388 50.7533 196.088 50.58C195.788 50.4067 195.455 50.32 195.088 50.32C194.715 50.32 194.378 50.4067 194.078 50.58C193.785 50.7533 193.552 50.9967 193.378 51.31C193.212 51.6167 193.128 51.97 193.128 52.37C193.128 52.77 193.212 53.1267 193.378 53.44C193.552 53.7533 193.785 53.9967 194.078 54.17C194.378 54.3367 194.715 54.42 195.088 54.42ZM201.294 51.6C201.954 51.6067 202.457 51.7533 202.804 52.04C203.15 52.3267 203.324 52.74 203.324 53.28C203.324 53.84 203.137 54.27 202.764 54.57C202.39 54.87 201.857 55.0167 201.164 55.01L199.084 55V49.74H199.794V51.58L201.294 51.6ZM204.204 49.74H204.914V55H204.204V49.74ZM201.124 54.47C201.61 54.4767 201.977 54.38 202.224 54.18C202.477 53.9733 202.604 53.6733 202.604 53.28C202.604 52.8933 202.48 52.6067 202.234 52.42C201.987 52.2333 201.617 52.1367 201.124 52.13L199.794 52.11V54.45L201.124 54.47ZM206.735 49.74H207.445V52.07H210.755V49.74H211.465V55H210.755V52.68H207.445V55H206.735V49.74ZM215.193 52.66H213.993V55H213.283V49.74H213.993V52.05H215.203L217.053 49.74H217.823L215.753 52.29L217.973 55H217.133L215.193 52.66ZM223.308 52.59H218.908C218.948 53.1367 219.158 53.58 219.538 53.92C219.918 54.2533 220.398 54.42 220.978 54.42C221.305 54.42 221.605 54.3633 221.878 54.25C222.152 54.13 222.388 53.9567 222.588 53.73L222.988 54.19C222.755 54.47 222.462 54.6833 222.108 54.83C221.762 54.9767 221.378 55.05 220.958 55.05C220.418 55.05 219.938 54.9367 219.518 54.71C219.105 54.4767 218.782 54.1567 218.548 53.75C218.315 53.3433 218.198 52.8833 218.198 52.37C218.198 51.8567 218.308 51.3967 218.528 50.99C218.755 50.5833 219.062 50.2667 219.448 50.04C219.842 49.8133 220.282 49.7 220.768 49.7C221.255 49.7 221.692 49.8133 222.078 50.04C222.465 50.2667 222.768 50.5833 222.988 50.99C223.208 51.39 223.318 51.85 223.318 52.37L223.308 52.59ZM220.768 50.31C220.262 50.31 219.835 50.4733 219.488 50.8C219.148 51.12 218.955 51.54 218.908 52.06H222.638C222.592 51.54 222.395 51.12 222.048 50.8C221.708 50.4733 221.282 50.31 220.768 50.31Z" fill="#373943"/>
</svg>
