<svg>
    <defs>

        <symbol id="arrow" width="11" height="17" viewBox="0 0 11 17" xmlns="http://www.w3.org/2000/svg">
            <path d="M9.99666 9.34159L2.68691 16.6511C2.22192 17.1163 1.46803 17.1163 1.00326 16.6511C0.538463 16.1863 0.538463 15.4324 1.00326 14.9677L7.47126 8.49988L1.00345 2.03231C0.538651 1.56732 0.538651 0.813539 1.00345 0.34874C1.46825 -0.116247 2.22211 -0.116247 2.6871 0.34874L9.99685 7.65836C10.2292 7.89087 10.3453 8.19528 10.3453 8.49984C10.3453 8.80455 10.229 9.10919 9.99666 9.34159Z"/>
        </symbol>

        <symbol id="arrow_big_grey" width="182" height="455" viewBox="0 0 182 455" fill="none" xmlns="http://www.w3.org/2000/svg">
            <path d="M245 439L32 226L242 16" stroke="#F2F2F2" stroke-width="45"/>
        </symbol>

        <symbol id="arrow_big_yellow" width="257" height="721" viewBox="0 0 257 721" fill="none" xmlns="http://www.w3.org/2000/svg">
            <path d="M363 720L1 357.95L357.901 1" stroke="#F9B233"/>
        </symbol>

        <symbol id="icon_logout" viewBox="0 0 512.016 512" xmlns="http://www.w3.org/2000/svg">
            <path d="m496 240.007812h-202.667969c-8.832031 0-16-7.167968-16-16 0-8.832031 7.167969-16 16-16h202.667969c8.832031 0 16 7.167969 16 16 0 8.832032-7.167969 16-16 16zm0 0"/><path d="m416 320.007812c-4.097656 0-8.191406-1.558593-11.308594-4.691406-6.25-6.253906-6.25-16.386718 0-22.636718l68.695313-68.691407-68.695313-68.695312c-6.25-6.25-6.25-16.382813 0-22.632813 6.253906-6.253906 16.386719-6.253906 22.636719 0l80 80c6.25 6.25 6.25 16.382813 0 22.632813l-80 80c-3.136719 3.15625-7.230469 4.714843-11.328125 4.714843zm0 0"/><path d="m170.667969 512.007812c-4.566407 0-8.898438-.640624-13.226563-1.984374l-128.386718-42.773438c-17.46875-6.101562-29.054688-22.378906-29.054688-40.574219v-384c0-23.53125 19.136719-42.6679685 42.667969-42.6679685 4.5625 0 8.894531.6406255 13.226562 1.9843755l128.382813 42.773437c17.472656 6.101563 29.054687 22.378906 29.054687 40.574219v384c0 23.53125-19.132812 42.667968-42.664062 42.667968zm-128-480c-5.867188 0-10.667969 4.800782-10.667969 10.667969v384c0 4.542969 3.050781 8.765625 7.402344 10.28125l127.785156 42.582031c.917969.296876 2.113281.46875 3.480469.46875 5.867187 0 10.664062-4.800781 10.664062-10.667968v-384c0-4.542969-3.050781-8.765625-7.402343-10.28125l-127.785157-42.582032c-.917969-.296874-2.113281-.46875-3.476562-.46875zm0 0"/><path d="m325.332031 170.675781c-8.832031 0-16-7.167969-16-16v-96c0-14.699219-11.964843-26.667969-26.664062-26.667969h-240c-8.832031 0-16-7.167968-16-16 0-8.832031 7.167969-15.9999995 16-15.9999995h240c32.363281 0 58.664062 26.3046875 58.664062 58.6679685v96c0 8.832031-7.167969 16-16 16zm0 0"/><path d="m282.667969 448.007812h-85.335938c-8.832031 0-16-7.167968-16-16 0-8.832031 7.167969-16 16-16h85.335938c14.699219 0 26.664062-11.96875 26.664062-26.667968v-96c0-8.832032 7.167969-16 16-16s16 7.167968 16 16v96c0 32.363281-26.300781 58.667968-58.664062 58.667968zm0 0"/>
        </symbol>

        <symbol id="icon_user" viewBox="-42 0 512 512.001" xmlns="http://www.w3.org/2000/svg">
            <path d="m210.351562 246.632812c33.882813 0 63.21875-12.152343 87.195313-36.128906 23.96875-23.972656 36.125-53.304687 36.125-87.191406 0-33.875-12.152344-63.210938-36.128906-87.191406-23.976563-23.96875-53.3125-36.121094-87.191407-36.121094-33.886718 0-63.21875 12.152344-87.191406 36.125s-36.128906 53.308594-36.128906 87.1875c0 33.886719 12.15625 63.222656 36.128906 87.195312 23.980469 23.96875 53.316406 36.125 87.191406 36.125zm-65.972656-189.292968c18.394532-18.394532 39.972656-27.335938 65.972656-27.335938 25.996094 0 47.578126 8.941406 65.976563 27.335938 18.394531 18.398437 27.339844 39.980468 27.339844 65.972656 0 26-8.945313 47.578125-27.339844 65.976562-18.398437 18.398438-39.980469 27.339844-65.976563 27.339844-25.992187 0-47.570312-8.945312-65.972656-27.339844-18.398437-18.394531-27.34375-39.976562-27.34375-65.976562 0-25.992188 8.945313-47.574219 27.34375-65.972656zm0 0"/><path d="m426.128906 393.703125c-.691406-9.976563-2.089844-20.859375-4.148437-32.351563-2.078125-11.578124-4.753907-22.523437-7.957031-32.527343-3.3125-10.339844-7.808594-20.550781-13.375-30.335938-5.769532-10.15625-12.550782-19-20.160157-26.277343-7.957031-7.613282-17.699219-13.734376-28.964843-18.199219-11.226563-4.441407-23.667969-6.691407-36.976563-6.691407-5.226563 0-10.28125 2.144532-20.042969 8.5-6.007812 3.917969-13.035156 8.449219-20.878906 13.460938-6.707031 4.273438-15.792969 8.277344-27.015625 11.902344-10.949219 3.542968-22.066406 5.339844-33.042969 5.339844-10.96875 0-22.085937-1.796876-33.042968-5.339844-11.210938-3.621094-20.300782-7.625-26.996094-11.898438-7.769532-4.964844-14.800782-9.496094-20.898438-13.46875-9.753906-6.355468-14.808594-8.5-20.035156-8.5-13.3125 0-25.75 2.253906-36.972656 6.699219-11.257813 4.457031-21.003906 10.578125-28.96875 18.199219-7.609375 7.28125-14.390625 16.121094-20.15625 26.273437-5.558594 9.785157-10.058594 19.992188-13.371094 30.339844-3.199219 10.003906-5.875 20.945313-7.953125 32.523437-2.0625 11.476563-3.457031 22.363282-4.148437 32.363282-.679688 9.777344-1.023438 19.953125-1.023438 30.234375 0 26.726562 8.496094 48.363281 25.25 64.320312 16.546875 15.746094 38.4375 23.730469 65.066406 23.730469h246.53125c26.621094 0 48.511719-7.984375 65.0625-23.730469 16.757813-15.945312 25.253906-37.589843 25.253906-64.324219-.003906-10.316406-.351562-20.492187-1.035156-30.242187zm-44.90625 72.828125c-10.933594 10.40625-25.449218 15.464844-44.378906 15.464844h-246.527344c-18.933594 0-33.449218-5.058594-44.378906-15.460938-10.722656-10.207031-15.933594-24.140625-15.933594-42.585937 0-9.59375.316406-19.066407.949219-28.160157.617187-8.921874 1.878906-18.722656 3.75-29.136718 1.847656-10.285156 4.199219-19.9375 6.996094-28.675782 2.683593-8.378906 6.34375-16.675781 10.882812-24.667968 4.332031-7.617188 9.316407-14.152344 14.816407-19.417969 5.144531-4.925781 11.628906-8.957031 19.269531-11.980469 7.066406-2.796875 15.007812-4.328125 23.628906-4.558594 1.050781.558594 2.921875 1.625 5.953125 3.601563 6.167969 4.019531 13.277344 8.605469 21.136719 13.625 8.859375 5.648437 20.273437 10.75 33.910156 15.152344 13.941406 4.507812 28.160156 6.796875 42.273437 6.796875 14.113282 0 28.335938-2.289063 42.269532-6.792969 13.648437-4.410156 25.058594-9.507813 33.929687-15.164063 8.042969-5.140624 14.953125-9.59375 21.121094-13.617187 3.03125-1.972656 4.902344-3.042969 5.953125-3.601563 8.625.230469 16.566406 1.761719 23.636719 4.558594 7.636719 3.023438 14.121093 7.058594 19.265625 11.980469 5.5 5.261719 10.484375 11.796875 14.816406 19.421875 4.542969 7.988281 8.207031 16.289062 10.886719 24.660156 2.800781 8.75 5.15625 18.398438 7 28.675782 1.867187 10.433593 3.132812 20.238281 3.75 29.144531v.007812c.636719 9.058594.957031 18.527344.960937 28.148438-.003906 18.449219-5.214844 32.378906-15.9375 42.582031zm0 0"/>
        </symbol>


        <symbol id="icon_window_max" enable-background="new 0 0 24 24" viewBox="0 0 24 24"  xmlns="http://www.w3.org/2000/svg">
            <g>
                <path d="m15 9.75c-.192 0-.384-.073-.53-.22-.293-.293-.293-.768 0-1.061l8.25-8.25c.293-.293.768-.293 1.061 0s.293.768 0 1.061l-8.25 8.25c-.147.147-.339.22-.531.22z"/></g><g><path d="m20.25 10h-5.5c-.414 0-.75-.336-.75-.75v-5.5c0-.414.336-.75.75-.75s.75.336.75.75v4.75h4.75c.414 0 .75.336.75.75s-.336.75-.75.75z"/></g><g><path d="m17.25 24h-14.5c-1.517 0-2.75-1.233-2.75-2.75v-11.5c0-.981.529-1.89 1.38-2.373.361-.205.818-.077 1.022.283.205.36.078.818-.282 1.022-.388.22-.62.62-.62 1.068v11.5c0 .689.561 1.25 1.25 1.25h14.5c.689 0 1.25-.561 1.25-1.25v-2c0-.414.336-.75.75-.75s.75.336.75.75v2c0 1.517-1.233 2.75-2.75 2.75z"/></g><g><path d="m1.75 12h-1c-.414 0-.75-.336-.75-.75s.336-.75.75-.75h1c.414 0 .75.336.75.75s-.336.75-.75.75z"/></g><g><path d="m21.25 17h-14.5c-1.517 0-2.75-1.233-2.75-2.75v-11.5c0-1.517 1.233-2.75 2.75-2.75h11.5c.414 0 .75.336.75.75s-.336.75-.75.75h-11.5c-.689 0-1.25.561-1.25 1.25v11.5c0 .689.561 1.25 1.25 1.25h14.5c.689 0 1.25-.561 1.25-1.25v-8.5c0-.414.336-.75.75-.75s.75.336.75.75v8.5c0 1.517-1.233 2.75-2.75 2.75z"/></g><g>
                <path d="m11.25 5h-6.5c-.414 0-.75-.336-.75-.75s.336-.75.75-.75h6.5c.414 0 .75.336.75.75s-.336.75-.75.75z"/>
            </g>
        </symbol>

        <symbol id="icon_calendar" xmlns="http://www.w3.org/2000/svg" viewBox="0 0 512 512" style="enable-background:new 0 0 512 512;" xml:space="preserve"><g><g><g><circle cx="386" cy="210" r="20"/><path d="M432,40h-26V20c0-11.046-8.954-20-20-20c-11.046,0-20,8.954-20,20v20h-91V20c0-11.046-8.954-20-20-20 c-11.046,0-20,8.954-20,20v20h-90V20c0-11.046-8.954-20-20-20s-20,8.954-20,20v20H80C35.888,40,0,75.888,0,120v312 c0,44.112,35.888,80,80,80h153c11.046,0,20-8.954,20-20c0-11.046-8.954-20-20-20H80c-22.056,0-40-17.944-40-40V120 c0-22.056,17.944-40,40-40h25v20c0,11.046,8.954,20,20,20s20-8.954,20-20V80h90v20c0,11.046,8.954,20,20,20s20-8.954,20-20V80h91 v20c0,11.046,8.954,20,20,20c11.046,0,20-8.954,20-20V80h26c22.056,0,40,17.944,40,40v114c0,11.046,8.954,20,20,20 c11.046,0,20-8.954,20-20V120C512,75.888,476.112,40,432,40z"/><path d="M391,270c-66.72,0-121,54.28-121,121s54.28,121,121,121s121-54.28,121-121S457.72,270,391,270z M391,472 c-44.663,0-81-36.336-81-81s36.337-81,81-81c44.663,0,81,36.336,81,81S435.663,472,391,472z"/>
            <path d="M420,371h-9v-21c0-11.046-8.954-20-20-20c-11.046,0-20,8.954-20,20v41c0,11.046,8.954,20,20,20h29 c11.046,0,20-8.954,20-20C440,379.954,431.046,371,420,371z"/>
                    <circle cx="299" cy="210" r="20"/><circle cx="212" cy="297" r="20"/><circle cx="125" cy="210" r="20"/><circle cx="125" cy="297" r="20"/><circle cx="125" cy="384" r="20"/><circle cx="212" cy="384" r="20"/><circle cx="212" cy="210" r="20"/>
                </g></g></g>
        </symbol>

        <symbol id="icon_add" xmlns="http://www.w3.org/2000/svg" viewBox="0 0 477.867 477.867" style="enable-background:new 0 0 477.867 477.867;" xml:space="preserve">
            <g><g><path d="M392.533,0h-307.2C38.228,0.056,0.056,38.228,0,85.333v307.2c0.056,47.105,38.228,85.277,85.333,85.333h307.2 c47.105-0.056,85.277-38.228,85.333-85.333v-307.2C477.81,38.228,439.638,0.056,392.533,0z M443.733,392.533 c0,28.277-22.923,51.2-51.2,51.2h-307.2c-28.277,0-51.2-22.923-51.2-51.2v-307.2c0-28.277,22.923-51.2,51.2-51.2h307.2 c28.277,0,51.2,22.923,51.2,51.2V392.533z"/></g></g><g><g><path d="M324.267,221.867H256V153.6c0-9.426-7.641-17.067-17.067-17.067s-17.067,7.641-17.067,17.067v68.267H153.6 c-9.426,0-17.067,7.641-17.067,17.067S144.174,256,153.6,256h68.267v68.267c0,9.426,7.641,17.067,17.067,17.067 S256,333.692,256,324.267V256h68.267c9.426,0,17.067-7.641,17.067-17.067S333.692,221.867,324.267,221.867z"/></g></g>
        </symbol>

        <symbol id="icon_add_pencil" enable-background="new 0 0 24 24" viewBox="0 0 24 24" xmlns="http://www.w3.org/2000/svg">
            <path d="m17.5 24c-3.584 0-6.5-2.916-6.5-6.5s2.916-6.5 6.5-6.5 6.5 2.916 6.5 6.5-2.916 6.5-6.5 6.5zm0-11.5c-2.757 0-5 2.243-5 5s2.243 5 5 5 5-2.243 5-5-2.243-5-5-5z"/><path d="m17.5 21c-.414 0-.75-.336-.75-.75v-5.5c0-.414.336-.75.75-.75s.75.336.75.75v5.5c0 .414-.336.75-.75.75z"/><path d="m20.25 18.25h-5.5c-.414 0-.75-.336-.75-.75s.336-.75.75-.75h5.5c.414 0 .75.336.75.75s-.336.75-.75.75z"/><path d="m19.871 9.011c-.192 0-.384-.073-.53-.22l-4.135-4.134c-.293-.293-.293-.768 0-1.061s.768-.293 1.061 0l4.135 4.134c.293.293.293.768 0 1.061-.147.147-.339.22-.531.22z"/><path d="m.75 24c-.195 0-.387-.076-.53-.22-.206-.206-.274-.513-.175-.786l2.38-6.56c.038-.104.097-.197.175-.274l15.08-15.07c1.392-1.404 3.836-1.406 5.233.002.7.701 1.087 1.628 1.087 2.608 0 .999-.389 1.931-1.094 2.625l-3.135 3.135c-.293.293-.768.293-1.061 0s-.293-.768 0-1.061l3.14-3.14c.421-.414.65-.967.65-1.56 0-.58-.231-1.13-.65-1.55-.833-.84-2.279-.838-3.107-.002l-14.965 14.956-1.776 4.896 4.896-1.776 1.502-1.503c.293-.293.768-.293 1.061 0s.293.768 0 1.061l-1.621 1.619c-.078.078-.171.138-.274.175l-6.56 2.38c-.084.03-.17.045-.256.045z"/><path d="m7.308 21.62c-.192 0-.384-.073-.53-.22l-4.178-4.177c-.293-.293-.293-.768 0-1.061s.768-.293 1.061 0l4.178 4.178c.293.293.293.768 0 1.061-.147.146-.339.219-.531.219z"/>
        </symbol>

        <symbol id="icon_add_pencil" enable-background="new 0 0 24 24" viewBox="0 0 24 24" xmlns="http://www.w3.org/2000/svg">
            <path d="m17.5 24c-3.584 0-6.5-2.916-6.5-6.5s2.916-6.5 6.5-6.5 6.5 2.916 6.5 6.5-2.916 6.5-6.5 6.5zm0-11.5c-2.757 0-5 2.243-5 5s2.243 5 5 5 5-2.243 5-5-2.243-5-5-5z"/><path d="m17.5 21c-.414 0-.75-.336-.75-.75v-5.5c0-.414.336-.75.75-.75s.75.336.75.75v5.5c0 .414-.336.75-.75.75z"/><path d="m20.25 18.25h-5.5c-.414 0-.75-.336-.75-.75s.336-.75.75-.75h5.5c.414 0 .75.336.75.75s-.336.75-.75.75z"/><path d="m19.871 9.011c-.192 0-.384-.073-.53-.22l-4.135-4.134c-.293-.293-.293-.768 0-1.061s.768-.293 1.061 0l4.135 4.134c.293.293.293.768 0 1.061-.147.147-.339.22-.531.22z"/><path d="m.75 24c-.195 0-.387-.076-.53-.22-.206-.206-.274-.513-.175-.786l2.38-6.56c.038-.104.097-.197.175-.274l15.08-15.07c1.392-1.404 3.836-1.406 5.233.002.7.701 1.087 1.628 1.087 2.608 0 .999-.389 1.931-1.094 2.625l-3.135 3.135c-.293.293-.768.293-1.061 0s-.293-.768 0-1.061l3.14-3.14c.421-.414.65-.967.65-1.56 0-.58-.231-1.13-.65-1.55-.833-.84-2.279-.838-3.107-.002l-14.965 14.956-1.776 4.896 4.896-1.776 1.502-1.503c.293-.293.768-.293 1.061 0s.293.768 0 1.061l-1.621 1.619c-.078.078-.171.138-.274.175l-6.56 2.38c-.084.03-.17.045-.256.045z"/><path d="m7.308 21.62c-.192 0-.384-.073-.53-.22l-4.178-4.177c-.293-.293-.293-.768 0-1.061s.768-.293 1.061 0l4.178 4.178c.293.293.293.768 0 1.061-.147.146-.339.219-.531.219z"/>
        </symbol>

        <symbol id="icon-portfel" width="24" height="24" viewBox="0 0 24 24" fill="none" xmlns="http://www.w3.org/2000/svg">
            <path d="M20.25 6.75H3.75C3.33579 6.75 3 7.08579 3 7.5V19.5C3 19.9142 3.33579 20.25 3.75 20.25H20.25C20.6642 20.25 21 19.9142 21 19.5V7.5C21 7.08579 20.6642 6.75 20.25 6.75Z" stroke-width="1.5" stroke-linecap="round" stroke-linejoin="round"/>
            <path d="M15.75 6.75V5.25C15.75 4.85218 15.592 4.47064 15.3107 4.18934C15.0294 3.90804 14.6478 3.75 14.25 3.75H9.75C9.35218 3.75 8.97064 3.90804 8.68934 4.18934C8.40804 4.47064 8.25 4.85218 8.25 5.25V6.75" stroke-width="1.5" stroke-linecap="round" stroke-linejoin="round"/>
            <path d="M3 15H21" stroke-width="1.5" stroke-linecap="round" stroke-linejoin="round"/>
        </symbol>

        <symbol id="icon-rocket" width="24" height="24" viewBox="0 0 24 24" fill="none" xmlns="http://www.w3.org/2000/svg">
            <path d="M13.5 21H10.5" stroke-width="1.5" stroke-linecap="round" stroke-linejoin="round"/>
            <path d="M11.5269 1.85217C9.74631 3.27849 3.79095 8.97802 8.99836 17.9994H14.9984C20.0975 8.98441 14.2292 3.28656 12.4674 1.8552C12.3346 1.74724 12.1688 1.68806 11.9977 1.6875C11.8265 1.68695 11.6603 1.74507 11.5269 1.85217V1.85217Z"  stroke-width="1.5" stroke-linecap="round" stroke-linejoin="round"/>
            <path d="M6.92541 10.4395L3.98633 13.9663C3.91292 14.0544 3.86069 14.1582 3.83365 14.2696C3.80661 14.3811 3.80548 14.4972 3.83036 14.6092L4.98938 19.8248C5.01701 19.9491 5.07585 20.0644 5.16034 20.1597C5.24484 20.255 5.35221 20.3272 5.47233 20.3695C5.59246 20.4118 5.72138 20.4228 5.84695 20.4015C5.97252 20.3802 6.09059 20.3273 6.19004 20.2477L9.00042 17.9994"  stroke-width="1.5" stroke-linecap="round" stroke-linejoin="round"/>
            <path d="M17.0186 10.373L20.0141 13.9677C20.0875 14.0558 20.1397 14.1595 20.1668 14.271C20.1938 14.3824 20.1949 14.4986 20.1701 14.6105L19.011 19.8261C18.9834 19.9504 18.9246 20.0657 18.8401 20.161C18.7556 20.2563 18.6482 20.3285 18.5281 20.3708C18.408 20.4131 18.279 20.4241 18.1535 20.4028C18.0279 20.3815 17.9098 20.3286 17.8104 20.2491L15 18.0008"  stroke-width="1.5" stroke-linecap="round" stroke-linejoin="round"/>
            <path d="M12 10.125C12.6213 10.125 13.125 9.62132 13.125 9C13.125 8.37868 12.6213 7.875 12 7.875C11.3787 7.875 10.875 8.37868 10.875 9C10.875 9.62132 11.3787 10.125 12 10.125Z" fill="#373943"/>
        </symbol>

        <symbol id="icon-sticker" width="24" height="24" viewBox="0 0 24 24" fill="none" xmlns="http://www.w3.org/2000/svg">
            <path d="M12.75 20.25H8.25C7.05653 20.25 5.91193 19.7759 5.06802 18.932C4.22411 18.0881 3.75 16.9435 3.75 15.75V8.25C3.75 7.05653 4.22411 5.91193 5.06802 5.06802C5.91193 4.22411 7.05653 3.75 8.25 3.75H15.75C16.9435 3.75 18.0881 4.22411 18.932 5.06802C19.7759 5.91193 20.25 7.05653 20.25 8.25V12.75C19.5 15 15 19.5 12.75 20.25Z"  stroke-width="1.5" stroke-linecap="round" stroke-linejoin="round"/>
            <path d="M12.75 20.25V17.25C12.75 16.0565 13.2241 14.9119 14.068 14.068C14.9119 13.2241 16.0565 12.75 17.25 12.75H20.25"  stroke-width="1.5" stroke-linecap="round" stroke-linejoin="round"/>
        </symbol>

        <svg id="icon-crown" width="24" height="24" viewBox="0 0 24 24" fill="none" xmlns="http://www.w3.org/2000/svg">
            <path d="M4.22958 18.3767C4.25296 18.4752 4.29604 18.5681 4.35624 18.6496C4.41643 18.7311 4.49249 18.7996 4.57984 18.8509C4.6672 18.9023 4.76403 18.9354 4.86452 18.9483C4.96501 18.9613 5.06709 18.9538 5.1646 18.9262C9.63546 17.6918 14.3572 17.6914 18.8283 18.925C18.9258 18.9525 19.0278 18.96 19.1283 18.947C19.2287 18.9341 19.3255 18.9009 19.4128 18.8496C19.5002 18.7983 19.5762 18.7299 19.6364 18.6484C19.6966 18.567 19.7397 18.4742 19.7631 18.3756L22.1527 8.22092C22.1847 8.08498 22.1781 7.9428 22.1336 7.81041C22.0892 7.67802 22.0086 7.56066 21.9011 7.47157C21.7935 7.38247 21.6632 7.32518 21.5249 7.30613C21.3865 7.28708 21.2456 7.30704 21.118 7.36376L16.3758 9.47142C16.2045 9.54753 16.011 9.55677 15.8333 9.49734C15.6556 9.43791 15.5066 9.3141 15.4155 9.1503L12.6544 4.1802C12.5894 4.06328 12.4944 3.96586 12.3791 3.89803C12.2638 3.8302 12.1325 3.79443 11.9988 3.79443C11.865 3.79443 11.7337 3.8302 11.6184 3.89803C11.5031 3.96586 11.4081 4.06328 11.3432 4.1802L8.58199 9.1503C8.49099 9.3141 8.34196 9.43791 8.16425 9.49734C7.98653 9.55677 7.79301 9.54753 7.62177 9.47142L2.87882 7.36345C2.75123 7.30674 2.61034 7.28677 2.47201 7.3058C2.33368 7.32483 2.20341 7.3821 2.09587 7.47115C1.98833 7.56021 1.90778 7.67751 1.8633 7.80987C1.81881 7.94222 1.81216 8.08437 1.84409 8.2203L4.22958 18.3767Z" stroke-width="1.50764" stroke-linecap="round" stroke-linejoin="round"/>
        </svg>

        <symbol id="icon-user" width="24" height="24" viewBox="0 0 24 24" fill="none" xmlns="http://www.w3.org/2000/svg">
            <path d="M5.98511 18.949C5.98511 15.424 7.81429 12.8186 11.9602 12.8186C16.1061 12.8186 18.0245 15.424 18.0245 18.949" stroke-width="1.5"/>
            <path d="M15.5 9.27173C15.5 11.2047 13.933 12.7717 12 12.7717C10.067 12.7717 8.5 11.2047 8.5 9.27173C8.5 7.33873 10.067 5.77173 12 5.77173C13.933 5.77173 15.5 7.33873 15.5 9.27173Z" stroke-width="1.5"/>
            <path d="M21.25 12C21.25 17.1086 17.1086 21.25 12 21.25C6.89137 21.25 2.75 17.1086 2.75 12C2.75 6.89137 6.89137 2.75 12 2.75C17.1086 2.75 21.25 6.89137 21.25 12Z" stroke-width="1.5"/>
        </symbol>


        <symbol id="icon-info" width="24" height="24" viewBox="0 0 24 24" fill="none" xmlns="http://www.w3.org/2000/svg">
            <path d="M12 21C16.9706 21 21 16.9706 21 12C21 7.02944 16.9706 3 12 3C7.02944 3 3 7.02944 3 12C3 16.9706 7.02944 21 12 21Z"  stroke-width="1.5" stroke-linecap="round" stroke-linejoin="round"/>
            <path d="M11.25 11.25H12V16.5H12.75"  stroke-width="1.5" stroke-linecap="round" stroke-linejoin="round"/>
            <path d="M12 9C12.6213 9 13.125 8.49632 13.125 7.875C13.125 7.25368 12.6213 6.75 12 6.75C11.3787 6.75 10.875 7.25368 10.875 7.875C10.875 8.49632 11.3787 9 12 9Z" fill="#373943"/>
        </symbol>

        <symbol id="icon-headset" width="24" height="24" viewBox="0 0 24 24" fill="none" xmlns="http://www.w3.org/2000/svg">
            <path d="M21.1365 12H18.1365C17.7387 12 17.3571 12.158 17.0758 12.4393C16.7945 12.7207 16.6365 13.1022 16.6365 13.5V17.25C16.6365 17.6478 16.7945 18.0294 17.0758 18.3107C17.3571 18.592 17.7387 18.75 18.1365 18.75H19.6365C20.0343 18.75 20.4158 18.592 20.6971 18.3107C20.9784 18.0294 21.1365 17.6478 21.1365 17.25V12ZM21.1365 12C21.1365 10.8124 20.9014 9.63647 20.4449 8.5401C19.9883 7.44373 19.3192 6.44856 18.4763 5.61196C17.6333 4.77536 16.6331 4.11388 15.5333 3.66564C14.4335 3.21739 13.2558 2.99125 12.0682 3.00026C10.8806 2.99125 9.70299 3.21739 8.60319 3.66564C7.50339 4.11388 6.50318 4.77536 5.66021 5.61196C4.81725 6.44856 4.1482 7.44373 3.69163 8.5401C3.23506 9.63647 3 10.8124 3 12V17.25C3 17.6478 3.15804 18.0294 3.43934 18.3107C3.72064 18.592 4.10218 18.75 4.5 18.75H6C6.39782 18.75 6.77936 18.592 7.06066 18.3107C7.34196 18.0294 7.5 17.6478 7.5 17.25V13.5C7.5 13.1022 7.34196 12.7207 7.06066 12.4393C6.77936 12.158 6.39782 12 6 12H3"  stroke-width="1.5" stroke-linecap="round" stroke-linejoin="round"/>
            <path d="M21.1365 17.25V19.5C21.1365 20.2956 20.8204 21.0587 20.2578 21.6213C19.6952 22.1839 18.9321 22.5 18.1365 22.5H12.75"  stroke-width="1.5" stroke-linecap="round" stroke-linejoin="round"/>
        </symbol>

        <symbol id="icon-gearSix" width="24" height="24" viewBox="0 0 24 24" fill="none" xmlns="http://www.w3.org/2000/svg">
            <path d="M12 16.5C14.4853 16.5 16.5 14.4853 16.5 12C16.5 9.51472 14.4853 7.5 12 7.5C9.51472 7.5 7.5 9.51472 7.5 12C7.5 14.4853 9.51472 16.5 12 16.5Z"  stroke-width="1.5" stroke-linecap="round" stroke-linejoin="round"/>
            <path d="M4.90184 8.58439C5.07299 8.22944 5.27057 7.88785 5.49291 7.56251L5.45195 5.12951C5.45009 5.01782 5.47312 4.90712 5.51937 4.80544C5.56561 4.70375 5.63392 4.61364 5.71933 4.54164C6.5975 3.80078 7.59984 3.22114 8.67998 2.82953C8.78477 2.79179 8.89665 2.77786 9.0075 2.78875C9.11834 2.79964 9.22537 2.83508 9.32081 2.8925L11.4107 4.1465L11.4086 4.1452C11.8016 4.11594 12.1962 4.11626 12.5891 4.14613L14.6757 2.89417C14.7715 2.83672 14.8788 2.80131 14.99 2.79052C15.1012 2.77973 15.2134 2.79383 15.3185 2.83179C16.3992 3.22188 17.4023 3.80011 18.2815 4.53973C18.3666 4.61161 18.4346 4.70154 18.4806 4.80298C18.5266 4.90442 18.5494 5.01483 18.5474 5.12619L18.5064 7.56312L18.5064 7.56061C18.7282 7.8863 18.9253 8.2282 19.0959 8.58342L21.2234 9.76445C21.321 9.81868 21.4054 9.89398 21.4703 9.98487C21.5353 10.0758 21.5791 10.18 21.5988 10.2899C21.8011 11.4198 21.8021 12.5765 21.6018 13.7067C21.5822 13.817 21.5384 13.9214 21.4734 14.0126C21.4084 14.1037 21.3239 14.1792 21.2261 14.2336L19.0953 15.4164L19.0975 15.4152C18.9263 15.7702 18.7288 16.1118 18.5064 16.4371L18.48 16.5536L18.5474 18.8701C18.5492 18.9818 18.5262 19.0925 18.48 19.1942C18.4337 19.2958 18.3654 19.386 18.28 19.458C17.4018 20.1988 16.3995 20.7785 15.3194 21.1701C15.2146 21.2078 15.1027 21.2217 14.9918 21.2109C14.881 21.2 14.774 21.1645 14.6785 21.1071L12.5886 19.8531L12.5907 19.8544C12.1978 19.8837 11.8032 19.8833 11.4102 19.8535L9.32369 21.1054C9.22789 21.1629 9.1205 21.1983 9.00932 21.2091C8.89813 21.2199 8.78594 21.2058 8.68089 21.1678C7.60019 20.7777 6.59704 20.1995 5.71782 19.4599C5.63275 19.388 5.56475 19.2981 5.51876 19.1966C5.47277 19.0952 5.44995 18.9848 5.45195 18.8734L5.49297 16.4365L5.49293 16.439C5.2711 16.1133 5.07407 15.7714 4.90348 15.4162L2.77597 14.2351C2.67831 14.1809 2.59396 14.1056 2.52902 14.0147C2.46408 13.9238 2.4202 13.8196 2.40055 13.7097C2.19822 12.5798 2.19721 11.4231 2.39756 10.2929C2.4171 10.1826 2.46096 10.0782 2.52595 9.98705C2.59093 9.89592 2.67541 9.82041 2.77324 9.76603L4.90404 8.58317L4.90184 8.58439Z"  stroke-width="1.5" stroke-linecap="round" stroke-linejoin="round"/>
        </symbol>


        <symbol id="portfolio_figure_bottom_right" width="137" height="69" viewBox="0 0 137 69" fill="none" xmlns="http://www.w3.org/2000/svg">
            <path d="M68.5 -2.99423e-06C106.332 -1.34056e-06 137 30.6685 137 68.5L137 138L-6.03217e-06 138L-2.99423e-06 68.5C-1.34056e-06 30.6685 30.6685 -4.6479e-06 68.5 -2.99423e-06Z" fill="#199F27"/>
        </symbol>

        <symbol id="portfolio_figure_bottom_left" width="64" height="64" viewBox="0 0 64 64" fill="none" xmlns="http://www.w3.org/2000/svg">
            <circle cx="32" cy="32" r="32" fill="#3E54D8"/>
        </symbol>

        <symbol id="portfolio_figure_top_right" width="140" height="139" viewBox="0 0 140 139" fill="none" xmlns="http://www.w3.org/2000/svg">
            <path d="M0 69.5C0 31.1162 31.1162 0 69.5 0L140 0V139H69.5C31.1162 139 0 107.884 0 69.5Z" fill="#F3B63F"/>
        </symbol>

        <symbol id="portfolio_figure_top_left" width="192" height="192" viewBox="0 0 192 192" fill="none" xmlns="http://www.w3.org/2000/svg">
            <path d="M192 0C192 106.039 106.039 192 0 192L0 0L192 0Z" fill="#ED6373"/>
        </symbol>

        <symbol id="icon-signOut" width="24" height="24" viewBox="0 0 24 24" fill="none" xmlns="http://www.w3.org/2000/svg">
            <path d="M16.3135 8.0625L20.2499 12L16.3135 15.9375" stroke-width="1.5" stroke-linecap="round" stroke-linejoin="round"/>
            <path d="M9.75 12H20.2472" stroke-width="1.5" stroke-linecap="round" stroke-linejoin="round"/>
            <path d="M9.75 20.25H4.5C4.30109 20.25 4.11032 20.171 3.96967 20.0303C3.82902 19.8897 3.75 19.6989 3.75 19.5V4.5C3.75 4.30109 3.82902 4.11032 3.96967 3.96967C4.11032 3.82902 4.30109 3.75 4.5 3.75H9.75" stroke-width="1.5" stroke-linecap="round" stroke-linejoin="round"/>
        </symbol>

        <symbol id="icon-house" width="32" height="32" viewBox="0 0 32 32" fill="none" xmlns="http://www.w3.org/2000/svg">
            <path d="M18.9993 26.0002V20C18.9993 19.7348 18.8939 19.4805 18.7064 19.2929C18.5188 19.1054 18.2645 19 17.9993 19H13.9993C13.7341 19 13.4797 19.1054 13.2922 19.2929C13.1046 19.4805 12.9993 19.7348 12.9993 20V26.0002C12.9993 26.2654 12.8939 26.5197 12.7064 26.7072C12.5189 26.8948 12.2646 27.0001 11.9994 27.0002L6.00012 27.001C5.86879 27.001 5.73874 26.9751 5.6174 26.9249C5.49606 26.8746 5.38581 26.801 5.29294 26.7081C5.20007 26.6153 5.12639 26.505 5.07613 26.3837C5.02587 26.2623 5 26.1323 5 26.001V14.4434C5 14.3041 5.02911 14.1663 5.08547 14.0389C5.14183 13.9115 5.22418 13.7973 5.32726 13.7035L15.3266 4.61168C15.5106 4.44431 15.7505 4.35157 15.9993 4.35156C16.2481 4.35155 16.4879 4.44428 16.672 4.61164L26.6727 13.7035C26.7758 13.7972 26.8582 13.9115 26.9145 14.0389C26.9709 14.1663 27 14.3041 27 14.4434V26.001C27 26.1323 26.9741 26.2623 26.9239 26.3837C26.8736 26.505 26.7999 26.6153 26.7071 26.7081C26.6142 26.801 26.5039 26.8746 26.3826 26.9249C26.2613 26.9751 26.1312 27.001 25.9999 27.001L19.9991 27.0002C19.7339 27.0001 19.4796 26.8948 19.2921 26.7072C19.1046 26.5197 18.9993 26.2654 18.9993 26.0002V26.0002Z" stroke="white" stroke-width="2" stroke-linecap="round" stroke-linejoin="round"/>
        </symbol>

        <symbol id="icon-PlusCircle" width="32" height="32" viewBox="0 0 32 32" fill="none" xmlns="http://www.w3.org/2000/svg">
            <path d="M16 28C22.6274 28 28 22.6274 28 16C28 9.37258 22.6274 4 16 4C9.37258 4 4 9.37258 4 16C4 22.6274 9.37258 28 16 28Z" stroke-width="2" stroke-miterlimit="10"/>
            <path d="M11 16H21" stroke-width="2" stroke-linecap="round" stroke-linejoin="round"/>
            <path d="M16 11V21" stroke-width="2" stroke-linecap="round" stroke-linejoin="round"/>
        </symbol>

        <symbol id="icon-PlusFile" width="32" height="32" viewBox="0 0 32 32" fill="none" xmlns="http://www.w3.org/2000/svg">
            <path d="M25 28H6.99902C6.73381 28 6.47945 27.8946 6.29192 27.7071C6.10438 27.5196 5.99902 27.2652 5.99902 27V5C5.99902 4.73478 6.10438 4.48043 6.29192 4.29289C6.47945 4.10536 6.73381 4 6.99902 4H19L26 11V27C26 27.1313 25.9741 27.2614 25.9239 27.3827C25.8736 27.504 25.8 27.6143 25.7071 27.7071C25.6143 27.8 25.504 27.8736 25.3827 27.9239C25.2614 27.9741 25.1313 28 25 28Z" stroke-width="2" stroke-linecap="round" stroke-linejoin="round"/>
            <path d="M19 4V11H26.001" stroke-width="2" stroke-linecap="round" stroke-linejoin="round"/>
            <path d="M13 19H19" stroke-width="2" stroke-linecap="round" stroke-linejoin="round"/>
            <path d="M16 16V22" stroke-width="2" stroke-linecap="round" stroke-linejoin="round"/>
        </symbol>

        <symbol id="icon-ShareNetwork" width="32" height="32" viewBox="0 0 32 32" fill="none" xmlns="http://www.w3.org/2000/svg">
            <path d="M8 20C10.2091 20 12 18.2091 12 16C12 13.7909 10.2091 12 8 12C5.79086 12 4 13.7909 4 16C4 18.2091 5.79086 20 8 20Z" stroke="#8C9BEA" stroke-width="2" stroke-linecap="round" stroke-linejoin="round"/>
            <path d="M22 29C24.2091 29 26 27.2091 26 25C26 22.7909 24.2091 21 22 21C19.7909 21 18 22.7909 18 25C18 27.2091 19.7909 29 22 29Z" stroke="#8C9BEA" stroke-width="2" stroke-linecap="round" stroke-linejoin="round"/>
            <path d="M22 11C24.2091 11 26 9.20914 26 7C26 4.79086 24.2091 3 22 3C19.7909 3 18 4.79086 18 7C18 9.20914 19.7909 11 22 11Z" stroke="#8C9BEA" stroke-width="2" stroke-linecap="round" stroke-linejoin="round"/>
            <path d="M18.6347 9.16211L11.3633 13.8366" stroke="#8C9BEA" stroke-width="2" stroke-linecap="round" stroke-linejoin="round"/>
            <path d="M11.3633 18.1621L18.6347 22.8366" stroke="#8C9BEA" stroke-width="2" stroke-linecap="round" stroke-linejoin="round"/>
        </symbol>

        <symbol id="icon-ShareNetworkWhite" width="32" height="32" viewBox="0 0 32 32" fill="none" xmlns="http://www.w3.org/2000/svg">
            <path d="M8 20C10.2091 20 12 18.2091 12 16C12 13.7909 10.2091 12 8 12C5.79086 12 4 13.7909 4 16C4 18.2091 5.79086 20 8 20Z" stroke="white" stroke-width="2" stroke-linecap="round" stroke-linejoin="round"/>
            <path d="M22 29C24.2091 29 26 27.2091 26 25C26 22.7909 24.2091 21 22 21C19.7909 21 18 22.7909 18 25C18 27.2091 19.7909 29 22 29Z" stroke="white" stroke-width="2" stroke-linecap="round" stroke-linejoin="round"/>
            <path d="M22 11C24.2091 11 26 9.20914 26 7C26 4.79086 24.2091 3 22 3C19.7909 3 18 4.79086 18 7C18 9.20914 19.7909 11 22 11Z" stroke="white" stroke-width="2" stroke-linecap="round" stroke-linejoin="round"/>
            <path d="M18.6347 9.16211L11.3633 13.8366" stroke="white" stroke-width="2" stroke-linecap="round" stroke-linejoin="round"/>
            <path d="M11.3633 18.1621L18.6347 22.8366" stroke="white" stroke-width="2" stroke-linecap="round" stroke-linejoin="round"/>
        </symbol>


        <symbol id="icon-Printer" width="32" height="32" viewBox="0 0 32 32" fill="none" xmlns="http://www.w3.org/2000/svg">
            <path d="M8 10V5H24V10" stroke="#8C9BEA" stroke-width="2" stroke-linecap="round" stroke-linejoin="round"/>
            <path d="M24 19H8V27.5H24V19Z" stroke="#8C9BEA" stroke-width="2" stroke-linecap="round" stroke-linejoin="round"/>
            <path d="M8 22H3.5V12C3.5 10.8954 4.47005 10 5.66667 10H26.3333C27.53 10 28.5 10.8954 28.5 12V22H24" stroke="#8C9BEA" stroke-width="2" stroke-linecap="round" stroke-linejoin="round"/>
            <path d="M23.5 16C24.3284 16 25 15.3284 25 14.5C25 13.6716 24.3284 13 23.5 13C22.6716 13 22 13.6716 22 14.5C22 15.3284 22.6716 16 23.5 16Z" fill="#8C9BEA"/>
        </symbol>

        <symbol id="icon-facebook" width="32" height="32" viewBox="0 0 32 32" xmlns="http://www.w3.org/2000/svg">
            <g clip-path="url(#clip0)">
            <path d="M23.4462 18.001L24.3352 12.21H18.7782V8.45195C18.7782 6.86795 19.5542 5.32295 22.0432 5.32295H24.5692V0.392953C24.5692 0.392953 22.2772 0.00195312 20.0852 0.00195312C15.5092 0.00195312 12.5182 2.77595 12.5182 7.79695V12.211H7.43115V18.002H12.5182V32.002H18.7782V18.002L23.4462 18.001Z"/>
            </g>
            <defs>
            <clipPath id="clip0">
            <rect width="32" height="32" fill="white"/>
            </clipPath>
            </defs>
        </symbol>

        <symbol id="icon-telegram" width="40" height="40" viewBox="0 0 40 40" xmlns="http://www.w3.org/2000/svg">
            <path d="M37.399 7.70441L32.1177 32.6107C31.719 34.3682 30.6802 34.8057 29.204 33.9782L21.1565 28.0482L17.274 31.7832C16.844 32.2132 16.4852 32.5719 15.6565 32.5719L16.2352 24.3769L31.149 10.9007C31.7977 10.3232 31.0077 10.0019 30.1415 10.5807L11.704 22.1907L3.76649 19.7057C2.04024 19.1669 2.00899 17.9794 4.12649 17.1507L35.1727 5.18941C36.6102 4.65066 37.8677 5.50941 37.399 7.70566V7.70441Z"/>
        </symbol>

        <symbol id="icon-instagram" width="32" height="32" viewBox="0 0 32 32" xmlns="http://www.w3.org/2000/svg">
            <path d="M16 0C11.651 0 11.109 0.021 9.40695 0.093C7.69795 0.177 6.54195 0.442 5.52195 0.838C4.45442 1.24102 3.48762 1.87202 2.68895 2.687C1.8717 3.4838 1.24035 4.45113 0.839953 5.52C0.443953 6.54 0.178953 7.696 0.0949531 9.405C0.0179531 11.108 0.00195312 11.649 0.00195312 15.998C0.00195312 20.347 0.0229531 20.889 0.0949531 22.591C0.178953 24.295 0.443953 25.456 0.839953 26.476C1.24297 27.5435 1.87397 28.5103 2.68895 29.309C3.48575 30.1263 4.45309 30.7576 5.52195 31.158C6.54195 31.549 7.70295 31.819 9.40695 31.903C11.11 31.98 11.651 31.996 16 31.996C20.349 31.996 20.891 31.975 22.593 31.903C24.297 31.819 25.458 31.548 26.478 31.158C27.5455 30.755 28.5123 30.124 29.311 29.309C30.1293 28.5131 30.7608 27.5455 31.16 26.476C31.551 25.456 31.821 24.295 31.905 22.591C31.982 20.888 31.998 20.347 31.998 15.998C31.998 11.649 31.977 11.107 31.905 9.405C31.821 7.701 31.55 6.534 31.16 5.52C30.7569 4.45246 30.1259 3.48566 29.311 2.687C28.515 1.86869 27.5474 1.23718 26.478 0.838C25.458 0.442 24.297 0.177 22.593 0.093C20.89 0.016 20.349 0 16 0ZM16 2.88C20.271 2.88 20.781 2.901 22.469 2.973C24.026 3.046 24.874 3.306 25.437 3.526C26.133 3.78292 26.7629 4.19185 27.281 4.723C27.8112 5.23883 28.2186 5.86735 28.473 6.562C28.693 7.125 28.953 7.973 29.026 9.53C29.098 11.218 29.119 11.729 29.119 15.999C29.119 20.269 29.098 20.78 29.02 22.468C28.936 24.025 28.676 24.873 28.457 25.436C28.154 26.187 27.816 26.712 27.258 27.28C26.7382 27.8078 26.1086 28.2148 25.414 28.472C24.858 28.692 23.998 28.952 22.435 29.025C20.738 29.097 20.238 29.118 15.956 29.118C11.674 29.118 11.175 29.097 9.47595 29.019C7.91895 28.935 7.05995 28.675 6.49695 28.456C5.73695 28.153 5.21595 27.815 4.65795 27.257C4.09495 26.694 3.73695 26.158 3.46095 25.413C3.23695 24.857 2.98095 23.997 2.89795 22.434C2.84095 20.757 2.81395 20.237 2.81395 15.975C2.81395 11.715 2.84095 11.194 2.89795 9.496C2.98095 7.933 3.23695 7.075 3.46095 6.517C3.73695 5.756 4.09595 5.236 4.65795 4.673C5.21495 4.116 5.73695 3.756 6.49695 3.474C7.05995 3.255 7.89795 2.995 9.46095 2.917C11.158 2.856 11.658 2.834 15.934 2.834L16 2.88ZM16 7.787C14.9213 7.78661 13.8531 7.99877 12.8565 8.41137C11.8599 8.82398 10.9543 9.42893 10.1916 10.1917C9.42888 10.9544 8.82393 11.8599 8.41133 12.8566C7.99872 13.8532 7.78656 14.9213 7.78695 16C7.78656 17.0787 7.99872 18.1468 8.41133 19.1434C8.82393 20.1401 9.42888 21.0456 10.1916 21.8083C10.9543 22.5711 11.8599 23.176 12.8565 23.5886C13.8531 24.0012 14.9213 24.2134 16 24.213C17.0786 24.2134 18.1468 24.0012 19.1434 23.5886C20.14 23.176 21.0456 22.5711 21.8083 21.8083C22.571 21.0456 23.176 20.1401 23.5886 19.1434C24.0012 18.1468 24.2133 17.0787 24.213 16C24.2133 14.9213 24.0012 13.8532 23.5886 12.8566C23.176 11.8599 22.571 10.9544 21.8083 10.1917C21.0456 9.42893 20.14 8.82398 19.1434 8.41137C18.1468 7.99877 17.0786 7.78661 16 7.787ZM16 21.333C13.052 21.333 10.667 18.948 10.667 16C10.667 13.052 13.052 10.667 16 10.667C18.948 10.667 21.333 13.052 21.333 16C21.333 18.948 18.948 21.333 16 21.333ZM26.464 7.459C26.4634 7.96866 26.2606 8.45727 25.9 8.81747C25.5394 9.17767 25.0506 9.38 24.541 9.38C24.2889 9.38 24.0394 9.33036 23.8066 9.23392C23.5738 9.13749 23.3622 8.99613 23.184 8.81794C23.0058 8.63974 22.8645 8.42819 22.768 8.19537C22.6716 7.96255 22.622 7.71301 22.622 7.461C22.622 7.20899 22.6716 6.95945 22.768 6.72663C22.8645 6.49381 23.0058 6.28226 23.184 6.10406C23.3622 5.92587 23.5738 5.78451 23.8066 5.68808C24.0394 5.59164 24.2889 5.542 24.541 5.542C25.598 5.542 26.464 6.402 26.464 7.459Z"/>
        </symbol>

        <symbol id="icon-twitter" width="32" height="32" viewBox="0 0 32 32" xmlns="http://www.w3.org/2000/svg">
            <g clip-path="url(#clip0)">
            <path d="M31.937 6.09348C30.7394 6.61999 29.4708 6.9677 28.172 7.12548C29.5411 6.30378 30.566 5.01383 31.057 3.49448C29.7621 4.24549 28.3527 4.77891 26.885 5.07348C25.8981 4.01894 24.5907 3.31961 23.1657 3.08398C21.7407 2.84836 20.2777 3.08961 19.0039 3.77032C17.73 4.45103 16.7163 5.53313 16.1202 6.84873C15.5241 8.16434 15.3789 9.6399 15.707 11.0465C10.254 10.7915 5.42005 8.17148 2.18705 4.21348C1.59852 5.21437 1.29072 6.35541 1.29605 7.51648C1.29524 8.59585 1.56099 9.65871 2.06969 10.6107C2.57838 11.5627 3.31429 12.3743 4.21205 12.9735C3.17167 12.942 2.15396 12.6619 1.24405 12.1565V12.2355C1.24373 13.7505 1.76726 15.219 2.7259 16.3922C3.68455 17.5653 5.01933 18.371 6.50405 18.6725C5.94164 18.8228 5.36218 18.8997 4.78005 18.9015C4.35905 18.9015 3.95705 18.8605 3.55605 18.7865C3.97858 20.0902 4.79705 21.2298 5.89756 22.0465C6.99806 22.8633 8.32583 23.3167 9.69605 23.3435C7.37446 25.1616 4.50983 26.1479 1.56105 26.1445C1.03875 26.1466 0.516808 26.1172 -0.00195312 26.0565C3.00614 27.9839 6.50441 29.0072 10.077 29.0045C22.144 29.0045 28.738 19.0095 28.738 10.3535C28.738 10.0775 28.738 9.79648 28.717 9.51448C30.0069 8.59003 31.1186 7.43943 31.998 6.11848L31.937 6.09348Z"/>
            </g>
            <defs>
            <clipPath id="clip0">
            <rect width="32" height="32" fill="white"/>
            </clipPath>
            </defs>
        </symbol>

        <symbol id="icon-link" width="32" height="32" viewBox="0 0 32 32" xmlns="http://www.w3.org/2000/svg">
            <path d="M15.2931 8.9294L17.768 6.45452C18.2786 5.94341 18.8849 5.53791 19.5523 5.26119C20.2197 4.98448 20.9351 4.84197 21.6576 4.8418C22.3801 4.84163 23.0955 4.98381 23.763 5.26021C24.4305 5.53662 25.0371 5.94183 25.5479 6.45271C26.0588 6.96358 26.464 7.57011 26.7404 8.23763C27.0168 8.90515 27.159 9.62059 27.1589 10.3431C27.1587 11.0656 27.0162 11.7809 26.7395 12.4483C26.4627 13.1157 26.0572 13.7221 25.5461 14.2327L22.0106 17.7682C21.4999 18.279 20.8936 18.6841 20.2263 18.9605C19.559 19.2369 18.8438 19.3791 18.1215 19.3791C17.3992 19.3791 16.684 19.2369 16.0167 18.9605C15.3495 18.6841 14.7431 18.279 14.2324 17.7682" stroke-width="2" stroke-linecap="round" stroke-linejoin="round"/>
            <path d="M16.7076 23.0708L14.2327 25.5457C13.7221 26.0568 13.1157 26.4623 12.4483 26.739C11.7809 27.0158 11.0656 27.1583 10.3431 27.1584C9.62059 27.1586 8.90515 27.0164 8.23763 26.74C7.57011 26.4636 6.96358 26.0584 6.45271 25.5475C5.94183 25.0367 5.53662 24.4301 5.26021 23.7626C4.98381 23.0951 4.84163 22.3796 4.8418 21.6572C4.84197 20.9347 4.98448 20.2193 5.26119 19.5519C5.53791 18.8845 5.94341 18.2782 6.45452 17.7675L9.99005 14.232C10.5008 13.7213 11.1071 13.3162 11.7744 13.0398C12.4417 12.7634 13.1569 12.6211 13.8791 12.6211C14.6014 12.6211 15.3166 12.7634 15.9839 13.0398C16.6512 13.3162 17.2575 13.7213 17.7682 14.232" stroke-width="2" stroke-linecap="round" stroke-linejoin="round"/>
        </symbol>

        <symbol id="icon-target" width="26" height="26" viewBox="0 0 26 26" fill="none" xmlns="http://www.w3.org/2000/svg">
            <path d="M25.7396 5.49605C25.8003 5.64219 25.8163 5.80304 25.7855 5.95826C25.7547 6.11348 25.6786 6.25608 25.5668 6.36805L22.3668 9.56805C22.2924 9.64229 22.2041 9.70114 22.1069 9.74122C22.0097 9.7813 21.9056 9.80184 21.8004 9.80165H17.3316L15.1668 11.9664C15.4109 12.4773 15.4664 13.058 15.3237 13.6059C15.181 14.1538 14.8492 14.6335 14.3869 14.9604C13.9246 15.2873 13.3617 15.4403 12.7976 15.3922C12.2335 15.3442 11.7045 15.0983 11.3042 14.6979C10.9038 14.2976 10.6579 13.7686 10.6099 13.2045C10.5618 12.6404 10.7148 12.0774 11.0417 11.6152C11.3685 11.1529 11.8483 10.8211 12.3962 10.6784C12.9441 10.5357 13.5248 10.5912 14.0356 10.8352L16.2004 8.67045V4.20165C16.2003 4.09652 16.2208 3.99239 16.2609 3.8952C16.301 3.79801 16.3598 3.70968 16.434 3.63525L19.634 0.435249C19.7459 0.323078 19.8886 0.246655 20.044 0.215668C20.1993 0.184681 20.3604 0.200526 20.5068 0.261194C20.6531 0.321862 20.7782 0.424621 20.8661 0.556444C20.954 0.688266 21.0007 0.843216 21.0004 1.00165V5.00165H25.0004C25.1587 5.00167 25.3135 5.04867 25.4451 5.13667C25.5766 5.22468 25.6792 5.34975 25.7396 5.49605ZM23.0692 6.60005H20.2004C19.9883 6.60005 19.7848 6.51576 19.6348 6.36573C19.4847 6.21571 19.4004 6.01222 19.4004 5.80005V2.93445L17.8004 4.53445V8.20165H21.4692L23.0692 6.60165V6.60005ZM25.1716 9.02565C25.5796 10.2768 25.8004 11.6144 25.8004 13.0016C25.7995 15.7055 24.9424 18.3396 23.352 20.5262C21.7616 22.7128 19.5196 24.3397 16.9476 25.1735C14.3755 26.0073 11.6055 26.0051 9.0347 25.1674C6.46391 24.3297 4.22442 22.6994 2.63738 20.5104C1.05033 18.3213 0.197243 15.6859 0.200448 12.9821C0.203654 10.2783 1.06299 7.64489 2.65522 5.4596C4.24745 3.27431 6.4908 1.64935 9.06356 0.817734C11.6363 -0.0138797 14.4064 -0.00942884 16.9764 0.830449L15.6836 2.12485C13.3086 1.53924 10.8071 1.7473 8.56144 2.71725C6.31577 3.68719 4.44941 5.36568 3.24751 7.49624C2.04562 9.62679 1.5743 12.0923 1.90557 14.5159C2.23684 16.9396 3.35248 19.1881 5.08202 20.918C6.81157 22.6479 9.0599 23.764 11.4835 24.0957C13.9071 24.4274 16.3726 23.9566 18.5034 22.7551C20.6342 21.5537 22.3131 19.6876 23.2834 17.4421C24.2538 15.1966 24.4624 12.6952 23.8772 10.32L25.1716 9.02565ZM20.8404 11.4016C21.1841 13.0866 20.9756 14.8373 20.2461 16.3945C19.5165 17.9516 18.3046 19.2323 16.79 20.0465C15.2754 20.8608 13.5388 21.1654 11.8375 20.9151C10.1362 20.6649 8.56087 19.8731 7.34494 18.6571C6.12901 17.4412 5.33723 15.8659 5.08697 14.1646C4.83671 12.4633 5.14129 10.7266 5.95556 9.21207C6.76983 7.69749 8.05046 6.4856 9.6076 5.75602C11.1647 5.02644 12.9155 4.81802 14.6004 5.16165V6.80325C13.2412 6.45259 11.8044 6.55855 10.5113 7.1048C9.21815 7.65106 8.1405 8.6073 7.4443 9.82624C6.74811 11.0452 6.47198 12.4592 6.65845 13.8505C6.84492 15.2418 7.48365 16.5332 8.47625 17.5258C9.46885 18.5184 10.7603 19.1572 12.1516 19.3436C13.5429 19.5301 14.9569 19.254 16.1758 18.5578C17.3948 17.8616 18.351 16.7839 18.8973 15.4908C19.4435 14.1977 19.5495 12.7609 19.1988 11.4016H20.8404Z" fill="#3E54D8"/>
        </symbol>

        <symbol id="icon-update" width="32" height="32" viewBox="0 0 32 32" fill="none" xmlns="http://www.w3.org/2000/svg">
            <path d="M16 10V16" stroke="#F3B63F" stroke-width="2.66667" stroke-linecap="round" stroke-linejoin="round"/>
            <path d="M21.1962 19L16 16" stroke="#F3B63F" stroke-width="2.66667" stroke-linecap="round" stroke-linejoin="round"/>
            <path d="M23.0208 12.4648H28.0208V7.46484" stroke="#F3B63F" stroke-width="2.66667" stroke-linecap="round" stroke-linejoin="round"/>
            <path d="M23.7782 23.7782C22.2398 25.3166 20.2798 26.3642 18.146 26.7886C16.0122 27.2131 13.8005 26.9952 11.7905 26.1627C9.78049 25.3301 8.06253 23.9202 6.85383 22.1113C5.64514 20.3023 5 18.1756 5 16C5 13.8244 5.64514 11.6977 6.85383 9.88873C8.06253 8.07979 9.78049 6.66989 11.7905 5.83733C13.8005 5.00477 16.0122 4.78693 18.146 5.21137C20.2798 5.6358 22.2398 6.68345 23.7782 8.22183L28.0208 12.4645" stroke="#F3B63F" stroke-width="2.66667" stroke-linecap="round" stroke-linejoin="round"/>
        </symbol>



        <symbol id="icon-arrow-down" width="10" height="10" viewBox="0 0 10 10" xmlns="http://www.w3.org/2000/svg">
            <path d="M4.63975 7.338C4.67989 7.38796 4.7336 7.42881 4.79626 7.45703C4.85891 7.48525 4.92863 7.5 4.99941 7.5C5.07019 7.5 5.13991 7.48525 5.20256 7.45703C5.26521 7.42881 5.31892 7.38796 5.35906 7.338L9.29687 2.46333C9.34245 2.40711 9.36918 2.34125 9.37415 2.27292C9.37913 2.20459 9.36215 2.1364 9.32508 2.07576C9.28801 2.01511 9.23225 1.96434 9.16387 1.92894C9.09549 1.89355 9.0171 1.87489 8.93721 1.875H1.0616C0.981899 1.87528 0.903797 1.89418 0.835691 1.92966C0.767586 1.96514 0.712054 2.01585 0.675067 2.07636C0.638081 2.13686 0.621039 2.20486 0.625775 2.27305C0.630511 2.34123 0.656845 2.40702 0.701945 2.46333L4.63975 7.338Z"/>
        </symbol>

        <symbol id="icon-dottes" width="25" height="5" viewBox="0 0 25 5" fill="none" xmlns="http://www.w3.org/2000/svg">
            <circle cx="2.5" cy="2.5" r="2.5" fill="#3E54D8"/>
            <circle cx="12.5" cy="2.5" r="2.5" fill="#3E54D8"/>
            <circle cx="22.5" cy="2.5" r="2.5" fill="#3E54D8"/>
        </symbol>

        <symbol id="icon-ArrowsOutCardinal" width="32" height="32" viewBox="0 0 32 32" fill="none" xmlns="http://www.w3.org/2000/svg">
            <path d="M19.5358 25.4648L16.0003 29.0003L12.4648 25.4648"  stroke-width="2" stroke-linecap="round" stroke-linejoin="round"/>
            <path d="M16 20V29"  stroke-width="2" stroke-linecap="round" stroke-linejoin="round"/>
            <path d="M12.4648 6.5355L16.0003 3L19.5358 6.5355"  stroke-width="2" stroke-linecap="round" stroke-linejoin="round"/>
            <path d="M16 12V3"  stroke-width="2" stroke-linecap="round" stroke-linejoin="round"/>
            <path d="M6.5355 19.5358L3 16.0003L6.5355 12.4648"  stroke-width="2" stroke-linecap="round" stroke-linejoin="round"/>
            <path d="M12 16H3"  stroke-width="2" stroke-linecap="round" stroke-linejoin="round"/>
            <path d="M25.4648 12.4648L29.0003 16.0003L25.4648 19.5358"  stroke-width="2" stroke-linecap="round" stroke-linejoin="round"/>
            <path d="M20 16H29" stroke-width="2" stroke-linecap="round" stroke-linejoin="round"/>
        </symbol>

        <symbol id="icon-strategy-sprite-red" width="130" height="260" viewBox="0 0 130 260" fill="none" xmlns="http://www.w3.org/2000/svg">
            <path d="M-130 130C-130 58.203 -71.797 0 0 0C71.797 0 130 58.203 130 130C130 201.797 71.797 260 0 260H-130L-130 130Z" fill="#ED6373"/>
        </symbol>

        <symbol id="icon-strategy-sprite-green" width="126" height="126" viewBox="0 0 126 126" fill="none" xmlns="http://www.w3.org/2000/svg">
            <path d="M0 124C0 55.5167 55.5167 0 124 0L252 0L252 252H124C55.5167 252 0 196.483 0 128L0 124Z" fill="#199F27"/>
        </symbol>
        
        <symbol id="icon-search" width="24" height="24" viewBox="0 0 24 24" fill="none" xmlns="http://www.w3.org/2000/svg">
            <path d="M10.875 18.75C15.2242 18.75 18.75 15.2242 18.75 10.875C18.75 6.52576 15.2242 3 10.875 3C6.52576 3 3 6.52576 3 10.875C3 15.2242 6.52576 18.75 10.875 18.75Z" stroke="#3E54D8" stroke-width="1.5" stroke-linecap="round" stroke-linejoin="round"/>
            <path d="M16.4414 16.4434L20.9977 20.9997" stroke="#3E54D8" stroke-width="1.5" stroke-linecap="round" stroke-linejoin="round"/>
        </symbol>

        <symbol id="icon-pencil" width="24" height="24" viewBox="0 0 24 24" fill="none" xmlns="http://www.w3.org/2000/svg">
            <path d="M8.68934 20.2499H4.5C4.30109 20.2499 4.11032 20.1709 3.96967 20.0302C3.82902 19.8896 3.75 19.6988 3.75 19.4999V15.3105C3.75 15.2121 3.7694 15.1145 3.80709 15.0235C3.84478 14.9325 3.90003 14.8499 3.96967 14.7802L15.2197 3.53022C15.3603 3.38956 15.5511 3.31055 15.75 3.31055C15.9489 3.31055 16.1397 3.38956 16.2803 3.53022L20.4697 7.71956C20.6103 7.86021 20.6893 8.05097 20.6893 8.24989C20.6893 8.4488 20.6103 8.63956 20.4697 8.78022L9.21967 20.0302C9.15003 20.0999 9.06735 20.1551 8.97635 20.1928C8.88536 20.2305 8.78783 20.2499 8.68934 20.2499Z" stroke-width="1.5" stroke-linecap="round" stroke-linejoin="round"/>
            <path d="M12.75 6L18 11.25"  stroke-width="1.5" stroke-linecap="round" stroke-linejoin="round"/>
            <path d="M8.95321 20.2013L3.79883 15.0469"  stroke-width="1.5" stroke-linecap="round" stroke-linejoin="round"/>
        </symbol>

        <symbol id="icon-trash" width="24" height="24" viewBox="0 0 24 24" fill="none" xmlns="http://www.w3.org/2000/svg">
            <path d="M20.25 5.25L3.75 5.25" stroke-width="1.5" stroke-linecap="round" stroke-linejoin="round"/>
            <path d="M9.75 9.75V15.75" stroke-width="1.5" stroke-linecap="round" stroke-linejoin="round"/>
            <path d="M14.25 9.75V15.75" stroke-width="1.5" stroke-linecap="round" stroke-linejoin="round"/>
            <path d="M18.75 5.25V19.5C18.75 19.6989 18.671 19.8897 18.5303 20.0303C18.3897 20.171 18.1989 20.25 18 20.25H6C5.80109 20.25 5.61032 20.171 5.46967 20.0303C5.32902 19.8897 5.25 19.6989 5.25 19.5V5.25" stroke-width="1.5" stroke-linecap="round" stroke-linejoin="round"/>
            <path d="M15.75 5.25V3.75C15.75 3.35218 15.592 2.97064 15.3107 2.68934C15.0294 2.40804 14.6478 2.25 14.25 2.25H9.75C9.35218 2.25 8.97064 2.40804 8.68934 2.68934C8.40804 2.97064 8.25 3.35218 8.25 3.75V5.25" stroke-width="1.5" stroke-linecap="round" stroke-linejoin="round"/>
        </symbol>

        <symbol id="icon-caret-pagination" width="16" height="16" viewBox="0 0 16 16" fill="none" xmlns="http://www.w3.org/2000/svg">
            <path d="M6 13L11 8L6 3" stroke-width="2.5" stroke-linecap="round" stroke-linejoin="round"/>
        </symbol>

        <symbol id="icon-info-2" width="32" height="32" viewBox="0 0 32 32" fill="none" xmlns="http://www.w3.org/2000/svg">
            <path d="M16 28C22.6274 28 28 22.6274 28 16C28 9.37258 22.6274 4 16 4C9.37258 4 4 9.37258 4 16C4 22.6274 9.37258 28 16 28Z" stroke-width="2" stroke-linecap="round" stroke-linejoin="round"/>
            <path d="M15 15H16V22H17" stroke-width="2" stroke-linecap="round" stroke-linejoin="round"/>
            <path d="M16 12C16.8284 12 17.5 11.3284 17.5 10.5C17.5 9.67157 16.8284 9 16 9C15.1716 9 14.5 9.67157 14.5 10.5C14.5 11.3284 15.1716 12 16 12Z"/>
        </symbol>

        <svg id="icon-CalendarBlank" width="20" height="20" viewBox="0 0 20 20" fill="none" xmlns="http://www.w3.org/2000/svg">
            <path d="M16.25 3.125H3.75C3.40482 3.125 3.125 3.40482 3.125 3.75V16.25C3.125 16.5952 3.40482 16.875 3.75 16.875H16.25C16.5952 16.875 16.875 16.5952 16.875 16.25V3.75C16.875 3.40482 16.5952 3.125 16.25 3.125Z" stroke="#3E54D8" stroke-width="1.25" stroke-linecap="round" stroke-linejoin="round"/>
            <path d="M13.75 1.875V4.375" stroke="#3E54D8" stroke-width="1.25" stroke-linecap="round" stroke-linejoin="round"/>
            <path d="M6.25 1.875V4.375" stroke="#3E54D8" stroke-width="1.25" stroke-linecap="round" stroke-linejoin="round"/>
            <path d="M3.125 6.875H16.875" stroke="#3E54D8" stroke-width="1.25" stroke-linecap="round" stroke-linejoin="round"/>
        </svg>

        <symbol id="icon-closeModal" width="29" height="29" viewBox="0 0 29 29" fill="none" xmlns="http://www.w3.org/2000/svg">
            <path d="M27.1562 1.84375L1.84375 27.1562M27.1562 27.1562L1.84375 1.84375" stroke="#3E54D8" stroke-width="2.8125" stroke-linecap="round" stroke-linejoin="round"/>
        </symbol>

        <symbol id="icon-closeModal-white" width="29" height="29" viewBox="0 0 29 29" fill="none" xmlns="http://www.w3.org/2000/svg">
            <path d="M27.1562 1.84375L1.84375 27.1562M27.1562 27.1562L1.84375 1.84375" stroke="#FFFFFF" stroke-width="2.8125" stroke-linecap="round" stroke-linejoin="round"/>
        </symbol>

        <symbol id="icon-closeModal-gray" width="24" height="25" viewBox="0 0 24 25" fill="none" xmlns="http://www.w3.org/2000/svg">
            <path d="M18.75 5.75L5.25 19.25M18.75 19.25L5.25 5.75" stroke="#929398" stroke-width="1.5" stroke-linecap="round" stroke-linejoin="round"/>
        </symbol>


        <symbol id="icon-plus" width="24" height="24" viewBox="0 0 24 24" fill="none" xmlns="http://www.w3.org/2000/svg">
            <path d="M3.75 12H20.25" stroke="#3E54D8" stroke-width="2" stroke-linecap="round" stroke-linejoin="round"/>
            <path d="M12 3.75V20.25" stroke="#3E54D8" stroke-width="2" stroke-linecap="round" stroke-linejoin="round"/>
        </symbol>

        <symbol id="icon-minus" width="22" height="22" viewBox="0 0 22 22" fill="none" xmlns="http://www.w3.org/2000/svg">
            <path d="M3.4375 11H18.5625" stroke="#3E54D8" stroke-width="2" stroke-linecap="round" stroke-linejoin="round"/>
        </symbol>

        <symbol id="icon-caret-down" width="12" height="12" viewBox="0 0 12 12" fill="none" xmlns="http://www.w3.org/2000/svg">
            <path d="M2.25 4.5L6 8.25L9.75 4.5" stroke-width="1.875" stroke-linecap="round" stroke-linejoin="round"/>
        </symbol>

        <symbol id="icon-bitcoin" width="24" height="24" viewBox="0 0 24 24" fill="none" xmlns="http://www.w3.org/2000/svg">
            <g opacity="0.7" clip-path="url(#clip0)">
            <path d="M11.3849 15.275C12.4959 15.271 14.9249 15.262 14.8969 13.717C14.8699 12.137 12.5369 12.232 11.3999 12.279C11.2729 12.284 11.1599 12.289 11.0679 12.29L11.1199 15.277C11.1949 15.275 11.2849 15.275 11.3849 15.275Z" fill="#F7931A"/>
            <path d="M11.2668 10.9222C12.1938 10.9212 14.2168 10.9192 14.1928 9.51415C14.1668 8.07715 12.2238 8.16215 11.2748 8.20415C11.1678 8.20915 11.0748 8.21315 10.9968 8.21415L11.0438 10.9232L11.2668 10.9222Z" fill="#F7931A"/>
            <path fill-rule="evenodd" clip-rule="evenodd" d="M8.89338 23.5886C15.2944 25.3036 21.8737 21.5048 23.5887 15.1058C25.3036 8.70574 21.5039 2.12642 15.1028 0.412446C8.70578 -1.30346 2.12646 2.4963 0.412484 8.89736C-1.30246 15.2964 2.4963 21.8757 8.89436 23.5896L8.89338 23.5886ZM13.4718 6.64593C15.2233 6.80052 16.6102 7.33881 16.7651 8.94576C16.8806 10.122 16.3882 10.8285 15.6021 11.2288C16.8969 11.5395 17.7086 12.3087 17.5484 14.0342C17.35 16.1761 15.7528 16.7513 13.4721 16.8815L13.4709 19.1318L12.1146 19.1331L12.1144 16.9128C11.7633 16.9127 11.4033 16.9104 11.0304 16.9019L11.0315 19.1322L9.67527 19.1326L9.67461 16.8782L9.29162 16.8745C9.09763 16.8721 8.90164 16.8697 8.7056 16.8703L6.93935 16.8695L7.20865 15.2499C7.20865 15.2499 8.21253 15.2655 8.1948 15.2501C8.57888 15.2488 8.6807 14.9736 8.70473 14.8L8.70582 11.2425L8.80284 11.2421L8.84883 11.2429C8.80114 11.2366 8.75309 11.2335 8.70498 11.2334L8.70531 8.69306C8.6531 8.4181 8.47465 8.09894 7.92555 8.09936C7.9409 8.07962 6.93941 8.09915 6.93941 8.09915L6.93868 6.65091L8.81096 6.65159L8.81084 6.65859C9.09188 6.65849 9.38101 6.65354 9.67416 6.64765L9.67506 4.41833L11.0313 4.419L11.0311 6.60333C11.3933 6.59665 11.7575 6.589 12.1145 6.58923L12.1144 4.4189L13.4716 4.41859L13.4717 6.64793L13.4718 6.64593Z" fill="#F7931A"/>
            </g>
            <defs>
            <clipPath id="clip0">
            <rect width="24" height="24" fill="white"/>
            </clipPath>
            </defs>
        </symbol>


        <symbol id="icon-dollar" width="24" height="24" viewBox="0 0 24 24" fill="none" xmlns="http://www.w3.org/2000/svg">
            <g opacity="0.7">
                <path fill-rule="evenodd" clip-rule="evenodd" d="M12 24C5.37225 24 0 18.6278 0 12C0 5.37225 5.37225 0 12 0C18.6278 0 24 5.37225 24 12C24 18.6278 18.6278 24 12 24ZM16.875 14.3655C16.875 12.4732 15.693 11.4045 12.9277 10.7385V7.4085C13.7827 7.584 14.601 7.95225 15.4012 8.5305L16.4205 6.8835C15.4165 6.14815 14.2373 5.68888 13.0005 5.5515V4.5H11.418V5.51625C9.144 5.69175 7.59825 6.9885 7.59825 8.88075C7.59825 10.8608 8.835 11.8245 11.4908 12.4905V15.9255C10.308 15.75 9.32625 15.2243 8.289 14.418L7.125 16.0125C8.37096 16.9717 9.85551 17.5718 11.418 17.748V19.5H13.0005V17.7653C15.3105 17.5725 16.875 16.293 16.875 14.3655ZM11.49 10.3702C10.0897 9.9675 9.74475 9.49425 9.74475 8.75775C9.74475 7.9875 10.3448 7.374 11.4908 7.28625L11.49 10.3702ZM14.7285 14.4877C14.7285 15.3292 14.0737 15.9075 12.9277 15.9952V12.8235C14.3467 13.227 14.7285 13.6995 14.7285 14.4885V14.4877Z" fill="#199F27"/>
            </g>
        </symbol>

        <symbol id="icon-WarningCircle" width="24" height="24" viewBox="0 0 24 24" fill="none" xmlns="http://www.w3.org/2000/svg">
            <path d="M12 21C16.9706 21 21 16.9706 21 12C21 7.02944 16.9706 3 12 3C7.02944 3 3 7.02944 3 12C3 16.9706 7.02944 21 12 21Z" stroke="#3E54D8" stroke-width="2" stroke-miterlimit="10"/>
            <path d="M12 7.5V12.75" stroke="#3E54D8" stroke-width="2" stroke-linecap="round" stroke-linejoin="round"/>
            <path d="M12 17.25C12.6213 17.25 13.125 16.7463 13.125 16.125C13.125 15.5037 12.6213 15 12 15C11.3787 15 10.875 15.5037 10.875 16.125C10.875 16.7463 11.3787 17.25 12 17.25Z" fill="#3E54D8"/>
        </symbol>



        <symbol id="icon-ICP" width="20" height="20" viewBox="0 0 20 20" fill="none" xmlns="http://www.w3.org/2000/svg">
            <circle cx="10" cy="10" r="10" fill="#A4E3D4"/>
            <path d="M14.3564 6.24609C13.5184 6.24609 12.6043 6.69272 11.6394 7.57321C11.1824 7.98795 10.7825 8.43457 10.4905 8.79188C10.4905 8.79188 10.9602 9.32143 11.4744 9.8893C11.7537 9.54475 12.1536 9.07898 12.617 8.65788C13.4739 7.87309 14.0325 7.71359 14.3564 7.71359C15.5624 7.71359 16.54 8.70254 16.54 9.92758C16.54 11.1399 15.5624 12.1288 14.3564 12.1416C14.2991 12.1416 14.2293 12.1352 14.1468 12.1161C14.4959 12.2756 14.8768 12.3904 15.2323 12.3904C17.4413 12.3904 17.8729 10.8974 17.8983 10.7889C17.9618 10.5146 17.9999 10.2275 17.9999 9.93396C17.9936 7.89861 16.3622 6.24609 14.3564 6.24609Z" fill="url(#paint0_linear)"/>
            <path d="M6.64438 13.6013C7.48229 13.6013 8.39636 13.1547 9.36124 12.2742C9.81828 11.8595 10.2182 11.4129 10.5102 11.0556C10.5102 11.0556 10.0404 10.526 9.52628 9.95814C9.24697 10.3027 8.84706 10.7685 8.38367 11.1896C7.52672 11.968 6.96176 12.1339 6.64438 12.1339C5.43829 12.1339 4.46072 11.1449 4.46072 9.91986C4.46072 8.70758 5.43829 7.71863 6.64438 7.70587C6.70151 7.70587 6.77133 7.71224 6.85385 7.73138C6.50472 7.57188 6.12385 7.45703 5.76838 7.45703C3.55934 7.45703 3.12768 8.95005 3.1023 9.05851C3.03882 9.33287 3.00073 9.61999 3.00073 9.91348C3.00073 11.9488 4.63212 13.6013 6.64438 13.6013Z" fill="url(#paint1_linear)"/>
            <path fill-rule="evenodd" clip-rule="evenodd" d="M8.32118 8.68979C8.07996 8.46009 6.89927 7.52217 5.76936 7.49027C3.75577 7.44076 3.16386 8.87424 3.11282 9.05913C3.49852 7.45166 4.93621 6.25246 6.64536 6.24609C8.0387 6.24609 9.44675 7.58396 10.4871 8.79137C10.4888 8.78933 10.4904 8.78736 10.492 8.78546C10.492 8.78546 10.9617 9.31503 11.4759 9.88288C11.4759 9.88288 12.0599 10.5592 12.682 11.1526C12.9232 11.3823 14.0975 12.3074 15.2274 12.3393C17.2969 12.3968 17.8682 10.8846 17.8998 10.7698C17.5191 12.384 16.0781 13.5899 14.3641 13.5963C12.9703 13.5963 11.5618 12.2575 10.5171 11.0498C10.515 11.0523 10.5131 11.0546 10.5112 11.0569C10.5112 11.0569 10.0414 10.5273 9.52726 9.95948C9.52726 9.95948 8.94327 9.28315 8.32118 8.68979ZM3.10962 9.07261C3.11019 9.06935 3.11125 9.06484 3.11282 9.05913C3.11175 9.06362 3.11068 9.06812 3.10962 9.07261Z" fill="#29ABE2"/>
        </symbol>

        <symbol id="icon-BCH" width="20" height="20" viewBox="0 0 20 20" fill="none" xmlns="http://www.w3.org/2000/svg">
            <circle cx="10" cy="10" r="10" fill="#F7931A"/>
            <path d="M12.4859 6.70624C12.0842 5.55991 10.9869 5.42263 9.70325 5.62855L9.30157 4.00195L8.32186 4.24694L8.71384 5.83424C8.45915 5.90288 8.19452 5.9713 7.93983 6.03994L7.54786 4.44292L6.56815 4.6879L6.96983 6.31427C6.76414 6.37298 6.54851 6.43191 6.35252 6.48091V6.4712L5.00049 6.81417L5.26511 7.87245C5.26511 7.87245 5.98042 7.67647 5.97048 7.69611C6.36223 7.59812 6.54851 7.7941 6.63679 7.99009L7.09718 9.85173C7.13646 9.84202 7.16582 9.83209 7.20488 9.83209L7.09718 9.86144L7.73391 12.4677C7.74362 12.5951 7.7242 12.8204 7.44986 12.8891C7.46951 12.8988 6.73456 13.0654 6.73456 13.0654L6.83255 14.2998L8.10623 13.9765C8.34151 13.9178 8.57656 13.8591 8.80189 13.8098L9.20358 15.4558L10.1833 15.2109L9.7816 13.5746C10.0559 13.5159 10.3106 13.4472 10.5653 13.3885L10.967 15.0149L11.9467 14.7699L11.545 13.1239C13.1617 12.6145 14.21 11.8992 13.965 10.2922C13.7691 8.99892 13.044 8.58753 12.0544 8.59724C12.5541 8.15627 12.7794 7.54889 12.4854 6.70624H12.4859ZM11.9862 10.5763C12.2899 11.8109 10.1736 12.193 9.5172 12.3596L8.97824 10.1746C9.64454 10.0179 11.6726 9.30261 11.9862 10.5763ZM10.7812 7.61731C11.0555 8.73429 9.29186 9.04769 8.74319 9.18497L8.25322 7.20592C8.80189 7.05893 10.487 6.44162 10.7809 7.61731H10.7812Z" fill="white"/>
        </symbol>

        <symbol id="icon-LTC" width="20" height="20" viewBox="0 0 20 20" fill="none" xmlns="http://www.w3.org/2000/svg">
            <g clip-path="url(#clip0)">
            <path d="M10.0014 18.9174C14.9265 18.9174 18.9191 14.9248 18.9191 9.99971C18.9191 5.07461 14.9265 1.08203 10.0014 1.08203C5.07632 1.08203 1.08374 5.07461 1.08374 9.99971C1.08374 14.9248 5.07632 18.9174 10.0014 18.9174Z" fill="white"/>
            <path d="M10 0C8.02219 0 6.08879 0.58649 4.4443 1.6853C2.79981 2.78412 1.51809 4.3459 0.761209 6.17316C0.00433281 8.00043 -0.193701 10.0111 0.192152 11.9509C0.578004 13.8907 1.53041 15.6725 2.92894 17.0711C4.32746 18.4696 6.10929 19.422 8.0491 19.8078C9.98891 20.1937 11.9996 19.9957 13.8268 19.2388C15.6541 18.4819 17.2159 17.2002 18.3147 15.5557C19.4135 13.9112 20 11.9778 20 10C20.0038 8.69059 19.7497 7.39326 19.2521 6.18207C18.7546 4.97087 18.0233 3.86954 17.1001 2.94095C16.1769 2.01237 15.0799 1.27471 13.8716 0.770101C12.6634 0.265491 11.3675 0.00381009 10.0581 0H10ZM10.1695 10.339L9.12833 13.8499H14.6973C14.7342 13.8486 14.771 13.8546 14.8056 13.8675C14.8402 13.8804 14.8718 13.9001 14.8988 13.9252C14.9258 13.9504 14.9476 13.9807 14.9629 14.0143C14.9781 14.0479 14.9866 14.0842 14.9879 14.1211V14.2131L14.5036 15.8838C14.4823 15.9628 14.4347 16.0322 14.3687 16.0806C14.3027 16.129 14.2222 16.1535 14.1404 16.1501H5.61744L7.04601 11.2833L5.44795 11.7676L5.81114 10.6538L7.40921 10.1695L9.41889 3.3414C9.44102 3.26284 9.48879 3.19394 9.55461 3.14567C9.62043 3.0974 9.70051 3.07255 9.78209 3.07506H11.9371C11.9739 3.07377 12.0107 3.07976 12.0453 3.09269C12.0799 3.10562 12.1116 3.12524 12.1385 3.15043C12.1655 3.17561 12.1873 3.20587 12.2026 3.23947C12.2178 3.27307 12.2264 3.30935 12.2276 3.34625V3.43826L10.5327 9.20097L12.1308 8.71671L11.7918 9.87893L10.1695 10.339Z" fill="#345D9D"/>
            </g>
            <defs>
            <clipPath id="clip0">
            <rect width="20" height="20" fill="white"/>
            </clipPath>
            </defs>
        </symbol>

        <svg id="icon-searchTicket" viewBox="0 0 32 32" fill="none" xmlns="http://www.w3.org/2000/svg">
            <path d="M14.5 25C20.299 25 25 20.299 25 14.5C25 8.70101 20.299 4 14.5 4C8.70101 4 4 8.70101 4 14.5C4 20.299 8.70101 25 14.5 25Z" stroke-width="2" stroke-linecap="round" stroke-linejoin="round"/>
            <path d="M21.9238 21.9248L27.9989 27.9999" stroke-width="2" stroke-linecap="round" stroke-linejoin="round"/>
        </svg>

        <svg id="icon-calendarTicket" viewBox="0 0 32 32" fill="none" xmlns="http://www.w3.org/2000/svg">
            <path d="M26 5H6C5.44772 5 5 5.44772 5 6V26C5 26.5523 5.44772 27 6 27H26C26.5523 27 27 26.5523 27 26V6C27 5.44772 26.5523 5 26 5Z" stroke-width="2" stroke-linecap="round" stroke-linejoin="round"/>
            <path d="M22 3V7" stroke-width="2" stroke-linecap="round" stroke-linejoin="round"/>
            <path d="M10 3V7" stroke-width="2" stroke-linecap="round" stroke-linejoin="round"/>
            <path d="M5 11H27" stroke-width="2" stroke-linecap="round" stroke-linejoin="round"/>
        </svg>



        <symbol id="icon-ethereum" width="32" height="32" viewBox="0 0 32 32" fill="none" xmlns="http://www.w3.org/2000/svg">
            <circle cx="16" cy="16" r="16" fill="#111A44"/>
            <path d="M15.972 5.5L11.058 12.262L9 22.258L15.972 26.5L22.944 22.258L20.844 12.22L15.972 5.5ZM10.134 21.796L11.688 14.194L15.216 24.904L10.134 21.796ZM12.192 12.472L15.972 7.264L19.752 12.472L15.972 23.896L12.192 12.472ZM16.686 24.904L20.214 14.194L21.768 21.796L16.686 24.904Z" fill="white"/>
        </symbol>

        <symbol id="icon-breadcrumbClose" width="24" height="24" viewBox="0 0 24 24" fill="none" xmlns="http://www.w3.org/2000/svg">
            <circle cx="12" cy="12" r="11.5714" fill="white" stroke="#D3E3FF" stroke-width="0.857143"/>
            <path d="M16.3392 7.66113L7.66064 16.3397M16.3392 16.3397L7.66064 7.66113" stroke="#373943" stroke-width="1.5" stroke-linecap="round" stroke-linejoin="round"/>
        </symbol>

        <symbol id="icon-modal-notify-check" width="228" height="224" viewBox="0 0 228 224" fill="none" xmlns="http://www.w3.org/2000/svg">
            <path d="M114 92.625V128.25" stroke="#F3B63F" stroke-width="14.25" stroke-linecap="round" stroke-linejoin="round"/>
            <path d="M101.666 35.6114L23.3125 170.98C22.0588 173.146 21.3976 175.604 21.3955 178.106C21.3934 180.609 22.0506 183.068 23.3007 185.236C24.5509 187.404 26.35 189.205 28.5171 190.457C30.6842 191.709 33.1428 192.368 35.6456 192.368H192.353C194.856 192.368 197.315 191.709 199.482 190.457C201.649 189.205 203.448 187.405 204.698 185.236C205.948 183.068 206.605 180.609 206.603 178.106C206.601 175.604 205.94 173.146 204.686 170.98L126.332 35.6114C125.081 33.4488 123.282 31.6534 121.118 30.4052C118.953 29.157 116.498 28.5 113.999 28.5C111.501 28.5 109.046 29.157 106.881 30.4052C104.717 31.6534 102.918 33.4488 101.666 35.6114V35.6114Z" stroke="#F3B63F" stroke-width="14.25" stroke-linecap="round" stroke-linejoin="round"/>
            <path d="M114 171C119.903 171 124.688 166.215 124.688 160.312C124.688 154.41 119.903 149.625 114 149.625C108.097 149.625 103.312 154.41 103.312 160.312C103.312 166.215 108.097 171 114 171Z" fill="#F3B63F"/>
        </symbol>

        <symbol id="icon-modal-notify-thank" width="228" height="228" viewBox="0 0 228 228" fill="none" xmlns="http://www.w3.org/2000/svg">
            <path d="M153.188 92.625L100.937 142.5L74.8125 117.562" stroke="#3E54D8" stroke-width="12" stroke-linecap="round" stroke-linejoin="round"/>
            <path d="M114 199.5C161.22 199.5 199.5 161.22 199.5 114C199.5 66.7797 161.22 28.5 114 28.5C66.7797 28.5 28.5 66.7797 28.5 114C28.5 161.22 66.7797 199.5 114 199.5Z" stroke="#3E54D8" stroke-width="12" stroke-linecap="round" stroke-linejoin="round"/>
        </symbol>

        <svg id="icon-rocket-launch" width="32" height="32" viewBox="0 0 32 32" fill="none" xmlns="http://www.w3.org/2000/svg">
            <path d="M11.7576 23.0706C10.3434 27.3133 4.68652 27.3133 4.68652 27.3133C4.68652 27.3133 4.68652 21.6564 8.92916 20.2422" stroke-width="2" stroke-linecap="round" stroke-linejoin="round"/>
            <path d="M24.4849 13.1715L15.9996 21.6568L10.3428 15.9999L18.8281 7.51466C22.0411 4.30164 25.2541 4.33298 26.6244 4.53743C26.8353 4.56888 27.0306 4.66727 27.1815 4.8181C27.3323 4.96894 27.4307 5.16423 27.4621 5.37521C27.6666 6.74548 27.6979 9.9585 24.4849 13.1715Z" stroke-width="2" stroke-linecap="round" stroke-linejoin="round"/>
            <path d="M23.0711 14.5859V22.657C23.0711 22.7883 23.0452 22.9184 22.9949 23.0397C22.9447 23.161 22.871 23.2713 22.7782 23.3641L18.7355 27.4068C18.6075 27.5348 18.4471 27.6257 18.2716 27.6697C18.096 27.7137 17.9118 27.7093 17.7386 27.6568C17.5653 27.6044 17.4096 27.5059 17.2879 27.3719C17.1663 27.2378 17.0833 27.0733 17.0478 26.8958L16 21.657" stroke-width="2" stroke-linecap="round" stroke-linejoin="round"/>
            <path d="M17.4146 8.92871H9.3435C9.21218 8.92871 9.08214 8.95458 8.96082 9.00483C8.83949 9.05509 8.72925 9.12874 8.63639 9.2216L4.59367 13.2643C4.46569 13.3923 4.37484 13.5526 4.33081 13.7282C4.28679 13.9038 4.29124 14.088 4.34369 14.2612C4.39614 14.4344 4.49463 14.5902 4.62864 14.7119C4.76266 14.8335 4.92718 14.9165 5.10467 14.952L10.3435 15.9998" stroke-width="2" stroke-linecap="round" stroke-linejoin="round"/>
        </svg>

        <symbol id="icon-download" width="24" height="24" viewBox="0 0 24 24" fill="none" xmlns="http://www.w3.org/2000/svg">
            <path d="M8.0625 10.3135L12 14.2499L15.9375 10.3135" stroke-width="1.5" stroke-linecap="round" stroke-linejoin="round"/>
            <path d="M12 3.75V14.2472" stroke-width="1.5" stroke-linecap="round" stroke-linejoin="round"/>
            <path d="M20.25 14.25V19.5C20.25 19.6989 20.171 19.8897 20.0303 20.0303C19.8897 20.171 19.6989 20.25 19.5 20.25H4.5C4.30109 20.25 4.11032 20.171 3.96967 20.0303C3.82902 19.8897 3.75 19.6989 3.75 19.5V14.25" stroke-width="1.5" stroke-linecap="round" stroke-linejoin="round"/>
        </symbol>

        <symbol id="eye" width="24" height="24" viewBox="0 0 24 24" fill="none" xmlns="http://www.w3.org/2000/svg">
            <path d="M12 5.24927C4.5 5.24927 1.5 12 1.5 12C1.5 12 4.5 18.7493 12 18.7493C19.5 18.7493 22.5 12 22.5 12C22.5 12 19.5 5.24927 12 5.24927Z" stroke-width="1.5" stroke-linecap="round" stroke-linejoin="round"/>
            <path d="M12 15.7501C14.0711 15.7501 15.75 14.0711 15.75 12.0001C15.75 9.92899 14.0711 8.25006 12 8.25006C9.92893 8.25006 8.25 9.92899 8.25 12.0001C8.25 14.0711 9.92893 15.7501 12 15.7501Z" stroke-width="1.5" stroke-linecap="round" stroke-linejoin="round"/>
        </symbol>

        <symbol id="eye_slash" width="24" height="24" viewBox="0 0 24 24" fill="none" xmlns="http://www.w3.org/2000/svg">
            <path d="M4.5 3.75012L19.5 20.2501"  stroke-width="1.5" stroke-linecap="round" stroke-linejoin="round"/>
            <path d="M14.5225 14.7749C13.7866 15.4438 12.8151 15.793 11.8217 15.7457C10.8283 15.6983 9.8944 15.2583 9.22542 14.5225C8.55644 13.7866 8.20716 12.8151 8.25442 11.8217C8.30168 10.8283 8.74161 9.89439 9.47742 9.22534"  stroke-width="1.5" stroke-linecap="round" stroke-linejoin="round"/>
            <path d="M6.93698 6.43079C3.11486 8.36631 1.5 12.0001 1.5 12.0001C1.5 12.0001 4.5 18.7494 12 18.7494C13.7572 18.7634 15.4926 18.3587 17.0623 17.5687"  stroke-width="1.5" stroke-linecap="round" stroke-linejoin="round"/>
            <path d="M19.5572 15.8532C21.6011 14.0225 22.5001 12.0001 22.5001 12.0001C22.5001 12.0001 19.5001 5.24941 12.0001 5.24941C11.3505 5.24834 10.7019 5.30115 10.0611 5.40729"  stroke-width="1.5" stroke-linecap="round" stroke-linejoin="round"/>
            <path d="M12.7057 8.31647C13.5027 8.46952 14.2287 8.87686 14.7746 9.47741C15.3205 10.0779 15.657 10.8393 15.7336 11.6473"  stroke-width="1.5" stroke-linecap="round" stroke-linejoin="round"/>
        </symbol>

        <symbol id="icon-bell" width="28" height="28" viewBox="0 0 28 28" fill="none" xmlns="http://www.w3.org/2000/svg">
            <path d="M6.14664 11.3749C6.1452 10.3372 6.34916 9.30943 6.74677 8.35088C7.14438 7.39233 7.72778 6.52196 8.46333 5.78993C9.19889 5.05791 10.0721 4.4787 11.0325 4.08571C11.993 3.69272 13.0217 3.49371 14.0594 3.50015C18.3895 3.53234 21.8531 7.13155 21.8531 11.4738V12.2499C21.8531 16.1673 22.6727 18.4404 23.3945 19.6829C23.4723 19.8156 23.5137 19.9665 23.5145 20.1204C23.5153 20.2742 23.4755 20.4256 23.3992 20.5591C23.3229 20.6927 23.2127 20.8038 23.0797 20.8812C22.9467 20.9586 22.7957 20.9995 22.6418 20.9999H5.35702C5.20315 20.9995 5.05211 20.9586 4.91913 20.8812C4.78615 20.8038 4.67594 20.6926 4.59961 20.559C4.52328 20.4254 4.48354 20.2741 4.48439 20.1202C4.48524 19.9663 4.52665 19.8154 4.60445 19.6827C5.32669 18.4402 6.14664 16.1671 6.14664 12.2499L6.14664 11.3749Z" stroke-width="1.75" stroke-linecap="round" stroke-linejoin="round"/>
            <path d="M10.5 21V21.875C10.5 22.8033 10.8687 23.6935 11.5251 24.3499C12.1815 25.0063 13.0717 25.375 14 25.375C14.9283 25.375 15.8185 25.0063 16.4749 24.3499C17.1313 23.6935 17.5 22.8033 17.5 21.875V21" stroke-width="1.75" stroke-linecap="round" stroke-linejoin="round"/>
        </symbol>

        <symbol id="icon-dangerCircle" width="24" height="24" viewBox="0 0 24 24" fill="none" xmlns="http://www.w3.org/2000/svg">
            <path d="M12 21C16.9706 21 21 16.9706 21 12C21 7.02944 16.9706 3 12 3C7.02944 3 3 7.02944 3 12C3 16.9706 7.02944 21 12 21Z" stroke="#DE4355" stroke-width="1.5" stroke-miterlimit="10"/>
            <path d="M12 7.5V12.75" stroke="#DE4355" stroke-width="1.5" stroke-linecap="round" stroke-linejoin="round"/>
            <path d="M12 17.25C12.6213 17.25 13.125 16.7463 13.125 16.125C13.125 15.5037 12.6213 15 12 15C11.3787 15 10.875 15.5037 10.875 16.125C10.875 16.7463 11.3787 17.25 12 17.25Z" fill="#DE4355"/>
        </symbol>

        <symbol id="icon-healthgreen" width="24" height="24" viewBox="0 0 24 24" fill="none" xmlns="http://www.w3.org/2000/svg">
            <path fill-rule="evenodd" clip-rule="evenodd" d="M10.8339 3.3995C11.2664 3.13753 11.7624 2.99902 12.2681 2.99902C12.7738 2.99902 13.2698 3.13753 13.7024 3.3995L14.7209 4.0225C16.1499 4.896 17.7774 5.0905 19.4124 5.2865C19.9409 5.35 20.4699 5.413 20.9934 5.4995C20.9934 5.4995 21.0049 6.4165 20.9929 6.8325L20.8884 10.408C20.7984 13.4745 19.4349 16.382 17.0959 18.495C15.9924 19.4915 14.8509 20.392 13.5394 21.14C13.1529 21.3587 12.7195 21.4813 12.2758 21.4976C11.832 21.5138 11.3908 21.4233 10.9894 21.2335C9.47487 20.5135 8.13387 19.6005 6.90937 18.495C4.57037 16.382 3.20687 13.4745 3.11737 10.408L3.01337 6.844C3.00087 6.4215 3.01337 5.4995 3.01337 5.4995C3.43837 5.4495 3.87137 5.408 4.30787 5.3665C6.23437 5.1835 8.22487 4.9945 9.85787 3.9965L10.8344 3.3995H10.8339ZM10.9984 10.9995V7.4995H12.9984V10.9995H16.4984V12.9995H12.9984V16.4995H10.9984V12.9995H7.49837V10.9995H10.9984Z" fill="#199F27"/>
        </symbol>

        <symbol id="icon-trendUp" width="20" height="20" viewBox="0 0 20 20" fill="none" xmlns="http://www.w3.org/2000/svg">
            <path d="M18.125 4.375L10.625 11.875L7.5 8.75L1.875 14.375" stroke="#3E54D8" stroke-width="1.25" stroke-linecap="round" stroke-linejoin="round"/>
            <path d="M18.125 9.375V4.375H13.125" stroke="#3E54D8" stroke-width="1.25" stroke-linecap="round" stroke-linejoin="round"/>
        </symbol>

        <svg id="icon-trendUpNotFill" width="24" height="24" viewBox="0 0 24 24" fill="none" xmlns="http://www.w3.org/2000/svg">
            <path d="M21.75 5.25L12.75 14.25L9 10.5L2.25 17.25" stroke-width="1.5" stroke-linecap="round" stroke-linejoin="round"/>
            <path d="M21.75 11.25V5.25H15.75" stroke-width="1.5" stroke-linecap="round" stroke-linejoin="round"/>
        </svg>



        <symbol id="icon-pseudoGraphBig" width="114" height="46" viewBox="0 0 114 46" fill="none" xmlns="http://www.w3.org/2000/svg">
            <path d="M6.08154 44.0954C7.77606 42.8659 9.6197 42.0787 11.5072 41.2728C13.6624 40.3526 15.8748 39.4079 17.9876 37.7526C19.222 36.8569 20.4614 35.6655 21.7137 34.4616C24.1433 32.126 26.6219 29.7433 29.2095 29.3807C31.9539 28.9962 34.7996 30.4898 37.6929 32.0083C39.3471 32.8765 41.0169 33.7529 42.6922 34.2911C46.964 36.2423 51.2775 35.638 54.3813 29.2535C55.8764 26.7202 57.2268 23.1545 58.5555 19.6461C60.3856 14.8138 62.1745 10.0904 64.2434 8.32325C66.9296 6.52759 69.988 8.66145 73.1128 10.8416C74.6661 11.9254 76.2359 13.0207 77.7846 13.6504C79.8912 14.4176 81.95 14.1292 84.0087 13.8407C86.0674 13.5522 88.1261 13.2638 90.2328 14.031C92.172 14.654 94.2251 16.0898 96.2451 17.5025C99.0225 19.4448 101.737 21.3434 104.008 21.0253C106.164 20.7231 107.989 18.7675 109.815 16.8119C110.022 16.5894 110.23 16.3668 110.438 16.1467" stroke-width="3" stroke-linecap="round"/>
        </symbol>

        <symbol id="icon-pseudoGraphSmall" width="43" height="21" viewBox="0 0 43 21" fill="none" xmlns="http://www.w3.org/2000/svg">
            <path d="M1.11247 19.919C1.75762 19.2848 2.47127 18.8949 3.20189 18.4957C4.03615 18.0399 4.89253 17.572 5.69432 16.7145C6.16432 16.2524 6.62994 15.6293 7.10045 14.9996C8.01326 13.778 8.94449 12.5317 9.96192 12.3891C11.041 12.2379 12.2002 13.1128 13.3789 14.0024C14.0527 14.5109 14.7329 15.0243 15.4081 15.3534C17.1421 16.5083 18.8381 16.2706 19.9318 12.8559C20.4702 11.5066 20.9293 9.59126 21.381 7.70677C22.0031 5.11117 22.6112 2.57402 23.3932 1.65463C24.4192 0.732839 25.6763 1.96137 26.9607 3.21658C27.5992 3.84056 28.2445 4.47113 28.8714 4.84742C29.7224 5.31059 30.5319 5.19717 31.3414 5.08375C32.1509 4.97033 32.9603 4.85691 33.8113 5.32008C34.5929 5.70103 35.4368 6.52757 36.2672 7.34078C37.4089 8.45891 38.5249 9.55185 39.4176 9.42677C40.2656 9.30795 40.947 8.28062 41.6285 7.2533C41.706 7.13639 41.7836 7.01948 41.8614 6.90391" stroke-width="2" stroke-linecap="round"/>
        </symbol>

        <symbol id="icon-graphChartBar" width="24" height="24" viewBox="0 0 24 24" fill="none" xmlns="http://www.w3.org/2000/svg">
            <path d="M4.125 19.5V12.75H9.375" stroke-width="1.5" stroke-linecap="round" stroke-linejoin="round"/>
            <path d="M21.375 19.5H2.625" stroke-width="1.5" stroke-linecap="round" stroke-linejoin="round"/>
            <path d="M9.375 19.5V8.25H14.625" stroke-width="1.5" stroke-linecap="round" stroke-linejoin="round"/>
            <path d="M19.875 3.75H14.625V19.5H19.875V3.75Z" stroke-width="1.5" stroke-linecap="round" stroke-linejoin="round"/>
        </symbol>

        <symbol id="icon-graphChartLine" width="24" height="20" viewBox="0 0 24 20" fill="none" xmlns="http://www.w3.org/2000/svg">
            <path d="M1.49826 14.9996L5.32347 8.86391L8.41461 12.326L11.7249 6.69622L15.8168 13.4353L22 2.00049" stroke-width="1.5" stroke-linecap="round" stroke-linejoin="round"/>
        </symbol>

        <symbol id="icon-graphChartForecast" width="24" height="24" viewBox="0 0 24 24" fill="none" xmlns="http://www.w3.org/2000/svg">
            <path d="M21.0002 19.5H3.00024V4.5" stroke="#3E54D8" stroke-width="1.45868" stroke-linecap="round" stroke-linejoin="round"/>
            <path d="M21.0002 9L15.0002 14.25L9.00024 9.75L3.00024 15" stroke="#3E54D8" stroke-width="1.45868" stroke-linecap="round" stroke-linejoin="round"/>
        </symbol>

        <symbol id="icon-checkCircle" width="24" height="24" viewBox="0 0 24 24" fill="none" xmlns="http://www.w3.org/2000/svg">
            <path d="M16.125 9.75L10.625 15L7.875 12.375" stroke="white" stroke-width="2" stroke-linecap="round" stroke-linejoin="round"/>
            <path d="M12 21C16.9706 21 21 16.9706 21 12C21 7.02944 16.9706 3 12 3C7.02944 3 3 7.02944 3 12C3 16.9706 7.02944 21 12 21Z" stroke="white" stroke-width="2" stroke-linecap="round" stroke-linejoin="round"/>
        </symbol>

        <symbol id="icon_dividendStatus__trophy" width="32" height="32" viewBox="0 0 32 32" fill="none" xmlns="http://www.w3.org/2000/svg">
            <path d="M30.4 1.6H25.6V0H6.4V1.6H1.6C0.64 1.6 0 2.24 0 3.2V7.04C0 10.72 2.72 13.76 6.4 14.24V14.4C6.4 19.04 9.6 22.88 13.92 23.84L12.8 27.2H9.12C8.48 27.2 7.84 27.68 7.68 28.32L6.4 32H25.6L24.32 28.32C24.16 27.68 23.52 27.2 22.88 27.2H19.2L18.08 23.84C22.4 22.88 25.6 19.04 25.6 14.4V14.24C29.28 13.76 32 10.72 32 7.04V3.2C32 2.24 31.36 1.6 30.4 1.6ZM6.4 11.04C4.64 10.56 3.2 8.96 3.2 7.04V4.8H6.4V11.04ZM19.2 16L16 14.24L12.8 16L13.6 12.8L11.2 9.6H14.56L16 6.4L17.44 9.6H20.8L18.4 12.8L19.2 16ZM28.8 7.04C28.8 8.96 27.36 10.72 25.6 11.04V4.8H28.8V7.04Z" fill="#F3B63F"/>
        </symbol>

        <symbol id="icon_dividendStatus__crown" width="42" height="42" viewBox="0 0 42 42" fill="none" xmlns="http://www.w3.org/2000/svg">
            <path d="M36.0059 14.854C35.8959 14.7957 35.7727 14.7668 35.6483 14.77C35.2007 14.77 34.5687 15.0594 33.6933 15.4886C33.3428 15.6623 32.9883 15.8279 32.6302 15.9854C32.5324 17.1443 32.2377 18.4306 31.7311 19.8435L31.5 20.5002L31.2816 21.0005C30.7727 22.2164 30.1827 23.3968 29.5156 24.5337H32.3198C32.3198 24.5337 34.9815 20.4978 35.7027 19.0212C36.0768 18.2573 36.3413 17.5709 36.4857 16.9822C36.6274 16.4106 36.6602 15.9224 36.5742 15.5713C36.4994 15.2491 36.3295 15.0358 36.0059 14.854Z" fill="#F3B63F"/>
            <path d="M10.5 20.5L10.2811 19.8754C9.76661 18.4474 9.46736 17.15 9.36892 15.9812C9.01118 15.8239 8.65714 15.6583 8.30711 15.4845C7.43101 15.0559 6.79905 14.7659 6.35148 14.7659C6.22724 14.7627 6.10427 14.7916 5.99448 14.8499C5.67095 15.0316 5.50164 15.2456 5.42486 15.5665C5.34151 15.9176 5.3717 16.4058 5.51411 16.9774C5.6598 17.5661 5.9223 18.2525 6.29833 19.0164C7.01823 20.493 9.68064 24.5289 9.68064 24.5289H12.4841C11.8183 23.3942 11.2292 22.2163 10.7208 21.0029L10.5 20.5Z" fill="#F3B63F"/>
            <path d="M40.5306 14.6199C40.1933 13.211 38.0618 8.99916 32.9956 11.3118C32.6379 10.67 30.6797 7.39069 26.1528 8.81672C26.1542 8.778 26.1548 7.39069 26.1548 7.39069H24.045L22.9136 5.90625H18.9498L17.8985 7.39134H15.8458C15.8458 7.39134 15.8464 8.77866 15.8477 8.81672C10.8675 7.39134 9.10215 11.1503 9.00437 11.3124C3.42362 8.93813 1.81319 13.1834 1.47128 14.6206C1.06047 16.3347 1.44503 18.3625 2.64597 20.8189C3.1224 21.7908 6.17003 26.7127 6.46862 27.2114C6.3258 27.3811 6.21894 27.5781 6.15454 27.7904C6.09013 28.0027 6.06951 28.2258 6.09394 28.4463C6.11836 28.6668 6.18731 28.88 6.29662 29.0731C6.40592 29.2661 6.5533 29.4349 6.72981 29.5693V33.1439C6.52927 33.2972 6.36671 33.4946 6.25473 33.7209C6.14275 33.9471 6.08435 34.1961 6.08406 34.4485C6.08579 34.884 6.25965 35.3012 6.56773 35.609C6.87581 35.9169 7.29311 36.0904 7.72862 36.0918L7.73125 36.0931H34.2733C34.7103 36.0934 35.1297 35.9206 35.4396 35.6123C35.7494 35.3041 35.9245 34.8856 35.9264 34.4485C35.9264 33.913 35.6672 33.4366 35.2688 33.136V29.5772C35.448 29.4433 35.5979 29.2741 35.7092 29.08C35.8204 28.8859 35.8907 28.671 35.9157 28.4487C35.9406 28.2264 35.9198 28.0013 35.8543 27.7874C35.7889 27.5734 35.6803 27.3752 35.5352 27.2048C35.8345 26.7068 38.8782 21.7908 39.3527 20.8195C40.5556 18.3625 40.9401 16.3354 40.5306 14.6199ZM34.2687 34.7812H7.7319C7.64289 34.782 7.55721 34.7474 7.49353 34.6852C7.42986 34.623 7.39335 34.5382 7.39197 34.4492C7.39197 34.2648 7.54422 34.1165 7.7319 34.1165H34.2687C34.4564 34.1165 34.608 34.2648 34.608 34.4492C34.6066 34.5381 34.5702 34.6228 34.5066 34.685C34.4431 34.7472 34.3576 34.7818 34.2687 34.7812ZM34.2687 28.5981H7.73715C7.64815 28.5989 7.56244 28.5645 7.49883 28.5022C7.43522 28.44 7.39891 28.355 7.39787 28.266C7.39787 28.0822 7.54881 27.9333 7.73715 27.9333H34.2687C34.4564 27.9333 34.608 28.0822 34.608 28.266C34.6069 28.355 34.5706 28.44 34.507 28.5022C34.4434 28.5645 34.3577 28.5989 34.2687 28.5981ZM34.3448 26.6385H7.65644C6.73769 25.095 4.47822 21.5749 3.82525 20.2427C2.7654 18.0718 2.41234 16.3328 2.74834 14.9244C3.00362 13.8521 4.73612 10.2703 9.64684 13.0627C10.811 9.98353 14.0057 8.79375 17.9543 11.1917C17.4897 10.2283 17.1583 9.32531 17.1583 8.70319H24.8417C24.8417 9.32531 24.5109 10.2283 24.0469 11.1917C27.9201 8.87578 30.8424 9.75713 32.3537 13.0627C37.59 10.2086 38.997 13.8521 39.2536 14.9244C39.5889 16.3328 39.2358 18.0718 38.1753 20.2427C37.5237 21.5742 35.2642 25.0943 34.3448 26.6385Z" fill="#F3B63F"/>
            <path d="M23.6745 10.3945C22.9498 11.0727 21.9935 11.4485 21.001 11.4452C20.0129 11.4483 19.0604 11.0763 18.3359 10.4044C18.4165 11.0558 18.732 11.6553 19.2233 12.0906C19.7146 12.5258 20.3479 12.7668 21.0043 12.7682C21.6624 12.7669 22.2974 12.5248 22.7893 12.0875C23.2813 11.6503 23.5961 11.048 23.6745 10.3945Z" fill="#F3B63F"/>
            <path d="M29.0477 19.1441C29.0477 19.1441 30.3832 16.5119 29.7919 14.1061C29.2433 11.8742 27.5534 12.5199 25.8977 13.3698C24.8589 13.9033 23.6802 14.4513 22.3789 14.6101V18.6152C23.0785 18.7346 23.7406 18.9354 24.284 19.2419C23.738 19.5503 23.0765 19.7505 22.3789 19.8686V24.5339H24.2781H24.3047H24.8142H25.3504H26.281C26.4221 24.2944 28.0318 21.5526 28.5673 20.3287C27.94 20.0524 27.3677 19.7105 26.9254 19.2983C27.5803 18.9597 29.0477 19.1441 29.0477 19.1441Z" fill="#F3B63F"/>
            <path d="M12.2056 14.1025C11.6793 16.1395 12.9531 19.1478 12.9531 19.1478C12.9531 19.1478 14.236 18.9969 15.1705 19.2941C14.7085 19.7233 14.1061 20.077 13.4452 20.3592C13.9781 21.57 15.5754 24.2902 15.7159 24.5297H16.6471H17H17.4609H17.7201H19.6225V19.8592C18.923 19.7384 18.2615 19.5389 17.7128 19.2377C18.2588 18.9325 18.9216 18.7317 19.6225 18.6123V14.6059C18.3205 14.4484 17.1294 13.9155 16.0991 13.3662C14.6061 12.5709 12.7798 11.8772 12.2056 14.1025Z" fill="#F3B63F"/>
        </symbol>

        <symbol id="icon_dividendStatus__topHat" width="34" height="34" viewBox="0 0 34 34" fill="none" xmlns="http://www.w3.org/2000/svg">
            <path d="M32.5863 22.2488C31.7028 20.1912 29.5778 20.1158 26.7059 20.527C26.7276 15.7308 27.5357 11.1504 29.071 6.14497C29.785 4.35253 24.465 1.09756 17.001 1.0625C9.53692 1.09756 4.21645 4.352 4.93045 6.14444C6.45673 11.1196 7.25945 15.7319 7.28814 20.5254C4.41992 20.1158 2.29758 20.1923 1.41411 22.2482C-0.510077 26.0716 5.57167 32.937 17.0005 32.937C28.4298 32.937 34.511 26.0716 32.5863 22.2488ZM6.63152 25.4161C6.63152 25.4161 7.35242 22.8953 7.23714 21.5624C13.508 27.2064 20.494 27.2064 26.7643 21.5624C26.7882 22.9224 27.3694 25.4161 27.3694 25.4161C21.1963 31.2901 12.8052 31.2901 6.63152 25.4161Z" fill="#F3B63F"/>
        </symbol>

        <symbol id="icon_lightning" width="20" height="30" viewBox="0 0 20 30" fill="none" xmlns="http://www.w3.org/2000/svg">
            <path fill-rule="evenodd" clip-rule="evenodd" d="M14.0514 0.110361C14.413 0.314479 14.6075 0.757783 14.5278 1.19615L12.8612 10.3623L19.4101 13.0637C19.6943 13.1809 19.9066 13.4464 19.9759 13.7715C20.0453 14.0965 19.9626 14.4382 19.7555 14.6823L7.02824 29.6823C6.75094 30.0091 6.31013 30.0938 5.94856 29.8896C5.58699 29.6855 5.3925 29.2422 5.47221 28.8039L7.13877 19.6377L0.589901 16.9363C0.305695 16.8191 0.0934286 16.5536 0.0240678 16.2285C-0.0452929 15.9035 0.0374032 15.5618 0.244509 15.3177L12.9718 0.317717C13.2491 -0.00909928 13.6899 -0.0937584 14.0514 0.110361Z" fill="#F3B63F"/>
        </symbol>





        <linearGradient id="paint0_linear" x1="12.4453" y1="6.77886" x2="17.4875" y2="11.9736" gradientUnits="userSpaceOnUse">
            <stop offset="0.21" stop-color="#F15A24"/>
            <stop offset="0.6841" stop-color="#FBB03B"/>
        </linearGradient>
        
        <linearGradient id="paint1_linear" x1="8.55128" y1="13.0658" x2="3.50903" y2="7.87112" gradientUnits="userSpaceOnUse">
            <stop offset="0.21" stop-color="#ED1E79"/>
            <stop offset="0.8929" stop-color="#522785"/>
        </linearGradient>

    </defs>
</svg>