<svg width="40" height="40" viewBox="0 0 40 40" fill="none" xmlns="http://www.w3.org/2000/svg">
<circle cx="20" cy="20" r="20" fill="#FBF5E8"/>
<path d="M18.5936 11.0609L9.65855 26.4977C9.51558 26.7447 9.44018 27.025 9.43994 27.3104C9.43971 27.5958 9.51464 27.8762 9.6572 28.1234C9.79977 28.3707 10.0049 28.576 10.2521 28.7188C10.4992 28.8616 10.7795 28.9367 11.0649 28.9367H28.9351C29.2205 28.9367 29.5009 28.8616 29.748 28.7188C29.9951 28.576 30.2003 28.3707 30.3429 28.1234C30.4854 27.8762 30.5604 27.5958 30.5601 27.3104C30.5599 27.025 30.4845 26.7447 30.3415 26.4977L21.4064 11.0609C21.2637 10.8143 21.0586 10.6096 20.8118 10.4673C20.5649 10.3249 20.285 10.25 20 10.25C19.7151 10.25 19.4352 10.3249 19.1883 10.4673C18.9415 10.6096 18.7364 10.8143 18.5936 11.0609Z" fill="white" stroke="#F5C565" stroke-width="1.4375" stroke-linecap="round" stroke-linejoin="round"/>
<path d="M20 17.5625V21.625" stroke="#F5C565" stroke-width="1.4375" stroke-linecap="round" stroke-linejoin="round"/>
<path d="M20 26.5C20.6731 26.5 21.2188 25.9543 21.2188 25.2812C21.2188 24.6082 20.6731 24.0625 20 24.0625C19.3269 24.0625 18.7812 24.6082 18.7812 25.2812C18.7812 25.9543 19.3269 26.5 20 26.5Z" fill="#F3B63F" fill-opacity="0.8"/>
</svg>
