<svg width="40" height="40" viewBox="0 0 40 40" fill="none" xmlns="http://www.w3.org/2000/svg">
<circle cx="20" cy="20" r="20" fill="#DE495B" fill-opacity="0.1"/>
<path d="M20 29C24.9706 29 29 24.9706 29 20C29 15.0294 24.9706 11 20 11C15.0294 11 11 15.0294 11 20C11 24.9706 15.0294 29 20 29Z" stroke="#DE4355" stroke-opacity="0.8" stroke-width="1.5" stroke-miterlimit="10"/>
<path d="M20 15.5V20.75" stroke="#DE4355" stroke-opacity="0.8" stroke-width="1.5" stroke-linecap="round" stroke-linejoin="round"/>
<path d="M20 25.25C20.6213 25.25 21.125 24.7463 21.125 24.125C21.125 23.5037 20.6213 23 20 23C19.3787 23 18.875 23.5037 18.875 24.125C18.875 24.7463 19.3787 25.25 20 25.25Z" fill="#DE4355" fill-opacity="0.8"/>
</svg>
