<svg width="256" height="243" viewBox="0 0 256 243" fill="none" xmlns="http://www.w3.org/2000/svg">
<path d="M0 80.3587C0 35.9778 35.9778 0 80.3587 0V0V80.3587H0V80.3587Z" fill="#ED6373"/>
<path d="M256 161.866C256 206.247 220.022 242.225 175.641 242.225V242.225L175.641 161.866L256 161.866V161.866Z" fill="#F3B63F"/>
<rect x="35.0115" y="35.0134" width="185.763" height="172.197" rx="32.7175" fill="white" stroke="#E6EEFF" stroke-width="1.14798"/>
<circle opacity="0.07" cx="127.892" cy="121.112" r="45.2205" fill="#3E54D8"/>
<path d="M135.322 140.628H113.223C112.804 140.628 112.403 140.462 112.107 140.166C111.811 139.87 111.645 139.468 111.645 139.05V110.637C111.645 110.218 111.811 109.817 112.107 109.521C112.403 109.225 112.804 109.059 113.223 109.059H129.008L136.9 116.951V139.05C136.9 139.468 136.734 139.87 136.438 140.166C136.142 140.462 135.74 140.628 135.322 140.628Z" stroke="#3E54D8" stroke-width="3.15695" stroke-linecap="round" stroke-linejoin="round"/>
<path d="M117.957 109.059V104.323C117.957 103.904 118.123 103.503 118.419 103.207C118.715 102.911 119.117 102.745 119.536 102.745H135.32L143.213 110.637V132.736C143.213 133.154 143.046 133.556 142.75 133.852C142.454 134.148 142.053 134.314 141.634 134.314H136.899" stroke="#3E54D8" stroke-width="3.15695" stroke-linecap="round" stroke-linejoin="round"/>
<path d="M119.535 126.422H129.006" stroke="#3E54D8" stroke-width="3.15695" stroke-linecap="round" stroke-linejoin="round"/>
<path d="M119.535 132.736H129.006" stroke="#3E54D8" stroke-width="3.15695" stroke-linecap="round" stroke-linejoin="round"/>
</svg>
