<svg width="1378" height="789" fill="none" xmlns="http://www.w3.org/2000/svg"><rect y="565" width="1378" height="224" rx="20" fill="#E2ECFF"/><rect y="63" width="69" height="21" rx="10.5" fill="#CEDFFF"/><rect y="154" width="46" height="14" rx="7" fill="#CEDFFF"/><rect y="176" width="187" height="21" rx="10.5" fill="#CEDFFF"/><rect y="267" width="122" height="14" rx="7" fill="#CEDFFF"/><rect y="295" width="135" height="14" rx="7" fill="#CEDFFF"/><rect y="323" width="87" height="14" rx="7" fill="#CEDFFF"/><rect y="351" width="164" height="14" rx="7" fill="#CEDFFF"/><rect y="379" width="112" height="14" rx="7" fill="#CEDFFF"/><rect y="491" width="387" height="14" rx="7" fill="#CEDFFF"/><rect y="463" width="1378" height="14" rx="7" fill="#CEDFFF"/><rect x="321" y="267" width="70" height="14" rx="7" fill="#CEDFFF"/><rect x="334" y="295" width="57" height="14" rx="7" fill="#CEDFFF"/><rect x="289" y="323" width="102" height="14" rx="7" fill="#CEDFFF"/><rect x="342" y="351" width="49" height="14" rx="7" fill="#CEDFFF"/><rect x="316" y="379" width="75" height="14" rx="7" fill="#CEDFFF"/><rect x="192" y="176" width="41" height="21" rx="10.5" fill="#CEDFFF"/><rect x="423" width="955" height="393" rx="20" fill="#E2ECFF"/><rect x="447" y="24" width="391" height="40" rx="20" fill="#CEDFFF"/><rect x="1204" y="24" width="150" height="27" rx="13.5" fill="#CEDFFF"/><rect x="469" y="87" width="35" height="11" rx="5.5" fill="#CEDFFF"/><rect x="558" y="87" width="35" height="11" rx="5.5" fill="#CEDFFF"/><rect x="1186" y="87" width="168" height="11" rx="5.5" fill="#CEDFFF"/><rect x="816" y="358" width="168" height="11" rx="5.5" fill="#CEDFFF"/><circle cx="455" cy="92" r="8" fill="#CEDFFF"/><circle cx="544" cy="92" r="8" fill="#CEDFFF"/><path d="M454 339.5l287-111 158.5 83h331l122-97" stroke="#CEDFFF" stroke-width="5" stroke-linecap="round"/><path d="M454 301.5l287-111 246.5 65 181-86 184 7" stroke="#CEDFFF" stroke-width="5" stroke-linecap="round"/><rect x="32" y="589" width="416" height="176" rx="18" fill="#CEDFFF"/><rect x="480" y="589" width="416" height="176" rx="18" fill="#CEDFFF"/><rect x="928" y="589" width="416" height="176" rx="18" fill="#CEDFFF"/><rect x="56" y="613" width="112" height="21" rx="10.5" fill="#E2ECFF"/><rect x="504" y="613" width="112" height="21" rx="10.5" fill="#E2ECFF"/><rect x="952" y="613" width="112" height="21" rx="10.5" fill="#E2ECFF"/></svg>