<svg width="343" height="677" fill="none" xmlns="http://www.w3.org/2000/svg"><rect width="343" height="40" rx="20" fill="#CEDFFF"/><rect y="64" width="46" height="14" rx="7" fill="#CEDFFF"/><rect y="86" width="187" height="21" rx="10.5" fill="#CEDFFF"/><rect x="192" y="86" width="41" height="21" rx="10.5" fill="#CEDFFF"/><rect y="139" width="343" height="388" rx="7.183" fill="#E2ECFF"/><rect x="18" y="157" width="307" height="40" rx="20" fill="#CEDFFF"/><rect x="18" y="213" width="177" height="14" rx="7" fill="#CEDFFF"/><path d="M18 426l98.062-111 54.157 83L263 361.5l62-60.5" stroke="#CEDFFF" stroke-width="5" stroke-linecap="round"/><path d="M18 388l98.062-111 84.225 65 61.844-86L325 263" stroke="#CEDFFF" stroke-width="5" stroke-linecap="round"/><rect x="88" y="492" width="168" height="11" rx="5.5" fill="#CEDFFF"/><rect y="551" width="122" height="14" rx="7" fill="#CEDFFF"/><rect y="579" width="135" height="14" rx="7" fill="#CEDFFF"/><rect y="607" width="87" height="14" rx="7" fill="#CEDFFF"/><rect y="635" width="164" height="14" rx="7" fill="#CEDFFF"/><rect y="663" width="112" height="14" rx="7" fill="#CEDFFF"/><rect x="273" y="551" width="70" height="14" rx="7" fill="#CEDFFF"/><rect x="286" y="579" width="57" height="14" rx="7" fill="#CEDFFF"/><rect x="241" y="607" width="102" height="14" rx="7" fill="#CEDFFF"/><rect x="294" y="635" width="49" height="14" rx="7" fill="#CEDFFF"/><rect x="268" y="663" width="75" height="14" rx="7" fill="#CEDFFF"/></svg>