<svg width="181" height="54" fill="none" xmlns="http://www.w3.org/2000/svg"><g clip-path="url(#clip0)"><path d="M.734 7.125A7.125 7.125 0 017.86 0h166.016A7.125 7.125 0 01181 7.125v39.188a7.125 7.125 0 01-7.125 7.125H7.859a7.125 7.125 0 01-7.125-7.125V7.125z" fill="#000"/><path fill-rule="evenodd" clip-rule="evenodd" d="M.734 46.313V7.125A7.125 7.125 0 017.86 0h166.016A7.125 7.125 0 01181 7.125v39.188a7.125 7.125 0 01-7.125 7.125H7.859a7.125 7.125 0 01-7.125-7.125zm1.07 0V7.125A6.056 6.056 0 017.858 1.07h166.016a6.056 6.056 0 016.056 6.056v39.188a6.056 6.056 0 01-6.056 6.057H7.859a6.056 6.056 0 01-6.056-6.057z" fill="#fff" fill-opacity=".3"/><path d="M41.47 27.81c-.018-3.132 1.401-5.493 4.267-7.233-1.603-2.296-4.028-3.56-7.224-3.803-3.026-.238-6.337 1.764-7.55 1.764-1.281 0-4.21-1.681-6.516-1.681-4.758.073-9.814 3.793-9.814 11.361 0 2.237.409 4.547 1.226 6.926 1.093 3.132 5.033 10.806 9.143 10.682 2.15-.05 3.67-1.525 6.466-1.525 2.714 0 4.12 1.525 6.517 1.525 4.147-.06 7.71-7.036 8.748-10.177-5.56-2.622-5.262-7.678-5.262-7.84zm-4.826-14.007c2.328-2.764 2.117-5.281 2.048-6.186-2.057.12-4.436 1.4-5.79 2.976-1.493 1.69-2.37 3.78-2.182 6.135 2.223.17 4.252-.973 5.924-2.925zm29.911 24.868h-2.358l-1.292-4.078h-4.491l-1.23 4.078h-2.297l4.45-13.886h2.747l4.471 13.886zm-4.04-5.79l-1.168-3.626c-.124-.37-.355-1.242-.697-2.615h-.042c-.136.59-.355 1.462-.656 2.615l-1.148 3.626h3.711zm15.483.661c0 1.703-.458 3.049-1.374 4.037-.82.88-1.84 1.319-3.056 1.319-1.313 0-2.256-.474-2.83-1.421h-.042v5.274h-2.214V31.955c0-1.07-.028-2.17-.082-3.296h1.947l.124 1.587h.042c.738-1.196 1.859-1.793 3.363-1.793 1.175 0 2.157.466 2.942 1.4.787.935 1.18 2.164 1.18 3.689zm-2.256.081c0-.974-.218-1.778-.656-2.41-.48-.66-1.122-.99-1.928-.99-.546 0-1.043.184-1.486.546a2.533 2.533 0 00-.872 1.433c-.068.276-.102.5-.102.678v1.67c0 .728.222 1.343.666 1.845.445.501 1.022.752 1.733.752.834 0 1.483-.324 1.947-.968.465-.646.698-1.498.698-2.556zm13.719-.081c0 1.703-.458 3.049-1.375 4.037-.82.88-1.838 1.319-3.054 1.319-1.313 0-2.256-.474-2.83-1.421h-.041v5.274h-2.214V31.955c0-1.07-.028-2.17-.082-3.296h1.947l.124 1.587h.041c.738-1.196 1.858-1.793 3.363-1.793 1.175 0 2.156.466 2.944 1.4.784.935 1.177 2.164 1.177 3.689zm-2.255.081c0-.974-.22-1.778-.658-2.41-.479-.66-1.12-.99-1.927-.99a2.3 2.3 0 00-1.487.546 2.532 2.532 0 00-.87 1.433c-.068.276-.103.5-.103.678v1.67c0 .728.222 1.343.665 1.845.444.5 1.022.752 1.734.752.834 0 1.483-.324 1.948-.968.465-.646.698-1.498.698-2.556zm15.072 1.154c0 1.181-.408 2.142-1.228 2.884-.9.811-2.154 1.216-3.765 1.216-1.487 0-2.68-.288-3.582-.865l.513-1.854a6.06 6.06 0 003.201.887c.834 0 1.483-.19 1.95-.568.464-.378.696-.885.696-1.517 0-.563-.191-1.038-.575-1.423-.38-.385-1.017-.743-1.907-1.074-2.42-.907-3.629-2.235-3.629-3.982 0-1.141.424-2.077 1.273-2.806.845-.729 1.973-1.093 3.384-1.093 1.257 0 2.302.22 3.136.66l-.553 1.813c-.779-.426-1.66-.639-2.646-.639-.779 0-1.387.193-1.824.577a1.652 1.652 0 00-.553 1.258 1.7 1.7 0 00.635 1.36c.368.329 1.038.686 2.01 1.07 1.189.482 2.063 1.044 2.625 1.69.56.642.839 1.446.839 2.406zm7.321-4.449h-2.441v4.862c0 1.236.43 1.854 1.292 1.854.396 0 .724-.035.984-.103l.061 1.689c-.436.164-1.011.246-1.722.246-.875 0-1.558-.268-2.051-.803-.492-.537-.739-1.436-.739-2.7v-5.047h-1.454v-1.67h1.454v-1.833l2.175-.659v2.493h2.441v1.671zm11.012 3.255c0 1.539-.438 2.802-1.312 3.79-.918 1.018-2.135 1.525-3.652 1.525-1.463 0-2.627-.488-3.495-1.462-.868-.975-1.303-2.205-1.303-3.688 0-1.551.447-2.822 1.343-3.81.895-.99 2.101-1.484 3.619-1.484 1.462 0 2.639.487 3.527 1.463.85.946 1.273 2.168 1.273 3.666zm-2.297.072c0-.924-.196-1.716-.594-2.376-.464-.8-1.128-1.198-1.988-1.198-.89 0-1.566.4-2.031 1.198-.397.661-.594 1.466-.594 2.417 0 .924.197 1.716.594 2.375.479.8 1.148 1.198 2.011 1.198.846 0 1.509-.407 1.988-1.219.408-.673.614-1.473.614-2.395zm9.495-3.04a3.828 3.828 0 00-.698-.061c-.779 0-1.382.295-1.805.886-.369.522-.554 1.181-.554 1.978v5.253h-2.213l.021-6.86a54.74 54.74 0 00-.083-3.151h1.928l.081 1.915h.062c.233-.658.602-1.188 1.107-1.586a2.668 2.668 0 011.6-.536c.205 0 .39.015.554.04v2.122zm9.902 2.576c0 .399-.026.735-.081 1.01h-6.643c.026.989.347 1.745.964 2.267.56.466 1.284.7 2.173.7.984 0 1.881-.158 2.688-.474l.347 1.544c-.943.413-2.057.62-3.341.62-1.546 0-2.759-.458-3.642-1.37-.88-.914-1.322-2.14-1.322-3.678 0-1.51.41-2.767 1.232-3.77.86-1.07 2.022-1.606 3.484-1.606 1.437 0 2.524.536 3.263 1.606.584.85.878 1.902.878 3.151zm-2.111-.577c.014-.66-.13-1.229-.43-1.71-.383-.619-.972-.927-1.765-.927-.724 0-1.313.301-1.762.906-.369.481-.588 1.058-.656 1.73h4.613v.001zM57.167 16.017h1.141c1.102 0 1.748.495 1.748 1.33v.011c0 .774-.679 1.28-1.714 1.28-1.058 0-1.731-.417-1.82-1.158l-.006-.044h-1.22l.006.067c.084 1.325 1.264 2.226 3.04 2.226 1.72 0 2.989-.99 2.989-2.315v-.012c0-1.08-.663-1.842-1.737-1.976v-.044c.89-.206 1.492-.952 1.492-1.843v-.01c0-1.242-1.102-2.1-2.716-2.1-1.681 0-2.778.83-2.862 2.188l-.005.078H56.7l.005-.078c.095-.69.68-1.096 1.626-1.096.963 0 1.52.428 1.52 1.14v.012c0 .768-.619 1.297-1.576 1.297h-1.108v1.046zm8.196 3.684c.779 0 1.453-.4 1.792-1.03h.028v.925h1.202V15.56c0-1.175-.907-1.931-2.338-1.931-1.441 0-2.315.773-2.399 1.78l-.005.062h1.135l.011-.05c.1-.468.53-.796 1.225-.796.746 0 1.169.39 1.169 1.035v.44l-1.598.095c-1.386.083-2.176.707-2.176 1.725v.011c0 1.052.785 1.77 1.954 1.77zm-.74-1.797v-.012c0-.495.4-.812 1.124-.857l1.436-.089v.456c0 .763-.646 1.336-1.492 1.336-.646 0-1.069-.322-1.069-.834zm10.165-3.207v-.957h-3.88v5.856h1.203v-4.899h2.677zm2.262 6.847h1.202V18.61h.028c.345.68 1.019 1.103 1.848 1.103 1.47 0 2.433-1.175 2.433-3.04v-.005c0-1.87-.958-3.04-2.45-3.04-.835 0-1.48.424-1.83 1.12h-.029V13.74H77.05v7.804zm2.75-2.867c-.908 0-1.553-.79-1.553-2.004v-.005c0-1.22.64-2.01 1.553-2.01.946 0 1.536.763 1.536 2.01v.005c0 1.236-.59 2.004-1.536 2.004zm5.585 2.873c1.146 0 1.758-.468 2.193-1.681l2.182-6.13h-1.27l-1.474 4.766h-.04l-1.475-4.765H84.2l2.13 5.86-.1.279c-.2.567-.512.718-1.08.718-.162 0-.3-.023-.395-.045v.94c.144.029.395.057.629.057zm8.507-1.837c1.436 0 2.388-.73 2.388-1.82v-.012c0-.684-.423-1.152-1.197-1.308v-.044c.629-.145 1.035-.64 1.035-1.27v-.01c0-1.003-.824-1.62-2.17-1.62-1.32 0-2.183.623-2.322 1.664l-.005.044h1.146l.006-.039c.089-.445.529-.718 1.158-.718.634 0 1.013.295 1.013.796v.011c0 .524-.362.79-1.07.79h-.84v.875h.846c.813 0 1.203.267 1.203.83v.01c0 .535-.457.863-1.197.863-.662 0-1.096-.256-1.23-.729l-.017-.056h-1.18l.006.05c.117 1.036 1.057 1.693 2.427 1.693zm4.699-.117h1.186l2.689-4.114h.05v4.114h1.196V13.74h-1.185l-2.689 4.097h-.055V13.74H98.59v5.856zm12.12-5.856h-4.871v.957h1.832v4.899h1.208v-4.899h1.831v-.957zm4.522 5.973c1.419 0 2.327-.847 2.51-1.776l.017-.061h-1.147l-.017.044c-.15.44-.623.807-1.335.807-.958 0-1.565-.645-1.587-1.753h4.147v-.406c0-1.76-1.007-2.94-2.65-2.94-1.642 0-2.699 1.225-2.699 3.056v.006c0 1.848 1.041 3.023 2.761 3.023zm-.056-5.1c.785 0 1.358.496 1.453 1.51h-2.939c.111-.98.707-1.51 1.486-1.51zm8.503 4.983h2.694c1.27 0 2.06-.657 2.06-1.681v-.011c0-.719-.501-1.242-1.258-1.342v-.045c.562-.105.996-.656.996-1.263v-.011c0-.93-.69-1.503-1.831-1.503h-2.661v5.856zm1.191-3.44V14.63h1.219c.579 0 .891.262.891.746v.011c0 .518-.334.769-1.013.769h-1.097zm0 2.55V17.03h1.142c.79 0 1.185.261 1.185.823v.012c0 .556-.367.84-1.046.84h-1.281z" fill="#fff"/></g><defs><clipPath id="clip0"><path fill="#fff" transform="translate(.734)" d="M0 0h180.265v53.438H0z"/></clipPath></defs></svg>