<svg width="292" height="76" fill="none" xmlns="http://www.w3.org/2000/svg"><path fill-rule="evenodd" clip-rule="evenodd" d="M127.883.233c-.657.117-1.369.32-1.583.452-.213.131-.483.084-.599-.104-.272-.438-1.525-.448-1.525-.012 0 .2-.333.178-.848-.056-.663-.301-1.043-.281-1.745.092-.675.358-.931.376-1.034.072-.103-.307-.337-.312-.983-.019-.578.263-.919.274-1.076.036-.126-.192-.868-.372-1.648-.4-1.117-.038-1.532.11-1.944.697-.288.41-.524.587-.524.394 0-.388-3.911-.602-4.487-.247-.196.121-1.336.184-2.534.14-1.849-.066-2.299.035-2.977.67-.62.58-.902.661-1.265.361-.671-.555-3.36-.382-3.826.247-.313.423-.481.44-.897.098-.364-.302-.546-.314-.637-.044-.08.24-1.176.381-2.99.386-1.575.003-3.7.244-4.723.536-1.022.291-2.36.49-2.974.443-.614-.047-1.305.071-1.537.262-.231.192-.718.354-1.081.36-1.382.025-3.388.467-4.04.89-.372.242-1.3.431-2.062.42-.762-.011-1.675.133-2.028.322-.354.188-1.365.45-2.248.582-.884.132-1.606.374-1.606.539 0 .164-.27.298-.6.298-.331 0-.927.228-1.325.505-.398.278-.963.414-1.256.302-.293-.112-1.136.11-1.874.493-.838.436-1.421.57-1.553.356-.13-.208-.366-.222-.604-.036-.216.167-1.663.781-3.215 1.365-1.552.583-3.197 1.354-3.655 1.713-.458.36-1.052.57-1.319.467-.332-.126-.485.052-.485.566 0 .561-.106.663-.422.403-.294-.242-.833-.205-1.775.122-.743.258-1.39.472-1.436.475-.047.003-.087.346-.09.763-.004.547-.085.632-.293.306-.24-.378-.407-.378-1.009-.004-.396.247-.72.545-.72.662 0 .117-.647.313-1.437.435-2.09.324-4.31 1.231-4.31 1.762 0 .252-.22.46-.49.46-.269 0-.896.375-1.394.835-.498.46-1.034.756-1.191.66-.158-.098-.553.132-.878.51-.325.379-.937.688-1.36.688-.466 0-.77.204-.77.514 0 .282-.381.658-.846.834-.465.176-.847.589-.85.917-.004.443-.077.485-.283.161-.222-.348-.494-.314-1.345.169-.587.333-1.068.795-1.069 1.026 0 .232-.306.421-.678.421-.372 0-.676.121-.676.27 0 .148-.684.6-1.52 1.006-.837.404-1.522.89-1.522 1.077 0 .188-.228.341-.507.341-.281 0-.507.3-.507.674 0 .374-.225.673-.507.673-.279 0-.507.152-.507.337 0 .185-.19.337-.422.338-.631.001-2.89 2.015-2.282 2.034.279.008-.025.206-.676.44-.65.233-1.623.833-2.162 1.332-.538.5-1.108.908-1.267.908-.16 0-.289.223-.289.497 0 .273-.424.715-.942.982s-1.537 1.18-2.263 2.029c-.727.85-1.485 1.544-1.686 1.544-.46 0-2.206 1.957-2.209 2.476-.001.213-.452.641-1.002.953-.55.312-1.098.956-1.217 1.432-.12.475-.383.864-.586.864-.593 0-2.263 1.76-2.263 2.385 0 .316-.228.661-.507.768-.279.107-.507.446-.507.754 0 .309-.266.808-.591 1.109-.808.749-1.437 1.92-1.437 2.674 0 .345-.295.965-.655 1.38-.36.413-.578.952-.484 1.196.105.27-.055.425-.407.394-.887-.078-.933.63-.069 1.083.424.221.526.335.228.253-.466-.128-1.655.818-1.655 1.318 0 .094-.4.802-.888 1.573-.736 1.162-.82 1.51-.488 2.04.288.458.298.762.038 1.075-.39.467-.139 1.532.36 1.532.166 0 .302.137.302.305 0 .168-.304.226-.676.13-.453-.119-.676-.011-.676.326 0 .277-.226.69-.502.919-.44.363-.419.52.169 1.265.732.928.896 2.107.292 2.107-.274 0-.278.122-.014.438.2.241.279.766.174 1.167-.254.969.663 1.882 1.594 1.587.423-.134.63-.411.52-.697-.102-.264.019-.475.273-.475.495 0 .852.92.622 1.6-.078.232-.358.421-.62.421-.61 0-.626.546-.023.777.252.096.708-.117 1.014-.473.608-.707.745-1.651.24-1.651-.383 0-.337-1.436.055-1.709.153-.106.348-.553.432-.993.086-.44.386-.93.669-1.087.282-.157.513-.704.513-1.216 0-.59.392-1.329 1.074-2.024.766-.78 1.081-1.426 1.098-2.252.02-.868.173-1.158.617-1.158.539-.001.727-.331.507-.889-.047-.118.239-.333.634-.479.55-.203.68-.468.552-1.133-.124-.644-.025-.868.38-.868.3 0 .546-.152.546-.337 0-.185.228-.337.507-.337s.507-.162.507-.36c0-.2.238-.599.529-.888.374-.373.423-.632.169-.886-.543-.54-.432-.939.232-.828.344.058.591-.111.591-.406 0-.278.304-.594.676-.703.372-.109.638-.374.592-.59-.047-.215.117-.39.363-.39.247 0 .793-.366 1.213-.812.714-.757.724-.822.144-.971-.432-.111-.346-.172.28-.2.63-.027 1.238-.466 2.027-1.464 1.692-2.14 2.276-2.65 2.914-2.544.381.064.616-.162.687-.661.065-.457.343-.758.701-.758.341 0 .876-.536 1.26-1.263.368-.694.813-1.283.99-1.308 1.14-.161 1.942-.669 2.26-1.432.202-.484.343-.994.313-1.133-.03-.139.135-.276.368-.304.232-.028.574-.086.76-.13a7.68 7.68 0 01.97-.117c.457-.028.582-.223.453-.712-.14-.536-.01-.674.637-.674.447 0 .813-.172.813-.382 0-.495 1.461-1.84 2.681-2.468.525-.271 1.045-.725 1.154-1.01.11-.285.5-.518.867-.518.366 0 .739-.116.827-.258.088-.143-.473-.218-1.248-.168-1.258.081-1.326.049-.642-.3.528-.27.705-.584.569-1.012-.241-.758.107-.795.884-.094.533.48.658.45 1.464-.352.484-.483.88-.719.88-.525 0 .46.922.457 1.077-.003.065-.196.42-.4.788-.455.419-.062.67-.36.67-.793 0-.965.397-1.265 1.006-.762.343.284.515.302.515.055 0-.204.38-.467.845-.583.465-.116.845-.422.845-.68 0-.299.377-.469 1.038-.469 1.007 0 3.42-1.386 4.343-2.494.243-.291.567-.452.72-.358.153.094.82-.133 1.482-.503.663-.371 1.205-.598 1.205-.503 0 .349 2.213-.979 2.643-1.586.245-.346.594-.538.775-.426.181.111.513.055.737-.125.225-.18 1.093-.434 1.93-.564.836-.13 2.087-.602 2.78-1.048.693-.447 1.573-.812 1.955-.812.382 0 1.26-.251 1.95-.558.692-.306 1.392-.526 1.557-.49.165.038.64-.25 1.055-.638.546-.512.995-.647 1.625-.489a2 2 0 001.64-.32c.423-.295 1.425-.537 2.226-.537.947 0 1.52-.167 1.641-.479.101-.263.409-.565.683-.67.277-.105.408-.044.294.14-.115.186.023.241.32.128.29-.11.537-.45.552-.754.014-.305.092-.398.172-.208.172.41 2.843.22 2.843-.202 0-.16.24-.2.533-.087.449.171 1.69-.124 4.875-1.16.697-.226 1.822-.366 4.355-.54 1.187-.08 2.252-.294 2.366-.473.198-.31 1.048-.4 4.94-.524.93-.03 1.792-.195 1.917-.368.125-.172.885-.353 1.69-.402.805-.05 1.554-.097 1.664-.107.11-.01.629-.385 1.151-.833.796-.68 1.024-.74 1.405-.36.25.249.454.606.454.793 0 .482 4.735.06 5.545-.494.468-.32.823-.344 1.303-.088.379.202 1.184.248 1.891.11.678-.133 4.959-.29 9.513-.347 4.555-.058 8.625-.117 9.045-.13.42-.013 1.105-.364 1.521-.778l.757-.755.113.798c.101.711.242.776 1.31.603.658-.106 1.481-.45 1.83-.765.6-.54.634-.535.634.11 0 .554.237.691 1.268.733 2.976.12 4.608.012 5.026-.334.332-.274.581-.236.968.149.645.643 6.947.731 7.352.102.158-.246.25-.173.253.204.005.632.978.755 2.202.28.438-.17.795-.104 1.014.188.186.248 1.251.538 2.366.643 1.116.106 2.483.246 3.039.312.557.067 1.105-.03 1.219-.213.129-.207.385-.165.679.112.552.522 3.006.763 3.006.295 0-.176.56-.086 1.244.198.683.285 1.806.464 2.493.399.905-.086 1.205 0 1.087.307-.146.379.538.604 1.378.455.158-.028 1.222.2 2.366.508 1.144.308 2.84.599 3.769.647.93.049 1.994.188 2.366.311.536.176.812-.029 1.329-.99.528-.978.711-1.11.948-.687.162.288.201.674.087.858-.113.184-.027.334.192.334.302 0 .305.115.013.464-.305.367-.226.507.382.67 1.192.318 1.335.261 1.112-.438-.175-.55-.047-.647.822-.622.847.024 1.03.17 1.03.82 0 1.166 1.171 2.196 2.202 1.938.469-.117 1.417.02 2.146.31.972.388 1.403.423 1.688.14.284-.284.56-.192 1.075.36.526.562.971.705 1.858.595.675-.083 1.274.023 1.422.251.141.218.788.587 1.439.82.998.358 1.241.347 1.55-.072.279-.378.461-.403.76-.105.217.216.394.573.394.793 0 .575 2.793 1.803 4.662 2.05.875.115 1.891.414 2.258.665.366.25.889.455 1.161.455.271 0 1.188.34 2.037.754a7.73 7.73 0 003.265.758c1.318.003 1.714.122 1.69.508-.02.312.325.547.898.612.511.059.929.232.929.385 0 .38 2.533 1.36 3.515 1.36.438 0 .986.228 1.217.506.459.551 1.69.694 1.69.196 0-.17-.19-.384-.422-.478-.26-.105-.202-.18.149-.197.315-.014.844.432 1.176.991.332.56.796.943 1.033.852.236-.09.43-.032.43.129s.56.277 1.245.258c.698-.02 1.304.143 1.38.37a.642.642 0 00.573.405c.241 0 .627.227.858.505.232.278.707.505 1.055.505.35 0 .954.318 1.344.707.457.455.994.652 1.509.554.44-.084.87.015.956.22.103.249.261.22.478-.087.272-.388.355-.388.532 0 .161.352.255.362.406.04.151-.32.31-.304.686.07.269.269.751.405 1.071.303.446-.143.475-.11.123.14-.386.275-.386.373 0 .621.253.162.687.31.966.33.279.018.773.056 1.099.084.325.027.591.277.591.555 0 .351.355.505 1.166.505.706 0 1.283.208 1.462.526.163.29.535.562.828.604.293.043.768.274 1.057.512.288.239.815.343 1.169.23.381-.12.82.007 1.072.31.235.281.674.513.977.514.303.002 1.006.304 1.564.672.558.368 1.28.67 1.606.67.325.002.591.123.591.268 0 .264.791.4 2.338.405.45.001 1.087.245 1.416.541.329.297.731.457.895.356.164-.101.511.111.772.472.261.36.65.656.865.656.216 0 .581.227.812.505.543.651 1.352.651 1.352 0 0-.278-.152-.505-.338-.505-.186 0-.338-.138-.338-.306 0-.167.369-.131.82.08.607.286.727.496.465.81-.194.235-.221.441-.059.46.162.02.873.084 1.581.143 1.393.116 2.263.646 2.263 1.38 0 .255.158.464.35.464.193 0 .748.26 1.234.577.486.317 1.112.61 1.391.65.278.042.62.259.76.483.139.225.498.315.797.2.339-.13.701.043.961.457.228.365.667.664.974.664.313 0 .651.369.77.842.117.463.448.842.737.842.466 0 .468.056.017.505-.278.278-.669.505-.869.505a.355.355 0 00-.362.346c0 .196-.438.119-1.017-.18-.731-.376-1.194-.429-1.646-.188-.345.184-.732.231-.86.104-.127-.127-.367-.012-.533.255-.262.422-.327.42-.492-.01-.159-.415-.968-.468-5.003-.327-2.648.093-5.021.302-5.274.464-.296.19-.566.13-.755-.168-.236-.37-.296-.374-.301-.02-.002.245-.203.643-.444.884-.361.359-.57.332-1.168-.15-.586-.474-1.012-.534-2.18-.308-.799.153-1.566.285-1.705.294-.14.008-.254.242-.254.52 0 .277-.157.505-.348.505-.192 0-.437-.228-.544-.505-.231-.6-.851-.655-1.385-.123-.447.446.28 1.373 1.002 1.278 1.001-.131 1.32.066 1.262.781-.143 1.76-.001 2.258.579 2.036.429-.164.513-.08.348.347-.129.337-.051.566.195.569.227.002.755.096 1.173.207.559.15.76.06.76-.341 0-.62.444-.692 1.337-.216.488.26.653.19.791-.337.096-.366.351-.665.567-.665.238 0 .309.264.179.671-.169.53-.094.626.349.456.31-.118.68-.026.823.203.143.23.812.445 1.487.476.97.046 1.227-.067 1.227-.538 0-.812.893-.755 1.11.072.158.603.406.652 2.633.526 1.671-.094 2.747.01 3.359.325.764.394 1.035.393 1.8-.002.495-.256.9-.349.9-.207s.456.192 1.014.11c.558-.081 1.014-.342 1.014-.579 0-.645.928-.874 1.155-.286.278.721.247.864-.137.628-.195-.12-.246.023-.122.345.17.441.27.462.503.102.238-.368.352-.358.629.055.28.42.388.427.634.049.199-.308.369-.34.52-.095.124.199.713.349 1.31.332.597-.016 1.237.007 1.423.05.702.167.915-.015.542-.462-.309-.371-.222-.463.437-.463.521 0 .884.232.989.632.228.868.827.793 1.005-.127l.146-.758.046.758c.063 1.03 1.736 1.111 1.736.084 0-.37.138-.673.306-.673.169 0 .235.276.146.613-.195.742.64 1.506 1.475 1.35.335-.063.758-.453.94-.867.183-.414.487-.736.676-.716.868.092 1.119-.115 1.314-1.086.166-.826.052-1.168-.549-1.654-.681-.55-.718-.72-.358-1.674.356-.94.318-1.143-.333-1.792-.404-.403-.692-1.037-.639-1.41.07-.507.015-.563-.216-.222-.217.32-.381.345-.543.085-.127-.206-.51-.373-.851-.373-.712 0-1.03-.638-1.03-2.069 0-.55-.125-.925-.278-.831-.31.191-1.412-.965-1.412-1.482 0-.184-.207-.333-.46-.333-.307 0-.407-.277-.3-.832.122-.638-.103-1.052-.963-1.769-2.109-1.76-3.043-2.798-2.828-3.145.291-.468-.751-2-1.361-2-.296 0-.412-.2-.294-.506.129-.335-.016-.508-.433-.516-.995-.016-1.811-.827-1.811-1.797 0-.81-.063-.853-.681-.468-.598.372-.784.3-1.538-.587-.471-.555-1.08-1.503-1.351-2.104-.555-1.228-.972-1.373-1.458-.508-.476.848-.88.246-.84-1.255.026-.995-.079-1.255-.449-1.113-.301.115-.554-.086-.671-.533-.104-.394-.385-.717-.625-.717-.282 0-.37.268-.249.758l.186.758-.715-.798c-.975-1.088-1.249-2.076-.687-2.473.336-.238.262-.282-.276-.165-.527.115-.684.027-.555-.307.099-.257-.001-.467-.221-.467s-.993-.614-1.716-1.365c-.724-.75-1.51-1.338-1.748-1.307-1.574.207-1.954-.02-1.954-1.17 0-.964-.103-1.12-.647-.979-.441.115-.833-.113-1.229-.715-.32-.487-.497-.968-.395-1.07.235-.235-.809-1.289-1.844-1.86-.78-.432-.982-.505-1.631-.586-.186-.023-.338-.345-.338-.715 0-.383-.225-.674-.523-.674-.287 0-.782-.454-1.098-1.008-.703-1.23-1.277-1.293-1.56-.17-.116.463-.447.841-.735.841-.369 0-.46-.198-.31-.671.16-.5.088-.623-.281-.482-.808.31-.927 1.468-.197 1.923.356.221.648.619.648.883s.098.382.219.262c.243-.242 2.123 2.09 2.138 2.652.009.362 2.279 1.496 2.996 1.496.216 0 .393-.246.393-.547 0-.447.092-.47.507-.127.279.23.509.666.512.967.005.47.051.477.32.053.173-.272.432-.378.577-.234.325.324-.586.924-1.008.664-.285-.175-.891.464-.903.952-.002.118.299.293.669.39.371.096.782.455.913.797.372.965 1.55 1.817 2.338 1.69.552-.09.678.024.553.502-.09.34-.301.618-.469.618-.169 0-.051.388.26.862.351.534.654.722.796.494.418-.675 1.317.029 1.422 1.114.094.967.222 1.076 1.373 1.171 1.171.096 1.239.158.89.809-.326.607-.297.673.209.48.448-.172.549-.082.428.38-.196.744.61 1.553 1.288 1.293.326-.125.616.11.83.673.414 1.084.106 1.662-.581 1.093-.28-.231-.989-.442-1.576-.469-1.731-.078-1.912-.133-1.912-.577 0-.406-2.161-1.26-3.189-1.26-.272 0-.619-.22-.77-.49-.159-.282-.951-.546-1.885-.626-.885-.075-1.702-.23-1.814-.341-.113-.112-.467-.064-.786.106-.492.262-.558.181-.424-.517.096-.499.001-.827-.238-.827-.219 0-.304.151-.189.337.553.891-.775.21-2.319-1.191-.453-.412-2.867-1.147-3.596-1.096-1.667.116-2.704-.109-2.704-.587 0-.283-.266-.61-.591-.724-.326-.115-.82-.4-1.099-.632-.279-.233-.963-.472-1.521-.532-.558-.06-1.523-.383-2.145-.717-.622-.335-1.42-.517-1.774-.405-.359.114-.644.044-.644-.156 0-.198-.38-.36-.845-.36-.465 0-.845-.16-.845-.356 0-.196-.153-.262-.34-.147-.187.115-.781-.103-1.32-.486-.539-.382-1.146-.694-1.349-.694-.204 0-.371-.152-.371-.337 0-.185-.35-.337-.777-.337-.428 0-.922-.135-1.099-.3-.177-.165-1.607-.688-3.18-1.162-2.267-.683-2.963-.778-3.36-.457-.4.322-.447.313-.232-.043.32-.53-.788-1.695-1.414-1.488-.228.076-.927-.178-1.554-.563-.626-.386-1.56-.702-2.076-.702-.515 0-1.105-.224-1.312-.499-.206-.274-.679-.554-1.051-.623a8.548 8.548 0 01-1.183-.313c-1.71-.639-2.744-.849-3.372-.685-.451.117-.869-.024-1.132-.383-.231-.314-.905-.582-1.506-.6-.598-.017-1.088-.175-1.088-.352s-.211-.24-.47-.142c-.258.099-.802-.129-1.208-.506-.53-.491-1.011-.632-1.697-.495-.639.127-1.017.038-1.134-.267-.097-.253-1.29-.71-2.65-1.017-1.361-.306-2.82-.782-3.244-1.056-.423-.275-.899-.42-1.057-.322-.158.097-.757-.056-1.33-.341-1.02-.507-2.951-.499-4.194.018-.476.197-.592.073-.592-.632 0-.556-.186-.878-.507-.878-.279 0-.507-.127-.507-.282 0-.156-.55-.303-1.222-.328-.672-.026-1.422-.211-1.666-.413-.509-.42-2.231-.74-3.677-.681-.543.022-1.096-.135-1.229-.349-.132-.214-1.057-.456-2.054-.537-2.641-.217-3.081-.21-3.945.07-.614.198-.818.11-.955-.413-.179-.68-.204-.685-4.518-.937-1.746-.102-2.585-.277-2.92-.61-.129-.13-.939-.235-1.801-.235-.861 0-1.71-.143-1.887-.318-.263-.26-2.407-.4-5.222-.339-.279.006-1.191-.152-2.028-.351-2.259-.54-4.171-.648-4.643-.266-.235.19-.68.22-1.014.069-.797-.361-7.187-.477-7.187-.13 0 .15-.423.062-.941-.195-.582-.29-1.775-.435-3.127-.382-2.261.088-3.181.385-2.849.921.106.17-.044.22-.332.11-.289-.111-.525-.355-.525-.543 0-.198-.214-.165-.507.077-.412.34-.507.325-.507-.08 0-.411-.492-.48-2.757-.382-1.516.065-2.829.19-2.917.278-.088.088-.407.04-.708-.107-.301-.146-1.084-.17-1.741-.052zm120.086 8.331c-.233.083-.405.63-.384 1.217.027.717.094.846.206.393.091-.37.323-.866.516-1.102.408-.502.262-.721-.338-.508zm-93.373.768c0 .185-.161.337-.358.337-.197 0-.264-.152-.149-.337.115-.185.276-.337.358-.337.082 0 .149.152.149.337zm94.978.915c0 .66.598 1.443 1.102 1.443.159 0 .171-.19.025-.421a2.079 2.079 0 01-.273-.898c-.014-.73-.854-.852-.854-.124zm-154.558.636c-.112.112-.403.124-.647.026-.27-.107-.19-.187.204-.203.356-.014.556.065.444.177zm153.713.47c-.115.185.029.337.318.337.29 0 .527-.152.527-.337 0-.185-.143-.337-.318-.337-.175 0-.412.152-.527.337zm-159.367 1.03c0 .175-.152.317-.338.317-.186 0-.338-.236-.338-.525 0-.289.152-.431.338-.317.186.115.338.35.338.525zm-17.238.129c0 .082-.152.242-.338.356-.186.115-.338.048-.338-.148s.152-.357.338-.357c.186 0 .338.067.338.149zm-.79 3.303c-.094.232-.17.042-.17-.42 0-.464.076-.653.17-.422.094.232.094.611 0 .842zm-3.942 2.61c0 .186-.266.335-.591.332-.506-.004-.518-.053-.085-.332.638-.41.676-.41.676 0zm153.496 2.45c-.55.547-.864.034-.332-.542.252-.272.512-.345.579-.161.068.183-.043.5-.247.702zm-159.749-.429c.115.185.048.337-.149.337s-.358-.152-.358-.337c0-.185.067-.337.15-.337.081 0 .242.152.357.337zm198.913 2.526c0 .278-.152.505-.338.505-.186 0-.338-.227-.338-.505s.152-.505.338-.505c.186 0 .338.227.338.505zm11.492 12.293c0 .185-.067.337-.149.337-.082 0-.243-.152-.358-.337-.115-.185-.048-.337.149-.337s.358.152.358.337zm-1.69 17.008c0 .277-.152.505-.338.505-.186 0-.338-.228-.338-.505 0-.278.152-.506.338-.506.186 0 .338.228.338.506zm-257.556.653c0 .082-.152.242-.338.357-.186.114-.338.047-.338-.149s.152-.356.338-.356c.186 0 .338.066.338.148zm259.584.357c0 .278-.152.505-.338.505-.186 0-.338.253-.338.562 0 .308-.094.467-.209.352-.305-.303.162-1.924.554-1.924.182 0 .331.227.331.505zm-12.155 1.507c-.679.419-1.109.07-.601-.486.269-.295.539-.344.754-.137.22.212.168.426-.153.623zm2.994-.54c.406.489.174 1.559-.339 1.559-.166 0-.302-.227-.302-.505s-.247-.506-.548-.506c-.449 0-.473-.09-.128-.505.522-.626.823-.636 1.317-.042zm22.047.302c-.334.33-.372.291-.189-.189.127-.332.316-.519.42-.415.104.103 0 .375-.231.604zm-28.444.5c-.009.794-.06.841-.357.333-.19-.325-.252-.742-.138-.926.349-.563.505-.377.495.592zm10.826.777c0 .381-.152.6-.338.485-.186-.114-.338-.426-.338-.693 0-.268.152-.486.338-.486.186 0 .338.313.338.694zm7.774.485a.502.502 0 01-.496.505c-.303 0-.421-.197-.302-.505.107-.278.33-.505.496-.505.166 0 .302.227.302.505zM6.207 58.006c-.235.282-.497.444-.582.36-.234-.234.242-.873.65-.873.225 0 .2.193-.068.513zm3.05 2.666c0 .082-.153.243-.339.357-.186.115-.338.048-.338-.149 0-.196.152-.356.338-.356.186 0 .338.067.338.148z" fill="#fff"/></svg>