<svg width="107" height="246" fill="none" xmlns="http://www.w3.org/2000/svg"><path fill-rule="evenodd" clip-rule="evenodd" d="M80.395 102.323c-.199-.506-.476-1.042-.615-1.191-.14-.149-.145-.372-.014-.496.306-.287.113-1.289-.235-1.219-.16.032-.196-.237-.092-.686.134-.578.057-.878-.354-1.378-.394-.482-.45-.684-.224-.814.229-.132.195-.32-.143-.788-.302-.42-.366-.69-.201-.854.133-.131.157-.752.053-1.38-.148-.898-.334-1.206-.868-1.44-.374-.164-.553-.324-.399-.355.31-.062-.148-3.22-.525-3.623-.128-.137-.361-1.037-.52-2-.244-1.487-.397-1.83-1.012-2.27-.564-.401-.674-.614-.493-.952.336-.625-.234-2.743-.812-3.015-.388-.182-.43-.314-.222-.7.182-.34.163-.488-.068-.516-.204-.026-.493-.878-.788-2.326-.257-1.257-.791-2.915-1.188-3.685-.397-.77-.772-1.806-.832-2.303-.061-.498-.267-1.031-.457-1.185-.19-.154-.398-.517-.461-.806-.242-1.099-.918-2.63-1.36-3.082-.254-.258-.554-.97-.667-1.58-.114-.61-.376-1.315-.583-1.567-.208-.252-.58-1.017-.827-1.701-.248-.684-.557-1.222-.688-1.196-.131.027-.282-.168-.335-.431-.053-.264-.33-.704-.617-.977-.285-.273-.485-.702-.442-.954.042-.252-.27-.89-.696-1.417-.482-.6-.682-1.043-.533-1.183.145-.136.118-.328-.068-.488-.17-.146-.892-1.202-1.608-2.347-.715-1.146-1.595-2.335-1.955-2.643-.36-.308-.624-.748-.586-.978.048-.286-.118-.38-.529-.297-.448.09-.547.022-.39-.272.146-.274.03-.698-.383-1.398a23.05 23.05 0 01-.61-1.07c-.01-.037-.29-.014-.623.051-.438.085-.519.034-.292-.185.263-.252.236-.386-.16-.806-.26-.277-.55-.488-.644-.47-.093.02-.353-.465-.578-1.076-.595-1.617-1.676-3.243-2.1-3.158-.202.04-.402-.102-.445-.317-.044-.215-.445-.656-.892-.98-.447-.323-.77-.703-.718-.844.052-.142-.195-.42-.55-.619-.354-.199-.7-.638-.767-.976-.075-.371-.287-.582-.534-.532-.226.045-.587-.198-.802-.54-.215-.344-.606-.583-.87-.532-.353.068-.398.016-.173-.2.242-.233.17-.445-.351-1.047-.36-.415-.806-.725-.992-.688-.185.036-.385-.177-.445-.474s-.205-.52-.324-.497c-.118.024-.59-.45-1.048-1.052-.457-.603-.955-1.072-1.105-1.041-.15.03-.309-.128-.353-.35-.046-.225-.321-.357-.62-.297-.298.06-.574-.072-.62-.296-.044-.223-.202-.38-.35-.351-.148.03-.3-.098-.337-.283-.103-.504-2.074-1.984-1.991-1.495.038.224-.17.013-.46-.469-.29-.482-.926-1.162-1.412-1.512-.485-.35-.903-.739-.928-.866-.026-.127-.225-.194-.443-.15-.218.044-.64-.224-.936-.595-.296-.37-1.19-1.037-1.984-1.48-.795-.444-1.472-.938-1.504-1.099-.074-.367-1.918-1.446-2.333-1.365-.17.033-.584-.258-.922-.646-.337-.39-.94-.723-1.338-.743-.4-.019-.752-.166-.785-.328-.095-.474-1.768-1.524-2.268-1.424-.252.051-.565-.075-.695-.28-.13-.206-.438-.334-.684-.284-.246.05-.687-.083-.98-.294-.728-.525-1.764-.839-2.366-.717-.276.055-.818-.08-1.207-.301-.388-.221-.853-.308-1.033-.194-.199.126-.348.024-.38-.262-.08-.721-.653-.644-.876.119-.108.374-.183.474-.165.223.027-.393-.92-1.19-1.319-1.11-.075.015-.704-.19-1.398-.456-1.046-.4-1.339-.411-1.708-.061-.32.303-.56.36-.852.202-.436-.235-1.246.136-1.165.535a.248.248 0 01-.195.29c-.135.027-.23-.207-.212-.52.021-.38-.1-.54-.37-.486-.221.044-.588-.07-.814-.254-.361-.292-.484-.25-.983.339-.623.734-1.538 1.054-1.636.572-.044-.219-.142-.202-.352.059-.16.199-.567.346-.903.327-.815-.048-1.396.832-1.011 1.528.174.316.43.436.64.302.194-.123.382-.06.423.143.08.394-.597.827-1.178.753-.197-.025-.393-.217-.436-.428-.098-.486-.536-.41-.623.108-.036.216.207.546.54.733.663.372 1.438.33 1.357-.074-.061-.305 1.093-.5 1.373-.23.11.104.498.188.863.185.365-.003.804.159.975.359.171.2.645.297 1.054.214.47-.095 1.124.1 1.788.532.747.486 1.313.634 1.975.515.697-.125.953-.048 1.024.306.088.43.381.527.791.262.087-.056.305.137.485.429.25.407.483.467.993.259.494-.202.69-.16.755.163.048.24.209.412.357.383.147-.03.305.127.35.35.045.223.211.379.37.347.158-.032.515.094.793.28.358.238.573.236.735-.008.344-.52.68-.496.698.052.01.284.184.454.42.407.221-.045.523.147.67.427.146.279.401.449.565.377.165-.072.331.03.371.227.04.197.419.574.843.839.72.448.773.445.799-.042.019-.363.081-.304.204.191.123.5.571.914 1.495 1.384 1.98 1.006 2.482 1.39 2.5 1.917.01.315.229.466.639.443.375-.022.66.152.717.438.055.272.57.613 1.211.803.614.181 1.156.442 1.204.58.312.885.846 1.443 1.507 1.574.419.083.849.113.955.067.106-.046.242.064.301.245.06.181.162.445.226.586.065.142.177.482.25.755.096.361.272.43.642.248.405-.198.536-.116.64.4.072.357.268.622.436.588.395-.08 1.704.87 2.402 1.744.3.376.747.718.992.76.245.041.493.315.552.608.06.292.212.571.34.619.128.047.098-.413-.067-1.023-.267-.992-.252-1.052.137-.561.3.378.58.468.899.291.566-.315.652-.042.217.691-.298.503-.254.598.517 1.112.463.309.715.587.56.618-.367.075-.216.81.176.86.167.02.387.27.49.556.117.325.395.477.741.407.77-.155 1.074.114.77.681-.171.32-.158.46.04.42.162-.033.433.229.6.581.168.353.474.607.68.566.238-.049.434.225.54.753.162.804 1.657 2.508 2.69 3.067.272.147.453.38.402.517-.05.137.238.633.64 1.102.403.47.671.866.596.882-.279.056 1.137 1.609 1.691 1.855.316.14.525.388.465.55-.06.163.038.419.218.57.18.149.522.801.76 1.448.24.647.817 1.57 1.285 2.053.468.481.901 1.124.963 1.43.061.304.402.965.758 1.467.356.503.645 1.027.642 1.164-.003.138.303.47.68.74.496.354.676.69.651 1.219-.022.467.165.92.519 1.258.304.29.658 1.052.787 1.691.152.757.378 1.188.646 1.233.227.04.517.236.645.438.129.204.1.319-.063.257-.168-.062-.19.058-.052.277a.757.757 0 00.691.319c.245-.038.332.01.194.104-.3.203.281 2.305.618 2.238.128-.026.198.159.155.411-.064.386.371 1.33 1.71 3.706.293.52.586 1.396 1.132 3.39.255.935.597 1.751.758 1.814.28.108.488.773 1.213 3.86.173.737.444 1.4.602 1.471.158.072.425.65.593 1.285.169.635.328 1.225.353 1.311.026.087.409.44.85.786.672.526.755.699.514 1.064-.159.24-.411.46-.56.49-.385.077.714 3.79 1.286 4.348.331.322.407.601.28 1.026-.1.335-.008.985.216 1.528.215.52 1.028 3.913 1.807 7.54.779 3.627 1.48 6.868 1.558 7.201.079.334.468.824.866 1.09l.724.483-.618.218c-.552.196-.58.318-.271 1.143.19.508.598 1.111.905 1.338.529.393.53.421.014.524-.443.09-.514.301-.382 1.13.383 2.396.732 3.682 1.076 3.96.272.221.282.426.036.797-.41.619.534 5.664 1.101 5.887.223.087.179.171-.122.235-.503.106-.445.902.131 1.803.207.322.21.618.013.84-.169.188-.228 1.085-.133 1.993.095.907.203 2.022.24 2.477.036.454.2.877.365.938.187.07.194.281.02.56-.328.525-.125 2.523.248 2.448.14-.028.16.433.042 1.025-.117.592-.08 1.517.083 2.055.214.708.194.962-.07.917-.326-.055-.397.527-.142 1.174.047.121.036 1.008-.026 1.971-.061.962-.021 2.363.09 3.113.11.75.17 1.623.132 1.94-.054.456.154.643 1.004.902.866.264 1 .389.701.646-.204.176-.506.269-.67.208-.166-.062-.272.032-.237.207.049.24-.042.261-.368.085-.342-.185-.441-.099-.473.412-.062 1.003.006 1.108.528.818.411-.229.509-.142.63.556.116.68.03.85-.49.954-.93.188-1.565 1.288-1.193 2.07.169.356.212 1.135.097 1.763-.153.839-.112 1.189.16 1.371.272.181.243.416-.114.916-.365.511-.407.889-.177 1.58.175.525.187 1.02.028 1.175-.151.148-.341.724-.423 1.281-.126.855-.078 1.046.307 1.226.347.162.396.303.206.59-.138.208-.394.407-.57.442-.46.093-.99 2.52-.887 4.052.049.718-.027 1.577-.168 1.91-.14.333-.22.783-.176 1 .044.217-.08 1.004-.275 1.748a6.296 6.296 0 00-.08 2.729c.21 1.053.178 1.389-.134 1.431-.252.035-.384.348-.344.816.035.417-.036.779-.158.804-.303.061-.68 2.241-.521 3.025.07.35-.023.824-.208 1.053-.366.455-.282 1.461.115 1.381.135-.027.277-.213.314-.414.042-.225.112-.191.181.088.062.249-.209.743-.602 1.098-.393.354-.625.787-.514.962.11.174.095.338-.034.364-.128.026-.13.492-.005 1.035.128.554.095 1.064-.074 1.162a.523.523 0 00-.231.522c.038.193-.081.537-.266.767-.184.229-.29.645-.233.924.056.278-.1.812-.348 1.186-.29.438-.362.898-.2 1.295.138.337.128.697-.022.798-.182.122-.134.244.147.367.353.155.366.222.085.426-.255.185-.248.262.033.33.28.069.293.198.054.559-.17.258-.202.665-.069.904.186.333.164.361-.092.121-.282-.264-.36-.248-.496.1a1.98 1.98 0 00-.108.824c.03.226.08.627.11.891s-.126.516-.348.561c-.28.057-.346.365-.216 1.012.114.564.04 1.058-.185 1.252-.205.177-.362.518-.35.759.014.24-.094.657-.238.926s-.142.705.004.971a.831.831 0 01-.074.905c-.188.233-.302.621-.254.863.047.242-.08.852-.285 1.357-.204.504-.329 1.13-.278 1.39.052.26-.001.492-.118.515-.21.042-.192.696.053 1.932.072.359-.02.907-.204 1.217-.184.311-.247.658-.14.773.106.114-.007.426-.253.692-.246.266-.42.624-.385.796.035.172-.088.5-.272.73-.433.537-.303 1.184.217 1.079.222-.045.379-.203.35-.351-.03-.148.055-.292.188-.319.134-.027.165.273.068.667-.13.531-.279.661-.572.502-.218-.117-.387-.105-.376.027.01.133.074.711.14 1.285.132 1.132-.152 1.911-.737 2.029-.204.041-.346.201-.315.354.031.154-.087.639-.262 1.078-.175.439-.309.986-.296 1.215.012.23-.107.538-.263.685-.157.147-.171.448-.032.669.158.249.079.567-.21.84-.255.242-.423.64-.373.885.05.25-.19.579-.549.75-.35.168-.6.494-.553.724.075.372.03.383-.401.095-.267-.178-.511-.453-.543-.613a.289.289 0 00-.334-.233c-.157.031-.166-.331-.021-.841.183-.644.151-1.022-.114-1.344-.203-.247-.303-.548-.222-.67.081-.123-.049-.296-.289-.385-.379-.141-.388-.193-.071-.394.306-.194.218-.849-.544-4.048-.5-2.099-1.048-3.961-1.218-4.137-.2-.206-.195-.43.013-.63.257-.247.25-.296-.033-.243-.196.037-.546-.058-.777-.213-.344-.23-.357-.402-.068-.956.284-.544.263-.894-.104-1.791a23.934 23.934 0 01-.51-1.314c-.028-.11-.234-.163-.455-.119-.222.045-.429-.044-.46-.197-.03-.153.111-.385.316-.515.442-.281.386-.784-.125-1.125-.427-.286-1.05.443-.86 1.005.267.778.16 1.065-.42 1.133-1.428.169-1.803.362-1.532.79.2.316.146.397-.221.334-.29-.049-.46.05-.423.247.035.181.045.618.023.97-.03.47.075.616.395.552.495-.1.623.243.387 1.033-.13.431-.047.552.396.577.308.018.588.174.623.346.038.19-.162.289-.508.251-.45-.05-.515.025-.308.352.145.228.131.538-.03.69-.16.15-.224.719-.14 1.263.12.782.25.969.626.894.649-.131.747.591.122.898-.456.223-.456.428.003 2.187.344 1.318.434 2.195.281 2.733-.191.674-.148.891.291 1.438.284.354.423.662.31.685-.113.023-.08.395.075.828.155.432.436.754.626.716.514-.104.847.601.413.876-.53.338-.65.336-.522-.008.064-.175-.058-.193-.296-.042-.325.207-.325.29 0 .418.332.131.342.224.057.511-.29.291-.279.379.063.514.278.11.33.24.16.4-.14.131-.164.625-.055 1.099.109.474.194.989.188 1.145-.02.587.16.728.457.358.247-.306.334-.252.44.275.084.416-.043.743-.345.891-.657.322-.501.788.262.782l.629-.005-.598.159c-.812.215-.608 1.564.212 1.399.296-.059.56.002.587.136.027.135-.182.232-.466.215-.624-.036-1.1.753-.84 1.395.104.257.483.532.843.612.36.079.666.27.68.424.066.708.272.875 1.078.874.687 0 .942-.146 1.233-.704.33-.632.46-.689 1.279-.555.808.133.964.07 1.377-.554.257-.387.717-.719 1.023-.737.416-.025.452-.078.142-.208-.29-.122-.336-.249-.154-.42.143-.134.216-.467.16-.739-.114-.569.345-.926 1.487-1.156.44-.088.719-.248.619-.355-.203-.217.543-1.283.956-1.366.147-.03.233-.219.192-.421-.05-.245.156-.37.616-.374.529-.005.823-.251 1.257-1.052 1.066-1.968 1.745-2.88 2.057-2.764.42.157 1.476-.922 1.378-1.409-.047-.236.094-.361.356-.316.29.049.404-.095.343-.429-.147-.797.369-1.579 1.144-1.735.646-.13.67-.187.264-.619-.393-.417-.367-.578.221-1.322.368-.466 1.026-1.104 1.463-1.418.891-.64.94-.996.171-1.245-.754-.244-.338-.663.867-.873.799-.139.99-.264.817-.538-.14-.221-.021-.456.317-.621.298-.146.51-.423.472-.614-.045-.225-.273-.252-.645-.077l-.575.27.522-.699c.712-.953 1.456-1.331 1.864-.946.243.23.267.164.087-.247-.176-.403-.132-.542.156-.493.221.038.373-.075.338-.251-.036-.176.33-.892.813-1.59.483-.699.826-1.421.762-1.606-.418-1.224-.298-1.563.62-1.748.77-.155.879-.263.678-.674-.163-.334-.044-.683.374-1.097.337-.333.693-.552.79-.487.226.15.9-.854 1.19-1.772.219-.692.244-.865.204-1.396-.011-.152.221-.325.517-.385.306-.062.502-.288.454-.526-.046-.229.236-.697.628-1.039.87-.759.827-1.227-.114-1.273-.389-.018-.745-.222-.79-.451-.06-.295.083-.4.486-.356.425.047.511-.03.339-.302-.377-.596-1.321-.504-1.567.152-.12.32-.39.617-.6.66-.212.042-.29.14-.175.216.232.156-1.327 2.031-1.773 2.134-.288.066-.828 2.061-.713 2.633.035.172.26.274.5.226.357-.072.39-.003.183.384-.14.26-.45.514-.69.565-.374.079-.373.117.009.264.245.094.371.284.28.422-.207.312-.832-.318-.693-.697.094-.256-.513-.637-.905-.568-.094.017-.186.285-.203.597-.018.311-.238.697-.49.857-.711.452-1.202 1.53-.973 2.139.16.426.089.544-.313.521-.285-.016-.541-.14-.569-.275-.026-.134-.317.022-.646.347-.37.366-.471.638-.266.715.606.225.188 1.056-.661 1.315-.757.23-.824.35-.714 1.284.111.951.073 1.015-.503.84-.537-.162-.585-.128-.35.244.21.331.154.426-.234.404-.626-.037-1.142.736-.826 1.236.152.241.011.509-.403.771-.8.505-1.31.352-.967-.288.14-.261.194-.861.121-1.334-.216-1.395-.201-1.548.154-1.619.324-.066.659-1.929.494-2.749-.044-.218.076-.53.266-.693.2-.173.283-.848.197-1.606-.082-.72-.09-1.396-.02-1.504.072-.108-.023-.383-.211-.611-.288-.35-.234-.416.345-.421.414-.004.66-.132.622-.324-.035-.174-.17-.218-.3-.096-.622.585-.291-.585.579-2.043.255-.429.454-2.474.296-3.048-.36-1.312-.347-2.176.034-2.253.227-.046.444-.311.483-.589a3.51 3.51 0 01.328-.979c.141-.26.222-.845.18-1.3-.041-.455.061-1.277.228-1.828.167-.55.184-1.217.038-1.482-.148-.268-.14-.507.02-.539.159-.032.227-.361.152-.732-.075-.371-.008-.701.149-.732.156-.032.185-.165.063-.296-.123-.131-.044-.64.175-1.131.218-.492.37-1.027.337-1.19-.032-.163.062-.32.21-.35.148-.03.213-.333.144-.675-.069-.341-.04-.758.063-.925.103-.168.29-1.394.416-2.726.18-1.92.144-2.491-.175-2.757-.322-.267-.322-.306-.003-.192.474.17 1.227-.902.96-1.368-.097-.17-.007-.769.2-1.331.208-.563.31-1.359.227-1.771-.083-.411.001-.919.187-1.128.186-.208.334-.631.328-.939a6.953 6.953 0 01.06-.995c.235-1.469.237-2.328.005-2.803-.166-.341-.12-.698.123-.966.215-.234.32-.815.237-1.298-.083-.481-.035-.897.106-.926.142-.028.159-.207.038-.398-.12-.19-.026-.661.21-1.046.307-.502.342-.909.122-1.435-.204-.489-.194-.805.031-.948.186-.118.36-1.144.386-2.28.026-1.135.17-2.377.322-2.759.15-.383.19-.786.087-.897-.103-.11-.077-.612.058-1.116.241-.896-.076-2.437-.689-3.346-.234-.348-.153-.461.41-.574.444-.09.67-.29.62-.546-.046-.223.019-.426.143-.451.124-.024.153-.487.065-1.028s-.06-1.169.062-1.397c.254-.474.232-1.9-.047-3.045-.105-.431-.069-.897.08-1.038.15-.14.194-.917.099-1.726-.252-2.144-.329-2.494-.69-3.139-.257-.459-.22-.635.175-.829.515-.252.515-.273.022-3.758-.2-1.41-.194-2.108.018-2.429.082-.124.036-.788-.102-1.476-.139-.688-.161-1.389-.05-1.558.166-.253-.068-1.987-.57-4.225-.049-.221-.07-.975-.045-1.675.067-1.891-.153-3.435-.534-3.75-.19-.157-.286-.508-.218-.799.16-.695-.776-5.815-1.052-5.76-.12.025-.118-.328.004-.782.137-.512.062-1.488-.198-2.559-.434-1.791-.82-2.478-1.194-2.126-.118.111-.182 0-.14-.248.041-.248.199-.476.349-.506.157-.032.097-.198-.144-.393-.338-.274-.341-.352-.017-.417.328-.067.303-.47-.138-2.263-.296-1.2-.607-2.228-.692-2.285-.084-.056-.097-.318-.029-.582.069-.264-.038-.893-.237-1.399zm12.66 97.226c-.103-.172-.568-.222-1.033-.11-.568.136-.66.21-.28.227.31.013.743.119.963.234.466.246.618.094.35-.351zm-15.629-74.433c-.148.03-.295-.074-.326-.231-.032-.157.078-.235.245-.173.166.062.313.166.326.231.013.066-.097.144-.245.173zm14.544 75.985c-.526.107-1.055.71-.974 1.112.025.127.178.106.34-.047.161-.153.464-.317.672-.363.581-.128.544-.819-.038-.702zM66.606 77.793c-.107-.072-.164-.303-.125-.513.042-.233.119-.182.195.13.069.282.037.454-.07.383zm24.345 122.812c-.166-.062-.264.076-.217.308.046.231.205.396.353.366.148-.03.246-.168.218-.308-.028-.14-.187-.304-.354-.366zM64.5 73.519c-.14.028-.278-.07-.308-.219-.03-.148.135-.308.365-.354.23-.047.37.052.308.219s-.226.326-.365.354zm-2.875-13.743c-.066.013-.218-.083-.34-.213-.12-.13-.092-.262.065-.294a.284.284 0 01.339.213c.03.148.001.28-.064.294zm-2.765-.1c-.2-.038-.061-.13.309-.204.37-.074.533-.044.363.068-.17.113-.472.174-.672.136zm-2.718-2.728c-.148.03-.31-.159-.36-.419-.078-.404-.041-.422.251-.12.43.443.437.473.109.54zm22.73 122.957c-.525-.351-.166-.684.38-.352.257.158.357.354.22.437-.135.083-.405.045-.6-.085zM53.521 52.28c-.129.122-.26.093-.292-.065-.032-.157.063-.31.211-.34.148-.03.28 0 .293.065.013.066-.082.219-.211.34zm29.974 159.234c-.222.045-.428-.04-.458-.188-.03-.149.127-.307.35-.351.221-.045.427.04.457.188.03.149-.127.307-.35.351zm-7.967 11.153c-.148.03-.28.001-.293-.064-.013-.066.082-.219.211-.34.13-.122.261-.093.293.064.032.157-.063.311-.211.34zm-13.852 1.386c-.222.045-.428-.04-.458-.189-.03-.148.127-.306.35-.351.221-.044.427.041.457.189.03.148-.127.306-.349.351zM19.733 18.505c-.065.013-.218-.082-.34-.212-.12-.13-.091-.263.065-.294a.284.284 0 01.34.212c.03.149 0 .281-.065.294zm41.463 207.33c-.222.045-.428-.04-.458-.189-.03-.148-.256-.229-.503-.179-.246.049-.388-.001-.315-.111.193-.292 1.563-.18 1.625.133.03.146-.128.301-.35.346zm-3.159-9.463c-.443-.475-.234-.875.292-.558.278.167.361.375.23.58-.133.21-.313.202-.522-.022zm.913 2.303c-.325.403-1.217.39-1.3-.02-.026-.132.134-.277.356-.322.221-.044.363-.278.315-.519-.072-.358-.003-.392.383-.183.583.316.64.554.245 1.044zm3.305 17.653c-.317-.213-.293-.25.12-.181.286.048.465.168.4.268-.067.1-.3.061-.52-.087zm-4.973-22.632c-.636.121-.682.088-.324-.231.229-.204.552-.321.717-.259.506.188.382.343-.393.49zm1.12 8.77c-.305.061-.504-.025-.442-.192.061-.167.286-.338.5-.381.212-.043.411.043.441.192.03.148-.195.32-.5.381zm.862 6.285a.409.409 0 01-.483-.315c-.048-.241.09-.367.355-.322.24.041.457.183.483.315.027.133-.133.278-.355.322zM14.697 14.459c-.263-.143-.434-.326-.38-.407.149-.225.736.053.801.379.036.179-.122.19-.42.028zm-1.638 2.863c-.066.013-.218-.082-.34-.213-.12-.13-.091-.262.065-.293a.284.284 0 01.34.212c.029.149 0 .28-.065.294z" fill="#fff"/></svg>