<svg width="566" height="434" fill="none" xmlns="http://www.w3.org/2000/svg"><g clip-path="url(#clip0)"><path d="M525.957 394.278H41.81a.146.146 0 01-.145-.151c0-.085.07-.15.145-.15h484.147c.082 0 .145.065.145.15a.146.146 0 01-.145.151z" fill="#000"/><path d="M323.537 87.965H44.281v277.909h279.256V87.964z" fill="#E6EEFF"/><path d="M527.791 130.342H264.039v177.061h263.752V130.342z" fill="#8CCF93"/><path d="M264.037 366.018h-4.308a.147.147 0 01-.147-.151.15.15 0 01.147-.151h4.161a.144.144 0 01.147-.132c.083 0 .147.066.147.151v.132a.147.147 0 01-.147.151zm-8.754 0h-4.445a.147.147 0 01-.147-.151.15.15 0 01.147-.151h4.445c.084 0 .147.066.147.151a.146.146 0 01-.147.151zm-8.885 0h-4.446a.146.146 0 01-.146-.151.15.15 0 01.146-.151h4.446c.083 0 .147.066.147.151a.15.15 0 01-.147.151zm-8.891 0h-4.445a.147.147 0 01-.147-.151.15.15 0 01.147-.151h4.445c.083 0 .147.066.147.151a.147.147 0 01-.147.151zm-8.886 0h-4.445a.147.147 0 01-.147-.151.15.15 0 01.147-.151h4.445c.084 0 .147.066.147.151a.15.15 0 01-.147.151zm-8.89 0h-4.445a.146.146 0 01-.147-.151.15.15 0 01.147-.151h4.445c.083 0 .147.066.147.151a.147.147 0 01-.147.151zm-8.886 0H206.4a.147.147 0 01-.147-.151.15.15 0 01.147-.151h4.445c.083 0 .147.066.147.151a.147.147 0 01-.147.151zm-8.885 0h-4.446a.147.147 0 01-.147-.151.15.15 0 01.147-.151h4.446c.083 0 .146.066.146.151a.15.15 0 01-.146.151zm-8.891 0h-4.445a.146.146 0 01-.147-.151.15.15 0 01.147-.151h4.445c.083 0 .147.066.147.151a.147.147 0 01-.147.151zm-8.886 0h-4.445a.147.147 0 01-.147-.151.15.15 0 01.147-.151h4.445c.084 0 .147.066.147.151a.146.146 0 01-.147.151zm-8.885 0h-4.446a.147.147 0 01-.147-.151.15.15 0 01.147-.151h4.446c.083 0 .147.066.147.151a.15.15 0 01-.147.151zm-8.891 0h-4.445a.147.147 0 01-.147-.151.15.15 0 01.147-.151h4.445c.083 0 .147.066.147.151a.147.147 0 01-.147.151zm-8.886 0h-4.445a.147.147 0 01-.147-.151.15.15 0 01.147-.151h4.445c.084 0 .147.066.147.151a.146.146 0 01-.147.151zm-8.89 0h-4.445a.146.146 0 01-.147-.151.15.15 0 01.147-.151h4.445c.083 0 .147.066.147.151a.147.147 0 01-.147.151zm-8.886 0H135.3a.147.147 0 01-.147-.151.15.15 0 01.147-.151h4.445c.083 0 .147.066.147.151a.147.147 0 01-.147.151zm-8.886 0h-4.445a.147.147 0 01-.147-.151.15.15 0 01.147-.151h4.445c.084 0 .147.066.147.151a.15.15 0 01-.147.151zm-8.89 0h-4.445a.146.146 0 01-.147-.151.15.15 0 01.147-.151h4.445c.083 0 .147.066.147.151a.147.147 0 01-.147.151zm-8.886 0h-4.445a.147.147 0 01-.147-.151.15.15 0 01.147-.151h4.445c.083 0 .147.066.147.151a.147.147 0 01-.147.151zm-8.538-.349c-.078 0-.147-.066-.147-.141l-.073-4.422c0-.085.063-.151.147-.151.083 0 .147.066.151.142l.074 4.421c0 .076-.069.142-.152.151.005 0 0 0 0 0zm159.492-4.205a.147.147 0 01-.147-.15v-4.422a.15.15 0 01.147-.151.15.15 0 01.147.151v4.422c0 .084-.064.15-.147.15zm-159.634-4.638c-.078 0-.147-.066-.147-.141l-.073-4.422c0-.085.064-.151.147-.151.083 0 .147.066.151.142l.074 4.421a.168.168 0 01-.152.151zm159.634-4.205a.147.147 0 01-.147-.151v-4.421a.15.15 0 01.147-.151.15.15 0 01.147.151v4.421a.147.147 0 01-.147.151zm-159.781-4.638a.148.148 0 01-.147-.142l-.073-4.421c0-.085.064-.151.147-.151.083 0 .147.066.152.141l.073 4.422c0 .075-.068.141-.152.151.005 0 0 0 0 0zm159.781-4.205a.147.147 0 01-.147-.151v-4.421a.15.15 0 01.147-.151.15.15 0 01.147.151v4.421a.147.147 0 01-.147.151zm-159.923-4.638a.148.148 0 01-.147-.142l-.073-4.421c0-.085.064-.151.147-.151.078 0 .147.066.152.141l.073 4.422a.17.17 0 01-.152.151zm159.923-4.205a.147.147 0 01-.147-.151v-4.422a.15.15 0 01.147-.15.15.15 0 01.147.15v4.422a.147.147 0 01-.147.151zm-160.07-4.639a.147.147 0 01-.146-.141l-.074-4.422c0-.084.064-.15.147-.15.083 0 .147.066.152.141l.073 4.422c0 .075-.068.141-.152.15.005 0 0 0 0 0zm368.827-3.582l-4.445-.019a.147.147 0 01-.147-.151.15.15 0 01.147-.151l4.445.019c.083 0 .147.066.147.151a.147.147 0 01-.147.151zm-8.886-.028l-4.445-.019a.147.147 0 01-.147-.151.15.15 0 01.147-.151l4.445.019c.084 0 .147.066.147.151a.15.15 0 01-.147.151zm-8.89-.038l-4.445-.019a.146.146 0 01-.147-.151.15.15 0 01.147-.151l4.445.019c.083 0 .147.066.147.151a.144.144 0 01-.147.151zm-8.886-.028l-4.445-.019a.147.147 0 01-.147-.151.15.15 0 01.147-.151l4.445.019c.083 0 .147.066.147.151a.147.147 0 01-.147.151zm-8.886-.029l-4.445-.019a.147.147 0 01-.147-.15.15.15 0 01.147-.151l4.445.019c.084 0 .147.066.147.15a.15.15 0 01-.147.151zm-8.89-.028l-4.445-.019a.146.146 0 01-.147-.151c0-.085.068-.15.147-.15l4.445.018c.083 0 .147.066.147.151a.147.147 0 01-.147.151zm-8.886-.038l-4.445-.019a.147.147 0 01-.147-.15.15.15 0 01.147-.151l4.445.019c.083 0 .147.066.147.15a.147.147 0 01-.147.151zm-8.885-.028l-4.446-.019a.147.147 0 01-.147-.151.15.15 0 01.147-.151l4.446.019c.083 0 .146.066.146.151a.15.15 0 01-.146.151zm-8.891-.028l-4.445-.019a.146.146 0 01-.147-.151.15.15 0 01.147-.151l4.445.019c.083 0 .147.066.147.151a.147.147 0 01-.147.151zm-8.886-.029l-4.445-.018a.147.147 0 01-.147-.151.15.15 0 01.147-.151l4.445.019c.084 0 .147.066.147.151a.15.15 0 01-.147.15zm-8.89-.037l-4.446-.019a.146.146 0 01-.146-.151.15.15 0 01.146-.151l4.446.019c.083 0 .147.066.147.151a.145.145 0 01-.147.151zm-8.886-.029l-4.445-.018a.146.146 0 01-.147-.151.15.15 0 01.147-.151l4.445.019c.083 0 .147.066.147.151 0 .084-.064.15-.147.15zm-8.886-.028l-4.445-.019a.147.147 0 01-.147-.151.15.15 0 01.147-.15l4.445.019c.084 0 .147.066.147.15a.15.15 0 01-.147.151zm-8.89-.028l-4.446-.019a.146.146 0 01-.146-.151.15.15 0 01.146-.151l4.446.019c.083 0 .147.066.147.151a.144.144 0 01-.147.151zm-8.886-.038l-4.445-.019a.147.147 0 01-.147-.151.15.15 0 01.147-.15l4.445.019c.083 0 .147.065.147.15a.147.147 0 01-.147.151zm-8.886-.028l-4.445-.019a.147.147 0 01-.147-.151.15.15 0 01.147-.151l4.445.019c.084 0 .147.066.147.151a.15.15 0 01-.147.151zm-8.89-.028l-4.445-.019a.146.146 0 01-.147-.151.15.15 0 01.147-.151l4.445.019c.083 0 .147.066.147.151a.144.144 0 01-.147.151zm-8.886-.038l-4.445-.019a.147.147 0 01-.147-.151.15.15 0 01.147-.151l4.445.019c.083 0 .147.066.147.151a.147.147 0 01-.147.151zm-8.886-.028l-4.445-.019a.147.147 0 01-.147-.151c0-.085.074-.151.147-.151l4.445.019c.084 0 .147.066.147.151a.15.15 0 01-.147.151zm-8.89-.029l-4.445-.019a.145.145 0 01-.147-.15.15.15 0 01.147-.151l4.445.019c.083 0 .147.066.147.151 0 .084-.064.15-.147.15zm-8.886-.028l-4.445-.019a.147.147 0 01-.147-.151.15.15 0 01.147-.15l4.445.018c.083 0 .147.066.147.151a.147.147 0 01-.147.151zm-31.009-.019a.147.147 0 01-.147-.151v-.094c0-.038.015-.075.044-.104a.212.212 0 01.103-.047l4.347.019c.084 0 .147.066.147.151a.15.15 0 01-.147.151l-4.21-.019a.143.143 0 01-.137.094zm22.119-.019l-4.446-.018a.147.147 0 01-.147-.151.15.15 0 01.147-.151l4.446.019c.083 0 .147.066.147.151a.144.144 0 01-.147.15zm-8.886-.028l-4.445-.019a.146.146 0 01-.147-.151.15.15 0 01.147-.15l4.445.018c.083 0 .147.066.147.151a.147.147 0 01-.147.151zm197.492-1.753a.145.145 0 01-.147-.142l-.049-4.421c0-.085.064-.151.147-.151.083 0 .147.066.152.141l.049 4.422c-.005.085-.069.151-.152.151zm-370.937-2.829a.147.147 0 01-.146-.141l-.074-4.422c0-.085.064-.151.147-.151a.16.16 0 01.152.142l.073 4.421a.168.168 0 01-.152.151zm370.839-6.015a.145.145 0 01-.147-.141l-.049-4.422c0-.085.064-.15.147-.15.083 0 .147.065.152.141l.049 4.421c-.005.085-.069.151-.152.151zm-370.985-2.828c-.079 0-.147-.066-.147-.141l-.074-4.422c0-.085.064-.151.147-.151.083 0 .147.066.152.142l.073 4.421c0 .076-.068.142-.151.151.005 0 0 0 0 0zm370.882-6.015a.144.144 0 01-.146-.141l-.049-4.422c0-.085.063-.151.146-.151.084 0 .147.066.152.142l.049 4.421a.147.147 0 01-.152.151c.005 0 .005 0 0 0zm-371.024-2.828a.148.148 0 01-.147-.142l-.074-4.421c0-.085.064-.151.147-.151.083 0 .147.066.152.141l.073 4.422c-.004.075-.068.141-.151.151zm370.927-6.015a.144.144 0 01-.147-.141l-.049-4.422c0-.085.063-.151.147-.151.083 0 .146.066.151.142l.049 4.421a.15.15 0 01-.151.151c.004 0 .004 0 0 0zm-371.074-2.838c-.079 0-.147-.066-.147-.141l-.074-4.422c0-.085.064-.151.147-.151.084 0 .147.066.152.142l.074 4.421a.151.151 0 01-.152.151c.005 0 0 0 0 0zm370.976-6.005a.144.144 0 01-.147-.142l-.049-4.421c0-.085.063-.151.147-.151.083 0 .146.066.151.141l.049 4.422a.15.15 0 01-.151.151c.004 0 0 0 0 0zm-371.118-2.838c-.079 0-.147-.066-.147-.141l-.074-4.422c0-.085.064-.151.147-.151.084 0 .147.066.152.142l.074 4.421c-.005.085-.069.151-.152.151zm371.02-6.005a.144.144 0 01-.147-.142l-.049-4.421c0-.085.063-.151.147-.151.083-.01.147.066.151.141l.049 4.422a.15.15 0 01-.151.151zm-371.167-2.838a.148.148 0 01-.147-.142l-.073-4.421c0-.085.063-.151.146-.151.084 0 .147.066.152.141l.074 4.422a.148.148 0 01-.152.151c.005 0 0 0 0 0zm371.069-6.006a.145.145 0 01-.147-.141l-.049-4.422c0-.084.064-.15.147-.15.083 0 .147.066.152.141l.049 4.422c0 .075-.069.141-.152.15zm-371.211-2.837a.148.148 0 01-.147-.142l-.073-4.421c0-.085.063-.151.147-.151.078 0 .146.066.151.141l.074 4.422c-.005.085-.069.151-.152.151zm371.113-6.006a.145.145 0 01-.147-.141l-.049-4.422c0-.085.064-.151.147-.151.083 0 .147.066.152.142l.049 4.421a.168.168 0 01-.152.151zm-371.26-2.837a.148.148 0 01-.147-.142l-.063-4.026a.14.14 0 01.044-.103.146.146 0 01.107-.047h.402c.083 0 .147.066.147.15a.15.15 0 01-.147.151h-.25l.064 3.875a.154.154 0 01-.157.142c.005 0 0 0 0 0zm53.662-4.017h-4.446a.146.146 0 01-.146-.151c0-.084.068-.15.146-.15h4.446c.083 0 .147.066.147.15a.15.15 0 01-.147.151zm-8.891 0h-4.445a.147.147 0 01-.147-.151.15.15 0 01.147-.15h4.445c.083 0 .147.066.147.15a.144.144 0 01-.147.151zm-8.886 0h-4.445a.147.147 0 01-.147-.151.15.15 0 01.147-.15h4.445c.084 0 .147.066.147.15a.146.146 0 01-.147.151zm-8.885 0h-4.445a.146.146 0 01-.147-.151.15.15 0 01.147-.15h4.445c.083 0 .147.066.147.15a.15.15 0 01-.147.151zm-8.891 0h-4.445a.147.147 0 01-.147-.151.15.15 0 01.147-.15h4.445c.083 0 .147.066.147.15a.147.147 0 01-.147.151zm-8.885 0h-4.446a.147.147 0 01-.147-.151.15.15 0 01.147-.15h4.446c.083 0 .146.066.146.15a.15.15 0 01-.146.151zm361.938-1.998a.145.145 0 01-.147-.142l-.049-4.421c0-.085.064-.151.147-.151.083 0 .147.066.152.141l.049 4.422c-.005.085-.069.151-.152.151zm-316.36-1.292a.146.146 0 01-.146-.151l.004-4.421a.15.15 0 01.147-.151c.084 0 .147.066.147.151l-.005 4.421a.143.143 0 01-.147.151zm316.262-7.552a.145.145 0 01-.147-.141l-.049-4.422c0-.084.064-.15.147-.15.083 0 .147.066.152.141l.049 4.422a.154.154 0 01-.152.15zm-316.252-1.291a.147.147 0 01-.147-.151l.005-4.422a.15.15 0 01.147-.15c.083 0 .147.066.147.15l-.005 4.422a.144.144 0 01-.147.151zm316.154-7.552a.145.145 0 01-.147-.141l-.049-4.422c0-.085.064-.151.147-.151.078 0 .147.066.152.142l.049 4.421c-.005.085-.069.151-.152.151zm-316.144-1.291a.147.147 0 01-.147-.151l.005-4.422a.15.15 0 01.147-.151c.083 0 .147.066.147.151l-.005 4.422a.144.144 0 01-.147.151zm316.046-7.552a.145.145 0 01-.147-.141l-.049-4.422c0-.085.064-.151.147-.151a.16.16 0 01.152.142l.049 4.421c-.005.085-.069.151-.152.151zm-316.036-1.301a.147.147 0 01-.147-.151l.005-4.421a.15.15 0 01.147-.151c.083 0 .147.066.147.151l-.005 4.421a.144.144 0 01-.147.151zm315.933-7.542a.144.144 0 01-.146-.141l-.049-4.422c0-.085.063-.151.146-.151.084 0 .147.066.152.141l.049 4.422a.147.147 0 01-.152.151c.005 0 .005 0 0 0zm-315.923-1.301a.146.146 0 01-.147-.151l.005-4.422c0-.084.068-.15.146-.15.084 0 .147.066.147.15l-.005 4.422a.143.143 0 01-.146.151zm315.825-7.542a.144.144 0 01-.146-.142l-.049-4.421c0-.085.063-.151.147-.151.083 0 .146.066.151.141l.049 4.422a.15.15 0 01-.152.151c.005 0 0 0 0 0zm-315.816-1.301c-.088 0-.146-.066-.146-.151l.004-4.422a.15.15 0 01.147-.151c.084 0 .147.066.147.151l-.005 4.422a.146.146 0 01-.147.151zm315.719-7.542a.144.144 0 01-.147-.142l-.049-4.421c0-.085.063-.151.147-.151.083 0 .146.066.151.141l.049 4.422a.15.15 0 01-.151.151zm-315.709-1.301a.147.147 0 01-.147-.151l.005-4.422a.15.15 0 01.147-.151c.083 0 .147.066.147.151l-.005 4.422a.147.147 0 01-.147.151zm315.611-7.543a.144.144 0 01-.147-.141l-.049-4.422c0-.084.063-.15.147-.15.088 0 .147.066.151.141l.049 4.422a.15.15 0 01-.151.15zm-315.601-1.301a.147.147 0 01-.147-.15l.005-4.422a.15.15 0 01.147-.151c.083 0 .147.066.147.151l-.005 4.422c0 .084-.064.15-.147.15zm315.503-7.542a.145.145 0 01-.147-.141l-.049-4.422c0-.085.064-.151.147-.151.083 0 .147.066.152.142l.048 4.421a.153.153 0 01-.151.151zm-315.493-1.301a.147.147 0 01-.147-.151l.005-4.421a.15.15 0 01.147-.151c.083 0 .147.066.147.151l-.005 4.421a.147.147 0 01-.147.151zm315.395-7.542a.145.145 0 01-.147-.141l-.049-4.422c0-.085.064-.151.147-.151.078 0 .147.066.152.142l.049 4.421c-.005.085-.069.151-.152.151zm-315.385-1.301a.146.146 0 01-.147-.151l.005-4.421a.15.15 0 01.146-.151c.084 0 .147.066.147.151l-.005 4.421a.146.146 0 01-.146.151zm315.287-7.542a.145.145 0 01-.147-.142l-.049-4.421c0-.085.064-.151.147-.151.078-.009.147.066.152.141l.049 4.422c-.005.075-.069.151-.152.151zm-315.278-1.311a.147.147 0 01-.147-.15l.005-4.422a.15.15 0 01.147-.151c.083 0 .147.066.147.151l-.005 4.422c0 .084-.063.15-.147.15zm315.18-7.532a.145.145 0 01-.147-.142l-.049-4.421c0-.085.064-.151.147-.151.083 0 .147.066.152.141l.049 4.422a.17.17 0 01-.152.151zm-315.17-1.311a.147.147 0 01-.147-.151l.005-4.421a.15.15 0 01.147-.151c.083 0 .147.066.147.151l-.005 4.421a.147.147 0 01-.147.151zm315.072-7.542a.145.145 0 01-.147-.141l-.049-4.422c0-.085.064-.151.147-.151.083 0 .147.066.152.142l.049 4.421c-.005.085-.069.151-.152.151zm-315.062-1.301a.147.147 0 01-.147-.151l.005-4.421a.147.147 0 11.294 0l-.005 4.421a.147.147 0 01-.147.151zm314.964-7.542a.145.145 0 01-.147-.142l-.049-4.421c0-.085.064-.151.147-.151a.15.15 0 01.152.141l.049 4.422c-.005.085-.069.151-.152.151zm-314.954-1.301a.146.146 0 01-.147-.151l.005-4.422a.15.15 0 01.147-.15c.083 0 .146.066.146.15l-.004 4.422a.147.147 0 01-.147.151zm314.861-7.542a.147.147 0 01-.147-.151l-.014-4.422a.146.146 0 11.293 0l.015 4.422a.147.147 0 01-.147.151zm-312.932-.038a.152.152 0 01-.137-.094c-.035-.076.004-.161.078-.198l4.088-1.735a.154.154 0 01.196.075c.034.076-.005.161-.079.198l-4.088 1.735c-.019.019-.039.019-.058.019zm8.175-3.469a.162.162 0 01-.137-.085c-.034-.076.005-.161.079-.198l4.088-1.735a.153.153 0 01.195.075c.035.076-.005.161-.078.198l-4.088 1.735c-.019 0-.039.01-.059.01zm8.171-3.479a.153.153 0 01-.137-.095c-.034-.075.005-.16.079-.198l4.087-1.734c.074-.028.162 0 .196.075.035.076-.005.16-.078.198l-4.088 1.735c-.02.019-.039.019-.059.019zm296.562-1.858a.146.146 0 01-.147-.15l-.015-4.422a.147.147 0 11.294 0l.015 4.422a.15.15 0 01-.147.15zM183.4 119.587a.147.147 0 01-.147-.151c0-.084.064-.15.147-.15l4.445-.019c.084 0 .147.066.147.151 0 .084-.063.15-.147.15l-4.445.019zm8.891-.037a.146.146 0 01-.147-.151c0-.085.063-.151.147-.151l4.445-.019c.083 0 .147.066.147.151a.147.147 0 01-.147.151l-4.445.019zm8.885-.038a.147.147 0 01-.147-.151c0-.085.064-.151.147-.151l4.446-.019c.083 0 .146.066.146.151a.146.146 0 01-.146.151l-4.446.019zm8.886-.038a.147.147 0 01-.147-.151c0-.085.064-.15.147-.15l4.445-.019c.083 0 .147.066.147.15a.147.147 0 01-.147.151l-4.445.019zm8.891-.038a.146.146 0 01-.147-.15c0-.085.063-.151.147-.151l4.445-.019c.083 0 .147.066.147.151a.147.147 0 01-.147.151l-4.445.018zm8.885-.047a.147.147 0 01-.147-.15c0-.085.064-.151.147-.151l4.445-.019c.084 0 .147.066.147.151 0 .085-.063.15-.147.15l-4.445.019zm8.886-.037a.147.147 0 01-.147-.151c0-.085.064-.151.147-.151l4.445-.019c.083 0 .147.066.147.151a.147.147 0 01-.147.151l-4.445.019zm8.89-.038a.146.146 0 01-.146-.151c0-.085.063-.151.146-.151l4.446-.019c.083-.009.147.066.147.151a.147.147 0 01-.147.151l-4.446.019zm8.886-.038a.147.147 0 01-.147-.151c0-.084.064-.15.147-.15l4.445-.019c.079-.01.147.066.147.151 0 .084-.063.15-.147.15l-4.445.019zm8.886-.047a.147.147 0 01-.147-.151c0-.085.064-.151.147-.151l4.445-.018c.083 0 .147.066.147.15a.147.147 0 01-.147.151l-4.445.019zm8.89-.038a.146.146 0 01-.146-.15c0-.085.063-.151.146-.151l4.446-.019c.083 0 .147.066.147.151a.147.147 0 01-.147.151l-4.446.018zm8.886-.037a.147.147 0 01-.147-.151c0-.085.064-.151.147-.151l4.445-.019c.084 0 .147.066.147.151a.146.146 0 01-.147.151l-4.445.019zm8.886-.038a.147.147 0 01-.147-.151c0-.085.064-.151.147-.151l4.445-.019c.083 0 .147.066.147.151a.147.147 0 01-.147.151l-4.445.019zm8.89-.038a.147.147 0 01-.147-.151c0-.084.064-.15.147-.15l4.446-.019c.083 0 .146.066.146.151 0 .084-.063.15-.146.15l-4.446.019zm8.886-.047a.147.147 0 01-.147-.151c0-.085.064-.151.147-.151l4.445-.018c.084 0 .147.066.147.15a.146.146 0 01-.147.151l-4.445.019zm8.886-.038a.146.146 0 01-.147-.15c0-.085.063-.151.147-.151l4.445-.019c.083 0 .147.066.147.151a.147.147 0 01-.147.151l-4.445.018c.005 0 .005 0 0 0zm8.89-.037a.147.147 0 01-.147-.151c0-.085.064-.151.147-.151l4.446-.019c.083-.009.146.066.146.151a.146.146 0 01-.146.151l-4.446.019zm8.886-.038a.147.147 0 01-.147-.151c0-.085.064-.151.147-.151l4.445-.019c.083 0 .147.066.147.151a.147.147 0 01-.147.151l-4.445.019zm8.891-.047a.146.146 0 01-.147-.151c0-.085.063-.151.147-.151l4.445-.019c.083 0 .147.066.147.151a.147.147 0 01-.147.151l-4.445.019zm8.885-.038a.147.147 0 01-.147-.151c0-.085.064-.151.147-.151l4.445-.018c.084 0 .147.066.147.15a.146.146 0 01-.147.151l-4.445.019zm8.886-.038a.147.147 0 01-.147-.15c0-.085.064-.151.147-.151l2.839-.01.03-1.31c0-.085.073-.151.151-.142.084 0 .147.066.147.151l-.029 1.452a.148.148 0 01-.147.142l-2.991.018zm3.114-5.882a.143.143 0 01-.147-.151l.093-4.422c0-.085.068-.141.147-.141.083 0 .151.066.146.151l-.093 4.421a.15.15 0 01-.146.142zm108.292-.887a.147.147 0 01-.147-.151l-.014-4.421a.146.146 0 11.293 0l.015 4.421a.15.15 0 01-.147.151zm-108.106-7.957a.143.143 0 01-.147-.151l.093-4.421c0-.085.068-.141.147-.141.083 0 .151.066.146.15l-.093 4.422a.144.144 0 01-.146.141zm108.082-.886a.146.146 0 01-.147-.151l-.015-4.421a.147.147 0 11.294 0l.015 4.421a.15.15 0 01-.147.151zm-107.892-7.957a.143.143 0 01-.146-.15l.093-4.422c0-.085.073-.151.151-.142.084 0 .147.066.147.151l-.093 4.422a.152.152 0 01-.152.141zm107.867-.886a.147.147 0 01-.147-.15l-.014-4.422c0-.085.063-.151.147-.151.088 0 .146.066.146.15l.015 4.422a.15.15 0 01-.147.15zm-107.676-7.957a.143.143 0 01-.146-.15l.093-4.422c0-.085.063-.142.151-.142.084 0 .147.066.147.151l-.093 4.422a.156.156 0 01-.152.141zm107.652-.886a.147.147 0 01-.147-.151l-.015-4.422a.147.147 0 11.294 0l.015 4.422a.15.15 0 01-.147.15zM365.02 77.54a.144.144 0 01-.147-.151l.094-4.422c0-.085.068-.141.146-.141.084 0 .152.066.147.15l-.093 4.422a.148.148 0 01-.147.142zm107.436-.896a.147.147 0 01-.147-.15l-.014-4.422a.146.146 0 11.293 0l.015 4.421a.15.15 0 01-.147.151zm-3.05-5.826h-4.445a.147.147 0 01-.147-.151.15.15 0 01.147-.15h4.445c.083 0 .147.065.147.15a.15.15 0 01-.147.15zm-8.89-.01h-4.446a.147.147 0 01-.147-.15.15.15 0 01.147-.151h4.446c.083 0 .147.066.147.15a.147.147 0 01-.147.151zm-8.886-.009h-4.445a.146.146 0 01-.147-.15.15.15 0 01.147-.152h4.445c.083 0 .147.066.147.151a.147.147 0 01-.147.151zm-8.891-.01h-4.445a.147.147 0 01-.147-.15.15.15 0 01.147-.151h4.445c.084 0 .147.066.147.15a.143.143 0 01-.147.152zm-8.885 0h-4.446a.146.146 0 01-.146-.15.15.15 0 01.146-.151h4.446c.083 0 .147.066.147.15a.147.147 0 01-.147.152zm-8.886-.009h-4.445a.147.147 0 01-.147-.15.15.15 0 01.147-.151h4.445c.083 0 .147.065.147.15a.15.15 0 01-.147.151zm-8.89-.01h-4.446a.147.147 0 01-.147-.15.15.15 0 01.147-.151h4.446c.083 0 .146.066.146.15a.143.143 0 01-.146.152zm-8.886-.009h-4.445a.146.146 0 01-.147-.15.15.15 0 01.147-.151h4.445c.083 0 .147.066.147.15a.147.147 0 01-.147.151zm-8.886-.01h-4.445a.147.147 0 01-.147-.15.15.15 0 01.147-.15h4.445c.083 0 .147.065.147.15a.15.15 0 01-.147.15zm-8.89-.009h-4.446a.147.147 0 01-.147-.15.15.15 0 01.147-.151h4.446c.083 0 .146.066.146.15a.146.146 0 01-.146.151zm-8.886-.009h-4.445a.146.146 0 01-.147-.15.15.15 0 01.147-.152h4.445c.083 0 .147.066.147.151a.147.147 0 01-.147.151zm-8.886-.01h-4.445a.147.147 0 01-.147-.15.15.15 0 01.147-.151h4.445c.083 0 .147.066.147.15a.15.15 0 01-.147.152z" fill="#2D292A"/><path d="M515.627 99.502H392.902v235.193h122.725V99.502z" fill="#fff"/><path d="M515.63 334.846H392.905a.146.146 0 01-.147-.151V99.502a.15.15 0 01.147-.15H515.63c.083 0 .146.066.146.15v235.193a.15.15 0 01-.146.151zm-122.578-.302h122.431V99.654H393.052v234.89z" fill="#312C2E"/><path d="M515.63 118.396l-122.725-.094a.146.146 0 01-.147-.151.15.15 0 01.147-.151l122.725.094c.083 0 .146.066.146.151a.146.146 0 01-.146.151z" fill="#312C2E"/><path d="M437.404 132.404H417.5v33.767h19.904v-33.767z" fill="#F3B63F"/><path d="M449.028 136.529l-43.167-.066a.149.149 0 01-.15-.145c0-.078.068-.144.15-.144l43.167.066c.082 0 .15.065.15.144a.149.149 0 01-.15.145z" fill="#2D292A"/><path d="M443.971 146.251l-33.055-.013a.148.148 0 01-.15-.144c0-.079.068-.145.15-.145l33.055.013c.082 0 .15.066.15.145a.148.148 0 01-.15.144zm0 5.798l-33.055-.014a.148.148 0 01-.15-.144c0-.079.068-.145.15-.145l33.055.013c.082 0 .15.066.15.145a.149.149 0 01-.15.145zm0 5.521l-33.055-.013a.149.149 0 01-.15-.145c0-.079.068-.144.15-.144l33.055.013c.082 0 .15.065.15.144a.149.149 0 01-.15.145z" fill="#fff"/><path d="M495.711 131.877l-19.781.197.092 34.164 19.781-.197-.092-34.164z" fill="#3E54D8"/><path d="M464.279 137.152a.149.149 0 01-.15-.145c0-.079.068-.146.15-.147l43.034-.15a.15.15 0 01.151.145.15.15 0 01-.15.147l-43.035.15z" fill="#2D292A"/><path d="M469.369 146.067a.148.148 0 01-.15-.145c0-.08.068-.147.15-.148l32.953-.154c.082 0 .15.065.15.145 0 .08-.068.147-.149.148l-32.954.154zm.028 5.845a.149.149 0 01-.151-.145.15.15 0 01.15-.147l32.953-.154a.148.148 0 01.15.145.15.15 0 01-.149.147l-32.953.154zm.031 5.539a.148.148 0 01-.15-.145.15.15 0 01.149-.147l32.953-.154a.149.149 0 01.151.144.15.15 0 01-.15.148l-32.953.154zm72.129 21.27H437.91v48.551h103.647v-48.551z" fill="#fff"/><path d="M541.558 227.417H437.911a.147.147 0 01-.149-.145v-48.551c0-.079.066-.145.149-.145h103.647c.082 0 .149.066.149.145v48.551a.148.148 0 01-.149.145zm-103.498-.296h103.352v-48.256H438.06v48.256z" fill="#292526"/><path d="M462.46 210.204c2.064-.058 3.713-3.328 3.683-7.303-.031-3.974-1.728-7.149-3.792-7.091-2.065.059-3.713 3.328-3.683 7.303.031 3.975 1.728 7.15 3.792 7.091z" fill="#7C98F4"/><path fill-rule="evenodd" clip-rule="evenodd" d="M538.878 192.215a2.346 2.346 0 00-2.355-2.34h-46.145a2.35 2.35 0 00-2.355 2.34 2.346 2.346 0 002.355 2.34h46.145a2.35 2.35 0 002.355-2.34zm0 11.248a2.346 2.346 0 00-2.355-2.34h-46.145a2.35 2.35 0 00-2.355 2.34 2.345 2.345 0 002.355 2.34h46.145a2.345 2.345 0 002.355-2.34zm0 11.246a2.346 2.346 0 00-2.355-2.34h-46.145a2.35 2.35 0 00-2.355 2.34 2.345 2.345 0 002.355 2.34h46.145a2.34 2.34 0 002.355-2.34z" fill="#F0F0F2"/><path fill-rule="evenodd" clip-rule="evenodd" d="M404.645 237.803l57.301-.148.367 36.823-57.29.123-.378-36.798z" fill="#fff"/><path d="M405.009 274.753a.153.153 0 01-.151-.15l-.365-36.798c0-.05.012-.075.037-.101.025-.025.062-.05.099-.05l57.29-.15c.087 0 .15.075.15.151l.366 36.798c0 .05-.012.075-.037.1-.025.026-.062.051-.1.051l-57.289.149c.012 0 0 0 0 0zm-.216-36.798l.364 36.521 57.002-.148-.364-36.521-57.002.148z" fill="#2D292A"/><path fill-rule="evenodd" clip-rule="evenodd" d="M404.934 237.998l28.989 17.15 27.727-17.178-56.716.028z" fill="#fff"/><path d="M433.925 255.31c-.027 0-.055 0-.082-.027l-28.99-17.149c-.069-.053-.097-.134-.056-.215.041-.081.137-.081.206-.054l28.92 17.095 27.659-17.124c.068-.054.164-.027.206.053.041.08.028.161-.054.215l-27.727 17.178c-.027.027-.055.028-.082.028z" fill="#2D292A"/><path fill-rule="evenodd" clip-rule="evenodd" d="M508.291 242.67a3.016 3.016 0 00-3.026-3.01h-30.09a3.02 3.02 0 00-3.027 3.01 3.02 3.02 0 003.027 3.009h30.09a3.016 3.016 0 003.026-3.009zm0 14.464a3.015 3.015 0 00-3.026-3.009h-30.09a3.02 3.02 0 00-3.027 3.009 3.02 3.02 0 003.027 3.01h30.09a3.011 3.011 0 003.026-3.01zm0 14.469a3.015 3.015 0 00-3.026-3.009h-30.09a3.02 3.02 0 00-3.027 3.009 3.014 3.014 0 003.027 3.009h30.09a3.02 3.02 0 003.026-3.009z" fill="#F0F0F2"/><path d="M420.577 315.295c1.483 0 2.686-2.316 2.686-5.173s-1.203-5.173-2.686-5.173c-1.484 0-2.686 2.316-2.686 5.173s1.202 5.173 2.686 5.173z" fill="#fff"/><path fill-rule="evenodd" clip-rule="evenodd" d="M423.243 306.838l-13.095 16.478 8.671 8.675 16.748-12.842.048-13.577-12.372 1.266z" fill="#3E54D8"/><path fill-rule="evenodd" clip-rule="evenodd" d="M420.578 292.43v17.691h18.044l-1.303-13.189-16.741-4.502z" fill="#F3B63F"/><path d="M420.58 323.46c-7.393 0-13.404-5.982-13.404-13.339 0-7.358 6.014-13.34 13.404-13.34 7.389 0 13.404 5.982 13.404 13.34 0 7.357-6.012 13.339-13.404 13.339zm0-26.384c-7.227 0-13.11 5.855-13.11 13.045 0 7.19 5.88 13.044 13.11 13.044 7.23 0 13.109-5.854 13.109-13.044s-5.882-13.045-13.109-13.045z" fill="#2D292A"/><path d="M457.807 315.295c1.484 0 2.686-2.316 2.686-5.173s-1.202-5.173-2.686-5.173c-1.483 0-2.686 2.316-2.686 5.173s1.203 5.173 2.686 5.173z" fill="#fff"/><path fill-rule="evenodd" clip-rule="evenodd" d="M457.805 292.43v17.691l13.254-10.865-13.254-6.826z" fill="#F3B63F"/><path fill-rule="evenodd" clip-rule="evenodd" d="M457.807 310.121l-9.787 13.195s20.096 2.347 21.357 2.433c1.264.093 1.684-2.433 1.684-2.433l-13.254-13.195z" fill="#3E54D8"/><path d="M457.806 323.46c-7.392 0-13.404-5.982-13.404-13.339 0-7.358 6.015-13.34 13.404-13.34s13.404 5.982 13.404 13.34c.003 7.357-6.012 13.339-13.404 13.339zm0-26.384c-7.227 0-13.11 5.855-13.11 13.045 0 7.19 5.88 13.044 13.11 13.044 7.23 0 13.11-5.854 13.11-13.044s-5.883-13.045-13.11-13.045z" fill="#2D292A"/><path d="M495.038 315.295c1.483 0 2.686-2.316 2.686-5.173s-1.203-5.173-2.686-5.173c-1.484 0-2.686 2.316-2.686 5.173s1.202 5.173 2.686 5.173z" fill="#fff"/><path fill-rule="evenodd" clip-rule="evenodd" d="M495.035 292.43v17.691l5.67-16.165-5.67-1.526z" fill="#F3B63F"/><path fill-rule="evenodd" clip-rule="evenodd" d="M495.037 310.12l-9.787 13.195s20.097 2.347 21.357 2.433c1.264.093 3.782-25.586 3.782-25.586l-6.411-7.369-6.167 4.132-2.774 13.195z" fill="#3E54D8"/><path d="M495.037 323.46c-7.393 0-13.404-5.982-13.404-13.339 0-7.358 6.014-13.34 13.404-13.34 7.389 0 13.404 5.982 13.404 13.34 0 7.357-6.015 13.339-13.404 13.339zm0-26.384c-7.227 0-13.11 5.855-13.11 13.045 0 7.19 5.88 13.044 13.11 13.044 7.23 0 13.109-5.854 13.109-13.044s-5.882-13.045-13.109-13.045z" fill="#2D292A"/><path d="M407.323 292.565a.146.146 0 01-.147-.151c0-.085.063-.151.147-.151l100.968-.443c.084 0 .147.066.147.151a.146.146 0 01-.147.151l-100.968.443z" fill="#292526"/><path d="M76.256 333.388l134.736.016.002-95.539-134.736-.016-.002 95.539z" fill="#fff"/><path d="M210.995 333.536H76.259a.146.146 0 01-.15-.144v-95.539c0-.081.067-.144.15-.144h134.736c.083 0 .15.063.15.144v95.539a.151.151 0 01-.15.144zm-134.59-.288h134.441v-95.242H76.405v95.242z" fill="#2D292A"/><path d="M210.991 255.526H76.256a.146.146 0 01-.147-.15.15.15 0 01.147-.151h134.735c.083 0 .146.066.146.151a.143.143 0 01-.146.15z" fill="#2D292A"/><path d="M96.229 267.783H85.73v44.955h10.498v-44.955zm16.855 13.819h-10.498v31.136h10.498v-31.136zm16.852 13.039h-10.498v18.098h10.498v-18.098zm16.851 9.048h-10.498v9.05h10.498v-9.05z" fill="#3E54D8"/><path d="M179.618 304.667c4.208 0 7.619-6.568 7.619-14.67 0-8.103-3.411-14.671-7.619-14.671-4.207 0-7.618 6.568-7.618 14.671 0 8.102 3.411 14.67 7.618 14.67z" fill="#fff"/><path fill-rule="evenodd" clip-rule="evenodd" d="M179.613 260.199v29.799l22.329-22.215h5.869l-28.198-7.584z" fill="#F3B63F"/><path fill-rule="evenodd" clip-rule="evenodd" d="M179.613 289.998l25.499 14.593 2.017-33.06-5.187-3.748-22.329 22.215z" fill="#3E54D8"/><path d="M179.62 312.369c-12.395 0-22.475-10.037-22.475-22.371 0-12.334 10.085-22.371 22.475-22.371 12.396 0 22.476 10.037 22.476 22.371.005 12.334-10.08 22.371-22.476 22.371zm0-44.44c-12.228 0-22.182 9.9-22.182 22.069 0 12.169 9.948 22.069 22.182 22.069 12.229 0 22.182-9.9 22.182-22.069 0-12.169-9.948-22.069-22.182-22.069z" fill="#2D292A"/><path d="M210.994 112.068H76.258v72.305h134.736v-72.305z" fill="#fff"/><path d="M210.995 184.522H76.259a.15.15 0 01-.15-.15v-72.304a.15.15 0 01.15-.15h134.736a.15.15 0 01.15.15v72.304a.156.156 0 01-.15.15zm-134.59-.3h134.441v-72.004H76.405v72.004z" fill="#2D292A"/><path d="M210.99 129.739H76.256a.147.147 0 01-.147-.151.15.15 0 01.147-.15H210.99c.084 0 .147.066.147.15a.146.146 0 01-.147.151z" fill="#2D292A"/><path fill-rule="evenodd" clip-rule="evenodd" d="M196.537 142.011c0-1.46-1.19-2.638-2.656-2.638h-58.034a2.65 2.65 0 00-2.656 2.638 2.65 2.65 0 002.656 2.639h58.034a2.646 2.646 0 002.656-2.639zm0 12.68c0-1.46-1.19-2.638-2.656-2.638h-58.034a2.65 2.65 0 00-2.656 2.638c0 1.46 1.19 2.638 2.656 2.638h58.034a2.641 2.641 0 002.656-2.638zm0 12.688a2.646 2.646 0 00-2.656-2.639h-58.034a2.65 2.65 0 00-2.656 2.639c0 1.46 1.19 2.638 2.656 2.638h58.034a2.65 2.65 0 002.656-2.638z" fill="#F0F0F2"/><path d="M101.589 148.992H70.973v51.946h30.616v-51.946z" fill="#F3B63F"/><path d="M113.047 159.098l-53.544-.082a.142.142 0 01-.144-.147c0-.081.068-.146.144-.146l53.544.081c.084 0 .144.065.144.147.008.081-.06.147-.144.147z" fill="#2D292A"/><path d="M106.781 171.156l-41-.017a.142.142 0 01-.144-.146c0-.082.067-.147.144-.147l41 .016c.085 0 .144.065.144.147a.148.148 0 01-.144.147zm0 7.189l-41-.016a.142.142 0 01-.144-.147c0-.082.067-.147.144-.147l41 .017c.085 0 .144.065.144.146a.147.147 0 01-.144.147zm0 6.85l-41-.016a.142.142 0 01-.144-.147c0-.082.067-.147.144-.147l41 .016c.085 0 .144.065.144.147a.148.148 0 01-.144.147zm312.137-46.111H184.516v125.789h234.402V139.084z" fill="#fff"/><path d="M418.92 265.015H184.518c-.082 0-.151-.071-.151-.142V139.084c0-.083.069-.143.151-.143H418.92c.082 0 .151.072.151.143v125.789c0 .071-.069.142-.151.142zm-234.251-.297h234.107V139.226H184.669v125.492z" fill="#2D292A"/><path d="M419 157.381H184.602a.142.142 0 01-.145-.147c0-.082.068-.148.145-.148H419c.086 0 .145.066.145.148a.147.147 0 01-.145.147z" fill="#2D292A"/><path fill-rule="evenodd" clip-rule="evenodd" d="M243.548 195.277c-.114-9.444-7.839-17.037-17.321-17.037h-58.874c-9.57 0-17.322 7.714-17.322 17.245v10.974c0 4.584 1.829 8.977 5.096 12.212a17.358 17.358 0 0012.281 5.033c16.815-.052 42.155-.138 59.004-.19a17.33 17.33 0 0012.286-5.146 17.214 17.214 0 004.981-12.306c-.044-3.546-.087-7.265-.131-10.785z" fill="#3E54D8"/><path d="M167.346 223.844a17.62 17.62 0 01-12.324-5.077 17.193 17.193 0 01-5.139-12.315v-10.975c0-9.59 7.839-17.391 17.474-17.391h58.873c4.628 0 8.988 1.781 12.281 5.016a17.235 17.235 0 015.194 12.159c.038 3.52.087 7.248.13 10.785a17.48 17.48 0 01-5.024 12.418c-3.245 3.287-7.763 5.172-12.395 5.189l-59.005.191h-.065zm.006-45.455c-9.472 0-17.175 7.671-17.175 17.088v10.975c0 4.584 1.796 8.882 5.051 12.108a17.308 17.308 0 0012.178 4.99l59.004-.191a17.294 17.294 0 0012.183-5.093 17.2 17.2 0 004.943-12.203c-.044-3.537-.093-7.256-.131-10.784-.109-9.314-7.817-16.89-17.175-16.89h-58.878z" fill="#292526"/><path d="M193.031 211.935l-33.438-.052a.143.143 0 01-.146-.147l-.122-21.474c0-.044.014-.073.043-.102a.141.141 0 01.102-.044l33.437.052c.08 0 .146.059.146.147l.123 21.474a.132.132 0 01-.043.102c-.022.03-.059.044-.102.044zm-33.285-.359l33.138.05-.122-21.18-33.138-.051.122 21.181z" fill="#fff"/><path d="M176.512 200.593c-.024 0-.056 0-.08-.016l-16.878-10.08c-.072-.048-.096-.126-.048-.205.04-.062.136-.093.2-.046l16.798 10.033 16.145-9.909c.072-.047.16-.015.2.048a.15.15 0 01-.047.204l-16.226 9.955c-.007.016-.04.016-.064.016z" fill="#fff"/><path fill-rule="evenodd" clip-rule="evenodd" d="M236.249 191.893c0-.842-.683-1.526-1.531-1.526h-33.804c-.848 0-1.531.684-1.531 1.526 0 .841.683 1.525 1.531 1.525h33.804a1.516 1.516 0 001.531-1.525zm-13.997 6.123a1.53 1.53 0 00-1.534-1.526h-19.804a1.53 1.53 0 00-1.531 1.526 1.53 1.53 0 001.531 1.525h19.804c.85 0 1.534-.675 1.534-1.525zm9.975 6.123a1.53 1.53 0 00-1.534-1.526h-29.78c-.846 0-1.53.684-1.53 1.526 0 .841.684 1.525 1.53 1.525h29.78a1.53 1.53 0 001.534-1.525zm0 6.122a1.53 1.53 0 00-1.534-1.525h-29.78c-.846 0-1.53.684-1.53 1.525 0 .842.684 1.526 1.53 1.526h29.78a1.53 1.53 0 001.534-1.526z" fill="#fff" fill-opacity=".62"/><path d="M414.625 207.305H291.648v46.135h122.977v-46.135z" fill="#fff"/><path d="M414.623 253.58H291.647a.155.155 0 01-.151-.149v-46.136c0-.078.065-.149.151-.149h122.976c.079 0 .151.071.151.149v46.136a.15.15 0 01-.151.149zm-122.833-.289h122.683v-45.838H291.79v45.838z" fill="#292526"/><path d="M299.034 245.672a.137.137 0 01-.1-.035.15.15 0 01-.009-.21c.036-.035 3.464-3.822 8.007-7.565 6.114-5.041 11.221-7.609 15.177-7.644 4.128-.035 8.312 2.744 12.741 5.698 5.786 3.848 11.772 7.836 18.236 5.934 6.154-1.814 9.509-6.969 12.754-11.956 2.709-4.164 5.263-8.091 9.187-9.257 7.401-2.201 11.507.745 15.131 3.34 2.408 1.727 4.679 3.357 7.674 3.436h.264c6.897 0 11.485-7.153 11.531-7.223a.147.147 0 01.205-.044.143.143 0 01.045.201c-.045.071-4.72 7.364-11.781 7.364h-.273c-3.081-.088-5.394-1.736-7.838-3.489-3.742-2.682-7.616-5.461-14.877-3.296-3.819 1.14-6.345 5.023-9.022 9.134-3.122 4.804-6.659 10.239-12.919 12.08-1.183.35-2.348.508-3.495.508-5.263 0-10.193-3.278-14.99-6.478-4.389-2.919-8.536-5.689-12.573-5.645-9.282.087-22.829 14.954-22.965 15.112a.214.214 0 01-.11.035z" fill="#2D292A"/><path d="M414.62 216.286H291.643a.155.155 0 01-.151-.149c0-.078.065-.149.151-.149H414.62c.078 0 .15.071.15.149a.149.149 0 01-.15.149z" fill="#292526"/><path d="M356.803 377.538l-19.576 3.775-11.057-67.58 24.746.053 5.887 63.752z" fill="#FFB693"/><path fill-rule="evenodd" clip-rule="evenodd" d="M356.805 360.223l-.001 3.729-24.721-1.401 24.722-2.328z" fill="#2D292A"/><path d="M357.995 389.842l-1.31-15.888c-.909-.663-5.591-4.777-10.421-4.536-4.212.216-8.629 4.751-9.53 4.803v.129l.14 16.275 21.121-.783z" fill="#fff"/><path d="M336.876 390.781a.158.158 0 01-.102-.043.147.147 0 01-.045-.103l-.139-16.413c0-.078.061-.146.139-.146.237-.018.917-.508 1.699-1.085 1.952-1.42 4.899-3.58 7.83-3.726 4.396-.224 8.715 3.158 10.131 4.268.164.129.291.233.385.293.033.026.057.06.061.103l1.31 15.888a.143.143 0 01-.037.112c-.028.026-.065.052-.106.052l-21.122.791c0 .009 0 .009-.004.009zm.009-16.43v.009l.139 16.12 20.814-.784-1.293-15.663c-.086-.069-.201-.155-.336-.259-1.396-1.093-5.649-4.423-9.934-4.208-2.841.146-5.747 2.263-7.671 3.666-.872.646-1.392 1.016-1.719 1.119z" fill="#292526"/><path d="M337.917 391.525h-.019a.149.149 0 01-.127-.167c.004-.026.324-2.488 1.661-4.932 1.242-2.268 3.63-4.994 7.976-5.073 3.383-.061 6.241 1.627 8.254 4.88 1.511 2.444 2.027 4.949 2.032 4.967a.151.151 0 01-.114.176.147.147 0 01-.174-.115c-.004-.026-.511-2.479-1.999-4.879-1.982-3.2-4.671-4.8-7.994-4.739-3.37.062-5.967 1.715-7.716 4.906-1.315 2.4-1.63 4.818-1.634 4.835-.009.088-.073.141-.146.141z" fill="#292526"/><path fill-rule="evenodd" clip-rule="evenodd" d="M342.262 374.274c-.351-4.489 2.284-7.154 5.061-6.949 2.776.198 4.575 3.443 4.557 7.797-.02 4.602-9.159 5.026-9.618-.848z" fill="#5E81F2"/><path d="M347.38 378.777c-2.411 0-5.023-1.379-5.266-4.489-.186-2.389.443-4.432 1.776-5.768.956-.954 2.179-1.435 3.445-1.343 2.828.205 4.714 3.393 4.694 7.945-.011 2.397-2.3 3.577-4.422 3.655-.077-.007-.153 0-.227 0zm-.351-11.317c-1.077 0-2.109.445-2.93 1.265-1.27 1.273-1.87 3.238-1.69 5.535.234 3.018 2.85 4.298 5.186 4.213 1.986-.071 4.126-1.152 4.137-3.358.02-4.382-1.756-7.457-4.42-7.648-.094-.007-.189-.007-.283-.007zm-9.432 20.763l-.749-.008c.061.017.02 1.609.02 1.721.004.456.008.921.008 1.377.017 1.205.054 2.333 1.183 2.918.872.456 2.178.551 2.919-.241.348-.37.7-.938 1.224-.947.524-.009.777.31 1.105.706.356.439.765.938 1.564.929.81-.008 1.207-.516 1.551-.964.319-.404.569-.723 1.093-.731.524-.009.786.31 1.105.706.356.439.765.938 1.568.929.802-.009 1.199-.516 1.551-.964.319-.404.565-.723 1.093-.731.524-.009.778.309 1.105.705.356.439.757.938 1.568.93.802-.009 1.199-.517 1.547-.964.319-.405.569-.723 1.093-.732l-.155-4.578-20.393-.061z" fill="#292526"/><path d="M362.415 389.479l-25.799.138a.16.16 0 01-.157-.165c.002-.086.074-.183.161-.168l25.8-.139a.162.162 0 01.157.165c-.002.086-.07.17-.162.169z" fill="#fff"/><path d="M340.583 218.406l7.78 72.91 10.103 69.598-29.337 2.408-6.456-66.093-11.675-79.087 29.585.264z" fill="#7C98F4"/><path fill-rule="evenodd" clip-rule="evenodd" d="M319.101 248.189l3.817 53.063-14.688-36.61 10.871-16.453z" fill="#2D292A"/><path d="M278.682 378.178l19.575 3.776 11.047-67.583-24.746.054-5.876 63.753z" fill="#FFB693"/><path fill-rule="evenodd" clip-rule="evenodd" d="M303.071 363.225l-26.731-2.7 26.609 8.772.122-6.072z" fill="#2D292A"/><path d="M261.225 381.734c1.186-.847 2.521-1.487 3.951-1.961 3.049-.974 7.642-2.373 9.323-2.989 1.127-.409 2.07-2.52 2.662-3.462l1.616-3.286.026-.007c1.983-1.45 4.851-1.431 6.833.028l2.121 1.948c1.372 1.268 3.633 1.33 5.086.17 1.65-1.344 6.17-1.989 8.418-1.879l.003.144-.152 18.966s-2.327.088-5.887.2c-11.404.363-35.436 1.008-35.953-.053-.452-.945-.208-2.322-.037-3.301.244-1.556.628-3.337 1.99-4.518z" fill="#fff"/><path d="M291.615 390.569h-.026c-.08-.02-.133-.092-.117-.174.005-.02.509-2.485 2.103-5.338 1.472-2.638 4.21-6.175 8.861-8.031a.151.151 0 01.192.082.152.152 0 01-.08.195c-8.751 3.488-10.768 13.062-10.784 13.154a.159.159 0 01-.149.112z" fill="#292526"/><path fill-rule="evenodd" clip-rule="evenodd" d="M301.199 379.169s-4.686-8.521-.883-10.078c2.532-1.045.883 10.078.883 10.078z" fill="#5E81F2"/><path d="M301.197 379.325a.154.154 0 01-.127-.072c-.133-.235-3.218-5.9-2.176-8.829.245-.696.708-1.188 1.367-1.454.394-.164.67-.041.83.082 1.564 1.218.309 9.791.255 10.16a.148.148 0 01-.122.123c-.011-.01-.021-.01-.027-.01zm-.569-10.151a.662.662 0 00-.26.062c-.58.235-.984.666-1.202 1.28-.841 2.376 1.255 6.822 1.946 8.184.367-2.704.91-8.563-.207-9.433a.458.458 0 00-.277-.093zm-42.888 21.858c0-.178-.006-.378.004-.57.005-1.193.026-2.38.031-3.574l.477-.01 41.995-.279.875.001c-.069.006-.02 1.866-.026 2.024-.001.535-.012 1.084-.013 1.619-.008 1.407-.059 2.724-1.372 3.391-1.019.526-2.533.643-3.402-.285-.408-.442-.811-1.098-1.431-1.097-.61-.012-.917.356-1.293.819-.415.518-.896 1.097-1.829 1.088-.933-.008-1.402-.603-1.809-1.135-.372-.463-.658-.836-1.268-.848-.61-.013-.918.355-1.293.818-.416.518-.886 1.083-1.829 1.089-.933-.009-1.402-.603-1.809-1.135-.372-.463-.658-.836-1.268-.849-.61-.012-.918.356-1.294.819-.415.518-.885 1.083-1.828 1.088-.934-.008-1.402-.603-1.81-1.135-.371-.463-.657-.836-1.267-.848-.611-.013-.918.355-1.294.818-.415.518-.886 1.083-1.829 1.089-.933-.009-1.402-.603-1.809-1.135-.371-.463-.657-.836-1.268-.849-.61-.012-.917.356-1.293.819-.415.518-.896 1.096-1.829 1.088-.933-.008-1.402-.603-1.809-1.135-.371-.463-.658-.836-1.268-.848-.61-.013-.917.355-1.293.818-.634.763-1.369 1.161-2.344 1.063a2.783 2.783 0 01-2.505-2.719z" fill="#292526"/><path d="M273.136 376.338s3.688-7.472 4.787-10.829c1.099-3.356 6.68-3.084 5.27 2.704-1.411 5.788-4.061 9.568-6.553 9.612-2.499.025-3.504-1.487-3.504-1.487z" fill="#5E81F2"/><path d="M276.535 377.953c-2.48-.004-3.478-1.497-3.525-1.547a.127.127 0 01-.006-.143c.03-.079 3.699-7.522 4.777-10.814.598-1.831 2.429-2.539 3.782-2.157 1.352.381 2.517 1.89 1.767 4.947-1.41 5.788-4.103 9.696-6.703 9.725-.026.01-.059 0-.092-.011zm-3.223-1.648c.223.299 1.24 1.39 3.32 1.342 2.466-.035 5.034-3.839 6.418-9.494.703-2.86-.345-4.244-1.565-4.585-1.221-.341-2.871.299-3.417 1.987-1.033 3.129-4.355 9.937-4.756 10.75z" fill="#292526"/><path d="M257.934 388.455l43.343-.165a.275.275 0 00.265-.279c.006-.158-.124-.303-.271-.277l-43.34.13c-.143-.008-.267.135-.264.279-.001.179.123.303.267.312z" fill="#fff"/><path d="M273.183 364.384c.483.011.907.193 1.268.58 1.495 1.571 1.577 5.819 1.548 7.52-1.579-2.018-4.436-6.084-3.903-7.568.115-.308.386-.477.849-.528.085.001.17.002.238-.004zm3.056 9.131c.026-.007.058.007.094-.013a.313.313 0 00.177-.245c.017-.261.369-6.535-1.68-8.701-.531-.567-1.186-.813-1.923-.737-.669.069-1.113.36-1.299.887-.813 2.256 3.904 8.068 4.445 8.711a.196.196 0 00.186.098zm6.585-6.597a1.8 1.8 0 01.867.248c.411.23.613.514.606.85-.029 1.613-4.089 4.171-6.251 5.366.571-1.594 2.127-5.479 4.06-6.326.238-.094.473-.154.718-.138zm-5.278 7.338c.042 0 .078-.02.121-.02.725-.384 7.116-3.779 7.155-6.209.004-.569-.292-1.018-.885-1.38-.659-.39-1.344-.417-2.043-.128-2.658 1.143-4.523 7.09-4.599 7.343a.294.294 0 00.081.303c.052.076.111.084.17.091z" fill="#292526"/><path fill-rule="evenodd" clip-rule="evenodd" d="M293.427 225.353L274.99 361.512l30.746 2.716 4.412-65.191s4.799-31.059 8.287-37.164c4.847-8.477 5.302-13.11 5.302-13.11l-1.425-28.037-28.885 4.627z" fill="#7C98F4"/><path d="M306.504 253.637c-3.08.001-6.652-.731-7.927-2.021-2.178-2.205.291-12.436.4-12.872a.156.156 0 01.142-.116l13.312-.031a.148.148 0 01.148.124c.06.4 1.415 9.791-.479 13.147-.59 1.051-2.245 1.472-3.524 1.642-.636.089-1.341.123-2.072.127zm-7.267-14.715c-.269 1.138-2.392 10.518-.448 12.48 1.365 1.384 6.191 2.283 9.75 1.812 1.719-.23 2.892-.759 3.306-1.492 1.726-3.062.618-11.69.458-12.833l-13.066.033z" fill="#2D292A"/><path d="M307.005 242.147c-4.696.003-8.333-.513-8.382-.515a.148.148 0 01-.125-.17.147.147 0 01.168-.124c.068.009 6.971.979 14.047.229a.15.15 0 01.035.298 55.952 55.952 0 01-5.743.282zm24.871 11.151c-2.574-.004-5.228-.502-6.334-1.503-2.262-2.043-.664-12.438-.594-12.886a.144.144 0 01.133-.12l12.828-.991c.073-.005.14.04.157.118.087.396 2.106 9.677.541 13.16-.498 1.104-2.099 1.649-3.354 1.908-1.003.215-2.183.323-3.377.314zm-6.652-14.219c-.171 1.159-1.507 10.678.516 12.504 1.395 1.265 6.076 1.822 9.448 1.122 1.679-.349 2.797-.963 3.146-1.742 1.431-3.186-.293-11.712-.532-12.856l-12.578.972z" fill="#2D292A"/><path d="M327.971 241.934a46.467 46.467 0 01-3.15-.089.145.145 0 01-.137-.157.148.148 0 01.157-.136c.067.006 6.792.465 13.561-.797a.15.15 0 01.174.115.145.145 0 01-.119.17c-3.943.74-7.864.892-10.486.894z" fill="#2D292A"/><path d="M343.556 170.51l-.687 60.879-52.837 1.446c1.861-14.968 9.079-62.56 9.079-62.56l44.445.235z" fill="#DE4355"/><path d="M340.231 181.111c2.987-3.897 8.526-4.465 11.3-1.14l19.004 23.728c1.443 1.765 8.462 11.355 3.013 15.865-.914.748-5.354 5.779-11.05 1.107l-16.721-15.913-9.145-14.755c-2.135-2.367 1.416-6.034 3.599-8.892z" fill="#FFB693"/><path d="M349.902 209.416l4.446 5.201 10.164-19.248-14.61 14.047z" fill="#292526"/><path d="M349.833 212.455l15.021-17.313-16.43-21.12c-3.14-4.076-8.494-4.608-12.682-1.049-4.184 3.578-5.912 11.811-4.425 15.299 2.541 6.003 18.516 24.183 18.516 24.183z" fill="#DE4355"/><path d="M349.82 212.586a.267.267 0 01-.101-.033.146.146 0 01-.014-.209l14.96-17.214-14.799-18.936a.137.137 0 01.028-.201.158.158 0 01.209.029l14.872 19.033c.046.057.044.132-.004.192l-15.037 17.309c-.032.016-.073.038-.114.03z" fill="#2D292A"/><path d="M399.188 198.403l-4.796-2.481-4.575-7.659-20.199 13.5c-.68.534-2.96 2.161-4.708 3.401a7.221 7.221 0 00-2.888 4.534c-.531 2.812-.89 6.949.791 9.573a6.42 6.42 0 004.464 2.888 6.49 6.49 0 005.134-1.441c7.516-6.278 26.439-22.106 26.777-22.315z" fill="#FFB693"/><path d="M394.081 200.146s3.487-2.702 5.938-4.606c.834-.638 2.73-2.761 2.381-3.008-.491-.377-.697-.823-1.278-.143 0 0 1.179-1.112.46-2.429-.728-1.334-2.399-.156-2.399-.156s1.624-1.281.795-2.624c-.587-.943-1.905-1.172-2.577-.452 0 0 .592-3.481-1.184-2.559-2.359 1.241-8.661 5.27-8.661 5.27l6.525 10.707z" fill="#FFB693"/><path d="M395.883 200.495s2.072-1.392 3.068-2.056c3.324-2.218 8.39-6.873 6.996-12.122-.411-1.561-10.688 10.835-10.688 10.835l.624 3.343z" fill="#FFB693"/><path d="M401.945 191.943s7.117-7.302 3.927-9.52c-1.825-1.265-5.592 6.599-5.592 6.599l1.665 2.921zm-13.81 2.007s-4.905-.377-3.408-1.595c5.03-4.105 6.266-14.663 7.815-13.854 3.979 2.093-1.86 13.757-.625 15.143 1.23 1.415-3.782.306-3.782.306z" fill="#FFB693"/><path d="M392.361 187.305s3.823-4.792 4.333-5.879c.749-1.61 3.236-5.271 4.355-4.424 2.171 1.639-.287 4.279-1.11 5.95-.619 1.232-1.726 3.076-.9 3.48.815.399.16.269.16.269s-.695.48-1.175.302c-.48-.177-3.112 4.403-3.112 4.403l-2.551-4.101z" fill="#FFB693"/><path d="M397.846 189.132s-.417-1.477.323-2.728c.739-1.251 4.506-8.528 5.755-8.139 3.341 1.027-2.498 8.894-2.638 9.842-.131.977-2.079 3.412-2.079 3.412l-1.361-2.387z" fill="#FFB693"/><path d="M399.08 190.429l-.213-.199s2.076-2.188 2.845-2.986c.185-.192.347-.408.482-.637 3.438-5.723 2.251-7.406 2.241-7.423a.141.141 0 01.029-.202c.066-.045.155-.039.203.027.057.063 1.36 1.814-2.218 7.757-.147.242-.322.48-.519.686-.774.789-2.85 2.977-2.85 2.977zm1.844 2.785a.137.137 0 01-.114-.049c-.057-.063-.045-.153.016-.208.023-.025 2.227-1.983 3.044-3.25.114-.185.253-.376.418-.602.975-1.394 2.615-3.715 1.824-6.131a.155.155 0 01.093-.189.146.146 0 01.185.089c.834 2.551-.855 4.962-1.864 6.394-.159.235-.298.426-.41.6-.839 1.292-3.004 3.221-3.096 3.303a.13.13 0 01-.096.043z" fill="#292526"/><path d="M300.212 180.848c-2.988-3.896-8.527-4.464-11.3-1.139l-20.768 24.628c-1.443 1.765-10.24 15.511-2.905 19.968 1.267.766 7.009.776 12.696-3.905l16.721-15.913 9.145-14.756c2.141-2.341-1.398-6.015-3.589-8.883z" fill="#FFB693"/><path d="M290.535 209.166l-4.446 5.201-10.163-19.248 14.609 14.047z" fill="#292526"/><path d="M290.608 212.188l-15.021-17.313 16.43-21.121c3.14-4.076 8.495-4.607 12.683-1.048 4.183 3.577 5.912 11.811 4.425 15.298-2.546 6.022-18.517 24.184-18.517 24.184z" fill="#DE4355"/><path d="M247.867 185.61l5.293.571 7.568-3.978 11.552 22.148c.368.934 1.503 4.478 2.232 6.768a7.166 7.166 0 01.05 4.287c-.809 2.706-2.519 7.023-5.453 8.441a6.379 6.379 0 01-5.141.166 6.307 6.307 0 01-3.557-3.698c-3.286-9.144-12.346-34.333-12.544-34.705z" fill="#FFB693"/><path d="M251.431 189.945s-1.696-4.257-2.899-7.264c-.406-1.02-1.033-3.892-.608-3.911.597-.028.99-.307 1.157.609 0 0-.488-1.598.764-2.349 1.255-.732 2.139 1.206 2.139 1.206s-.785-1.992.564-2.689c.953-.48 2.195.06 2.426 1.048 0 0 1.159-3.315 2.227-1.522 1.44 2.383 4.915 9.353 4.915 9.353l-10.685 5.519z" fill="#FFB693"/><path d="M249.727 189.202s-1.12-2.361-1.654-3.471c-1.789-3.771-3.913-10.582-.23-14.287 1.095-1.085 4.003 15.252 4.003 15.252l-2.119 2.506z" fill="#FFB693"/><path d="M248.616 178.479s-2.612-10.255 1.159-10.336c2.168-.065 1.648 8.773 1.648 8.773l-2.807 1.563zm10.843 9.491s4.388 2.428 3.687.569c-2.36-6.32 1.625-16.066-.104-16.235-4.41-.459-4.966 12.82-6.668 13.315-1.732.488 3.085 2.351 3.085 2.351z" fill="#FFB693"/><path d="M259.025 179.913s-1.001-6.245-.916-7.466c.114-1.798-.253-6.327-1.622-6.227-2.643.177-1.798 3.836-1.871 5.702-.059 1.401.005 3.6-.889 3.486-.894-.113-.267.14-.267.14s.371.79.869.92c.488.124.574 5.502.574 5.502l4.122-2.057z" fill="#FFB693"/><path d="M253.452 178.389s1.054-1.025 1.021-2.501c-.034-1.476.196-9.809-1.064-10.179-3.358-.993-2.092 9.004-2.434 9.912-.342.908.158 4.094.158 4.094l2.319-1.326z" fill="#FFB693"/><path d="M251.781 178.821s-.759-3.109-1.021-4.188a4.148 4.148 0 01-.113-.798c-.245-7.128 1.716-7.901 1.799-7.923.077-.033.161.018.187.086.026.079-.012.164-.089.184-.032.009-1.839.815-1.608 7.637.008.245.041.496.1.74.262 1.079 1.021 4.188 1.021 4.188l-.276.074zm-2.835 1.355a.147.147 0 01-.142-.098c-.039-.126-.976-2.989-1.08-4.555-.014-.207-.04-.459-.067-.748-.182-1.793-.485-4.802 1.445-6.519a.155.155 0 01.212.005c.052.06.052.159-.012.213-1.821 1.614-1.525 4.526-1.35 6.271.027.289.054.542.067.76.097 1.544 1.055 4.463 1.061 4.486.026.08-.018.166-.095.187-.013-.009-.026-.006-.039-.002z" fill="#292526"/><path fill-rule="evenodd" clip-rule="evenodd" d="M302.228 195.416c1.384.458 34.028 1.309 44.605-3.33.353-.157-.495-3.676-1.776-6.947-1.553-3.935-2.608-5.352-2.608-5.352.096-.042 1.098 1.322 2.748 5.016 1.191 2.664 2.069 5.266 2.375 6.695.224 1.045 1.375.465 2.582-2.975.264-.764.395-1.81.348-3.001-.009-.284-1.212-3.708-2.925-6.273-1.68-2.519-1.039-1.814-2.102-3.193-.359-.474-.144-.461 1.911 2.455 1.78 2.525 3.586 6.984 3.62 6.605.112-1.417.043-3.163-.911-5.228-.631-1.367-2.176-4.623-3.557-6.299-3.315-4.031-8.16-16.278-10.118-19.237-7.674-11.65-7.351-17.469-20.542-15.745-13.501 1.785-22.602 53.81-13.65 56.809z" fill="#2D292A"/></g><defs><clipPath id="clip0"><path fill="#fff" d="M0 0h566v434H0z"/></clipPath></defs></svg>