<svg width="32" height="32" fill="none" xmlns="http://www.w3.org/2000/svg"><rect width="32" height="32" rx="4" fill="#fff"/><g opacity=".9"><path d="M11.624 16.156c.679.215 1.21.577 1.595 1.086.385.498.577 1.114.577 1.85 0 1.04-.407 1.844-1.222 2.41-.803.554-1.98.831-3.53.831H2.901v-11.88h5.804c1.448 0 2.557.277 3.326.832.78.554 1.171 1.307 1.171 2.257 0 .577-.141 1.092-.424 1.544a2.853 2.853 0 01-1.154 1.07zm-5.991-3.632v2.8h2.732c.68 0 1.194-.119 1.545-.356.35-.238.526-.589.526-1.053 0-.463-.175-.809-.526-1.035-.351-.237-.866-.356-1.545-.356H5.633zm3.208 7.739c.724 0 1.267-.12 1.629-.357.373-.237.56-.605.56-1.103 0-.984-.73-1.476-2.19-1.476H5.634v2.936H8.84z" fill="#3E54D8"/><path d="M26.519 22.333l-.017-7.128-3.496 5.872h-1.24l-3.478-5.719v6.975h-2.58v-11.88h2.274l4.447 7.383 4.378-7.383h2.258l.034 11.88h-2.58z" fill="#ED6373"/></g></svg>