<svg width="181" height="54" fill="none" xmlns="http://www.w3.org/2000/svg"><g clip-path="url(#clip0)"><path d="M0 7.125A7.125 7.125 0 017.125 0H173.14a7.125 7.125 0 017.125 7.125v39.188a7.125 7.125 0 01-7.125 7.125H7.125A7.125 7.125 0 010 46.313V7.125z" fill="#000"/><path fill-rule="evenodd" clip-rule="evenodd" d="M0 46.313V7.125A7.125 7.125 0 017.125 0H173.14a7.125 7.125 0 017.125 7.125v39.188a7.125 7.125 0 01-7.125 7.125H7.125A7.125 7.125 0 010 46.313zm1.069 0V7.125A6.056 6.056 0 017.125 1.07H173.14a6.057 6.057 0 016.057 6.056v39.188a6.057 6.057 0 01-6.057 6.057H7.125a6.056 6.056 0 01-6.056-6.057z" fill="#fff" fill-opacity=".3"/><path d="M91.338 29.032c-3.208 0-5.858 2.506-5.858 5.94 0 3.407 2.623 5.94 5.859 5.94 3.235 0 5.858-2.505 5.858-5.94 0-3.434-2.623-5.94-5.859-5.94zm0 9.517c-1.758 0-3.291-1.493-3.291-3.603 0-2.14 1.535-3.603 3.291-3.603 1.757 0 3.292 1.463 3.292 3.603 0 2.11-1.535 3.603-3.292 3.603zM78.59 29.032c-3.236 0-5.858 2.506-5.858 5.94 0 3.407 2.622 5.94 5.858 5.94 3.236 0 5.859-2.505 5.859-5.94 0-3.434-2.623-5.94-5.859-5.94zm0 9.517c-1.758 0-3.291-1.493-3.291-3.603 0-2.14 1.535-3.603 3.291-3.603 1.758 0 3.292 1.463 3.292 3.603 0 2.11-1.507 3.603-3.292 3.603zm-15.148-7.686v2.505h5.914c-.168 1.407-.641 2.449-1.34 3.153-.864.873-2.203 1.83-4.574 1.83-3.655 0-6.472-2.984-6.472-6.672 0-3.688 2.818-6.729 6.472-6.729 1.98 0 3.404.789 4.463 1.803l1.757-1.775c-1.479-1.435-3.459-2.533-6.22-2.533-4.995 0-9.18 4.138-9.18 9.178 0 5.04 4.185 9.178 9.18 9.178 2.706 0 4.715-.9 6.333-2.59 1.645-1.662 2.148-3.999 2.148-5.885 0-.59-.056-1.126-.14-1.577l-8.341.114zm61.988 1.942c-.475-1.323-1.98-3.773-4.994-3.773s-5.496 2.394-5.496 5.94c0 3.322 2.482 5.94 5.775 5.94 2.678 0 4.213-1.66 4.854-2.618l-1.98-1.351c-.67.986-1.563 1.633-2.874 1.633-1.311 0-2.231-.591-2.818-1.803l7.783-3.293-.25-.675zm-7.923 2c-.056-2.282 1.758-3.463 3.04-3.463 1.032 0 1.869.506 2.176 1.267l-5.216 2.195zm-6.333 5.714h2.567V23.12h-2.567v17.4zm-4.184-10.163h-.083c-.586-.705-1.673-1.324-3.069-1.324-2.93 0-5.58 2.619-5.58 5.94 0 3.322 2.678 5.913 5.58 5.913 1.394 0 2.482-.62 3.069-1.352h.083v.845c0 2.281-1.2 3.49-3.125 3.49-1.562 0-2.539-1.153-2.929-2.11l-2.231.957c.64 1.577 2.343 3.519 5.16 3.519 3.013 0 5.552-1.802 5.552-6.166v-10.67h-2.427v.958zm-2.929 8.193c-1.758 0-3.236-1.493-3.236-3.575s1.479-3.603 3.236-3.603c1.73 0 3.125 1.52 3.125 3.603-.001 2.054-1.396 3.575-3.125 3.575zm33.337-15.429h-6.137v17.4h2.567v-6.59h3.57c2.846 0 5.635-2.083 5.635-5.404 0-3.322-2.789-5.406-5.635-5.406zm.083 8.391h-3.627v-5.97h3.627c1.897 0 3.013 1.605 3.013 2.984-.027 1.352-1.114 2.986-3.013 2.986zm15.791-2.507c-1.841 0-3.766.817-4.547 2.675l2.26.958c.503-.958 1.395-1.267 2.344-1.267 1.339 0 2.678.816 2.706 2.251v.17c-.475-.282-1.45-.677-2.678-.677-2.455 0-4.939 1.38-4.939 3.914 0 2.337 2.01 3.829 4.241 3.829 1.73 0 2.678-.788 3.263-1.717h.084v1.351h2.482v-6.673c-.027-3.068-2.287-4.814-5.216-4.814zm-.306 9.517c-.837 0-2.01-.423-2.01-1.463 0-1.352 1.45-1.859 2.706-1.859 1.116 0 1.646.254 2.344.591-.196 1.605-1.563 2.731-3.04 2.731zm14.478-9.122l-2.929 7.517h-.084l-3.04-7.517h-2.761l4.574 10.53-2.595 5.884h2.678l7.002-16.414h-2.845zm-22.987 11.12h2.567V23.12h-2.567v17.4zM62.019 14.965v2.584h-1.067v-1.517h-4.908v1.517h-1.067v-2.584h.798c.266-.373.462-.908.588-1.606.127-.705.19-1.47.19-2.294V8.89h4.678v6.075h.788zm-1.905 0V9.957H57.66v1.297c0 .745-.06 1.437-.18 2.075-.113.638-.286 1.184-.518 1.636h3.152zm6.434 1.227c-.692 0-1.32-.163-1.885-.489a3.634 3.634 0 01-1.337-1.356 3.803 3.803 0 01-.479-1.886c0-.685.16-1.31.48-1.875a3.65 3.65 0 013.222-1.855c.69 0 1.316.166 1.875.498a3.64 3.64 0 011.336 1.357c.326.565.489 1.19.489 1.875s-.163 1.314-.489 1.886a3.56 3.56 0 01-1.327 1.356 3.706 3.706 0 01-1.885.489zm0-1.067a2.55 2.55 0 001.297-.34 2.47 2.47 0 00.928-.937 2.8 2.8 0 00.339-1.387c0-.518-.113-.977-.34-1.376a2.444 2.444 0 00-.927-.948 2.55 2.55 0 00-1.297-.34 2.55 2.55 0 00-1.297.34 2.516 2.516 0 00-.937.948c-.226.399-.34.857-.34 1.376 0 .519.114.981.34 1.387a2.55 2.55 0 002.234 1.277zm8.252 1.067a3.76 3.76 0 01-1.895-.489 3.539 3.539 0 01-1.347-1.346 3.76 3.76 0 01-.489-1.896c0-.691.163-1.323.489-1.895a3.54 3.54 0 011.346-1.347A3.761 3.761 0 0174.8 8.73c.538 0 1.027.1 1.466.3.446.2.838.489 1.177.868l-.798.768a2.399 2.399 0 00-.818-.649 2.31 2.31 0 00-1.027-.22c-.479 0-.918.11-1.317.33a2.45 2.45 0 00-.938.938c-.232.399-.349.864-.349 1.396 0 .532.117 1.001.35 1.407.232.399.545.708.937.927.4.22.838.33 1.317.33.798 0 1.476-.333 2.035-.998l.808.778a3.636 3.636 0 01-1.247.948 3.733 3.733 0 01-1.596.339zm5.537-6.235H78.34V8.89h5.108v1.067h-1.995v6.075h-1.117V9.957zm4.961 6.235c-.246 0-.455-.043-.628-.13v-1.087c.22.12.419.18.599.18a.804.804 0 00.428-.1c.107-.073.203-.206.29-.4l.25-.518-2.375-5.247h1.247l1.666 3.96h.06l1.675-3.96h1.247l-2.733 6.005c-.2.446-.442.775-.728.988-.28.206-.612.309-.998.309zm5.428-7.302h5.317v7.142h-1.118V9.957h-3.082v6.075h-1.117V8.89zm6.945 0h1.118v2.963h3.311V8.89h1.108v7.142H102.1V12.91h-3.311v3.122H97.67V8.89zm10.414 7.302c-.691 0-1.32-.163-1.885-.489a3.638 3.638 0 01-1.337-1.356 3.804 3.804 0 01-.478-1.886c0-.685.159-1.31.478-1.875a3.649 3.649 0 013.222-1.855c.692 0 1.317.166 1.876.498a3.628 3.628 0 011.336 1.357c.326.565.489 1.19.489 1.875a3.74 3.74 0 01-.489 1.886 3.559 3.559 0 01-1.326 1.356 3.71 3.71 0 01-1.886.489zm0-1.067a2.55 2.55 0 001.297-.34c.392-.226.702-.538.928-.937a2.8 2.8 0 00.339-1.387c0-.518-.113-.977-.339-1.376a2.447 2.447 0 00-.928-.948 2.548 2.548 0 00-1.297-.34 2.55 2.55 0 00-1.296.34 2.514 2.514 0 00-.938.948c-.226.399-.339.857-.339 1.376 0 .519.113.981.339 1.387a2.548 2.548 0 002.234 1.277zm7.316-6.235h2.683c.379 0 .728.083 1.047.25a2 2 0 01.779.688c.192.292.289.615.289.967 0 .353-.09.659-.27.918-.172.26-.402.456-.688.589v.06a1.8 1.8 0 01.868.628c.226.293.339.635.339 1.027 0 .393-.103.742-.309 1.048-.2.306-.472.545-.818.718-.339.166-.712.25-1.117.25h-2.803V8.89zm2.633 2.993c.319 0 .575-.1.768-.3.2-.2.3-.429.3-.688a.929.929 0 00-.29-.678c-.186-.2-.432-.3-.738-.3h-1.556v1.966h1.516zm.17 3.112c.339 0 .608-.106.808-.32a1.03 1.03 0 00.309-.738.992.992 0 00-.319-.738c-.206-.213-.486-.319-.838-.319h-1.646v2.115h1.686z" fill="#fff"/><path d="M38.01 32.45c4.268-2.365 7.504-4.167 7.783-4.307.892-.479 1.813-1.746 0-2.73-.586-.31-3.739-2.056-7.784-4.308l-5.607 5.715 5.607 5.63z" fill="#FFD900"/><path d="M32.401 26.82L14.547 44.98c.419.056.892-.056 1.45-.366 1.171-.646 13.586-7.489 22.011-12.162l-5.607-5.632z" fill="#F43249"/><path d="M32.401 26.818l5.607-5.687S17.253 9.7 15.997 9.025a2.153 2.153 0 00-1.477-.283L32.4 26.817z" fill="#00EE76"/><path d="M32.403 26.818L14.52 8.742c-.726.17-1.34.816-1.34 2.14v31.955c0 1.212.475 2.084 1.367 2.168l17.855-18.188z" fill="#00D3FF"/></g><defs><clipPath id="clip0"><path fill="#fff" d="M0 0h180.265v53.438H0z"/></clipPath></defs></svg>