<svg width="28" height="28" fill="none" xmlns="http://www.w3.org/2000/svg"><g clip-path="url(#clip0)"><path d="M24.115 4.308A13.978 13.978 0 0013.996 0C6.276-.01.01 6.24 0 13.96a13.979 13.979 0 004.308 10.112c.008.008.011.02.02.027.08.078.168.144.25.219.225.2.45.407.687.6.127.1.259.2.389.292.224.167.448.334.681.488.16.1.323.2.486.3.216.13.431.26.654.38.19.1.382.185.574.276.21.1.417.2.632.29.215.09.43.16.648.238.218.078.406.15.615.214.236.07.478.126.718.185.2.049.394.105.6.145.276.055.556.09.836.128.172.024.341.058.516.075.458.045.92.07 1.386.07.466 0 .928-.025 1.385-.07.175-.017.344-.051.517-.075.28-.038.56-.073.836-.128.2-.04.4-.1.6-.145.24-.06.482-.114.717-.185.21-.064.411-.142.615-.214.204-.072.436-.15.65-.238.212-.088.421-.19.63-.29.193-.09.386-.177.575-.277.223-.119.438-.25.654-.38.162-.1.326-.19.485-.3.234-.153.458-.32.682-.487.13-.1.262-.19.389-.292.237-.19.462-.392.687-.6.082-.075.17-.14.25-.219.009-.007.012-.019.02-.027 5.574-5.34 5.764-14.19.423-19.764zm-2.247 18.717a11.55 11.55 0 01-.898.712 11.09 11.09 0 01-.967.627c-.176.1-.355.2-.536.3a13.722 13.722 0 01-1.008.463c-.177.07-.365.138-.55.2-.17.058-.338.118-.51.169-.2.06-.408.109-.615.159-.162.037-.322.08-.486.113-.237.046-.479.078-.721.11-.139.018-.275.044-.414.058-.384.037-.773.058-1.166.058-.393 0-.782-.021-1.166-.058-.139-.014-.276-.04-.414-.058-.242-.032-.484-.064-.721-.11-.164-.032-.324-.075-.486-.113-.207-.05-.413-.1-.616-.16-.17-.05-.34-.11-.509-.168a13.96 13.96 0 01-.55-.2c-.18-.071-.35-.15-.521-.228a9.068 9.068 0 01-1.023-.535 12.237 12.237 0 01-1.866-1.339c-.043-.033-.083-.075-.126-.113a8.02 8.02 0 015.45-7.492 5.927 5.927 0 005.093 0 8.02 8.02 0 015.451 7.492c-.042.038-.082.076-.125.113zM10.51 8.015a3.999 3.999 0 115.445 5.446c-.005 0-.01 0-.017.005a4.235 4.235 0 01-.835.354c-.052.015-.1.035-.155.048-.1.026-.205.044-.308.062-.194.034-.39.054-.587.06h-.114a4.052 4.052 0 01-.587-.06c-.1-.018-.206-.036-.308-.062-.053-.013-.1-.033-.155-.048a4.233 4.233 0 01-.835-.354l-.018-.005a3.999 3.999 0 01-1.526-5.446zM23.767 20.93a10.047 10.047 0 00-5.352-6.89 5.998 5.998 0 10-8.838 0 10.047 10.047 0 00-5.352 6.89C.392 15.53 1.662 8.046 7.061 4.212 12.461.38 19.945 1.65 23.78 7.048a11.99 11.99 0 012.213 6.947c0 2.488-.778 4.912-2.225 6.935z" fill="#3E54D8"/></g><defs><clipPath id="clip0"><path fill="#fff" d="M0 0h28v28H0z"/></clipPath></defs></svg>