<svg width="224" height="59" fill="none" xmlns="http://www.w3.org/2000/svg"><g opacity=".9"><path d="M21.584 21.896c1.44.456 2.568 1.224 3.384 2.304.816 1.056 1.224 2.364 1.224 3.924 0 2.208-.864 3.912-2.592 5.112C21.896 34.412 19.4 35 16.112 35H3.08V9.8h12.312c3.072 0 5.424.588 7.056 1.764 1.656 1.176 2.484 2.772 2.484 4.788 0 1.224-.3 2.316-.9 3.276-.576.96-1.392 1.716-2.448 2.268zM8.876 14.192v5.94h5.796c1.44 0 2.532-.252 3.276-.756.744-.504 1.116-1.248 1.116-2.232 0-.984-.372-1.716-1.116-2.196-.744-.504-1.836-.756-3.276-.756H8.876zm6.804 16.416c1.536 0 2.688-.252 3.456-.756.792-.504 1.188-1.284 1.188-2.34 0-2.088-1.548-3.132-4.644-3.132H8.876v6.228h6.804zm33.503-5.22c0 .072-.036.576-.108 1.512H34.423c.264 1.2.888 2.148 1.872 2.844.984.696 2.208 1.044 3.672 1.044 1.008 0 1.896-.144 2.664-.432.792-.312 1.524-.792 2.196-1.44l2.988 3.24c-1.824 2.088-4.488 3.132-7.992 3.132-2.184 0-4.116-.42-5.796-1.26-1.68-.864-2.976-2.052-3.888-3.564-.912-1.512-1.368-3.228-1.368-5.148 0-1.896.444-3.6 1.332-5.112a9.451 9.451 0 013.708-3.564c1.584-.864 3.348-1.296 5.292-1.296 1.896 0 3.612.408 5.148 1.224a8.786 8.786 0 013.6 3.528c.888 1.512 1.332 3.276 1.332 5.292zM39.14 19.592c-1.272 0-2.34.36-3.204 1.08-.864.72-1.392 1.704-1.584 2.952h9.54c-.192-1.224-.72-2.196-1.584-2.916-.864-.744-1.92-1.116-3.168-1.116zm21.068-4.248c3 0 5.304.72 6.912 2.16 1.608 1.416 2.412 3.564 2.412 6.444V35h-5.256v-2.412c-1.056 1.8-3.024 2.7-5.904 2.7-1.488 0-2.784-.252-3.888-.756-1.08-.504-1.908-1.2-2.484-2.088-.576-.888-.864-1.896-.864-3.024 0-1.8.672-3.216 2.016-4.248 1.368-1.032 3.468-1.548 6.3-1.548h4.464c0-1.224-.372-2.16-1.116-2.808-.744-.672-1.86-1.008-3.348-1.008a9.62 9.62 0 00-3.06.504c-.984.312-1.824.744-2.52 1.296l-2.016-3.924c1.056-.744 2.316-1.32 3.78-1.728a17.212 17.212 0 014.572-.612zm-.432 16.164c.96 0 1.812-.216 2.556-.648.744-.456 1.272-1.116 1.584-1.98V26.9h-3.852c-2.304 0-3.456.756-3.456 2.268 0 .72.276 1.296.828 1.728.576.408 1.356.612 2.34.612zm27.33 2.556c-.552.408-1.236.72-2.052.936a10.66 10.66 0 01-2.52.288c-2.303 0-4.091-.588-5.364-1.764-1.248-1.176-1.871-2.904-1.871-5.184v-7.956H72.31v-4.32h2.989v-4.716h5.615v4.716h4.825v4.32h-4.825v7.884c0 .816.205 1.452.612 1.908.432.432 1.032.648 1.8.648.888 0 1.644-.24 2.269-.72l1.512 3.96z" fill="#3E54D8"/><path d="M113.586 35l-.036-15.12-7.416 12.456h-2.628l-7.38-12.132V35h-5.472V9.8h4.824l9.432 15.66 9.288-15.66h4.788l.072 25.2h-5.472zm18.867-19.656c3 0 5.304.72 6.912 2.16 1.608 1.416 2.412 3.564 2.412 6.444V35h-5.256v-2.412c-1.056 1.8-3.024 2.7-5.904 2.7-1.488 0-2.784-.252-3.888-.756-1.08-.504-1.908-1.2-2.484-2.088-.576-.888-.864-1.896-.864-3.024 0-1.8.672-3.216 2.016-4.248 1.368-1.032 3.468-1.548 6.3-1.548h4.464c0-1.224-.372-2.16-1.116-2.808-.744-.672-1.86-1.008-3.348-1.008a9.62 9.62 0 00-3.06.504c-.984.312-1.824.744-2.52 1.296l-2.016-3.924c1.056-.744 2.316-1.32 3.78-1.728a17.212 17.212 0 014.572-.612zm-.432 16.164c.96 0 1.812-.216 2.556-.648.744-.456 1.272-1.116 1.584-1.98V26.9h-3.852c-2.304 0-3.456.756-3.456 2.268 0 .72.276 1.296.828 1.728.576.408 1.356.612 2.34.612zm20.203-13.32c.672-.936 1.572-1.644 2.7-2.124 1.152-.48 2.472-.72 3.96-.72v5.184a20.268 20.268 0 00-1.26-.072c-1.608 0-2.868.456-3.78 1.368-.912.888-1.368 2.232-1.368 4.032V35h-5.616V15.632h5.364v2.556zm18.315 9.216l-2.7 2.664V35h-5.616V8.288h5.616v15.12l8.208-7.776h6.696l-8.064 8.208L183.463 35h-6.804l-6.12-7.596zm33.578-2.016c0 .072-.036.576-.108 1.512h-14.652c.264 1.2.888 2.148 1.872 2.844.984.696 2.208 1.044 3.672 1.044 1.008 0 1.896-.144 2.664-.432.792-.312 1.524-.792 2.196-1.44l2.988 3.24c-1.824 2.088-4.488 3.132-7.992 3.132-2.184 0-4.116-.42-5.796-1.26-1.68-.864-2.976-2.052-3.888-3.564-.912-1.512-1.368-3.228-1.368-5.148 0-1.896.444-3.6 1.332-5.112a9.451 9.451 0 013.708-3.564c1.584-.864 3.348-1.296 5.292-1.296 1.896 0 3.612.408 5.148 1.224a8.786 8.786 0 013.6 3.528c.888 1.512 1.332 3.276 1.332 5.292zm-10.044-5.796c-1.272 0-2.34.36-3.204 1.08-.864.72-1.392 1.704-1.584 2.952h9.54c-.192-1.224-.72-2.196-1.584-2.916-.864-.744-1.92-1.116-3.168-1.116zm26.275 14.472c-.552.408-1.236.72-2.052.936-.792.192-1.632.288-2.52.288-2.304 0-4.092-.588-5.364-1.764-1.248-1.176-1.872-2.904-1.872-5.184v-7.956h-2.988v-4.32h2.988v-4.716h5.616v4.716h4.824v4.32h-4.824v7.884c0 .816.204 1.452.612 1.908.432.432 1.032.648 1.8.648.888 0 1.644-.24 2.268-.72l1.512 3.96z" fill="#ED6373"/></g><path d="M9.19 48v7h-.73v-6.36H4.03V55H3.3v-7h5.89zm6.292 1.74V55h-.71v-4.63h-2.52l-.07 1.3c-.053 1.093-.18 1.933-.38 2.52s-.557.88-1.07.88c-.14 0-.31-.027-.51-.08l.05-.61c.12.027.203.04.25.04.273 0 .48-.127.62-.38s.233-.567.28-.94c.047-.373.087-.867.12-1.48l.09-1.88h3.85zm3.628-.04c.687 0 1.214.173 1.58.52.367.34.55.847.55 1.52V55h-.68v-.82a1.62 1.62 0 01-.71.64c-.306.153-.673.23-1.1.23-.586 0-1.053-.14-1.4-.42-.346-.28-.52-.65-.52-1.11 0-.447.16-.807.48-1.08.327-.273.844-.41 1.55-.41h1.67v-.32c0-.453-.126-.797-.38-1.03-.253-.24-.623-.36-1.11-.36-.333 0-.653.057-.96.17a2.37 2.37 0 00-.79.45l-.32-.53c.267-.227.587-.4.96-.52.374-.127.767-.19 1.18-.19zm-.25 4.79c.4 0 .744-.09 1.03-.27.287-.187.5-.453.64-.8v-.86h-1.65c-.9 0-1.35.313-1.35.94 0 .307.117.55.35.73.234.173.56.26.98.26zm7.77-4.12h-1.99V55h-.71v-4.63h-1.99v-.63h4.69v.63zm6.933 1.99c0 .82-.27 1.463-.81 1.93-.54.467-1.303.72-2.29.76v1.89h-.69v-1.88c-.98-.04-1.74-.293-2.28-.76-.533-.473-.8-1.12-.8-1.94 0-.813.267-1.45.8-1.91.54-.46 1.3-.71 2.28-.75v-2.12h.69v2.12c.987.047 1.75.3 2.29.76s.81 1.093.81 1.9zm-6.17 0c0 .627.2 1.117.6 1.47.407.353 1 .553 1.78.6v-4.1c-.773.04-1.363.237-1.77.59-.407.347-.61.827-.61 1.44zm3.07 2.07c.78-.04 1.373-.237 1.78-.59.413-.353.62-.847.62-1.48 0-.62-.207-1.103-.62-1.45-.407-.347-1-.54-1.78-.58v4.1zm6.572.62a2.76 2.76 0 01-1.37-.34 2.551 2.551 0 01-.96-.96 2.723 2.723 0 01-.35-1.38c0-.513.116-.973.35-1.38a2.48 2.48 0 01.96-.95 2.76 2.76 0 011.37-.34c.506 0 .963.113 1.37.34.406.227.723.543.95.95.233.407.35.867.35 1.38 0 .513-.117.973-.35 1.38a2.48 2.48 0 01-.95.96c-.407.227-.864.34-1.37.34zm0-.63c.373 0 .706-.083 1-.25.3-.173.533-.417.7-.73.166-.313.25-.67.25-1.07s-.084-.757-.25-1.07a1.737 1.737 0 00-.7-.72 1.928 1.928 0 00-1-.26c-.374 0-.71.087-1.01.26a1.82 1.82 0 00-.7.72c-.167.313-.25.67-.25 1.07s.083.757.25 1.07c.173.313.406.557.7.73.3.167.636.25 1.01.25zm6.697-4.72c.493 0 .94.113 1.34.34.4.22.713.533.94.94.227.407.34.87.34 1.39 0 .527-.113.993-.34 1.4a2.43 2.43 0 01-.94.95c-.393.22-.84.33-1.34.33-.427 0-.813-.087-1.16-.26-.34-.18-.62-.44-.84-.78v2.93h-.71v-7.2h.68v1.04c.213-.347.493-.613.84-.8.353-.187.75-.28 1.19-.28zm-.05 4.72c.367 0 .7-.083 1-.25.3-.173.533-.417.7-.73.173-.313.26-.67.26-1.07s-.087-.753-.26-1.06a1.802 1.802 0 00-.7-.73c-.3-.173-.633-.26-1-.26-.373 0-.71.087-1.01.26a1.892 1.892 0 00-.7.73c-.167.307-.25.66-.25 1.06s.083.757.25 1.07c.173.313.407.557.7.73.3.167.637.25 1.01.25zm9.875-4.68V55h-.65v-4.16l-2.13 3.52h-.32l-2.13-3.53V55h-.65v-5.26h.72l2.23 3.79 2.27-3.79h.66zm3.63-.04c.687 0 1.214.173 1.58.52.367.34.55.847.55 1.52V55h-.68v-.82a1.62 1.62 0 01-.71.64c-.306.153-.673.23-1.1.23-.586 0-1.053-.14-1.4-.42-.346-.28-.52-.65-.52-1.11 0-.447.16-.807.48-1.08.327-.273.844-.41 1.55-.41h1.67v-.32c0-.453-.126-.797-.38-1.03-.253-.24-.623-.36-1.11-.36-.333 0-.653.057-.96.17a2.37 2.37 0 00-.79.45l-.32-.53c.267-.227.587-.4.96-.52.374-.127.767-.19 1.18-.19zm-.25 4.79c.4 0 .744-.09 1.03-.27.287-.187.5-.453.64-.8v-.86h-1.65c-.9 0-1.35.313-1.35.94 0 .307.117.55.35.73.234.173.56.26.98.26zm3.66-2.51h2.62v.62h-2.62v-.62zm8.75-2.24V55h-.71v-4.63h-3.3V55h-.71v-5.26h4.72zm3.988 5.31a2.76 2.76 0 01-1.37-.34 2.551 2.551 0 01-.96-.96 2.723 2.723 0 01-.35-1.38c0-.513.116-.973.35-1.38a2.48 2.48 0 01.96-.95 2.76 2.76 0 011.37-.34c.506 0 .963.113 1.37.34.406.227.723.543.95.95.233.407.35.867.35 1.38 0 .513-.117.973-.35 1.38a2.48 2.48 0 01-.95.96c-.407.227-.864.34-1.37.34zm0-.63c.373 0 .706-.083 1-.25.3-.173.533-.417.7-.73.166-.313.25-.67.25-1.07s-.084-.757-.25-1.07a1.737 1.737 0 00-.7-.72 1.928 1.928 0 00-1-.26c-.374 0-.71.087-1.01.26a1.82 1.82 0 00-.7.72c-.167.313-.25.67-.25 1.07s.083.757.25 1.07c.173.313.406.557.7.73.3.167.636.25 1.01.25zm9.867-4.68V55h-.65v-4.16l-2.13 3.52h-.32l-2.13-3.53V55h-.65v-5.26h.72l2.23 3.79 2.27-3.79h.66zm3.99 5.31c-.506 0-.963-.113-1.37-.34a2.551 2.551 0 01-.96-.96 2.723 2.723 0 01-.35-1.38c0-.513.117-.973.35-1.38a2.48 2.48 0 01.96-.95c.407-.227.864-.34 1.37-.34.507 0 .964.113 1.37.34.407.227.724.543.95.95.234.407.35.867.35 1.38 0 .513-.116.973-.35 1.38a2.48 2.48 0 01-.95.96 2.76 2.76 0 01-1.37.34zm0-.63c.374 0 .707-.083 1-.25.3-.173.534-.417.7-.73.167-.313.25-.67.25-1.07s-.083-.757-.25-1.07a1.737 1.737 0 00-.7-.72 1.928 1.928 0 00-1-.26c-.373 0-.71.087-1.01.26a1.82 1.82 0 00-.7.72c-.166.313-.25.67-.25 1.07s.084.757.25 1.07a1.9 1.9 0 00.7.73c.3.167.637.25 1.01.25zm11.248-4.68V55h-7.26v-5.26h.71v4.64h2.58v-4.64h.71v4.64h2.55v-4.64h.71zm.81 4.64v1.77h-.67V55h-.89v-.62h1.56zm1.017-4.64h.71v2.33h3.31v-2.33h.71V55h-.71v-2.32h-3.31V55h-.71v-5.26zm6.548 0h.71v4.18l3.51-4.18h.63V55h-.71v-4.18l-3.5 4.18h-.64v-5.26zm8.595 2.92h-1.2V55h-.71v-5.26h.71v2.31h1.21l1.85-2.31h.77l-2.07 2.55 2.22 2.71h-.84l-1.94-2.34zm6.117-2.92h.71v2.33h3.31v-2.33h.71V55h-.71v-2.32h-3.31V55h-.71v-5.26zm8.358-.04c.687 0 1.214.173 1.58.52.367.34.55.847.55 1.52V55h-.68v-.82a1.62 1.62 0 01-.71.64c-.306.153-.673.23-1.1.23-.586 0-1.053-.14-1.4-.42-.346-.28-.52-.65-.52-1.11 0-.447.16-.807.48-1.08.327-.273.844-.41 1.55-.41h1.67v-.32c0-.453-.126-.797-.38-1.03-.253-.24-.623-.36-1.11-.36a2.75 2.75 0 00-.96.17 2.36 2.36 0 00-.79.45l-.32-.53c.267-.227.587-.4.96-.52.374-.127.767-.19 1.18-.19zm-.25 4.79c.4 0 .744-.09 1.03-.27.287-.187.5-.453.64-.8v-.86h-1.65c-.9 0-1.35.313-1.35.94 0 .307.117.55.35.73.234.173.56.26.98.26zm14.148-3c0 .927-.33 1.657-.99 2.19-.654.527-1.57.807-2.75.84v.72h-.69v-.72c-1.18-.04-2.1-.323-2.76-.85-.654-.527-.98-1.253-.98-2.18 0-.927.326-1.653.98-2.18.66-.527 1.58-.81 2.76-.85v-.7h.69v.7c1.173.04 2.09.327 2.75.86.66.527.99 1.25.99 2.17zm-3.74 2.44c.966-.04 1.713-.27 2.24-.69.526-.42.79-1.003.79-1.75 0-.747-.267-1.33-.8-1.75-.527-.42-1.27-.647-2.23-.68v4.87zm-3.72-2.44c0 .747.263 1.33.79 1.75.533.413 1.28.643 2.24.69v-4.87c-.974.04-1.724.27-2.25.69-.52.413-.78.993-.78 1.74zm10.94 3.56a2.76 2.76 0 01-1.37-.34 2.547 2.547 0 01-.96-.96 2.716 2.716 0 01-.35-1.38c0-.513.116-.973.35-1.38.233-.407.553-.723.96-.95a2.76 2.76 0 011.37-.34c.506 0 .963.113 1.37.34.406.227.723.543.95.95.233.407.35.867.35 1.38 0 .513-.117.973-.35 1.38a2.487 2.487 0 01-.95.96c-.407.227-.864.34-1.37.34zm0-.63a1.99 1.99 0 001-.25c.3-.173.533-.417.7-.73.166-.313.25-.67.25-1.07s-.084-.757-.25-1.07a1.738 1.738 0 00-.7-.72 1.931 1.931 0 00-1-.26c-.374 0-.71.087-1.01.26a1.814 1.814 0 00-.7.72 2.24 2.24 0 00-.25 1.07c0 .4.083.757.25 1.07.173.313.406.557.7.73.3.167.636.25 1.01.25zm3.987-4.68h.71v2.33h3.31v-2.33h.71V55h-.71v-2.32h-3.31V55h-.71v-5.26zm11.678 4.64v1.89h-.67V55h-4.71v1.27h-.67v-1.89h.3c.353-.02.593-.28.72-.78s.213-1.2.26-2.1l.07-1.76h3.88v4.64h.82zm-4.12-2.84a13.245 13.245 0 01-.19 1.85c-.093.48-.26.81-.5.99h3.28v-4.01h-2.53l-.06 1.17zm7.474 3.51a2.76 2.76 0 01-1.37-.34 2.547 2.547 0 01-.96-.96 2.716 2.716 0 01-.35-1.38c0-.513.116-.973.35-1.38.233-.407.553-.723.96-.95a2.76 2.76 0 011.37-.34c.506 0 .963.113 1.37.34.406.227.723.543.95.95.233.407.35.867.35 1.38 0 .513-.117.973-.35 1.38a2.487 2.487 0 01-.95.96c-.407.227-.864.34-1.37.34zm0-.63a1.99 1.99 0 001-.25c.3-.173.533-.417.7-.73.166-.313.25-.67.25-1.07s-.084-.757-.25-1.07a1.738 1.738 0 00-.7-.72 1.931 1.931 0 00-1-.26c-.374 0-.71.087-1.01.26a1.814 1.814 0 00-.7.72 2.24 2.24 0 00-.25 1.07c0 .4.083.757.25 1.07.173.313.406.557.7.73.3.167.636.25 1.01.25zm7.337-2.14c.714.167 1.07.597 1.07 1.29 0 .46-.17.813-.51 1.06-.34.247-.846.37-1.52.37h-2.39v-5.26h2.32c.6 0 1.07.117 1.41.35.34.233.51.567.51 1 0 .287-.08.533-.24.74-.153.2-.37.35-.65.45zm-2.66-.2h1.58c.407 0 .717-.077.93-.23.22-.153.33-.377.33-.67 0-.293-.11-.513-.33-.66-.213-.147-.523-.22-.93-.22h-1.58v1.78zm1.67 2.36c.454 0 .794-.073 1.02-.22.227-.147.34-.377.34-.69 0-.313-.103-.543-.31-.69-.206-.153-.533-.23-.98-.23h-1.74v1.83h1.67zm5.694.61c-.507 0-.963-.113-1.37-.34a2.547 2.547 0 01-.96-.96 2.726 2.726 0 01-.35-1.38c0-.513.117-.973.35-1.38.233-.407.553-.723.96-.95.407-.227.863-.34 1.37-.34.507 0 .963.113 1.37.34.407.227.723.543.95.95.233.407.35.867.35 1.38 0 .513-.117.973-.35 1.38a2.48 2.48 0 01-.95.96c-.407.227-.863.34-1.37.34zm0-.63c.373 0 .707-.083 1-.25.3-.173.533-.417.7-.73.167-.313.25-.67.25-1.07s-.083-.757-.25-1.07a1.738 1.738 0 00-.7-.72 1.928 1.928 0 00-1-.26c-.373 0-.71.087-1.01.26a1.82 1.82 0 00-.7.72 2.24 2.24 0 00-.25 1.07c0 .4.083.757.25 1.07.173.313.407.557.7.73.3.167.637.25 1.01.25zm9.868-4.68V55h-.65v-4.16l-2.13 3.52h-.32l-2.13-3.53V55h-.65v-5.26h.72l2.23 3.79 2.27-3.79h.66zm6.947-.04c.494 0 .94.113 1.34.34.4.22.714.533.94.94.227.407.34.87.34 1.39 0 .527-.113.993-.34 1.4-.226.407-.54.723-.94.95-.393.22-.84.33-1.34.33a2.56 2.56 0 01-1.16-.26c-.34-.18-.62-.44-.84-.78v2.93h-.71v-7.2h.68v1.04c.214-.347.494-.613.84-.8a2.51 2.51 0 011.19-.28zm-.05 4.72c.367 0 .7-.083 1-.25.3-.173.534-.417.7-.73.174-.313.26-.67.26-1.07s-.086-.753-.26-1.06a1.797 1.797 0 00-.7-.73c-.3-.173-.633-.26-1-.26-.373 0-.71.087-1.01.26a1.9 1.9 0 00-.7.73c-.166.307-.25.66-.25 1.06s.084.757.25 1.07a1.9 1.9 0 00.7.73c.3.167.637.25 1.01.25zm6.206-2.82c.66.007 1.163.153 1.51.44.346.287.52.7.52 1.24 0 .56-.187.99-.56 1.29-.374.3-.907.447-1.6.44l-2.08-.01v-5.26h.71v1.84l1.5.02zm2.91-1.86h.71V55h-.71v-5.26zm-3.08 4.73c.486.007.853-.09 1.1-.29.253-.207.38-.507.38-.9 0-.387-.124-.673-.37-.86-.247-.187-.617-.283-1.11-.29l-1.33-.02v2.34l1.33.02zm5.611-4.73h.71v2.33h3.31v-2.33h.71V55h-.71v-2.32h-3.31V55h-.71v-5.26zm8.458 2.92h-1.2V55h-.71v-5.26h.71v2.31h1.21l1.85-2.31h.77l-2.07 2.55 2.22 2.71h-.84l-1.94-2.34zm8.115-.07h-4.4c.04.547.25.99.63 1.33.38.333.86.5 1.44.5.327 0 .627-.057.9-.17.274-.12.51-.293.71-.52l.4.46c-.233.28-.526.493-.88.64a2.92 2.92 0 01-1.15.22c-.54 0-1.02-.113-1.44-.34a2.538 2.538 0 01-.97-.96 2.726 2.726 0 01-.35-1.38c0-.513.11-.973.33-1.38a2.48 2.48 0 01.92-.95c.394-.227.834-.34 1.32-.34.487 0 .924.113 1.31.34a2.4 2.4 0 01.91.95c.22.4.33.86.33 1.38l-.01.22zm-2.54-2.28c-.506 0-.933.163-1.28.49-.34.32-.533.74-.58 1.26h3.73c-.046-.52-.243-.94-.59-1.26-.34-.327-.766-.49-1.28-.49z" fill="#373943"/></svg>