<svg><defs><symbol id="arrow" viewBox="0 0 11 17" xmlns="http://www.w3.org/2000/svg"><path d="M9.997 9.342l-7.31 7.31a1.19 1.19 0 11-1.684-1.684L7.471 8.5 1.003 2.032A1.19 1.19 0 012.687.35l7.31 7.31a1.187 1.187 0 010 1.683z"/></symbol><symbol id="arrow_big_grey" viewBox="0 0 182 455" fill="none" xmlns="http://www.w3.org/2000/svg"><path d="M245 439L32 226 242 16" stroke="#F2F2F2" stroke-width="45"/></symbol><symbol id="arrow_big_yellow" viewBox="0 0 257 721" fill="none" xmlns="http://www.w3.org/2000/svg"><path d="M363 720L1 357.95 357.901 1" stroke="#F9B233"/></symbol><symbol id="icon_logout" viewBox="0 0 512.016 512" xmlns="http://www.w3.org/2000/svg"><path d="M496 240.008H293.332c-8.832 0-16-7.168-16-16s7.168-16 16-16H496c8.832 0 16 7.168 16 16s-7.168 16-16 16zm0 0"/><path d="M416 320.008a15.89 15.89 0 01-11.309-4.692c-6.25-6.253-6.25-16.386 0-22.636l68.696-68.692-68.696-68.695c-6.25-6.25-6.25-16.383 0-22.633 6.254-6.254 16.387-6.254 22.637 0l80 80c6.25 6.25 6.25 16.383 0 22.633l-80 80A15.896 15.896 0 01416 320.008zm-245.332 192c-4.566 0-8.898-.64-13.227-1.985L29.055 467.25C11.585 461.148 0 444.871 0 426.676v-384C0 19.145 19.137.008 42.668.008c4.562 0 8.895.64 13.227 1.984l128.382 42.774c17.473 6.101 29.055 22.379 29.055 40.574v384c0 23.531-19.133 42.668-42.664 42.668zm-128-480c-5.867 0-10.668 4.8-10.668 10.668v384c0 4.543 3.05 8.765 7.402 10.281l127.785 42.582c.918.297 2.114.469 3.481.469 5.867 0 10.664-4.801 10.664-10.668v-384c0-4.543-3.05-8.766-7.402-10.281L46.145 32.477c-.918-.297-2.114-.47-3.477-.47zm0 0"/><path d="M325.332 170.676c-8.832 0-16-7.168-16-16v-96c0-14.7-11.965-26.668-26.664-26.668h-240c-8.832 0-16-7.168-16-16s7.168-16 16-16h240c32.363 0 58.664 26.305 58.664 58.668v96c0 8.832-7.168 16-16 16zm-42.664 277.332h-85.336c-8.832 0-16-7.168-16-16s7.168-16 16-16h85.336c14.7 0 26.664-11.969 26.664-26.668v-96c0-8.832 7.168-16 16-16s16 7.168 16 16v96c0 32.363-26.3 58.668-58.664 58.668zm0 0"/></symbol><symbol id="icon_user" viewBox="-42 0 512 512.001" xmlns="http://www.w3.org/2000/svg"><path d="M210.352 246.633c33.882 0 63.218-12.153 87.195-36.13 23.969-23.972 36.125-53.304 36.125-87.19 0-33.876-12.152-63.211-36.129-87.192C273.566 12.152 244.23 0 210.352 0c-33.887 0-63.22 12.152-87.192 36.125s-36.129 53.309-36.129 87.188c0 33.886 12.156 63.222 36.13 87.195 23.98 23.969 53.316 36.125 87.19 36.125zM144.379 57.34c18.394-18.395 39.973-27.336 65.973-27.336 25.996 0 47.578 8.941 65.976 27.336 18.395 18.398 27.34 39.98 27.34 65.972 0 26-8.945 47.579-27.34 65.977-18.398 18.399-39.98 27.34-65.976 27.34-25.993 0-47.57-8.945-65.973-27.34-18.399-18.394-27.344-39.976-27.344-65.976 0-25.993 8.945-47.575 27.344-65.973zm281.75 336.363c-.692-9.976-2.09-20.86-4.149-32.351-2.078-11.579-4.753-22.524-7.957-32.528-3.312-10.34-7.808-20.55-13.375-30.336-5.77-10.156-12.55-19-20.16-26.277-7.957-7.613-17.699-13.734-28.965-18.2-11.226-4.44-23.668-6.69-36.976-6.69-5.227 0-10.281 2.144-20.043 8.5a2711.03 2711.03 0 01-20.879 13.46c-6.707 4.274-15.793 8.278-27.016 11.903-10.949 3.543-22.066 5.34-33.043 5.34-10.968 0-22.086-1.797-33.043-5.34-11.21-3.622-20.3-7.625-26.996-11.899a2853.13 2853.13 0 01-20.898-13.469c-9.754-6.355-14.809-8.5-20.035-8.5-13.313 0-25.75 2.254-36.973 6.7-11.258 4.457-21.004 10.578-28.969 18.199-7.609 7.281-14.39 16.12-20.156 26.273-5.558 9.785-10.058 19.992-13.371 30.34-3.2 10.004-5.875 20.945-7.953 32.524-2.063 11.476-3.457 22.363-4.149 32.363C.343 403.492 0 413.668 0 423.949c0 26.727 8.496 48.363 25.25 64.32C41.797 504.017 63.688 512 90.316 512h246.532c26.62 0 48.511-7.984 65.062-23.73 16.758-15.946 25.254-37.59 25.254-64.325-.004-10.316-.351-20.492-1.035-30.242zm-44.906 72.828c-10.934 10.406-25.45 15.465-44.38 15.465H90.317c-18.933 0-33.449-5.059-44.379-15.46-10.722-10.208-15.933-24.141-15.933-42.587 0-9.594.316-19.066.95-28.16.616-8.922 1.878-18.723 3.75-29.137 1.847-10.285 4.198-19.937 6.995-28.675 2.684-8.38 6.344-16.676 10.883-24.668 4.332-7.618 9.316-14.153 14.816-19.418 5.145-4.926 11.63-8.957 19.27-11.98 7.066-2.798 15.008-4.329 23.629-4.56 1.05.56 2.922 1.626 5.953 3.602 6.168 4.02 13.277 8.606 21.137 13.625 8.86 5.649 20.273 10.75 33.91 15.152 13.941 4.508 28.16 6.797 42.273 6.797 14.114 0 28.336-2.289 42.27-6.793 13.648-4.41 25.058-9.507 33.93-15.164 8.043-5.14 14.953-9.593 21.12-13.617 3.032-1.973 4.903-3.043 5.954-3.601 8.625.23 16.566 1.761 23.636 4.558 7.637 3.024 14.122 7.059 19.266 11.98 5.5 5.262 10.484 11.798 14.816 19.423 4.543 7.988 8.208 16.289 10.887 24.66 2.801 8.75 5.156 18.398 7 28.675 1.867 10.434 3.133 20.239 3.75 29.145v.008c.637 9.058.957 18.527.961 28.148-.004 18.45-5.215 32.38-15.937 42.582zm0 0"/></symbol><symbol id="icon_window_max" viewBox="0 0 24 24" xmlns="http://www.w3.org/2000/svg"><path d="M15 9.75a.75.75 0 01-.53-1.281l8.25-8.25a.75.75 0 111.061 1.061l-8.25 8.25a.748.748 0 01-.531.22z"/><path d="M20.25 10h-5.5a.75.75 0 01-.75-.75v-5.5a.75.75 0 011.5 0V8.5h4.75a.75.75 0 010 1.5zm-3 14H2.75A2.752 2.752 0 010 21.25V9.75c0-.981.529-1.89 1.38-2.373a.75.75 0 11.74 1.305c-.388.22-.62.62-.62 1.068v11.5c0 .689.561 1.25 1.25 1.25h14.5c.689 0 1.25-.561 1.25-1.25v-2a.75.75 0 011.5 0v2A2.752 2.752 0 0117.25 24z"/><path d="M1.75 12h-1a.75.75 0 010-1.5h1a.75.75 0 010 1.5zm19.5 5H6.75A2.752 2.752 0 014 14.25V2.75A2.752 2.752 0 016.75 0h11.5a.75.75 0 010 1.5H6.75c-.689 0-1.25.561-1.25 1.25v11.5c0 .689.561 1.25 1.25 1.25h14.5c.689 0 1.25-.561 1.25-1.25v-8.5a.75.75 0 011.5 0v8.5A2.752 2.752 0 0121.25 17z"/><path d="M11.25 5h-6.5a.75.75 0 010-1.5h6.5a.75.75 0 010 1.5z"/></symbol><symbol id="icon_calendar" xmlns="http://www.w3.org/2000/svg" viewBox="0 0 512 512" xml:space="preserve"><circle cx="386" cy="210" r="20"/><path d="M432 40h-26V20c0-11.046-8.954-20-20-20s-20 8.954-20 20v20h-91V20c0-11.046-8.954-20-20-20s-20 8.954-20 20v20h-90V20c0-11.046-8.954-20-20-20s-20 8.954-20 20v20H80C35.888 40 0 75.888 0 120v312c0 44.112 35.888 80 80 80h153c11.046 0 20-8.954 20-20s-8.954-20-20-20H80c-22.056 0-40-17.944-40-40V120c0-22.056 17.944-40 40-40h25v20c0 11.046 8.954 20 20 20s20-8.954 20-20V80h90v20c0 11.046 8.954 20 20 20s20-8.954 20-20V80h91v20c0 11.046 8.954 20 20 20s20-8.954 20-20V80h26c22.056 0 40 17.944 40 40v114c0 11.046 8.954 20 20 20s20-8.954 20-20V120c0-44.112-35.888-80-80-80z"/><path d="M391 270c-66.72 0-121 54.28-121 121s54.28 121 121 121 121-54.28 121-121-54.28-121-121-121zm0 202c-44.663 0-81-36.336-81-81s36.337-81 81-81 81 36.336 81 81-36.337 81-81 81z"/><path d="M420 371h-9v-21c0-11.046-8.954-20-20-20s-20 8.954-20 20v41c0 11.046 8.954 20 20 20h29c11.046 0 20-8.954 20-20s-8.954-20-20-20z"/><circle cx="299" cy="210" r="20"/><circle cx="212" cy="297" r="20"/><circle cx="125" cy="210" r="20"/><circle cx="125" cy="297" r="20"/><circle cx="125" cy="384" r="20"/><circle cx="212" cy="384" r="20"/><circle cx="212" cy="210" r="20"/></symbol><symbol id="icon_add" xmlns="http://www.w3.org/2000/svg" viewBox="0 0 477.867 477.867" xml:space="preserve"><path d="M392.533 0h-307.2C38.228.056.056 38.228 0 85.333v307.2c.056 47.105 38.228 85.277 85.333 85.333h307.2c47.105-.056 85.277-38.228 85.333-85.333v-307.2C477.81 38.228 439.638.056 392.533 0zm51.2 392.533c0 28.277-22.923 51.2-51.2 51.2h-307.2c-28.277 0-51.2-22.923-51.2-51.2v-307.2c0-28.277 22.923-51.2 51.2-51.2h307.2c28.277 0 51.2 22.923 51.2 51.2v307.2z"/><path d="M324.267 221.867H256V153.6c0-9.426-7.641-17.067-17.067-17.067s-17.067 7.641-17.067 17.067v68.267H153.6c-9.426 0-17.067 7.641-17.067 17.067S144.174 256 153.6 256h68.267v68.267c0 9.426 7.641 17.067 17.067 17.067S256 333.692 256 324.267V256h68.267c9.426 0 17.067-7.641 17.067-17.067s-7.642-17.066-17.067-17.066z"/></symbol><symbol id="icon_add_pencil" viewBox="0 0 24 24" xmlns="http://www.w3.org/2000/svg"><path d="M17.5 24c-3.584 0-6.5-2.916-6.5-6.5s2.916-6.5 6.5-6.5 6.5 2.916 6.5 6.5-2.916 6.5-6.5 6.5zm0-11.5c-2.757 0-5 2.243-5 5s2.243 5 5 5 5-2.243 5-5-2.243-5-5-5z"/><path d="M17.5 21a.75.75 0 01-.75-.75v-5.5a.75.75 0 011.5 0v5.5a.75.75 0 01-.75.75z"/><path d="M20.25 18.25h-5.5a.75.75 0 010-1.5h5.5a.75.75 0 010 1.5zm-.379-9.239a.744.744 0 01-.53-.22l-4.135-4.134a.75.75 0 111.061-1.061l4.135 4.134a.75.75 0 01-.531 1.281z"/><path d="M.75 24a.75.75 0 01-.705-1.006l2.38-6.56a.74.74 0 01.175-.274L17.68 1.09c1.392-1.404 3.836-1.406 5.233.002A3.673 3.673 0 0124 3.7c0 .999-.389 1.931-1.094 2.625L19.771 9.46a.75.75 0 11-1.061-1.061l3.14-3.14a2.185 2.185 0 000-3.11c-.833-.84-2.279-.838-3.107-.002L3.778 17.103l-1.776 4.896 4.896-1.776L8.4 18.72a.75.75 0 111.061 1.061L7.84 21.4a.743.743 0 01-.274.175l-6.56 2.38A.759.759 0 01.75 24z"/><path d="M7.308 21.62a.744.744 0 01-.53-.22L2.6 17.223a.75.75 0 111.061-1.061l4.178 4.178a.75.75 0 01-.531 1.28z"/></symbol><symbol id="icon_add_pencil" viewBox="0 0 24 24" xmlns="http://www.w3.org/2000/svg"><path d="M17.5 24c-3.584 0-6.5-2.916-6.5-6.5s2.916-6.5 6.5-6.5 6.5 2.916 6.5 6.5-2.916 6.5-6.5 6.5zm0-11.5c-2.757 0-5 2.243-5 5s2.243 5 5 5 5-2.243 5-5-2.243-5-5-5z"/><path d="M17.5 21a.75.75 0 01-.75-.75v-5.5a.75.75 0 011.5 0v5.5a.75.75 0 01-.75.75z"/><path d="M20.25 18.25h-5.5a.75.75 0 010-1.5h5.5a.75.75 0 010 1.5zm-.379-9.239a.744.744 0 01-.53-.22l-4.135-4.134a.75.75 0 111.061-1.061l4.135 4.134a.75.75 0 01-.531 1.281z"/><path d="M.75 24a.75.75 0 01-.705-1.006l2.38-6.56a.74.74 0 01.175-.274L17.68 1.09c1.392-1.404 3.836-1.406 5.233.002A3.673 3.673 0 0124 3.7c0 .999-.389 1.931-1.094 2.625L19.771 9.46a.75.75 0 11-1.061-1.061l3.14-3.14a2.185 2.185 0 000-3.11c-.833-.84-2.279-.838-3.107-.002L3.778 17.103l-1.776 4.896 4.896-1.776L8.4 18.72a.75.75 0 111.061 1.061L7.84 21.4a.743.743 0 01-.274.175l-6.56 2.38A.759.759 0 01.75 24z"/><path d="M7.308 21.62a.744.744 0 01-.53-.22L2.6 17.223a.75.75 0 111.061-1.061l4.178 4.178a.75.75 0 01-.531 1.28z"/></symbol><symbol id="icon-portfel" viewBox="0 0 24 24" fill="none" xmlns="http://www.w3.org/2000/svg"><path d="M20.25 6.75H3.75A.75.75 0 003 7.5v12c0 .414.336.75.75.75h16.5a.75.75 0 00.75-.75v-12a.75.75 0 00-.75-.75zm-4.5 0v-1.5a1.5 1.5 0 00-1.5-1.5h-4.5a1.5 1.5 0 00-1.5 1.5v1.5M3 15h18" stroke-width="1.5" stroke-linecap="round" stroke-linejoin="round"/></symbol><symbol id="icon-rocket" viewBox="0 0 24 24" fill="none" xmlns="http://www.w3.org/2000/svg"><path d="M13.5 21h-3m1.027-19.148C9.747 3.278 3.79 8.978 8.998 18h6c5.1-9.015-.769-14.712-2.53-16.144a.749.749 0 00-.941-.003z" stroke-width="1.5" stroke-linecap="round" stroke-linejoin="round"/><path d="M6.925 10.44l-2.939 3.526a.75.75 0 00-.156.643l1.16 5.216a.75.75 0 001.2.423L9 17.999m8.019-7.626l2.995 3.595a.75.75 0 01.156.643l-1.159 5.215a.75.75 0 01-1.2.423L15 18.001" stroke-width="1.5" stroke-linecap="round" stroke-linejoin="round"/><path d="M12 10.125a1.125 1.125 0 100-2.25 1.125 1.125 0 000 2.25z" fill="#373943"/></symbol><symbol id="icon-sticker" viewBox="0 0 24 24" fill="none" xmlns="http://www.w3.org/2000/svg"><path d="M12.75 20.25h-4.5a4.5 4.5 0 01-4.5-4.5v-7.5a4.5 4.5 0 014.5-4.5h7.5a4.5 4.5 0 014.5 4.5v4.5c-.75 2.25-5.25 6.75-7.5 7.5z" stroke-width="1.5" stroke-linecap="round" stroke-linejoin="round"/><path d="M12.75 20.25v-3a4.5 4.5 0 014.5-4.5h3" stroke-width="1.5" stroke-linecap="round" stroke-linejoin="round"/></symbol><symbol id="icon-user" viewBox="0 0 24 24" fill="none" xmlns="http://www.w3.org/2000/svg"><path d="M5.985 18.949c0-3.525 1.83-6.13 5.975-6.13 4.146 0 6.064 2.605 6.064 6.13" stroke-width="1.5"/><path d="M15.5 9.272a3.5 3.5 0 11-7 0 3.5 3.5 0 017 0z" stroke-width="1.5"/><path d="M21.25 12a9.25 9.25 0 11-18.5 0 9.25 9.25 0 0118.5 0z" stroke-width="1.5"/></symbol><symbol id="icon-info" viewBox="0 0 24 24" fill="none" xmlns="http://www.w3.org/2000/svg"><path d="M12 21a9 9 0 100-18 9 9 0 000 18z" stroke-width="1.5" stroke-linecap="round" stroke-linejoin="round"/><path d="M11.25 11.25H12v5.25h.75" stroke-width="1.5" stroke-linecap="round" stroke-linejoin="round"/><path d="M12 9a1.125 1.125 0 100-2.25A1.125 1.125 0 0012 9z" fill="#373943"/></symbol><symbol id="icon-headset" viewBox="0 0 24 24" fill="none" xmlns="http://www.w3.org/2000/svg"><path d="M21.137 12h-3a1.5 1.5 0 00-1.5 1.5v3.75a1.5 1.5 0 001.5 1.5h1.5a1.5 1.5 0 001.5-1.5V12zm0 0a9.001 9.001 0 00-9.069-9A9 9 0 003 12v5.25a1.5 1.5 0 001.5 1.5H6a1.5 1.5 0 001.5-1.5V13.5A1.5 1.5 0 006 12H3" stroke-width="1.5" stroke-linecap="round" stroke-linejoin="round"/><path d="M21.137 17.25v2.25a3 3 0 01-3 3H12.75" stroke-width="1.5" stroke-linecap="round" stroke-linejoin="round"/></symbol><symbol id="icon-gearSix" viewBox="0 0 24 24" fill="none" xmlns="http://www.w3.org/2000/svg"><path d="M12 16.5a4.5 4.5 0 100-9 4.5 4.5 0 000 9z" stroke-width="1.5" stroke-linecap="round" stroke-linejoin="round"/><path d="M4.902 8.584c.171-.355.369-.696.59-1.021l-.04-2.433a.752.752 0 01.267-.588A9.74 9.74 0 018.68 2.83a.75.75 0 01.64.063l2.09 1.253h-.001c.393-.03.787-.03 1.18 0l2.087-1.252a.752.752 0 01.643-.062 9.74 9.74 0 012.963 1.708.75.75 0 01.265.586l-.04 2.437v-.002c.221.325.418.667.589 1.022l2.127 1.181a.753.753 0 01.376.526 9.741 9.741 0 01.003 3.417.754.754 0 01-.376.527l-2.13 1.182h.002a7.86 7.86 0 01-.592 1.021l-.026.117.067 2.316a.754.754 0 01-.267.588 9.741 9.741 0 01-2.96 1.712.752.752 0 01-.642-.063l-2.09-1.254.003.001c-.393.03-.788.03-1.18 0l-2.087 1.251a.752.752 0 01-.643.063 9.74 9.74 0 01-2.963-1.708.75.75 0 01-.266-.587l.041-2.437v.003a7.868 7.868 0 01-.59-1.023l-2.127-1.18a.752.752 0 01-.375-.526 9.74 9.74 0 01-.003-3.417.753.753 0 01.375-.527l2.131-1.183-.002.001z" stroke-width="1.5" stroke-linecap="round" stroke-linejoin="round"/></symbol><symbol id="portfolio_figure_bottom_right" viewBox="0 0 137 69" fill="none" xmlns="http://www.w3.org/2000/svg"><path d="M68.5 0C106.332 0 137 30.669 137 68.5V138H0V68.5C0 30.669 30.669 0 68.5 0z" fill="#199F27"/></symbol><symbol id="portfolio_figure_bottom_left" viewBox="0 0 64 64" fill="none" xmlns="http://www.w3.org/2000/svg"><circle cx="32" cy="32" r="32" fill="#3E54D8"/></symbol><symbol id="portfolio_figure_top_right" viewBox="0 0 140 139" fill="none" xmlns="http://www.w3.org/2000/svg"><path d="M0 69.5C0 31.116 31.116 0 69.5 0H140v139H69.5C31.116 139 0 107.884 0 69.5z" fill="#F3B63F"/></symbol><symbol id="portfolio_figure_top_left" viewBox="0 0 192 192" fill="none" xmlns="http://www.w3.org/2000/svg"><path d="M192 0c0 106.039-85.961 192-192 192V0h192z" fill="#ED6373"/></symbol><symbol id="icon-signOut" viewBox="0 0 24 24" fill="none" xmlns="http://www.w3.org/2000/svg"><path d="M16.314 8.063L20.25 12l-3.936 3.938M9.75 12h10.497M9.75 20.25H4.5a.75.75 0 01-.75-.75v-15a.75.75 0 01.75-.75h5.25" stroke-width="1.5" stroke-linecap="round" stroke-linejoin="round"/></symbol><symbol id="icon-house" viewBox="0 0 32 32" fill="none" xmlns="http://www.w3.org/2000/svg"><path d="M19 26v-6a1 1 0 00-1-1h-4a1 1 0 00-1 1v6a1 1 0 01-1 1l-6 .001a1.001 1.001 0 01-1-1V14.443a1 1 0 01.327-.74l10-9.091a1 1 0 011.345 0l10 9.091a.999.999 0 01.328.74v11.558a1.001 1.001 0 01-1 1h-6a1 1 0 01-1-1v0z" stroke="#fff" stroke-width="2" stroke-linecap="round" stroke-linejoin="round"/></symbol><symbol id="icon-PlusCircle" viewBox="0 0 32 32" fill="none" xmlns="http://www.w3.org/2000/svg"><path d="M16 28c6.627 0 12-5.373 12-12S22.627 4 16 4 4 9.373 4 16s5.373 12 12 12z" stroke-width="2" stroke-miterlimit="10"/><path d="M11 16h10m-5-5v10" stroke-width="2" stroke-linecap="round" stroke-linejoin="round"/></symbol><symbol id="icon-PlusFile" viewBox="0 0 32 32" fill="none" xmlns="http://www.w3.org/2000/svg"><path d="M25 28H6.999a1 1 0 01-1-1V5a1 1 0 011-1H19l7 7v16a1.001 1.001 0 01-1 1z" stroke-width="2" stroke-linecap="round" stroke-linejoin="round"/><path d="M19 4v7h7.001M13 19h6m-3-3v6" stroke-width="2" stroke-linecap="round" stroke-linejoin="round"/></symbol><symbol id="icon-ShareNetwork" viewBox="0 0 32 32" fill="none" xmlns="http://www.w3.org/2000/svg"><path d="M8 20a4 4 0 100-8 4 4 0 000 8zm14 9a4 4 0 100-8 4 4 0 000 8zm0-18a4 4 0 100-8 4 4 0 000 8zm-3.365-1.838l-7.272 4.675m0 4.325l7.272 4.675" stroke="#8C9BEA" stroke-width="2" stroke-linecap="round" stroke-linejoin="round"/></symbol><symbol id="icon-ShareNetworkWhite" viewBox="0 0 32 32" fill="none" xmlns="http://www.w3.org/2000/svg"><path d="M8 20a4 4 0 100-8 4 4 0 000 8zm14 9a4 4 0 100-8 4 4 0 000 8zm0-18a4 4 0 100-8 4 4 0 000 8zm-3.365-1.838l-7.272 4.675m0 4.325l7.272 4.675" stroke="#fff" stroke-width="2" stroke-linecap="round" stroke-linejoin="round"/></symbol><symbol id="icon-Printer" viewBox="0 0 32 32" fill="none" xmlns="http://www.w3.org/2000/svg"><path d="M8 10V5h16v5m0 9H8v8.5h16V19z" stroke="#8C9BEA" stroke-width="2" stroke-linecap="round" stroke-linejoin="round"/><path d="M8 22H3.5V12c0-1.105.97-2 2.167-2h20.666c1.197 0 2.167.895 2.167 2v10H24" stroke="#8C9BEA" stroke-width="2" stroke-linecap="round" stroke-linejoin="round"/><path d="M23.5 16a1.5 1.5 0 100-3 1.5 1.5 0 000 3z" fill="#8C9BEA"/></symbol><symbol id="icon-facebook" viewBox="0 0 32 32" xmlns="http://www.w3.org/2000/svg"><g clip-path="url(#clip0)"><path d="M23.446 18.001l.89-5.791h-5.558V8.452c0-1.584.776-3.13 3.265-3.13h2.526V.394S22.277.002 20.085.002c-4.576 0-7.567 2.774-7.567 7.795v4.414H7.431v5.791h5.087v14h6.26v-14l4.668-.001z"/></g><defs><clipPath id="clip0"><path fill="#fff" d="M0 0h32v32H0z"/></clipPath></defs></symbol><symbol id="icon-telegram" viewBox="0 0 40 40" xmlns="http://www.w3.org/2000/svg"><path d="M37.399 7.704l-5.281 24.907c-.399 1.757-1.438 2.195-2.914 1.367l-8.047-5.93-3.883 3.735c-.43.43-.789.789-1.618.789l.58-8.195L31.148 10.9c.649-.578-.141-.9-1.008-.32L11.704 22.19l-7.938-2.485c-1.726-.54-1.757-1.727.36-2.555L35.173 5.189c1.437-.538 2.695.32 2.226 2.517v-.002z"/></symbol><symbol id="icon-instagram" viewBox="0 0 32 32" xmlns="http://www.w3.org/2000/svg"><path d="M16 0c-4.349 0-4.891.021-6.593.093-1.71.084-2.865.349-3.885.745a7.847 7.847 0 00-2.833 1.849A7.757 7.757 0 00.84 5.52C.444 6.54.179 7.696.095 9.405c-.077 1.703-.093 2.244-.093 6.593s.021 4.891.093 6.593c.084 1.704.349 2.865.745 3.885a7.848 7.848 0 001.849 2.833 7.757 7.757 0 002.833 1.849c1.02.391 2.181.661 3.885.745 1.703.077 2.244.093 6.593.093s4.891-.021 6.593-.093c1.704-.084 2.865-.355 3.885-.745a7.847 7.847 0 002.833-1.849 7.716 7.716 0 001.849-2.833c.391-1.02.661-2.181.745-3.885.077-1.703.093-2.244.093-6.593s-.021-4.891-.093-6.593c-.084-1.704-.355-2.871-.745-3.885a7.85 7.85 0 00-1.849-2.833A7.717 7.717 0 0026.478.838c-1.02-.396-2.181-.661-3.885-.745C20.89.016 20.349 0 16 0zm0 2.88c4.271 0 4.781.021 6.469.093 1.557.073 2.405.333 2.968.553a4.99 4.99 0 011.844 1.197c.53.516.938 1.144 1.192 1.839.22.563.48 1.411.553 2.968.072 1.688.093 2.199.093 6.469 0 4.27-.021 4.781-.099 6.469-.084 1.557-.344 2.405-.563 2.968-.303.751-.641 1.276-1.199 1.844a5.05 5.05 0 01-1.844 1.192c-.556.22-1.416.48-2.979.553-1.697.072-2.197.093-6.479.093s-4.781-.021-6.48-.099c-1.557-.084-2.416-.344-2.98-.563-.76-.303-1.28-.641-1.838-1.199-.563-.563-.921-1.099-1.197-1.844-.224-.556-.48-1.416-.563-2.979-.057-1.677-.084-2.197-.084-6.459 0-4.26.027-4.781.084-6.479.083-1.563.339-2.421.563-2.979.276-.761.635-1.281 1.197-1.844.557-.557 1.079-.917 1.839-1.199.563-.219 1.401-.479 2.964-.557 1.697-.061 2.197-.083 6.473-.083L16 2.88zm0 4.907a8.21 8.21 0 00-7.589 11.356A8.209 8.209 0 0016 24.213 8.21 8.21 0 0024.213 16 8.211 8.211 0 0016 7.787zm0 13.546A5.33 5.33 0 0110.667 16 5.33 5.33 0 0116 10.667 5.33 5.33 0 0121.333 16 5.33 5.33 0 0116 21.333zM26.464 7.459a1.923 1.923 0 01-3.28 1.359 1.92 1.92 0 113.28-1.359z"/></symbol><symbol id="icon-twitter" viewBox="0 0 32 32" xmlns="http://www.w3.org/2000/svg"><g clip-path="url(#clip0)"><path d="M31.937 6.093a13.358 13.358 0 01-3.765 1.032 6.603 6.603 0 002.885-3.63 13.682 13.682 0 01-4.172 1.578 6.56 6.56 0 00-11.178 5.973c-5.453-.255-10.287-2.875-13.52-6.833a6.458 6.458 0 00-.89 3.303 6.555 6.555 0 002.915 5.457 6.519 6.519 0 01-2.968-.817v.08a6.567 6.567 0 005.26 6.436 6.758 6.758 0 01-1.724.23c-.421 0-.823-.042-1.224-.116a6.59 6.59 0 006.14 4.557 13.17 13.17 0 01-8.135 2.802 13 13 0 01-1.563-.088 18.656 18.656 0 0010.079 2.948c12.067 0 18.661-9.995 18.661-18.651 0-.276 0-.558-.021-.84a13.13 13.13 0 003.281-3.396l-.061-.025z"/></g><defs><clipPath id="clip0"><path fill="#fff" d="M0 0h32v32H0z"/></clipPath></defs></symbol><symbol id="icon-link" viewBox="0 0 32 32" xmlns="http://www.w3.org/2000/svg"><path d="M15.293 8.93l2.475-2.475a5.5 5.5 0 117.778 7.778l-3.535 3.535a5.498 5.498 0 01-7.779 0" stroke-width="2" stroke-linecap="round" stroke-linejoin="round"/><path d="M16.708 23.07l-2.475 2.476a5.5 5.5 0 11-7.778-7.779l3.535-3.535a5.5 5.5 0 017.778 0" stroke-width="2" stroke-linecap="round" stroke-linejoin="round"/></symbol><symbol id="icon-target" viewBox="0 0 26 26" fill="none" xmlns="http://www.w3.org/2000/svg"><path d="M25.74 5.496a.8.8 0 01-.173.872l-3.2 3.2a.8.8 0 01-.567.234h-4.468l-2.165 2.164a2.4 2.4 0 11-1.131-1.13L16.2 8.67V4.202a.801.801 0 01.234-.567l3.2-3.2A.8.8 0 0121 1.002v4h4a.8.8 0 01.74.494zM23.07 6.6H20.2a.8.8 0 01-.8-.8V2.934l-1.6 1.6v3.668h3.67l1.6-1.6V6.6zm2.102 2.426a12.8 12.8 0 01.628 3.976A12.8 12.8 0 1116.976.83l-1.292 1.295a11.2 11.2 0 108.193 8.195l1.295-1.294zm-4.332 2.376a8 8 0 11-6.24-6.24v1.641a6.4 6.4 0 104.599 4.599h1.641z" fill="#3E54D8"/></symbol><symbol id="icon-update" viewBox="0 0 32 32" fill="none" xmlns="http://www.w3.org/2000/svg"><path d="M16 10v6m5.196 3L16 16m7.02-3.535h5v-5" stroke="#F3B63F" stroke-width="2.667" stroke-linecap="round" stroke-linejoin="round"/><path d="M23.778 23.778a11 11 0 110-15.556l4.243 4.242" stroke="#F3B63F" stroke-width="2.667" stroke-linecap="round" stroke-linejoin="round"/></symbol><symbol id="icon-arrow-down" viewBox="0 0 10 10" xmlns="http://www.w3.org/2000/svg"><path d="M4.64 7.338c.04.05.094.09.156.119a.496.496 0 00.407 0 .422.422 0 00.156-.119l3.938-4.875a.33.33 0 00.028-.388.406.406 0 00-.161-.146.493.493 0 00-.227-.054H1.062c-.08 0-.158.02-.226.055a.407.407 0 00-.16.146.332.332 0 00.026.387L4.64 7.338z"/></symbol><symbol id="icon-dottes" viewBox="0 0 25 5" fill="none" xmlns="http://www.w3.org/2000/svg"><circle cx="2.5" cy="2.5" r="2.5" fill="#3E54D8"/><circle cx="12.5" cy="2.5" r="2.5" fill="#3E54D8"/><circle cx="22.5" cy="2.5" r="2.5" fill="#3E54D8"/></symbol><symbol id="icon-ArrowsOutCardinal" viewBox="0 0 32 32" fill="none" xmlns="http://www.w3.org/2000/svg"><path d="M19.536 25.465L16 29l-3.535-3.535M16 20v9M12.465 6.535L16 3l3.536 3.535M16 12V3M6.535 19.536L3 16l3.535-3.535M12 16H3m22.465-3.535L29 16l-3.535 3.536M20 16h9" stroke-width="2" stroke-linecap="round" stroke-linejoin="round"/></symbol><symbol id="icon-strategy-sprite-red" viewBox="0 0 130 260" fill="none" xmlns="http://www.w3.org/2000/svg"><path d="M-130 130C-130 58.203-71.797 0 0 0s130 58.203 130 130S71.797 260 0 260h-130V130z" fill="#ED6373"/></symbol><symbol id="icon-strategy-sprite-green" viewBox="0 0 126 126" fill="none" xmlns="http://www.w3.org/2000/svg"><path d="M0 124C0 55.517 55.517 0 124 0h128v252H124C55.517 252 0 196.483 0 128v-4z" fill="#199F27"/></symbol><symbol id="icon-search" viewBox="0 0 24 24" fill="none" xmlns="http://www.w3.org/2000/svg"><path d="M10.875 18.75a7.875 7.875 0 100-15.75 7.875 7.875 0 000 15.75zm5.566-2.307L20.998 21" stroke="#3E54D8" stroke-width="1.5" stroke-linecap="round" stroke-linejoin="round"/></symbol><symbol id="icon-pencil" viewBox="0 0 24 24" fill="none" xmlns="http://www.w3.org/2000/svg"><path d="M8.69 20.25H4.5a.75.75 0 01-.75-.75v-4.19a.75.75 0 01.22-.53L15.22 3.53a.75.75 0 011.06 0l4.19 4.19a.75.75 0 010 1.06L9.22 20.03a.75.75 0 01-.53.22zM12.75 6L18 11.25m-9.047 8.951L3.8 15.047" stroke-width="1.5" stroke-linecap="round" stroke-linejoin="round"/></symbol><symbol id="icon-trash" viewBox="0 0 24 24" fill="none" xmlns="http://www.w3.org/2000/svg"><path d="M20.25 5.25H3.75m6 4.5v6m4.5-6v6m4.5-10.5V19.5a.75.75 0 01-.75.75H6a.75.75 0 01-.75-.75V5.25m10.5 0v-1.5a1.5 1.5 0 00-1.5-1.5h-4.5a1.5 1.5 0 00-1.5 1.5v1.5" stroke-width="1.5" stroke-linecap="round" stroke-linejoin="round"/></symbol><symbol id="icon-caret-pagination" viewBox="0 0 16 16" fill="none" xmlns="http://www.w3.org/2000/svg"><path d="M6 13l5-5-5-5" stroke-width="2.5" stroke-linecap="round" stroke-linejoin="round"/></symbol><symbol id="icon-info-2" viewBox="0 0 32 32" fill="none" xmlns="http://www.w3.org/2000/svg"><path d="M16 28c6.627 0 12-5.373 12-12S22.627 4 16 4 4 9.373 4 16s5.373 12 12 12z" stroke-width="2" stroke-linecap="round" stroke-linejoin="round"/><path d="M15 15h1v7h1" stroke-width="2" stroke-linecap="round" stroke-linejoin="round"/><path d="M16 12a1.5 1.5 0 100-3 1.5 1.5 0 000 3z"/></symbol><symbol id="icon-closeModal" viewBox="0 0 29 29" fill="none" xmlns="http://www.w3.org/2000/svg"><path d="M27.156 1.844L1.844 27.156m25.312 0L1.844 1.844" stroke="#3E54D8" stroke-width="2.813" stroke-linecap="round" stroke-linejoin="round"/></symbol><symbol id="icon-closeModal-white" viewBox="0 0 29 29" fill="none" xmlns="http://www.w3.org/2000/svg"><path d="M27.156 1.844L1.844 27.156m25.312 0L1.844 1.844" stroke="#FFF" stroke-width="2.813" stroke-linecap="round" stroke-linejoin="round"/></symbol><symbol id="icon-closeModal-gray" viewBox="0 0 24 25" fill="none" xmlns="http://www.w3.org/2000/svg"><path d="M18.75 5.75l-13.5 13.5m13.5 0L5.25 5.75" stroke="#929398" stroke-width="1.5" stroke-linecap="round" stroke-linejoin="round"/></symbol><symbol id="icon-plus" viewBox="0 0 24 24" fill="none" xmlns="http://www.w3.org/2000/svg"><path d="M3.75 12h16.5M12 3.75v16.5" stroke="#3E54D8" stroke-width="2" stroke-linecap="round" stroke-linejoin="round"/></symbol><symbol id="icon-minus" viewBox="0 0 22 22" fill="none" xmlns="http://www.w3.org/2000/svg"><path d="M3.438 11h15.124" stroke="#3E54D8" stroke-width="2" stroke-linecap="round" stroke-linejoin="round"/></symbol><symbol id="icon-caret-down" viewBox="0 0 12 12" fill="none" xmlns="http://www.w3.org/2000/svg"><path d="M2.25 4.5L6 8.25 9.75 4.5" stroke-width="1.875" stroke-linecap="round" stroke-linejoin="round"/></symbol><symbol id="icon-bitcoin" viewBox="0 0 24 24" fill="none" xmlns="http://www.w3.org/2000/svg"><g opacity=".7" clip-path="url(#clip0)" fill="#F7931A"><path d="M11.385 15.275c1.11-.004 3.54-.013 3.512-1.558-.027-1.58-2.36-1.485-3.497-1.438-.127.005-.24.01-.332.011l.052 2.987c.075-.002.165-.002.265-.002zm-.118-4.353c.927 0 2.95-.003 2.926-1.408-.026-1.437-1.97-1.352-2.918-1.31-.107.005-.2.01-.278.01l.047 2.71.223-.002z"/><path fill-rule="evenodd" clip-rule="evenodd" d="M8.893 23.589c6.401 1.715 12.98-2.084 14.696-8.483 1.715-6.4-2.085-12.98-8.486-14.694C8.706-1.303 2.126 2.496.413 8.897c-1.715 6.4 2.083 12.979 8.481 14.693v-.001zm4.579-16.943c1.751.155 3.138.693 3.293 2.3.116 1.176-.377 1.883-1.163 2.283 1.295.31 2.107 1.08 1.946 2.805-.198 2.142-1.795 2.717-4.076 2.847l-.001 2.25-1.356.002v-2.22c-.352 0-.712-.003-1.085-.011l.002 2.23H9.675v-2.254l-.383-.003c-.194-.003-.39-.005-.586-.005H6.939l.27-1.62s1.004.015.986 0c.384-.001.486-.276.51-.45v-3.558h.145a1.116 1.116 0 00-.144-.009v-2.54c-.052-.275-.23-.594-.78-.594.016-.02-.986 0-.986 0V6.651h1.87v.008c.28 0 .57-.005.863-.011l.001-2.23 1.356.001v2.184c.362-.006.726-.014 1.083-.014V4.42h1.358v2.229-.002z"/></g><defs><clipPath id="clip0"><path fill="#fff" d="M0 0h24v24H0z"/></clipPath></defs></symbol><symbol id="icon-dollar" viewBox="0 0 24 24" fill="none" xmlns="http://www.w3.org/2000/svg"><path fill-rule="evenodd" clip-rule="evenodd" d="M12 24C5.372 24 0 18.628 0 12S5.372 0 12 0s12 5.372 12 12-5.372 12-12 12zm4.875-9.634c0-1.893-1.182-2.961-3.947-3.627v-3.33c.855.175 1.673.543 2.473 1.122l1.02-1.648A7.118 7.118 0 0013 5.551V4.5h-1.583v1.016c-2.274.176-3.82 1.473-3.82 3.365 0 1.98 1.237 2.944 3.893 3.61v3.434c-1.183-.175-2.165-.7-3.202-1.507l-1.164 1.595a8.621 8.621 0 004.293 1.735V19.5H13v-1.735c2.31-.192 3.874-1.472 3.874-3.4zM11.49 10.37c-1.4-.402-1.745-.876-1.745-1.612 0-.77.6-1.384 1.746-1.472l-.001 3.084zm3.239 4.118c0 .841-.655 1.42-1.801 1.507v-3.171c1.419.403 1.8.876 1.8 1.665v-.001z" fill="#199F27" opacity=".7"/></symbol><symbol id="icon-WarningCircle" viewBox="0 0 24 24" fill="none" xmlns="http://www.w3.org/2000/svg"><path d="M12 21a9 9 0 100-18 9 9 0 000 18z" stroke="#3E54D8" stroke-width="2" stroke-miterlimit="10"/><path d="M12 7.5v5.25" stroke="#3E54D8" stroke-width="2" stroke-linecap="round" stroke-linejoin="round"/><path d="M12 17.25A1.125 1.125 0 1012 15a1.125 1.125 0 000 2.25z" fill="#3E54D8"/></symbol><symbol id="icon-ICP" viewBox="0 0 20 20" fill="none" xmlns="http://www.w3.org/2000/svg"><circle cx="10" cy="10" r="10" fill="#A4E3D4"/><path d="M14.356 6.246c-.838 0-1.752.447-2.717 1.327a11.59 11.59 0 00-1.148 1.219s.47.53.983 1.097c.28-.344.68-.81 1.143-1.231.857-.785 1.415-.944 1.74-.944 1.205 0 2.183.989 2.183 2.214a2.214 2.214 0 01-2.184 2.214.928.928 0 01-.21-.026c.35.16.73.274 1.086.274 2.21 0 2.64-1.493 2.666-1.601.064-.274.102-.562.102-.855-.006-2.035-1.638-3.688-3.644-3.688z" fill="url(#paint0_linear)"/><path d="M6.644 13.601c.838 0 1.752-.446 2.717-1.327.457-.414.857-.861 1.15-1.218 0 0-.47-.53-.985-1.098-.279.345-.679.81-1.142 1.232-.857.778-1.422.944-1.74.944-1.206 0-2.183-.99-2.183-2.214 0-1.212.977-2.201 2.183-2.214.058 0 .127.006.21.025-.35-.16-.73-.274-1.086-.274-2.209 0-2.64 1.493-2.666 1.602a3.796 3.796 0 00-.101.854c0 2.036 1.631 3.688 3.643 3.688z" fill="url(#paint1_linear)"/><path fill-rule="evenodd" clip-rule="evenodd" d="M8.321 8.69C8.08 8.46 6.9 7.522 5.77 7.49c-2.013-.05-2.605 1.384-2.656 1.57.386-1.608 1.823-2.808 3.532-2.814 1.394 0 2.802 1.338 3.842 2.545l.005-.006s.47.53.984 1.098c0 0 .584.676 1.206 1.27.241.23 1.415 1.154 2.545 1.186 2.07.058 2.641-1.454 2.673-1.57-.38 1.615-1.822 2.82-3.536 2.827-1.394 0-2.802-1.338-3.847-2.546a1.092 1.092 0 00-.006.007s-.47-.53-.984-1.098c0 0-.584-.676-1.206-1.27zm-5.211.383z" fill="#29ABE2"/></symbol><symbol id="icon-BCH" viewBox="0 0 20 20" fill="none" xmlns="http://www.w3.org/2000/svg"><circle cx="10" cy="10" r="10" fill="#F7931A"/><path d="M12.486 6.706c-.402-1.146-1.5-1.283-2.783-1.077l-.401-1.627-.98.245.392 1.587c-.255.069-.52.137-.774.206l-.392-1.597-.98.245.402 1.626c-.206.059-.421.118-.617.167v-.01L5 6.814l.265 1.058s.715-.196.705-.176c.392-.098.579.098.667.294l.46 1.862c.04-.01.069-.02.108-.02l-.108.03.637 2.606c.01.127-.01.352-.284.421.02.01-.715.176-.715.176l.098 1.235 1.273-.324c.236-.058.47-.117.696-.166l.402 1.646.98-.245-.402-1.636c.274-.06.529-.128.783-.186l.402 1.626.98-.245-.402-1.646c1.617-.51 2.665-1.225 2.42-2.832-.196-1.293-.921-1.704-1.91-1.695.5-.44.724-1.048.43-1.89zm-.5 3.87c.304 1.235-1.812 1.617-2.469 1.784l-.539-2.185c.667-.157 2.695-.872 3.008.401zm-1.205-2.959c.274 1.117-1.49 1.43-2.038 1.568l-.49-1.98c.549-.146 2.234-.763 2.528.412z" fill="#fff"/></symbol><symbol id="icon-LTC" viewBox="0 0 20 20" fill="none" xmlns="http://www.w3.org/2000/svg"><g clip-path="url(#clip0)"><path d="M10.001 18.917a8.918 8.918 0 100-17.835 8.918 8.918 0 000 17.835z" fill="#fff"/><path d="M10 0a10 10 0 1010 10 9.97 9.97 0 00-9.942-10H10zm.17 10.339l-1.042 3.51h5.57a.282.282 0 01.29.272v.092l-.484 1.67a.36.36 0 01-.364.267H5.617l1.429-4.867-1.598.485.363-1.114 1.598-.485 2.01-6.828a.366.366 0 01.363-.266h2.155a.281.281 0 01.29.271v.092l-1.694 5.763 1.598-.484-.34 1.162-1.622.46z" fill="#345D9D"/></g><defs><clipPath id="clip0"><path fill="#fff" d="M0 0h20v20H0z"/></clipPath></defs></symbol><symbol id="icon-ethereum" viewBox="0 0 32 32" fill="none" xmlns="http://www.w3.org/2000/svg"><circle cx="16" cy="16" r="16" fill="#111A44"/><path d="M15.972 5.5l-4.914 6.762L9 22.258l6.972 4.242 6.972-4.242-2.1-10.038-4.872-6.72zm-5.838 16.296l1.554-7.602 3.528 10.71-5.082-3.108zm2.058-9.324l3.78-5.208 3.78 5.208-3.78 11.424-3.78-11.424zm4.494 12.432l3.528-10.71 1.554 7.602-5.082 3.108z" fill="#fff"/></symbol><symbol id="icon-breadcrumbClose" viewBox="0 0 24 24" fill="none" xmlns="http://www.w3.org/2000/svg"><circle cx="12" cy="12" r="11.571" fill="#fff" stroke="#D3E3FF" stroke-width=".857"/><path d="M16.34 7.661L7.66 16.34m8.68 0L7.66 7.66" stroke="#373943" stroke-width="1.5" stroke-linecap="round" stroke-linejoin="round"/></symbol><symbol id="icon-modal-notify-check" viewBox="0 0 228 224" fill="none" xmlns="http://www.w3.org/2000/svg"><path d="M114 92.625v35.625m-12.334-92.639L23.313 170.98a14.25 14.25 0 0012.333 21.388h156.707a14.25 14.25 0 0012.333-21.388L126.332 35.611a14.247 14.247 0 00-19.451-5.206 14.257 14.257 0 00-5.215 5.206v0z" stroke="#F3B63F" stroke-width="14.25" stroke-linecap="round" stroke-linejoin="round"/><path d="M114 171c5.903 0 10.688-4.785 10.688-10.688 0-5.902-4.785-10.687-10.688-10.687-5.903 0-10.688 4.785-10.688 10.687 0 5.903 4.785 10.688 10.688 10.688z" fill="#F3B63F"/></symbol><symbol id="icon-modal-notify-thank" viewBox="0 0 228 228" fill="none" xmlns="http://www.w3.org/2000/svg"><path d="M153.188 92.625L100.937 142.5l-26.124-24.938" stroke="#3E54D8" stroke-width="12" stroke-linecap="round" stroke-linejoin="round"/><path d="M114 199.5c47.22 0 85.5-38.28 85.5-85.5S161.22 28.5 114 28.5 28.5 66.78 28.5 114s38.28 85.5 85.5 85.5z" stroke="#3E54D8" stroke-width="12" stroke-linecap="round" stroke-linejoin="round"/></symbol><symbol id="icon-download" viewBox="0 0 24 24" fill="none" xmlns="http://www.w3.org/2000/svg"><path d="M8.063 10.313L12 14.25l3.938-3.937M12 3.75v10.497m8.25.003v5.25a.75.75 0 01-.75.75h-15a.75.75 0 01-.75-.75v-5.25" stroke-width="1.5" stroke-linecap="round" stroke-linejoin="round"/></symbol><symbol id="eye" viewBox="0 0 24 24" fill="none" xmlns="http://www.w3.org/2000/svg"><path d="M12 5.25C4.5 5.25 1.5 12 1.5 12s3 6.75 10.5 6.75S22.5 12 22.5 12s-3-6.75-10.5-6.75z" stroke-width="1.5" stroke-linecap="round" stroke-linejoin="round"/><path d="M12 15.75a3.75 3.75 0 100-7.5 3.75 3.75 0 000 7.5z" stroke-width="1.5" stroke-linecap="round" stroke-linejoin="round"/></symbol><symbol id="eye_slash" viewBox="0 0 24 24" fill="none" xmlns="http://www.w3.org/2000/svg"><path d="M4.5 3.75l15 16.5m-4.977-5.475a3.75 3.75 0 01-5.046-5.55" stroke-width="1.5" stroke-linecap="round" stroke-linejoin="round"/><path d="M6.937 6.43C3.115 8.367 1.5 12 1.5 12s3 6.75 10.5 6.75a11.075 11.075 0 005.062-1.181m2.495-1.716C21.601 14.023 22.5 12 22.5 12s-3-6.75-10.5-6.75a11.66 11.66 0 00-1.939.157m2.645 2.909a3.752 3.752 0 013.028 3.331" stroke-width="1.5" stroke-linecap="round" stroke-linejoin="round"/></symbol><symbol id="icon-bell" viewBox="0 0 28 28" fill="none" xmlns="http://www.w3.org/2000/svg"><path d="M6.147 11.375A7.864 7.864 0 0114.059 3.5c4.33.032 7.794 3.632 7.794 7.974v.776c0 3.917.82 6.19 1.541 7.433A.874.874 0 0122.643 21H5.357a.875.875 0 01-.753-1.317c.723-1.243 1.543-3.516 1.543-7.433v-.875zM10.5 21v.875a3.5 3.5 0 107 0V21" stroke-width="1.75" stroke-linecap="round" stroke-linejoin="round"/></symbol><symbol id="icon-dangerCircle" viewBox="0 0 24 24" fill="none" xmlns="http://www.w3.org/2000/svg"><path d="M12 21a9 9 0 100-18 9 9 0 000 18z" stroke="#DE4355" stroke-width="1.5" stroke-miterlimit="10"/><path d="M12 7.5v5.25" stroke="#DE4355" stroke-width="1.5" stroke-linecap="round" stroke-linejoin="round"/><path d="M12 17.25A1.125 1.125 0 1012 15a1.125 1.125 0 000 2.25z" fill="#DE4355"/></symbol><symbol id="icon-healthgreen" viewBox="0 0 24 24" fill="none" xmlns="http://www.w3.org/2000/svg"><path fill-rule="evenodd" clip-rule="evenodd" d="M10.834 3.4a2.768 2.768 0 012.868 0l1.019.623c1.429.873 3.056 1.067 4.691 1.264.529.063 1.058.126 1.581.213 0 0 .012.917 0 1.332l-.105 3.576c-.09 3.067-1.453 5.974-3.792 8.087-1.104.996-2.245 1.897-3.557 2.645a2.773 2.773 0 01-2.55.093 16.798 16.798 0 01-4.08-2.738c-2.339-2.113-3.702-5.02-3.792-8.087l-.104-3.564c-.012-.423 0-1.345 0-1.345.425-.05.858-.091 1.295-.132 1.926-.183 3.917-.372 5.55-1.37l.976-.597zm.164 7.6V7.5h2V11h3.5v2h-3.5v3.5h-2V13h-3.5v-2h3.5z" fill="#199F27"/></symbol><symbol id="icon-trendUp" viewBox="0 0 20 20" fill="none" xmlns="http://www.w3.org/2000/svg"><path d="M18.125 4.375l-7.5 7.5L7.5 8.75l-5.625 5.625" stroke="#3E54D8" stroke-width="1.25" stroke-linecap="round" stroke-linejoin="round"/><path d="M18.125 9.375v-5h-5" stroke="#3E54D8" stroke-width="1.25" stroke-linecap="round" stroke-linejoin="round"/></symbol><symbol id="icon-pseudoGraphBig" viewBox="0 0 114 46" fill="none" xmlns="http://www.w3.org/2000/svg"><path d="M6.082 44.095c1.694-1.23 3.538-2.016 5.425-2.822 2.155-.92 4.368-1.865 6.48-3.52 1.235-.896 2.474-2.087 3.727-3.291 2.43-2.336 4.908-4.719 7.495-5.081 2.745-.385 5.59 1.109 8.484 2.627 1.654.868 3.324 1.745 5 2.283 4.271 1.951 8.585 1.347 11.688-5.037 1.495-2.534 2.846-6.1 4.175-9.608 1.83-4.832 3.619-9.556 5.687-11.323 2.687-1.795 5.745.338 8.87 2.519 1.553 1.083 3.123 2.179 4.672 2.808 2.106.768 4.165.48 6.224.19 2.058-.288 4.117-.576 6.224.191 1.939.623 3.992 2.059 6.012 3.472 2.777 1.942 5.492 3.84 7.763 3.522 2.156-.302 3.981-2.258 5.807-4.213.207-.223.415-.445.623-.665" stroke-width="3" stroke-linecap="round"/></symbol><symbol id="icon-pseudoGraphSmall" viewBox="0 0 43 21" fill="none" xmlns="http://www.w3.org/2000/svg"><path d="M1.112 19.919c.646-.634 1.36-1.024 2.09-1.423.834-.456 1.69-.924 2.492-1.781.47-.463.936-1.086 1.406-1.715.913-1.222 1.844-2.468 2.862-2.61 1.079-.152 2.238.723 3.417 1.612.674.509 1.354 1.022 2.03 1.351 1.733 1.155 3.43.918 4.523-2.497.538-1.35.997-3.265 1.449-5.15.622-2.595 1.23-5.132 2.012-6.051 1.026-.922 2.283.306 3.568 1.562.638.624 1.284 1.254 1.91 1.63.851.464 1.66.35 2.47.237.81-.114 1.62-.227 2.47.236.782.381 1.626 1.208 2.456 2.02 1.142 1.119 2.258 2.212 3.15 2.087.849-.119 1.53-1.146 2.212-2.174l.232-.35" stroke-width="2" stroke-linecap="round"/></symbol><symbol id="icon-graphChartBar" viewBox="0 0 24 24" fill="none" xmlns="http://www.w3.org/2000/svg"><path d="M4.125 19.5v-6.75h5.25m12 6.75H2.625m6.75 0V8.25h5.25m5.25-4.5h-5.25V19.5h5.25V3.75z" stroke-width="1.5" stroke-linecap="round" stroke-linejoin="round"/></symbol><symbol id="icon-graphChartLine" viewBox="0 0 24 20" fill="none" xmlns="http://www.w3.org/2000/svg"><path d="M1.498 15l3.825-6.136 3.092 3.462 3.31-5.63 4.092 6.74L22 2" stroke-width="1.5" stroke-linecap="round" stroke-linejoin="round"/></symbol><symbol id="icon-graphChartForecast" viewBox="0 0 24 24" fill="none" xmlns="http://www.w3.org/2000/svg"><path d="M21 19.5H3v-15" stroke="#3E54D8" stroke-width="1.459" stroke-linecap="round" stroke-linejoin="round"/><path d="M21 9l-6 5.25-6-4.5L3 15" stroke="#3E54D8" stroke-width="1.459" stroke-linecap="round" stroke-linejoin="round"/></symbol><symbol id="icon-checkCircle" viewBox="0 0 24 24" fill="none" xmlns="http://www.w3.org/2000/svg"><path d="M16.125 9.75l-5.5 5.25-2.75-2.625" stroke="#fff" stroke-width="2" stroke-linecap="round" stroke-linejoin="round"/><path d="M12 21a9 9 0 100-18 9 9 0 000 18z" stroke="#fff" stroke-width="2" stroke-linecap="round" stroke-linejoin="round"/></symbol><symbol id="icon_dividendStatus__trophy" viewBox="0 0 32 32" fill="none" xmlns="http://www.w3.org/2000/svg"><path d="M30.4 1.6h-4.8V0H6.4v1.6H1.6C.64 1.6 0 2.24 0 3.2v3.84c0 3.68 2.72 6.72 6.4 7.2v.16c0 4.64 3.2 8.48 7.52 9.44L12.8 27.2H9.12c-.64 0-1.28.48-1.44 1.12L6.4 32h19.2l-1.28-3.68c-.16-.64-.8-1.12-1.44-1.12H19.2l-1.12-3.36c4.32-.96 7.52-4.8 7.52-9.44v-.16c3.68-.48 6.4-3.52 6.4-7.2V3.2c0-.96-.64-1.6-1.6-1.6zm-24 9.44c-1.76-.48-3.2-2.08-3.2-4V4.8h3.2v6.24zM19.2 16L16 14.24 12.8 16l.8-3.2-2.4-3.2h3.36L16 6.4l1.44 3.2h3.36l-2.4 3.2.8 3.2zm9.6-8.96c0 1.92-1.44 3.68-3.2 4V4.8h3.2v2.24z" fill="#F3B63F"/></symbol><symbol id="icon_dividendStatus__crown" viewBox="0 0 42 42" fill="none" xmlns="http://www.w3.org/2000/svg"><path d="M36.006 14.854a.724.724 0 00-.358-.084c-.447 0-1.08.29-1.955.719-.35.173-.705.339-1.063.496-.098 1.16-.392 2.446-.899 3.858l-.231.657-.218.5a29.444 29.444 0 01-1.766 3.534h2.804s2.661-4.036 3.383-5.513c.374-.764.638-1.45.783-2.039.141-.571.174-1.06.088-1.41-.075-.323-.244-.536-.568-.718zM10.5 20.5l-.219-.625c-.514-1.428-.814-2.725-.912-3.894a25.154 25.154 0 01-1.062-.496c-.876-.43-1.508-.72-1.956-.72a.722.722 0 00-.357.085c-.323.182-.492.396-.57.716-.082.352-.052.84.09 1.411.146.59.408 1.276.784 2.04.72 1.476 3.383 5.512 3.383 5.512h2.803a29.472 29.472 0 01-1.763-3.526L10.5 20.5z" fill="#F3B63F"/><path d="M40.53 14.62c-.337-1.409-2.468-5.62-7.534-3.308-.358-.642-2.316-3.921-6.843-2.495l.002-1.426h-2.11l-1.131-1.485H18.95l-1.052 1.485h-2.052s0 1.388.002 1.426c-4.98-1.426-6.746 2.333-6.844 2.495-5.58-2.374-7.19 1.871-7.533 3.309-.41 1.714-.026 3.742 1.175 6.198.476.972 3.524 5.894 3.823 6.392a1.637 1.637 0 00.26 2.358v3.575a1.644 1.644 0 00-.645 1.305 1.65 1.65 0 001.645 1.643l.002.001h26.542a1.652 1.652 0 001.653-1.645c0-.535-.259-1.011-.657-1.312v-3.559a1.638 1.638 0 00.266-2.372c.3-.498 3.343-5.414 3.818-6.385 1.203-2.457 1.587-4.485 1.178-6.2zm-6.26 20.16H7.732a.337.337 0 01-.34-.332c0-.184.152-.332.34-.332h26.537c.187 0 .339.148.339.332a.337.337 0 01-.34.332zm0-6.183H7.737a.336.336 0 01-.34-.332c0-.184.152-.333.34-.333H34.27c.187 0 .339.15.339.333a.336.336 0 01-.34.332zm.076-1.96H7.656c-.918-1.543-3.178-5.063-3.83-6.395-1.06-2.171-1.414-3.91-1.078-5.319.256-1.072 1.988-4.654 6.899-1.861 1.164-3.08 4.359-4.27 8.307-1.871-.464-.964-.796-1.867-.796-2.489h7.684c0 .622-.331 1.525-.795 2.489 3.873-2.316 6.795-1.435 8.307 1.87 5.236-2.853 6.643.79 6.9 1.862.335 1.409-.018 3.148-1.079 5.319-.651 1.331-2.91 4.851-3.83 6.396z" fill="#F3B63F"/><path d="M23.674 10.395a3.894 3.894 0 01-2.673 1.05 3.901 3.901 0 01-2.665-1.04 2.695 2.695 0 002.668 2.363 2.695 2.695 0 002.67-2.373zm5.374 8.749s1.335-2.632.744-5.038c-.549-2.232-2.239-1.586-3.894-.736-1.04.533-2.218 1.081-3.52 1.24v4.005c.7.12 1.363.32 1.906.627-.546.308-1.207.508-1.905.627v4.665h3.902c.141-.24 1.75-2.981 2.286-4.205-.627-.277-1.2-.619-1.642-1.03.655-.34 2.123-.155 2.123-.155zm-16.842-5.042c-.527 2.038.747 5.046.747 5.046s1.283-.151 2.218.146c-.462.43-1.065.783-1.726 1.065.533 1.211 2.13 3.931 2.27 4.17h3.907v-4.67c-.699-.12-1.36-.32-1.91-.621.547-.305 1.21-.506 1.91-.626v-4.006c-1.302-.158-2.493-.69-3.523-1.24-1.493-.795-3.32-1.489-3.893.736z" fill="#F3B63F"/></symbol><symbol id="icon_dividendStatus__topHat" viewBox="0 0 34 34" fill="none" xmlns="http://www.w3.org/2000/svg"><path d="M32.586 22.249c-.883-2.058-3.008-2.133-5.88-1.722.022-4.796.83-9.377 2.365-14.382.714-1.792-4.606-5.047-12.07-5.082-7.464.035-12.785 3.289-12.07 5.081 1.526 4.976 2.328 9.588 2.357 14.381-2.868-.41-4.99-.333-5.874 1.723C-.51 26.072 5.572 32.937 17 32.937c11.43 0 17.511-6.865 15.586-10.688zM6.632 25.416s.72-2.52.605-3.854c6.271 5.644 13.257 5.644 19.527 0 .024 1.36.605 3.854.605 3.854-6.173 5.874-14.564 5.874-20.737 0z" fill="#F3B63F"/></symbol><symbol id="icon_lightning" viewBox="0 0 20 30" fill="none" xmlns="http://www.w3.org/2000/svg"><path fill-rule="evenodd" clip-rule="evenodd" d="M14.051.11c.362.204.556.648.477 1.086l-1.667 9.166 6.55 2.702a.975.975 0 01.565.707 1.07 1.07 0 01-.22.911l-12.728 15a.85.85 0 01-1.08.208c-.361-.204-.556-.648-.476-1.086l1.667-9.166-6.55-2.702a.975.975 0 01-.565-.707 1.07 1.07 0 01.22-.911l12.728-15a.85.85 0 011.08-.208z" fill="#F3B63F"/></symbol><svg id="icon-crown" width="24" height="24" fill="none" xmlns="http://www.w3.org/2000/svg"><path d="M4.23 18.377a.752.752 0 00.935.55 25.678 25.678 0 0113.663-.002.75.75 0 00.935-.55l2.39-10.154a.75.75 0 00-1.035-.857L16.376 9.47a.75.75 0 01-.96-.32l-2.762-4.97a.75.75 0 00-1.31 0L8.581 9.15a.75.75 0 01-.96.32L2.879 7.363a.75.75 0 00-1.035.857L4.23 18.377z" stroke-width="1.508" stroke-linecap="round" stroke-linejoin="round"/></svg><svg id="icon-CalendarBlank" width="20" height="20" fill="none" xmlns="http://www.w3.org/2000/svg"><path d="M16.25 3.125H3.75a.625.625 0 00-.625.625v12.5c0 .345.28.625.625.625h12.5c.345 0 .625-.28.625-.625V3.75a.625.625 0 00-.625-.625zm-2.5-1.25v2.5m-7.5-2.5v2.5m-3.125 2.5h13.75" stroke="#3E54D8" stroke-width="1.25" stroke-linecap="round" stroke-linejoin="round"/></svg><svg id="icon-searchTicket" viewBox="0 0 32 32" fill="none" xmlns="http://www.w3.org/2000/svg"><path d="M14.5 25C20.299 25 25 20.299 25 14.5S20.299 4 14.5 4 4 8.701 4 14.5 8.701 25 14.5 25zm7.424-3.075L27.999 28" stroke-width="2" stroke-linecap="round" stroke-linejoin="round"/></svg><svg id="icon-calendarTicket" viewBox="0 0 32 32" fill="none" xmlns="http://www.w3.org/2000/svg"><path d="M26 5H6a1 1 0 00-1 1v20a1 1 0 001 1h20a1 1 0 001-1V6a1 1 0 00-1-1zm-4-2v4M10 3v4m-5 4h22" stroke-width="2" stroke-linecap="round" stroke-linejoin="round"/></svg><svg id="icon-rocket-launch" width="32" height="32" fill="none" xmlns="http://www.w3.org/2000/svg"><path d="M11.758 23.07c-1.415 4.243-7.071 4.243-7.071 4.243s0-5.657 4.242-7.07m15.556-7.072L16 21.657 10.343 16l8.485-8.485c3.213-3.213 6.426-3.182 7.796-2.978a.996.996 0 01.838.838c.205 1.37.236 4.584-2.977 7.796zm-1.414 1.415v8.071a1 1 0 01-.293.707l-4.043 4.043a1 1 0 01-1.687-.511L16 21.657" stroke-width="2" stroke-linecap="round" stroke-linejoin="round"/><path d="M17.415 8.929H9.344a1 1 0 00-.708.293l-4.042 4.042a1 1 0 00.51 1.688L10.345 16" stroke-width="2" stroke-linecap="round" stroke-linejoin="round"/></svg><svg id="icon-trendUpNotFill" width="24" height="24" fill="none" xmlns="http://www.w3.org/2000/svg"><path d="M21.75 5.25l-9 9L9 10.5l-6.75 6.75" stroke-width="1.5" stroke-linecap="round" stroke-linejoin="round"/><path d="M21.75 11.25v-6h-6" stroke-width="1.5" stroke-linecap="round" stroke-linejoin="round"/></svg><linearGradient id="paint0_linear" x1="12.445" y1="6.779" x2="17.488" y2="11.974" gradientUnits="userSpaceOnUse"><stop offset=".21" stop-color="#F15A24"/><stop offset=".684" stop-color="#FBB03B"/></linearGradient><linearGradient id="paint1_linear" x1="8.551" y1="13.066" x2="3.509" y2="7.871" gradientUnits="userSpaceOnUse"><stop offset=".21" stop-color="#ED1E79"/><stop offset=".893" stop-color="#522785"/></linearGradient></defs></svg>