<svg width="40" height="40" fill="none" xmlns="http://www.w3.org/2000/svg"><circle cx="20" cy="20" r="20" fill="#F0F2FD"/><path d="M16.307 29.715h7.473m-3.736-2.992v-5.23m-2.99-2.989l2.99 2.989 2.988-2.99" stroke="#6476E0" stroke-width="1.121" stroke-linecap="round" stroke-linejoin="round"/><path d="M15.438 23.644A7.459 7.459 0 0112.57 17.8c-.022-4.05 3.243-7.417 7.293-7.513a7.473 7.473 0 014.796 13.348 2.269 2.269 0 00-.88 1.78v.563a.748.748 0 01-.747.747h-5.978a.747.747 0 01-.747-.747v-.563a2.251 2.251 0 00-.869-1.771v0z" stroke="#6476E0" stroke-width="1.121" stroke-linecap="round" stroke-linejoin="round"/></svg>