<svg width="256" height="243" fill="none" xmlns="http://www.w3.org/2000/svg"><path d="M0 80.359C0 35.978 35.978 0 80.359 0v80.359H0z" fill="#ED6373"/><path d="M256 161.866c0 44.381-35.978 80.359-80.359 80.359v-80.359H256z" fill="#F3B63F"/><rect x="35.011" y="35.013" width="185.763" height="172.197" rx="32.718" fill="#fff" stroke="#E6EEFF" stroke-width="1.148"/><circle opacity=".07" cx="127.892" cy="121.112" r="45.221" fill="#3E54D8"/><path d="M135.322 140.628h-22.099a1.577 1.577 0 01-1.578-1.578v-28.413a1.577 1.577 0 011.578-1.578h15.785l7.892 7.892v22.099a1.579 1.579 0 01-1.578 1.578z" stroke="#3E54D8" stroke-width="3.157" stroke-linecap="round" stroke-linejoin="round"/><path d="M117.957 109.059v-4.736a1.577 1.577 0 011.579-1.578h15.784l7.893 7.892v22.099a1.58 1.58 0 01-1.579 1.578h-4.735m-17.364-7.892h9.471m-9.471 6.314h9.471" stroke="#3E54D8" stroke-width="3.157" stroke-linecap="round" stroke-linejoin="round"/></svg>